<?xml version="1.0" encoding="UTF-8"?>
<svg id="Layer_2" data-name="Layer 2" xmlns="http://www.w3.org/2000/svg" viewBox="0 0 755.02 755.09">
  <defs>
    <style>
      .cls-1 {
        fill: #fcf5e5;
      }
    </style>
  </defs>
  <g id="Layer_1-2" data-name="Layer 1">
    <path class="cls-1" d="M754.66,386.79c0-.12,0-.12,0-.25,0-.3.38-.62.36-.91s-.08-.62-.12-.91-.13-.61-.19-.9-.96-.36-1.05-.65.42-.75.32-1.02-.77-.3-.89-.57-.07-.6-.21-.85-.26-.51-.43-.75-.18-.59-.36-.82,0-.79-.21-1.01-1.03.19-1.25,0-.27-.55-.5-.73-.49-.5-.73-.66c.24-.17.89,0,1.12-.19s.14-.76.36-.96.54-.3.74-.52.41-.44.59-.68.66-.29.82-.53-.22-.84-.08-1.1.02-.63.14-.9.69-.34.8-.62.27-.54.35-.83-.23-.66-.17-.95.18-.55.22-.85-.05-.58-.04-.88.74-.59.73-.89c0-.06-.8-.04-.8-.09,0-.3.17-.59.14-.88s.29-.64.24-.93-.45-.51-.52-.8-.19-.55-.28-.83-.35-.48-.47-.75.36-.83.22-1.09-.6-.35-.76-.6-.17-.61-.34-.85-.85-.06-1.04-.29-.05-.74-.26-.95-.77,0-.99-.2-.29-.54-.53-.71-.09-.56-.34-.71c.23-.18.31-.25.53-.45s.64-.22.84-.43.36-.5.55-.73.35-.51.51-.75.41-.46.57-.72-.03-.7.1-.97-.22-.72-.11-1,.49-.42.58-.71.2-.54.27-.83-.22-.61-.17-.91.48-.52.5-.81.11-.58.11-.88-.37-.56-.39-.86c-.01-.12.16-.14.15-.26-.02-.3-.1-.57-.15-.86s.14-.62.07-.91.27-.71.18-.99-.2-.59-.31-.86-1.08-.16-1.21-.42-.11-.58-.26-.83.27-.89.1-1.13-.64-.27-.83-.5-.3-.54-.5-.75-.25-.63-.47-.82-.76-.03-.99-.21-.25-.7-.5-.86-1.09.09-1.35-.05c.23-.19.79-.44,1-.65s.07-.72.26-.94.42-.38.6-.62.82-.16.97-.41.21-.58.35-.84.04-.63.16-.91.43-.47.52-.75.11-.59.19-.87.42-.53.47-.82-.59-.67-.56-.97.53-.55.53-.85.07-.6.05-.9.26-.64.22-.94c0-.05-.2-.02-.2-.08-.04-.3-.43-.54-.49-.82s-.51-.46-.59-.75.46-.77.36-1.04-.66-.36-.79-.63-.33-.47-.47-.72-.01-.67-.18-.91-.25-.55-.43-.79-.72-.15-.92-.36-.26-.54-.47-.75-.53-.26-.76-.44-.45-.34-.7-.5-.4-.43-.66-.58-.68-.42-.95-.55c.21-.2.62-.51.82-.73s.67-.21.85-.44-.28-.91-.12-1.15.53-.33.68-.58.18-.54.3-.81.26-.5.37-.77.42-.46.5-.74-.13-.62-.07-.91.44-.51.47-.8.34-.57.36-.86-.52-.59-.53-.88.58-.63.55-.92-.38-.55-.43-.84c-.03-.19-.31-.14-.34-.33-.06-.29-.12-.56-.2-.84s.23-.69.14-.96-.67-.36-.79-.63.03-.66-.11-.92.05-.73-.11-.97-.43-.45-.61-.68-.25-.6-.44-.82-.78-.09-.99-.29-.25-.61-.47-.8-.85.16-1.09-.01-.38-.45-.63-.6-.56-.15-.82-.28-.09-.67-.36-.78c.2-.21.44-.14.62-.37s-.13-.84.04-1.08.49-.37.63-.63.08-.61.21-.87.59-.38.69-.65-.07-.64.02-.92.49-.48.55-.76-.23-.64-.18-.93.39-.54.41-.84-.16-.59-.17-.89.51-.62.49-.92-.54-.54-.59-.83-.11-.57-.18-.86c-.03-.12.21-.18.18-.3-.07-.29-.23-.56-.32-.84s.08-.68-.03-.96-.41-.49-.54-.75-.81-.22-.96-.47-.4-.4-.57-.64-.33-.44-.52-.67.24-1,.03-1.21-.66-.19-.88-.38-.72-.03-.95-.21-.17-.77-.42-.93-.49-.35-.75-.49-.55-.23-.82-.35-.77-.07-1.05-.17c.19-.22.17-.78.34-1.02s.89-.1,1.04-.35-.16-.76-.02-1.02.92-.22,1.03-.49.19-.59.28-.86-.06-.65,0-.93.32-.55.37-.84-.43-.65-.4-.94.32-.56.32-.86-.08-.58-.1-.88-.14-.57-.18-.86.38-.67.32-.96-.8-.4-.88-.68c-.05-.16.69-.39.64-.55-.09-.28-1.06-.25-1.16-.53s-.18-.52-.31-.79-.28-.48-.42-.73.28-.86.12-1.1-.62-.27-.8-.5-.26-.54-.46-.75-.26-.58-.48-.78-.84.1-1.07-.08.02-1.03-.23-1.19-.78.12-1.03-.02-.58-.12-.85-.24-.42-.49-.69-.59-.46-.22-.74-.3c.18-.23-.12-.68.03-.92s.75-.22.89-.47.19-.56.31-.82.61-.39.71-.67-.21-.69-.13-.97.38-.51.43-.8.3-.56.34-.85.04-.61.05-.9-.81-.58-.82-.88.11-.56.08-.85.07-.58.02-.86.26-.65.18-.94-.51-.45-.61-.73c-.07-.2-.1-.19-.17-.39-.1-.28.41-.81.29-1.07s-.62-.37-.76-.62-.09-.65-.24-.89-.84-.12-1.02-.36-.33-.45-.53-.67-.05-.76-.26-.96-.52-.31-.74-.5-.57-.21-.81-.38-.65-.03-.9-.18-.24-.77-.5-.89-.74.27-1.01.16-.29-.91-.57-1-.45.04-.74-.03c.17-.24-.16-.58-.01-.84s.64-.31.77-.58-.11-.68,0-.95.57-.41.66-.7.08-.59.14-.88-.39-.65-.34-.94.4-.52.42-.82.43-.58.42-.87-.4-.57-.43-.86.45-.66.4-.95-.24-.57-.31-.86-.76-.38-.85-.67-.25-.5-.37-.77c-.06-.14.61-.42.55-.56-.11-.27-.63-.36-.76-.62s.17-.78.02-1.03-.56-.35-.74-.58-.67-.21-.86-.43.2-.98,0-1.19-.55-.32-.77-.51-.93.23-1.16.06-.33-.5-.58-.66-.21-.82-.47-.96-.73.16-1,.04-.39-.63-.67-.72-.69.26-.98.18-.74-.19-1.03-.24c.15-.25.23-.75.36-1.01s.75-.3.86-.57-.33-.75-.24-1.03.25-.52.31-.8.33-.52.38-.81.42-.55.44-.84-.29-.61-.29-.91.12-.59.1-.89-.08-.59-.12-.88-.21-.56-.28-.84.16-.66.07-.94-.6-.41-.71-.69.3-.78.17-1.05c-.04-.09-.66.21-.7.13-.13-.27-.22-.53-.37-.78s-.05-.66-.21-.9-.55-.32-.73-.55-.18-.62-.38-.83-.38-.46-.6-.66-.29-.59-.52-.77-.93.3-1.18.14-.2-.78-.45-.92-.35-.66-.62-.78-.81.38-1.08.28-.6,0-.88-.08-.36-1.01-.65-1.07-1.06.58-1.35.54c.14-.26.6-.74.72-1.01s.15-.57.25-.84.14-.56.22-.85.73-.45.78-.74-.16-.64-.13-.94-.36-.61-.35-.91-.14-.56-.15-.86.75-.65.71-.94-.07-.61-.13-.9-.95-.37-1.04-.66-.03-.58-.14-.85.12-.67,0-.94-.49-.4-.64-.66c-.04-.08-.12-.04-.16-.12-.14-.26.05-.71-.11-.95s-.59-.3-.77-.53-.05-.72-.25-.94-.68-.16-.89-.37-.53-.26-.75-.44.02-1.01-.22-1.17-.62-.16-.88-.31-.52-.3-.79-.43-.73.2-1,.09-.55-.14-.83-.23-.36-.93-.65-.99-.66.22-.95.18-.61.02-.9,0c.12-.27.5-.45.61-.72s-.03-.64.05-.92.14-.57.21-.86.36-.54.4-.83-.27-.62-.26-.91-.24-.57-.24-.87-.1-.55-.12-.84.64-.67.59-.96-.34-.54-.42-.82.2-.69.11-.97-.3-.54-.41-.81-.83-.26-.97-.52.09-.71-.07-.96c-.08-.14-.11-.12-.19-.26-.16-.25-.53-.35-.7-.58s-.22-.57-.41-.79-.58-.25-.79-.45-.13-.72-.35-.91-.31-.58-.55-.76-.79.11-1.04-.04-.28-.7-.54-.83-.67.01-.94-.1-.61-.03-.88-.12-.51-.3-.79-.38-.64.28-.93.23-.52-.35-.81-.37-.76-.13-1.05-.14c.11-.27.05-.79.14-1.07s.45-.46.52-.75.55-.5.59-.78-.48-.65-.45-.94.4-.56.4-.85-.5-.56-.52-.85-.16-.54-.2-.83-.07-.54-.14-.83.51-.73.42-1.01-.28-.53-.39-.8.06-.69-.06-.95-.8-.25-.95-.5-.33-.47-.49-.71c-.1-.15-.21-.08-.31-.22-.17-.24.1-.81-.08-1.04s-.93.05-1.13-.16-.05-.76-.27-.96-.28-.6-.51-.78-.49-.36-.73-.52-.45-.45-.7-.59-.8.28-1.07.16-.47-.37-.75-.47-.59-.05-.87-.13-.53-.29-.81-.34-.61.18-.9.15-.53-.73-.82-.74-.4.19-.69.2c.1-.28-.2-.46-.12-.75s-.04-.59.01-.88.36-.52.39-.82.3-.57.31-.87-.39-.58-.41-.88.06-.58.02-.87.09-.61.03-.9-.1-.58-.18-.87.07-.66-.03-.93-.95-.23-1.07-.5.2-.74.05-1-.15-.61-.31-.85-.66-.25-.84-.48c-.07-.09,0-.14-.08-.23-.18-.23-.46-.37-.66-.58s-.11-.71-.33-.91-.23-.67-.46-.85-.71-.08-.95-.24-.55-.24-.81-.38-.67.04-.93-.09-.45-.38-.73-.49-.41-.6-.7-.69-.7.35-.98.29-.44-.9-.73-.94-.65.31-.94.29-.6-.35-.89-.35-.94.73-1.24.75c.08-.28.33-.9.39-1.19s-.01-.58.02-.87.49-.54.5-.83-.52-.58-.53-.88.06-.56.03-.85.38-.63.33-.92-.02-.61-.09-.89-.26-.54-.36-.82-.28-.52-.4-.79-.3-.5-.44-.76-.58-.32-.74-.57.29-.9.12-1.14-.31-.53-.5-.76c-.12-.13-.14-.11-.26-.25-.19-.22-.91.05-1.12-.15s.13-1.02-.09-1.21-.67-.14-.9-.31-.71.02-.96-.13-.46-.34-.72-.47-.6-.04-.87-.15-.24-1.03-.52-1.12-.63-.03-.91-.1-.72.63-1.01.58-.46-.98-.75-1.01-.62.37-.91.36-.6-.21-.89-.19-.51.23-.8.27c.07-.29.36-.49.4-.78s-.28-.64-.26-.93.58-.58.58-.88-.83-.56-.85-.86.19-.6.14-.89.44-.7.37-.99-.29-.56-.38-.84-.68-.39-.79-.66-.17-.55-.3-.82-.3-.49-.45-.75-.2-.56-.37-.81-.5-.35-.69-.58.06-.85-.15-1.06c-.05-.06-.02-.08-.08-.14-.21-.22-1.01.19-1.22,0s-.1-.79-.33-.97-.33-.58-.58-.74-.67-.06-.93-.2-.73.18-1,.06-.47-.33-.75-.43-.48-.36-.77-.44-.54-.25-.83-.31-.59-.03-.88-.07-.59.13-.88.12-.57.06-.86.07-.59-.22-.88-.19-.57-.06-.86,0c.05-.29.02-.56.05-.85s.17-.58.18-.87,0-.6,0-.89.14-.62.11-.91.03-.63-.03-.92-.25-.57-.33-.86-.68-.4-.78-.67.2-.72.08-.98-.47-.42-.62-.68-.07-.66-.23-.9-.19-.62-.37-.85-.68-.21-.88-.43-.14-.71-.36-.91c-.09-.09-.18,0-.27-.09-.22-.2-.53-.32-.76-.5s-.81.12-1.05-.05-.26-.67-.51-.81-.66.02-.93-.11-.5-.27-.77-.38-.36-.76-.64-.84-.71.38-.99.32-.53-.3-.82-.34-.6.31-.89.29-.57-.96-.86-.96-.61.21-.9.24-.5.7-.79.74-.35-.54-.63-.47c.04-.29-.05-.26-.03-.56s.18-.61.18-.91-.24-.6-.27-.89-.37-.54-.43-.83.49-.73.41-1.01-.67-.43-.77-.71-.31-.5-.42-.78-.15-.57-.29-.83-.33-.48-.49-.73-.13-.62-.31-.86-.41-.43-.61-.66-.52-.31-.74-.52-.44-.38-.67-.57c-.06-.05.26-.44.2-.49-.23-.19-.43-.45-.67-.62s-.85.2-1.1.05-.59-.11-.85-.24-.39-.51-.66-.62-.41-.6-.69-.7-.63.03-.92-.04-.55-.33-.84-.38-.6-.11-.89-.13-.61.47-.91.47-.57.05-.86.07-.66-.62-.95-.58-.54.43-.82.5-.52.12-.8.2c.02-.3.27-.54.27-.83s-.52-.57-.54-.87.06-.59.01-.88.18-.64.11-.93-.54-.46-.63-.75.05-.64-.06-.91-.63-.35-.76-.61.52-.96.37-1.22-.37-.51-.54-.75-.57-.34-.76-.57-.9.03-1.11-.18.04-.88-.18-1.08-.62-.18-.85-.36c-.06-.04.24-.44.19-.48-.24-.18-.62-.19-.86-.35s-.52-.32-.78-.46-.58-.19-.85-.31-.59-.12-.87-.22-.44-.64-.72-.71-.67.2-.96.14-.62.15-.91.11-.57-.25-.86-.26-.59.05-.89.06-.62-.26-.92-.22-.46.81-.75.87-.69-.42-.98-.35-.3-.09-.58.01c0-.29-.23-.25-.24-.54s.39-.64.36-.93-.12-.61-.18-.89-.99-.36-1.07-.64.28-.69.18-.97.21-.74.09-1.01-.72-.31-.87-.56.04-.73-.12-.97-.33-.52-.51-.75-1.01.09-1.2-.13.16-.97-.06-1.17-.41-.47-.64-.65-.49-.37-.74-.54c-.14-.09-.44.36-.58.27-.25-.17-.42-.43-.67-.58s-.34-.67-.6-.79-.56-.27-.84-.37-.76.37-1.04.29-.56-.12-.85-.18-.56-.13-.85-.17-.58.17-.88.15-.57-.51-.86-.5-.6-.05-.89-.02-.65-.26-.94-.2-.39,1-.67,1.07-.79-.6-1.06-.5-.41.47-.68.58c0-.29-.25-.52-.28-.81s.22-.62.16-.91-.59-.46-.66-.74.47-.75.37-1.03-.5-.45-.61-.72-.57-.36-.7-.62.39-.9.23-1.15-1.01-.02-1.18-.25-.08-.66-.28-.88-.18-.64-.39-.84-.44-.41-.67-.6-.83.14-1.08-.04-.1-.89-.36-1.04c-.13-.08-.26.13-.38.06-.25-.15-.66,0-.92-.13s-.2-.99-.47-1.11-.76.33-1.04.24-.59-.04-.87-.11-.53-.3-.82-.35-.54-.6-.83-.62-.62.46-.92.45-.56.33-.85.35-.58-.1-.87-.06-.7-.49-.98-.42-.53.35-.82.44-.61.08-.88.19-.31.23-.57.36c-.02-.29-.37-.32-.41-.61s.3-.66.23-.95-.47-.49-.55-.77.24-.72.13-.99-.78-.3-.91-.56.34-.86.19-1.12-.92-.11-1.09-.35-.04-.7-.23-.93-.54-.31-.74-.52-.37-.45-.59-.65-.21-.68-.45-.86-.56-.27-.8-.43-.48-.39-.74-.53c-.13-.07-.37.36-.5.29-.26-.14-.35-.64-.62-.76s-.55-.26-.83-.36-.65.07-.94,0-.66.3-.95.25-.47-.86-.76-.89-.62.03-.91.02-.61.06-.9.07-.59.14-.88.18-.48.6-.77.66-.76-.65-1.05-.57-.51.41-.78.51-.48.38-.75.51-.36-.18-.62-.04c-.04-.29-.11-.23-.17-.51s-.35-.52-.44-.8-.58-.4-.68-.67-.19-.51-.32-.78.22-.75.08-1.01-.74-.21-.91-.45.19-.84,0-1.07-.57-.29-.76-.5-.12-.71-.34-.91-.83.06-1.05-.12-.19-.71-.43-.88-.36-.56-.62-.71-.83.31-1.09.18c-.19-.09-.03-.44-.23-.53-.27-.12-.54-.28-.81-.38s-.64.05-.92-.03-.5-.45-.79-.51-.64.24-.93.2-.55-.48-.85-.5-.61.12-.9.13-.54.58-.83.61-.6-.19-.89-.14-.63-.15-.92-.07-.41.62-.69.71-.67-.14-.94-.02-.47.36-.73.5-.42-.15-.67.01c-.05-.29-.03-.31-.11-.6s-.56-.45-.66-.73-.35-.48-.47-.75,0-.64-.14-.9.05-.72-.11-.97-.72-.23-.9-.46-.36-.45-.56-.67-.07-.76-.28-.96-.73-.08-.96-.27-.62-.13-.86-.3-.42-.38-.67-.53-.23-.79-.5-.93-.62-.08-.9-.19c-.12-.05-.17.07-.29.02-.28-.11-.55-.2-.83-.29s-.5-.42-.79-.48-.68.47-.97.42-.52-.5-.81-.52-.59-.01-.88-.01-.57.18-.87.2-.68-.66-.97-.61-.43.9-.72.97-.53.21-.81.3-.71-.27-.99-.16-.47.4-.73.53-.38.5-.63.65-.52-.42-.76-.25c-.07-.29-.15-.2-.24-.48s-.62-.4-.73-.67-.17-.56-.3-.82.13-.75-.03-1.01-.55-.36-.72-.6-.13-.66-.32-.89-.82-.05-1.03-.26-.49-.3-.72-.49-.21-.66-.45-.83-.22-.76-.47-.91-.79.16-1.05.02-.57-.15-.84-.27-.46-.41-.75-.51c-.09-.03-.09-.02-.18-.05-.28-.1-.59-.06-.88-.13s-.6.07-.89.02-.51-.49-.81-.52-.6.48-.9.47-.59-.74-.88-.72-.55.46-.84.49-.57.08-.86.14-.54.2-.82.28-.68-.18-.95-.08-.66-.01-.93.11-.21.89-.47,1.03-.76-.12-1,.04-.25,0-.48.19c-.09-.28-.7.05-.81-.23s.47-.84.34-1.11-.65-.33-.8-.59-.31-.49-.48-.74-.1-.67-.28-.9-.84-.04-1.04-.25-.03-.8-.24-.99-.62-.18-.85-.36-.63-.09-.88-.25-.05-1.04-.31-1.19-.53-.31-.8-.44-.63-.09-.91-.19-.55-.29-.83-.37c-.12-.03-.31.64-.43.61-.29-.08-.55-.14-.83-.2s-.54-.25-.83-.28-.56-.26-.85-.27-.59-.18-.89-.17-.56.37-.86.4-.56.15-.84.2-.58.01-.87.09-.53.22-.81.32-.73-.24-1-.13-.32.68-.58.82-.88-.32-1.13-.17-.05.98-.28,1.15-.68.2-.9.39c-.1-.28.21-.82.09-1.09s-.26-.57-.4-.83-.41-.47-.57-.72-.9-.08-1.08-.32-.26-.52-.46-.74-.03-.79-.24-1-.52-.33-.75-.52-.75.02-.99-.15-.48-.29-.74-.44-.55-.15-.82-.28-.36-.59-.63-.7-.46-.48-.74-.57-.65.17-.94.1c-.12-.03.02-.65-.1-.68-.29-.07-.66.19-.95.15s-.63.39-.92.37-.56,0-.86.01-.55.15-.84.18-.68-.75-.97-.7-.42.86-.71.93-.79-.63-1.06-.54-.51.38-.78.49-.69-.04-.95.1-.06,1.12-.31,1.27-.71-.05-.95.12-.26.6-.49.78-.65-.12-.87.08c-.11-.27-.35-.3-.48-.56s0-.68-.15-.93-.3-.53-.48-.76-.36-.49-.55-.71-.53-.33-.74-.53-.54-.29-.76-.48-.35-.5-.59-.68-.65-.07-.9-.23-.22-.8-.48-.94-.7.08-.97-.04-.67.17-.95.08-.48-.36-.76-.43-.51-.35-.8-.4c-.16-.03-.15-.06-.31-.09-.29-.05-.62.27-.91.24s-.55-.52-.84-.53-.59.25-.88.27-.55.25-.84.29-.67-.43-.95-.36-.49.48-.77.56-.68-.17-.95-.06-.38.6-.65.73-.84-.32-1.09-.17-.16.87-.4,1.04-.88-.19-1.11-.01,0,.91-.22,1.11-.51-.24-.71-.02c-.13-.26-.58.09-.72-.16s.3-.9.14-1.14-.71-.22-.9-.45-.19-.63-.39-.84-.79-.03-1-.23-.33-.5-.56-.68-.5-.29-.74-.45-.33-.59-.58-.73-.46-.43-.72-.55-.79.39-1.07.29-.56-.06-.84-.14-.38-.89-.67-.95-.67.47-.96.43c-.17-.02-.18.15-.35.13-.29-.03-.53-.53-.82-.54s-.58.12-.88.13-.64-.54-.93-.51-.49.73-.78.79-.6-.05-.89.03-.56.16-.84.26-.56.18-.83.3-.51.28-.77.42-.35.52-.6.68-.89-.25-1.12-.07-.37.5-.59.7-.61.24-.82.45-.13,1.2-.31,1.42c-.14-.26-.55-.77-.71-1.02s-.42-.39-.6-.62.32-1.03.12-1.25-1.05.21-1.26,0-.38-.41-.61-.59-.32-.52-.56-.68-.24-.72-.5-.86-.49-.39-.75-.52-.65-.03-.92-.14-.5-.4-.78-.49-.6-.1-.89-.16-.63.16-.93.12-.55-.57-.84-.59c-.09,0-.15.92-.24.91-.3-.02-.56-.55-.85-.55s-.58.16-.87.18-.58.07-.87.12-.67-.31-.96-.25-.5.43-.78.52-.55.22-.82.33-.57.18-.83.32-.31.63-.56.78-.86-.23-1.09-.06-.49.37-.72.56-.03.84-.25,1.04-.43.37-.62.59-.59.44-.77.68c-.16-.25.04-.93-.14-1.16s-.66-.25-.85-.48-.43-.41-.64-.62-.45-.39-.67-.58-.75.02-.98-.15.03-1.11-.22-1.26-.95.49-1.21.35-.26-.82-.53-.93-.47-.49-.75-.59-.58-.23-.87-.3-.76.79-1.06.74-.54-.17-.84-.2-.55-.55-.85-.55c-.09,0-.09-.19-.18-.19-.3,0-.62-.14-.92-.13s-.53.77-.82.81-.71-.57-.99-.51-.49.54-.77.62-.47.43-.74.54-.65-.03-.91.09-.34.6-.59.74-.55.18-.8.35-.89-.2-1.12-.02-.47.41-.69.61-.47.41-.67.63-.39.49-.57.72,0,.91-.17,1.15c-.17-.24-.41-.59-.6-.82s-.56-.27-.76-.48-.14-.69-.36-.88-.37-.49-.6-.67-.76.07-1.01-.09-.34-.56-.59-.7-.55-.19-.82-.32-.42-.52-.7-.63-.7.28-.99.2-.45-.61-.74-.67-.59-.1-.89-.13-.59-.34-.88-.35-.61.3-.91.31c-.12,0-.11.4-.24.41-.3.01-.58-.07-.87-.04s-.63-.19-.91-.14-.48.52-.76.6-.49.33-.76.42-.79-.42-1.06-.3-.64.08-.9.22-.3.68-.55.84-.75-.02-.99.15-.32.58-.54.77-.29.56-.49.77-.09.68-.28.91-.85.08-1.02.32-.19.81-.34,1.06c-.18-.23-.73-.38-.93-.59s.01-.82-.2-1.02-.32-.55-.55-.74-.74,0-.98-.17-.59-.14-.84-.29-.2-.88-.46-1.01-.81.4-1.09.29-.32-.85-.6-.94-.68.27-.97.21-.49-.65-.78-.7-.66.72-.96.7-.56-.3-.86-.29-.57.14-.86.17c-.12.01-.12.1-.24.11-.3.03-.61-.21-.89-.16s-.64-.17-.93-.1-.37.8-.65.89-.54.14-.81.25-.69-.12-.95.01-.37.52-.62.67-.45.34-.69.51-.49.29-.71.48-.93-.14-1.14.07-.06.77-.25.99-.33.48-.5.71-.57.32-.73.57-.23.17-.37.43c-.19-.22-.59.21-.8,0s-.09-.77-.31-.96-.68-.09-.91-.26-.51-.26-.76-.42-.5-.27-.76-.41-.55-.15-.82-.27-.37-.66-.65-.76-.66.21-.95.14-.58.03-.87-.02-.53-.28-.82-.3-.56-.63-.86-.63-.62-.11-.92-.09-.5.91-.79.95c-.11.02-.14-.15-.25-.14-.29.04-.53.26-.81.32s-.66-.27-.94-.19-.4.61-.67.72-.6.02-.87.15-.71-.08-.96.06-.39.49-.63.66-.41.41-.64.6-.27.55-.48.75-.98-.14-1.18.07-.1.7-.28.93-.77.19-.93.44-.2.6-.34.86,0,.62-.13.89c-.2-.21-.7-.03-.92-.22s-.39-.4-.62-.58-.15-.8-.39-.96-.49-.35-.75-.5-.52-.31-.79-.44-.72.21-.99.11-.6.05-.89-.02-.41-.77-.7-.83-.56-.37-.85-.4-.62.02-.91.01-.61.07-.9.09-.59.17-.88.2-.6.03-.89.08c-.14.03-.15-.03-.3,0-.29.06-.5.46-.79.54s-.6.06-.87.16-.69-.09-.96.03-.4.55-.66.69-.23.73-.48.89-.47.29-.7.47-.85-.12-1.07.08-.22.62-.42.83-.79.1-.98.32.22.91.06,1.15-.77.19-.92.45-.38.48-.51.74-.01.66-.12.94c-.22-.2-.37-.5-.6-.68s-.53-.27-.78-.44-.38-.51-.64-.66-.84.35-1.1.22-.15-1.13-.43-1.23-.85.66-1.13.58-.35-.98-.64-1.04-.63.03-.92-.01-.63.32-.92.3-.58-.28-.88-.28-.6-.07-.9-.04-.61,0-.9.05-.6.12-.88.19c-.14.03-.13.07-.27.1-.29.07-.65-.04-.93.05s-.31.87-.58.98-.52.23-.78.36-.48.31-.73.46-.77-.09-1.01.08-.37.49-.59.68-.21.63-.41.84-.91-.04-1.1.18.11.84-.07,1.08-.85.14-1,.39-.25.57-.38.83-.4.49-.51.76.11.45.02.73c-.23-.19-.45-.03-.69-.2s-.5-.31-.75-.46-.65,0-.92-.13-.42-.45-.69-.56-.53-.22-.81-.31-.45-.56-.74-.63-.68.43-.97.38-.5-.81-.79-.84-.62.69-.92.69-.58-.22-.88-.19-.58.01-.88.06-.69-.41-.98-.34-.38.86-.66.95c-.07.02-.02.18-.09.2-.29.09-.55.12-.82.23s-.78-.33-1.05-.21-.33.64-.58.78-.61.13-.85.3-.47.36-.69.54-.3.53-.52.74-.48.33-.68.55-.61.26-.79.49-.65.29-.81.54.02.72-.13.98-.3.52-.42.78-.04.62-.14.9-.44.12-.52.41c-.24-.18-.41.15-.65-.01s-.35-.57-.61-.71-.75.21-1.02.09-.55-.13-.83-.22-.48-.34-.77-.42-.55-.12-.84-.17-.55-.18-.84-.22-.57-.01-.87-.02-.56.23-.85.24-.55,0-.85.04-.56,0-.85.06-.57.03-.86.11-.56.1-.84.2c-.13.05-.27-.34-.4-.29-.28.1-.61.11-.88.23s-.33.67-.58.82-.42.41-.66.57-.36.45-.59.63-.91-.18-1.13.01-.57.29-.77.5-.3.55-.49.78-.42.45-.58.69-.26.56-.4.81-.2.57-.33.84.03.65-.07.93-.28.51-.36.79-.3.39-.37.67c-.25-.16-.41-.22-.67-.36s-.55-.22-.82-.34-.48-.38-.76-.49-.53-.33-.81-.41-.62-.03-.91-.09-.56-.37-.85-.41-.62,0-.92-.02-.61.27-.9.27-.54.54-.84.57-.56.02-.85.07-.72-.53-1-.46-.36.82-.64.91-.84-.54-1.11-.42c-.06.02.21.64.15.67-.27.12-.43.41-.69.54s-.88-.36-1.12-.21-.12.86-.36,1.04-.66.09-.88.28-.38.45-.59.65-.69.17-.88.39.13.84-.05,1.08-.94.08-1.09.33.34.86.2,1.13-.59.35-.7.63-.24.54-.33.82.08.62,0,.91-.24.89-.29,1.19c-.25-.15-.51-1.06-.77-1.19s-.59-.19-.86-.3-.54-.32-.81-.41-.69.25-.98.19-.64.35-.93.3-.47-.94-.76-.97-.62.78-.91.78-.6-.75-.89-.73-.53.54-.82.58-.63-.21-.92-.14-.64-.06-.92.02-.4.65-.67.76-.46.36-.72.49c-.18.09-.22.01-.39.1-.26.13-.48.31-.73.46s-.69,0-.93.17-.14.77-.36.95-.57.21-.78.41-.89-.03-1.09.18-.39.48-.56.71.4,1,.25,1.24-.53.33-.67.59-.05.6-.17.87-.84.28-.94.56-.05.61-.12.89-.12.58-.17.86-.15.41-.19.7c-.26-.14-.4-.15-.67-.26s-.53-.26-.81-.36-.67.23-.95.15-.49-.42-.78-.47-.57-.14-.86-.17-.58,0-.88,0-.57.11-.87.12-.61-.28-.9-.24-.49.57-.78.63-.52.21-.8.29-.59-.03-.87.08-.59.06-.86.18-.53.23-.78.38c-.17.1-.09.25-.26.35-.26.15-.54.22-.78.38s-.41.4-.64.58-.86-.1-1.08.1.18,1-.02,1.22-.76.09-.95.32.09.77-.07,1.01-.67.25-.81.5-.72.3-.85.56-.11.62-.21.89.17.68.09.96,0,.59-.06.87-.08.56-.12.84-.54.28-.56.57c-.27-.12-.37-.04-.65-.14s-.53-.32-.81-.4-.68.32-.97.26-.51-.49-.8-.53-.58-.35-.88-.36-.61.41-.9.42-.6-.07-.89-.04-.49.59-.78.64-.72-.55-1-.47-.65-.03-.93.06-.25.97-.52,1.09-.62.02-.89.16-.37.49-.62.65c-.06.04-.33-.39-.39-.35-.25.16-.67.1-.9.28s-.1.83-.33,1.02-.29.52-.5.73-.93-.06-1.12.17-.48.41-.65.65-.42.47-.57.73.54.98.4,1.24-.75.29-.86.56-.3.53-.39.81-.37.53-.44.81.57.72.52,1.01-.86.49-.88.78.45.73.44,1.02c-.28-.11-.67-.16-.95-.25s-.52-.32-.81-.39-.54-.41-.83-.45-.66.58-.95.56-.57-.76-.86-.76-.61.19-.9.22-.51.65-.8.69-.66-.36-.95-.29-.67-.14-.96-.05-.35.78-.62.89-.5.28-.76.42-.52.23-.78.39-.47.32-.72.49c-.06.04-.16-.1-.22-.06-.24.17-.24.62-.47.81s-.9-.13-1.11.07-.5.37-.69.59-.37.49-.54.73-.18.61-.34.86-.03.66-.17.92-.86.24-.98.51.53.84.43,1.12-.43.46-.51.74-.68.46-.73.75.15.64.11.93.49.62.48.91-.27.79-.25,1.08c-.28-.09-.74-.31-1.02-.38s-.52-.36-.81-.42-.56-.39-.85-.42-.62-.06-.91-.06-.6.43-.89.44-.64-.42-.93-.38-.5.64-.79.7-.52.27-.81.35-.65-.11-.92,0-.37.6-.64.73-.78-.25-1.04-.11-.65.1-.9.26-.48.39-.71.58c-.12.1-.14.08-.26.18-.23.18-.37.52-.59.71s-.55.32-.75.54,0,.79-.18,1.02-.33.48-.49.72-.48.39-.62.65-.48.43-.61.69,0,.65-.1.93-.32.52-.41.8.22.66.16.94-.28.53-.32.82-.31.56-.33.86.24.59.24.89-.32.3-.3.59c-.29-.08-.31.04-.6-.02s-.66.48-.96.44-.54-.29-.84-.31-.58-.1-.87-.09-.57.11-.86.14-.59-.06-.88,0-.65-.17-.94-.09-.4.69-.68.79-.65-.09-.93.03-.6.13-.86.27-.45.41-.7.57-.29.59-.52.77-.9-.17-1.12.03c-.06.05-.08.01-.14.06-.22.2-.28.59-.48.8s-.22.6-.41.82-.36.45-.53.69-.59.32-.74.57.18.76.04,1.03-.4.44-.51.71-.22.53-.31.81-.31.52-.38.8-.07.58-.11.87-.33.55-.36.85.5.6.5.9-.68.61-.66.9.36.58.4.87c-.29-.07-.52-.62-.81-.66s-.68.77-.97.75-.56-.28-.85-.28-.58-.05-.87-.02-.58.04-.87.09-.52.34-.8.4-.58.02-.86.11-.64-.06-.92.05-.56.21-.82.35-.52.29-.77.44-.36.52-.6.69-.28.56-.5.75-1-.24-1.22-.04c-.12.12.21.47.09.59-.21.21-.12.67-.31.89s-.61.23-.79.47-.52.36-.67.6.07.71-.07.97-.18.53-.3.8-.67.35-.76.63-.42.5-.5.78.21.66.16.95-.1.57-.13.86-.23.58-.24.87-.02.6,0,.89.07.59.11.88.17.53.23.82c-.29-.05-.54-.13-.83-.16s-.59-.07-.88-.07-.57.5-.86.52-.57-.04-.86,0-.71-.63-.99-.57-.48.55-.76.64-.48.38-.76.48-.57.11-.84.24-.35.55-.61.69-.6.09-.84.26-.87-.19-1.1,0,.05.96-.16,1.16-.56.24-.76.46c-.1.11-.45-.21-.54-.1-.2.22-.48.4-.66.63s-.33.53-.49.77.18.81.03,1.06-.9.21-1.02.48.61.9.51,1.17-.74.36-.82.64.24.66.18.95-.66.48-.69.78.03.61.02.9.59.59.59.88-.59.61-.56.91.02.61.07.9.34.53.41.81c-.29-.03-.59.27-.88.26s-.57-.37-.87-.36-.6-.12-.9-.09-.61,0-.9.06-.54.31-.83.38-.56.17-.84.27-.67-.06-.94.06-.6.18-.86.31-.29.7-.53.86-.38.46-.62.63-.34.47-.57.66-.99-.19-1.2.02.08.88-.11,1.1c-.11.13-.26,0-.37.13-.19.23-.09.65-.26.89s-.61.29-.76.54-.63.34-.76.61-.32.54-.43.81,0,.65-.08.93.2.66.13.95.09.59.04.88-.05.55-.07.85-.37.55-.37.85-.04.58-.02.88.34.54.38.83.02.57.08.86-.14.58-.05.86c-.3-.02-.53.23-.83.24s-.58-.02-.87,0-.68-.56-.97-.52-.45.79-.74.86-.75-.46-1.03-.37-.59.19-.86.31-.47.45-.73.58-.25.75-.5.9-.48.29-.72.47-.39.41-.62.6-.56.23-.77.44-.36.45-.55.67-.87.06-1.05.3c-.05.07.11.18.05.25-.18.24-.53.38-.69.63s.11.76-.02,1.02-.79.29-.91.56.15.72.06.99-.15.57-.23.86-.17.57-.22.86-.45.55-.48.84.58.63.57.93-.43.59-.41.89.7.52.73.81-.46.66-.4.95.65.43.73.71-.37.64-.27.91c-.3,0-.53-.31-.82-.29s-.51.88-.8.92-.73-.75-1.02-.68-.55.33-.83.42-.65,0-.93.1-.43.55-.69.67-.32.64-.57.78-.83-.23-1.08-.06-.65.17-.88.35.14,1.06-.08,1.26-1.06-.21-1.26.01-.32.54-.5.78-.33.52-.5.77c-.05.08-.13.03-.18.11-.17.25.12.78-.02,1.04s.03.66-.1.92-.25.5-.36.77-.32.49-.4.77-.92.39-.98.68.19.66.16.95.08.61.07.9-.04.59-.03.89.4.55.44.85.2.54.25.83-.02.58.05.86.27.5.37.78.05.87.17,1.14c-.29.01-.88-.35-1.17-.32s-.56.28-.85.34-.45.59-.73.66-.61-.09-.89,0-.56.14-.83.26-.54.2-.8.33-.35.52-.6.68-.42.37-.65.54-.7.03-.92.23-.5.32-.71.53-.41.42-.6.65-.24.55-.41.79-.6.31-.75.57c-.1.16-.31.04-.41.2-.15.26.03.71-.09.98s-.51.44-.62.71.04.66-.04.94.04.62-.02.91-.37.53-.41.82.05.6.03.89-.05.59-.04.88.31.56.33.86-.18.6-.13.89-.36.69-.29.97.41.52.5.8-.09.68.02.95.47.24.6.51c-.29.03-.31.59-.6.63s-.65-.33-.93-.26-.54.23-.82.32-.43.49-.7.6-.82-.38-1.08-.25-.16.9-.41,1.06-.95-.37-1.18-.2-.34.55-.56.74-.19.66-.4.87-.29.5-.48.72-.7.17-.88.4-.07.65-.23.9-.31.47-.45.73c-.09.16-.23.09-.32.25-.14.26-.25.53-.37.8s.09.64,0,.92-.94.34-1.01.62-.2.59-.25.88.08.63.06.93.64.62.63.91-.28.57-.27.87.06.57.1.86-.13.62-.06.9.09.59.17.87.56.42.67.7-.25.74-.12,1.01.04.23.19.49c-.29.04-.09.62-.38.69s-.55.11-.83.2-.69-.22-.96-.12-.29.76-.56.88-.49.25-.74.4-.92-.38-1.16-.21-.4.47-.63.65-.08.79-.29.99-.54.25-.74.47-.53.31-.71.54-.45.4-.61.64-.54.37-.68.63.48.89.35,1.16c-.08.17-.17.12-.25.29-.12.27-.24.51-.34.78s-.41.47-.49.75-.75.44-.81.73.56.7.53.99-.02.57-.04.87,0,.57.01.86-.16.59-.13.88-.43.68-.38.97.3.57.37.85.56.45.66.73.28.51.4.78.13.58.27.84.34.6.5.84c-.29.06-.56.54-.85.62s-.76-.47-1.03-.37-.67-.01-.93.11-.57.25-.83.39-.03,1.1-.28,1.26-1.01-.42-1.25-.24-.26.64-.48.83-.05.77-.26.99-1.03-.13-1.22.1-.03.74-.2.98-.42.43-.57.69-.18.57-.31.84-.14.57-.25.85c-.06.14-.5-.03-.55.11-.11.28-.17.59-.26.87s-.35.55-.42.83.82.75.78,1.04-.27.53-.29.83-.41.57-.41.86-.24.62-.21.91.61.52.66.81.36.5.44.79,0,.58.08.86-.12.66-.01.93-.04.68.09.94.55.38.7.64.09.39.27.63c-.29.07-.48-.21-.76-.11s-.32.86-.59.98-.43.43-.69.57-.58.12-.83.28-.81-.13-1.05.04-.21.7-.44.89-.38.44-.59.66-.85.03-1.05.25-.44.45-.62.69-.09.68-.25.93-.2.57-.34.84-.08.61-.19.89-.4.47-.49.76c-.02.07-.41-.06-.43,0-.1.28-.14.61-.21.89s.29.68.24.97-.02.59-.05.88-.63.57-.63.86.83.58.84.87-.35.61-.31.9-.12.63-.06.92-.13.67-.04.95,1.11.25,1.21.52-.03.63.1.89.36.45.51.71.16.57.33.81.51.7.7.93c-.28.09-.76.44-1.03.55s-.7-.16-.97-.03-.7-.02-.95.13-.51.35-.76.52-.04.93-.27,1.11-.74.04-.95.25-.3.54-.49.76-.29.51-.47.75-.24.53-.4.78-.6.32-.74.58.04.67-.08.94-.44.44-.54.72-.66.42-.74.71c-.02.07.22.14.2.21-.08.29.06.63,0,.92s-.36.55-.39.84,0,.61,0,.9.41.59.42.88.02.57.05.86-.15.61-.09.9.55.46.63.74.11.55.21.83.24.5.36.77-.28.78-.14,1.04.26.54.42.79.68.24.86.47.27.68.47.9c-.28.1-.78,0-1.05.12s-.39.55-.65.69-.41.44-.66.6-.82-.13-1.06.05-.08.82-.3,1.02-.66.16-.86.38-.39.45-.57.68.02.73-.15.97-.68.25-.83.51-.38.48-.5.74-.6.41-.7.69.57.82.49,1.11,0,.58-.06.87c-.02.08-.87-.11-.89-.04-.06.29.37.68.32.97s.27.6.25.89-.71.56-.7.86.07.6.1.9.21.58.26.87,0,.61.06.9.36.51.45.79.47.44.58.71.07.6.2.86.51.36.67.61.2.54.37.78-.13.85.06,1.07.43.24.63.45c-.27.12-.25.51-.51.64s-.84-.27-1.09-.11-.25.7-.49.88-.62.18-.84.37-.44.41-.65.62-.09.71-.28.94-.92.04-1.09.28-.08.68-.23.93-.35.49-.49.75.19.73.08,1-.16.54-.25.82-.58.43-.65.72.33.65.28.95c-.02.11-.12.1-.13.21-.05.29-.38.54-.41.83s-.51.58-.52.88.52.59.54.89.16.57.2.86.22.54.29.83.29.5.38.78-.26.69-.15.97.28.52.41.78.22.55.36.8.51.36.68.6-.15.85.04,1.08.49.38.69.6.49.26.71.46c-.26.13-.6.02-.85.17s-.34.58-.58.75-.45.37-.68.56-.71.11-.92.31-.26.59-.46.81-.48.38-.66.62-.26.55-.42.8-.08.63-.22.89-.12.58-.24.85-.47.43-.57.71.12.63.04.92-.59.46-.65.75.28.63.25.92c-.01.13-.09.12-.1.25-.03.29.11.58.1.87s-.64.59-.62.88.26.58.3.87.02.6.08.88.49.48.57.76-.39.74-.29,1.02.37.5.5.77.27.53.41.79.41.44.57.69.56.31.74.54-.22.95-.02,1.17,1.05-.2,1.27,0,.27.75.49.93c-.26.14-.62.36-.86.52s-.75-.01-.98.17,0,.91-.21,1.11-.78.03-.98.25-.63.26-.82.49,0,.76-.16,1-.52.37-.67.63-.05.64-.18.91.09.66-.01.93-.72.36-.81.64.42.7.35.99-.57.48-.61.77.44.61.42.91c0,.15-.62.12-.62.27-.02.3.44.59.44.88s-.29.59-.26.88-.24.64-.19.93.64.47.71.75-.05.62.05.89.47.44.58.71-.05.66.08.92.57.34.72.59.32.46.5.69.12.63.32.85.53.29.74.5.29.53.51.72.43.45.67.63c-.25.16-.66.15-.9.33s-.07.83-.29,1.02-.65.14-.86.35-.16.63-.35.85-.95,0-1.12.24.19.83.04,1.08-.78.24-.91.5.36.81.25,1.08-.55.4-.64.68-.19.55-.26.84.3.64.25.93-.84.48-.87.77-.06.61-.06.9c0,.16.71.16.71.32,0,.3-.8.62-.78.91s.66.53.7.82-.1.61-.04.9.27.53.36.81-.2.7-.09.97.66.35.79.62-.33.86-.18,1.11.59.35.76.59.62.27.8.5.23.57.43.78.35.48.57.68.39.47.62.65,1.02.19,1.27.35c-.24.17-.8.49-1.03.68s-.43.39-.64.6-.32.48-.52.71-.27.51-.44.75-.5.34-.66.59-.46.4-.6.66-.27.52-.39.79-.45.46-.55.74.28.7.2.99-.9.41-.96.7.46.68.43.97-.39.57-.4.87.03.61.04.9c0,.09.34.07.34.16.01.3-.12.6-.08.89s-.33.67-.27.96.3.57.37.85.16.6.26.87.81.31.94.57-.35.84-.21,1.1.21.6.37.84.75.21.93.44.35.47.55.69.59.24.8.44.39.42.62.61.06.92.3,1.09,1.2-.07,1.45.08c-.23.18-.78.54-1,.74s-.32.49-.52.71-.8.08-.99.32-.5.4-.66.64-.15.63-.3.88-.32.52-.44.78-.48.46-.59.74-.16.6-.25.89-.04.62-.1.91-.17.59-.21.89.57.64.56.94-.8.58-.79.88.26.6.29.9c0,.09.04.09.05.18.03.3.44.54.49.83s.22.54.29.82-.51.77-.42,1.05.53.45.64.72-.04.69.09.95.33.53.48.77.51.39.69.62.28.55.47.77.69.17.9.37.44.38.66.57.47.33.7.51.58.14.84.29.33.69.59.82c-.22.2-.64.28-.84.49s-.18.64-.37.87-.41.42-.58.66-.18.58-.33.83-.52.38-.65.64-.25.54-.36.81-.4.49-.49.77-.45.51-.51.8.05.64,0,.93.48.65.46.95-.55.57-.55.86-.23.63-.21.92.85.5.9.8c.02.1-.76.22-.75.32.04.29.73.48.8.76s0,.61.08.89.12.59.23.86.37.48.5.74-.22.8-.07,1.06,1.09,0,1.26.24-.04.74.15.97.3.53.5.74.48.35.7.55.54.26.77.44.55.21.8.37.48.3.74.44.28.56.55.68c-.21.21-.54.21-.74.43s.07.81-.11,1.05-.38.43-.54.68-.91.16-1.04.42.11.73,0,1-.2.55-.3.83-.21.55-.29.84.21.64.15.93-.29.54-.32.83-.03.58-.04.87-.14.58-.13.88-.24.62-.2.92-.03.63.03.92c.02.11.48.02.51.12.06.29-.31.7-.23.98s.1.62.2.9.47.48.59.74.3.53.44.78.44.43.6.68.35.48.53.71.71.15.91.36.14.66.35.86.41.41.64.6.5.31.74.47.2.81.45.95.52.34.79.47.55-.13.83-.02c-.2.22.13.67-.05.9s-.64.24-.8.49-.56.35-.7.61-.31.52-.43.79.11.69,0,.97-.13.56-.21.85-.26.53-.32.82-.12.57-.16.86-.35.56-.37.86.66.59.67.88-.7.63-.67.92-.03.62.03.91.12.6.19.89c.03.1.44,0,.47.1.07.29,0,.62.09.9s.53.42.64.69-.06.68.07.94.7.26.86.51-.39.98-.21,1.22.66.25.85.47.25.6.46.8.36.52.58.71.65.16.89.33.56.23.81.38.53.25.8.39.48.37.75.49.27.23.55.32c-.19.23.1.47-.07.71s-.2.54-.35.79-.42.42-.55.68-.82.28-.93.56.46.8.37,1.08-.02.57-.09.86-.76.44-.8.73,0,.6-.03.9.52.6.52.89-.8.61-.78.91.55.54.59.83-.46.7-.39.98.64.45.73.73c.05.17-.08.21-.03.38.09.28.6.4.71.67s.07.59.2.85.34.46.49.72-.08.76.09.99.89.05,1.08.27-.29,1.05-.08,1.26,1.04-.24,1.26-.04-.01.93.22,1.1.74-.04.99.12.24.75.5.89.81-.32,1.08-.2.34.71.61.81.96-.09,1.24-.01c-.18.24-.4.78-.56,1.04s-.6.32-.74.59-.6.39-.72.66.57.85.48,1.13-.59.42-.67.71-.18.57-.23.86-.32.56-.35.86.41.62.41.91-.3.59-.28.89-.13.62-.09.91-.15.66-.08.95,1.03.35,1.11.63-.32.72-.22,1c.02.06.53-.13.55-.06.1.28.06.59.18.85s.03.64.17.89-.06.74.1.99.54.37.72.6.43.42.63.64.53.31.74.51.38.46.6.65.43.41.68.57.75-.11,1,.03.31.64.57.77.41.57.68.67.67-.1.95-.01.67.1.95.17c-.16.25-.22.65-.36.91s-.54.39-.66.66.12.68.01.95-.9.34-.98.62.45.73.39,1.02-.72.49-.76.79.54.65.53.94-.5.59-.49.89.57.55.61.85.26.53.31.82.02.57.1.86.11.56.21.84.19.54.31.81c.03.06-.28.2-.25.26.12.27.78.26.92.52s-.23.8-.07,1.04.59.31.76.54.36.44.56.66.45.36.65.56.43.36.66.55.35.47.59.65.23.73.48.88.64.09.9.22.35.7.62.81.8-.44,1.08-.35.45.57.73.64.63-.07.92-.02c-.15.25.02.68-.1.94s-.7.33-.81.6-.03.62-.12.9-.36.52-.43.8.45.67.4.96-.96.49-.98.78.81.62.81.91-.1.57-.07.86-.66.68-.61.97.93.41,1,.7-.18.65-.09.93.45.44.57.72-.39.83-.25,1.09c.04.08.45-.12.5-.04.13.27-.02.7.13.95s.55.36.72.6-.02.78.17,1,.75.15.95.36.36.48.58.68.7.05.94.23.44.35.69.51.44.37.7.5.39.52.66.64.46.47.74.57.68-.16.96-.08.61-.07.9-.01.24.52.53.55c-.14.26-.27.24-.39.51s.04.66-.05.94.05.62-.02.91-.31.53-.36.82-.06.58-.09.88.3.59.29.88-.82.61-.8.9.31.58.35.88-.02.62.04.91.07.62.15.9.66.4.77.68.05.62.17.88.19.57.34.83c.05.08.51-.18.55-.09.15.26-.3.88-.13,1.12s.25.59.43.82.64.26.84.47.77.05.99.25.11.76.34.94.4.47.64.63.72-.04.97.11.6.06.87.19.28.82.56.92.55.26.83.35.59.15.88.21.62-.04.91,0,.91-.21,1.21-.2c-.12.27-.75.66-.85.94s.22.69.14.97.12.61.07.9-.47.5-.5.79.11.59.1.88-.66.59-.65.89.33.58.36.88.42.52.48.81-.41.7-.33.98.09.61.19.89.83.3.95.57.02.63.17.89.57.32.73.57c.05.07-.36.34-.31.41.16.25.59.3.77.54s.14.64.33.86.7.13.92.34.14.71.37.9.42.44.66.61.73-.05.98.1.45.36.71.5.44.45.71.56.41.66.69.75.81-.73,1.1-.67.48.51.77.56.58.06.88.08.58.35.88.35c0,0,.28-.09.29-.09-.11.28-.07.58-.16.86s-.64.43-.7.72.42.66.37.96-1.02.49-1.04.79.85.62.85.92-.55.61-.53.91.15.59.2.88.35.53.42.82-.16.66-.06.95.66.38.78.65-.35.81-.21,1.08.3.54.46.79.49.4.67.65c.04.06-.16.21-.11.27.17.24.66.25.84.47s.19.63.4.84.91-.12,1.13.07.42.36.66.53.35.48.6.63.27.69.53.83.69-.08.96.03.32.84.59.94.64-.01.93.06.62-.02.91.03.64-.47.93-.45.53,1.01.82,1.02.66-.54.95-.56c-.09.28.23.72.16,1.01s-.62.45-.67.74.06.59.03.89.33.58.32.87-.97.6-.95.9.79.52.83.81-.51.68-.44.97.72.42.8.7.32.48.43.75-.06.64.06.9-.25.8-.11,1.06.32.52.49.77.82.13,1.01.36c.12.15-.15.37-.03.52.19.23.42.43.62.64s.53.31.74.5.16.75.39.93.84-.15,1.09,0,.38.49.64.63.67-.06.94.06.5.25.78.35.42.56.71.64.57.14.86.19.62-.18.91-.14.57-.11.87-.1.58.8.87.8.34-.2.64-.23c-.08.29-.18.33-.24.63s.54.68.5.98-.54.55-.55.84-.15.61-.14.91-.18.64-.15.94.99.45,1.05.74-.77.79-.69,1.08.43.51.53.79.8.31.92.58-.15.72,0,.98.24.55.4.8.78.16.96.39.11.65.32.87c0,0-.19.27-.18.27.2.22.68.16.89.36s.06.83.28,1.02.55.29.79.46.81-.18,1.07-.03.36.54.62.67.51.3.78.41.63-.05.91.04.47.5.75.57.61-.09.9-.04.55.39.84.41.6-.43.89-.43.59.24.88.21.68-.09.97-.14c-.06.29-.46.63-.5.93s.46.64.44.94.12.57.12.86-.63.62-.6.91.03.61.08.9.03.62.1.91.63.44.73.72.45.44.57.71-.3.78-.16,1.04.42.45.57.7.23.56.41.8.17.64.37.87.54.33.75.54c.05.05-.15.25-.09.31.21.21.45.44.67.64s.88-.13,1.12.04.59.15.84.3.48.29.74.43.43.4.7.52.3.87.58.97.82-.67,1.1-.59.43.75.72.81.65-.45.94-.42.54.75.84.76.59-.53.88-.54.56-.16.85-.2.44.42.73.36c-.05.29.11.39.09.68s.39.59.39.88-.68.6-.66.89.73.51.77.8-.83.75-.77,1.04.4.53.48.81.37.5.48.78.57.38.7.64.34.45.49.7.01.66.18.9.52.32.7.55.13.64.34.86.6.2.82.4c.11.1-.41.68-.3.78.22.2.81-.03,1.04.15s.51.28.75.45.38.51.63.65.57.18.83.3.44.49.72.59.75-.45,1.04-.37.51.29.79.34.56.07.85.11.54.41.84.42.58-.22.87-.23.6.28.89.25.48-.64.77-.7.71.31.99.24c-.03.29.05.65.04.94s-.22.59-.21.88.56.53.6.83.1.55.15.84-.56.73-.48,1.01.22.57.32.84.6.39.72.66-.21.77-.07,1.03.12.65.28.9.66.28.84.52.17.65.37.87.99-.14,1.2.06-.1,1,.13,1.19c.08.07.49-.44.57-.37.23.19.53.24.77.4s.09.95.34,1.1.79-.21,1.05-.08.45.41.72.52.6.03.88.12.49.4.78.47.52.5.81.54.63-.22.93-.2.6.43.89.43.57-.66.87-.69.53-.33.82-.38.72.64,1.01.58.27-.17.56-.26c-.02.3.43.3.44.6s-.11.58-.08.88-.27.64-.22.93.77.43.84.72-.37.71-.27.99.42.47.54.74-.3.81-.17,1.07.32.54.48.79.47.43.65.67.47.4.66.62.82.03,1.03.24.02.83.24,1.03.68.08.92.26c.07.05-.28.53-.2.59.24.18.9-.27,1.15-.11s.12.99.38,1.13.88-.46,1.15-.34.28.93.56,1.02.6.15.89.23.73-.59,1.02-.54.47.94.76.97.64-.81.94-.81.56-.03.85-.05.61.38.91.34.51-.44.8-.5.54-.16.82-.25.55.41.82.3c0,.29.53.37.55.66s-.61.65-.57.94-.03.63.04.92.58.47.67.75.54.42.65.69-.08.65.05.92.35.46.5.72.46.37.63.61.1.63.29.86.07.73.27.94.72.11.94.31.57.2.81.38.16.76.41.93c.1.07.44-.44.54-.37.25.16.04,1.07.3,1.21s.92-.51,1.19-.39.35.65.63.75.64-.08.92,0,.42.8.71.86.69-.58.99-.55.53.79.83.8.61-.41.9-.42.63.37.93.34.58-.28.87-.33.54-.32.82-.4.61-.05.89-.15.26.07.53-.05c.01.29-.21.25-.17.54s.14.61.2.9.97.37,1.05.66-.56.8-.46,1.07.98.23,1.1.5-.21.74-.07,1-.1.77.06,1.02,1.07-.03,1.25.2.36.42.56.64.41.37.63.57.17.66.4.85.27.62.52.79.6.17.85.32c.12.07-.07.41.05.48.26.15.72-.06.98.07s.7-.17.98-.06.31.91.59.99.75-.56,1.04-.49.44.82.73.86.6.24.89.26.62-.72.91-.72.63.66.92.63.55-.46.84-.51.66.21.94.14.37-.83.65-.92.59-.02.87-.14.63-.08.9-.22c.03.29-.25.67-.2.96s.06.62.14.9.75.4.85.68-.39.79-.28,1.06.64.37.78.63-.1.75.06,1,.86.14,1.03.38.09.67.29.9.72.12.93.33.09.76.32.95.41.45.65.63.41.5.66.65.62.15.88.29c.1.05.23-.21.33-.16.26.14.56.18.83.3s.54.2.82.29.48.47.76.54.64-.22.93-.17.54.42.83.44.6-.21.89-.2.62.55.91.53.57-.38.86-.42.59-.11.87-.17.58-.15.86-.23.48-.41.75-.51.58-.13.84-.25.43.06.69-.09c.04.29.68.22.75.51s.07.56.16.84.25.5.36.78-.5.86-.37,1.13.35.51.5.76.52.38.69.62.3.52.49.74.73.12.94.34-.03.87.19,1.07.48.37.72.55.79-.11,1.04.05.36.52.62.66.51.28.79.4c.1.05.26-.3.36-.25.27.12.18,1.13.46,1.23s.85-.7,1.13-.62.49.42.77.47.56.21.85.24.57.5.86.51.62.04.92.03.58-.37.88-.4.66.27.95.22.52-.44.81-.52.39-.68.67-.78.8.42,1.07.3.57-.22.83-.36.31-.45.55-.61c.06.29-.06.52.02.8s.62.42.72.69-.09.67.03.94.19.58.33.83.09.66.26.91.57.34.75.58.37.47.57.69.42.43.63.64.49.35.72.53.5.33.74.49.76-.13,1.01.02.37.49.64.62.38.58.66.69c.13.05.32-.44.45-.39.28.11.44.51.72.59s.5.5.78.56.62,0,.92.03.6.1.9.12.61.03.9.03.62.06.91.03.61-.11.9-.16.46-.66.75-.73.67.22.95.12.59-.14.86-.25.28-.77.54-.9.54-.19.79-.34.58.23.82.05c.07.29.54.21.63.49s-.46.82-.35,1.1.87.25,1.01.51.18.56.34.82-.16.84.02,1.08.63.29.82.51.56.29.77.5.31.54.54.73.62.16.87.33.63.08.88.23.37.5.64.63.56.15.83.27.39.62.68.71c.04.01.2-.45.24-.44.28.09.42.63.71.7s.59.09.88.14.57.29.86.32.61-.26.91-.26.56-.35.86-.37.56-.01.85-.05.69.52.98.45.61-.1.89-.19.36-.76.63-.87.65.05.92-.08.74.1,1-.05.51-.35.76-.51.34-.86.57-1.05c.09.28-.33.97-.22,1.24s.62.39.75.66.43.44.58.69.28.52.45.76.47.37.66.6.01.79.22,1,.63.21.85.4.64.12.88.3.2.73.45.89.74-.11,1,.03.37.56.64.68.45.5.73.59.78-.57,1.07-.49c.1.03-.08.71.02.74.29.08.64-.13.93-.07s.56.23.86.27.59.16.88.16.62.3.91.29.52-.94.81-.97.72.73,1,.67.41-.84.69-.92.75.41,1.03.31.52-.33.79-.45.43-.47.68-.61.58-.18.82-.34.4-.45.64-.63.47-.14.69-.34c.11.28-.09.55.03.82s.52.42.67.68.52.37.69.62.42.41.6.64.3.5.5.72.54.27.76.47.36.45.59.64.1.88.34,1.05.81-.17,1.07-.03.33.65.6.78.66-.04.94.07.66-.18.95-.09.34,1.09.63,1.15c.05,0,.15-.51.2-.5.29.06.55.36.84.4s.64-.55.94-.54.57.78.86.77.62-.03.91-.06.58-.25.87-.3.57-.2.85-.28.53-.3.8-.39.4-.54.67-.66.86.45,1.12.32.48-.38.73-.54.2-.75.44-.92.52-.26.75-.45.58-.15.78-.36c.12.27.22.48.36.74s.67.27.83.52.09.62.27.86.53.3.72.52-.04.84.17,1.04.58.24.81.43.37.48.61.65.56.22.81.38.44.43.7.56.73-.22,1.01-.11.54.13.82.22.33.99.61,1.06.62.01.91.06c.18.03.3-.71.47-.68.29.05.52.43.81.45s.58-.1.87-.09.59.27.88.25.51-.58.8-.62.56-.03.84-.09.7.38.98.29.46-.47.73-.58.53-.23.79-.36.34-.55.59-.7,1.02.5,1.26.33.19-.75.41-.94.42-.4.64-.6.45-.34.64-.56c.13.26.12.58.27.83s.55.34.72.58.32.49.51.71.52.31.72.52.26.56.48.75.69.05.93.23-.02,1.06.23,1.22.66.08.92.22.46.44.73.56.63.04.91.14.71-.37,1-.29.53.16.82.21.46.87.76.91c.12.01.15-.18.27-.17.3.03.61-.2.9-.19s.59.04.88.03.62.18.91.14.63.06.92,0,.52-.42.8-.5.67.11.95,0,.59-.19.86-.31.15-.99.41-1.13.82.23,1.06.07.41-.46.64-.64.67-.14.89-.34.34-.52.55-.73.23-.44.42-.67c.15.25.15.47.31.71s.2.6.39.83.85.05,1.05.26.26.55.47.75.6.18.83.36.51.24.76.4.46.3.72.45.4.45.66.58.4.53.68.64.72-.35,1-.27.52.17.81.23.44.82.74.86.63-.53.93-.52c.19.01.18.08.37.09.3.01.57.22.86.21s.55-.35.84-.38.64.42.93.37.48-.5.77-.57.71.34.99.24.62-.08.89-.2.41-.53.67-.67.35-.55.6-.7.9.26,1.14.09-.13-1.09.09-1.28.78,0,.98-.21.66-.21.85-.43.07-.94.24-1.18c.16.25.55.54.73.78s.31.48.51.7-.02.84.19,1.05.45.42.67.61.68.1.93.26.72-.06.97.09.19.86.45.99.54.27.81.38.76-.4,1.04-.31.43.59.72.65.65-.37.94-.32.48.9.78.92.61-.12.91-.12c.12,0,.12.21.25.21.32,0,.61-.88.92-.91s.63.09.94.04.66.08.97,0,.65-.36.95-.46c.3.1.55.69.86.76s.66-.07.97-.03.61.23.92.26.64.31.96.31c.19,0,.19-.46.38-.46.3,0,.55-.42.84-.45s.56,0,.85-.06.57-.04.85-.11.51-.25.79-.35.71.24.98.12.41-.49.67-.63.44-.37.69-.53.49-.29.72-.46.82.09,1.04-.1.54-.32.75-.53.04-.78.23-1,.78-.15.95-.39.02-.39.18-.63c.18.24.61-.09.81.13s.24.57.45.77.65.13.88.32.13.78.37.95.28.69.54.84.68.05.94.18.66-.01.93.1.58.09.87.18.57.08.86.14.45.8.74.84.64-.28.94-.25.59.55.89.55.59-.47.89-.49c.06,0,.07.14.12.13.3-.02.56-.33.85-.37s.61.05.9-.01.46-.52.74-.61.81.5,1.08.4.56-.27.82-.4.54-.3.79-.44.54-.31.78-.48.49-.37.72-.56.16-.72.37-.93.33-.48.53-.7.55-.3.73-.53.29-.52.45-.76.41-.05.55-.31c.19.22.67-.3.87-.09s.41.36.63.56.03.87.27,1.04.3.64.54.8.99-.52,1.24-.38.38.5.65.62.63-.07.9.03.36.76.64.83.64-.19.93-.14.51.53.8.56.61-.31.9-.3.58.3.88.29.53-.57.82-.61c.18-.02.24.48.43.46.29-.04.5-.51.79-.57s.67.28.95.2.65.05.93-.05.62-.12.88-.24.14-1.02.4-1.16.5-.24.75-.41.78.09,1.01-.09.4-.45.62-.64.31-.52.51-.73.65-.22.83-.45.54-.36.71-.6.04-.69.19-.94.19-.57.32-.84c.2.22.72.09.93.29s.33.47.56.65.33.52.57.68.6.11.86.25.4.46.67.59.54.21.82.31.43.57.71.65.67-.23.96-.17.5.61.79.65.64-.56.94-.54.56-.05.86-.06.59.28.88.25.59-.03.88-.08c.12-.02.08-.24.21-.26.29-.05.72.5,1,.43s.6-.16.88-.26.27-.95.54-1.06.76.25,1.02.11.45-.42.69-.58.68-.07.91-.25.5-.36.72-.55.53-.34.74-.55-.03-.84.16-1.06.55-.31.73-.55.28-.53.43-.78.06-.63.2-.89.45-.6.56-.87c.21.21.47.59.7.78s.31.58.56.75.78-.12,1.04.03.17.95.43,1.08.64.09.91.2.61.1.89.19.59.11.88.18.66-.38.96-.34.54.25.84.27.57-.1.87-.1.62.69.92.66.52-.61.82-.66.58-.03.87-.1c.06-.01.17.49.23.47.29-.07.48-.54.76-.63s.51-.31.78-.42.52-.25.78-.38.84.29,1.09.14.45-.44.69-.61.07-.88.3-1.07.54-.25.75-.45.76-.09.96-.31.14-.66.31-.9.58-.32.74-.57.31-.52.45-.78.42-.47.55-.74-.12-.83-.02-1.11c.22.19.57.41.81.59s.24.7.49.86.54.29.8.43.83-.39,1.1-.28.45.4.73.49.53.21.82.28.47.6.76.65.65-.36.94-.33.57.21.86.22.61.45.91.44.57-.39.86-.43.52-.39.81-.45.54-.18.82-.26c.12-.04.27.48.39.45.29-.08.65,0,.92-.11s.38-.66.64-.79.67,0,.93-.15.2-.8.44-.96.47-.31.7-.49.42-.38.64-.58.97.13,1.17-.09-.2-.95-.02-1.18.49-.35.65-.59.78-.22.92-.47.28-.55.4-.81.36-.52.46-.8-.29-.96-.2-1.24c.23.18.67.43.92.59s.35.55.61.7.41.55.68.67.69-.09.97.02.43.64.72.73.67-.15.96-.09.67-.49.96-.45.52.93.81.95.6-.75.9-.76.63.53.92.5.65.14.94.09.57-.31.86-.38.54-.29.83-.39c.04-.02.03-.06.07-.08.28-.1.61-.1.88-.21s.61-.16.86-.29.22-.81.46-.97.85.19,1.09.01.4-.48.62-.67.5-.36.71-.57-.13-.91.05-1.14.55-.29.72-.53.82-.18.97-.43.12-.63.25-.9-.25-.75-.14-1.03.62-.39.71-.67.22-.33.29-.62c.24.17.48-.06.74.09s.49.31.76.44.46.41.74.52.71-.29.99-.2.54.14.83.21.47.59.77.64.56.5.85.52.62-.41.92-.41.63.4.92.38.56-.44.85-.49.65.15.94.08.41-.72.69-.81.72.26,1,.15c.06-.02-.19-.63-.13-.65.28-.11.75.26,1.02.13s.65-.07.91-.22.11-.92.35-1.09.77.05,1-.14.61-.23.82-.44.25-.6.44-.83.09-.68.27-.92.9-.1,1.06-.35.04-.68.18-.94.1-.61.22-.88.71-.37.81-.64-.38-.74-.3-1.03.14-.97.19-1.26c.25.16.86.45,1.12.59s.23.92.5,1.04.73-.21,1.01-.12.6,0,.89.08.6-.1.89-.05.47.95.76.98.63-.73.93-.73.6.61.89.59.54-.53.83-.57.56-.12.85-.19.67.28.96.19.38-.69.65-.8.83.45,1.1.33c.04-.02-.15-.41-.11-.43.27-.13.65-.03.9-.18s.38-.51.63-.67.71-.05.94-.23.31-.56.53-.76.39-.45.59-.66.09-.68.27-.91.49-.34.66-.58.27-.5.42-.76.38-.45.5-.72.49-.43.59-.71.11-.59.19-.87-.14-.63-.08-.92.18-.96.22-1.25c.26.14.79.62,1.06.75s.67-.13.95-.03.35.82.64.9.59.16.88.22.57.36.86.39.65-.57.94-.56.57-.13.87-.14.61.36.91.32.59-.09.88-.14.66.15.95.07.33-.9.61-1,.77.33,1.04.21.6-.17.86-.31c.04-.02.07.05.11.03.26-.14.42-.49.67-.65s.47-.38.7-.55.61-.21.83-.41.02-.83.23-1.04.6-.24.79-.46.57-.31.74-.55.57-.37.72-.62.13-.63.26-.9.07-.63.18-.9.23-.55.32-.83-.39-.71-.32-.99.9-.41.95-.7-.03-.3,0-.6c.27.13.21.28.49.39s.74-.3,1.02-.21.61-.08.9-.02.56.04.86.08.51.7.81.72.61.2.91.19.54-.84.84-.86.68.69.97.64.55-.32.84-.4.43-.6.71-.69.55-.14.83-.25.67.07.94-.07.43-.43.68-.59c.04-.02.11.09.14.07.26-.15.4-.46.64-.63s.43-.38.66-.57.6-.2.81-.4.14-.66.33-.88.9-.03,1.08-.26.46-.43.62-.68.08-.66.22-.92-.06-.68.06-.95-.02-.61.07-.89,1.01-.31,1.09-.59-.7-.76-.65-1.05.11-.55.14-.84.72-.2.73-.49c.27.11.26.06.53.15s.53.33.82.4.64-.15.93-.1.54.51.84.54.62.03.91.04.57-.88.86-.9.6.29.89.25.6.03.88-.03.59-.06.88-.14.45-.47.73-.57.76.28,1.03.15.55-.26.81-.41.08-.97.32-1.14c.13-.09.17-.03.31-.13.24-.17.68-.05.91-.23s.24-.61.45-.81.72-.11.92-.32.58-.31.76-.54,0-.74.16-.99.35-.47.49-.72.67-.33.8-.6.19-.59.29-.86-.51-.78-.43-1.07.56-.45.62-.74-.1-.6-.06-.9.15-.56.17-.86-.02-.77-.02-1.07c.28.1.6.73.88.81s.64-.06.92,0,.58.16.87.19.62-.56.92-.55.57.34.86.32.59.04.88.01.5-.48.79-.54.64.24.92.16.58-.11.85-.21.62-.04.89-.16.53-.27.79-.41.26-.7.51-.86.73.04.97-.14c.11-.08.11-.08.22-.16.24-.18.54-.3.75-.5s.57-.29.77-.5-.15-.93.03-1.15.76-.15.93-.39.18-.59.33-.84-.03-.67.1-.93.56-.38.67-.65-.23-.69-.15-.97.78-.38.85-.67-.18-.63-.14-.92.31-.55.33-.84.27-.59.27-.89-.11-.33-.14-.62c.28.09.47-.57.75-.5s.53.18.83.22.51.79.81.81.62,0,.91,0,.62.07.92.05.52-.65.81-.7.72.49,1,.41.53-.37.81-.47.51-.35.78-.46.36-.6.62-.73.57-.16.82-.31.57-.19.81-.36.71-.07.94-.26c.06-.05-.4-.59-.35-.64.23-.19.6-.19.81-.4s.25-.55.44-.78.99.03,1.17-.2.17-.63.32-.88.06-.65.19-.91-.1-.68.02-.95,1-.24,1.1-.52-.14-.67-.06-.96.41-.53.46-.82-.29-.64-.26-.94.48-.57.49-.87-.25-.6-.27-.9.05-.37.01-.66c.28.07.38-.06.66-.02s.57.19.86.22.59.37.88.37.62,0,.91-.02.55-.55.84-.59.52-.33.81-.39.55-.13.83-.22.53-.19.8-.3.5-.25.77-.37.84.33,1.09.19.11-.92.35-1.09.47-.29.7-.48.91.16,1.12-.05c.13-.12.14-.11.26-.23.21-.2.23-.62.42-.84s.03-.73.2-.96.62-.26.78-.5.2-.55.34-.81.6-.35.72-.62.16-.58.26-.85.51-.47.59-.75.18-.6.23-.88-.1-.64-.07-.93-.64-.63-.62-.93.62-.57.61-.86-.58-.54-.61-.83.49-.46.43-.74c.29.05.46-.53.75-.5s.52.72.81.73.6-.08.89-.09.62.2.91.17.61-.05.9-.11.54-.34.82-.41.4-.64.68-.74.46-.33.73-.45.75.24,1.01.1.49-.32.74-.48.74,0,.97-.17-.05-.99.17-1.18.93.13,1.13-.09c.12-.12-.44-.66-.32-.78.2-.21.43-.37.62-.59s.23-.53.39-.77,1.06-.02,1.21-.27.16-.61.29-.87-.09-.69.01-.96.51-.45.6-.73.17-.58.24-.86.35-.56.39-.85-.81-.68-.79-.97.17-.55.17-.85.03-.57,0-.86-.01-.57-.06-.86.13-.61.07-.89c.29.04.59-.12.88-.1s.58.05.87.05.59.08.88.05.59-.04.88-.08.62.05.9-.02.4-.68.68-.78.84.56,1.11.44.27-.81.54-.95.39-.46.64-.61.96.38,1.2.2.3-.6.52-.79.21-.62.42-.83.39-.41.58-.64c.08-.09-.11-.25-.03-.34.19-.23.9-.02,1.08-.26s.13-.63.29-.88.55-.38.68-.64.52-.44.64-.71-.15-.71-.05-.99.07-.6.14-.88.62-.49.67-.78-.82-.71-.79-1,.89-.54.9-.83-.46-.59-.48-.89-.34-.54-.38-.83.28-.63.22-.92-.48-.84-.56-1.12c.29.02.92.34,1.21.34s.6.08.89.06.54-.44.83-.48.55-.12.84-.18.72.44,1.01.35.5-.4.77-.51.66,0,.92-.12.4-.53.65-.68.36-.51.6-.68.41-.4.64-.59.93.17,1.15-.04.07-.77.27-.99.56-.3.74-.53c.1-.13.08-.15.18-.28.18-.23-.06-.75.1-1s.32-.46.46-.72.79-.26.91-.53-.2-.72-.1-.99.85-.36.93-.64-.34-.7-.29-.99.54-.52.58-.81-.44-.63-.43-.93.07-.58.06-.87.47-.64.44-.93-.25-.58-.31-.87.02-.64-.05-.92-.46-.34-.56-.62c.3,0,.46.07.76.05s.57-.31.87-.34.53-.33.82-.39.72.46,1.01.38.47-.48.75-.59.73.18,1,.05.23-.86.49-1.01.88.3,1.13.14.39-.52.62-.7.03-.86.25-1.06.57-.23.77-.45.76-.13.95-.36.11-.66.28-.91c.02-.03-.07-.1-.05-.14.17-.25.44-.42.59-.67s.55-.39.68-.66.09-.62.2-.9.25-.55.34-.83.18-.57.25-.86.18-.58.23-.87,0-.61.02-.9.29-.6.29-.9-.12-.61-.15-.91-.55-.53-.6-.82-.2-.54-.27-.83.18-.66.09-.94-.42-.69-.53-.96c.3,0,.84.49,1.13.46s.62-.04.91-.09.55-.36.84-.44.39-.73.67-.83.52-.19.8-.3.59-.08.85-.22.68,0,.93-.15.5-.32.74-.5.33-.53.55-.72.82,0,1.03-.21.15-.69.34-.91.03-.71.2-.95.81-.16.96-.42c.05-.09-.1-.18-.05-.27.16-.25.2-.56.34-.82s.6-.38.71-.65-.41-.78-.32-1.06,1.07-.31,1.14-.59-.02-.64.03-.93-.21-.64-.18-.93.4-.59.41-.88-.53-.59-.55-.88.43-.65.39-.94-.33-.56-.39-.85-.47-.48-.55-.77-.02-.61-.12-.88-.29-.63-.41-.9c.29-.02.7,0,.99-.05s.69.39.98.32.31-1.09.59-1.18.67.2.95.09.75.21,1.01.08.38-.57.64-.72.43-.42.67-.59.23-.63.46-.82.72-.05.93-.25.59-.26.78-.48.31-.52.49-.76-.02-.72.15-.97.84-.18.98-.44c.06-.11.16-.05.22-.16.14-.26.08-.65.2-.91s.08-.61.18-.89.38-.51.46-.79-.29-.67-.24-.96.06-.57.09-.86.79-.54.8-.83,0-.62,0-.92-.51-.57-.55-.86-.15-.57-.21-.86.02-.61-.06-.89-.03-.62-.13-.89-.8-.3-.93-.57.47-.58.33-.84c.29-.04.23-.56.52-.62s.74.53,1.02.44.44-.59.72-.69.62-.05.89-.17.48-.37.74-.51.44-.4.69-.56.53-.26.76-.44.17-.68.39-.88.91.09,1.11-.12.29-.54.48-.77.35-.48.52-.72.59-.34.74-.6-.12-.74,0-1.01c.04-.09.1-.06.15-.15.13-.27.12-.59.23-.86s.5-.45.59-.73-.05-.63.02-.92.47-.53.51-.82.02-.61.04-.91-.4-.6-.4-.9-.12-.57-.15-.86.1-.59.05-.88.01-.6-.06-.89-.36-.5-.46-.78.29-.75.18-1.02-.65-.36-.78-.62-.34-.67-.49-.92c.29-.05.67-.41.96-.49s.7.29.98.2.4-.58.68-.7.88.44,1.14.3.42-.5.68-.66.24-.7.48-.88.35-.47.58-.66.55-.25.76-.46.39-.42.58-.65.81-.13.99-.37-.11-.79.04-1.04.11-.59.24-.86.19-.53.31-.81c.02-.06.42.1.44.04.12-.28-.15-.67-.06-.95s.66-.41.73-.7.45-.53.5-.82-.2-.64-.17-.94-.19-.6-.19-.9.46-.62.44-.91-.84-.5-.88-.8.38-.66.32-.95-.49-.47-.58-.75.51-.81.4-1.09-.41-.49-.54-.76-.43-.46-.58-.71-.21-.4-.38-.64c.29-.07.43-.14.71-.23s.36-.7.63-.81.53-.19.79-.32.54-.18.8-.33.82.18,1.06,0,.07-.87.3-1.06.83.06,1.05-.15.29-.55.48-.77.57-.31.75-.55.3-.53.46-.78.44-.45.58-.71.27-.55.39-.82.28-.55.38-.83c.03-.08-.66-.32-.63-.4.1-.28.68-.4.76-.68s-.05-.62,0-.91.41-.54.44-.84.18-.6.19-.9-.06-.62-.08-.91.07-.63.04-.92-.78-.48-.83-.77.33-.68.25-.97-.65-.41-.75-.68.35-.78.23-1.05-.49-.42-.64-.68-.33-.49-.49-.74-.08-.43-.26-.67c.28-.08.23-.51.51-.62s.56-.15.83-.27.49-.3.75-.44.91.34,1.16.17.03-.97.26-1.16.84.07,1.05-.13.28-.58.48-.8.51-.36.69-.59-.21-.87-.05-1.12.79-.19.93-.45.19-.56.32-.83.62-.39.73-.67-.56-.81-.48-1.09c.04-.12.53.02.57-.1.08-.28-.3-.68-.24-.96s.41-.51.45-.8.51-.56.53-.85-.19-.61-.2-.91.27-.63.24-.92-.6-.53-.65-.82.3-.68.22-.96-.73-.4-.83-.68.45-.81.34-1.08-.57-.41-.7-.67.02-.71-.14-.96-.72-.24-.9-.48-.41-.48-.61-.7c.28-.1.73.09,1-.03s.22-.89.48-1.03.76.14,1.01-.02.26-.65.5-.83.37-.44.6-.63.8,0,1.01-.22.15-.65.34-.88.43-.4.6-.64.26-.52.42-.78.63-.33.77-.6.31-.53.42-.8.39-.52.48-.8.05-.63.12-.92c.01-.06-.48-.17-.46-.23.07-.29.24-.55.28-.83s.57-.54.59-.83,0-.62,0-.92-.26-.6-.28-.89-.56-.52-.6-.81.27-.64.21-.92.18-.67.09-.95-.95-.28-1.06-.55-.04-.59-.17-.86-.28-.49-.43-.75-.12-.6-.29-.84.05-.79-.13-1.02-.31-.13-.51-.34c.27-.11.31-.02.57-.15s.63-.14.88-.29.51-.35.75-.52.18-.75.4-.94.13-.7.33-.91,1.06.2,1.25-.02-.3-1-.12-1.23.91-.07,1.07-.32.11-.62.25-.88.44-.44.56-.71.32-.52.42-.8-.44-.74-.36-1.03.08-.55.14-.84c.04-.19.74-.06.78-.25.05-.29.18-.6.21-.89s-.66-.63-.66-.93.72-.6.7-.89-.67-.54-.71-.83.5-.69.44-.97-.5-.49-.59-.77-.43-.47-.53-.74.16-.7.04-.96-.16-.59-.31-.85-.16-.62-.32-.86-.41-.47-.59-.7-.64-.24-.84-.46-.61-.45-.82-.66c.27-.13.7-.28.96-.43s.42-.42.66-.59.89.2,1.12.02.37-.51.59-.71.54-.34.73-.55.17-.65.36-.88.53-.36.7-.61-.36-.91-.21-1.16.86-.21.98-.48,0-.64.11-.92.02-.6.1-.88.22-.53.28-.82.5-.51.54-.81c.02-.13-.24-.17-.23-.3.04-.29.22-.58.24-.87s.08-.6.07-.9.07-.62.04-.91-.19-.59-.24-.88-.47-.5-.55-.78.24-.69.15-.97-.79-.32-.91-.59-.18-.54-.32-.8-.37-.44-.52-.68-.16-.57-.34-.81.08-.82-.12-1.04-.49-.38-.7-.58-.35-.24-.57-.43c.26-.14.16-.51.41-.67s.89.24,1.13.06.01-.92.23-1.11.28-.52.48-.73.75-.09.93-.32.12-.63.29-.87.39-.42.54-.67.24-.52.37-.78.11-.56.22-.84.17-.53.26-.81.61-.42.67-.71-.3-.64-.25-.93,0-.55.03-.85c.02-.19.56-.15.57-.34.02-.29-.38-.59-.38-.88s-.03-.56-.06-.85.65-.67.6-.96-.3-.56-.37-.84-.72-.4-.81-.68.66-.87.55-1.14-.3-.55-.43-.81-.31-.54-.46-.79-.44-.44-.61-.68-.9-.04-1.09-.27-.27-.5-.48-.71-.04-.8-.26-.99-.85-.21-1.08-.39c.25-.15.5-.63.74-.81s.71-.02.94-.21.14-.7.35-.9,1.03.15,1.22-.07-.23-.94-.05-1.18.27-.49.43-.74.57-.33.71-.59.39-.46.5-.73-.29-.72-.19-1,.27-.5.34-.78.11-.54.16-.84.55-.5.58-.8.11-.59.11-.88Z"/>
  </g>
</svg>