<?xml version="1.0" encoding="UTF-8"?>
<svg id="Layer_2" data-name="Layer 2" xmlns="http://www.w3.org/2000/svg" viewBox="0 0 624.13 770.05">
  <defs>
    <style>
      .cls-1 {
        fill: #fcf5e5;
      }
    </style>
  </defs>
  <g id="Layer_1-2" data-name="Layer 1">
    <path class="cls-1" d="M499.03,707.28c.24-.18.79.03,1.01-.17s.63-.24.83-.45-.18-.97,0-1.2.37-.43.54-.67.68-.25.84-.51-.23-.79-.1-1.05.23-.51.34-.78.96-.28,1.05-.56.03-.63.09-.91-.43-.68-.38-.97.27-.54.3-.84.22-.58.22-.87.07-.52.05-.81c.28.09.43.43.72.49s.73-.71,1.02-.67.54.17.84.19.56.05.86.04.58.22.88.19.68.55.97.5.45-.77.74-.84.55-.18.83-.27.53-.2.81-.32.61-.06.87-.2.79.16,1.04,0,.42-.48.66-.65.22-.68.45-.88c.12-.1.06-.16.18-.26.23-.19.52-.29.73-.5s.37-.46.56-.68.08-.66.25-.9.89-.11,1.04-.36.53-.41.67-.67.29-.55.41-.83-.66-.88-.57-1.16,1.05-.31,1.12-.6-.19-.66-.15-.96-.44-.64-.42-.93.88-.55.89-.84-.44-.59-.46-.89.03-.53,0-.82c.29.07.53.02.82.07s.59-.03.88,0,.57.51.87.51.61-.05.9-.07.63.13.93.08.4-1.03.69-1.1.59.06.88-.03.68.18.95.07.66,0,.93-.13.26-.76.52-.91.33-.52.57-.69.55-.2.77-.39.66-.12.87-.33c.14-.14.36.09.5-.05.21-.21.2-.64.4-.86s.57-.32.75-.55.54-.38.7-.63-.3-.87-.16-1.13.06-.6.17-.87.37-.46.47-.74.71-.41.78-.69-.28-.67-.23-.96.01-.58.04-.87.64-.56.65-.85.06-.62.04-.92-.35-.58-.39-.87-.2-.57-.26-.86c.29.05.61-.11.9-.08s.58.24.88.25.62.4.92.38.62-.1.91-.15.52-.53.81-.59.55-.21.84-.29.77.36,1.05.25.22-.99.49-1.12.7.08.96-.07.63-.13.88-.31.67-.14.9-.34-.2-1.12.02-1.33.59-.22.79-.44c.04-.04-.05-.12-.01-.17.2-.22.5-.33.68-.57s.22-.55.39-.8.28-.5.43-.75.65-.33.77-.6.55-.44.66-.71.18-.6.26-.89-.56-.74-.5-1.04.54-.51.58-.8-.11-.61-.1-.9-.1-.58-.11-.88-.15-.57-.18-.86.26-.63.2-.92-.39-.79-.47-1.08c.29.03.84.17,1.14.18s.61.5.9.49.59-.29.88-.33.55-.3.84-.36.64.12.93.04.56-.24.84-.34.38-.61.65-.73.52-.24.78-.38.62-.1.86-.26.21-.68.44-.87.46-.31.68-.51.37-.42.57-.63.83-.04,1.02-.28c.09-.12.12-.1.22-.21.19-.23.01-.72.17-.97s.44-.41.59-.66.6-.36.72-.63-.05-.67.05-.95.03-.6.11-.88.71-.44.77-.72-.47-.68-.43-.97.4-.55.41-.85,0-.6,0-.89-.48-.55-.52-.84.36-.63.31-.93-.02-.61-.1-.89.12-.25.02-.53c.3.01.2-.61.5-.62s.55-.19.85-.22.72.78,1.02.73.48-.61.77-.69.45-.49.73-.6.8.42,1.08.3.53-.31.79-.46.45-.42.7-.59.57-.24.8-.43.33-.54.55-.74.21-.61.42-.83.52-.31.71-.54.12-.62.29-.87c.03-.05.14.02.17-.03.17-.25.85-.16,1-.42s.22-.58.35-.85-.14-.71-.03-.99.82-.35.91-.63-.26-.7-.2-.99.36-.55.4-.84.07-.61.09-.9-.4-.6-.4-.9.66-.64.64-.93-.39-.57-.43-.87-.05-.61-.13-.9-.62-.43-.72-.72-.21-.86-.32-1.14c.3,0,.91.23,1.21.21s.51-.53.81-.58.58-.01.87-.09.65.13.93.03.74.23,1.02.11.33-.72.6-.86.46-.38.71-.54.4-.43.64-.61.34-.47.57-.67.74-.05.95-.27.35-.47.55-.7.41-.43.59-.67.12-.62.27-.87c.06-.1.59.21.65.11.15-.26.2-.6.33-.86s.14-.61.25-.88.43-.49.52-.78-.12-.66-.05-.95.1-.59.14-.88.46-.56.49-.85-.2-.62-.2-.92.1-.61.08-.91-.18-.59-.22-.88-.37-.53-.43-.82-.3-.51-.39-.8.06-.64-.05-.91-.5-.74-.64-1.01c.3-.03.93.21,1.22.16s.5-.48.79-.55.58-.08.86-.17.48-.35.76-.46.8.33,1.07.19.42-.48.68-.64.54-.27.78-.45.23-.65.46-.85.84.03,1.05-.18.3-.56.49-.78.37-.48.54-.72.23-.57.38-.82.04-.64.18-.91c.04-.08.72.27.77.18.14-.27-.56-.92-.44-1.2s.5-.42.6-.7.25-.54.32-.83.57-.5.61-.79-.61-.68-.58-.98.56-.56.56-.86.29-.63.27-.92-.52-.56-.56-.86.13-.64.07-.93-.4-.52-.48-.8-.52-.43-.62-.71.28-.76.15-1.03-.8-.64-.95-.9c.29-.04.98.12,1.27.06s.42-.63.71-.72.75.39,1.03.28.35-.65.62-.78.66,0,.92-.15.68-.05.93-.22.15-.78.38-.97.58-.22.79-.43.2-.61.4-.83.62-.24.8-.48.06-.66.22-.91.27-.49.42-.76.52-.39.64-.66c.06-.14-.13-.22-.06-.36.12-.27.39-.47.49-.75s.24-.55.31-.83.39-.53.45-.82-.51-.67-.48-.96.39-.55.39-.85-.31-.57-.33-.87.69-.66.65-.95-.71-.48-.77-.77.4-.71.32-1-.82-.34-.93-.62.12-.68,0-.94-.25-.54-.39-.8-.7-.69-.87-.94c.29-.06,1.09.33,1.38.24s.6-.18.87-.28.27-.88.54-1,.91.44,1.17.3.19-.83.44-1,.6-.18.83-.37.36-.48.58-.69.72-.13.92-.36.03-.76.21-.99.92-.09,1.08-.34.05-.69.19-.95-.03-.68.09-.95.41-.47.51-.75c.04-.11.12-.08.16-.19.1-.28.29-.55.37-.83s-.47-.71-.41-1,.36-.52.39-.82.04-.58.05-.88-.1-.58-.11-.87-.16-.56-.19-.85.12-.6.07-.89.05-.61-.03-.9-.17-.57-.27-.85,0-.65-.12-.92-.69-.32-.83-.58.37-.92.21-1.17-.82-.25-1-.48c.29-.08.73.1,1.01,0s.56-.25.83-.38.39-.56.64-.7.59-.17.84-.34.75-.01.98-.2.37-.52.59-.72.46-.41.66-.63-.1-.87.09-1.1.91-.07,1.07-.32.44-.46.58-.72-.16-.77-.03-1.04.26-.53.37-.81-.06-.63.02-.92c.04-.12.08-.11.12-.23.08-.29.83-.42.89-.7s-.78-.74-.74-1.03.33-.54.35-.84-.12-.58-.12-.87.52-.63.49-.92.08-.64.02-.93-.33-.56-.41-.84-.14-.59-.24-.87.02-.67-.1-.94-.31-.55-.45-.81-.41-.48-.57-.73-.3-.54-.48-.78-.93-.35-1.13-.57c.28-.1,1.05.29,1.32.17s.46-.48.72-.62.51-.33.76-.5.27-.64.51-.83.38-.45.6-.65.92.09,1.13-.13.15-.68.34-.91.64-.29.8-.53.31-.54.46-.8.1-.64.23-.91.35-.51.46-.79-.18-.69-.09-.98.13-.56.19-.86c.02-.11-.02-.12,0-.22.07-.29-.11-.6-.06-.89s.46-.53.48-.82.28-.59.28-.89-.33-.58-.35-.88,0-.59-.05-.88-.28-.53-.36-.82.1-.64,0-.92-.21-.56-.33-.83-.07-.63-.21-.89-.05-.68-.21-.93-.49-.42-.66-.66-.8-.12-1-.35.06-.57-.15-.78c.27-.12.52.15.78,0s.12-.99.37-1.14.95.32,1.18.14.07-.87.29-1.07.54-.28.74-.5.46-.38.65-.61.25-.55.42-.8.81-.19.96-.44-.52-.96-.38-1.23.67-.32.78-.6.32-.52.41-.8.08-.6.15-.89-.03-.6.02-.9c.02-.15-.14-.17-.11-.32.05-.3.07-.57.1-.86s.43-.57.43-.86.19-.62.16-.91-.63-.52-.67-.82-.04-.58-.11-.86.51-.77.42-1.05-.6-.43-.71-.71-.26-.54-.39-.8-.25-.54-.41-.79-.61-.3-.78-.54-.19-.58-.38-.81-.4-.43-.61-.64-.32-.51-.55-.7c.26-.14.67-.04.92-.2s.58-.24.82-.41.19-.73.41-.93.76-.06.97-.27.5-.39.69-.61.19-.64.36-.88.32-.52.47-.77.16-.59.3-.86.25-.53.37-.81-.22-.69-.12-.98.51-.44.58-.73.16-.56.21-.85.03-.58.05-.88c.01-.16.58-.11.59-.26.03-.3.09-.62.09-.92s-.28-.61-.3-.9-.67-.52-.71-.81.27-.63.2-.92.13-.65.04-.93-.17-.59-.28-.86-.58-.4-.71-.66-.32-.48-.47-.74-.2-.56-.37-.8-.33-.48-.51-.71-.17-.64-.37-.86-.88.07-1.1-.13.12-.73-.11-.91c.26-.15.46-.05.7-.22s.5-.37.73-.56.17-.72.38-.92.54-.3.74-.53.11-.67.29-.91.62-.28.78-.54-.12-.74.02-1.01,1.04-.16,1.16-.43-.11-.7-.01-.99.4-.52.47-.81.28-.58.33-.87-.19-.65-.16-.95-.09-.61-.08-.91c0-.09-.05-.09-.05-.18,0-.3.13-.59.12-.89s.19-.63.16-.92-.58-.51-.64-.8-.26-.52-.34-.81-.02-.6-.12-.87.35-.8.23-1.06-.9-.21-1.04-.47-.41-.41-.57-.66.19-.86.01-1.09-.44-.42-.64-.64-.8-.03-1.01-.23.1-1.01-.13-1.19-.81-.03-1.05-.2c.24-.16.85.06,1.08-.12s.13-.77.34-.96.52-.3.72-.51.05-.71.23-.94.48-.34.64-.58.23-.52.38-.77.7-.28.82-.54-.39-.79-.29-1.06,1.05-.24,1.14-.52-.71-.79-.64-1.07.82-.42.86-.71-.39-.63-.37-.92.54-.56.54-.85c0-.12-.65-.12-.65-.25,0-.31.51-.64.49-.95s-.59-.55-.64-.85-.08-.59-.16-.89.18-.69.08-.98.12-.73,0-1.02-1.03-.19-1.17-.47.08-.75-.08-1.01-.31-.54-.5-.79-.22-.64-.42-.87-.75-.13-.98-.35-.26-.64-.5-.84-.29-.33-.55-.5c.26-.18.57.02.82-.17s-.13-1.09.1-1.31.81-.06,1.02-.29-.02-.81.17-1.05.48-.39.65-.65.54-.39.68-.67.67-.38.8-.67.02-.68.12-.98.12-.62.2-.93-.03-.64.02-.95.18-.6.2-.91.1-.62.1-.94c0-.12-.51-.12-.51-.25,0-.31.4-.63.37-.93s.28-.68.23-.98-.43-.56-.5-.87-.28-.57-.38-.86-.32-.53-.44-.82,0-.69-.14-.96-.62-.35-.79-.61.26-.95.07-1.19-.87-.1-1.08-.33.01-.9-.21-1.11-.87.03-1.11-.17-.07-.51-.33-.68c.26-.18.05-.53.29-.73s.34-.52.56-.74.5-.35.7-.58.43-.42.62-.67.37-.48.54-.74.61-.36.76-.63-.27-.8-.15-1.09.77-.35.87-.65-.12-.68-.05-.98.12-.59.17-.9,0-.6.02-.91,0-.59,0-.91c0-.13.15-.13.15-.25,0-.31.46-.65.43-.95s-.31-.6-.35-.91.35-.73.28-1.03-.84-.42-.94-.71.18-.73.06-1.02-.45-.48-.6-.76-.59-.36-.76-.62.07-.8-.12-1.04-.53-.37-.74-.6-.28-.6-.51-.82-.83.02-1.07-.18.24-.7-.02-.88c.26-.18-.19-.64.05-.84s.53-.3.76-.51.97.06,1.18-.17-.24-1.01-.05-1.26.63-.3.8-.56.07-.66.22-.94.9-.26,1.02-.55-.19-.75-.09-1.05.52-.5.59-.81-.13-.67-.08-.98.56-.58.59-.89-.43-.66-.43-.97c0-.13.09-.13.09-.25,0-.31-.43-.6-.45-.91s-.04-.6-.09-.9-.03-.61-.11-.91.12-.68.02-.97.02-.69-.1-.98-.59-.42-.74-.69-.48-.43-.65-.69.14-.86-.05-1.11-.41-.51-.61-.74-.64-.27-.87-.48-.61-.24-.85-.44-.38-.53-.64-.7c.26-.18.49-.39.73-.59s.24-.65.46-.86,1.03.13,1.24-.1.22-.66.41-.91.47-.45.64-.71.4-.52.55-.79-.17-.78-.05-1.07.41-.5.51-.8.27-.58.34-.88-.38-.7-.33-1.01.79-.53.81-.84.17-.64.17-.96c0-.13-.33-.13-.33-.25,0-.31-.54-.59-.56-.9s.43-.67.38-.97.01-.65-.06-.95-.56-.49-.66-.78-.42-.48-.54-.76.31-.83.17-1.1-.26-.59-.43-.85-.37-.53-.55-.78-.51-.4-.72-.63-.75-.13-.97-.34-.07-.85-.31-1.05-.84-.21-1.1-.39c.26-.18.42-.74.66-.93s.71-.1.93-.32.31-.54.52-.78.91-.06,1.1-.31.14-.69.31-.95.02-.7.16-.98.77-.32.89-.61.32-.57.42-.87-.46-.78-.38-1.09.38-.54.43-.85-.25-.64-.23-.95.52-.59.52-.9c0-.13-.33-.13-.33-.25,0-.31.27-.63.25-.94s-.49-.56-.54-.86.3-.69.23-.99-.09-.63-.18-.93-.63-.42-.75-.7-.16-.59-.31-.86-.11-.64-.28-.91.03-.8-.16-1.05-1.11.11-1.31-.12-.12-.72-.35-.93-.47-.4-.71-.59-.22-.47-.48-.64c.26-.18.12-.59.37-.79s.37-.48.59-.69.79-.08,1-.31-.02-.8.17-1.05,1.15.04,1.32-.22-.43-.97-.28-1.25.79-.3.91-.59.16-.62.26-.91-.05-.66.03-.96.45-.54.5-.85-.41-.67-.39-.98.68-.59.68-.91c0-.13,0-.13,0-.25,0-.31-.21-.63-.23-.94s.18-.67.13-.98-.48-.55-.56-.85.1-.69,0-.98-.88-.32-1-.61-.24-.54-.38-.81-.13-.61-.3-.87.03-.77-.16-1.02-.68-.24-.89-.48.04-.92-.18-1.14-.62-.28-.86-.48-.56-.18-.82-.35c.26-.18.12-.73.36-.92s1.11.33,1.34.11.04-.85.25-1.08.08-.71.27-.96.77-.2.94-.46.19-.6.34-.88-.06-.69.06-.98,1.14-.23,1.24-.53-.53-.81-.46-1.11.73-.49.78-.79-.51-.69-.48-1-.13-.6-.13-.91c0-.13.3-.13.3-.25,0-.3.57-.63.55-.92s-.07-.62-.11-.91-.69-.48-.76-.77.18-.67.09-.95-.24-.56-.35-.83-.38-.48-.51-.75.12-.76-.03-1.01-.84-.16-1.02-.41-.18-.6-.37-.82-.65-.19-.86-.4-.38-.42-.6-.61-.2-.68-.43-.85-.48-.31-.72-.47c.24-.17.27-.55.5-.74s.31-.5.52-.71.99.12,1.18-.11.35-.51.52-.75.33-.52.48-.77-.26-.82-.12-1.09.7-.31.81-.58.36-.51.46-.79.4-.53.47-.81-.77-.77-.72-1.06,1-.46,1.03-.76-.22-.63-.21-.93-.63-.57-.65-.86c0-.16.44-.19.43-.35-.02-.3.02-.6-.02-.89s-.64-.47-.7-.76.17-.63.09-.91.12-.67,0-.94-.59-.39-.71-.65.23-.8.09-1.05-.42-.46-.59-.7-.83-.11-1.01-.34-.15-.63-.35-.85-.37-.46-.59-.66-.61-.17-.84-.35-.26-.63-.51-.8-.69-.26-.94-.4c.23-.19.72-.29.93-.49s.08-.74.28-.96.57-.28.75-.52.28-.52.44-.77.64-.32.78-.58-.21-.76-.09-1.03.09-.58.19-.86.8-.37.88-.66.18-.59.23-.88.19-.6.22-.9-.45-.63-.44-.93-.28-.57-.3-.87.54-.64.51-.93c-.01-.08-.16-.06-.17-.15-.04-.3.02-.61-.04-.9s.11-.66.03-.94-.36-.53-.46-.81.03-.69-.09-.96-.27-.57-.42-.83-.88-.17-1.04-.42-.51-.34-.69-.57-.36-.43-.56-.65-.28-.53-.49-.73,0-.92-.23-1.11-.99.35-1.24.19-.15-.86-.41-1-.97-.07-1.24-.2c.22-.2,1.04-.25,1.24-.47s-.01-.8.17-1.03.25-.53.41-.78.81-.2.96-.46.03-.66.16-.93-.17-.69-.07-.97.84-.34.92-.63-.52-.73-.46-1.02,1.03-.44,1.07-.74-.2-.64-.19-.94-.19-.6-.2-.9-.42-.55-.45-.85-.18-.54-.24-.84c-.02-.09.31-.15.29-.24-.06-.29-.35-.51-.42-.8s.13-.65.03-.93-.47-.44-.59-.71.44-.89.3-1.15-.78-.24-.94-.49-.39-.44-.57-.67-.19-.61-.39-.83-.48-.36-.7-.57-.26-.61-.49-.8-.86.17-1.11,0-.39-.44-.65-.59-.51-.25-.78-.38-.38-.55-.65-.66c.2-.22.21-.58.39-.81s.61-.29.77-.53-.17-.79-.03-1.05.65-.31.78-.58.17-.57.27-.84.4-.49.49-.77-.36-.69-.3-.98.08-.55.12-.85.76-.51.78-.81-.03-.61-.03-.91-.44-.56-.47-.86.44-.66.39-.96.1-.66.02-.95c-.03-.1-.4,0-.43-.11-.08-.29.09-.67,0-.95s-.97-.26-1.08-.53.48-.89.35-1.15-.85-.2-1.01-.45-.43-.39-.61-.63.21-.93.02-1.15-.82-.05-1.03-.26-.3-.54-.53-.73-.56-.22-.81-.39-.35-.54-.6-.69-.34-.64-.61-.77-.68,0-.95-.1-.13-.28-.41-.37c.19-.23-.23-.43-.06-.67s.09-.62.24-.88.96-.15,1.09-.42.3-.54.41-.82-.35-.76-.26-1.04.28-.52.35-.81.46-.52.5-.81-.59-.65-.57-.95.57-.56.57-.86-.25-.58-.28-.87.54-.67.49-.97-.14-.61-.21-.9-.32-.55-.41-.84c-.05-.15-.17-.11-.22-.26-.09-.28-.75-.34-.86-.61s.3-.78.16-1.04-.6-.34-.76-.59.17-.83,0-1.07-.94-.01-1.13-.24.18-.98-.02-1.19-.97.17-1.19-.02.01-.97-.23-1.14-.53-.32-.78-.48-.87.35-1.14.21-.17-1.04-.44-1.16-.86.58-1.14.49-.85-.41-1.13-.49c.17-.24.73-.65.89-.9s-.02-.67.11-.93.21-.52.32-.79.82-.32.91-.6-.43-.73-.36-1.02.78-.44.83-.73.21-.6.24-.89-.42-.62-.42-.92-.39-.56-.41-.85.27-.6.22-.9-.2-.55-.27-.84-.33-.49-.42-.78.09-.64-.02-.91c-.06-.14.33-.3.27-.44-.11-.28-.63-.37-.76-.64s-.46-.4-.61-.65.12-.78-.05-1.02-.82-.1-1.01-.33.27-1.04.07-1.25-1.03.22-1.25.03-.15-.73-.38-.9-.63-.1-.88-.26-.17-.89-.43-1.03-.83.36-1.1.24-.28-.91-.56-1.01-.7.21-.99.13-.2-.31-.49-.36c.16-.25.11-.26.25-.52s.09-.63.2-.9.34-.51.43-.79.51-.49.58-.78.17-.61.22-.9.04-.63.07-.93-.82-.64-.82-.94.77-.61.75-.91-.88-.5-.92-.79.41-.66.34-.95.31-.72.23-1-1.04-.27-1.15-.55-.23-.51-.36-.78c-.04-.09-.09-.06-.13-.15-.13-.27.07-.69-.07-.94s-.04-.69-.2-.93-.5-.38-.69-.61-.1-.72-.3-.94-.71-.15-.93-.35-.72-.04-.96-.22-.04-.96-.29-1.12-.88.32-1.14.18-.2-.92-.47-1.04-.51-.4-.79-.5-.8.52-1.08.44-.42-.81-.71-.87-.66.29-.96.25c.14-.26.57-.39.69-.66s-.43-.8-.33-1.08.34-.49.42-.77.3-.53.35-.81.44-.54.47-.83.11-.61.12-.9-.61-.59-.62-.88.6-.64.56-.94-.51-.52-.57-.81.3-.69.22-.98-.78-.37-.89-.64.1-.67-.02-.94-.66-.31-.8-.57c-.09-.16.33-.4.24-.57-.15-.26-.23-.57-.39-.81s-.21-.61-.39-.84-.53-.36-.73-.58-.62-.22-.84-.42-.49-.32-.72-.51-.47-.33-.72-.5-.33-.58-.59-.73-.68.04-.95-.09-.41-.54-.68-.65-.63.04-.92-.05-.44-.7-.73-.76-.65.21-.95.18-.54-.02-.83-.04c.12-.27.23-.49.33-.76s-.04-.63.04-.91.25-.54.3-.83.46-.53.5-.83-.69-.64-.68-.94.08-.56.07-.85-.1-.55-.14-.84.71-.7.66-.99-.2-.58-.28-.87-.4-.5-.5-.78-.15-.58-.28-.85-.67-.31-.81-.57.26-.83.1-1.08c-.09-.14-.12-.12-.2-.25-.16-.25-.78-.16-.96-.39s-.16-.61-.35-.83-.39-.43-.6-.63-.66-.1-.89-.29.12-1.13-.12-1.3-.99.46-1.25.31-.36-.53-.62-.65-.48-.34-.75-.45-.41-.63-.69-.72-.58-.2-.87-.27-.65.2-.94.16-.56-.44-.85-.46-.62.29-.91.29c-.04,0-.48.04-.52.04.1-.28.86-.38.94-.67s.21-.58.27-.87-.07-.63-.03-.92.18-.59.2-.88-.44-.6-.45-.89.31-.61.28-.9.01-.61-.04-.9.13-.66.05-.94-.43-.51-.52-.79-.2-.57-.31-.84-.25-.55-.39-.81-.35-.49-.51-.74-.36-.47-.54-.71c-.1-.13-.52.18-.62.05-.18-.24-.15-.61-.35-.83s-.13-.69-.34-.9-.78-.01-1-.2-.25-.62-.49-.79-.31-.63-.56-.78-.59-.19-.86-.32-.54-.28-.81-.4-.56-.23-.85-.32-.56-.25-.85-.32-.61-.09-.9-.14-.65.48-.94.45-.57-.42-.86-.42-.47,0-.76.02c.09-.28-.38-.57-.31-.85s.21-.53.25-.83.69-.52.71-.81-.55-.61-.55-.9.7-.63.68-.92-.75-.51-.8-.8.01-.59-.06-.88.42-.74.32-1.03-.5-.47-.62-.74-.44-.45-.58-.71-.12-.61-.28-.86-.54-.34-.71-.58-.57-.27-.76-.5c-.1-.11.09-.27,0-.39-.19-.23-.46-.36-.66-.57s-.13-.72-.35-.92-.76.02-.99-.16-.21-.73-.46-.88-.53-.27-.8-.4-.45-.45-.73-.57-.66.07-.94-.03-.64.17-.93.09-.54-.16-.83-.21-.5-.71-.79-.73-.61-.09-.9-.09-.57.61-.87.63-.64-.26-.94-.22c.07-.29.54-.54.58-.83s.06-.61.08-.91-.55-.62-.55-.91.72-.62.69-.91-.47-.56-.51-.85-.27-.55-.33-.83-.1-.58-.19-.86-.33-.49-.44-.77.24-.75.11-1.01-.54-.39-.69-.65-.57-.31-.74-.56.04-.76-.15-.99-.73-.12-.94-.34c-.14-.14.11-.37-.03-.51-.21-.21-.23-.63-.45-.83s-.94.23-1.18.05-.07-.93-.32-1.08-.65-.07-.91-.21-.47-.39-.74-.51-.52-.32-.8-.42-.5-.48-.79-.55-.77.74-1.06.69-.47-.91-.76-.94-.64.68-.93.67-.6-.62-.89-.6-.6.16-.89.2-.62.3-.91.36c.05-.3.2-.64.23-.94s-.09-.61-.09-.91.25-.61.24-.91.17-.64.13-.94-.37-.56-.44-.86-.39-.52-.48-.8-.28-.52-.39-.8-.14-.57-.27-.84-.44-.42-.59-.68-.22-.54-.39-.79.16-.88-.03-1.11-.83-.08-1.04-.29-.13-.72-.36-.92c-.05-.05-.26.18-.31.13-.22-.2-.68-.08-.91-.26s.08-1.14-.16-1.3-.79.12-1.05-.02-.42-.5-.69-.62-.77.35-1.05.25-.33-.91-.61-.99-.6-.15-.89-.2-.63.08-.92.04-.6.04-.9.02-.59.14-.88.15-.54.41-.83.44-.7-.68-.99-.62-.41.27-.69.35c.03-.29-.4-.46-.39-.76s.12-.57.11-.86.27-.61.23-.9-.11-.58-.17-.87-.56-.46-.64-.74.09-.63,0-.9-.42-.44-.54-.71.28-.79.14-1.05-.49-.4-.65-.65-.22-.57-.41-.8-.47-.38-.67-.6-.3-.54-.51-.74-.77,0-1-.19c-.15-.12-.2-.06-.36-.19-.23-.18.03-1.05-.21-1.21s-.59-.23-.84-.38-.86.38-1.13.26-.38-.56-.66-.67-.59-.07-.87-.15-.5-.43-.78-.49-.65.42-.95.38-.55-.13-.84-.15-.57-.56-.87-.55-.57.32-.86.35-.57.08-.86.13-.48.43-.77.5-.4-.69-.68-.59c.01-.3-.29-.22-.3-.51s-.06-.59-.09-.89,0-.6-.05-.9.02-.63-.05-.91-.44-.49-.54-.77-.17-.56-.3-.84-.42-.44-.56-.71-.1-.62-.26-.87-.65-.24-.84-.48.3-1.02.1-1.25-.62-.26-.84-.46-.33-.55-.56-.74-.6-.22-.85-.39c-.09-.06-.42.41-.5.35-.25-.17-.45-.34-.71-.49s-.14-.99-.41-1.12-.64-.08-.91-.19-.65.03-.93-.06-.56-.2-.85-.26-.55-.34-.84-.38-.6-.22-.89-.24-.62.27-.91.27-.62-.28-.92-.26-.62.03-.92.08-.42.92-.7.99-.73-.44-1.02-.34-.48.34-.76.45c0-.3.31-.6.28-.89s-.21-.59-.26-.88-.18-.58-.25-.87-.11-.6-.21-.88-.04-.64-.15-.92-.81-.28-.95-.54-.11-.61-.26-.86-.53-.34-.71-.57-.44-.37-.63-.59-.37-.42-.58-.63-.27-.54-.5-.74-.26-.62-.5-.8-.79.15-1.05,0c-.14-.09-.13-.11-.27-.19-.26-.15-.16-.92-.42-1.06s-.78.29-1.06.18-.51-.27-.79-.36-.5-.36-.79-.43-.62.19-.92.15-.52-.58-.81-.6-.6.36-.9.36-.61-.51-.9-.49-.63-.08-.92-.04-.54.41-.83.48-.49.44-.77.53-.81-.48-1.09-.37-.59,1.08-.85,1.21c-.02-.3.23-1,.18-1.29s.22-.67.15-.96-.76-.41-.85-.7-.25-.53-.36-.8-.19-.55-.32-.82.23-.82.07-1.07-.33-.53-.51-.77-.65-.27-.84-.5-.72-.13-.93-.34.02-.88-.21-1.08-.47-.4-.71-.58-.84.19-1.1.04-.28-.68-.55-.82c-.06-.03-.29.41-.35.38-.27-.14-.17-1.01-.45-1.13s-.63-.09-.91-.18-.53-.39-.82-.47-.76.72-1.05.66-.54-.24-.83-.27-.57-.24-.86-.25-.58.18-.87.2-.64-.46-.94-.42-.56.3-.85.36-.62,0-.91.08-.68-.08-.96.03-.39.65-.65.78-.72.62-.98.77c-.04-.3-.26-.88-.33-1.17s-.07-.58-.16-.86-.28-.51-.39-.78.2-.73.06-1-.52-.39-.67-.65-.4-.43-.57-.67-.32-.48-.51-.71.04-.83-.17-1.05-.36-.53-.58-.73-.79,0-1.03-.18-.21-.77-.46-.93-.57-.26-.84-.41-.83.34-1.1.22c-.07-.03.01-.22-.06-.25-.27-.12-.66.1-.94,0s-.39-.69-.68-.77-.51-.55-.8-.61-.66.19-.95.16-.62.24-.91.23-.58.12-.88.13-.56.13-.86.16-.7-.59-.99-.53-.51.48-.79.56-.75-.31-1.03-.2-.4.65-.67.77-.61.14-.87.29-.46.55-.71.71c-.06-.29-.05-.69-.13-.98s-.55-.43-.66-.71.45-.85.32-1.12-.31-.54-.46-.8-.34-.53-.5-.78-.35-.52-.54-.75-.41-.47-.61-.69-.74-.12-.96-.32-.51-.3-.75-.49-.35-.53-.6-.69-.54-.25-.81-.39-.33-.71-.6-.84-.88.58-1.16.48c-.06-.02-.07,0-.13-.02-.28-.11-.35-.8-.64-.89s-.52-.5-.81-.55-.75.84-1.04.8-.55-.33-.84-.34-.57.29-.87.3-.62-.57-.92-.54-.54.41-.83.47-.68-.3-.97-.22-.47.51-.75.61-.67-.06-.94.06-.29.73-.55.87-.77-.15-1.02.02-.53.73-.77.91c-.08-.28.02-.9-.08-1.18s0-.66-.12-.92-.17-.61-.31-.87-1.03-.07-1.19-.31-.28-.49-.46-.72.03-.79-.17-1-.48-.37-.69-.57-.54-.27-.77-.46-.27-.63-.51-.8-.4-.52-.66-.67-.69,0-.96-.12-.58-.14-.86-.25-.68.23-.96.14c-.18-.05-.14-.18-.32-.23-.29-.08-.5-.36-.79-.42s-.61.12-.9.09-.55-.28-.85-.3-.58.01-.88.02-.62-.37-.91-.34-.53.47-.82.52-.7-.38-.98-.3-.39.76-.67.86-.51.26-.78.38-.66-.04-.92.1-.54.25-.79.41-.36.5-.6.68-.5-.21-.72-.02c-.1-.28.06-.33-.06-.6s-.97-.18-1.11-.44.18-.78.02-1.03-.46-.41-.64-.64-.14-.67-.33-.89-.4-.47-.61-.68-.38-.5-.61-.69-.83.1-1.08-.07-.36-.53-.62-.68-.55-.23-.82-.36-.63,0-.91-.11-.52-.26-.8-.35-.51-.35-.8-.41c-.13-.03-.07-.28-.2-.31-.29-.07-.68.41-.97.36s-.52-.81-.81-.84-.63.16-.93.16-.61.14-.9.16-.59.13-.89.17-.47.61-.76.68-.6-.02-.88.07-.49.31-.77.43-.84-.4-1.1-.26-.25.77-.51.92-.53.25-.77.42-.8-.04-1.02.15-.22.72-.43.93c-.12-.27-.4-.5-.54-.76s-.31-.49-.46-.74.2-.86.02-1.1-.48-.4-.68-.63-.88.02-1.09-.18-.3-.51-.52-.7-.16-.75-.4-.92-.67-.07-.92-.22-.37-.55-.64-.68-.55-.25-.82-.36-.51-.37-.79-.47-.7.3-.99.22-.56-.14-.85-.19c-.19-.03-.13-.46-.32-.49-.29-.05-.61-.05-.9-.07s-.61.69-.9.69-.57-.19-.86-.17-.57.02-.86.06-.67-.36-.96-.29-.45.59-.73.68-.61.03-.88.14-.74-.17-1-.04-.37.59-.62.74-.32.57-.56.74-.43.38-.65.57-.8-.02-1.01.19-.2.16-.39.38c-.14-.26-.38-.08-.53-.33s-.08-.67-.25-.91-.82-.11-1.01-.34-.36-.44-.57-.65-.42-.38-.65-.57.02-.98-.22-1.15-.93.31-1.18.15-.4-.45-.66-.58-.31-.75-.58-.87-.58-.22-.86-.31-.56-.3-.85-.37-.73.54-1.02.49-.56-.13-.86-.16c-.12-.01-.1-.29-.22-.3-.3-.03-.59-.34-.89-.34s-.6.36-.9.38-.66-.42-.95-.38-.56.41-.84.48-.42.71-.7.8-.85-.65-1.13-.54-.25.93-.52,1.06-.79-.23-1.05-.08-.65.13-.89.3-.39.51-.62.7-.38.49-.6.69-.39.46-.59.68-.31.3-.49.53c-.15-.26-.07-.48-.24-.73s-.84-.11-1.03-.34.08-.87-.13-1.09-.53-.34-.75-.54-.42-.46-.66-.64-.89.25-1.14.08-.36-.51-.63-.65-.28-.79-.56-.91-.65-.04-.93-.14-.72.35-1.01.27-.47-.56-.77-.62-.57-.31-.87-.34-.62.37-.93.37c-.06,0-.06-.04-.12-.04-.3-.01-.6-.18-.89-.17s-.54.55-.83.59-.55.09-.84.15-.68-.35-.96-.27-.72-.23-1-.13-.4.63-.67.75-.74-.11-1,.04-.33.63-.58.79-.66.13-.89.32-.08.83-.3,1.03-.77.06-.97.28.1.86-.08,1.1-.72.11-.88.35c-.17-.24-.09-.6-.27-.83s-.92.02-1.12-.19-.05-.77-.26-.97-.31-.57-.54-.75-.63-.16-.87-.33-.68,0-.94-.14-.21-.88-.48-1.01-.68.05-.95-.06-.61-.02-.89-.1-.45-.66-.74-.72-.68.47-.97.43-.58.22-.88.21-.55-.18-.85-.17c-.19,0-.22-.72-.41-.71-.3.01-.57.5-.86.53s-.55.25-.84.3-.5.34-.79.42-.83-.67-1.11-.57-.26.93-.53,1.05-.8-.29-1.06-.15-.26.71-.51.87-.45.35-.69.53-.73.03-.95.23-.05.79-.25,1-.95-.06-1.14.17-.03.73-.2.97-.43.28-.58.54c-.18-.24-.44-.25-.64-.48s-.16-.7-.37-.9-.61-.23-.84-.42-.51-.32-.75-.49-.69.01-.95-.14-.42-.44-.69-.57-.55-.19-.83-.3-.51-.31-.8-.39-.51-.42-.8-.48-.61-.01-.91-.05-.61.24-.91.22-.57.18-.87.19-.6-.37-.9-.34c-.06,0-.02.39-.08.39-.3.03-.67-.59-.96-.54s-.6.1-.89.18-.67-.08-.95.02-.35.79-.62.91-.46.36-.73.5-.71-.06-.96.1-.5.33-.74.51-.66.15-.89.34.08.95-.13,1.17-.84.03-1.03.26-.47.41-.64.65-.42.47-.57.72,0,.56-.14.83c-.2-.22-.32-.36-.53-.56s-.31-.56-.53-.75-.83.11-1.07-.06-.33-.55-.58-.71-.4-.52-.66-.65-.45-.5-.72-.61-.65-.03-.93-.12-.63.03-.92-.04-.58-.14-.87-.19-.63.5-.93.48-.55-.83-.85-.83-.62-.06-.91-.04-.62.05-.91.09c-.18.03-.1.56-.28.59-.29.05-.51.35-.8.42s-.52.21-.8.3-.77-.4-1.04-.29-.63.09-.89.23-.12.99-.37,1.14-.92-.32-1.15-.15-.35.53-.58.72-.12.73-.33.93-.44.36-.63.59-.63.24-.81.47-.19.58-.35.83-.42.43-.55.7-.26.72-.37.99c-.21-.21-.64-.42-.86-.61s-.3-.56-.54-.74-.68-.02-.93-.18-.18-.89-.44-1.02-.51-.38-.78-.5-.67.03-.95-.06-.66.17-.95.1-.6.13-.9.08-.48-.94-.77-.97-.63.82-.93.82-.56-.01-.85,0-.68-.8-.98-.75-.57.32-.86.38c-.12.03-.15-.13-.27-.1-.29.07-.52.43-.8.51s-.73-.2-1-.09-.58.26-.85.39-.11,1.05-.37,1.2-.67.02-.92.19-.55.25-.78.44-.51.33-.72.54-.2.63-.39.86-.81.11-.99.35-.38.5-.54.75.37.91.23,1.17-.32.47-.44.75-.54.39-.64.67c-.23-.2-.63-.13-.87-.31s-.24-.7-.49-.86-.41-.52-.68-.65-.74.13-1.01.01-.53-.26-.82-.36-.46-.61-.75-.68-.62-.08-.92-.13-.69.64-.98.62-.56-.47-.86-.47-.58.21-.88.23-.59-.04-.89,0-.55.22-.85.29-.73-.44-1.02-.35c-.05.02.01.22-.04.23-.29.08-.6.13-.88.23s-.31.79-.58.91-.67-.03-.93.12-.55.24-.8.41-.23.67-.46.85-.68.09-.9.3-.46.38-.67.6-.54.34-.72.57-.35.5-.52.74.09.75-.05,1.01-.67.32-.79.59-.25.55-.35.83-.14.39-.22.67c-.23-.18-.18-.47-.42-.63s-.88.33-1.14.19-.29-.72-.56-.84-.62-.06-.89-.16-.65.16-.94.08-.48-.48-.77-.53-.63.36-.92.32-.52-.7-.82-.71-.59.3-.88.31-.6-.2-.89-.17-.63-.15-.92-.09-.6.11-.89.19-.31.94-.59,1.04c-.19.07-.21,0-.4.07-.28.1-.83-.45-1.09-.33s-.54.29-.8.43-.58.23-.83.4-.15.82-.38,1-.86-.09-1.08.11-.29.58-.49.8-.28.55-.47.78-.03.7-.2.94-.42.41-.57.66-.42.43-.54.7-.59.4-.7.67.47.78.39,1.06-.48.58-.54.87c-.25-.16-.72-.14-.97-.28s-.17-.98-.43-1.1-.65-.03-.93-.13-.65.08-.93,0-.64.23-.93.17-.44-.93-.73-.97-.63.27-.92.25-.6-.3-.89-.29-.57.41-.86.45-.65-.35-.94-.3-.54.37-.82.44-.63-.02-.91.08-.46.45-.74.57c-.18.08-.23-.02-.41.06-.27.12-.7-.03-.96.11s-.55.31-.79.47-.21.75-.44.93-.3.55-.52.74-.41.39-.62.6-.37.43-.55.66-.32.47-.49.71-.89.13-1.04.38.36.86.23,1.12-.27.49-.38.77-.87.32-.96.6-.19.59-.25.87.19.6.14.89c-.26-.15-.66.13-.93,0s-.39-.55-.66-.65-.59-.08-.87-.17-.48-.52-.77-.58-.6-.04-.9-.08-.57-.4-.87-.42-.62-.04-.92-.04-.6.24-.9.26-.48.76-.78.81-.69-.49-.98-.41-.4.68-.68.78-.77-.39-1.05-.28-.23.87-.49,1.01c-.15.08-.46-.51-.61-.43-.26.14-.49.37-.73.53s-.64.14-.88.32-.51.36-.73.55-.31.57-.51.78-.03.76-.22.99-.24.52-.41.76-.78.18-.93.43-.27.53-.4.79-.64.38-.75.65.54.83.45,1.11-.87.37-.94.66.63.73.58,1.02-.32.82-.35,1.11c-.27-.13-.89-.1-1.17-.21s-.26-1.03-.55-1.12-.64-.02-.93-.09-.66.25-.95.2-.56-.4-.86-.42-.61-.04-.91-.04-.63-.22-.93-.19-.48.94-.78.99-.58-.04-.87.03-.57.1-.85.2-.56.15-.83.27-.64.02-.91.15-.43.44-.68.6c-.04.03-.06,0-.11.03-.26.16-.55.23-.79.4s-.5.33-.72.52-.57.27-.78.48,0,.8-.2,1.02-1.01-.05-1.19.19.17.85.01,1.1-.11.6-.24.86-1.02.17-1.14.44.05.68-.05.96.13.65.06.94-.13.56-.18.86.15.59.13.89-.64.38-.64.68c-.28-.11-.47,0-.75-.09s-.5-.44-.79-.51-.55-.4-.85-.45-.66.31-.96.29-.6.08-.9.08-.63-.49-.92-.47-.49.97-.79,1.01-.74-.74-1.03-.67-.47.59-.75.68-.45.46-.72.57-.69-.12-.95.02-.3.65-.56.8-.74-.08-.99.09c-.09.06-.14-.01-.23.05-.25.17-.24.66-.47.85s-.42.39-.63.6-.85,0-1.05.23-.22.61-.4.84-.57.34-.73.59-.07.67-.21.93-.04.63-.16.9-.14.56-.24.84-.89.35-.96.64.34.7.29.99-.33.55-.36.85-.02.6-.03.9.34.89.35,1.18c-.28-.1-.87-.15-1.15-.22s-.45-.7-.75-.75-.65.37-.95.34-.56-.73-.86-.74-.6.5-.9.52-.65-.39-.94-.35-.51.58-.8.65-.59.08-.87.17-.75-.29-1.02-.19-.51.4-.78.52-.63.14-.89.29-.38.55-.63.72-.49.36-.72.55c-.07.06.09.26.02.32-.23.19-.29.56-.5.76s-.85-.01-1.05.2-.15.66-.34.9-.71.23-.88.48.25.86.11,1.11-.91.21-1.04.48-.06.64-.16.92.42.75.34,1.04-.37.5-.43.79-.58.51-.62.8.25.63.23.92.1.59.11.88-.11.63-.08.93c-.28-.08-.55-.41-.84-.47s-.62.08-.91.05-.59-.1-.88-.11-.6-.03-.89-.01-.6-.03-.9,0-.58.16-.87.21-.65-.13-.94-.05-.55.28-.83.38-.36.67-.63.79-.47.33-.73.47-.68,0-.92.15-.33.54-.56.72-.86-.11-1.09.09c-.15.13-.17.11-.32.24-.22.2-.27.6-.47.82s.07.83-.12,1.06-.34.44-.51.69-.45.39-.6.64-.57.36-.7.63-.25.54-.35.82.01.63-.07.91-.69.45-.75.74.25.66.21.95.36.61.34.91-.59.57-.58.87.21.59.24.88.14.68.19.97c-.29-.06-.64-.44-.94-.48s-.65.61-.95.6-.6-.94-.89-.93-.62.19-.92.23-.57.37-.86.43-.68-.23-.97-.15-.43.67-.71.77-.75-.23-1.02-.11-.45.48-.72.62-.34.59-.6.75-.58.19-.82.38-.41.43-.64.63-.52.32-.72.54c0,0-.45-.26-.46-.25-.21.22.33,1.09.14,1.32s-.68.21-.84.45-.74.24-.89.5,0,.69-.14.95-.12.59-.23.87.16.66.07.94-.57.44-.64.73-.35.55-.39.84.03.61.01.91.41.59.42.89-.59.62-.57.92-.05.63,0,.92.38.41.45.7c-.3-.04-.48.04-.78.03s-.6-.22-.9-.21-.57.47-.87.5-.57.1-.87.15-.75-.61-1.04-.53-.61.17-.89.27-.41.66-.68.77-.51.31-.77.45-.6.16-.85.32-.59.21-.83.39-.06.86-.29,1.06-.99-.19-1.2.03.08.88-.12,1.11c-.04.04-.55-.39-.59-.35-.2.23-.05.74-.22.98s-.49.39-.65.64-.2.58-.33.84-.15.58-.26.85-.3.52-.39.8.24.66.17.95-.81.43-.86.72.06.62.03.91-.03.6-.03.9-.3.62-.28.92.51.55.56.85.03.59.1.88.24.69.33.97c-.3-.02-.73-.29-1.02-.28s-.59.23-.88.25-.64-.29-.93-.25-.59.16-.88.23-.46.55-.74.64-.51.28-.78.39-.6.08-.86.21-.58.16-.83.32-.37.49-.61.67-.8-.06-1.03.13-.15.72-.36.93-.36.45-.56.67-.22.55-.4.79c-.1.13-.48-.15-.58-.02-.18.24,0,.71-.16.95s-.97.13-1.11.39-.06.66-.18.93.2.71.1.99-.03.58-.1.87-.31.51-.37.8-.08.57-.11.86-.6.56-.6.86.54.59.55.88.24.55.28.84.14.54.2.83-.28.66-.2.95.5.8.6,1.08c-.3,0-.93-.33-1.23-.31s-.64-.27-.93-.23-.55.38-.84.44-.52.36-.8.44-.72-.26-1-.15-.23.95-.49,1.08-.74-.17-.99-.02-.3.61-.54.78-.92-.24-1.15-.06-.35.54-.56.74-.3.54-.5.76-.47.39-.65.62-.27.54-.43.79c-.1.16.36.46.25.62-.16.25-.32.46-.46.72s-.34.46-.46.73-.77.33-.87.6.44.75.36,1.04-.72.43-.77.72.08.62.05.91-.29.58-.3.88.06.61.07.9-.11.62-.07.91.1.61.16.9.09.61.17.9.87.34.97.62-.26.62-.14.89c-.3.02-.48.18-.77.22s-.65-.21-.94-.15-.63.02-.92.11-.57.25-.85.36-.62.13-.89.26-.21.89-.47,1.03-.75-.1-1,.07-.18.74-.42.93-.85-.09-1.07.12-.25.6-.45.82-.36.47-.55.7-.58.32-.75.57.13.77-.02,1.03c-.06.11-.13.08-.19.19-.15.26-.23.53-.35.8s-.94.26-1.04.54.54.81.46,1.1-.72.44-.78.73.11.64.08.93-.2.59-.22.89.68.59.69.88-.53.62-.49.91.17.58.23.87-.27.69-.2.97.93.33,1.03.61-.27.74-.15,1.01.67.66.81.92c-.3.03-.9-.04-1.2.02s-.7-.3-.99-.22-.53.38-.81.48-.69-.05-.96.08-.31.74-.58.88-.75-.06-1,.11-.15.83-.38,1.01-.92-.16-1.14.04-.2.67-.41.89-.69.23-.87.46,0,.77-.16,1.02-.27.53-.42.79-.61.36-.74.64c-.04.09.6.39.56.48-.13.27-.7.33-.81.61s.17.68.09.97-.05.58-.11.86-.64.48-.69.77.26.62.25.92-.11.58-.1.88.09.58.12.87-.32.64-.27.94.06.61.13.9,0,.65.09.93.33.54.45.81.7.33.84.59.19.65.35.9c-.29.05-.76-.3-1.05-.23s-.59.21-.87.31-.48.44-.75.56-.31.7-.57.84-.69-.04-.94.12-.7.06-.93.23.05.99-.17,1.19-.54.24-.75.45-.37.43-.56.66-.53.32-.7.56-.76.22-.92.48-.3.54-.44.81-.21.58-.32.86c-.06.14-.22.08-.28.22-.11.28-.2.6-.29.88s.31.72.24,1.01.32.65.28.94-.96.49-.98.78.84.62.85.92-.68.62-.65.91.29.57.34.86-.07.63,0,.92.06.62.16.9.8.33.92.61.27.5.41.76-.35.87-.2,1.12.21.2.38.44c-.29.07-.1.59-.38.69s-.82-.47-1.09-.35-.28.82-.55.95-.82-.23-1.08-.08-.3.65-.54.82-.3.56-.52.76-.72.1-.93.31-.5.36-.7.59-.53.37-.71.61-.3.55-.46.81,0,.69-.14.96-.07.62-.18.89-.35.49-.45.78c-.04.11.1.16.07.26-.09.28-.83.39-.9.68s.01.64-.04.93-.22.6-.24.9.26.63.26.93-.2.62-.18.92.84.5.88.8-.55.7-.48.99.39.52.48.8.36.49.47.77.16.57.29.83-.08.72.07.98.54.37.71.61.2.44.39.67c-.28.09-.5.04-.77.16s-.6.16-.87.29-.49.39-.74.54-.3.62-.54.79-.74.02-.96.22-.02.85-.23,1.06-.44.36-.64.59-.28.5-.46.74-.47.36-.63.61-.8.23-.93.49-.17.59-.29.87-.25.56-.35.84.26.69.18.98c-.03.11-.71-.07-.73.04-.08.29.56.74.51,1.03s.1.59.07.88-.53.55-.53.84.3.58.32.88-.04.58,0,.88.14.56.2.85.27.52.35.8.2.53.31.8-.2.72-.08.99.64.32.79.58.35.44.52.69-.1.8.08,1.03.76.46.97.68c-.28.11-.71.46-.97.59s-.87-.36-1.12-.21-.42.49-.66.66-.11.82-.34,1.01-1.05-.29-1.27-.09-.41.48-.6.7-.39.49-.57.72-.26.58-.42.83.29.86.15,1.12-.37.45-.49.72-.73.34-.83.62.27.71.19.99.02.59-.03.88c-.02.12-.43.05-.45.17-.06.29.33.64.3.93s-.9.53-.91.83.77.59.78.89.1.56.13.85-.24.62-.18.91,0,.61.07.89.68.38.78.66.11.56.23.83.27.49.41.75-.11.74.06.99.18.61.37.85.69.2.89.41.64.6.86.81c-.27.13-.88.23-1.14.38s-.63.12-.88.28-.27.64-.5.82-.34.48-.56.68-.98-.13-1.18.09.1.87-.09,1.11-.55.33-.71.57-.53.38-.67.64.36.84.24,1.11-.85.28-.96.56-.12.6-.2.89-.37.54-.43.83.39.67.36.97c-.02.13-.48.08-.49.21-.04.3.39.64.38.93s-.16.59-.15.88.02.6.05.89.35.54.41.83,0,.59.08.88-.19.68-.09.96.13.61.25.88.67.34.82.6.45.4.61.65-.02.73.16.96.5.36.7.58.1.74.32.94.22.12.45.31c-.26.14.1.58-.15.74s-.71,0-.95.19-.29.57-.51.77-.2.6-.41.82-.41.38-.6.61-.41.39-.58.64-.53.35-.67.6-.68.32-.81.59.32.79.22,1.06-.79.35-.88.64-.18.59-.25.88.39.68.35.97-.21.57-.23.86c0,.15.47.18.46.34-.02.3-.83.57-.83.87s.28.6.31.89-.08.62-.03.91.13.6.2.88.16.59.26.87.51.44.63.71.54.37.68.64.19.54.34.79.16.58.34.82.56.28.76.5-.23,1.02-.02,1.23.6.26.82.45.78.24,1.02.42c-.25.16-.74.27-.98.45s-.15.73-.37.92-.64.16-.84.37-.1.67-.29.9-.84.08-1.02.32-.3.52-.45.77-.22.55-.36.82-.28.52-.39.8.27.71.18.99-.39.47-.46.76-.17.55-.22.84.08.58.06.88-.14.56-.14.86c0,.12-.05.12-.05.25,0,.31-.06.62-.04.92s-.14.65-.09.95.23.59.3.89.08.63.18.92.31.55.43.83.42.48.57.75.43.44.6.7.14.64.33.88.23.61.44.84.48.4.71.61.39.5.63.7.77.33,1.03.51c-.26.18-.56.59-.8.79s-.45.39-.68.61-.64.23-.85.46-.4.47-.59.72-.06.7-.23.96-.52.39-.67.66-.39.49-.52.78-.46.5-.56.79-.36.57-.43.87-.22.62-.27.93.6.71.57,1.02-.62.6-.62.92c0,.12.31.13.31.25,0,.31.41.6.43.91s.18.58.23.88.06.59.13.89-.07.65.03.94-.1.71.02.99.27.58.41.85.36.52.53.78.59.34.78.59.19.65.39.88.76.11.98.33-.05,1,.19,1.19.57.11.83.28c-.26.18-.64.03-.88.22s.04.99-.19,1.21-.47.37-.68.6-.87.09-1.06.34.18.88.01,1.15-.39.46-.53.74-.25.55-.37.83-.57.44-.67.73-.22.59-.3.89.35.69.3,1,0,.59-.03.9-.1.58-.1.9c0,.12-.34.12-.34.25,0,.31.28.6.3.91s-.28.65-.23.96.48.52.56.82.16.57.26.87-.3.77-.17,1.06.45.48.6.75.3.54.47.8.21.62.4.87.83.11,1.04.34.22.62.44.84.3.6.54.79.29.34.54.51c-.26.18-.49.09-.73.28s.04.99-.18,1.21-.93-.04-1.13.19-.14.7-.33.95-.45.44-.61.7-.34.52-.48.8-.5.46-.63.75-.21.6-.31.9.25.72.17,1.02-.47.53-.52.84-.39.6-.41.91.46.65.46.97c0,.12-.47.12-.47.25,0,.31.66.6.68.91s-.7.72-.65,1.03.77.49.84.79.47.49.57.78-.6.89-.47,1.18.22.62.36.9.39.53.56.79.27.61.46.86.62.33.83.56.79.09,1.02.3.03.91.27,1.11,1.09.13,1.35.3c-.26.18-.87.4-1.12.59s-.31.57-.54.79-.83.06-1.03.29.17.93-.02,1.18-1.02.04-1.19.3.26.87.12,1.15-.24.54-.36.83-.29.52-.39.82-.35.53-.43.83.02.62-.03.93-.05.59-.07.91.02.59.02.91c0,.13-.76.13-.76.25,0,.31.13.65.16.95s.34.6.39.9.02.64.09.94.25.58.34.87.2.59.33.87.43.47.58.75.52.38.69.64-.32.97-.13,1.22.98,0,1.18.23.38.45.6.66-.03.97.22,1.16,1.17.13,1.43.31c-.26.18-.85.53-1.09.73s-.57.28-.79.49-.37.5-.58.73-.68.24-.87.49-.56.4-.73.66.11.8-.04,1.07-.39.5-.51.79-.39.53-.49.82.29.73.22,1.03-.77.48-.82.79.7.71.67,1.02-.73.58-.73.9c0,.13.67.13.67.25,0,.31-.38.62-.36.93s-.06.64-.01.94-.14.69-.07.99.52.51.62.81.27.56.4.84.26.56.4.84.23.59.39.85.36.51.55.76.75.17.95.4-.14.99.09,1.2.65.23.89.42.41.36.66.53c-.26.18-.3.49-.54.68s-.45.41-.67.63-.76.14-.97.37.05.84-.14,1.09-.68.27-.85.53-.54.42-.69.69.23.8.11,1.09-.14.58-.23.88-.48.49-.56.79-.5.54-.55.85.49.69.47,1,.05.6.05.91c0,.13-.04.13-.04.25,0,.31-.26.62-.24.93s-.19.66-.14.97.71.49.78.79-.37.75-.27,1.04.51.47.63.76.15.61.29.89.51.41.68.67.11.67.29.92.28.58.49.81.41.49.63.7.4.51.65.71.99.15,1.25.33c-.26.18-.53.73-.77.92s-.58.24-.8.45-.76.12-.97.35,0,.8-.19,1.04-.44.42-.61.68-.22.56-.37.84-.71.34-.83.63-.16.61-.26.91-.13.61-.2.92-.6.53-.65.84.29.68.27,1,.16.63.16.94c0,.13-.39.13-.39.25,0,.29-.15.61-.13.9s.17.59.22.88.28.56.34.84.72.39.8.67.04.57.15.84-.04.63.09.89.28.5.43.75.65.25.81.49-.29.93-.11,1.16.96-.08,1.16.13.07.72.29.92.6.17.83.34.23.59.47.76c-.24.17-.29.53-.51.71s-.85-.07-1.06.13-.16.69-.35.91-.52.34-.7.57-.33.5-.49.74-.6.35-.74.61,0,.68-.12.95-.6.41-.7.69-.01.65-.09.93,0,.62-.06.91-.36.56-.39.85.34.63.32.93.16.58.17.88c0,.12-.1.13-.1.25,0,.3.05.59.08.88s-.19.63-.13.92.34.54.42.82.37.49.46.77.22.53.34.8.11.58.25.84.54.34.7.59.16.58.34.81-.02.78.18,1,.47.39.68.6.67.13.9.32.39.45.63.62.03.44.29.6c-.23.18-.34.04-.56.24s0,.85-.2,1.07-.9.01-1.08.24-.39.49-.56.73-.19.61-.34.87-.26.55-.39.82.29.77.19,1.04-.84.33-.93.61.36.71.29,1-.64.49-.68.78.12.62.1.92-.36.6-.35.9.89.54.92.84c.01.16-.15.17-.14.33.03.3.1.57.15.85s.13.56.2.84-.04.61.06.89-.1.67.02.95.09.64.22.9.24.58.4.83.91.1,1.09.34.02.74.21.96.42.43.63.64.79,0,1.02.19.29.55.53.72.22.75.47.9.27.08.53.22c-.22.2-.19.2-.39.41s-.61.28-.8.51-.36.51-.53.75.21.85.06,1.11-.41.44-.54.7-.57.4-.68.67-.14.59-.24.87.22.67.15.96.06.59.01.88-.14.55-.16.84-.87.56-.87.86.08.62.1.92,0,.63.04.92c.03.17.17.15.2.31.05.3.38.55.44.84s.09.6.18.88-.03.67.09.94.28.56.41.82.86.2,1.02.46.03.68.21.92.59.28.78.51.28.53.49.74.53.27.76.47.35.48.59.65.57.19.82.35.41.43.68.57.86.36,1.13.48c-.21.21-.62.69-.82.91s-.25.53-.43.77-.7.23-.86.48-.3.52-.44.78-.54.42-.66.7-.32.55-.42.83.02.65-.06.94.04.63-.01.92.17.62.14.91-.24.58-.24.88-.29.61-.27.91.54.54.59.84.24.54.3.83c.02.1-.05.12-.03.22.07.29-.56.77-.47,1.05s.81.35.92.62-.21.74-.08,1.01.14.63.29.88.82.19.99.43.23.56.42.78.06.76.26.97.78.06,1,.26.67.09.9.26.07.91.32,1.07.73-.07.99.07.33.66.6.78.4.09.68.19c-.2.22-.19.37-.37.61s-.44.43-.6.68.15.77,0,1.03-.79.27-.91.55.15.7.05.98-.37.5-.44.79-.03.6-.08.89.03.59,0,.89-.65.56-.66.86.27.61.29.91.3.57.34.86-.18.63-.12.93.68.43.77.71c.03.09-.42.22-.4.31.08.29.16.58.26.86s.65.36.77.62-.11.71.03.97.22.57.39.81.09.7.27.93.67.23.87.45.36.49.58.69.75.02.98.21.48.31.72.47.34.55.6.69.54.23.81.36.38.64.66.74.59-.04.88.04c-.18.23-.27.46-.43.7s-.54.37-.68.63.3.8.17,1.07-1.01.23-1.12.5.23.71.15,1-.51.5-.57.79.55.69.51.98.07.57.05.86-.44.57-.43.87-.29.63-.26.92-.04.63.01.92.28.57.36.86.38.51.48.79c.06.17-.24.28-.18.45.1.28.77.34.89.6s.46.41.6.67-.22.82-.06,1.06.64.27.82.5.49.33.69.55-.01.83.2,1.04.57.26.8.45.72,0,.96.17.39.44.64.59.61.05.88.18.26.85.54.96.77-.45,1.05-.36.3.69.59.75c-.16.25-.37.35-.52.61s-.1.62-.23.89-.22.55-.33.82.19.67.11.95-.59.45-.65.74.11.61.07.9-.75.54-.77.83.35.62.36.91-.17.62-.14.91.51.53.56.82-.11.63-.04.91-.03.64.07.92.66.38.78.65c.06.14.36,0,.43.15.12.27.22.51.36.77s.2.53.36.78-.23.88-.05,1.11.74.16.94.38.54.27.76.47.1.76.32.95.58.21.83.38.6.13.85.29.56.15.82.28.41.46.69.57.39.65.68.74.57.22.86.28.87-.24,1.16-.2c-.15.26-.25.76-.38,1.03s-.35.47-.46.75-.09.58-.18.86-.04.57-.11.86-.61.48-.66.77.17.61.15.91-.41.59-.4.88.34.58.37.88.39.52.44.82-.31.65-.23.94-.12.67-.03.95.9.28,1.02.56-.06.66.08.92c.06.11-.31.3-.25.41.14.27.28.55.43.8s.54.37.71.61.2.61.4.84.78.09.99.3.15.71.37.9.85-.15,1.09.03.28.61.53.76.53.23.8.37.29.8.56.91.82-.51,1.1-.41.47.42.76.49.55.24.84.28.66.06.96.09c-.13.27-.44.54-.55.82s-.45.49-.54.77-.06.62-.13.91.61.71.57,1.01-.41.53-.43.82-.61.58-.6.88.14.62.16.91.6.53.65.82-.18.63-.11.92.16.57.26.86.31.52.42.79.59.35.73.62.18.54.33.8c.05.08-.37.34-.32.42.15.26.08.68.26.92s.64.28.83.5.52.33.72.54.04.84.27,1.03.48.41.71.58.5.38.75.54.59.23.85.37.56.26.83.38.73-.22,1.01-.12.58.06.87.13.45.74.74.79.68-.61.98-.58.21.66.51.67c-.11.27.1.33.01.61s.26.68.19.97-.25.53-.3.82-.66.51-.69.81.64.62.64.92-.39.59-.37.89.52.52.56.82-.58.7-.51.99.54.47.63.75.26.52.37.79.05.61.19.88.23.54.38.8.59.3.76.55c.06.08-.48.45-.42.53.17.25.34.51.53.74s.44.43.65.65.35.52.57.72.51.36.74.54.48.4.72.56.89-.33,1.15-.19.43.42.7.54.55.17.83.27.38.75.67.83.57.28.86.34.64-.14.94-.11.59.31.89.32.88-.59,1.17-.6c-.1.28-.12.86-.19,1.14s-.54.48-.6.78.16.62.13.92-.48.57-.48.87-.09.62-.07.92.71.53.75.83-.15.62-.09.91.49.47.58.76-.51.8-.4,1.08.83.28.96.56-.39.88-.24,1.14.42.47.59.72.87.08,1.06.32c.04.04-.21.24-.17.29.19.24-.08.88.12,1.09s1.05-.2,1.26,0,.23.61.47.8.52.28.76.45.64.05.9.2.2.89.47,1.02.54.31.81.41.65-.04.94.04.67-.31.96-.25.5.5.79.54.58.18.88.2.61.32.9.32.49-.31.79-.34c-.08.28.07.52.01.81s-.67.5-.7.8.37.64.35.93-.08.59-.07.89.1.59.13.88.22.56.27.85-.38.7-.3.99.84.35.94.63-.19.7-.06.97.05.65.19.91.64.32.8.57-.03.75.15.99.82.09,1.02.31c.13.15-.38.61-.25.75.2.22.79.08,1.01.28s.31.56.54.74.35.56.59.73.56.27.82.42.61.16.87.28.73-.22,1.01-.11.31.95.59,1.03.62.11.9.17.64-.13.94-.09.61-.13.91-.12.59.22.89.21.6-.03.9-.06.89-.52,1.18-.57c-.06.29-.77.84-.81,1.14s.13.63.12.93.62.59.63.89-.6.62-.56.92.04.61.1.9.56.48.63.77-.53.79-.44,1.07.27.56.39.84.99.18,1.13.44.27.49.43.74-.29.92-.11,1.15.55.33.75.56.8.04,1.01.24c.07.07.06.09.13.16.21.21.22.61.45.8s.2.72.44.89.55.27.81.43.41.54.68.67.86-.45,1.14-.34.41.58.69.67.49.54.78.61.67-.24.97-.2.58.24.88.26.61-.27.91-.27.6.19.9.17.56-.28.86-.33.76-.16,1.05-.23c-.04.3.15.79.13,1.08s.04.57.04.86-.85.64-.82.94.95.48,1,.77-.07.59,0,.88-.13.65-.04.93.59.4.71.67.2.53.33.8-.42.93-.27,1.18,1.02.03,1.2.27-.09.82.1,1.05.67.19.88.4.14.73.37.93c.06.05.02.09.08.14.23.2.72.06.96.24s.54.24.8.4.54.22.8.35.52.23.79.35.49.33.77.43.57.12.85.19.57.07.86.12.56.1.86.13.57.13.87.13.56-.28.86-.3.67.77.97.73.5-.62.79-.68.61.07.89-.01c-.02.29-.43.57-.43.86s.5.59.52.88.03.59.07.88.33.52.4.81-.5.75-.42,1.04.2.59.31.86.48.45.62.72.14.61.29.87.82.17.99.41.15.6.34.83.2.62.4.83.29.58.51.78.55.29.79.47c.14.11.31-.12.46-.01.24.18.39.48.64.64s.71-.06.97.08.53.2.8.31.27.95.55,1.04.64,0,.93.07.6.08.89.13.58.21.88.24.61-.16.91-.16.61.34.91.32.59-.29.88-.33.49-.56.78-.63.65.22.93.13.71-.36.98-.47c0,.3.18.77.2,1.07s-.15.6-.11.89.42.51.48.8-.16.63-.07.92-.14.68-.03.96.61.38.74.65.19.56.34.81.4.43.57.67-.11.83.08,1.06.78.11.98.33.34.48.56.68.18.72.42.9.69.07.94.24c.09.06-.17.45-.08.51.25.17.6.22.86.36s.77-.2,1.04-.08.43.5.71.6.53.34.81.42.54.4.83.46.66-.2.95-.17.62-.53.92-.52.6.92.89.91.61-.24.9-.28.63.05.93-.01.46-.68.75-.76.53-.23.81-.33.57.13.84,0c.01.29.4.44.44.73s.04.57.1.86.2.54.28.82.11.56.21.84.39.45.51.71-.56.95-.42,1.2.91.14,1.07.39.38.42.56.66.1.67.3.89.14.71.35.92.89-.12,1.12.07.28.59.53.76.35.57.61.72c.16.09.09.21.25.3.26.15.94-.53,1.21-.4s.44.42.71.53.58.07.86.15.53.2.82.26.48.7.78.74.63-.42.93-.41.59.39.88.38.55-.5.85-.54.54-.21.83-.27.68.39.96.31.57-.16.85-.26.59-.14.86-.26.69-.73.95-.87c.03.29-.15.97-.1,1.26s-.27.69-.19.97.57.46.67.74-.19.73-.07,1,.45.47.59.73.84.18,1,.43.11.62.29.86.55.28.75.5,0,.8.22,1.01.85-.08,1.08.1.23.64.47.81.35.54.61.69.64.06.9.19c.15.08.3-.23.45-.15.27.13.17,1.1.45,1.2s.64.05.93.13.56.34.84.4.7-.45.99-.41.55.58.84.6.62-.05.92-.06.57-.54.86-.57.67.5.96.45.41-.91.7-.99.74.46,1.03.37.47-.46.74-.57.56-.19.82-.33.63-.49.88-.65c.05.29-.28.88-.21,1.17s.46.49.55.77.19.56.31.83.55.38.69.64.16.56.32.81.44.39.61.63-.11.84.08,1.06.41.45.62.65.85-.06,1.07.13.29.55.53.73.47.33.73.49.59.1.86.24.45.38.73.49c.17.07.02.45.19.52.28.11.77-.42,1.05-.33s.39.8.67.87.6.11.89.15.65-.56.94-.54.56.01.85.01.61.6.9.58.59-.13.88-.17.56-.22.85-.29.59-.09.87-.18.52-.29.8-.4.55-.2.82-.34.63-.1.88-.25.48-.64.72-.82c.07.29.27.7.37.98s.1.59.21.86.06.63.2.89.12.63.28.89.33.52.51.76.8.13.99.36.31.5.52.71.27.58.5.77.23.7.47.88,1.01-.44,1.27-.28.4.44.66.58.4.53.67.65.42.63.7.72c.12.04.41-.84.53-.8.28.09.51.27.8.34s.48.54.77.59.58.25.87.27.61-.02.91-.01.57-.58.86-.6.59.17.88.13.65.24.94.18.58-.16.87-.24.64-.03.91-.14.41-.57.67-.7.66-.04.91-.19.58-.22.83-.39.31-.62.54-.81c.09.29.54.44.66.71s-.32.79-.19,1.06.21.59.37.84.49.42.66.66.51.36.71.59-.03.85.18,1.07,1.05-.23,1.27-.03,0,.94.24,1.12.45.46.7.62.86-.29,1.13-.15.38.58.65.7.5.41.78.51.64-.01.93.06c.05.01.14-.31.19-.29.29.08.56.16.85.21s.59-.11.89-.08.54.79.84.8.61-.23.91-.24.54-.49.84-.53.73.73,1.02.67.38-.93.67-1.02.54-.16.82-.27.77.31,1.04.18.27-.75.53-.9.58-.16.82-.33.52-.28.75-.46.48,0,.69-.21c.11.27.31.25.44.52s.65.3.79.56-.36.92-.19,1.16.77.16.96.39.39.41.6.63.29.52.51.72.39.44.62.62.27.66.51.82.61.17.86.31.77-.23,1.03-.11.46.35.74.45.43.55.72.63.53.38.82.44c.19.04.24-.21.44-.17.29.06.6,0,.89.04s.6-.22.89-.21.59.55.89.54.55-.55.84-.58.56-.13.85-.18.67.29.96.21.62-.04.9-.15.47-.44.74-.56.54-.25.79-.4.72.02.97-.15.54-.32.77-.5.11-.81.33-1.01.51-.33.71-.55c.13.27.19.58.33.84s.75.22.91.46-.38,1.01-.2,1.24.67.23.87.45.41.44.62.64.73.04.97.22.25.64.49.8.38.52.64.66.66,0,.93.13.44.49.72.59.48.49.77.57.63.02.92.09.63-.08.92-.04c.13.02.14-.07.27-.06.3.04.62-.41.91-.4s.56,0,.86,0,.59.29.89.26.54-.28.83-.33.73.54,1.02.47.64-.04.92-.14.45-.55.72-.67.47-.4.73-.54.35-.54.6-.7.98.37,1.22.19.04-.91.26-1.1.29-.52.5-.73.64.29.83.06c.14.26.57-.1.73.15s.47.35.65.58,0,.74.2.96.4.43.61.64.22.65.45.84.94-.28,1.19-.11.15.83.41.98.6.12.87.25.56.16.83.27.49.37.77.45.46.63.75.7.72-.63,1.02-.59.51.84.81.86c.19.01.25-.85.44-.84.3.02.57.27.86.26s.61.32.91.29.55-.41.84-.46.56-.17.84-.24.51-.28.79-.38.8.43,1.07.32.38-.61.64-.75.46-.36.71-.52.82.14,1.06-.03-.11-1.07.12-1.27.75-.03.96-.24.26-.55.45-.78.54-.63.72-.86c.16.25.2.88.38,1.12s.29.55.48.77.89-.04,1.1.17.07.79.3.98.42.44.66.62.6.17.86.33.65.01.92.15.54.18.81.29.43.5.71.59.63-.11.92-.04.52.29.82.34.56.18.86.2.58-.06.88-.06c.13,0,.13-.04.25-.04.08,0,.16-.09.24-.09.12,0,.23.41.35.41.06,0,.06.02.12.02.3,0,.58-.3.88-.33s.54-.28.84-.33.71.54.99.47.66.04.94-.05.32-.87.6-.98.5-.28.76-.41.81.24,1.06.09.6-.21.85-.38.21-.73.43-.92.28-.55.5-.76.31-.49.5-.71.99.04,1.17-.2.04-.8.2-1.05c.17.24.03.85.22,1.07s.64.24.85.45.83-.05,1.06.14.08.82.32,1,.63.11.88.26.44.4.7.53.44.44.72.56.56.22.84.31.69-.3.98-.23.47.56.76.61.55.49.84.52.63-.56.93-.56.57-.02.87-.03c.19-.01.21.31.4.3.3-.02.58-.23.87-.27s.57-.16.86-.22.53-.26.81-.35.66.11.94,0,.63-.07.9-.2.27-.74.53-.89.59-.15.83-.32.73-.03.96-.21.07-.82.28-1.02.9.04,1.1-.18.09-.72.27-.95.48-.39.64-.64.16-.63.31-.89c.19.23.05.82.26,1.03s1.01-.19,1.23,0,.34.48.58.66.34.53.59.69.51.31.77.45.62.07.89.19.45.46.73.56.62-.03.91.05.52.39.81.44.65-.47.94-.44.54.59.84.6.57-.45.87-.46.6.29.9.25c.12-.02.17.34.29.33.3-.04.63-.01.92-.07s.6-.17.89-.26.46-.54.74-.64.62-.07.89-.19.43-.46.69-.61.4-.46.65-.62.54-.24.77-.43.66-.15.87-.35-.05-.86.16-1.08.98.07,1.17-.17.02-.72.19-.97.82-.21.97-.47-.11-.76.02-1.03c.21.22.34.54.56.74s.54.3.77.48.29.64.54.8.68.06.94.21.49.36.76.48.43.58.71.68.62.14.91.22.62.08.92.14.67-.41.97-.38.59-.21.89-.2.57.14.87.12.67.77.97.73.53-.56.83-.62c.05-.01.1.23.15.22.3-.06.6-.14.89-.22s.56-.27.84-.37.61-.12.88-.25.3-.74.56-.88.49-.29.74-.45.53-.25.77-.43.65-.15.87-.34.31-.54.51-.76.33-.49.52-.72.41-.42.58-.67.1-.62.25-.87.19-.54.32-.8.59-.7.7-.97c.22.2.29,1.06.52,1.24s.75,0,1,.17.62.09.88.24.15,1.01.42,1.13.87-.52,1.15-.42.49.35.77.44.54.25.83.31.55.31.85.34.62-.42.92-.41.57.19.87.18.58,0,.88-.03.68.52.98.47.59-.21.88-.29c.13-.03-.07-.78.06-.82.29-.08.78.52,1.05.42s.48-.43.75-.55.39-.54.65-.68.57-.16.82-.32.35-.5.58-.68.79.04,1.01-.15,0-.84.21-1.05.73-.12.92-.35.46-.4.63-.64.12-.62.27-.88.13-.58.26-.85.53-.39.64-.67.35-.1.44-.38c.23.19.62-.49.86-.32s-.01,1.12.24,1.27.92-.47,1.19-.34.2,1.02.48,1.12.65.01.93.1.6.1.89.17.62-.08.91-.03.6-.19.9-.17.57.37.87.37.56-.43.85-.45.54-.15.84-.2.7.53.99.45.54-.3.82-.39c.12-.04.13-.02.24-.06.28-.09.48-.41.75-.53s.8.29,1.06.15.18-.9.43-1.06.42-.4.66-.57.97.26,1.19.07.48-.4.69-.61.07-.76.26-.99.61-.29.78-.53.15-.62.31-.87.49-.41.63-.68.1-.62.22-.89.54-.45.64-.73-.1-.5-.03-.79c.24.17.24.47.5.62s.71-.03.98.1.63.02.91.13.36.76.65.85.77-.56,1.06-.49.55.09.85.13.53.34.83.36.58.15.88.15.63.56.93.53.55-.58.84-.63.67.26.96.19.45-.63.73-.72.74.26,1.02.15c.07-.03-.21-.7-.13-.73.28-.11.61-.04.87-.17s.71.06.97-.09.5-.35.74-.52.23-.67.45-.86.27-.55.48-.75.58-.23.77-.45.58-.29.75-.52.12-.63.28-.88.13-.58.27-.84.36-.45.48-.72.1-.56.2-.85.99-.32,1.07-.6-.4-1.02-.35-1.31c.25.16.75.49,1.01.62s.51.3.78.42.45.5.74.59.53.41.82.48.6.22.89.27.66-.27.96-.24.6.25.9.25.58-.54.88-.56.62.21.91.17.57-.21.86-.28.5-.36.79-.46.56-.15.84-.26.72.16.99.03c.06-.03,0-.12.07-.15.27-.13.51-.31.77-.46s.36-.53.6-.7.62-.15.85-.33.49-.34.71-.55.65-.22.85-.44.03-.76.21-.99.58-.32.74-.57-.02-.7.13-.96.57-.37.7-.64-.33-.76-.23-1.04.76-.37.83-.65.5-.52.55-.81-.47-.86-.43-1.16c.26.14.83,0,1.1.11s.26.94.54,1.04.68-.16.96-.09.6-.05.89,0,.54.27.84.3.59-.15.88-.14.56-.11.86-.13.55-.07.85-.11.69.56.98.5.5-.44.79-.53.43-.51.71-.62.83.47,1.1.34.41-.51.67-.66c.11-.06.2.09.31.03.26-.15.69-.06.94-.22s-.03-1.05.2-1.24.69-.09.9-.29.77-.09.97-.31.18-.65.36-.89.03-.71.19-.95.96-.11,1.11-.37-.4-.88-.28-1.15.79-.31.89-.59-.01-.64.07-.93.36-.53.42-.82-.03-.62.01-.92.14-.24.16-.54c.27.12.29-.08.57.02s.64-.07.92,0,.47.56.76.62.67-.55.97-.52.55.07.85.08.58.8.88.79.61-.09.9-.12.56-.32.85-.38.61,0,.9-.08.57-.19.85-.29.4-.57.67-.69.73.16,1,.02.25-.73.5-.89c.14-.09.3.17.44.08.25-.16.33-.55.56-.73s.73-.04.95-.24.51-.36.71-.57-.09-.86.09-1.09.96-.02,1.13-.27-.09-.77.06-1.02.58-.36.71-.63-.21-.73-.1-1.01.41-.47.5-.75.19-.56.26-.85.53-.52.57-.81-.61-.66-.59-.96.32-.6.31-.89c.28.1.47.6.76.68s.67-.17.96-.11.58.15.88.18.6.11.89.13.6-.2.9-.21.55-.39.85-.42.67.57.97.52.59-.14.88-.21.52-.37.8-.47.75.22,1.02.1.25-.85.52-1,.75.1,1-.07.44-.51.67-.69c.05-.17-.17-.31-.1-.36Z"/>
  </g>
</svg>