<?xml version="1.0" encoding="UTF-8"?>
<svg id="Layer_2" data-name="Layer 2" xmlns="http://www.w3.org/2000/svg" viewBox="0 0 645.12 956.85">
  <defs>
    <style>
      .cls-1 {
        fill: #fcf5e5;
      }
    </style>
  </defs>
  <g id="Layer_1-2" data-name="Layer 1">
    <path class="cls-1" d="M644.92,14.94c0-.08-.12-.08-.12-.16,0-.3-.3-.59-.31-.89s.16-.61.13-.91.02-.61-.03-.91-.72-.47-.78-.76.62-.76.55-1.05-.88-.36-.97-.64.41-.78.3-1.06-.74-.33-.87-.6.29-.81.15-1.07-.59-.36-.74-.61-.47-.4-.64-.64-.42-.41-.61-.64-.14-.66-.34-.88-.33-.52-.54-.73-.71-.08-.94-.27-.23-.68-.47-.85-.72.04-.98-.11-.18-.95-.45-1.08-.65-.05-.93-.15-.62-.05-.91-.13-.51-.51-.81-.56-.66.33-.96.3-.59-.36-.89-.36c-.06,0-.06.18-.13.18-.3,0-.62-.17-.91-.15s-.57.3-.86.36-.62-.01-.9.06-.42.61-.7.71-.83-.45-1.09-.32-.46.44-.72.59-.5.34-.74.5-.53.3-.76.48,0,.89-.22,1.09-.86-.06-1.07.16-.57.31-.76.53.09.82-.09,1.06-.52.35-.68.6-.25.39-.39.65c-.14-.26-.27-.38-.43-.63s-.26-.54-.43-.77-.51-.35-.69-.57-.11-.7-.31-.91-.53-.32-.74-.52-.66-.13-.89-.31-.56-.19-.8-.35-.28-.64-.53-.78-.35-.63-.62-.75-.82.44-1.09.34-.31-.97-.6-1.05-.78.81-1.07.76-.51-.42-.8-.44-.57-.27-.86-.27c-.13,0-.13-.04-.26-.04-.3,0-.57.32-.86.35s-.53.25-.82.3-.75-.66-1.03-.58-.44.62-.71.72-.59.09-.86.22-.4.48-.66.63-.74-.08-.98.09-.52.32-.75.5-.19.69-.41.89-.57.25-.77.46-.71.17-.9.4.07.81-.11,1.05-.03.67-.19.91-.68-.17-.82.09c-.14-.26.11-.34-.04-.59s-1.07.02-1.24-.22.07-.79-.12-1.01-.78-.08-.98-.29.12-.97-.09-1.16-.39-.49-.62-.67-.81.09-1.05-.07-.19-.83-.45-.97-.61-.17-.87-.3-.68.09-.96-.01-.68.27-.96.19-.37-1.04-.66-1.09-.68.59-.97.57-.56-.5-.86-.5c-.13,0-.13-.22-.26-.22-.3,0-.61.23-.9.25s-.56.31-.85.36-.51.34-.8.42-.67-.18-.94-.08-.37.61-.64.73-.76-.22-1.02-.07-.24.72-.48.88-.46.32-.69.5-.9-.16-1.12.04.07.91-.13,1.12-.55.27-.74.5-.57.3-.75.53-.03.68-.19.93-.49.77-.63,1.03c-.14-.26-.1-1.02-.26-1.27s-.3-.53-.47-.76-.51-.37-.69-.59-.54-.31-.74-.52-.44-.38-.65-.57-.36-.48-.58-.66-.61-.15-.85-.31-.55-.17-.81-.31-.34-.57-.61-.69-.42-.52-.7-.62-.74.45-1.03.38-.37-1.03-.66-1.08-.69.76-.99.74-.55-.27-.84-.27c-.13,0-.13-.6-.26-.6-.3,0-.56.75-.85.78s-.66-.51-.94-.46-.45.66-.73.74-.52.21-.79.31-.83-.47-1.09-.34-.38.57-.64.71-.74-.05-.98.11-.52.34-.75.52.08,1-.14,1.2-.74.07-.94.28-.52.34-.71.56.17.87,0,1.11-.58.29-.74.54-.42.43-.56.69c-.14-.26-.46-.41-.61-.65s-.56-.3-.73-.54.35-1.01.16-1.24-.78-.11-.98-.32-.23-.61-.45-.8-.5-.33-.73-.51-.61-.15-.85-.31-.27-.69-.52-.83-.53-.29-.8-.41-.81.45-1.08.35-.45-.42-.73-.49-.48-.53-.77-.58-.58-.18-.88-.21-.61.5-.9.5c-.13,0-.13.14-.26.14-.3,0-.62-.71-.91-.68s-.57.28-.86.33-.57.16-.85.23-.39.66-.66.76-.67-.15-.94-.03-.73-.12-.99.02-.38.53-.63.69-.55.25-.79.43-.41.43-.63.63-.66.19-.86.4-.23.61-.42.83.03.76-.14,1-.23.52-.39.77-.67.71-.82.96c-.14-.26-.6-.76-.76-1s-.04-.67-.22-.9-.52-.33-.71-.55-.49-.33-.69-.54-.38-.41-.6-.61.05-.97-.18-1.15-.6-.21-.84-.37-.81.22-1.07.08-.41-.42-.68-.54-.28-.88-.55-.98-.76.45-1.05.37-.56-.07-.85-.12-.49-.72-.79-.75-.61.38-.91.38c-.13,0-.13-.34-.26-.34-.3,0-.57.52-.86.54s-.65-.43-.94-.38-.43.75-.71.83-.52.18-.79.28-.56.1-.82.22-.83-.34-1.09-.19-.5.35-.75.51-.62.19-.85.37-.19.71-.41.91-.59.25-.8.46,0,.79-.19,1.01-.29.49-.47.73-.42.4-.58.65-.49.14-.64.4c-.14-.26-.18-.34-.34-.59s-.82-.14-.99-.37.08-.79-.11-1.02-.7-.15-.9-.36.18-1.03-.04-1.22-.91.15-1.14-.03-.12-.84-.37-1-.85.26-1.11.12-.39-.49-.65-.62-.37-.68-.65-.78-.58-.24-.86-.32-.66.16-.95.11-.59-.09-.88-.11-.6.42-.89.42c-.13,0-.13-.29-.26-.29-.3,0-.55.38-.84.4s-.56.01-.85.06-.64-.22-.92-.15-.51.3-.79.4-.58.1-.85.23-.36.55-.62.69-.79-.18-1.03-.02-.33.55-.56.73-.8-.02-1.02.18.05.9-.15,1.11-.75.11-.94.34-.26.55-.44.79,0,.7-.15.95-.57.67-.71.93c-.14-.26-.49-.73-.65-.97s.11-.79-.06-1.03-.4-.46-.58-.68-.84-.03-1.04-.25.08-.93-.13-1.12-.79.02-1.02-.16-.18-.75-.43-.92-.54-.29-.79-.43-.57-.21-.84-.33-.58-.16-.86-.26-.7.34-.99.27-.39-.9-.68-.95-.65.4-.94.37-.57-.64-.86-.64c-.13,0-.13.28-.26.28-.3,0-.57.35-.86.38s-.59-.04-.87,0-.59.03-.87.11-.61.05-.88.15-.34.69-.6.81-.84-.37-1.1-.23-.61.18-.85.35.07,1.09-.16,1.27-.92-.19-1.14,0,.06.89-.14,1.11-1.04-.15-1.23.08.08.82-.09,1.05-.15.59-.31.84-.62-.13-.77.13c-.14-.26,0-.26-.17-.51s-.24-.58-.41-.82-.79-.14-.98-.37-.32-.5-.52-.71-.5-.33-.71-.52-.31-.54-.54-.72-.69-.04-.93-.21-.12-.93-.38-1.07-.54-.32-.8-.44-.68.04-.95-.06-.47-.55-.75-.62-.78.81-1.07.76-.51-.37-.81-.39-.57-.43-.86-.43c-.13,0-.13.6-.26.6-.3,0-.56-.03-.85,0s-.55.09-.83.14-.7-.49-.99-.42-.35.81-.63.91-.59.03-.85.16-.49.27-.75.42-.56.18-.8.34-.67.07-.91.25-.35.49-.57.69-.4.43-.6.64-.59.27-.78.49-.44.42-.61.66-.48.41-.64.66.08,1.02-.07,1.28c-.14-.26-.17-.87-.33-1.11s-.15-.63-.32-.87-.47-.4-.66-.63-.41-.44-.61-.65-.24-.63-.46-.82-.87.09-1.09-.09-.14-.83-.38-.99-.96.44-1.21.3-.38-.49-.64-.61-.57-.1-.84-.2-.43-.54-.71-.62-.55-.28-.84-.33-.58-.21-.87-.24-.61.52-.9.52c-.13,0-.13-.12-.26-.12-.3,0-.56.2-.85.23s-.6-.18-.88-.13-.51.31-.8.39-.66-.18-.93-.08-.43.48-.69.61-.46.34-.71.48-.61.09-.86.25-.5.3-.73.48-.58.22-.8.42-.27.56-.48.77-.16.62-.34.85-.6.25-.77.49-.76.2-.92.45.05.6-.1.86c-.14-.26-.3-.38-.46-.63s-.19-.59-.36-.82-.86-.06-1.04-.29.13-.89-.07-1.1-.33-.53-.54-.73-.76-.02-.99-.2-.5-.29-.74-.45-.2-.81-.45-.96-.65-.06-.91-.18-.75.31-1.02.21-.31-.95-.59-1.03-.72.53-1.01.48-.55-.1-.84-.12-.55-.85-.85-.85c-.13,0-.13.67-.26.67-.3,0-.56.13-.85.16s-.58-.08-.87-.03-.52.27-.8.34-.61-.06-.89.04-.64,0-.9.12-.66.03-.92.18-.43.46-.68.62-.49.35-.72.53-.57.26-.79.46.08.92-.13,1.13-.46.35-.65.57-.89.05-1.07.29.21.86.05,1.11-.52.35-.66.61c-.14-.26-.48-.38-.64-.63s.19-.85.02-1.09-.7-.21-.89-.44-.46-.37-.67-.58-.05-.8-.27-1-.96.23-1.19.05-.17-.75-.41-.91-.68,0-.93-.15-.21-.9-.47-1.02-.82.44-1.09.34-.34-.89-.62-.96-.72.52-1.01.47-.5-.66-.8-.69-.61-.2-.91-.2c-.13,0-.13.3-.26.3-.3,0-.57.42-.86.45s-.61-.19-.9-.14-.51.36-.79.43-.6,0-.88.1-.58.14-.84.26-.49.33-.75.47-.44.38-.69.55-.29.55-.52.74-.92-.19-1.13.01-.42.43-.63.64-.15.66-.34.89-.49.36-.66.6-.3.51-.46.75-.29.59-.43.85c-.14-.26-.47-.48-.63-.72s-.18-.58-.35-.82-.06-.71-.25-.93-.38-.48-.58-.69-.57-.28-.79-.48-.38-.49-.61-.67-.74,0-.98-.16-.21-.79-.47-.93-.78.22-1.05.1-.43-.48-.71-.58-.7.34-.99.26-.44-.61-.73-.66-.57-.2-.86-.23-.59.42-.89.42c-.13,0-.13-.38-.26-.38-.3,0-.61-.15-.9-.12s-.6.06-.89.11-.56.25-.84.32-.48.41-.76.51-.56.15-.83.27-.61.1-.86.24-.7.02-.94.19-.18.77-.41.95-.61.18-.83.38-.28.55-.48.77-.52.32-.71.55-.16.61-.33.85-.71.22-.87.47-.08.25-.22.51c-.14-.26-.17-.2-.33-.44s-.82-.14-.99-.38-.28-.49-.47-.72-.4-.4-.6-.61.15-.99-.07-1.19-.46-.41-.69-.59-.48-.38-.73-.55-.48-.41-.73-.55-.65-.08-.92-.2-.6-.13-.87-.23-.65.12-.93.05-.49-.51-.77-.56-.63.36-.93.33-.56,0-.85,0c-.13,0-.13-.08-.26-.08-.3,0-.59-.19-.88-.17s-.57.14-.86.19-.54.22-.82.3-.68-.2-.95-.1-.47.41-.74.53-.71-.08-.97.07-.1.95-.34,1.11-.9-.26-1.14-.08-.48.37-.7.57-.32.53-.52.75-.53.33-.72.56-.23.58-.4.82.06.74-.1.99-.61.47-.75.73c-.14-.26-.04-.85-.19-1.09s-.32-.52-.5-.75-.8-.13-.98-.35-.42-.39-.62-.6-.16-.67-.37-.86-.19-.72-.42-.9-.67-.12-.91-.29-.57-.21-.82-.36-.64-.02-.91-.14-.6,0-.87-.11-.46-.4-.74-.48-.55-.14-.84-.19-.51-.64-.8-.67-.61.49-.91.49c-.13,0-.13.05-.26.05-.3,0-.56.02-.85.04s-.58-.07-.87-.02-.52.28-.8.35-.51.23-.79.33-.5.25-.76.37-.69-.11-.95.04-.27.64-.51.81-.81-.14-1.04.04-.42.42-.63.62-.04.78-.24.99-1.04-.15-1.22.08.19.89.01,1.13-.54.33-.69.58-.37.89-.51,1.15c-.14-.26-.03-1.11-.18-1.36s-.89-.1-1.06-.34.05-.78-.14-1-.57-.28-.78-.49-.03-.82-.25-1.02-.89.14-1.12-.04-.54-.21-.78-.38-.36-.49-.61-.63-.57-.13-.84-.25-.35-.66-.63-.76-.53-.31-.82-.39-.64.13-.93.08-.53-.54-.83-.57-.62.4-.91.4c-.13,0-.13-.52-.26-.52-.3,0-.62.16-.91.19s-.55.45-.83.5-.49.43-.77.5-.67-.23-.95-.13-.38.57-.65.7-.59.09-.84.24-.64.07-.88.23-.35.51-.58.69-.52.28-.74.48-.6.24-.8.45-.47.39-.66.62.14.85-.03,1.09-.71.22-.86.47-.21.26-.36.52c-.14-.26-.32-.19-.48-.44s-.09-.66-.26-.9-.38-.47-.56-.7-.89.02-1.1-.19-.37-.42-.59-.61-.43-.36-.66-.54-.46-.31-.7-.47-.42-.38-.67-.53-.48-.29-.75-.41-.27-.88-.55-.98-.59-.18-.87-.26-.71.47-1,.42-.53-.37-.82-.4-.58-.49-.88-.49c-.13,0-.13.15-.26.15-.3,0-.56.63-.85.65s-.57.01-.85.06-.57.05-.85.12-.78-.48-1.06-.38-.55.29-.82.42-.43.49-.69.64-.34.56-.59.73-.84-.14-1.07.04-.27.62-.49.82-.32.51-.53.72-.21.59-.4.81-.23.54-.4.78-.27.49-.43.74-.72.1-.86.36c-.14-.26-.53-.22-.68-.47s-.44-.38-.61-.62.1-.82-.08-1.04-.81-.05-1.02-.26.16-1-.06-1.19-.5-.35-.73-.53-.56-.26-.8-.42-.43-.45-.69-.59-.71.08-.98-.04-.46-.42-.74-.52-.62.03-.91-.05-.46-.67-.75-.72-.62.03-.92,0-.61.68-.9.68c-.13,0-.13-.17-.26-.17-.3,0-.55.22-.84.25s-.69-.78-.98-.73-.5.54-.78.61-.55.19-.83.29-.66-.04-.92.08-.32.66-.57.81-.81-.2-1.06-.03-.1.86-.33,1.05-.4.4-.62.6-.33.46-.53.67-.36.42-.55.64-.42.37-.6.61-.26.5-.42.75-.71.45-.85.71c-.14-.26-.45-.62-.61-.86s0-.72-.16-.95-.25-.58-.44-.8-.62-.26-.82-.47-.48-.36-.69-.55-.44-.39-.66-.57-.23-.71-.47-.88-.64-.13-.89-.27-.6-.13-.87-.25-.57-.16-.84-.26-.61.03-.89-.05-.47-.55-.76-.6-.58-.21-.87-.23-.6.11-.9.11c-.13,0-.13-.39-.26-.39-.3,0-.62.14-.91.17s-.51.69-.79.74-.69-.39-.97-.32-.66-.05-.94.05-.36.71-.63.83-.51.29-.76.43-.38.48-.62.64-.75-.05-.98.13-.45.39-.67.59-.23.6-.43.82-.34.46-.53.69-.91.04-1.09.28.35.95.19,1.2-.59.4-.74.66c-.14-.26-.19-.66-.35-.9s-.04-.71-.21-.95-.45-.43-.64-.65-.6-.28-.8-.49-.77-.04-.98-.24-.27-.56-.5-.74-.52-.26-.76-.42-.2-.79-.46-.93-.71.08-.97-.04-.44-.47-.71-.57-.51-.41-.79-.49-.66.2-.95.15-.57-.18-.86-.21-.59.32-.89.32c-.13,0-.13-.72-.26-.72-.3,0-.63,0-.92.02s-.58.33-.87.38-.54.33-.82.4-.67-.12-.94-.02-.62.11-.89.23-.47.43-.73.57-.25.71-.5.87-.81-.12-1.05.06-.29.58-.51.78-.04.78-.24.99-.73.11-.92.33.01.73-.16.97-1.05-.01-1.21.23.01.44-.13.7c-.14-.26-.05-.4-.21-.65s-.48-.4-.65-.63-.73-.16-.92-.39-.38-.41-.59-.62.05-.89-.17-1.08-.88.14-1.11-.04-.07-.88-.32-1.05-.44-.45-.69-.59-.51-.38-.77-.5-.75.24-1.03.14-.48-.46-.76-.53-.66.28-.95.22-.56-.13-.85-.15-.57-.46-.86-.46c-.13,0-.13.02-.26.02-.3,0-.62-.12-.91-.1s-.46.94-.75.99-.75-.69-1.03-.62-.53.33-.81.43-.53.29-.79.41-.3.68-.55.82-.43.36-.67.52-.48.27-.72.45-.84-.1-1.06.1-.54.31-.74.52-.04.76-.23.98-.53.32-.7.56-.19.57-.35.82-.41.83-.55,1.09c-.14-.26-.24-.94-.4-1.19s-.78-.17-.95-.4.05-.77-.14-.99-.66-.18-.86-.39-.23-.59-.44-.78-.12-.79-.35-.97-.77.05-1.02-.11-.52-.26-.77-.4-.37-.57-.63-.69-.51-.36-.78-.46-.71.31-1,.23-.45-.66-.74-.71-.61-.01-.9-.04-.6-.29-.9-.29c-.13,0-.13.7-.26.7-.3,0-.62-.54-.91-.51s-.56.37-.85.42-.59.06-.88.13-.55.22-.82.32-.61.06-.88.19-.65.07-.91.21-.03,1.05-.28,1.22-.49.26-.72.44-.45.33-.67.53-.81,0-1.01.21-.63.25-.82.48-.02.74-.19.98-.56.34-.72.58-.09.54-.23.8c-.14-.26.09-.66-.07-.9s-.51-.39-.68-.63-.87-.06-1.05-.29-.24-.54-.44-.76-.07-.77-.29-.96-.31-.58-.54-.76-.63-.19-.87-.35-.5-.34-.76-.48-.7.06-.96-.06-.54-.19-.82-.29-.56-.13-.84-.21-.57,0-.86-.06-.54-.15-.84-.18-.56-.74-.85-.74c-.13,0-.13-.01-.26-.01-.3,0-.61.24-.9.27s-.64-.15-.93-.1-.42.83-.71.9-.61-.04-.89.06-.74-.23-1.01-.11-.42.5-.68.65-.23.73-.47.89-.7,0-.93.19-.13.73-.34.93-.42.36-.62.57-1.09-.19-1.28.04.11.85-.06,1.08-.55.33-.7.58-.21.86-.35,1.12c-.14-.26-.2-.87-.36-1.11s-.63-.27-.8-.51-.23-.55-.42-.77-.56-.27-.76-.48-.12-.7-.33-.9-.42-.42-.65-.6-.37-.52-.61-.68-.68-.03-.93-.18-.67.06-.93-.07-.37-.59-.64-.69-.61.04-.9-.03-.58.06-.87,0-.48-.78-.77-.81-.6-.1-.9-.1c-.13,0-.13.01-.26.01-.3,0-.62-.04-.91-.02s-.47.88-.76.93-.69-.48-.97-.4-.48.41-.76.51-.78-.33-1.05-.21-.11,1.07-.36,1.22-.49.26-.73.42-.69,0-.92.19-.77.02-.99.21-.39.48-.59.69-.45.42-.64.64.08.82-.09,1.05-.66.26-.82.51-.14.99-.28,1.25c-.14-.26-.41-.82-.57-1.07s-.24-.54-.41-.78-.11-.67-.3-.89-.32-.53-.52-.74-.69-.16-.9-.35-.3-.56-.53-.74-.7-.04-.94-.2-.56-.18-.81-.33-.43-.4-.7-.52-.47-.39-.74-.49-.49-.42-.78-.5-.69.45-.98.4-.54-.12-.84-.15-.56-.33-.85-.33c-.13,0-.13.3-.26.3-.3,0-.57-.16-.86-.13s-.62-.2-.9-.15-.55.24-.83.32-.66-.1-.93,0-.3.8-.56.93-.5.23-.76.38-.84-.25-1.08-.09-.12.82-.35,1.01-.76,0-.97.2-.19.64-.4.85-.48.34-.67.57-.67.23-.84.47.1.78-.06,1.03-.49.62-.63.88c-.14-.26-.67-.52-.82-.76s.19-.83.02-1.07-.73-.17-.92-.39-.41-.39-.61-.6-.16-.66-.38-.85-.14-.77-.37-.95-.68-.1-.92-.26-.37-.56-.63-.7-.57-.24-.84-.36-.65-.02-.92-.12-.72.37-1,.3-.42-.76-.71-.81-.6.04-.9.01-.59-.19-.88-.19c-.13,0-.13.66-.26.66-.3,0-.62-.85-.91-.83s-.54.54-.82.59-.71-.4-.99-.32-.58.22-.86.32-.24.96-.5,1.08-.9-.48-1.16-.33-.29.68-.53.84-.38.46-.61.64-.82-.05-1.03.15-.03.81-.23,1.03-.59.25-.78.48-.62.27-.8.51.15.82-.01,1.07-.49.07-.63.33c-.14-.26.11-.46-.05-.7s-.72-.24-.89-.47-.62-.25-.81-.47.09-.87-.11-1.08-.58-.26-.8-.46-.2-.7-.43-.88-.82.11-1.07-.05-.31-.63-.56-.77-.65-.05-.91-.17-.45-.47-.72-.57-.52-.39-.81-.46-.73.53-1.01.48-.5-.75-.79-.77-.62.44-.91.44c-.13,0-.13-.1-.26-.1-.3,0-.61-.19-.9-.17s-.59.15-.88.2-.43.7-.71.78-.76-.48-1.03-.38-.34.69-.61.81-.59.1-.84.24-.35.51-.6.67-.51.25-.74.43-.62.15-.84.35-.67.16-.87.38.09.86-.1,1.09-.51.33-.68.56-.47.38-.63.63-.29.02-.44.28c-.14-.26-.24-.06-.4-.31s-.21-.58-.38-.82-.71-.19-.9-.42-.23-.57-.43-.78-.68-.12-.9-.31-.3-.52-.53-.7-.44-.36-.69-.52-.22-.76-.48-.91-.83.34-1.09.21-.44-.41-.71-.51-.37-.8-.66-.88-.73.53-1.02.48-.54-.24-.84-.26-.57.28-.87.28c-.13,0-.13-.46-.26-.46-.3,0-.63-.38-.92-.36s-.58.34-.86.39-.53.36-.81.43-.62-.02-.9.08-.43.49-.7.61-.82-.3-1.08-.15-.47.41-.71.58-.09.87-.32,1.05-.5.28-.72.48-.69.13-.89.34-.26.55-.45.78-.19.58-.37.82-.9.1-1.06.34.06.57-.09.82c-.14-.26-.59-.16-.74-.4s-.27-.5-.45-.74-.41-.39-.6-.62-.09-.69-.29-.9-.13-.73-.35-.92-.9.15-1.13-.03-.2-.71-.45-.87-.36-.58-.61-.72-.83.32-1.1.19-.46-.39-.73-.49-.51-.35-.79-.43-.64.2-.93.14-.51-.59-.81-.62-.61.16-.9.16c-.13,0-.13-.09-.26-.09-.3,0-.58.26-.87.28s-.51.46-.79.51-.71-.53-.99-.45-.47.48-.74.58-.4.49-.67.61-.7-.14-.96,0-.5.31-.74.47-.66.1-.89.28-.62.22-.83.41-.11.75-.31.96-.7.18-.89.4.06.8-.11,1.04-.17.57-.33.82-.59.77-.74,1.02c-.14-.26-.65-.73-.81-.98s-.08-.64-.25-.87-.39-.43-.58-.65.09-.88-.11-1.09-.84,0-1.05-.2-.37-.46-.6-.64-.49-.32-.73-.48-.31-.64-.56-.78-.56-.25-.82-.37-.73.24-1.01.14-.44-.54-.72-.61-.68.44-.97.39-.49-.56-.79-.58-.58.31-.88.31c-.13,0-.13.05-.26.05-.3,0-.56-.11-.85-.09s-.66-.51-.95-.46-.49.52-.78.59-.76-.41-1.04-.31-.36.72-.62.84-.66,0-.92.15-.42.45-.67.62-.62.17-.85.35-.2.68-.42.87-.32.49-.52.71-.47.35-.66.57-.76.15-.94.39.24.87.08,1.12-.61.61-.76.87c-.14-.26-.6-.62-.76-.87s-.22-.54-.39-.78-.03-.72-.21-.95-.53-.32-.73-.53-.1-.76-.32-.95-1.02.3-1.25.12-.16-.75-.4-.91-.66-.04-.91-.18-.41-.45-.68-.57-.64.08-.92-.02-.32-.94-.6-1.01-.62-.03-.91-.08-.64.33-.93.31-.57.26-.86.26c-.13,0-.13-.43-.26-.43-.3,0-.62-.36-.91-.34s-.53.56-.81.61-.52.28-.8.36-.71-.31-.98-.21-.49.36-.76.48-.49.32-.75.46-.7,0-.95.16-.13.81-.36.99-.33.47-.55.67-.99-.18-1.19.03.18.94-.01,1.17-.64.22-.82.46-.51.36-.67.61-.17.25-.31.51c-.14-.26-.1-.3-.26-.54s-.76-.19-.94-.42-.46-.36-.64-.58.32-1.08.12-1.29-.77-.08-.98-.28-.35-.51-.58-.69-.44-.42-.68-.58-.43-.46-.69-.6-.79.25-1.06.13-.35-.69-.63-.79-.72.35-1.01.28-.55-.1-.84-.15-.55-.09-.84-.11-.55-.1-.85-.1c-.06,0-.06-.53-.13-.53-.3,0-.58.48-.88.5s-.63-.23-.92-.18-.59.14-.88.22-.4.65-.68.75-.91-.62-1.18-.49-.1,1.1-.36,1.25-.87-.28-1.12-.11-.25.67-.48.86-.36.47-.58.67-.27.53-.47.75-.54.28-.73.52-.34.47-.51.71-.5.36-.66.62-.11.61-.25.87-.65.33-.77.61.17.71.06.99-.35.49-.44.78-.15.56-.23.85-.1.57-.17.87-.57.5-.62.79.45.66.42.95-.36.56-.37.86-.48.59-.48.9c0,.08.15.08.15.16,0,.3.08.6.09.89s-.17.62-.14.91.37.56.41.85-.27.66-.21.95.33.55.4.83.58.45.67.72-.03.64.07.91.69.34.81.61-.51.91-.38,1.17.91.17,1.06.41.06.66.22.9.69.2.88.43-.15.89.05,1.1.74.11.95.31.13.56.35.74c-.22.19-.37.3-.58.51s-.26.56-.46.78-.25.54-.44.77-.55.31-.72.55-.7.26-.85.51.37.89.23,1.15-.29.49-.41.76-.34.48-.45.75-.73.36-.82.65.46.75.39,1.03-.55.47-.61.75-.43.53-.48.82.23.63.2.93-.14.58-.16.88.01.6.01.89c0,.15.65.15.65.31,0,.3-.33.58-.32.87s.05.58.08.87.09.57.13.86.27.53.33.82-.19.64-.11.92.43.48.52.76.1.57.21.84.25.52.37.78-.18.74-.04,1,.61.33.76.58.39.43.56.67.14.62.32.85.07.72.27.94.96-.11,1.17.09.28.69.5.88c-.22.19-.39.58-.6.78s-.52.29-.72.51-.13.63-.31.87-.74.16-.91.4.07.73-.08.98-.38.43-.51.7-.9.21-1.03.48.41.81.31,1.09-.61.4-.7.68-.16.57-.24.86.22.65.16.94-.16.55-.2.85.2.6.17.89-.46.54-.47.83-.1.58-.1.88c0,.15-.07.15-.07.31,0,.3.58.56.59.86s-.8.65-.77.94-.06.62-.01.91.78.46.84.75-.05.61.03.89-.05.63.04.91.78.34.88.61-.19.7-.06.97.69.3.83.56,0,.66.14.91-.17.82,0,1.06.73.2.91.43.15.65.34.87.4.46.61.66.74.22.97.41c-.22.19-.77.19-.99.39s-.5.36-.7.58-.07.72-.25.95-.51.35-.68.6-.27.53-.42.78-.04.64-.18.91-.26.51-.38.78-.33.49-.43.76-.18.55-.28.83-.11.57-.19.85.12.61.06.9-.67.46-.72.75.12.61.09.9,0,.58-.02.88.28.58.28.87c0,.15-.28.15-.28.31,0,.3-.31.6-.3.89s.08.59.11.88.27.56.32.85.28.54.34.82.2.54.27.82-.54.77-.45,1.05,1,.27,1.1.54.18.53.3.8-.29.79-.15,1.04.48.41.63.66.32.49.49.73.3.51.48.74.62.23.82.44-.01.82.2,1.02.86.27,1.08.45c-.22.19-.89.23-1.1.44s-.59.27-.79.49-.12.69-.3.92-.11.64-.28.88-.8.18-.95.43.2.79.06,1.05-.29.5-.41.77-.46.44-.57.71.27.71.18.99-.79.37-.86.65,0,.61-.07.9.05.6,0,.89-.4.54-.43.83.21.61.2.9-.46.58-.46.88c0,.15.3.15.3.31,0,.3-.19.6-.17.89s.49.56.52.85.26.55.31.83-.63.71-.57,1,.03.62.11.9.48.49.57.77.15.58.25.85-.03.67.09.94.63.36.77.62.56.35.71.6.05.66.22.9.69.21.87.44.33.46.53.67.42.37.63.57-.21.72,0,.9c-.22.19-.41.06-.62.27s.14.96-.06,1.18-.45.36-.64.59-.89.08-1.06.32.39.95.24,1.2-.89.16-1.03.42.27.78.15,1.05-.59.38-.7.65-.31.52-.4.8.22.67.14.96-.09.56-.15.85-.14.55-.19.85-.52.52-.55.82.27.61.26.9-.07.58-.07.87c0,.15-.22.15-.22.31,0,.3.29.58.3.87s.1.57.13.86-.62.68-.58.97.64.49.7.78-.23.67-.16.95.46.49.55.76-.28.74-.17,1.01.84.3.96.56.28.51.41.76-.2.79-.05,1.04.39.47.56.71.95.02,1.13.25.16.6.36.82.32.49.53.7.36.5.58.69c-.22.19-.65.19-.86.4s-.54.32-.74.54-.15.66-.33.9,0,.72-.16.96-.29.48-.45.73-.87.18-1,.44-.33.51-.45.78.33.78.23,1.05-.49.44-.58.72-.15.57-.22.85.12.62.06.91-.81.45-.86.74-.02.61-.05.9.13.61.12.91-.05.59-.05.89c0,.15-.04.15-.04.31,0,.3.05.6.06.89s-.12.61-.09.91.82.49.87.78-.75.74-.69,1.02,1.06.35,1.13.64-.31.69-.22.97.3.52.4.79-.27.76-.15,1.03.79.28.92.54-.26.84-.11,1.09,1.07,0,1.24.25-.2.87-.02,1.1.85.04,1.04.26.1.7.31.91.93.4,1.15.58c-.22.19-.63.7-.84.91s-.46.33-.65.55-.47.34-.65.57-.69.22-.86.46-.53.38-.68.63-.33.51-.47.78.53.91.41,1.18-.99.22-1.1.49-.23.56-.32.84-.09.6-.16.89.5.72.44,1.01-.96.42-1.01.72.08.62.05.92.31.62.29.91-.38.58-.38.88c0,.15.57.15.57.31,0,.3-.16.58-.14.88s.08.58.11.87-.49.67-.45.95.62.49.68.78-.1.63-.02.91-.14.67-.05.95.18.59.28.86.56.42.68.69.28.53.41.78.52.38.67.63.42.41.59.65.36.44.54.67.04.72.24.94.34.5.55.7.9.28,1.13.47c-.22.19-.6.59-.81.8s-.95-.1-1.15.12-.22.61-.41.84-.06.68-.23.93-.86.15-1.01.41-.21.58-.35.84-.15.6-.27.87.23.73.13,1.01-.88.31-.97.59.69.81.61,1.1-.09.55-.15.84-.94.42-.99.71.34.64.31.93-.42.56-.44.86.1.6.1.9c0,.15.4.15.4.31,0,.3-.53.6-.51.9s.06.6.09.89-.06.62-.02.91.49.52.55.81.5.48.58.76,0,.6.1.87-.41.78-.31,1.05.2.58.32.85.69.33.83.59.14.6.29.85.85.14,1.01.38.06.66.24.89-.06.83.14,1.05.56.3.77.5.94.25,1.16.44c-.22.19-.59.6-.81.81s-.61.21-.81.43-.65.23-.84.46-.02.72-.19.97-.67.27-.82.52-.4.47-.54.73.25.78.12,1.05-.4.46-.5.74-.13.57-.22.86-.29.52-.37.81.32.67.26.96-.94.42-.99.72.66.68.63.97-.13.56-.14.86-.53.57-.53.87c0,.15.02.15.02.31,0,.3-.18.61-.17.9s.41.57.44.86-.1.61-.05.9.07.6.13.88.07.61.14.89.84.36.93.64.12.56.23.83.19.54.32.8-.37.84-.23,1.1.54.39.69.64.65.27.82.51.33.47.51.69.44.37.64.58.43.36.64.56.07.75.29.94c-.22.19-.46.33-.67.54s-.31.51-.51.73-.57.29-.75.52-.43.43-.6.67.22.83.07,1.09-.53.35-.67.61-.53.39-.65.66-.11.6-.22.87-.47.46-.56.75.17.67.1.95-.2.55-.26.84-.45.52-.5.81.33.64.3.93-.49.56-.51.85.78.6.78.9c0,.15-.52.15-.52.31,0,.3.09.59.1.88s.13.58.16.87.44.52.48.81-.44.67-.38.95.31.53.38.81.29.52.38.8-.5.81-.4,1.08.64.39.76.65.19.57.32.83.02.68.17.93.29.54.46.78.49.4.67.63.39.47.59.68.78.06.99.26-.18.57.05.76c-.22.19.08.47-.13.68s-.56.27-.76.49-.16.63-.34.86-.89.08-1.06.32.23.85.07,1.1-.81.22-.95.48.4.85.28,1.12-.44.44-.54.71-.52.44-.61.72-.26.55-.34.83-.16.58-.22.87-.25.57-.3.86.22.63.19.93.13.6.12.89-.45.58-.45.88c0,.15.6.15.6.31,0,.3.16.57.17.86s-.24.6-.21.89.43.52.47.81.04.57.1.85.07.57.14.85-.12.64-.03.91.16.57.26.84.38.47.5.74-.04.67.1.93.25.54.4.79.06.69.22.93.41.47.59.69.67.22.87.43.21.63.42.83.2.19.43.38c-.22.19.32.72.1.93s-.8.02-1,.24-.25.56-.43.79-.82.13-.99.38-.25.57-.4.82.03.7-.11.96-.63.36-.75.62.3.77.19,1.04-.75.36-.85.64-.28.55-.35.84.65.76.59,1.05-.65.47-.69.77.28.63.25.92.08.58.07.88.19.57.19.87c0,.15-.33.15-.33.31,0,.3.25.57.27.86s0,.57.03.86-.22.61-.17.9-.3.66-.24.95.05.61.12.9.39.51.48.79.33.51.43.79.45.44.57.71.22.53.36.79.11.61.26.86.47.39.64.63.12.64.3.87.76.12.95.33-.16.97.05,1.17.9.15,1.12.34c-.22.19-.58.47-.79.68s-.47.36-.66.57-.36.45-.55.68-.7.22-.87.46.05.74-.1.99-.22.54-.36.8-.75.29-.88.56.23.74.12,1.01-.2.54-.3.82.15.64.07.92-.69.43-.75.71.14.62.1.91.08.59.05.88-.46.55-.47.84-.29.59-.29.89c0,.15.59.15.59.31,0,.3-.42.6-.4.89s.05.6.08.89.31.56.36.84.32.53.38.82-.24.66-.17.94.63.42.72.7-.6.84-.5,1.11.62.39.74.66,0,.67.13.93.74.26.89.51.2.56.36.8.45.39.63.61.47.34.67.56.13.68.34.88.13.41.35.6c-.22.19-.11.43-.32.64s-.17.63-.36.85-.48.33-.66.56-.29.49-.46.73-.45.39-.6.64-.14.57-.28.84-.56.37-.68.64-.11.58-.22.86-.44.46-.53.74-.52.47-.6.76.43.71.37,1-.36.53-.4.82.34.63.31.92-.71.54-.72.83,0,.6,0,.9c0,.15.57.15.57.31,0,.3-.18.59-.16.88s-.04.59-.02.88-.35.65-.3.94.3.56.36.85-.07.64,0,.92.34.53.43.81.46.47.56.74.56.39.68.66.15.56.28.82.2.55.35.8.39.43.56.67.16.6.35.82.13.67.32.89.51.34.72.55.49.33.72.51c-.22.19-.63.18-.84.38s-.25.59-.44.81-.62.26-.8.49.1.8-.07,1.05-.14.58-.3.83-1,.1-1.14.36-.07.64-.19.9-.57.42-.67.69.3.74.21,1.02.18.65.1.94-.11.55-.17.84-.46.5-.5.79.14.6.11.89-.16.56-.17.86.13.58.13.87c0,.15-.46.15-.46.31,0,.3,0,.6,0,.89s-.21.62-.18.91.25.58.29.87.08.59.14.88.04.61.12.89.47.48.56.76.07.6.18.87.44.45.56.72-.23.78-.09,1.03.51.41.66.66.6.31.76.55-.18.88,0,1.11.66.24.86.45.44.4.65.6.17.35.4.54c-.22.19-.37.14-.59.35s-.37.49-.56.71-.56.32-.74.56,0,.74-.17.99-.09.63-.25.88-.32.47-.46.73-.06.6-.18.87-1,.21-1.1.49-.06.62-.15.9.47.74.39,1.03-.4.49-.46.78-.54.5-.58.79.23.62.2.92.02.58,0,.88-.43.58-.43.87c0,.15.58.15.58.31,0,.3-.61.6-.6.9s.24.58.27.87-.29.65-.24.93.82.45.88.74-.22.65-.14.93.46.48.55.75.28.51.38.78.37.46.49.72-.03.65.11.91.15.58.3.83-.03.74.13.98.6.3.78.53.56.29.75.51.58.23.79.43.47.72.69.91c-.22.19-.57.61-.78.81s-.64.18-.84.4-.05.71-.23.94-.4.4-.57.64-.42.4-.58.65-.65.3-.79.56-.53.42-.65.68.6.89.49,1.16-.75.35-.84.63-.42.5-.5.79.24.67.18.96-.47.52-.52.81.44.65.41.95-.25.57-.26.86.39.59.39.88c0,.15-.16.15-.16.31,0,.3-.47.6-.46.89s.2.59.23.88.38.54.42.83.18.55.24.84-.05.61.02.89.5.45.59.73-.52.81-.42,1.08.94.24,1.06.51-.26.77-.13,1.03.61.33.76.58.19.57.35.81.6.26.78.49-.36,1.07-.16,1.29.57.31.78.51.38.2.6.38c-.22.19-.22.36-.43.56s-.73.13-.93.35-.38.48-.57.71-.13.65-.3.9-.39.46-.54.71-.17.58-.31.84.18.73.05.99-.46.42-.57.7-.59.41-.69.69.06.63-.01.92.15.63.09.92-.63.48-.68.77.12.61.09.91,0,.59-.01.88-.34.58-.34.88c0,.15.22.15.22.31,0,.3.33.58.34.87s-.24.6-.21.89-.05.6,0,.89.37.53.43.82.21.55.28.83-.27.7-.18.97.46.47.56.74.59.38.71.64-.29.79-.16,1.05.18.59.33.84.63.3.79.54.07.68.25.91.65.23.84.45.13.7.34.9.33.21.55.4c-.22.19-.29.25-.5.45s-.14.68-.34.9-.16.6-.34.84-.99-.01-1.16.23-.27.54-.42.8.14.75,0,1.01-.87.23-.99.5.06.67-.05.95-.03.61-.12.89-.18.55-.26.84-.31.53-.37.82-.02.59-.06.89-.56.53-.59.82-.08.61-.1.9.15.61.15.91c0,.15-.11.15-.11.31,0,.3.37.59.38.88s.15.58.18.87-.11.61-.07.9.01.61.07.89.08.6.16.88.15.59.24.86.12.6.22.88.2.58.32.85.59.38.73.64.6.33.75.58-.03.71.14.95.45.4.63.63.61.23.81.45.27.53.48.73.5.56.72.75c-.22.19-.71.33-.93.54s-.6.25-.8.47-.28.55-.46.78.17.84,0,1.09-.5.34-.66.6-.23.52-.36.78-.55.37-.68.64.09.66-.02.94-.36.48-.45.76-.12.56-.2.85.07.6.01.89-.91.43-.95.72.7.68.67.97,0,.56-.02.86-.2.56-.2.86c0,.15-.23.15-.23.31,0,.3-.23.6-.22.89s.6.54.63.83-.28.62-.24.91.41.51.47.8.12.56.19.84.2.54.29.81-.25.7-.14.98.03.64.15.9.54.4.68.66-.06.72.09.97.71.25.87.49.02.73.2.96.76.13.96.35.25.57.46.77.79.4,1.02.58c-.22.19-.54.65-.75.86s-.47.33-.67.54-.25.53-.43.76-.62.25-.79.49-.21.55-.37.8-.59.33-.73.59.11.7-.01.97-.34.48-.45.75-.19.54-.28.82-.06.58-.14.86-.9.39-.96.68.61.71.56,1-.82.49-.85.79.35.63.33.92.39.59.39.89c0,.15.02.15.02.31,0,.3-.36.59-.35.88s.03.59.06.88.51.52.55.81-.16.61-.1.9-.25.67-.18.95.4.5.5.78.33.5.44.78.08.6.2.87.17.58.3.83-.02.71.13.96.67.29.83.53.23.57.41.8.89,0,1.08.22.18.61.39.81.37.55.59.74c-.22.19-.54.37-.75.57s-.13.67-.33.89-.81.07-1,.3-.05.69-.22.93-.84.16-.99.42-.28.54-.42.8-.12.61-.25.88-.1.6-.21.88-.29.53-.38.81-.19.56-.26.85.48.71.42,1-.63.47-.67.76.3.62.27.92-.23.56-.25.85.32.58.32.87c0,.15-.13.15-.13.31,0,.3-.78.61-.77.9s.43.57.46.86-.28.64-.23.93.57.5.63.79-.27.68-.19.96.1.61.19.88.37.51.47.78-.01.67.11.93.62.37.76.63.19.58.34.83.81.17.98.41.34.45.52.68-.33,1.06-.14,1.27.85,0,1.06.21.8.49,1.02.67c-.22.19-1.1.16-1.31.37s.13.94-.07,1.15-.62.22-.8.45-.7.22-.87.46-.06.67-.22.92-.08.62-.22.88-.65.33-.78.6-.25.54-.36.81-.04.61-.13.89-.21.55-.29.83-.3.54-.36.83.16.63.12.92-.63.52-.66.81.34.63.33.92.51.59.51.89c0,.15-.62.15-.62.31,0,.3.55.57.57.86s-.54.63-.51.92.66.51.7.79-.7.73-.64,1.01.16.59.24.87.88.36.97.63-.34.74-.24,1.02.82.29.94.55-.51.91-.38,1.17.35.5.5.75.5.39.67.63.53.34.71.57-.01.8.18,1.01.44.43.65.63.3.12.52.31c-.22.19-.1.33-.31.54s-.06.74-.26.96-.63.21-.82.44-.05.67-.21.92-.34.45-.49.7-.48.38-.61.64-.75.29-.88.56.49.84.38,1.11-.99.27-1.08.55.08.65,0,.94.4.69.34.98-.12.55-.16.84-.82.48-.85.78.6.63.58.93-.66.57-.66.86c0,.15-.07.15-.07.31,0,.3.67.57.69.87s-.52.63-.49.92.1.59.15.88.7.47.76.75-.43.7-.35.98.47.48.56.75.35.49.45.76.32.48.44.75.16.55.3.81-.07.71.08.96.38.46.55.7.55.31.73.54.33.47.52.69.23.58.44.78.43.41.66.59c-.22.19-.26.58-.47.79s-.37.42-.57.64-.36.43-.55.66-.6.27-.77.51-.5.38-.65.63.24.8.1,1.06-.77.27-.89.54-.55.42-.66.7.4.77.31,1.05-.03.59-.1.87-.04.57-.1.86-.47.5-.52.79-.33.55-.36.85.12.6.11.9.45.59.45.88c0,.15-.75.15-.75.31,0,.3.44.58.45.87s-.23.61-.2.9.5.53.54.81-.07.6-.01.89-.12.64-.05.92.71.4.8.67-.31.72-.2,1,.37.48.49.75.12.6.26.85-.08.74.07.99.48.42.65.66.39.46.57.69.59.28.79.5.1.74.31.95,1,.1,1.23.29c-.22.19-.77.34-.98.54s-.56.29-.75.51-.25.57-.44.8-.24.55-.41.79-.08.63-.24.88-1.03.09-1.17.35.54.92.42,1.19-.38.45-.49.73-.33.49-.42.78-.21.54-.29.83-.4.51-.46.8.07.61.03.91.41.63.38.92-.76.52-.77.82,0,.6,0,.89c0,.15.19.15.19.31,0,.3.43.57.44.86s-.64.64-.61.93.54.53.58.81.35.52.41.8.07.57.14.85-.69.82-.6,1.1.38.51.48.79.65.37.77.63-.27.79-.13,1.05.65.32.8.57,0,.71.17.95.26.57.44.8,1.11-.17,1.31.05-.06.86.15,1.06.6.29.83.48c-.22.19-.48.42-.69.62s-.4.42-.6.64-.5.34-.69.57-.49.38-.65.62-.27.54-.42.79-.05.65-.18.91-.68.32-.8.59.3.77.2,1.04-.78.35-.87.63.25.69.17.98.27.65.21.94-.98.41-1.03.71-.15.59-.18.89.75.65.74.94-.35.57-.35.86c0,.15.13.15.13.31,0,.3-.07.58-.05.88s-.38.63-.35.92.83.48.88.77-.71.73-.65,1.01.67.45.75.73.05.59.14.87-.05.65.06.92.44.46.56.72.39.46.53.71.28.5.43.75-.16.81,0,1.05.72.21.9.44,0,.78.2,1,.55.31.76.51.89.25,1.11.43c-.22.19-.9.23-1.11.43s-.29.55-.49.77,0,.75-.18.98-.77.14-.94.38.1.75-.06,1-.41.42-.55.68-.34.47-.46.74-.32.49-.43.77-.38.48-.47.76.21.67.13.95,0,.58-.06.87-.5.49-.54.78-.24.56-.27.85-.42.57-.43.87.6.61.6.91c0,.15-.18.15-.18.31,0,.3.26.58.27.87s-.26.61-.23.9-.09.61-.05.9-.09.63-.03.92.6.47.68.75-.02.62.07.9.73.36.84.63-.2.71-.08.97.27.52.4.78.52.37.67.62-.23.85-.06,1.09.67.25.85.48.23.58.42.8.27.58.48.78.78.16,1.01.34c-.22.19-.75.19-.96.39s-.25.58-.45.8-.57.29-.76.53-.46.42-.62.66.22.85.07,1.1-.32.48-.45.74-.78.27-.9.54.43.81.32,1.09-.11.56-.2.84-1.05.3-1.13.58-.12.6-.18.89-.02.61-.06.9-.13.59-.16.88.78.64.77.94-.59.56-.59.86c0,.15.37.15.37.31,0,.3-.46.6-.44.89s.51.55.54.84-.51.66-.47.95.74.46.8.75-.5.72-.42,1,.57.45.66.73-.36.76-.26,1.04.47.46.59.73.52.4.65.66.49.38.64.63-.16.8,0,1.04.58.31.76.53.15.65.34.87.27.59.47.79.66.11.89.3c-.22.19-.51.27-.72.47s-.15.67-.34.89-.53.3-.72.54-.32.49-.49.73-.03.66-.18.92-.94.14-1.08.4.16.74.04,1.01-.6.39-.7.66.45.77.35,1.06-.36.49-.43.77-.84.41-.9.7.22.65.17.94-.27.57-.3.86.73.64.72.94-.6.56-.6.86c0,.15.35.15.35.31,0,.3-.14.58-.13.88s-.46.63-.43.92.36.56.41.85-.08.62-.02.91.02.62.1.9.35.53.44.81.57.42.67.7-.16.71-.04.97.78.27.91.53-.05.69.1.94.31.5.48.74.44.4.62.63.37.45.57.66.12.71.33.91.25.2.47.39c-.22.19.11.57-.11.78s-.43.37-.63.59-.82.07-1.01.31.32.96.15,1.2-.97.06-1.12.32.05.71-.08.97-.26.52-.39.78-.59.39-.7.66-.14.59-.23.87-.05.6-.12.89-.51.5-.57.78.56.7.52.99.16.59.13.88-.89.52-.9.81.27.6.27.9c0,.15.28.15.28.31,0,.3-.68.61-.66.9s.27.59.3.88.34.56.38.84-.34.67-.28.96.68.45.75.73-.08.64,0,.91.18.57.29.84.39.47.51.74-.21.77-.07,1.03.79.24.94.49.36.45.53.69.11.65.29.88.14.67.34.88.46.41.67.61.57.16.79.35c-.22.19-.4.33-.61.54s-.44.4-.64.62.03.78-.15,1.01-.94.02-1.11.27-.01.7-.17.95.06.69-.07.95-.28.48-.4.75-.71.33-.81.6.11.66.02.94-.75.39-.83.67.61.74.54,1.03-.08.56-.12.85-.16.55-.19.84-.52.54-.54.84.38.59.38.89c0,.15-.45.15-.45.31,0,.3.47.57.49.86s.12.56.15.85.13.55.18.84-.62.71-.56.99.6.46.68.74.3.51.39.78.03.6.14.87-.44.83-.32,1.1,1.09.12,1.22.38-.51.97-.36,1.22.84.16,1.01.4.34.46.52.69.52.31.72.52-.05.87.16,1.07.74.22.96.4c-.22.19-.76.19-.97.4s-.15.68-.34.9-.7.18-.88.41-.48.4-.65.64-.12.64-.28.89-.43.44-.57.7.19.75.07,1.02-.86.28-.96.56-.04.63-.13.91-.19.57-.27.86-.15.58-.21.87.55.69.5.99-.74.49-.77.79-.06.6-.08.89-.15.6-.15.9c0,.15.16.15.16.31,0,.3.51.58.52.87s-.55.64-.52.93.4.55.45.84.37.53.43.81-.06.61.01.9-.13.66-.04.94.18.58.28.85.34.51.46.77.68.32.82.57.42.41.57.66-.3.89-.14,1.13.74.18.93.41.16.62.36.84.19.65.4.85.61.18.83.37c-.22.19-.22.59-.43.79s-.71.12-.9.34.08.82-.1,1.05-.67.21-.84.45-.72.24-.87.5.25.82.11,1.08-.22.53-.34.8-.81.3-.92.57-.08.61-.17.89.26.69.18.97-.84.41-.9.7.08.63.04.92.21.62.18.92-.29.57-.3.87.27.6.27.89c0,.15-.17.15-.17.31,0,.3.44.57.45.86s0,.57.02.86-.02.58.03.87-.31.65-.25.94.3.54.38.82.21.55.3.83.34.5.45.77-.41.82-.29,1.08,1.12.11,1.25.37.16.56.31.81.13.6.3.84.17.6.35.83.63.23.82.44-.04.86.17,1.06,1.07.16,1.3.35c-.22.19-1,.24-1.21.44s-.03.78-.23,1-.41.39-.6.62-.6.28-.77.52-.38.46-.53.71.2.77.06,1.03-.7.29-.82.56-.12.58-.23.86-.48.45-.57.73.24.68.17.97-.62.46-.68.74.19.63.15.93.11.6.08.89-.57.54-.58.84.37.6.37.89c0,.15-.43.15-.43.31,0,.3-.18.61-.17.9s.63.55.66.84-.31.64-.26.93.27.56.33.84.36.52.43.8-.39.74-.3,1.02.26.56.36.83.45.46.57.73.51.4.65.66.34.47.49.72,0,.7.16.94.42.43.6.66.57.28.77.5.16.66.37.86.38.33.6.51c-.22.19-.2.52-.41.72s-.73.11-.93.33-.32.51-.51.74-.11.65-.28.89-.31.49-.46.74-.76.25-.9.51,0,.66-.13.93-.34.5-.45.78.39.75.3,1.03-1.05.3-1.13.59.46.72.4,1.01-.64.49-.68.78.44.65.41.95-.02.58-.04.87-.59.58-.59.87c0,.15.19.15.19.31,0,.3,0,.6,0,.89s.15.59.18.88.48.53.53.81.15.55.21.84-.12.62-.05.9-.24.69-.15.97.26.55.37.82.02.65.14.92.85.25.99.51.21.55.36.8-.07.75.1.99.97.01,1.15.24.13.64.32.85.53.28.74.48-.08.65.14.84c-.22.19-.06.49-.27.7s-.64.2-.83.42.03.78-.16,1.01-.79.13-.96.37-.18.59-.33.84-.02.65-.16.91-.34.47-.46.74-.72.33-.83.61.39.76.3,1.04-.66.41-.74.69-.19.57-.25.86.37.66.33.95-.78.49-.81.79.73.65.72.94-.37.57-.37.86c0,.15-.28.15-.28.31,0,.3-.01.6,0,.9s.06.6.09.89-.02.61.03.9.12.6.18.88.82.41.9.69-.27.69-.18.97-.03.65.07.92.73.34.85.6.23.53.37.79-.13.75.02,1,.41.45.58.69.23.58.42.81.56.31.76.53.16.68.37.89.26.1.48.28c-.22.19.21.58,0,.78s-.78.06-.98.28.08.83-.1,1.06-.41.4-.58.64-.82.17-.97.42-.35.5-.49.76.36.83.24,1.1-.37.46-.48.74,0,.6-.1.88-.67.4-.74.69-.16.57-.23.86.52.68.47.97-.87.47-.9.77-.22.59-.23.89.27.61.27.9c0,.15-.13.15-.13.31,0,.3.31.59.33.88s.51.54.54.83-.34.62-.3.91.34.53.4.81.02.59.1.87.07.58.16.86.1.59.2.86.05.62.17.89.84.23.97.49-.26.82-.11,1.06.58.33.74.56.02.72.21.95.27.57.47.79.97-.13,1.18.07-.09.71.14.89c-.22.19-.51.08-.73.28s-.15.69-.35.91-.53.33-.71.56-.26.55-.42.79-.17.59-.33.84-.14.58-.28.84-.38.45-.5.72-.52.42-.63.69-.45.48-.54.76-.2.58-.28.86-.1.6-.16.89.65.72.61,1.01-.73.49-.76.79.23.61.22.91-.2.58-.2.88c0,.08.63.08.63.16,0,.3-.63.61-.61.9s.56.55.59.85-.66.69-.61.98.04.62.1.91.18.6.26.88.11.62.2.9.98.28,1.09.56-.25.75-.12,1.02.83.24.97.5-.09.73.06.98-.09.79.08,1.03,1.06-.05,1.25.18.4.4.6.62.22.59.44.79.51.3.74.48.21.7.45.87.43.47.68.62.69-.02.96.11.51.3.79.4.48.48.77.56.72-.54,1.02-.49.48.78.78.81.61-.03.91-.03c.06,0,.06-.13.13-.13.3,0,.6.03.89,0s.65.27.94.22.4-.93.68-1,.56-.08.83-.18.45-.35.72-.47.66.07.92-.08.57-.18.82-.34.62-.15.85-.34,0-.9.21-1.1,1.07.26,1.27.04-.21-.97-.02-1.2.6-.25.78-.49.25-.53.41-.77.44.05.59-.21c.14.26.38,0,.54.24s.61.27.78.51.36.42.55.65.24.54.44.75.25.57.46.76.1.81.33.99.47.41.72.57.6.21.85.35.85-.38,1.12-.26.32.72.6.82.59.11.87.18.57.12.86.18.6-.15.89-.13.56-.12.86-.12c.13,0,.13.29.26.29.3,0,.61.26.9.23s.5-.62.79-.67.73.58,1.01.5.36-.82.63-.92.74.27,1,.15.45-.43.7-.57.6-.16.84-.32.47-.36.71-.54.07-.81.29-1,.82.02,1.03-.19.36-.47.55-.69.11-.65.29-.89.29-.49.45-.74.55-.08.7-.33c.14.26-.03.45.13.7s.4.47.57.7.27.57.45.79.43.44.63.65.4.48.62.67.86-.09,1.09.09.1.87.35,1.04.78-.12,1.04.02.37.59.63.72.81-.44,1.08-.34.52.16.81.23.37,1.05.65,1.1.67-.46.96-.44.57.63.87.63c.13,0,.13-.16.26-.16.3,0,.62-.02.91-.05s.5-.73.78-.78.73.57,1.01.49.33-.91.6-1.01.84.51,1.11.39.17-.94.43-1.08.45-.31.7-.48,1.03.42,1.26.24.23-.67.45-.86.22-.61.42-.83.57-.27.76-.5.58-.3.75-.54.48-.41.64-.66-.09-.47.06-.72c.14.26.5.09.66.34s.23.54.4.78-.13.86.06,1.09,1.04-.14,1.24.07.08.75.29.94.69.08.92.26.49.28.73.44.5.24.76.39.48.28.74.4.33.71.6.81.54.27.82.35.66-.28.95-.23.52.46.81.49.59.32.89.32c.13,0,.13-.4.26-.4.3,0,.61.23.9.21s.51-.61.79-.66.57-.03.85-.1.76.43,1.03.33.22-.99.49-1.11.76.23,1.01.08.43-.41.68-.58.59-.18.82-.37.08-.8.29-1,.42-.36.62-.58.85-.01,1.04-.24-.02-.75.16-.99.76-.19.92-.43.11-.48.26-.74c.14.26.31.36.46.61s.63.27.8.5-.23.92-.04,1.15.78.1.98.31.03.82.25,1.02.89-.14,1.12.04.14.8.38.96.45.44.7.58.69-.03.96.09.67-.12.94-.02.5.28.78.35.46.65.74.7.59.24.88.27.62.04.92.04c.13,0,.13-.16.26-.16.3,0,.63.21.92.19s.46-1.01.75-1.06.56,0,.84-.08.76.48,1.04.38.51-.36.77-.48.63-.09.89-.24.32-.62.56-.78.72-.02.96-.2.43-.43.65-.63.53-.33.74-.54.45-.43.64-.65.33-.52.51-.76.06-.69.22-.93.25-.27.39-.53c.14.26.51.1.67.35s.27.51.44.75.02.73.21.96.57.29.77.5.48.34.7.54.28.59.5.77.67.07.91.24.43.39.69.54.65-.04.92.08.41.47.69.57.39.76.67.83.69-.32.98-.27.53.59.82.61.62.04.92.04c.13,0,.13-.4.26-.4.3,0,.55-.53.84-.55s.59.22.88.17.67.3.95.23.51-.36.79-.46.62-.06.89-.18.25-.78.5-.93.52-.22.76-.39.65-.08.88-.26.64-.17.85-.37.51-.34.72-.55.2-.63.39-.85.51-.36.68-.6,0-.72.15-.97.45-.75.59-1.01c.14.26.58.67.74.91s.2.55.37.79.4.41.59.63-.09.87.11,1.08.82,0,1.03.21.22.64.45.82.35.55.59.71.52.33.77.48.74-.13,1-.01.51.28.79.38.51.33.79.4.61-.03.89.02.59-.14.88-.12.55.73.85.73c.13,0,.13.1.26.1.3,0,.55-.91.84-.94s.67.64.96.58.62-.03.9-.1.62-.09.9-.19.22-1.01.49-1.13.62-.03.87-.17.61-.12.85-.28.59-.2.82-.38.19-.68.41-.88.72-.1.92-.32-.02-.8.17-1.03.4-.41.57-.64.57-.31.73-.56.31-.07.45-.33c.14.26.25.12.4.36s0,.73.18.96,1.02-.05,1.21.18,0,.78.2.99.5.34.71.53.63.15.86.33.3.57.54.73.34.59.59.73.83-.34,1.1-.22.48.29.76.39.51.25.79.33.49.48.78.53.6-.05.89-.02.58-.21.87-.21c.13,0,.13.1.26.1.3,0,.59.15.88.12s.65.32.94.27.57-.25.85-.33.62-.07.89-.17.53-.31.8-.44.53-.29.79-.43.61-.17.85-.33.43-.44.67-.62.33-.53.55-.73.2-.62.41-.83.57-.27.75-.49.26-.53.44-.77.59-.31.75-.55.18-.42.32-.68c.14.26.25.38.41.62s.72.21.89.44,0,.73.19.95.5.33.7.54.14.71.35.9.59.23.82.41.49.33.73.49.29.68.54.83.53.33.8.45.66.01.93.11.55.26.84.33.57.27.86.33.63-.13.93-.1.6-.56.89-.56c.13,0,.13.12.26.12.3,0,.6.38.89.36s.52-.49.8-.54.52-.2.81-.27.59.02.87-.08.43-.42.7-.54.96.59,1.22.45.16-.88.4-1.04.41-.4.64-.59.66-.11.88-.31.1-.72.3-.93.36-.42.55-.65.54-.3.71-.53.83-.14.99-.39-.01-.21.13-.47c.14.26.22.06.38.31s.36.47.53.71.45.39.64.61.54.28.75.5.21.61.42.81.24.64.47.82.81-.11,1.05.05.47.32.72.46.25.79.52.92.73-.23,1.01-.13.43.58.72.65.57.21.86.26.64-.32.93-.29.57-.33.87-.33c.13,0,.13.74.26.74.3,0,.56-.59.85-.61s.62.31.91.26.55-.24.83-.32.59-.07.86-.17.51-.29.78-.42.41-.44.67-.59.6-.11.85-.27.48-.32.71-.5.52-.29.74-.49.2-.62.4-.83.89,0,1.08-.22-.11-.83.07-1.07.89-.11,1.05-.35-.06-.32.08-.58c.14.26.52-.05.67.2s-.03.73.15.96.2.61.39.84.98-.09,1.18.13.24.57.45.77.4.42.63.6.29.6.53.76.42.48.67.62.86-.4,1.13-.28.45.37.72.47.46.47.74.54.65-.32.94-.27.46.95.76.97.62-.34.92-.34c.13,0,.13-.44.26-.44.3,0,.59.41.88.38s.52-.46.8-.51.59.07.87,0,.46-.41.73-.51.73.28,1,.16.67-.02.92-.16.26-.71.51-.87.28-.58.51-.76.69-.06.91-.26.59-.24.79-.45,0-.78.18-1.01.91-.03,1.08-.27-.28-.9-.12-1.15.67.03.81-.22c.14.26.46.1.62.35s-.18.85,0,1.08.69.22.88.44.05.77.25.98.59.27.8.47.72.06.95.24.29.6.53.76.7-.03.96.11.22.86.49.98.66-.03.94.07.57.13.86.21.57.14.86.19.58.03.88.06.58-.02.87-.02c.13,0,.13-.25.26-.25.3,0,.59.43.88.4s.59-.08.87-.13.55-.22.83-.29.56-.16.83-.26.61-.05.88-.18.35-.58.61-.73.51-.25.76-.41.77.07,1.01-.12.21-.67.43-.86.69-.14.89-.35-.02-.81.16-1.03.77-.14.95-.37.21-.58.37-.82.25-.89.4-1.15c.14.26,0,1.06.15,1.3s.99.03,1.16.27.1.65.29.87.29.52.5.73.35.49.57.68.69.08.92.26.07.91.31,1.07.82-.2,1.07-.06.57.11.84.23.3.78.58.88.53.33.81.41.6.09.89.14.61-.06.91-.04.59-.55.89-.55c.13,0,.13.02.26.02.3,0,.62.77.91.74s.48-.81.77-.86.67.37.95.29.65.06.92-.04.36-.66.63-.79.56-.17.81-.32.62-.11.86-.28.6-.19.83-.37.05-.84.27-1.04.64-.16.84-.38.45-.38.64-.61.21-.57.39-.81.71-.23.87-.48.05-1.02.19-1.28c.14.26.53.72.68.96s.08.65.25.89.41.43.6.65.53.3.73.51.52.27.74.47.28.54.51.72.54.22.78.38.26.67.52.81.52.29.78.41.67-.13.95-.03.5.3.78.38.5.4.79.45.59,0,.88.03.58-.36.88-.36c.13,0,.13.29.26.29.3,0,.59.19.88.16s.52-.48.8-.53.64.25.92.17.5-.33.78-.43.6-.07.87-.19.58-.16.84-.3.44-.4.69-.57.71-.05.94-.23.32-.55.54-.75.49-.36.69-.57.48-.38.67-.6.26-.56.43-.8.48-.4.63-.65.03-.21.18-.47c.14.26.43-.04.59.21s.57.3.74.54.2.56.39.78.28.52.48.73.1.74.32.94.94-.21,1.17-.03.34.48.58.64.2.8.45.94.57.2.84.32.75-.32,1.03-.22.38.7.66.78.6,0,.89.05.53.62.82.64.63,0,.92,0c.13,0,.13-.21.26-.21.3,0,.63.22.92.19s.51-.74.8-.79.61.08.89,0,.52-.28.8-.38.76.29,1.03.16.42-.52.67-.66.7-.03.94-.19.03-.96.26-1.15.52-.27.73-.47.86.04,1.07-.18.29-.56.48-.78-.24-.92-.07-1.16.92-.07,1.08-.32.13-.4.27-.66c.14.26.46.19.62.44s.51.34.68.58-.22.91-.03,1.14.76.11.97.32.29.53.51.73.21.68.44.86.59.21.84.37.6.15.85.3.39.54.66.66.65,0,.92.09.56.17.84.25.49.56.78.61.64-.27.94-.25.58.08.88.08c.13,0,.13.35.26.35.3,0,.56-.68.86-.71s.57-.03.85-.08.54-.17.82-.24.75.44,1.03.34.27-.88.54-1,.64.01.9-.13.28-.61.53-.78.78.1,1.01-.08.69-.11.91-.31.23-.63.43-.84.13-.66.32-.89.45-.37.63-.61.62-.28.78-.53.14-1.08.28-1.34c.14.26.42.91.58,1.15s.01.71.18.94.68.21.87.44.17.63.38.84.43.41.64.61.46.38.69.56.51.31.75.47.46.38.72.52.53.26.8.38.39.64.67.74.73-.31,1.02-.24.55.22.84.28.58.05.88.08.58-.21.88-.21c.13,0,.13.48.26.48.3,0,.57-.5.86-.53s.58.05.87,0,.51-.31.79-.38.72.35.99.25.37-.63.64-.76.44-.37.69-.52.65-.01.9-.18.52-.28.75-.46.67-.13.88-.33.26-.58.47-.8.31-.51.5-.73.54-.32.72-.56-.13-.79.03-1.04.65-.47.79-.73c.14.26.57.52.73.77s-.13.8.04,1.04.86.07,1.04.29-.06.83.14,1.04.78.04.99.23.3.52.53.7.62.11.86.27.32.55.58.7.43.44.69.56.5.35.77.45.65-.1.93-.02.44.78.73.83.67-.51.97-.48.57.22.87.22c.13,0,.13-.31.26-.31.3,0,.57-.03.86-.05s.68.61.97.55.45-.72.73-.8.59-.05.86-.15.37-.58.63-.71.81.34,1.07.19.68-.06.92-.23.43-.46.66-.64.01-.89.23-1.09.87.06,1.07-.16.34-.5.53-.73.51-.37.68-.61-.25-.88-.09-1.13.6-.56.74-.82c.14.26.62.55.78.8s.15.59.32.82.06.7.24.93.24.6.45.81.85-.02,1.07.18.06.85.29,1.03.97-.34,1.21-.18.22.73.47.87.61.08.87.21.59.05.86.15.32.92.61.99.65-.11.94-.06.58.18.87.21.6-.46.9-.46c.13,0,.13.7.26.7.3,0,.56-.76.85-.79s.61.23.89.18.65.17.93.1.43-.59.7-.69.82.43,1.09.3.11-1.08.36-1.23.86.3,1.1.13.44-.41.67-.6.12-.75.34-.95.67-.13.87-.35.01-.75.2-.98.94,0,1.11-.23.39-.46.55-.71.05-.69.2-.95c.14.26.48.43.63.67s.46.38.63.61-.24.94-.06,1.16.79.09.99.3.58.22.8.41.3.52.53.7.37.47.61.63.2.82.46.96.62.15.89.27.65.01.92.11.54.26.83.34.59.08.88.13.62-.29.91-.27.56.16.85.16c.13,0,.13.15.26.15.3,0,.63.48.92.45s.46-1.01.75-1.07.54-.08.83-.15.75.46,1.03.36.49-.38.75-.5.65-.05.9-.19.54-.28.78-.45.41-.46.64-.64.54-.29.76-.49.13-.72.33-.93.52-.32.71-.54.38-.45.55-.69.47-.4.63-.65.16-.38.3-.64c.14.26,0,.48.17.72s.23.59.4.82.53.36.72.58.82.05,1.02.26,0,.84.22,1.03.7.09.93.27.56.19.81.36.49.27.75.41.35.57.62.69.6.07.87.17.4.69.69.77.6.11.89.17.62-.09.91-.06.59.02.89.02c.13,0,.13-.13.26-.13.3,0,.61.3.9.27s.56-.35.85-.4.6-.03.88-.1.44-.52.71-.62.53-.2.79-.32.6-.08.85-.23.72.04.97-.12.1-.85.33-1.03.42-.37.64-.56.71-.09.91-.31.66-.21.85-.44.16-.64.33-.88.52-.37.68-.62.03-.3.17-.56c.14.26-.04.35.11.6s.6.32.77.55.19.61.38.83.29.56.49.78.7.15.91.35.2.7.43.88.94-.29,1.18-.13.26.68.51.83.74-.18,1-.06.39.55.66.65.58.06.87.13.53.26.82.31.53.54.82.57.62-.73.91-.73c.13,0,.13.03.26.03.3,0,.59.33.88.3s.6.02.88-.03.68.27.97.19.32-.93.6-1.03.73.25.99.13.69.02.95-.13.19-.83.44-.99.6-.17.83-.35.69-.12.91-.31.02-.83.22-1.04.51-.32.69-.55.44-.4.62-.63.63-.3.79-.55-.03-.85.11-1.11c.14.26.67.4.83.65s.13.6.3.84.44.38.63.6.02.76.22.97.7.11.92.31.49.3.72.48.4.41.64.57.32.58.57.73.43.46.7.59.71-.18.98-.08.57.04.86.12.47.51.76.56.57.21.86.23.59-.35.89-.35c.13,0,.13.49.26.49.3,0,.56-.6.85-.62s.61.26.9.2.62.05.9-.02.56-.2.84-.3.31-.75.57-.87.98.63,1.23.48.36-.58.6-.75.53-.29.76-.48.29-.57.51-.77.66-.18.86-.39.09-.71.28-.94.6-.27.78-.51.11-.64.27-.89.39-.48.54-.74c.14.26.08.68.24.93s.3.53.47.76.64.25.83.48.05.76.25.97.89-.06,1.1.13.05.85.28,1.03.79-.09,1.04.08.41.43.67.57.48.34.74.47.59.08.87.18.48.39.77.46.65-.29.94-.24.54.06.84.08.54-.02.84-.02c.13,0,.13.39.26.39.3,0,.56-.22.85-.24s.64.38.92.33.59-.12.87-.2.64.02.92-.08.59-.18.86-.3.4-.54.66-.69.48-.35.72-.51.53-.27.76-.46.28-.57.5-.77.65-.17.85-.38.12-.68.31-.9.66-.22.84-.46,0-.71.16-.96.51-.4.66-.66c.14.26-.06.78.09,1.02s.75.21.93.44-.1.84.09,1.06.86.04,1.06.25.14.7.36.9.81-.04,1.03.14.38.44.63.6.31.62.56.76.61.11.88.23.49.36.77.46.5.42.79.5.62,0,.91.05.6.02.9.05.6-.58.89-.58c.13,0,.13.44.26.44.3,0,.59.08.88.05s.67.37.95.32.55-.38.83-.45.47-.47.75-.57.45-.4.72-.53.42-.4.67-.54.71.08.96-.09.66-.1.89-.28.45-.4.67-.59.56-.29.77-.5-.08-.86.11-1.09.62-.25.8-.49.17-.59.33-.84.41-.52.55-.77c.14.26.04.75.2,1s.35.49.52.73.94,0,1.13.23-.27,1.03-.07,1.24.43.44.64.64.57.27.8.45.86-.19,1.1-.03.03,1.08.28,1.23.75-.13,1.01,0,.42.56.7.66.77-.49,1.05-.41.42.81.71.86.62-.06.91-.03.6-.55.89-.55c.13,0,.13.46.26.46.3,0,.55-.49.84-.52s.55-.02.84-.07.66.32.94.24.45-.5.72-.6.82.43,1.08.31.45-.46.71-.6.36-.54.6-.71.55-.23.78-.41.31-.53.52-.73.3-.5.5-.71.82-.04,1.01-.27.04-.71.21-.95.47-.38.63-.63.34-.89.48-1.15c.14.26.55.76.71,1.01s.4.41.58.64-.24.93-.05,1.15.38.48.58.69.5.36.72.56.43.43.66.61.92-.28,1.16-.11.12.91.37,1.05.73-.14.99-.02.44.44.72.54.64-.13.92-.06.41.85.7.9.66-.45.95-.43.57.26.86.26c.13,0,.13.08.26.08.3,0,.6.03.89,0s.56-.27.85-.32.64.15.93.07.37-.75.65-.85.73.27,1,.15.43-.45.69-.59.79.14,1.04-.02.32-.59.55-.77.46-.37.68-.57.02-.8.23-1.01.47-.33.66-.56.6-.26.78-.5.6-.31.76-.56.05-.34.19-.6c.14.26-.1.44.06.68s1.1-.04,1.27.19.04.69.23.91.35.47.55.68.05.81.27,1,.55.3.78.48.65.13.89.29.31.65.56.8.54.3.81.43.64.05.92.15.55.28.83.36.58.21.87.26.68-.65.97-.62.55.5.85.5c.13,0,.13-.04.26-.04.3,0,.63.38.92.35s.51-.7.8-.75.67.29.95.21.34-.84.61-.94.58-.05.84-.17.88.42,1.13.28.49-.38.73-.54.06-.91.29-1.09.65-.11.87-.31.23-.59.43-.8.42-.38.61-.61.35-.44.53-.68.35-.45.51-.7.5-.07.64-.33c.14.26.5.08.66.32s.46.37.63.61.07.67.26.9.05.76.25.97.7.15.91.34.27.61.5.79.66.11.9.28.6.12.86.26.46.35.73.47.54.19.81.29.51.28.8.35.61-.13.9-.08.5.57.79.59.59-.1.89-.1c.13,0,.13.41.26.41.3,0,.6-.25.89-.28s.53-.42.82-.47.63.16.91.09.48-.42.75-.52.56-.14.82-.27.41-.44.66-.59.63-.05.88-.22.42-.4.65-.59.81.04,1.03-.15-.16-.99.05-1.21,1.09.19,1.28-.04.01-.75.18-.99.65-.27.81-.52,0-.34.14-.6c.14.26.43.07.58.32s.09.65.27.88.17.63.36.85.46.41.66.62.77.06.98.26.44.36.67.54.22.69.46.86.4.51.66.65.52.35.78.48.82-.42,1.09-.32.59-.03.87.05.39.89.68.94.65-.48.95-.46.56.36.85.36c.13,0,.13-.13.26-.13.3,0,.57-.15.86-.17s.53-.26.82-.31.59.07.87,0,.61.02.88-.08.63-.02.9-.14.48-.37.73-.51.32-.58.56-.75.96.31,1.19.13.39-.49.61-.69.32-.53.53-.75.45-.41.63-.63-.14-.85.03-1.08.98-.04,1.14-.29-.02-1.16.13-1.42c.14.26.25,1,.41,1.24s.55.33.72.56.07.69.26.91.14.69.35.9.68.17.9.37.27.61.5.79.49.37.74.53.72-.03.98.11.55.2.82.32.5.3.78.4.58.07.87.14.44.76.73.81.65-.26.94-.23.59-.1.89-.1c.13,0,.13-.13.26-.13.3,0,.56-.14.85-.17s.55-.08.84-.13.62.14.9.07.59-.07.87-.17.47-.39.74-.51.82.29,1.08.15.05-1.04.29-1.21.94.3,1.17.12.5-.35.72-.55.44-.43.64-.64-.23-.99-.04-1.21.36-.42.54-.66.24-.51.4-.76.72-.48.87-.74c.14.26.46.66.62.9s.3.49.48.73.5.34.68.56.39.41.59.62.3.5.51.7.03.88.26,1.06.76-.02,1,.14.42.43.68.57.61.09.87.21.31.82.58.92.74-.34,1.02-.26.6-.1.89-.05.5.65.79.68.6.28.9.28c.06,0,.06-.02.13-.02.3,0,.57-.78.87-.8s.64.35.94.3.59-.14.88-.22.65.02.93-.08.41-.6.68-.73.45-.4.71-.55.48-.32.72-.49.43-.38.66-.57.85.08,1.07-.13-.09-.92.11-1.14.86-.03,1.05-.26.55-.35.73-.59-.35-.94-.19-1.2,1.06-.07,1.2-.34-.47-.9-.35-1.17.75-.31.87-.59-.03-.64.07-.93-.18-.66-.1-.95.92-.38.99-.68-.04-.63,0-.92.36-.57.39-.87-.8-.66-.79-.96-.01-.57-.01-.87c0-.08.14-.08.14-.16,0-.3.45-.6.44-.89s-.01-.6-.04-.89-.68-.5-.72-.79.47-.68.41-.96-.33-.53-.41-.81.03-.62-.06-.9-.6-.41-.7-.68,0-.63-.11-.89-.13-.59-.27-.85-.26-.53-.41-.78-.06-.68-.22-.92-.78-.16-.96-.39-.12-.67-.32-.88-.65-.19-.86-.4-.57-.52-.79-.71c.22-.19.76-.31.98-.52s.12-.68.32-.9.73-.14.91-.37.02-.71.19-.95.28-.49.44-.75.53-.36.67-.62.05-.62.17-.89.13-.56.23-.84.2-.53.29-.81.62-.42.69-.7.32-.53.38-.82-.23-.64-.18-.93.42-.54.46-.83-.55-.63-.54-.92.36-.57.36-.86c0-.15.04-.15.04-.31,0-.3.41-.61.4-.9s-.13-.6-.16-.89-.67-.51-.72-.8.33-.66.27-.94-.53-.48-.6-.76-.27-.52-.36-.8.14-.67.04-.94-.46-.44-.58-.7.36-.84.22-1.1-.25-.56-.4-.81-.87-.15-1.04-.39-.55-.3-.74-.52.22-.95.02-1.17-.44-.42-.65-.63-.42-.19-.64-.38c.22-.19.35-.26.56-.47s-.07-.87.13-1.09.94.04,1.13-.19.06-.69.23-.93.47-.39.62-.64.25-.53.38-.79.25-.53.37-.8.06-.6.17-.88.58-.41.67-.7-.27-.69-.19-.97.05-.57.12-.86.06-.56.11-.85.8-.48.83-.78-.41-.62-.4-.92-.06-.58-.06-.87c0-.15.49-.15.49-.31,0-.3.21-.61.2-.9s-.32-.58-.35-.87-.65-.51-.69-.79.29-.64.23-.93-.53-.47-.6-.75.08-.62-.01-.9.32-.74.21-1.02-.62-.39-.74-.65,0-.66-.14-.92-.56-.37-.71-.62-.05-.67-.22-.91-.22-.59-.4-.82-.64-.25-.84-.46-.11-.73-.32-.94-.35-.06-.58-.25c.22-.19.27-.14.48-.35s.27-.58.47-.8.63-.25.82-.48.17-.63.33-.87.22-.56.38-.81-.14-.74,0-1,.23-.51.35-.78.8-.29.91-.56.32-.52.42-.8-.3-.7-.23-.99.76-.43.82-.72-.64-.71-.59-1,.38-.53.41-.82-.15-.59-.13-.89.76-.57.76-.87c0-.15-.92-.15-.92-.31,0-.3.46-.59.44-.88s-.53-.54-.56-.83.43-.64.39-.93-.56-.49-.62-.77.54-.73.46-1.01-.84-.36-.93-.64.18-.67.07-.95-.32-.5-.44-.76.21-.77.08-1.02-.87-.18-1.02-.43.32-.91.16-1.15-.44-.43-.62-.66-.82-.08-1.01-.3-.23-.58-.44-.78-.65-.44-.87-.63c.22-.19.7-.38.91-.59s.51-.33.71-.55.13-.65.32-.88.2-.56.36-.8.31-.46.47-.72.63-.3.77-.56.57-.38.69-.65.23-.56.33-.84.33-.53.42-.81.09-.61.16-.89-.18-.65-.12-.94-.05-.6,0-.89.29-.55.32-.84-.22-.6-.21-.9.3-.57.3-.87c0-.15-.57-.15-.57-.31,0-.3.72-.6.7-.89s.23-.63.2-.92-.58-.53-.62-.82.28-.66.22-.95-.7-.44-.77-.73-.14-.56-.23-.84.36-.76.26-1.03-.21-.58-.33-.84-.54-.41-.68-.67-.31-.51-.46-.76-.62-.29-.79-.53.08-.79-.1-1.02-.86-.04-1.05-.26-.28-.52-.49-.72-.38-.58-.61-.77c.22-.19.79-.15,1-.36s.13-.7.33-.92.44-.39.62-.62-.01-.72.16-.96.75-.2.9-.45-.16-.75-.02-1.01.72-.28.85-.55.26-.53.37-.8.23-.54.33-.82.23-.55.31-.83-.34-.68-.28-.97.07-.56.11-.86.94-.47.97-.77-.72-.65-.7-.94-.16-.57-.16-.87c0-.15.19-.15.19-.31,0-.3.18-.59.16-.88s.29-.62.26-.91-.03-.6-.08-.89-.69-.47-.75-.76-.03-.58-.11-.86-.26-.52-.35-.8.09-.65-.01-.92-.06-.62-.18-.88-.01-.67-.15-.93-.88-.18-1.03-.43-.44-.39-.6-.63.13-.81-.05-1.04-.55-.31-.75-.52-.45-.37-.66-.58.06-.51-.17-.7c.22-.19.12-.32.34-.53s.42-.42.61-.64.57-.3.75-.53-.07-.78.1-1.03.29-.49.45-.74.46-.4.59-.66.09-.6.21-.87.88-.27.99-.54-.18-.7-.09-.98.46-.49.53-.77-.22-.66-.16-.95.5-.51.54-.8.16-.59.19-.88-.41-.63-.4-.92.33-.58.33-.88c0-.15-.68-.15-.68-.31,0-.3.18-.58.17-.87s.69-.65.66-.94-.09-.61-.13-.9-.1-.61-.16-.89-1-.37-1.07-.65.3-.69.21-.97.16-.7.05-.97-.66-.37-.78-.64.07-.7-.06-.96-.83-.21-.98-.46.33-.93.17-1.17-1.03.03-1.21-.2-.21-.57-.41-.78-.15-.67-.36-.87-.94-.28-1.17-.46c.22-.19,1.17-.04,1.38-.25s.39-.48.59-.7-.2-.94-.02-1.17.41-.4.58-.64.41-.42.56-.67.37-.46.5-.72.05-.61.17-.88.43-.44.54-.72.7-.38.79-.66-.17-.67-.1-.96.22-.56.28-.84-.24-.64-.2-.93.24-.55.27-.85.4-.56.42-.86-.2-.6-.2-.9c0-.15.1-.15.1-.31,0-.3.08-.6.07-.89s-.49-.56-.52-.85-.18-.56-.23-.85.31-.65.25-.94-.56-.47-.63-.75-.07-.58-.16-.85.29-.73.18-1-.3-.53-.42-.79-.38-.48-.51-.74-.21-.56-.37-.81-.56-.33-.73-.57-.57-.28-.75-.51-.31-.47-.51-.69-.3-.49-.51-.69-.24-.62-.46-.81c.22-.19.68-.17.89-.37s.11-.71.31-.93.7-.18.88-.41.41-.45.58-.69.07-.66.22-.92.25-.53.38-.79-.01-.65.11-.91.49-.42.6-.69-.21-.68-.11-.96.83-.36.9-.64-.43-.7-.37-.99.91-.43.96-.72-.37-.65-.34-.94-.41-.61-.4-.9.75-.56.75-.86c0-.15-.31-.15-.31-.31,0-.3-.14-.58-.16-.87s.08-.59.05-.88.11-.61.06-.9-.47-.51-.53-.79-.15-.55-.22-.84.03-.61-.06-.89.22-.71.11-.98-.87-.27-.99-.54-.06-.61-.19-.87.2-.8.05-1.05-.42-.45-.58-.69-.56-.33-.74-.56-.12-.69-.31-.9-.52-.34-.73-.54-.77-.26-1-.45c.22-.19,1-.02,1.21-.23s.21-.64.41-.86.55-.32.74-.55-.18-.87-.02-1.11.72-.23.88-.48.48-.42.62-.68.31-.53.43-.8-.48-.84-.37-1.11.11-.56.2-.84.52-.44.59-.73.16-.56.22-.85-.09-.6-.04-.89.14-.56.17-.85.45-.55.47-.85-.62-.6-.62-.89c0-.15.79-.15.79-.31,0-.3-.56-.58-.58-.87s.47-.63.44-.92-.55-.53-.6-.81.49-.69.43-.98-.12-.6-.19-.88-.51-.48-.6-.76-.63-.39-.73-.66.61-.9.49-1.16-1.09-.13-1.22-.38.19-.77.04-1.02-.3-.51-.47-.75-.37-.47-.55-.7-.3-.53-.49-.75-.7-.14-.91-.34-.56-.56-.78-.74c.22-.19.9-.2,1.11-.4s.33-.51.53-.73.58-.3.76-.53-.1-.81.07-1.05.78-.2.93-.45,0-.68.14-.94.64-.35.77-.62-.16-.71-.05-.99-.07-.64.02-.92.09-.56.16-.85.83-.4.89-.69-.4-.67-.36-.96.36-.54.39-.83-.46-.61-.44-.91.93-.56.93-.86c0-.15-.41-.15-.41-.31,0-.3-.28-.58-.3-.87s.33-.61.3-.9-.51-.52-.56-.81.4-.67.34-.96-.16-.58-.23-.86.12-.67.03-.95-.19-.59-.3-.86-.83-.3-.95-.56-.4-.44-.54-.7-.12-.59-.27-.84-.45-.39-.62-.63.26-.92.07-1.15-1.03.1-1.22-.11,0-.81-.21-1.01-.47-.33-.69-.52c.22-.19.33-.47.54-.67s.73-.12.93-.34.54-.35.72-.58-.19-.88-.03-1.13.35-.46.5-.71.75-.26.88-.52.16-.59.28-.86,0-.64.1-.92.07-.59.16-.87,0-.59.08-.88.86-.4.92-.69-.54-.7-.5-.99.22-.55.25-.84.04-.58.06-.87-.06-.58-.06-.87c0-.15.37-.15.37-.31,0-.3.33-.61.31-.9s-.67-.55-.7-.84-.14-.57-.19-.85.03-.6-.03-.88.33-.69.25-.97-.1-.61-.19-.89-.39-.51-.5-.78-.87-.27-.99-.53.18-.73.05-.99-.11-.62-.26-.87-.24-.57-.4-.81-.64-.27-.82-.5-.08-.71-.28-.93-.54-.32-.75-.52-.44-.29-.66-.48c.22-.19.08-.66.29-.87s.57-.23.77-.45.72-.17.9-.4.46-.41.63-.65.21-.59.36-.84.27-.53.41-.8-.33-.81-.21-1.07.7-.33.81-.6.4-.49.49-.77-.45-.74-.37-1.03.98-.37,1.04-.66.03-.61.07-.91-.29-.64-.26-.93.26-.57.27-.87-.31-.6-.31-.89c0-.15.27-.15.27-.31,0-.3-.25-.58-.27-.88s-.22-.56-.25-.85.1-.6.06-.89-.43-.51-.49-.79-.1-.56-.18-.84.68-.82.59-1.09-.85-.33-.95-.6-.24-.52-.37-.78.07-.68-.07-.94-.32-.5-.47-.75-.62-.29-.79-.53.01-.73-.17-.96-.27-.56-.47-.77-.61-.24-.82-.44-.35-.43-.57-.62c.22-.19.62-.15.83-.36s.49-.37.69-.59.32-.53.5-.76-.21-.88-.04-1.12.59-.29.75-.55.68-.29.82-.56-.41-.85-.28-1.12.91-.25,1.02-.53.32-.53.41-.81-.33-.72-.25-1-.25-.65-.19-.94.84-.44.88-.73.18-.58.21-.88-.4-.62-.38-.92.03-.58.03-.88c0-.15-.3-.15-.3-.31,0-.3.59-.6.58-.89s-.43-.56-.46-.85.3-.63.26-.92.09-.63.03-.92-.82-.41-.9-.69.44-.74.35-1.02-.81-.33-.92-.61.42-.81.3-1.08-.79-.27-.92-.53.29-.84.14-1.09-.41-.46-.58-.7-.87-.08-1.05-.31-.42-.38-.61-.6-.28-.51-.49-.72.1-.62-.13-.8c.22-.19.08-.43.3-.63s.15-.64.35-.86.38-.41.57-.64.93-.03,1.1-.28-.16-.81-.01-1.06.8-.22.93-.48-.36-.83-.24-1.1.3-.49.4-.77.23-.52.32-.8.47-.46.55-.75-.01-.6.05-.89.4-.52.45-.82.08-.59.11-.88.13-.59.15-.88-.24-.6-.24-.89c0-.15.01-.15.01-.31,0-.3.05-.59.04-.88s.05-.6.02-.89.06-.61.01-.9-.61-.49-.67-.77.03-.6-.05-.88-.52-.45-.61-.72.7-.88.6-1.15-.6-.4-.72-.67-.35-.49-.48-.74-.44-.42-.59-.67-.05-.66-.22-.9-.7-.2-.88-.43-.22-.56-.41-.78-.12-.7-.33-.91-.28-.24-.51-.42c.22-.19.42-.08.64-.29s.23-.62.43-.84.65-.24.84-.47-.18-.87,0-1.11.1-.61.26-.86.99-.11,1.13-.37.03-.65.16-.92.48-.45.58-.72-.05-.65.04-.93.37-.51.45-.8.04-.6.11-.89.32-.55.36-.84-.66-.68-.63-.97.86-.52.87-.82-.19-.61-.19-.9c0-.15-.58-.15-.58-.31,0-.3.77-.61.76-.9s-.65-.55-.68-.84-.01-.58-.06-.87.03-.6-.03-.89-.4-.5-.48-.78.2-.67.11-.95-.55-.42-.66-.69.38-.8.25-1.06-.7-.32-.84-.58-.12-.61-.27-.85-.28-.52-.45-.76-.32-.5-.51-.73-.16-.66-.35-.87-.65-.21-.86-.41-.57-.35-.79-.54c.22-.19.46-.46.67-.67s.65-.19.85-.4-.13-.86.06-1.09.9-.05,1.07-.3.03-.68.18-.94.41-.44.55-.7.34-.49.46-.76.07-.61.18-.88-.02-.62.07-.9.79-.38.86-.66,0-.62.05-.91-.13-.62-.08-.91.19-.56.22-.86.46-.56.47-.86,0-.61,0-.9c0-.15-.75-.15-.75-.31,0-.3.46-.6.44-.89s-.02-.6-.05-.89-.15-.58-.19-.87-.19-.57-.25-.85-.07-.59-.14-.87-.33-.51-.42-.79-.38-.48-.48-.75.08-.66-.04-.93-.26-.53-.4-.79-.24-.54-.39-.79-.75-.2-.92-.44-.29-.48-.47-.71-.23-.54-.43-.76.05-.87-.16-1.07-.46-.15-.68-.34c.22-.19-.06-.69.15-.89s.8-.03.99-.25.04-.72.22-.96.36-.44.52-.68.48-.37.63-.62.48-.4.62-.66.42-.46.54-.73-.19-.72-.08-.99.17-.55.26-.83.09-.57.17-.85.49-.48.55-.77.27-.55.31-.84,0-.6.03-.89-.23-.6-.21-.9-.15-.58-.15-.87c0-.15-.1-.15-.1-.31,0-.3.64-.6.62-.89s-.67-.53-.7-.82.5-.65.45-.94-.55-.49-.61-.78.09-.61.02-.9-.17-.56-.26-.84.4-.78.29-1.05-.23-.57-.35-.84-.3-.54-.43-.8-.4-.48-.55-.72-.86-.15-1.02-.39-.11-.64-.29-.86-.44-.39-.64-.61-.61-.2-.82-.4-.38-.72-.61-.91c.22-.19.89-.19,1.1-.39s.57-.3.77-.52-.34-1.05-.15-1.28.47-.35.64-.59.27-.5.42-.75.7-.26.84-.52.19-.56.32-.83.46-.45.57-.72.25-.55.34-.83-.38-.72-.3-1.01.54-.47.61-.76-.34-.65-.29-.94.08-.56.11-.86.58-.54.6-.84-.16-.6-.16-.89c0-.15-.3-.15-.3-.31,0-.3.63-.61.61-.9s-.79-.53-.82-.82.15-.6.11-.89.27-.65.21-.93-.39-.52-.46-.8-.47-.46-.56-.74.38-.76.28-1.03-.13-.6-.25-.87-.1-.63-.23-.89-.43-.46-.58-.71-.48-.41-.64-.65-.64-.26-.82-.49-.54-.29-.74-.5.2-1.01,0-1.21-1.11-.12-1.33-.3c.22-.19,1.05-.17,1.27-.37s.44-.42.63-.64.14-.66.33-.89.72-.21.89-.45.07-.67.22-.93.24-.54.38-.8.52-.41.64-.68-.44-.82-.33-1.09,1.05-.25,1.15-.53-.68-.81-.6-1.1.71-.43.78-.72-.29-.65-.25-.94.09-.57.12-.86-.13-.58-.11-.88.9-.57.9-.86c0-.15-.2-.15-.2-.31,0-.3-.67-.57-.68-.86s.81-.66.78-.95-.59-.53-.63-.82-.31-.54-.37-.82.37-.69.3-.98-.52-.47-.61-.74-.14-.57-.25-.84-.02-.64-.14-.9-.82-.24-.96-.5-.12-.58-.27-.83.04-.72-.13-.96-.38-.46-.56-.69-.18-.63-.38-.85-.63-.23-.84-.43-.23-.37-.45-.56c.22-.19.32-.27.53-.47s.47-.38.67-.59-.16-.89.02-1.12.58-.27.75-.52.55-.33.71-.59.07-.63.21-.89.65-.34.77-.61-.25-.74-.14-1.01.57-.41.66-.69-.02-.62.06-.9.03-.59.09-.88.07-.57.12-.86.48-.53.51-.82-.28-.61-.26-.9-.26-.58-.26-.87c0-.15.34-.15.34-.31,0-.3-.28-.57-.29-.86s.14-.59.11-.88-.22-.55-.26-.84-.21-.54-.27-.82.28-.66.21-.94.03-.62-.06-.9-.22-.56-.32-.83.06-.68-.06-.94-.45-.46-.59-.71-.63-.32-.78-.57.04-.73-.12-.97-.16-.64-.34-.87-1.07.13-1.27-.08.12-.92-.09-1.13-.85-.19-1.07-.38c.22-.19.79-.25,1-.45s.21-.61.41-.83.6-.26.78-.49.34-.49.51-.73.03-.68.18-.93.03-.63.17-.89.37-.44.49-.71.66-.35.77-.62.26-.54.35-.82.21-.56.29-.84-.13-.63-.07-.92.24-.55.28-.84.26-.56.29-.86-.51-.62-.5-.92.6-.57.6-.86c0-.15-.59-.15-.59-.31,0-.3.45-.59.44-.89s.21-.62.18-.91-.28-.57-.33-.86-.56-.49-.62-.78-.01-.59-.09-.87-.05-.59-.14-.87-.42-.46-.53-.73-.09-.58-.21-.85.19-.75.05-1.01-.4-.46-.55-.71-.17-.61-.34-.85-.35-.5-.53-.72-.36-.49-.56-.71-.71-.14-.92-.35-.84-.46-1.06-.65c.22-.19.7-.59.92-.8s.46-.34.66-.56.41-.41.59-.64.72-.2.89-.44-.27-.87-.12-1.12.69-.27.83-.53-.14-.71-.02-.98.89-.26,1-.53-.03-.64.06-.92.3-.53.38-.81-.25-.66-.19-.95.67-.48.72-.77-.69-.68-.66-.97.04-.56.06-.86.92-.56.92-.86c0-.15-.1-.15-.1-.31,0-.3-.76-.57-.78-.86s.83-.66.8-.95-.42-.56-.46-.84-.24-.56-.3-.84.3-.69.23-.97-.19-.58-.28-.86-.69-.39-.8-.66.35-.8.23-1.06-1.05-.15-1.18-.4.39-.9.24-1.15-.61-.32-.78-.56-.69-.2-.87-.43.1-.85-.09-1.07-.69-.15-.9-.36-.02-.53-.24-.72c.22-.19.14-.4.35-.61s.7-.15.9-.37.35-.5.53-.73.36-.48.53-.72.21-.57.37-.83.39-.46.53-.73-.1-.7.02-.97.46-.44.56-.72-.25-.7-.16-.98.73-.39.81-.67.1-.59.16-.88.18-.57.23-.86-.54-.65-.51-.95.24-.55.25-.85.32-.57.32-.87c0-.15-.38-.15-.38-.31,0-.3-.07-.57-.08-.86s.13-.59.1-.88.3-.63.25-.92-.25-.56-.31-.84.05-.62-.03-.9-.38-.51-.47-.78.16-.69.05-.96-.46-.46-.58-.72.1-.72-.03-.98-.69-.3-.84-.55.08-.77-.09-1.01-.39-.48-.57-.71-.89-.03-1.08-.25.02-.84-.19-1.04-.42-.14-.65-.32c.22-.19-.06-.63.15-.84s.99.14,1.19-.08-.05-.82.14-1.05.18-.58.35-.82.58-.31.73-.56.17-.57.31-.83.16-.56.28-.83.24-.52.35-.79.02-.59.12-.87.84-.36.91-.64.05-.6.11-.89,0-.6.05-.89.16-.57.19-.87.35-.57.37-.87-.33-.61-.33-.9c0-.15.1-.15.1-.31,0-.3.05-.6.04-.89s.08-.61.05-.9-.28-.57-.32-.86-.27-.55-.33-.84.22-.67.15-.95-.43-.5-.52-.78.08-.67-.02-.94-.82-.29-.94-.56.45-.88.32-1.14-.48-.43-.63-.68-.62-.31-.78-.55-.33-.49-.51-.71-.19-.61-.39-.83-.25-.6-.46-.8-.44-.11-.67-.3c.22-.19.35-.21.56-.41s.15-.68.34-.9.32-.48.51-.71.5-.35.67-.59,0-.68.15-.94.57-.33.71-.59.22-.54.35-.8,0-.62.11-.89.99-.27,1.08-.55.14-.59.22-.88-.34-.69-.28-.98.37-.53.42-.82-.48-.65-.45-.94-.06-.57-.05-.87.65-.56.65-.86c0-.15-.12-.15-.12-.31,0-.3-.48-.57-.5-.86s.27-.6.24-.89-.09-.57-.13-.86.21-.64.15-.92.15-.66.08-.94-.76-.4-.85-.67.32-.74.21-1.01-.74-.33-.86-.6-.18-.55-.32-.81-.19-.56-.34-.81-.63-.27-.8-.51-.09-.64-.27-.87-.4-.42-.59-.64-.01-.82-.22-1.02-.23-.13-.45-.32c.22-.19.32-.03.53-.24s-.26-1.06-.06-1.28.41-.38.59-.61.5-.34.67-.58.48-.38.63-.63.74-.27.88-.53-.61-.95-.48-1.22.95-.23,1.06-.5-.33-.74-.24-1.02.44-.47.52-.76.11-.57.17-.86.44-.52.48-.82-.06-.61-.03-.9.25-.58.26-.88-.61-.6-.61-.9c0-.15.76-.15.76-.31,0-.3-.24-.6-.25-.89s-.2-.58-.23-.87-.01-.6-.05-.89.1-.63.04-.92-.53-.49-.61-.77-.25-.53-.34-.81.43-.79.32-1.06-.4-.49-.53-.76-.93-.19-1.07-.45.44-.92.29-1.17-.5-.4-.66-.64-.49-.38-.67-.6-.36-.47-.55-.69-.42-.42-.63-.62-.85-.41-1.07-.59c.22-.19,1.18-.06,1.39-.26s-.11-.93.09-1.14.73-.14.92-.37.54-.35.71-.59.19-.6.34-.85-.06-.71.08-.97.86-.24.98-.51.25-.56.36-.83-.66-.86-.57-1.14.43-.46.51-.75-.15-.62-.09-.91.87-.43.92-.72-.22-.63-.19-.92.53-.56.54-.85-.05-.61-.05-.91c0-.15.04-.15.04-.31,0-.3-.78-.57-.79-.86s.79-.66.76-.95-.64-.52-.68-.81-.43-.51-.49-.79.44-.7.36-.98-.09-.6-.18-.87-.26-.55-.36-.82-.56-.4-.68-.67-.37-.45-.51-.71.05-.69-.11-.94-.29-.52-.45-.76-.66-.23-.84-.46.02-.78-.18-.99-.47-.38-.68-.58-.52-.35-.75-.53c.22-.19.22-.65.43-.86s.91.07,1.11-.15-.05-.82.13-1.05.85-.1,1.02-.34-.31-.9-.16-1.15.44-.4.58-.66.42-.44.54-.7.62-.38.73-.66-.28-.73-.19-1.01-.09-.62-.01-.91.4-.49.46-.78.68-.48.73-.77.01-.61.04-.9-.7-.64-.69-.94.6-.57.6-.86c0-.15-.51-.15-.51-.31,0-.3,0-.57,0-.86s.66-.64.63-.93-.87-.48-.92-.77.68-.72.62-1.01-.08-.61-.15-.89-.13-.6-.22-.88-.33-.53-.44-.8-.42-.47-.54-.74.04-.69-.1-.95-1.05-.08-1.21-.33-.19-.55-.36-.79-.15-.6-.33-.83-.45-.38-.64-.59-.49-.32-.7-.52.2-.65-.02-.83c.22-.19.05-.38.26-.59s.21-.59.41-.81.97.04,1.15-.19.32-.53.49-.77-.43-.97-.28-1.23,1.09-.06,1.22-.32.05-.65.17-.92-.37-.78-.26-1.06.43-.45.52-.73.47-.47.55-.75-.12-.63-.06-.92.13-.56.18-.85.59-.52.62-.81-.34-.62-.33-.92-.24-.58-.24-.88c0-.15.21-.15.21-.31,0-.3-.13-.58-.14-.87s.02-.58,0-.87-.12-.57-.16-.86.51-.7.45-.98-.55-.49-.62-.77-.31-.52-.4-.79.39-.77.29-1.05-.53-.43-.65-.7-.27-.53-.4-.79-.79-.22-.94-.47-.18-.56-.34-.8,0-.73-.17-.96-.32-.51-.52-.73-.65-.19-.86-.39-.27-.54-.49-.72c.22-.19.33-.47.54-.67s.56-.27.75-.49.66-.23.84-.46-.11-.82.06-1.06.22-.54.37-.79.83-.2.97-.47-.08-.7.04-.97.37-.48.48-.76.33-.51.42-.79-.09-.64-.01-.93.11-.57.17-.86.33-.54.37-.83-.15-.61-.12-.9.27-.57.29-.86-.37-.59-.37-.89c0-.15.08-.15.08-.31,0-.3.05-.58.04-.87s.18-.6.15-.89-.51-.52-.56-.81.77-.74.71-1.03-.62-.47-.69-.76-.61-.42-.7-.7.02-.61-.09-.88.25-.74.13-1.01-.4-.47-.54-.73-.13-.61-.28-.86-.19-.6-.36-.84-.64-.28-.82-.5-.51-.34-.7-.56-.14-.69-.35-.89-.85-.22-1.07-.4c.22-.19.54-.53.75-.74s.6-.23.8-.45.26-.54.45-.77.12-.62.28-.87.43-.4.58-.65.25-.51.39-.77.24-.52.36-.78.57-.39.68-.66.3-.52.39-.8.35-.52.42-.81-.27-.67-.21-.96.65-.49.69-.78-.48-.66-.45-.95.4-.56.41-.85-.41-.6-.41-.89c0-.15.36-.15.36-.31,0-.3.26-.61.24-.9s-.6-.55-.63-.84-.32-.54-.36-.83.39-.66.33-.95-.58-.46-.66-.74.66-.81.57-1.09-.64-.41-.74-.68-.21-.55-.33-.82-.26-.53-.39-.79,0-.69-.15-.94-.21-.6-.37-.84-.76-.19-.94-.42-.07-.73-.26-.95-.79-.07-1-.27-.46-.51-.68-.69c.22-.19.26-.71.47-.91s1.05.2,1.25-.01.08-.72.26-.95.23-.55.4-.8.01-.67.17-.92.73-.24.87-.5-.2-.73-.07-1,.35-.46.45-.74.99-.27,1.08-.55-.33-.72-.26-1-.08-.61-.02-.9.73-.46.77-.76-.15-.62-.12-.91-.2-.6-.19-.9.28-.58.28-.87c0-.15-.46-.15-.46-.31,0-.3-.09-.57-.1-.86s.42-.61.39-.9.2-.63.16-.92-.27-.56-.33-.85-.6-.46-.68-.74-.1-.57-.19-.84.11-.65,0-.93-.58-.38-.7-.65.38-.84.24-1.1-.72-.27-.87-.52-.51-.34-.68-.58.28-.93.1-1.16-.43-.43-.63-.65-.83,0-1.04-.21-.37-.65-.59-.84c.22-.19.55-.46.76-.67s.44-.38.64-.6.76-.14.94-.37.43-.44.6-.69.03-.7.18-.95-.08-.71.06-.97.49-.4.61-.67.64-.37.75-.65-.59-.83-.5-1.11.42-.47.49-.75.38-.51.44-.8-.08-.61-.03-.9-.08-.59-.05-.88.03-.57.04-.86.69-.57.69-.87c0-.15-.41-.15-.41-.31,0-.3.21-.6.19-.89s-.08-.59-.11-.88-.16-.58-.2-.87.03-.61-.03-.89-.17-.57-.24-.86-.28-.53-.37-.81-.43-.46-.53-.74-.09-.59-.21-.86-.36-.47-.49-.73.03-.69-.12-.94-.67-.26-.83-.5-.1-.64-.28-.87-.3-.52-.5-.73-.63-.19-.84-.4.16-.59-.07-.78c.22-.19-.14-.58.07-.78s.91.06,1.11-.16-.32-1.03-.13-1.26.86-.07,1.03-.32-.01-.7.14-.95.08-.6.22-.86.78-.26.9-.53.45-.46.56-.73-.39-.76-.3-1.04.4-.48.48-.76.69-.45.75-.74-.34-.67-.29-.96-.1-.6-.07-.89.36-.56.38-.86.19-.59.19-.89c0-.15-.17-.15-.17-.31,0-.3.09-.6.08-.89s-.2-.58-.23-.87-.28-.56-.33-.84-.08-.58-.14-.86.05-.62-.02-.9-.38-.5-.47-.78.23-.71.12-.98-.23-.56-.35-.82-.06-.65-.2-.91-.63-.34-.78-.59-.58-.32-.75-.56-.42-.4-.6-.63.24-.98.05-1.2-.94.08-1.15-.13-.05-.58-.27-.77c.22-.19-.04-.66.18-.87s.41-.39.6-.6.49-.32.68-.55.28-.5.45-.74.59-.3.74-.56-.01-.67.12-.93.19-.54.31-.8.55-.39.66-.67.57-.42.67-.71-.32-.71-.24-.99-.14-.62-.08-.91.35-.51.4-.8.66-.51.69-.8.02-.6.03-.9-.73-.6-.73-.9c0-.15.92-.15.92-.31,0-.3-.04-.61-.06-.9s-.91-.52-.94-.81.69-.68.64-.97-.77-.46-.83-.74.16-.63.09-.91.09-.65,0-.92-.21-.56-.32-.83-.46-.45-.58-.71.05-.69-.09-.94-.22-.57-.37-.82-1-.05-1.16-.29-.32-.46-.5-.69-.17-.6-.37-.81-.55-.25-.76-.46-.02-.73-.24-.91c.22-.19.22-.51.44-.71s.34-.46.54-.68.28-.5.46-.74.26-.5.43-.75.55-.31.7-.57.83-.21.97-.47-.31-.81-.19-1.08.15-.55.26-.83.39-.47.48-.75.01-.59.09-.88.74-.43.8-.72.13-.59.18-.88-.45-.65-.42-.95-.22-.59-.2-.88.03-.56.03-.86c0-.15-.02-.15-.02-.31,0-.3.45-.59.44-.88s-.07-.58-.1-.87-.42-.53-.46-.82.35-.65.29-.94-.03-.61-.1-.89-.74-.39-.83-.66.55-.82.45-1.09-.71-.35-.83-.61-.35-.47-.48-.73.1-.73-.05-.98-.45-.41-.62-.65-.26-.54-.44-.77-.15-.67-.34-.88-.72-.13-.93-.34-.18-.43-.41-.62c.22-.19-.08-.69.14-.9s.77-.05.97-.27.12-.66.3-.89.52-.33.69-.57.71-.25.86-.5-.09-.74.04-1,0-.64.11-.91.66-.35.77-.62-.11-.66-.02-.94.24-.53.32-.81-.07-.6,0-.89.3-.53.35-.82-.2-.6-.17-.89.04-.56.05-.86.5-.56.5-.86c0-.15.37-.15.37-.31,0-.3-.03-.61-.05-.9s-.4-.57-.43-.86-.24-.56-.28-.85.18-.63.12-.91-.59-.46-.66-.74.17-.65.08-.93-.13-.58-.24-.85-.38-.47-.5-.74-.03-.64-.17-.9-.59-.33-.75-.58-.24-.53-.41-.77-.13-.63-.31-.86-.37-.47-.56-.68-.3-.55-.51-.75-.46-.22-.68-.41c.22-.19.4-.28.61-.49s.56-.29.76-.51-.02-.79.16-1.02.49-.36.66-.6.28-.51.43-.76.71-.28.85-.54,0-.67.12-.94.17-.57.28-.84.53-.44.62-.72-.57-.78-.49-1.06.67-.43.73-.72-.29-.64-.25-.94.39-.53.42-.83-.43-.61-.41-.9.23-.56.23-.86c0-.15.43-.15.43-.31,0-.3.06-.6.05-.89s-.21-.58-.24-.87-.13-.58-.18-.87-.42-.52-.48-.8.12-.62.04-.91-.44-.47-.53-.75.57-.83.46-1.1-.95-.24-1.07-.51-.2-.54-.34-.8.07-.71-.08-.96-.01-.72-.18-.96-1.02.02-1.2-.21.2-.94,0-1.16-.66-.2-.87-.41-.65-.35-.87-.54c.22-.19.78-.22.99-.42s-.08-.88.12-1.1.93.03,1.12-.2.26-.55.43-.79.47-.41.62-.66-.03-.7.11-.96.05-.62.17-.89.55-.4.66-.67-.03-.63.06-.91.17-.55.24-.83-.06-.6,0-.89.9-.43.94-.72-.21-.63-.18-.92-.28-.6-.26-.9.57-.57.57-.87Z"/>
  </g>
</svg>