<?xml version="1.0" encoding="UTF-8"?>
<svg id="Layer_2" data-name="Layer 2" xmlns="http://www.w3.org/2000/svg" viewBox="0 0 877.84 877.82">
  <defs>
    <style>
      .cls-1 {
        fill: #fcf5e5;
      }
    </style>
  </defs>
  <g id="Layer_1-2" data-name="Layer 1">
    <path class="cls-1" d="M871.22,15.34c.08-.27.68-.48.74-.76s-.18-.63-.14-.91-.44-.6-.42-.89.8-.53.8-.82c0-.3-.6-.59-.63-.89s.23-.63.19-.93-.21-.58-.28-.87-.57-.45-.66-.73-.04-.6-.16-.88.3-.8.16-1.07-.86-.21-1.02-.46.36-.97.18-1.22-1.03.04-1.23-.19.12-.93-.09-1.14-.78-.06-1.01-.25-.33-.54-.58-.72-.73.03-.99-.13-.41-.45-.68-.58-.48-.37-.76-.48-.39-.72-.68-.81-.81.68-1.11.61-.55-.11-.85-.16-.52-.53-.83-.56-.6.08-.9.08c-.12,0-.12.19-.25.19-.31,0-.65-.57-.95-.55s-.64.05-.95.1-.58.33-.88.4-.51.46-.8.56-.78-.29-1.06-.16-.42.58-.69.73-.54.3-.8.46-.37.53-.61.72-.81,0-1.04.2-.56.35-.77.57-.3.59-.5.83-.27.08-.45.34c-.18-.26-.62.2-.81-.04s-.04-.78-.25-1.01-.28-.63-.52-.84-.62-.26-.87-.45-.72-.05-.98-.22-.58-.2-.85-.34-.24-.95-.52-1.07-.69.01-.99-.09-.62-.1-.93-.18-.67.28-.98.23-.55-.45-.87-.47-.62-.15-.93-.15c-.12,0-.12.47-.25.47-.31,0-.66-.84-.97-.81s-.59.5-.89.55-.63.07-.93.15-.64.08-.93.18-.57.29-.85.41-.37.65-.64.79-.78-.13-1.05.04-.67.16-.92.35-.04.93-.27,1.14-.32.52-.53.74-.53.32-.72.56-.62.5-.79.76c-.18-.26-.18-.85-.38-1.09s-.94.01-1.15-.21-.05-.81-.28-1.02-.41-.49-.66-.68-.57-.28-.83-.45-.66-.08-.94-.22-.48-.41-.76-.53-.69.13-.98.03-.51-.33-.82-.41-.5-.63-.81-.68-.67.44-.98.41-.59-.31-.9-.31c-.12,0-.13-.21-.25-.21-.31,0-.6.47-.91.49s-.63-.14-.93-.09-.67-.15-.97-.08-.59.23-.89.33-.47.51-.75.63-.73-.09-1,.06-.37.61-.63.77-.87-.14-1.11.05-.44.49-.67.69.08.97-.13,1.19-1.05-.1-1.24.14-.09.9-.26,1.16c-.18-.26-.54-.54-.73-.78s-.39-.46-.6-.69-.2-.68-.43-.89-.75-.05-1-.23-.38-.51-.64-.67-.59-.19-.86-.33-.53-.26-.82-.38-.56-.19-.86-.29-.56-.2-.86-.27-.58-.09-.89-.14-.53-.69-.85-.72-.64.37-.95.37c-.12,0-.12.23-.25.23-.31,0-.66-.89-.97-.86s-.57.6-.88.65-.71-.29-1.01-.21-.47.65-.76.75-.79-.29-1.07-.17-.29.85-.56,1-.91-.31-1.17-.14-.22.8-.46.99-.78.04-1.02.25-.3.61-.52.83-.46.44-.65.68-.25.73-.42.98c-.18-.26-.46-.56-.65-.8s-.41-.45-.62-.68-.28-.6-.51-.81-.69-.12-.94-.31-.3-.64-.56-.81-.36-.66-.63-.81-.76.11-1.05-.01-.58-.22-.87-.32-.53-.44-.83-.51-.63-.12-.94-.17-.62-.25-.93-.27-.65.09-.96.09c-.12,0-.13-.17-.25-.17-.31,0-.62.52-.93.55s-.58.27-.89.32-.74-.48-1.04-.41-.38.91-.67,1.01-.86-.52-1.14-.39-.66.14-.93.28-.53.4-.79.57-.43.51-.68.7-.6.29-.83.49-.32.59-.53.81-.42.47-.61.71-.3.95-.48,1.2c-.18-.26-.49-.8-.68-1.04s-.52-.35-.73-.57-.2-.66-.44-.87-.18-.78-.43-.97-.53-.38-.8-.55-.8.1-1.07-.04-.71.09-.99-.04-.3-.93-.6-1.02-.72.22-1.02.15-.64.13-.95.08-.54-.65-.85-.67-.63-.19-.94-.19c-.12,0-.12.52-.25.52-.31,0-.6.13-.91.16s-.64-.21-.94-.17-.69-.2-.99-.13-.58.29-.87.39-.47.52-.75.64-.81-.23-1.08-.09-.4.59-.66.75-.23.73-.47.92-.84-.06-1.07.15-.48.41-.69.64-.16.68-.36.92-.53.59-.71.85c-.18-.26-.05-.98-.25-1.22s-.63-.3-.85-.52-.28-.63-.51-.84-.65-.22-.89-.41-.52-.36-.78-.53-.36-.66-.64-.8-.6-.26-.89-.38-.62-.21-.91-.31-.83.64-1.13.56-.47-.75-.77-.8-.67.51-.99.48-.58-.24-.9-.24c-.12,0-.13-.03-.25-.03-.31,0-.62-.18-.93-.15s-.7-.43-1-.38-.44.97-.74,1.05-.64-.06-.93.04-.59.16-.87.29-.82-.25-1.1-.11-.31.73-.57.9-.61.21-.86.4-.51.38-.74.59-.72.18-.93.41.05.89-.14,1.13-.5.83-.67,1.09c-.18-.26-.31-.98-.51-1.22s-.35-.53-.56-.76-.7-.16-.93-.37-.41-.45-.66-.64-.55-.26-.81-.43-.17-.95-.45-1.1-.9.44-1.19.32-.48-.41-.78-.51-.49-.54-.79-.62-.68.2-.98.15-.61-.05-.92-.08-.61.13-.92.13c-.12,0-.13-.67-.25-.67-.31,0-.62.37-.93.39s-.65-.13-.96-.08-.48.73-.78.8-.71-.28-1.01-.19-.38.69-.67.81-.64.03-.91.18-.8-.13-1.06.03-.47.44-.71.63-.68.19-.91.39-.43.5-.64.72-.4.51-.6.75-.15.3-.33.55c-.18-.26-.36-.13-.55-.37s-.77-.13-.98-.35-.2-.64-.44-.85-.43-.43-.68-.61-.68-.07-.94-.24-.3-.66-.58-.81-.51-.35-.8-.48-.69.1-.98,0-.52-.35-.82-.42-.6-.09-.91-.14-.58-.33-.89-.36-.62-.48-.93-.48c-.12,0-.13,0-.25,0-.31,0-.59.94-.89.96s-.61-.12-.92-.07-.76-.57-1.06-.5-.52.5-.82.6-.64.09-.93.21-.71.02-.98.17-.33.71-.59.88-.77,0-1.02.2.01,1-.22,1.2-.69.16-.9.39-.07.74-.26.98-.74.58-.91.84c-.18-.26-.21-1.01-.4-1.25s-.49-.41-.71-.63-.61-.26-.84-.47-.33-.57-.57-.76-.54-.31-.81-.48-.39-.58-.67-.73-.84.34-1.13.22-.39-.68-.69-.78-.58-.26-.88-.33-.57-.44-.87-.49-.67.1-.98.08-.64.31-.95.31c-.12,0-.12.39-.25.39-.31,0-.64-.65-.95-.63s-.56.54-.86.59-.57.2-.87.27-.68-.16-.97-.06-.63.1-.91.22-.35.67-.63.82-.62.13-.88.29-.41.46-.66.65-.46.37-.69.58-.54.3-.75.53-.36.48-.56.72-.59.41-.77.66c-.18-.26-.14-.77-.33-1.01s-.97.04-1.19-.19-.23-.62-.46-.83-.52-.32-.76-.5-.46-.39-.72-.55-.4-.53-.67-.67-.67-.01-.95-.14-.44-.54-.74-.64-.53-.46-.83-.53-.72.39-1.02.34-.55-.69-.86-.71-.65.27-.96.27c-.12,0-.12.28-.25.28-.31,0-.61.02-.91.04s-.67-.35-.97-.3-.51.6-.81.67-.68-.14-.97-.04-.74-.16-1.03-.04-.55.37-.82.51-.66.16-.92.33-.24.77-.49.96-.67.18-.9.38,0,.89-.21,1.11-.52.34-.71.58-.58.74-.75.99c-.18-.26-.16-1.08-.35-1.32s-.33-.57-.54-.8-.87,0-1.1-.21-.34-.55-.59-.74-.62-.17-.88-.34-.34-.64-.61-.79-.68-.02-.96-.14-.45-.55-.75-.65-.69.15-.99.08-.54-.44-.85-.49-.64.1-.95.08-.61-.57-.93-.57c-.12,0-.12.48-.25.48-.31,0-.62.02-.93.04s-.66-.18-.96-.13-.61.2-.91.27-.71-.12-1-.02-.55.39-.83.51-.3.81-.57.95-.45.39-.71.56-.48.33-.73.51-1.02-.27-1.25-.06-.24.67-.45.89-.08.74-.28.98-.7.12-.88.37c-.18-.26-.24-.49-.43-.73s-.44-.45-.66-.68-.64-.22-.88-.43-.63-.17-.88-.35-.11-.91-.37-1.08-.79.13-1.06-.02-.24-.93-.53-1.06-.62-.2-.91-.3-.68.06-.98-.02-.58-.33-.89-.38-.68.43-.99.41-.6-.31-.91-.31c-.12,0-.12.08-.25.08-.31,0-.61.11-.92.13s-.69-.41-.99-.36-.48.78-.78.86-.82-.58-1.11-.48-.25,1.08-.54,1.2-.55.21-.82.36-.49.31-.75.48-.9-.23-1.15-.04-.27.65-.5.86-.55.32-.76.54-.59.32-.78.56-.22,1.04-.39,1.29c-.18-.26-.04-1.18-.23-1.42s-.8-.14-1.01-.37-.55-.31-.78-.51-.28-.61-.53-.8-.45-.45-.71-.61-.79.16-1.07,0-.32-.74-.6-.86-.61-.15-.91-.25-.49-.58-.8-.65-.7.28-1.01.23-.59-.32-.9-.34-.63-.24-.95-.24c-.12,0-.12.03-.25.03-.31,0-.59.84-.89.86s-.61-.08-.91-.03-.62-.03-.92.04-.71-.21-1-.11-.45.56-.74.68-.54.28-.81.42-.89-.27-1.15-.1-.3.69-.55.88-.66.2-.89.41-.02.87-.23,1.1-.42.43-.61.67-.61.12-.79.38c-.18-.26-.31-.36-.51-.61s-.54-.35-.75-.58-.66-.18-.89-.39-.11-.82-.36-1.01-.81.1-1.07-.07-.15-.97-.42-1.11-.61-.21-.89-.33-.76.27-1.06.17-.47-.58-.77-.65-.67.24-.98.19-.56-.48-.87-.51-.63.05-.94.05c-.12,0-.12.51-.25.51-.31,0-.61-.33-.92-.3s-.67-.34-.98-.29-.54.49-.84.56-.75-.33-1.05-.23-.56.34-.85.46-.29.83-.56.97-.48.35-.74.52-.93-.25-1.17-.07-.22.72-.45.93-.82.06-1.03.28-.22.66-.41.9-.32.87-.5,1.13c-.18-.26,0-1.13-.2-1.37s-.54-.4-.75-.62-.97.12-1.2-.09-.31-.55-.56-.74-.16-.86-.43-1.02-.77.08-1.05-.07-.37-.67-.66-.79-.74.19-1.04.09-.6-.1-.9-.17-.6-.05-.91-.1-.54-.62-.86-.65-.64.55-.95.55c-.12,0-.13-.08-.25-.08-.31,0-.62-.2-.93-.17s-.67-.27-.97-.22-.55.44-.85.51-.64.04-.93.14-.58.24-.86.36-.51.36-.79.51-.71.03-.97.2-.27.7-.52.89-.86-.06-1.09.15.02.92-.19,1.14-.43.41-.63.65-.59.29-.77.55c-.18-.26-.54-.33-.74-.57s-.2-.64-.42-.86-.41-.48-.64-.69-.32-.61-.57-.8-.95.29-1.22.13-.24-.79-.51-.94-.4-.66-.68-.79-.83.39-1.12.29-.63.02-.93-.06-.43-1-.74-1.05-.73.83-1.04.8-.58-.41-.9-.41c-.12,0-.12.08-.25.08-.31,0-.61.06-.92.08s-.7-.53-1.01-.48-.58.38-.88.45-.48.56-.77.66-.51.34-.79.46-.91-.46-1.18-.31-.58.31-.84.47-.03,1.04-.28,1.23-.55.26-.78.47-.7.16-.91.38-.21.63-.41.87-.56.66-.73.92c-.18-.26-.3-.87-.5-1.11s-.64-.25-.86-.48-.15-.73-.38-.94-.71-.11-.96-.29-.58-.21-.84-.38-.12-1.02-.4-1.16-.67-.1-.95-.22-.59-.25-.88-.34-.72.28-1.03.21-.59-.07-.9-.12-.52-.87-.83-.9-.65.31-.97.31c-.12,0-.12.11-.25.11-.31,0-.65-.27-.95-.25s-.6.31-.91.36-.61.13-.91.2-.68-.08-.98.02-.47.53-.75.66-.44.49-.71.63-.48.35-.74.52-.92-.24-1.16-.05-.35.58-.58.78-.73.17-.94.39-.37.54-.56.79-.13,1.02-.3,1.28c-.18-.26-.29-.89-.48-1.13s-.43-.46-.64-.69-.61-.25-.84-.46-.36-.53-.6-.72-.65-.14-.91-.3-.31-.69-.58-.84-.46-.52-.75-.64-.78.27-1.07.17-.47-.63-.77-.7-.68.16-.99.11-.63.11-.94.09-.6-.17-.92-.17c-.12,0-.12.42-.25.42-.31,0-.61-.25-.91-.23s-.6.08-.9.13-.56.24-.86.32-.67-.13-.96-.03-.75-.18-1.03-.06-.33.77-.6.92-.72,0-.98.16-.23.75-.47.94-.39.45-.62.66-.44.39-.65.61-.91.01-1.11.25-.21.51-.39.77c-.18-.26-.02-.67-.22-.91s-.86-.09-1.07-.31-.45-.4-.68-.61-.53-.29-.78-.48-.18-.82-.44-.99-.89.32-1.17.17-.32-.72-.61-.84-.49-.49-.78-.59-.61-.2-.91-.27-.6-.28-.91-.33-.7.53-1.01.5-.6-.19-.92-.19c-.12,0-.12.14-.25.14-.31,0-.62-.13-.93-.11s-.57.35-.88.39-.75-.55-1.05-.47-.59.27-.89.37-.43.62-.72.74-.47.41-.74.56-.66.06-.92.23-.66.14-.91.33-.23.69-.46.9-.51.34-.73.57-.55.34-.74.58-.36.45-.54.71c-.18-.26-.12-.65-.31-.89s-1,.06-1.21-.17-.07-.79-.31-.99-.36-.55-.61-.73-.73-.03-.99-.2-.48-.39-.75-.53-.6-.16-.88-.28-.43-.61-.72-.71-.52-.51-.83-.59-.7.23-1.01.18-.63.02-.94,0-.62.32-.93.32c-.12,0-.13-.16-.25-.16-.31,0-.64-.41-.95-.38s-.55.59-.86.64-.78-.66-1.08-.59-.52.54-.81.64-.72-.08-1,.04-.18,1.05-.46,1.2-.66.05-.92.22-.43.43-.68.62-.75.05-.98.26-.07.8-.28,1.03-.46.38-.65.62-.65.17-.83.43c-.18-.26-.21-.53-.41-.77s-.49-.41-.7-.64-.5-.38-.73-.59-.51-.35-.76-.53-.69-.06-.95-.23-.15-.96-.43-1.1-.54-.36-.83-.49-.61-.21-.91-.31-.79.5-1.09.42-.44-.96-.75-1.01-.68.22-.99.19-.63.38-.94.38c-.12,0-.13-.06-.25-.06-.31,0-.59.24-.9.26s-.73-.8-1.03-.75-.61.28-.91.35-.38.9-.67,1-.91-.64-1.19-.51-.41.64-.68.78-.66.12-.92.29-.44.48-.68.67-.64.22-.87.43-.21.69-.42.91-.84.11-1.03.35-.01,1.14-.19,1.39c-.18-.26-.44-.79-.64-1.03s0-.85-.21-1.08-.56-.36-.79-.56-.81,0-1.05-.19-.45-.41-.72-.58-.54-.29-.81-.43-.49-.39-.77-.52-.63-.05-.93-.15-.43-.76-.73-.83-.62-.18-.93-.23-.71.75-1.02.73-.58-.57-.89-.57c-.12,0-.13-.27-.25-.27-.31,0-.63.32-.93.34s-.54.56-.85.6-.6,0-.9.07-.63-.03-.93.07-.62.1-.9.22-.53.32-.8.46-.44.45-.7.62-.46.39-.7.57-.64.18-.87.38-.56.31-.77.54-.35.51-.55.76-.42.38-.59.64c-.18-.26-.3-.48-.5-.72s-.27-.61-.48-.83-.37-.54-.6-.75-.56-.33-.81-.52-.81.07-1.07-.09-.3-.71-.58-.85-.66-.06-.95-.19-.48-.49-.78-.59-.56-.39-.86-.46-.7.25-1.01.2-.58-.47-.9-.5-.65.08-.96.08c-.12,0-.12.12-.25.12-.31,0-.59.6-.9.63s-.65-.35-.96-.3-.53.44-.83.51-.59.11-.88.21-.8-.34-1.08-.22-.33.76-.6.91-.63.13-.89.3-.28.64-.53.83-1.09-.34-1.32-.13-.34.58-.56.81.06.88-.14,1.12-.65-.15-.82.11c-.18-.26-.23-.19-.42-.43s-.29-.6-.5-.82-.6-.3-.83-.51-.66-.17-.91-.36-.15-.88-.42-1.05-.81.13-1.08-.02-.59-.17-.88-.3-.53-.32-.82-.42-.6-.13-.9-.21-.55-.36-.86-.41-.62-.03-.94-.06-.62.14-.93.14c-.12,0-.12.03-.25.03-.31,0-.65-.49-.96-.46s-.66,0-.96.04-.49.75-.79.82-.52.35-.81.45-.67-.07-.95.05-.75-.11-1.02.03-.45.49-.71.66-.64.18-.89.37-.52.38-.75.59-.1.79-.31,1.02-.37.47-.57.71-.61-.07-.79.19c-.18-.26-.34-.15-.53-.39s-.38-.5-.59-.73-.3-.61-.53-.81-.8-.01-1.04-.2-.43-.45-.69-.62-.39-.58-.66-.72-.73.09-1.01-.04-.48-.46-.77-.56-.7.24-1,.17-.43-1.02-.73-1.07-.66-.05-.97-.08-.65.21-.97.21c-.12,0-.12.7-.25.7-.31,0-.64-.64-.94-.62s-.59.32-.9.37-.72-.37-1.02-.3-.57.37-.86.47-.6.22-.88.34-.53.35-.81.5-.49.4-.75.57-.79-.03-1.04.16-.28.67-.51.88-.28.6-.49.82-.56.32-.76.57-.37.54-.54.79c-.18-.26-.16-.71-.35-.95s-.95.02-1.16-.21-.04-.83-.27-1.04-.28-.67-.52-.86-.75-.04-1.01-.21-.32-.71-.6-.86-.6-.27-.89-.39-.89.6-1.18.5-.44-.64-.74-.71-.53-.6-.84-.65-.69.42-1,.4-.61-.44-.93-.44c-.12,0-.13-.03-.25-.03-.31,0-.59.85-.9.87s-.71-.71-1.01-.66-.66.04-.96.12-.63.18-.92.28-.4.73-.68.85-.62.13-.89.28-.77-.06-1.03.11-.55.35-.8.54-.11.86-.34,1.07-.42.44-.63.66-.43.43-.62.67-.53.79-.71,1.05c-.18-.26-.31-.97-.51-1.21s-.35-.53-.57-.75-.23-.69-.46-.9-1.05.29-1.29.11-.05-1.01-.31-1.17-.68-.09-.96-.24-.66-.05-.94-.17-.47-.5-.76-.6-.71.28-1.02.21-.47-.78-.78-.83-.66.22-.97.2-.61.33-.93.33c-.12,0-.13-.78-.25-.78-.31,0-.59.84-.9.87s-.64-.28-.94-.23-.67-.18-.97-.1-.61.17-.91.27-.35.8-.63.92-.85-.35-1.12-.21-.43.52-.69.69-.31.61-.56.8-1.01-.24-1.24-.03-.06.85-.27,1.08-.31.53-.5.77-.59.41-.77.67c-.18-.26-.03-.86-.22-1.11s-.78-.16-.99-.39-.65-.2-.88-.41-.36-.51-.6-.69-.17-.86-.43-1.02-.65-.15-.93-.3-.52-.39-.81-.51-.59-.25-.89-.35-.72.25-1.02.17-.52-.54-.83-.59-.66.24-.97.21-.61-.5-.92-.5c-.12,0-.12.59-.25.59-.31,0-.66-.69-.97-.66s-.54.78-.85.83-.69-.27-.99-.19-.55.36-.84.46-.6.15-.89.27-.74-.08-1.02.06-.51.41-.77.57-.58.29-.83.48-.18.77-.41.97-.74.13-.96.36-.46.45-.65.7-.15.65-.32.91c-.18-.26-.69-.21-.89-.45s.18-.98-.03-1.21-.51-.4-.74-.61-.53-.37-.77-.55-.57-.29-.83-.45-.78.14-1.06,0-.21-1-.49-1.12-.68-.01-.98-.11-.65-.01-.95-.09-.52-.61-.83-.66-.67.16-.98.14-.63.19-.95.19c-.12,0-.12.44-.25.44-.31,0-.59,0-.89.03s-.67-.46-.97-.41-.49.63-.79.71-.77-.45-1.06-.36-.5.45-.78.57-.75-.1-1.02.04-.24.82-.5.99-.77-.03-1.02.16-.68.19-.91.4,0,.91-.21,1.14-.7.2-.9.44-.28.4-.45.66c-.18-.26-.43-.28-.63-.52s-.17-.68-.39-.91-.69-.19-.92-.4-.21-.73-.46-.92-.59-.26-.86-.43-.8.16-1.07.01-.42-.51-.71-.63-.48-.48-.77-.58-.72.28-1.02.2-.52-.49-.83-.54-.62.04-.94.02-.61-.51-.92-.51c-.12,0-.12.12-.25.12-.31,0-.61.43-.92.45s-.58.22-.89.27-.65-.15-.95-.08-.72-.21-1.01-.11-.42.66-.71.78-.55.26-.83.4-.78-.09-1.04.07-.27.71-.52.9-.29.59-.52.8-.49.34-.7.57-.85.08-1.04.32-.21.6-.38.86c-.18-.26-.44-.41-.64-.65s-.4-.46-.62-.69-.26-.63-.49-.83-.84.07-1.09-.12-.24-.7-.51-.87-.54-.3-.81-.45-.61-.12-.9-.25-.33-.91-.62-1.01-.82.59-1.13.52-.59-.06-.9-.11-.54-.57-.86-.59-.63.14-.94.14c-.12,0-.12.27-.25.27-.31,0-.66-.79-.97-.77s-.61.35-.92.4-.52.55-.82.63-.6.09-.89.19-.75-.23-1.04-.1-.46.51-.73.65-.7.05-.96.22-.18.82-.43,1.01-.38.47-.61.67-.7.14-.91.37-.8.15-.99.39-.05.87-.22,1.13c-.18-.26-.54-.47-.73-.72s-.24-.61-.45-.83-.44-.44-.67-.64-.55-.3-.8-.49-.61-.18-.87-.35-.32-.66-.59-.81-.77.21-1.05.09-.3-.92-.6-1.02-.71.21-1.01.14-.59-.14-.9-.19-.61,0-.92-.03-.6-.41-.91-.41c-.12,0-.13-.26-.25-.26-.31,0-.6.72-.91.74s-.67-.42-.98-.37-.7-.2-1-.12-.36,1.01-.65,1.11-.85-.49-1.14-.37-.39.65-.66.8-.53.31-.79.47-.7.09-.95.28-.09.86-.32,1.07-.82.03-1.03.26-.21.64-.41.88-.48.85-.66,1.11c-.18-.26-.04-1.21-.24-1.45s-.4-.52-.62-.74-.58-.34-.81-.54-.43-.49-.68-.68-.9.21-1.17.04-.51-.3-.78-.45-.47-.4-.76-.52-.5-.41-.79-.51-.55-.34-.85-.42-.67.2-.98.15-.6,0-.92-.03-.6-.14-.91-.14c-.12,0-.12.07-.25.07-.31,0-.64-.47-.95-.45s-.56.55-.87.6-.76-.58-1.06-.51-.39.92-.68,1.02-.65,0-.93.12-.81-.21-1.08-.07-.58.31-.84.48-.47.46-.72.65-.04.92-.28,1.13-.52.32-.73.55-.81.12-1.01.36-.17.5-.34.75c-.18-.26-.6-.14-.8-.38s-.4-.44-.62-.66-.51-.31-.75-.52-.21-.69-.46-.87-.34-.61-.6-.78-.7-.03-.98-.17-.29-.86-.58-.98-.71.06-1.01-.04-.72.27-1.02.2-.59-.09-.89-.14-.6.06-.91.03-.58-.85-.89-.85c-.12,0-.12.77-.25.77-.31,0-.65-.79-.96-.77s-.62.26-.92.31-.7-.18-1-.11-.33,1.09-.62,1.18-.71-.19-1-.07-.41.54-.68.69-.84-.22-1.1-.05-.36.58-.61.77-.7.14-.93.34-.49.42-.7.64-.44.47-.64.71-.15.57-.33.82c-.18-.26-.41-.36-.6-.6s-.28-.58-.49-.81-.66-.21-.89-.42-.11-.85-.36-1.04-.73-.06-1-.22-.72.05-1-.1-.45-.44-.73-.56-.48-.44-.78-.54-.58-.22-.88-.29-.66.22-.97.17-.55-.56-.86-.59-.63.21-.94.21c-.12,0-.12.2-.25.2-.31,0-.64-.51-.95-.49s-.58.41-.89.46-.69-.24-.99-.17-.49.56-.78.66-.83-.4-1.11-.28-.29.86-.56,1.01-.89-.27-1.15-.1-.12.92-.37,1.11-.95-.16-1.18.05.06.97-.15,1.19-.97-.02-1.17.22-.03.77-.21,1.03c-.18-.26-.16-.67-.35-.91s-.8-.12-1.02-.35-.32-.54-.55-.75-.5-.35-.75-.54-.32-.63-.58-.8-.46-.48-.74-.62-.84.33-1.13.21-.59-.1-.88-.2-.37-.92-.67-.99-.72.43-1.03.38-.6.09-.91.06-.58-.51-.89-.51c-.12,0-.12.13-.25.13-.31,0-.66-.56-.97-.54s-.55.72-.85.77-.64-.06-.94.01-.6.16-.89.26-.6.18-.88.3-.55.29-.82.44-.39.54-.65.71-.92-.23-1.16-.04-.4.53-.63.73-.64.27-.85.49.26,1.06.07,1.3-.74.56-.92.81c-.18-.26-.74-.56-.93-.8s.27-1.06.06-1.29-1.07.21-1.3,0-.41-.41-.66-.6-.36-.52-.62-.69-.3-.72-.57-.87-.53-.38-.82-.5-.68-.02-.97-.12-.55-.39-.85-.46-.64-.07-.95-.12-.65.19-.97.17-.61-.53-.93-.53c-.12,0-.12.93-.25.93-.31,0-.63-.51-.93-.48s-.6.2-.9.25-.6.12-.9.2-.73-.25-1.02-.15-.49.49-.78.61-.56.28-.83.42-.57.25-.84.42-.27.68-.52.86-.9-.12-1.13.09-.47.44-.69.66.04.86-.16,1.1-.63.56-.81.82c-.18-.26-.49-.67-.69-.92s.05-.89-.16-1.11-.71-.19-.94-.4-.5-.37-.75-.56-.52-.34-.78-.51-.76.11-1.03-.03-.15-1.11-.44-1.24-.89.61-1.19.51-.41-.78-.71-.85-.57-.42-.88-.47-.64-.14-.96-.16-.66.9-.97.9c-.12,0-.13-.09-.25-.09-.31,0-.64-.5-.94-.47s-.66-.12-.97-.07-.67-.02-.97.05-.41.86-.7.96-.83-.42-1.12-.3-.4.64-.68.78-.4.53-.66.7-.67.11-.91.3-.23.67-.46.88-.53.31-.74.54-.94.01-1.13.26-.04.34-.21.59c-.18-.26,0-.37-.19-.61s-.45-.48-.66-.71-.87-.01-1.1-.22-.41-.46-.66-.65-.63-.15-.89-.32-.33-.65-.6-.8-.5-.41-.79-.53-.75.24-1.05.15-.5-.46-.8-.54-.62-.05-.92-.1-.58-.4-.89-.42-.63.46-.95.46c-.12,0-.13-.48-.25-.48-.31,0-.64.02-.95.05s-.68-.21-.98-.16-.57.43-.87.5-.48.54-.78.64-.61.11-.89.23-.68.01-.96.16-.33.65-.59.82-.39.47-.64.66-.91-.14-1.14.06-.61.3-.83.52-.1.76-.29,1-.41.06-.58.32c-.18-.26-.24-.19-.44-.43s-.57-.34-.78-.56-.7-.14-.93-.35-.07-.87-.32-1.06-.72-.04-.98-.21-.62-.11-.9-.25-.29-.79-.58-.91-.52-.42-.82-.52-.72.25-1.03.17-.62.07-.93.02-.53-.76-.84-.78-.64.67-.96.67c-.12,0-.13-.69-.25-.69-.31,0-.61.46-.92.48s-.7-.48-1-.43-.45.89-.75.96-.66-.1-.95,0-.53.32-.81.44-.51.33-.78.47-.67.06-.93.23-.68.12-.93.31-.05.9-.28,1.11-.46.37-.67.59-.7.19-.89.43-.41.79-.59,1.05c-.18-.26-.65-.6-.84-.84s-.34-.5-.55-.72.06-.96-.17-1.17-.8-.03-1.05-.22-.53-.32-.79-.48-.39-.56-.67-.71-.46-.53-.74-.65-.84.46-1.14.36-.45-.66-.75-.73-.67.21-.98.16-.6-.01-.91-.04-.6-.02-.91-.02c-.12,0-.12.1-.25.1-.31,0-.63-.47-.94-.45s-.56.46-.87.5-.55.26-.85.33-.63-.03-.92.06-.8-.34-1.08-.22-.65.16-.92.31-.11,1.05-.37,1.22-.59.19-.84.38-.36.5-.59.71-.73.11-.95.34-.06.75-.26.99-.74.45-.92.71c-.18-.26-.26-.85-.45-1.09s-.57-.33-.78-.56-.5-.36-.73-.57-.61-.2-.86-.38-.05-1.01-.31-1.18-.73,0-1.01-.14-.35-.74-.64-.86-.66-.1-.96-.2-.68.06-.98-.01-.69.36-1,.31-.57-.14-.89-.16-.59-.59-.9-.59c-.12,0-.13-.04-.25-.04-.31,0-.64-.03-.95,0s-.57.53-.87.58-.54.35-.84.42-.77-.46-1.06-.36-.7-.03-.99.09-.56.35-.83.49-.52.39-.78.56-.46.46-.7.65-.53.35-.76.56-.51.39-.72.62-.16.69-.36.93-.45.41-.63.67c-.18-.26-.08-.71-.28-.95s-.66-.27-.87-.49-.78-.06-1.02-.26-.43-.39-.68-.58-.14-.87-.4-1.04-.68-.06-.96-.21-.34-.75-.62-.87-.84.46-1.13.36-.43-.69-.74-.77-.6-.23-.91-.28-.66.19-.97.16-.62-.17-.93-.17c-.12,0-.12.11-.25.11-.31,0-.64-.2-.95-.18s-.52.77-.83.82-.81-.83-1.11-.76-.35,1.04-.64,1.14-.89-.58-1.17-.46-.53.4-.8.55-.35.64-.61.81-.66.13-.91.32-.56.32-.79.53-.52.39-.73.61-.43.48-.63.72-.16.42-.33.68c-.18-.26,0-.55-.2-.79s-.94-.01-1.16-.24-.42-.43-.65-.64-.48-.36-.73-.55-.22-.77-.48-.94-.62-.18-.9-.33-.69.03-.97-.1-.33-.88-.63-.97-.77.41-1.07.33-.49-.74-.8-.79-.65-.01-.96-.04-.64-.18-.96-.18c-.12,0-.12.17-.25.17-.3,0-.6.39-.9.41s-.59.09-.89.13-.51.43-.8.5-.62-.07-.9.02-.56.18-.84.29-.72-.13-.99,0-.25.77-.5.93-.92-.29-1.16-.11-.03.93-.26,1.13-.59.22-.8.43-.44.4-.64.63-.8.15-.98.39.27.91.11,1.17-.14.57-.28.84-.3.49-.41.76-.78.34-.88.63.23.69.16.98-.33.54-.37.83-.06.59-.08.9.18.59.18.9-.09.57-.07.86-.23.61-.19.9-.24.67-.17.95.53.48.62.76.16.57.27.84.42.45.55.71-.2.78-.05,1.04.76.22.93.46.1.66.29.89.77.09.97.3.6.69.82.88c-.25.18-.76.53-.99.73s-.43.4-.65.61-.48.36-.68.59-.35.48-.53.73-.14.61-.3.87-.32.48-.47.75-.33.48-.45.77-.3.51-.4.8-.24.55-.31.84-.53.51-.58.82-.21.61-.23.92.43.63.43.94c0,.12.15.13.15.25,0,.31.18.59.2.9s-.65.7-.6,1-.06.68.01.98.31.59.41.88.17.63.29.91.35.55.5.82.4.5.57.77.6.34.78.59.32.53.52.76.25.63.48.84.54.34.78.54.54.34.79.51c-.26.18-.61.25-.85.45s-.58.31-.8.52-.36.54-.57.77-.62.32-.81.57-.33.56-.5.82-.09.69-.23.96.19.76.07,1.05-.27.52-.37.82-.82.4-.9.7.54.73.49,1.04-.88.52-.91.83.63.65.63.96c0,.12.2.13.2.25,0,.31-.72.64-.7.95s.72.54.77.84-.21.66-.13.96.24.57.34.86-.14.72-.02,1.01.82.29.97.56-.33.9-.16,1.16.94.09,1.13.34.09.71.29.94.41.47.63.68.62.21.86.41.74.62.99.79c-.26.18-1.21.03-1.45.23s-.44.48-.67.7-.54.39-.74.62-.08.77-.26,1.01.04.76-.13,1.02-1.07.09-1.22.36.46.91.34,1.19-.94.3-1.04.6.28.74.21,1.04-.44.54-.49.85-.3.61-.33.92.46.65.46.96c0,.12.16.13.16.25,0,.31-.07.61-.05.92s.11.6.16.9-.25.68-.17.98.67.44.77.73,0,.64.12.92-.33.86-.19,1.13.34.57.5.83,1.09,0,1.28.24.16.64.36.87.57.27.8.49.01.91.26,1.11.56.2.81.38c-.26.18-.46.33-.7.52s-.58.29-.81.51-.35.54-.56.77-.44.45-.63.7-.01.74-.18,1-.57.37-.72.65-.32.54-.44.82-.18.59-.28.89-.07.62-.15.92-.45.54-.5.85.41.67.38.98.06.59.06.9c0,.12-.2.12-.2.25,0,.31-.15.62-.12.93s.05.62.1.92.28.57.36.87.07.61.17.9.29.54.41.82-.3.84-.16,1.12,1.03.11,1.2.38-.08.79.11,1.04.79.13,1,.36.1.73.33.95.15.8.39.99.49.06.75.24c-.26.18-.16.47-.4.66s-.36.51-.58.72-.4.44-.61.67-.88.07-1.07.32-.18.65-.35.91-.44.48-.58.75.16.76.04,1.05-.59.43-.69.72-.46.53-.54.83.28.7.23,1.01-.19.6-.21.91.48.62.48.93c0,.12-.68.12-.68.25,0,.31-.2.66-.17.96s.88.52.93.83-.13.64-.06.94.39.51.49.8-.27.75-.14,1.04.01.7.16.98.82.25.99.51.49.38.68.63-.17.94.04,1.17.36.55.59.77.44.5.68.69,1.27,0,1.53.18c-.26.18-1.03.3-1.27.5s-.53.35-.76.56-.6.31-.81.54.14.92-.04,1.17-1,.06-1.17.32.14.81,0,1.09-.24.56-.36.85-.39.51-.48.81-.47.52-.54.83.51.73.46,1.04-.81.53-.84.84.14.65.14.96c0,.12.59.13.59.25,0,.31-.46.63-.43.94s-.24.68-.19.98.72.49.79.79.22.56.31.86.17.58.29.86.26.54.41.81.14.62.31.88.62.3.81.54-.15.91.06,1.14.37.53.6.75.5.4.74.6.61.17.86.34c-.26.18-.28.57-.52.77s-.91-.09-1.14.13.15,1-.06,1.23-.59.28-.78.53-.82.2-.98.46-.12.67-.26.95.22.78.1,1.07-.36.49-.46.79-.35.53-.43.83-.37.56-.42.87-.38.6-.41.91-.05.65-.05.97c0,.12.43.13.43.25,0,.31-.45.66-.43.97s.62.57.67.87.25.57.33.87-.13.68-.03.97.6.42.73.71-.26.81-.11,1.08.1.69.27.95.41.52.6.76.39.53.6.76.56.36.78.58.38.55.62.74.86.05,1.12.23c-.26.18-.52.47-.77.66s-.6.26-.82.47-.61.29-.82.52-.2.66-.39.9-.47.43-.64.69.01.72-.13.99-.43.47-.55.75-.46.49-.56.79.07.67,0,.97-.61.52-.66.83.18.67.16.98.55.63.55.94c0,.12-.23.12-.23.25,0,.31-.07.61-.05.92s.14.59.19.9-.02.63.05.93-.12.69-.03.98.72.38.84.67-.03.69.11.96.18.62.35.88.45.44.64.69.63.27.84.5-.07.93.15,1.15.45.47.69.67.61.1.86.27c-.26.18-.31.47-.55.66s-.46.4-.69.61-.66.23-.87.46.01.81-.17,1.05-.49.39-.66.65-.33.51-.47.78-.41.48-.53.77-.18.59-.27.88-.43.52-.5.83.39.7.34,1.01-.77.53-.79.84.27.64.27.95c0,.12-.51.12-.51.25,0,.31.87.59.89.9s-.19.63-.14.94.05.62.12.92.14.6.24.9.43.49.55.77.14.6.28.88.07.68.24.94.33.54.52.79.4.49.61.72.61.28.83.49.63.19.87.38-.19.7.06.88c-.26.18-.05.41-.29.6s-.21.67-.43.89-.66.2-.86.43-.57.33-.76.58,0,.74-.17,1-.24.54-.39.82-.71.33-.83.62-.47.5-.57.8.16.7.09,1.01-.14.6-.19.91-.27.6-.29.91-.05.63-.05.94c0,.12.03.13.03.25,0,.31.09.63.11.94s.03.63.08.93.09.62.17.92.64.45.74.74.13.59.25.87-.4.88-.25,1.16.68.34.85.6.51.39.7.63.29.55.5.78.65.2.87.42.29.57.53.76-.08.57.18.74c-.26.18.14.64-.1.84s-.6.23-.83.44-.78.11-.99.35-.5.43-.69.68-.34.56-.51.82.18.83.03,1.1-.9.27-1.03.55.63.91.53,1.2-.74.42-.81.72.26.68.21.99-.64.55-.66.86.06.64.06.95c0,.12.61.13.61.25,0,.31-.6.64-.58.95s0,.64.06.95.34.58.41.88.48.5.57.79-.12.7,0,.98.13.64.27.91.25.59.42.86.51.42.7.67.4.48.6.71.23.66.45.88.42.51.66.7.8.05,1.06.23c-.26.18-.42.53-.66.72s-.35.5-.58.72-1.03-.13-1.23.1.1.9-.09,1.15-.53.38-.69.64-.03.68-.17.96-.58.39-.71.68-.59.45-.69.75-.25.61-.33.91.09.68.04.99.29.66.27.97.17.6.17.92c0,.12.03.13.03.25,0,.31-.33.62-.3.92s0,.62.06.93.39.54.46.84.08.6.18.9-.08.69.04.97.51.44.66.71.26.55.43.81-.17.89.02,1.13.93.05,1.13.28-.03.91.19,1.12.48.45.72.64.56.06.82.24c-.26.18-.09.64-.33.83s-.46.37-.69.59-.36.48-.56.71-.54.32-.73.57-.31.52-.47.78-.87.21-1.02.49-.11.66-.24.94-.43.52-.53.82.29.74.21,1.04-.7.5-.75.81.32.68.3.99,0,.62,0,.93c0,.12-.03.12-.03.25,0,.31-.35.65-.32.96s.69.55.74.85-.3.69-.23.99.79.4.89.7-.31.77-.19,1.05.74.32.88.59-.21.82-.04,1.09.14.68.33.93,1.03-.05,1.24.18-.19,1.04.04,1.26.6.29.85.48.22.24.48.41c-.26.18-.15.33-.39.53s-.18.71-.41.92-.89,0-1.09.23-.61.34-.8.59.37,1.02.21,1.28-1.09.08-1.24.36-.19.63-.31.92-.2.62-.3.91-.28.59-.36.9.37.72.32,1.03.25.63.22.94-.07.58-.07.89c0,.12-.14.12-.14.25,0,.31-.77.66-.75.97s.37.61.42.91.26.59.33.89.14.61.24.9.56.44.68.72.36.48.51.75.17.59.33.85.43.42.62.67.27.54.48.77.03.83.26,1.04.6.27.84.46.97.37,1.23.55c-.26.18-.85.53-1.09.72s-.51.34-.73.56-.47.39-.68.63-.18.63-.36.88-.29.52-.45.78-.67.31-.81.58-.37.51-.49.8-.24.58-.34.87-.03.64-.1.94-.45.55-.5.85-.34.61-.36.92.34.66.34.97c0,.12-.28.12-.28.25,0,.31.28.63.31.94s.27.59.32.9-.13.66-.06.96.29.57.39.86.2.59.32.88.52.43.67.7.09.65.26.91-.04.8.15,1.05.61.34.81.57.22.68.45.9.64.25.88.45,1.05.2,1.31.37c-.26.18-.94.34-1.18.53s-.42.46-.65.67-.2.65-.41.88-.92.04-1.11.29.23.91.06,1.17-1.03.12-1.18.39-.07.68-.2.96.12.71.02,1-.04.61-.11.91-.55.51-.6.81.23.64.21.96-.06.6-.06.91c0,.12-.16.12-.16.25,0,.31.02.62.04.93s.38.56.43.87-.66.77-.59,1.07.11.65.21.94.39.55.51.83.87.27,1.02.54.05.67.21.93.35.5.54.74.21.62.42.86.39.49.62.71.72.11.96.3.09.61.35.78c-.26.18-.58,0-.82.2s.05,1-.18,1.22-.44.41-.64.64-.73.2-.91.44.13.83-.04,1.09-.29.5-.44.78-.99.2-1.12.49-.1.65-.2.94.35.74.28,1.04-.33.54-.38.85-.28.58-.3.89-.16.62-.16.93c0,.12-.25.12-.25.25,0,.31.85.59.88.89s-.04.6,0,.9.09.59.16.89-.07.65.03.94-.36.82-.24,1.1.87.29,1.02.56.32.51.49.77.35.49.53.74.23.6.44.83.06.83.29,1.04.6.31.84.5.79.15,1.05.33c-.26.18-.5.52-.74.71s-.55.3-.78.51-.4.47-.6.7-.11.68-.3.93-.91.11-1.07.37-.55.42-.7.7-.31.58-.44.86.64.91.54,1.2-1.06.33-1.14.64.19.69.14,1,.44.66.42.98-.88.58-.88.9c0,.12.43.13.43.25,0,.31-.1.63-.07.94s.19.61.24.91.22.58.29.88-.29.74-.19,1.03.26.59.38.88.1.67.25.95,1.12.06,1.29.32.16.61.35.85.09.72.29.96.25.64.48.86.83,0,1.07.2.83.54,1.09.71c-.26.18-.78.6-1.02.8s-.69.14-.91.36-.67.23-.88.46-.18.68-.37.92-.56.38-.73.64-.52.45-.67.72.35.87.23,1.15-.02.63-.12.92-.34.52-.42.82-.67.49-.72.8.34.67.31.98.04.61.04.92c0,.12-.6.12-.6.25,0,.31-.05.66-.02.97s.37.61.42.91.23.59.3.89.35.54.45.83.02.65.14.93-.1.76.04,1.03.36.54.53.81.71.28.9.52.43.43.64.67.01.87.24,1.08,1-.2,1.25,0,.25.69.5.87c-.26.18-.64.2-.88.39s-.68.21-.9.42.26,1.12.06,1.35-.59.28-.78.53-.25.55-.42.81-.45.43-.59.71-.13.6-.25.89-.2.56-.3.85-.58.46-.66.76-.47.55-.52.86-.07.64-.09.96.69.65.69.96c0,.12-.45.12-.45.25,0,.31.18.62.21.92s.17.59.22.9.22.57.3.87-.17.69-.07.98.53.45.65.74.04.65.18.93-.12.8.05,1.07.56.39.75.64.56.35.76.58.24.64.47.85.51.38.75.58.87.28,1.12.45c-.26.18-.62.58-.86.77s-.62.22-.84.43-.11.73-.31.96-.42.41-.61.66-.3.5-.47.76-.82.22-.97.49-.32.55-.44.83.17.72.07,1.02-.32.53-.4.84-.48.54-.53.84.23.66.21.97.13.61.13.92c0,.12-.58.12-.58.25,0,.31.6.6.62.91s-.27.65-.22.96.13.61.2.91.6.46.7.75-.2.72-.08,1.01.17.61.31.89,0,.75.16,1.01,1.02.05,1.21.3.48.36.69.6-.21,1.06.02,1.27.79.06,1.03.25.88.47,1.13.64c-.26.18-1.1.19-1.34.38s-.45.45-.67.67-.34.54-.55.77-.5.4-.69.65-.19.62-.36.89-.06.66-.2.94-.43.46-.55.74.04.65-.06.95-.29.53-.37.83-.74.48-.79.79,0,.64-.02.95.39.63.39.94c0,.12-.64.12-.64.25,0,.31.46.62.48.93s-.17.65-.13.96.12.63.19.93.57.48.67.77-.43.84-.3,1.12.56.45.7.72.26.58.42.84.74.23.93.48.41.43.61.66.11.74.33.96.75.06.99.26.54.69.8.87c-.26.18-.81.36-1.05.56s-.8.06-1.02.27-.08.81-.29,1.04-.31.54-.5.79-.24.56-.41.83-.17.59-.31.86-.68.34-.81.63-.17.6-.27.89-.24.57-.31.88.11.64.06.95-.7.54-.72.85.09.65.09.96c0,.12.14.13.14.25,0,.31-.21.65-.18.96s.37.6.42.9.14.61.22.91-.2.72-.1,1.01.44.52.56.8.16.63.3.9.41.5.58.76.56.36.75.61.5.37.7.6.22.63.45.84.65.17.89.37.16.66.42.84c-.26.18-.23.58-.47.78s-.51.33-.73.55-.31.54-.51.77-.88.07-1.07.32-.19.64-.35.9-.38.5-.53.78.07.71-.06,1-.78.37-.88.66-.03.66-.1.96-.12.62-.17.92.05.63.02.94.25.62.25.93c0,.12-.76.12-.76.25,0,.31.92.59.95.89s-.25.63-.2.94.04.62.11.92-.26.73-.16,1.03.87.33.99.62-.21.78-.07,1.06.06.71.22.98.74.26.93.51.21.64.42.87.62.28.84.49.68.14.92.34.08.69.34.86c-.26.18-.08.69-.32.89s-.77.04-1,.25-.06.78-.27,1.01-.86.08-1.05.32.02.76-.15,1.02-.58.36-.73.64-.57.43-.69.71.27.77.17,1.06-.38.52-.46.83.15.65.1.96-.4.56-.43.87.3.62.3.93c0,.12.02.13.02.25,0,.31-.27.62-.25.93s.26.58.31.89-.07.63,0,.93.11.61.21.9-.03.68.09.97.8.3.95.57,0,.7.17.96.59.32.78.57-.18.95.02,1.19.88.02,1.1.23.09.83.34,1.03,1.07.16,1.32.34c-.26.18-.88.39-1.12.59s-.48.39-.71.6-.12.72-.32.96-.99-.02-1.18.23-.39.51-.56.78.29.88.15,1.16-1.01.21-1.13.49.33.8.24,1.1-.37.53-.45.83,0,.63-.05.93-.49.57-.52.88.44.64.44.95c0,.12-.68.12-.68.25,0,.31.34.64.36.94s.4.58.45.88-.08.64,0,.94.08.63.18.92.12.63.25.92.82.29.97.56.06.65.23.92.35.5.54.74.46.4.67.63.49.34.72.56.3.55.55.75.39.55.65.73c-.26.18-.52.39-.77.59s-.64.23-.86.44-.09.77-.3,1-1.01-.02-1.2.23.09.84-.08,1.1-.62.36-.77.64-.26.59-.38.87.08.7-.02.99-.33.55-.41.85-.55.54-.6.85.08.66.05.98-.06.64-.06.96c0,.12.65.13.65.25,0,.31-.67.65-.64.96s-.05.67,0,.97.61.53.69.83.14.61.24.9.46.48.58.76.21.57.35.84-.29.9-.12,1.16,1.08,0,1.27.25.16.64.37.87.51.34.73.56.1.83.34,1.02.25.21.51.38c-.26.18-.23.23-.47.43s-.51.39-.73.6-.64.28-.85.51-.39.53-.58.78-.28.6-.44.86-.38.52-.53.8.3.83.18,1.12-.96.3-1.06.6.03.68-.04.99-.11.63-.16.94.29.66.26.97.08.6.08.92c0,.12-.7.12-.7.25,0,.31.36.63.38.94s-.26.68-.21.98.15.63.23.93.38.56.48.85.11.64.23.92.62.39.77.67.32.51.49.78.37.48.55.73.54.32.75.55.12.71.35.93.29.61.53.81.73.24.99.41c-.26.18-.59.41-.83.61s-.35.53-.57.74-.62.25-.83.48-.4.48-.58.73-.53.4-.7.66-.58.41-.72.69-.13.66-.25.95.3.78.2,1.07-.68.45-.76.75-.38.58-.43.89.71.72.68,1.03-.82.59-.82.91c0,.12.64.13.64.25,0,.31-.14.62-.11.93s0,.63.04.94.26.58.34.88-.37.77-.27,1.07,1.08.25,1.2.54-.17.75-.03,1.02.21.6.37.87.43.47.61.71.5.38.71.62.53.33.75.54.44.4.68.6.2.62.46.79c-.26.18-.6.13-.84.33s-.1.83-.32,1.05-.47.38-.68.61-.94.04-1.13.29-.03.76-.19,1.03-.3.54-.45.82-.31.54-.43.83.1.69,0,.99-.37.52-.44.82-.11.6-.16.91-.22.59-.25.9-.32.62-.32.93c0,.12-.12.12-.12.25,0,.31.48.62.51.93s-.39.69-.34.99.03.66.11.96.42.55.52.85.25.59.37.87.41.5.55.78.31.54.48.8.71.24.9.48.1.69.3.93.4.47.62.68.49.37.73.56-.02.5.24.67c-.26.18-.38,0-.62.2s-.31.62-.54.84.01.86-.2,1.09-.67.22-.86.47-.6.35-.76.61-.35.53-.5.81.06.72-.06,1.01-.16.58-.26.88-.29.55-.37.85-.15.59-.2.9-.37.58-.4.9.64.63.64.95c0,.12-.73.12-.73.25,0,.31-.09.65-.07.96s.06.65.11.95.54.54.61.84,0,.65.1.94.53.46.66.74-.05.71.1.98.72.29.89.55-.36,1.01-.17,1.26.68.27.89.5.28.62.5.83.39.54.63.74.62.04.87.21c-.26.18-.37.35-.61.54s-.44.44-.66.65-.53.35-.74.58-.6.33-.78.58.05.8-.12,1.06-.2.58-.34.86-.41.47-.54.75-.81.37-.91.66.5.8.42,1.1,0,.61-.04.91-.73.53-.75.84.04.64.04.95c0,.12.56.13.56.25,0,.31-.8.66-.78.97s.56.57.61.88-.44.74-.37,1.04.66.48.75.77.08.64.2.92.65.37.8.64.15.61.32.87.41.45.6.7.02.79.23,1.02.91-.03,1.14.18-.14,1.1.1,1.29,1.23.04,1.48.21c-.26.18-1.12.16-1.37.36s-.17.75-.39.97-.81.09-1.01.32.1.88-.09,1.13-.79.2-.96.46.14.79,0,1.07-.29.52-.41.8-.56.44-.66.73-.54.51-.61.81.7.77.65,1.08-.52.54-.54.85-.08.61-.08.93c0,.12-.23.12-.23.25,0,.31.47.61.5.91s-.24.65-.19.95-.06.66.02.96-.07.7.03.99,1.07.26,1.19.55-.23.78-.08,1.06.76.26.93.52.19.59.38.83.18.64.39.87.13.76.35.98.63.26.87.45.49.24.75.42c-.26.18-.36.41-.6.61s-.53.33-.76.54-.49.4-.69.63,0,.78-.19,1.03-.69.25-.86.51-.63.37-.78.64,0,.7-.12.99-.12.61-.22.91-.07.61-.14.91-.42.54-.47.85.29.65.26.96-.78.59-.78.91c0,.12.62.13.62.25,0,.31-.61.66-.58.97s.66.56.71.86-.36.72-.29,1.02.68.45.78.75.37.5.5.78.15.58.3.86.24.55.41.81.32.51.51.76.12.7.33.93.84.02,1.07.24.06.85.3,1.04.78.31,1.03.49c-.26.18-.58.56-.82.75s-.4.45-.62.67-.39.44-.6.67-.5.36-.69.6-.75.23-.92.5-.12.66-.26.94-.72.37-.84.65.42.83.32,1.13-.58.47-.66.78.07.65.02.96.26.64.23.95-.54.59-.54.9c0,.12.19.13.19.25,0,.31-.19.64-.17.94s.63.54.68.85-.76.79-.68,1.09.96.37,1.06.67.1.6.22.89-.4.89-.25,1.16,1.03.12,1.2.39.06.7.25.94.59.3.8.53-.07.93.16,1.15.77.08,1.01.28.18.44.43.62c-.26.18-.23.37-.47.57s-.8.05-1.03.27-.12.78-.32,1.01-.48.41-.67.66-.02.73-.19.99-.33.5-.48.77-.34.5-.46.79-.5.47-.6.76-.43.54-.51.84.22.69.17,1,.13.63.1.94-.63.6-.63.91c0,.12,0,.13,0,.25,0,.31.3.63.32.94s.29.59.34.89-.06.64,0,.94.19.59.29.88.53.45.65.73-.48.92-.34,1.2.54.43.71.69.26.6.45.85.34.56.55.79.79.11,1.02.32.33.56.57.75.39.34.65.51c-.26.18-.12.67-.37.86s-.94-.13-1.16.08-.56.37-.76.6-.16.7-.35.95.07.79-.09,1.05-.75.27-.89.54-.4.51-.52.79.16.72.06,1.02.05.63-.03.93-.75.47-.8.78-.15.62-.18.94-.03.64-.03.95c0,.12.15.13.15.25,0,.31.47.59.49.9s-.52.68-.47.99.53.53.61.83.41.5.51.79-.15.7-.03.98.4.48.55.75-.26.87-.09,1.13.6.36.78.61.65.26.86.49.03.83.26,1.05.42.5.66.69,1.03.1,1.29.28c-.26.18-.78.41-1.02.61s-.24.64-.46.86-.78.09-.99.32-.15.67-.34.92-.59.33-.76.59.06.73-.09,1.01-.65.36-.78.64-.31.55-.41.85.25.71.18,1.01-.22.56-.27.87-.3.58-.33.89-.51.62-.51.93c0,.12.94.13.94.25,0,.31-.39.62-.36.92s.08.61.13.91-.19.68-.12.98.63.46.73.75.32.51.45.79-.2.77-.05,1.04.76.26.93.52-.44,1.06-.25,1.31,1.06-.07,1.27.17,0,.84.23,1.06.52.36.76.56.7.31.96.49c-.26.18-.76.23-1.01.42s-.14.77-.36.99-.9-.01-1.11.22-.41.5-.6.74-.21.63-.38.89-.55.42-.69.69.05.73-.07,1.01-.49.49-.59.78.51.79.43,1.09-.13.57-.18.87-.27.56-.29.87-.49.6-.49.91c0,.12.38.13.38.25,0,.31-.65.66-.62.97s.27.62.32.93.28.59.35.89.7.43.8.72-.69.93-.57,1.22.78.33.93.61.64.32.81.58-.08.79.11,1.04.5.39.71.62.67.18.9.39-.18,1.14.06,1.34,1.07.02,1.33.19c-.26.18-.99.11-1.23.31s-.08.85-.3,1.07-.3.53-.51.76-.62.26-.81.51-.85.18-1.02.44-.33.56-.48.84.26.82.13,1.11-.55.45-.65.75-.15.61-.22.92.02.64-.03.95-.55.57-.57.89.59.65.59.97c0,.12-.21.12-.21.25,0,.31.38.59.41.9s.03.6.08.9-.27.68-.2.98.18.6.27.89.48.47.6.76.4.47.54.74-.38.94-.21,1.2.41.51.6.75.43.48.63.72.88,0,1.11.22.13.78.37.97.31.3.56.47c-.26.18-.55,0-.79.19s.13,1.09-.09,1.31-1.1-.2-1.31.03-.22.66-.4.91.16.86,0,1.12-.7.29-.85.57-.34.53-.47.81.29.76.19,1.05-.48.48-.56.78-.45.54-.5.85.3.66.28.97-.61.6-.61.91c0,.12.12.13.12.25,0,.31.62.59.64.9s-.23.64-.18.94.05.62.13.92.42.51.52.81-.12.7,0,.99.45.47.59.75.03.7.2.96.72.25.91.5.18.64.39.87.47.4.7.61.21.7.46.9.93.19,1.19.36c-.26.18-.52.69-.76.89s-.9-.09-1.12.12-.48.43-.69.66-.49.43-.68.68.04.79-.13,1.05-.07.65-.21.93-.81.29-.93.58-.09.63-.19.93-.29.57-.37.87-.39.57-.44.88.09.66.07.97-.32.63-.32.95c0,.12,0,.12,0,.25,0,.31.68.61.7.92s.28.57.33.87.11.58.18.88,0,.62.1.91-.43.84-.31,1.12,1.05.18,1.2.46-.25.85-.08,1.11.79.2.98.45-.16.93.05,1.16.81.09,1.03.3.52.31.76.51.03.63.28.8c-.26.18-.23.37-.47.57s-.18.71-.4.93-.93-.04-1.13.19.13.9-.06,1.15-1.14-.03-1.3.23-.11.69-.26.96-.11.65-.23.94.13.7.03.99-.08.59-.15.89-.46.51-.51.82.15.62.12.93-.35.59-.35.9c0,.12.29.13.29.25,0,.31-.77.66-.74.97s.62.57.67.87.18.59.26.89-.06.66.04.95.31.55.43.83.01.69.16.96.88.2,1.04.46.21.58.39.82.39.45.6.68.16.69.39.9.61.24.85.43.26.55.52.73c-.26.18-.11.74-.35.94s-.74.07-.96.28-.38.49-.59.72-.57.33-.76.58.08.79-.09,1.05-.28.51-.43.78-.9.24-1.03.53-.2.61-.29.9.22.7.14,1.01-.65.5-.7.81-.31.62-.34.93.34.66.34.97c0,.12-.27.12-.27.25,0,.34.83.64.86.97s-.73.77-.67,1.1.76.53.85.85.34.72.46,1.03c-.12.31-.94.55-1.03.88s.4.78.34,1.11-.28.62-.31.96.14.66.14,1c0,.3-.24.6-.21.9s-.32.66-.27.96.4.55.47.85-.22.71-.13,1,.81.36.92.63.48.42.62.68-.38.9-.22,1.16.3.55.48.8.83.12,1.03.34.3.53.51.74.21.67.44.87.87-.15,1.12.03.18.79.44.95.63.1.9.23.3.82.58.93.6.21.89.3.65.02.94.1.63,0,.93.05.65-.51.95-.49.56.62.87.62c.12,0,.12-.37.25-.37.31,0,.65.58.96.55s.53-.8.84-.85.77.66,1.07.59.38-.93.67-1.03.85.49,1.14.37.58-.3.85-.45.17-.94.43-1.11,1.01.36,1.26.17-.06-1.05.17-1.26.41-.42.62-.65.72-.17.92-.41.39-.85.57-1.11c.18.26.68.62.88.86s-.09.89.13,1.12.87-.01,1.1.2.04.91.29,1.1.45.49.71.65.77-.06,1.05.08.7-.07.99.05.44.52.74.62.61.08.91.15.62-.07.93-.02.56.37.87.4.61.45.92.45c.12,0,.13-.43.25-.43.31,0,.59-.24.9-.26s.67.45.98.4.48-.7.78-.78.85.69,1.14.59.27-1.03.55-1.15.75.16,1.02.02.39-.54.65-.71.9.2,1.15.02.05-.92.28-1.13.97.1,1.18-.12.12-.75.31-.99.38-.08.56-.34c.18.26.2.23.4.47s.56.35.77.57.35.54.59.74.27.68.52.87.52.41.78.58.59.29.87.44.93-.5,1.21-.38.3.95.59,1.05.82-.62,1.12-.54.48.63.79.68.58.56.89.59.66-.86.97-.86c.12,0,.12-.02.25-.02.31,0,.59-.06.89-.09s.64.31.95.26.68.21.98.13.56-.35.85-.44.74.15,1.03.02.41-.63.68-.77.3-.68.56-.85.94.27,1.19.08.01-.95.24-1.16.95.1,1.16-.13.57-.37.76-.61.02-1.06.19-1.32c.18.26.05,1.04.25,1.28s.71.22.93.45.22.69.45.89.92-.14,1.16.05.38.49.65.66.44.46.71.61.42.59.7.71.58.3.87.4.77-.41,1.07-.33.48.76.79.81.68-.34.99-.32.61.48.93.48c.12,0,.12-.64.25-.64.31,0,.63.32.94.3s.55-.52.86-.57.7.37,1,.29.64-.07.93-.17.67-.05.96-.18.51-.43.79-.57.4-.56.66-.73.46-.41.71-.59.46-.39.7-.6.67-.2.88-.42.15-.69.34-.93.56-.24.73-.5c.18.26.47.31.67.55s0,.85.2,1.07.68.22.91.42.48.4.73.59.51.36.77.53.65.11.92.26.5.37.79.49.45.57.75.67.8-.54,1.1-.47.56.2.86.25.59,0,.9.03.58.83.89.83c.12,0,.12-.07.25-.07.31,0,.62-.26.93-.28s.63,0,.94-.05.5-.58.8-.65.77.45,1.06.35.59-.25.87-.37.32-.76.59-.9.66-.07.92-.24.52-.33.76-.52.23-.66.46-.87,1.13.27,1.34.05-.28-1.08-.09-1.32.72-.37.9-.63c.18.26.4.63.6.87s.08.78.29,1,.44.49.67.69.7.16.95.35.31.67.58.84.71.06.99.2.78-.21,1.06-.09.33.87.62.97.6.24.9.31.66-.04.97.01.61.2.93.23.64-.43.95-.43c.12,0,.12.33.25.33.31,0,.64.07.95.04s.68.18.98.13.58-.39.88-.46.62-.16.91-.26.6-.22.88-.34.55-.33.82-.47.53-.34.79-.51.21-.76.45-.95.63-.17.86-.38.71-.16.92-.38.02-.8.22-1.04.66-.3.84-.56c.18.26.12.74.32.98s.51.4.72.63.43.47.66.68.48.42.73.61.47.44.74.61.57.3.84.45.79-.23,1.08-.1.43.59.72.69.58.26.88.33.71-.44,1.02-.39.57.18.88.2.59.65.9.65c.12,0,.12-.58.25-.58.31,0,.66.71.97.68s.54-.75.85-.8.62,0,.92-.07.78.4,1.07.3.49-.52.78-.64.47-.46.74-.6.63-.15.89-.31.36-.56.61-.75.28-.59.51-.8.6-.23.82-.45.32-.51.52-.75.65-.19.83-.44c.18.26.68.16.88.41s.04.78.25,1,.47.41.7.62.35.57.6.76.68.12.94.28.69,0,.96.16.51.3.79.42.35.81.64.91.6.23.9.31.72-.46,1.03-.41.56.38.87.4.61.47.93.47c.12,0,.12-.03.25-.03.31,0,.61-.6.91-.63s.72.65,1.02.6.55-.52.85-.6.55-.33.84-.43.59-.17.88-.29.49-.4.76-.54.8.13,1.06-.03.36-.6.6-.78.27-.63.5-.83.78-.07,1-.3.05-.77.25-1.01.64-.28.82-.54c.18.26.14.69.34.93s.98-.05,1.2.18-.06.94.17,1.15.65.19.9.38.42.48.69.64.49.42.76.56.45.56.74.68.9-.61,1.19-.51.36.98.66,1.05.75-.58,1.06-.53.54.7.85.72.64-.08.95-.08c.12,0,.12-.24.25-.24.31,0,.63.12.94.1s.6-.2.91-.25.67.14.97.06.68.04.98-.06.51-.48.79-.6.45-.49.73-.64.48-.39.74-.55.55-.27.8-.45.34-.53.57-.73.5-.34.72-.56.91-.04,1.1-.28.09-.93.27-1.19c.18.26.2.84.4,1.09s.63.28.85.5.69.15.92.35-.14,1.15.11,1.34.82-.06,1.08.11.41.54.69.68.82-.29,1.1-.17.3.94.6,1.03.62.19.92.26.66-.04.97,0,.63,0,.94.02.62-.11.93-.11c.12,0,.12-.37.25-.37.31,0,.65.76.95.73s.63-.17.93-.22.5-.62.8-.69.61-.05.9-.15.69.07.97-.05.56-.28.83-.43.3-.68.57-.85.65-.11.9-.3.32-.55.56-.76.87.01,1.08-.21.26-.61.45-.86.38-.35.55-.61c.18.26.35.37.55.61s.29.58.5.81.79.07,1.02.27.49.33.74.51.01,1.07.28,1.23.62.23.89.38.87-.4,1.16-.27.43.56.72.66.62.06.92.13.54.41.85.46.66-.44.97-.42.58.11.89.11c.12,0,.12.54.25.54.31,0,.61-.31.92-.34s.61-.07.91-.12.52-.43.82-.5.87.76,1.16.66.43-.68.71-.8.55-.28.82-.43.59-.23.85-.39.61-.23.86-.41.31-.61.54-.81.47-.39.69-.62.27-.57.47-.81.57-.37.75-.62c.18.26.7.26.9.5s-.26,1.05-.04,1.28.65.26.88.47.37.56.62.75.63.21.9.38.81-.18,1.08-.03.51.29.8.41.29.97.59,1.07.67,0,.97.08.66-.11.97-.06.61.12.92.15.62.26.93.26c.12,0,.12.15.25.15.31,0,.63-.31.94-.33s.67.24.98.19.65-.08.95-.15.37-.95.66-1.05.79.36,1.08.24.51-.39.79-.53.72-.04.98-.2.46-.47.7-.66.46-.45.69-.65.5-.4.71-.62.57-.35.77-.6.09-.97.26-1.23c.18.26.4.72.59.96s.59.29.8.51.5.33.73.54.44.39.69.57.36.52.62.69.36.6.64.74.79-.25,1.07-.12.53.24.83.34.38.87.69.95.72-.46,1.03-.41.58.15.89.18.6.24.91.24c.12,0,.12-.32.25-.32.31,0,.63.49.94.46s.57-.45.87-.5.72.4,1.02.32.67-.03.96-.13.49-.51.78-.63.43-.53.7-.67.91.31,1.17.15-.02-1.12.23-1.31.8.02,1.04-.18.7-.19.92-.42-.05-.88.14-1.12.56-.64.73-.89c.18.26.55.64.74.89s-.04.87.18,1.09.45.47.68.67.71.14.95.33.75-.02,1.01.15.19.88.47,1.03.56.3.85.42.79-.37,1.09-.27.45.6.75.68.68-.35.99-.3.51.91.82.93.65-.12.96-.12c.12,0,.12.21.25.21.31,0,.59-.88.89-.91s.61.1.91.05.64.09.94.01.53-.33.83-.43.77.27,1.05.15.48-.45.76-.59.63-.17.89-.34.7-.13.95-.31.21-.75.44-.95.17-.69.38-.92.44-.39.64-.64.65-.55.83-.8c.18.26.66.54.86.78s.04.77.26,1,.63.24.86.44.53.3.78.49.47.37.73.54.24.82.52.96.52.4.81.53.77-.24,1.06-.14.46.67.76.75.65.07.96.12.69-.59,1.01-.56.59.24.9.24c.12,0,.12-.35.25-.35.31,0,.63.51.93.49s.69.34.99.29.58-.41.88-.48.52-.44.81-.54.53-.32.81-.44.51-.33.78-.47.89.29,1.15.12.32-.64.57-.83.83,0,1.06-.21.15-.77.37-.99.53-.37.73-.61.24-.7.42-.96c.18.26.32.64.51.88s.69.21.9.43-.07.97.16,1.18.52.4.77.58.53.37.8.54.54.35.82.5.58.28.87.41.74-.18,1.04-.08.61.08.91.15.55.35.86.4.62,0,.93.03.61.52.93.52c.12,0,.12-.88.25-.88.31,0,.59-.04.89-.07s.68.58.99.53.71.22,1.01.15.33-1.08.63-1.18.66.05.94-.07.41-.52.68-.66.83.23,1.09.06.32-.62.57-.81.76-.05.99-.26.21-.68.42-.91.64-.26.84-.5.27-.97.45-1.23c.18.26.28.97.47,1.21s.72.18.93.41.14.74.37.94.33.6.58.79.46.48.72.65.96-.41,1.24-.27.51.31.79.43.38.72.68.81.63.1.93.17.64-.03.94.02.58.42.89.44.64.25.95.25c.12,0,.12-.34.25-.34.31,0,.62-.13.93-.15s.55-.5.85-.55.61.02.91-.05.64.05.94-.05.48-.42.77-.55.64-.05.92-.2.52-.32.78-.49.74-.02.99-.21.24-.7.47-.9.81-.06,1.03-.29-.05-.87.15-1.11.6-.67.78-.92c.18.26.4.83.59,1.07s.37.5.58.73.59.27.82.48.08.89.32,1.08.53.39.79.55.93-.37,1.21-.22.31.76.6.89.63.09.93.19.52.49.82.56.62.17.93.22.63.2.94.22.65-.56.97-.56c.12,0,.12.24.25.24.31,0,.62-.08.93-.11s.58-.32.88-.37.61-.05.91-.12.65.02.94-.07.69.03.97-.09.33-.74.61-.89.92.34,1.18.17.43-.52.68-.7.42-.49.65-.7.42-.47.63-.7.03-.79.22-1.03.71-.47.88-.73c.18.26.66.52.85.76s-.13.94.09,1.16.83.04,1.06.25.41.45.66.64.22.79.48.96.75-.02,1.02.12.6.15.89.27.57.2.87.3.42.8.72.87.66,0,.97.06.69-.58,1-.55.59.2.9.2c.12,0,.12.48.25.48.31,0,.62-.34.92-.37s.66.22.96.17.63-.13.92-.21.67-.01.96-.11.42-.67.7-.79.56-.24.83-.39.77.07,1.03-.1.52-.38.77-.57.02-.94.25-1.15.57-.26.79-.49.43-.42.63-.66.55-.1.73-.36c.18.26.53.12.72.37s.27.58.48.8.13.78.36.98.71.15.96.33.67.11.93.27.54.27.81.41.32.76.61.89.53.42.83.52.74-.27,1.04-.19.55.43.86.48.68-.5.99-.47.59.05.9.05c.12,0,.13-.02.25-.02.31,0,.66.75.96.72s.53-.84.83-.89.63.07.93,0,.76.35,1.05.25.61-.23.89-.36.64-.17.92-.31.2-.91.46-1.07.53-.3.78-.48.66-.17.89-.37.67-.23.88-.45.16-.7.36-.95.38-.02.55-.28c.18.26.24.13.44.37s.84.07,1.06.3-.17,1.07.06,1.28.96-.18,1.21,0,.18.82.44.99.44.53.72.68.66.13.95.25.64.12.93.22.61.14.92.21.59.26.9.31.62.2.93.22.64-.57.96-.57c.12,0,.12.63.25.63.31,0,.64-.14.95-.17s.65,0,.95-.04.46-.82.76-.89.64.08.94-.02.8.33,1.08.2.49-.46.77-.6.26-.78.52-.94.75.02,1-.17.63-.23.86-.43.16-.73.38-.96.44-.43.63-.67.48-.36.66-.62c.18.26.73.16.92.4s.38.44.6.66.09.78.32.98.21.75.46.93.77.01,1.03.18.33.7.61.84.73-.05,1.02.07.49.49.79.59.76-.38,1.06-.31.5.61.81.66.68-.56.99-.54.58.57.9.57c.12,0,.12.24.25.24.31,0,.59-.73.9-.76s.67.44.97.39.68.11.98.03.55-.41.84-.51.44-.55.73-.68.86.35,1.14.21.4-.59.66-.75.41-.5.65-.69.82,0,1.06-.2.05-.85.26-1.08.19-.63.38-.87.76-.51.93-.77c.18.26.05,1.08.25,1.33s.76.18.98.4.55.31.78.51.6.21.84.39,0,1.08.26,1.25.92-.35,1.2-.2.29.82.57.95.75-.22,1.04-.12.58.14.88.22.51.55.82.6.67-.45.98-.43.58.77.9.77c.12,0,.13-.43.25-.43.31,0,.64.24.94.22s.59-.3.9-.35.69.24.99.17.55-.39.84-.49.57-.26.85-.38.38-.6.66-.75.61-.13.88-.3.47-.37.72-.56.55-.28.78-.49.64-.23.85-.45.35-.53.54-.77.37-.79.55-1.05c.18.26.75.49.94.73s.09.72.3.94.69.15.92.36.04.91.29,1.09.51.38.77.55.42.56.7.7.83-.28,1.12-.16.6.09.9.19.47.56.77.64.61.13.92.18.6.38.91.4.65-.73.96-.73c.12,0,.12.59.25.59.31,0,.65.09.95.07s.66.01.96-.04.59-.33.89-.41.6-.22.89-.32.67-.02.96-.15.31-.8.58-.94.67-.06.93-.22.67-.14.91-.33.68-.2.91-.41.34-.59.55-.81.27-.61.47-.85.33-.44.5-.7c.18.26.74.11.94.35s-.2.99.01,1.22.41.51.64.72.49.43.73.62.82-.07,1.08.1.63.1.91.24.55.2.84.33.34.82.63.92.56.35.87.43.76-.67,1.07-.62.51.84.83.87.64-.18.95-.18c.12,0,.12-.46.25-.46.31,0,.6.05.91.02s.65.27.95.22.57-.28.87-.36.63-.03.92-.13.51-.37.8-.49.53-.29.8-.44.66-.08.92-.25.29-.64.54-.83.91.14,1.14-.07.56-.36.77-.58.23-.65.42-.9.27-.79.45-1.05c.18.26.73.42.92.67s-.25,1.04-.04,1.27,1.03-.18,1.27.03.43.4.68.58.01,1.07.27,1.23.66.15.93.29.51.43.79.55.69-.03.99.07.49.6.8.67.64.13.95.18.72-.79,1.03-.76.59.37.9.37c.12,0,.12.12.25.12.31,0,.64.07.94.04s.58-.37.89-.42.73.42,1.03.34.64-.16.93-.25.3-.95.59-1.07.57-.18.84-.33.71.01.97-.15.33-.6.58-.78.75-.05.99-.26.63-.27.84-.5.09-.76.28-1,.45-.48.62-.74c.18.26.05.8.25,1.04s.47.45.68.68.95-.09,1.18.11.19.72.44.91.61.19.88.36.47.4.75.54.6.15.88.28.37.79.66.89.67-.01.97.06.61.2.91.25.68-.52.99-.5.59.36.9.36c.12,0,.12.08.25.08.31,0,.59-.42.9-.45s.65.3.95.25.62-.06.92-.13.66,0,.95-.09.59-.23.88-.35.35-.69.63-.83.76.08,1.02-.08.53-.34.78-.53.56-.32.79-.53.59-.32.81-.54-.14-.95.06-1.19.64-.11.82-.37c.18.26.38.33.57.57s.66.23.87.45.19.68.42.88.75.03,1,.22.12.89.38,1.05.69.05.96.2.45.49.73.61.51.46.8.56.61.22.91.29.76-.66,1.07-.61.57.16.88.18.59.76.9.76c.12,0,.12-.02.25-.02.31,0,.66.08.96.06s.56-.64.86-.69.75.49,1.04.41.56-.38.86-.48.54-.36.83-.48.38-.61.66-.76.59-.18.85-.34.6-.21.85-.4.74-.1.97-.31-.04-.93.17-1.15.59-.28.79-.52.49-.75.66-1.01c.18.26.02,1.13.22,1.37s.59.34.81.57.64.24.87.44.7.09.95.28.02,1.05.28,1.22.71.04.99.19.45.54.73.66.72-.13,1.02-.03.48.6.78.68.67-.11.98-.06.61.28.92.3.64-.23.95-.23c.12,0,.12.11.25.11.31,0,.66.31.97.29s.66-.06.96-.11.53-.61.83-.68.52-.39.81-.49.56-.2.85-.33.53-.27.81-.41.5-.32.76-.49.9.21,1.15.02.02-.95.25-1.16.46-.38.67-.6.94,0,1.14-.24.12-.35.3-.61c.18.26.31.2.51.44s.74.16.95.39.19.67.42.88.54.3.79.49.29.67.55.83.58.26.86.41.43.59.72.71.6.26.9.36.68-.01.98.06.74-.55,1.04-.5.53.69.84.71.63-.52.94-.52c.12,0,.12.63.25.63.31,0,.59-.71.89-.74s.69.6.99.55.61-.2.91-.28.69.06.98-.04.62-.19.91-.31.49-.46.77-.61.29-.73.55-.9.41-.44.65-.63.82.04,1.05-.16.44-.45.65-.67.74-.2.94-.44.04-1.13.21-1.39c.18.26.08,1.1.28,1.34s.98-.04,1.19.19.37.47.6.68.54.27.79.46,0,1.08.26,1.25.63.2.9.35.72-.06,1,.07.46.54.76.64.6.2.91.27.58.37.89.42.72-.79,1.03-.77.58.18.89.18c.12,0,.12.05.25.05.31,0,.61.03.91,0s.64.18.95.13.57-.3.87-.37.6-.13.89-.23.61-.12.9-.24.58-.23.85-.37.63-.16.89-.33.19-.79.44-.98,1,.24,1.23.03.02-.88.23-1.11.24-.58.43-.82.73.18.9-.08c.18.26.29.18.49.42s.64.26.85.48.43.42.66.63.6.2.85.38.1.92.37,1.08.66.1.94.25.44.53.73.66.5.5.8.6.73-.2,1.03-.12.63.02.94.07.57.58.88.61.65-.88.97-.88c.12,0,.12.85.25.85.31,0,.62-.48.93-.5s.57-.36.87-.41.67.26.97.18.46-.58.76-.68.74.23,1.02.11.61-.18.89-.32.34-.64.6-.8.48-.35.73-.54.87.08,1.1-.13.31-.6.52-.82.62-.3.82-.54.12-.66.29-.91c.18.26.52.33.72.57s.45.4.67.63-.07.97.17,1.18.8.03,1.05.21.37.56.64.72.56.3.83.45.76-.17,1.04-.05.54.25.83.35.43.74.73.81.7-.32,1.01-.27.54.77.85.8.65-.47.97-.47c.12,0,.12.44.25.44.31,0,.62-.51.92-.53s.62,0,.93-.06.73.38,1.03.31.58-.34.88-.44.67-.08.95-.2.47-.52.74-.66.55-.31.81-.48.37-.56.62-.75.32-.56.55-.77.87.01,1.09-.21.18-.68.38-.92.43-.08.6-.34c.18.26.6-.06.8.19s-.13.94.09,1.17.6.31.83.52.88-.1,1.12.08.35.54.61.7.29.74.56.89.7,0,.98.13.61.12.9.22.55.31.85.38.56.41.86.46.65-.09.96-.07.62.08.94.08c.12,0,.12.02.25.02.31,0,.64.05.95.03s.62-.14.93-.19.68.14.98.07.6-.27.89-.37.41-.67.7-.79.5-.33.78-.48.71,0,.97-.16.36-.55.61-.74.89.1,1.12-.11.5-.42.71-.65.25-.64.44-.88.25-1.03.43-1.29c.18.26.7.67.9.91s.26.56.47.79.2.67.43.88.47.41.72.6.62.18.89.35.26.8.54.94.73-.04,1.01.08.71-.17,1.01-.07.42.73.73.8.65-.04.95,0,.62-.02.93,0,.61.4.92.4c.12,0,.12-.68.25-.68.31,0,.66.91.97.89s.63-.23.94-.28.57-.41.87-.48.72.18,1.01.08.41-.7.69-.83.78.17,1.06.03.44-.52.7-.68.32-.62.57-.81.59-.25.82-.45.4-.47.61-.7.5-.38.7-.62.39,0,.57-.25c.18.26.74-.29.94-.05s.08.72.3.95.11.8.34,1,.7.16.94.35.58.25.84.42.7-.01.98.13.35.66.64.78.5.45.79.55.63.09.94.16.68-.3.99-.25.54.7.85.72.64.15.95.15c.12,0,.13-.23.25-.23.31,0,.62-.18.93-.21s.65.13.96.08.52-.55.82-.63.57-.19.86-.29.85.47,1.14.35.6-.28.87-.42.32-.72.58-.89.47-.4.72-.59.58-.27.81-.47.56-.33.77-.55-.07-.87.12-1.12.75.14.93-.12c.18.26.62-.03.82.21s-.11.92.11,1.15.75.14.98.35.36.54.6.73.58.26.84.43.58.21.86.36.51.35.79.48.7-.17,1-.07.39.85.69.92.64,0,.95.05.62.08.93.1.62.35.94.35c.12,0,.12-.46.25-.46.31,0,.62.06.93.03s.6-.2.9-.25.68.2.98.12.54-.37.84-.47.72.12,1,0,.56-.31.84-.46.33-.67.59-.83.44-.42.69-.61.58-.25.81-.45.54-.33.75-.56.25-.6.44-.84.56-.05.73-.3c.18.26.47.11.67.35s.43.43.65.65.55.29.78.5.16.76.41.95.73.03.99.19.15.99.42,1.13.68.08.97.2.73-.19,1.03-.09.61.03.91.11.54.32.85.37.6.08.91.1.6.59.91.59c.12,0,.12-.54.25-.54.31,0,.59-.21.9-.24s.58-.11.89-.16.68.31.98.24.48-.53.77-.63.76.27,1.04.15.73.03,1-.12.42-.56.68-.73.39-.53.64-.72.79-.03,1.02-.24-.1-.99.12-1.21.77-.13.97-.37.33-.83.5-1.09c.18.26.02,1.08.21,1.32s.56.37.77.6.57.33.8.53.42.49.67.67.57.28.83.45.79-.16,1.07-.01.51.29.79.41.51.31.81.41.42.74.73.82.73-.51,1.04-.46.53.67.84.7.63-.15.94-.15c.12,0,.12.24.25.24.31,0,.64-.08.94-.1s.66.08.96.03.63-.13.93-.2.64-.13.93-.22.32-.89.61-1.01.78.22,1.06.07.44-.48.71-.64.7-.09.95-.28.58-.31.81-.51.42-.49.64-.72.52-.41.72-.65.08-1.05.25-1.3c.18.26.24.92.43,1.16s.77.14.99.36.01.88.24,1.08.65.21.89.4.52.33.78.5.4.56.67.71.78-.19,1.06-.07.53.29.83.39.59.13.89.21.46.88.77.93.72-.69,1.03-.66.6.62.91.62c.12,0,.12-.23.25-.23.31,0,.64.13.95.1s.53-.75.83-.8.71.44,1.01.36.58-.26.87-.36.75.17,1.03.04.22-.98.49-1.12.79.15,1.05-.02.24-.73.49-.91.67-.14.9-.34.78-.11.99-.34.27-.62.47-.86.24-.13.42-.39c.18.26.41,0,.6.24s.09.76.3.99.86.02,1.09.22.03.95.28,1.14.72.09.98.26.37.64.65.79.78-.14,1.06-.02.59.18.89.27.5.53.8.61.74-.56,1.05-.51.54.58.85.6.63-.36.94-.36c.12,0,.12-.11.25-.11.31,0,.63.53.94.5s.58-.39.88-.44.62-.02.92-.1.57-.23.86-.33.72.15,1.01.03.61-.21.88-.36.66-.16.92-.33.47-.47.72-.65.17-.78.4-.98.53-.33.74-.56.79-.15.99-.39.07-.38.25-.64c.18.26.28.22.47.46s.77.13.99.36.16.7.4.91.26.67.51.86.96-.31,1.22-.14.41.47.68.62.54.25.83.37.48.42.78.52.46.68.76.75.63.14.94.19.65.03.96.06.64.21.96.21c.12,0,.12-.03.25-.03.31,0,.62-.51.93-.54s.55-.51.85-.56.79.76,1.09.69.36-1,.65-1.1.83.44,1.11.32.48-.47.75-.61.64-.14.91-.31.59-.28.84-.46.07-.88.3-1.09.4-.44.61-.66.96.02,1.15-.22.14-.29.31-.54c.18.26.6-.09.8.15s-.13.95.08,1.17.88,0,1.11.2.1.87.34,1.06.73.06.99.23.65.09.93.23.37.64.66.76.55.34.84.44.57.36.87.44.65.08.96.13.67-.25.98-.23.62-.17.93-.17c.12,0,.12.15.25.15.31,0,.61-.16.92-.18s.71.61,1.02.56.61-.27.91-.34.67-.05.96-.14.5-.5.79-.62.67-.08.95-.23.14-.99.4-1.15.89.2,1.13.01.33-.59.56-.8.32-.55.54-.77.47-.4.66-.64.49-.14.66-.4c.18.26.36.24.56.49s.29.58.5.81.41.49.64.7.43.49.67.68.58.28.85.45.71,0,.99.15.37.66.66.78.79-.36,1.09-.26.55.24.85.31.6.02.9.07.56.26.88.28.6.6.91.6c.12,0,.12-.11.25-.11.31,0,.64,0,.95-.02s.57-.51.87-.56.76.57,1.06.5.41-.85.7-.95.49-.38.77-.5.76.19,1.03.04.38-.56.64-.73.55-.26.8-.45.44-.42.67-.62.34-.51.55-.73.38-.45.57-.7.69-.18.87-.44c.18.26.65.21.85.46s.43.4.65.63.05.82.28,1.03.73.08.97.27.49.33.75.5.17.94.45,1.09.66.11.94.24.78-.33,1.08-.23.34,1.06.64,1.13.65.09.96.14.65.07.96.1.65-.1.96-.1c.12,0,.13-.7.25-.7.3,0,.58.11.88.09s.66.47.96.43.5-.58.79-.65.52-.3.8-.4.7.19.98.08.36-.63.62-.76.94.45,1.2.29.08-.97.32-1.15.42-.39.65-.59.65-.15.87-.36.52-.34.71-.57-.05-.78.13-1.03.41-.41.57-.66.27-.5.4-.77.68-.33.79-.61.41-.5.5-.79-.22-.69-.15-.98-.07-.6-.02-.9.42-.54.44-.84.26-.6.26-.9c0-.32-.38-.63-.41-.95s-.18-.8-.24-1.11c.27-.12,1.04.29,1.29.15s.18-.86.43-1.02.62-.13.85-.31.62-.19.84-.39-.08-.91.13-1.12.89.02,1.08-.21.3-.52.47-.76.52-.38.67-.63-.15-.76-.02-1.02.67-.35.78-.62-.22-.71-.13-.99.3-.52.37-.81.13-.57.18-.86-.2-.6-.18-.9.15-.56.15-.86c0-.12.37-.13.37-.25,0-.31.08-.65.06-.96s-.53-.57-.58-.88-.3-.55-.37-.85.25-.71.15-1-.37-.52-.49-.81.12-.76-.02-1.03-.22-.63-.39-.89-.95-.1-1.14-.35-.07-.73-.28-.97-.61-.27-.83-.49-.64-.18-.88-.37-.61-.73-.87-.91c.26-.18.71-.61.95-.8s.63-.21.85-.42.77-.14.97-.37-.07-.87.11-1.12.88-.15,1.05-.41.35-.55.5-.82-.19-.79-.06-1.07.36-.52.46-.81-.28-.71-.21-1.01.93-.44.98-.74-.17-.66-.14-.97.19-.62.19-.94c0-.12-.01-.12-.01-.25,0-.31-.01-.64-.04-.95s-.39-.59-.44-.89-.44-.52-.52-.82-.06-.6-.16-.89-.03-.63-.16-.91-.5-.42-.64-.7.43-.97.27-1.23-.54-.41-.73-.66-.68-.24-.89-.47-.22-.64-.44-.86-.76-.05-1.01-.25-.33-.7-.59-.88c.26-.18.3-.74.54-.93s.87.07,1.09-.15.42-.47.62-.71.34-.53.53-.77.39-.49.55-.75-.13-.77.02-1.04.48-.42.61-.71.28-.54.37-.83.03-.62.1-.92.24-.56.29-.87.14-.59.16-.9.11-.6.11-.92c0-.12.2-.13.2-.25,0-.31-.13-.62-.16-.93s.02-.63-.03-.94-.22-.59-.29-.89-.34-.54-.44-.83-.36-.5-.48-.79-.03-.65-.18-.92-.13-.64-.29-.9-.41-.47-.6-.72-.3-.56-.51-.79-.64-.24-.86-.45-.48-.36-.72-.56-.61-.61-.87-.79c.26-.18.8-.37,1.04-.57s.47-.4.69-.62.17-.68.38-.91.58-.3.77-.55.47-.42.63-.69.53-.42.68-.69.45-.5.57-.79.32-.58.42-.87-.48-.8-.4-1.1.71-.49.76-.8-.22-.67-.19-.98-.36-.62-.36-.94c0-.12-.12-.12-.12-.25,0-.31.04-.59.02-.9s.17-.63.12-.93.22-.68.14-.98-.17-.61-.27-.91-.27-.57-.39-.86-.53-.43-.67-.71-.08-.67-.24-.93-.73-.23-.92-.48.21-.97,0-1.21-.59-.32-.81-.54-.29-.65-.53-.85-1.11-.05-1.37-.22c.26-.18.68-.58.92-.78s.87.05,1.1-.16-.04-.9.17-1.13.46-.4.64-.64.33-.5.5-.76.63-.34.78-.62.31-.55.44-.83-.23-.74-.14-1.04.1-.58.17-.88.2-.56.25-.86.42-.55.44-.87-.23-.61-.23-.93c0-.12.34-.13.34-.25,0-.31-.39-.59-.42-.9s-.06-.59-.11-.9.42-.71.35-1.01-.37-.55-.47-.84-.21-.58-.33-.87-.11-.64-.25-.92-.8-.24-.97-.5-.11-.65-.3-.89-.19-.64-.4-.87-.3-.59-.52-.81-.4-.52-.64-.71-1.15-.11-1.41-.28c.26-.18,1.1-.17,1.34-.37s.25-.67.47-.88.51-.36.72-.6.41-.46.6-.71.57-.37.74-.63.31-.56.45-.84-.13-.75,0-1.03.55-.45.65-.74.48-.53.55-.83-.35-.72-.3-1.02.55-.57.58-.88-.61-.65-.61-.96c0-.12.77-.13.77-.25,0-.31-.68-.61-.7-.92s-.38-.56-.43-.86.73-.78.66-1.08-.11-.65-.21-.94-.3-.59-.42-.87-.17-.65-.31-.92-.56-.42-.73-.68-.77-.22-.95-.46.12-.91-.08-1.14-.94.05-1.16-.17-.22-.67-.46-.86-.75-.42-1-.59c.26-.18.95-.16,1.19-.36s-.02-.95.21-1.16,1.01.13,1.22-.11-.12-.9.07-1.15.32-.49.49-.76.37-.47.52-.74.43-.46.55-.75.08-.61.18-.91.14-.58.22-.88.07-.59.12-.89.84-.52.87-.83-.08-.65-.08-.96c0-.12-.28-.12-.28-.25,0-.31.09-.63.06-.94s-.15-.61-.2-.92-.11-.61-.18-.91-.35-.54-.45-.83-.45-.46-.58-.75.47-.91.33-1.18-.96-.15-1.13-.41-.3-.51-.49-.75.18-.95-.02-1.18-.99.1-1.21-.11-.27-.59-.51-.79-.42-.55-.68-.73c.26-.18.47-.49.71-.68s.71-.13.94-.35.62-.3.82-.53.02-.81.21-1.05.46-.43.63-.69.47-.45.62-.73-.17-.76-.05-1.05.83-.35.93-.64-.57-.81-.5-1.11.82-.46.87-.76-.58-.69-.56-1,.43-.58.43-.9c0-.12.12-.13.12-.25,0-.31.25-.65.23-.96s-.43-.59-.48-.9-.18-.6-.25-.9-.16-.6-.26-.89-.13-.61-.25-.9-.27-.56-.41-.84-.71-.28-.87-.55.3-.95.11-1.2-.6-.33-.81-.56-.37-.51-.6-.73-.63-.21-.88-.41-.58-.51-.84-.68c.26-.18.85-.17,1.09-.37s.08-.84.31-1.05.71-.16.92-.39.6-.33.79-.57-.1-.83.07-1.09.23-.55.37-.83.56-.4.68-.69.58-.45.68-.75-.37-.76-.3-1.06.05-.6.1-.9.12-.58.15-.89.31-.59.31-.91c0-.12.26-.13.26-.25,0-.31-.62-.59-.64-.9s.49-.68.44-.98-.42-.55-.49-.85-.05-.63-.14-.92-.43-.49-.56-.77,0-.68-.14-.95-.18-.62-.35-.88-.32-.55-.51-.8-.31-.57-.52-.8-.86-.03-1.08-.25-.54-.28-.78-.48-.47-.75-.73-.92c.26-.18.89-.23,1.14-.42s.13-.78.35-1,.5-.34.71-.58.31-.52.49-.77.75-.22.92-.48.25-.58.4-.85.22-.58.35-.87.68-.42.78-.72-.18-.72-.1-1.02-.06-.64,0-.95.47-.57.5-.88.2-.64.2-.95c0-.12-.12-.12-.12-.25,0-.31-.19-.64-.22-.94s-.66-.54-.71-.84.03-.61-.04-.91.11-.66.01-.96-.23-.57-.35-.86-.63-.36-.77-.64.38-.93.21-1.19-.98-.06-1.17-.31-.02-.76-.23-.99-.61-.25-.83-.47-.22-.68-.46-.87-.75-.35-1.01-.52c.26-.18.97-.08,1.21-.28s.23-.7.46-.91.56-.33.77-.56.39-.5.57-.75.64-.34.81-.6.06-.71.2-.98.64-.41.76-.7.06-.68.15-.97.04-.65.12-.95.39-.57.44-.88-.31-.68-.28-.99-.14-.62-.14-.93c0-.12.11-.13.11-.25,0-.31-.04-.62-.06-.92s.2-.65.15-.96-.34-.57-.41-.87-.37-.53-.46-.82-.22-.56-.34-.84-.12-.61-.26-.88-.55-.37-.71-.63-.17-.6-.36-.85,0-.8-.21-1.03-.49-.41-.72-.62-.69-.15-.93-.34-.46-.55-.72-.72c.26-.18.86-.05,1.1-.25s.51-.41.73-.63,0-.87.21-1.11.91-.06,1.1-.31.39-.53.56-.79.18-.64.33-.92.25-.59.37-.88-.32-.78-.22-1.07.83-.4.91-.7-.39-.71-.34-1.02.61-.55.64-.87-.16-.64-.16-.96c0-.12.33-.13.33-.25,0-.31-.89-.59-.91-.9s.11-.61.06-.92-.14-.58-.21-.88-.17-.57-.27-.86-.02-.64-.14-.92.03-.71-.12-.98-.16-.65-.32-.92-.31-.58-.49-.83-.94-.04-1.14-.27-.11-.75-.33-.97-.48-.41-.72-.61-.99-.27-1.25-.45c.26-.18.81-.49,1.05-.69s.8-.04,1.03-.25.53-.39.73-.63.27-.61.46-.86.59-.38.76-.64.31-.58.45-.86-.31-.84-.19-1.13.35-.51.45-.81.51-.5.59-.81.06-.64.11-.95-.31-.66-.28-.97-.15-.6-.15-.91c0-.12.06-.13.06-.25,0-.31.82-.66.8-.97s-.14-.65-.19-.95-.05-.66-.13-.96-.31-.59-.41-.89-.47-.5-.59-.79-.2-.6-.35-.88-.1-.68-.27-.95-.39-.52-.57-.77-.9-.07-1.11-.3-.17-.68-.4-.89-.65-.19-.89-.38-.45-.6-.71-.77c.26-.18.45-.61.69-.8s.55-.28.78-.5.3-.54.51-.77.51-.36.7-.6.16-.61.33-.87.44-.43.59-.7.14-.59.26-.88.64-.4.74-.7.18-.59.26-.9.43-.56.48-.87.19-.63.21-.94-.17-.65-.17-.96c0-.12-.18-.12-.18-.25,0-.31-.27-.61-.3-.91s.13-.63.08-.94.18-.68.1-.98-.64-.46-.74-.76-.34-.51-.46-.79-.17-.58-.32-.85.33-.92.16-1.18-.89-.15-1.08-.39-.01-.79-.22-1.03-.33-.59-.55-.8-.86.02-1.1-.17-.42-.52-.67-.7c.26-.18.8-.04,1.05-.24s.15-.79.38-1,.16-.68.37-.91.93-.02,1.12-.27,0-.76.17-1.02.7-.31.84-.59.31-.56.43-.85.06-.65.16-.95.29-.57.37-.87-.38-.7-.33-1.01.66-.54.69-.85-.37-.63-.37-.95c0-.12.2-.13.2-.25,0-.31-.13-.62-.15-.92s-.18-.59-.23-.9.48-.74.41-1.04-.43-.54-.53-.84-.45-.49-.57-.78,0-.69-.15-.96-.79-.25-.95-.51.05-.77-.14-1.02-.37-.5-.58-.73-.75-.12-.98-.33-.17-.72-.41-.91-.39-.39-.65-.56c.26-.18.68-.03.92-.22s.25-.69.47-.9.51-.38.71-.62.03-.77.22-1.02.31-.5.48-.77.55-.37.7-.65.23-.57.35-.85.63-.43.73-.72-.01-.66.06-.97.06-.62.11-.93.35-.59.37-.9-.6-.64-.6-.95c0-.12.84-.13.84-.25,0-.31-.46-.63-.49-.93s.3-.68.25-.99-.76-.48-.83-.78-.27-.54-.37-.83.2-.72.07-1.01.03-.72-.12-.99-.21-.64-.38-.9-.49-.46-.68-.7-.57-.36-.77-.59-.2-.7-.43-.91-.86.02-1.1-.18-.79-.51-1.04-.68c.26-.18,1.03-.2,1.28-.4s.23-.68.45-.9.3-.54.51-.77.85-.1,1.04-.35.22-.62.39-.88-.06-.74.08-1.01.41-.46.53-.75-.01-.64.09-.93.82-.39.9-.7-.54-.73-.49-1.04.71-.52.74-.83.11-.63.11-.94c0-.12-.2-.12-.2-.25,0-.31-.03-.62-.05-.93s-.46-.55-.51-.86.33-.69.26-.99-.37-.53-.47-.83.43-.84.31-1.13-.6-.43-.75-.7-.14-.66-.3-.92-.71-.27-.9-.52-.2-.64-.41-.87-.29-.61-.51-.83-.79-.05-1.03-.25-.88-.51-1.13-.68c.26-.18.7-.73.94-.92s.51-.31.73-.53.92.04,1.13-.2.04-.78.22-1.03.17-.61.34-.87.74-.27.89-.55.1-.64.22-.93.02-.64.12-.93.04-.6.11-.9.36-.53.41-.84.55-.56.57-.87.08-.63.08-.95c0-.12-.52-.12-.52-.25,0-.31-.05-.6-.08-.91s.06-.62.01-.92-.22-.57-.29-.87-.26-.54-.36-.84.27-.76.15-1.04-.48-.46-.62-.73.03-.74-.14-1-.61-.34-.8-.58-.63-.26-.84-.49-.11-.74-.33-.95-.27-.65-.51-.84-1.13-.14-1.39-.31c.26-.18.87-.45,1.11-.65s.75-.09.98-.31.47-.44.68-.67.22-.64.41-.89.55-.39.71-.65-.13-.79.02-1.07.65-.37.77-.66-.38-.8-.28-1.09.51-.47.58-.77.07-.6.12-.91.67-.55.7-.86-.73-.65-.73-.96c0-.12.26-.13.26-.25,0-.31.1-.62.07-.93s-.13-.61-.18-.91.09-.66.02-.96.07-.69-.03-.98-.33-.57-.45-.85-.93-.24-1.07-.51,0-.69-.16-.95.12-.85-.07-1.1-.5-.43-.71-.66-.81-.08-1.04-.29-.26-.63-.5-.83-.49-.35-.74-.53c.26-.18.42-.44.66-.63s.19-.69.42-.9.49-.34.69-.57.78-.15.96-.4.61-.35.78-.61.03-.72.18-.99.12-.63.24-.91.76-.38.86-.68.2-.62.28-.93.16-.64.21-.94-.02-.66,0-.97.02-.64.02-.96c0-.12-.48-.12-.48-.25,0-.31-.14-.6-.16-.91s.54-.7.49-1-.81-.47-.89-.77.61-.83.51-1.12-.58-.46-.7-.75-.66-.36-.8-.63-.17-.58-.34-.85.13-.85-.06-1.09-.91-.05-1.11-.28-.13-.72-.35-.93-.75-.05-.99-.25.02-.75-.24-.93c.26-.18.17-.52.41-.72s.4-.45.63-.67.56-.3.77-.53.43-.44.62-.69.07-.68.24-.94.88-.2,1.03-.47.31-.56.43-.85.19-.61.28-.91.3-.58.38-.88.08-.64.13-.95.13-.63.15-.94-.72-.64-.72-.96c0-.12.17-.13.17-.25,0-.31-.07-.6-.09-.91s.52-.69.47-.99.01-.67-.06-.97-.4-.55-.5-.85.02-.7-.1-.98-.92-.25-1.07-.52-.3-.51-.47-.77,0-.75-.18-.99-.58-.32-.79-.55-.12-.76-.34-.97-.42-.5-.66-.7-1.04-.12-1.3-.3c.26-.18.79-.43,1.03-.63s.21-.66.44-.88.96.07,1.16-.16-.11-.89.07-1.14.97-.08,1.14-.34.23-.61.38-.88-.32-.83-.2-1.12.52-.44.62-.74.79-.43.86-.73-.74-.79-.69-1.09.38-.56.41-.87-.05-.61-.05-.92c0-.12-.3-.12-.3-.25,0-.31.68-.64.65-.95s0-.65-.05-.95-.37-.57-.44-.87-.61-.45-.71-.74.17-.71.05-.99-.15-.62-.29-.89-.05-.71-.21-.97-.55-.39-.74-.64-.57-.33-.78-.56-.02-.86-.24-1.08-.75-.11-.99-.31-.41-.36-.67-.54c.26-.18.43-.34.67-.54s.38-.5.6-.72.82-.09,1.03-.32-.14-.92.05-1.17.71-.26.87-.52.53-.43.68-.7-.07-.74.05-1.02.66-.43.76-.72-.38-.76-.3-1.07.81-.48.86-.79-.43-.69-.4-1.01.25-.62.25-.93c0-.12.23-.13.23-.25,0-.31-.09-.65-.12-.96s-.22-.62-.27-.93-.6-.51-.67-.81.59-.83.49-1.12-.28-.6-.4-.88-.49-.48-.64-.75-.48-.44-.65-.71-.19-.63-.37-.88-.4-.49-.6-.72-.84-.04-1.06-.25.06-1.01-.18-1.2-.56-.11-.82-.29c.26-.18.05-.75.29-.94s.87.08,1.1-.14.47-.42.68-.66.05-.75.24-1,.97-.09,1.14-.35.29-.59.43-.86-.46-.91-.34-1.19.22-.54.32-.83.9-.38.98-.68-.09-.66-.04-.97-.47-.66-.45-.98.06-.58.06-.89c0-.12.29-.13.29-.25,0-.31.42-.65.4-.95s-.15-.63-.2-.93.14-.69.07-.99-.91-.39-1.01-.68.16-.71.04-1,.08-.75-.06-1.02-.64-.37-.81-.63-.22-.62-.41-.86-.62-.3-.83-.53-.28-.6-.5-.81-.61-.25-.85-.44-.65-.47-.9-.65c.26-.18.5-.66.74-.85s.41-.43.63-.64,1.06.17,1.27-.07-.29-1.04-.1-1.29.5-.37.67-.63.58-.37.72-.64-.11-.72.01-1.01.26-.53.36-.83.97-.37,1.05-.67-.69-.77-.64-1.08.66-.53.68-.85-.33-.63-.33-.95c0-.12.44-.13.44-.25,0-.31.04-.65.01-.96s-.47-.58-.52-.88-.23-.58-.3-.88-.24-.55-.34-.85-.22-.55-.34-.84-.13-.6-.28-.88-.34-.5-.5-.76-.38-.46-.57-.71-.35-.48-.56-.71-.34-.5-.57-.71-.62-.19-.86-.39.15-.77-.11-.94c.26-.18.05-.52.29-.71s.62-.23.84-.44.73-.18.94-.41.04-.79.23-1.04.39-.48.55-.74.11-.64.26-.91.89-.27,1.01-.55.24-.61.34-.9-.07-.69,0-.99.3-.59.35-.9-.52-.68-.5-1,.27-.59.27-.9c0-.12.25-.13.25-.25,0-.31.19-.65.17-.96s-.2-.63-.25-.93-.39-.56-.47-.86,0-.65-.1-.94-.6-.43-.72-.71-.3-.51-.45-.78.37-.93.2-1.2-.52-.42-.71-.67-.44-.46-.65-.69-.35-.55-.57-.76-.61-.27-.85-.46-.14-.36-.4-.54c.26-.18.22-.27.46-.47s.15-.76.37-.97.69-.18.89-.41.22-.61.41-.86.29-.53.45-.79.48-.42.63-.69-.03-.68.09-.96.51-.44.61-.74.51-.5.59-.8-.28-.69-.23-1,.17-.59.19-.9-.09-.61-.09-.92c0-.12.57-.13.57-.25,0-.31-.54-.61-.56-.91s.04-.62-.01-.92.3-.7.22-1-.5-.51-.6-.81.22-.77.1-1.05-.39-.53-.54-.81-.77-.27-.93-.54-.11-.67-.3-.92-.28-.59-.48-.82-.26-.65-.48-.87-.68-.2-.92-.4-1.03-.28-1.28-.46c.26-.18,1.25,0,1.49-.21s.36-.57.59-.79.55-.36.76-.59-.02-.84.16-1.08.3-.53.47-.79.65-.33.8-.61-.11-.73.02-1.02.26-.54.36-.83.11-.59.18-.89.19-.57.24-.88-.11-.61-.09-.92.95-.58.95-.89c0-.12-.71-.12-.71-.25,0-.31-.08-.6-.11-.91s.28-.65.23-.95.27-.71.2-1.01-.82-.42-.92-.71.07-.68-.05-.97,0-.7-.15-.98-.2-.64-.37-.9-1.09,0-1.28-.24-.21-.6-.41-.83-.5-.35-.72-.56-.4-.44-.64-.63-.02-.65-.28-.82c.26-.18.1-.55.34-.74s.72-.12.94-.33.09-.76.3-.99.27-.54.46-.79.78-.19.95-.45.33-.53.48-.8.34-.53.47-.82-.27-.75-.17-1.05.62-.45.7-.75.54-.54.59-.85-.33-.68-.3-.99.48-.62.48-.93c0-.12-.21-.12-.21-.25,0-.31-.65-.59-.67-.9s.19-.63.14-.94-.36-.54-.44-.84.36-.74.26-1.04-.8-.35-.92-.63.08-.7-.06-.97-.08-.67-.25-.93-.56-.37-.75-.62-.63-.26-.84-.49.24-1.1.02-1.31-.6-.3-.84-.5-.21-.16-.46-.33c.26-.18-.03-.45.21-.65s.82-.02,1.05-.24.41-.51.61-.74,0-.81.19-1.05.84-.18,1.01-.44-.39-.94-.24-1.21.86-.27.98-.55-.02-.68.08-.97.24-.57.31-.88-.09-.64-.04-.95.63-.55.66-.86-.27-.64-.27-.96c0-.12.01-.13.01-.25,0-.31-.36-.6-.38-.9s.07-.61.02-.92-.26-.56-.33-.86.41-.76.32-1.06-.22-.6-.34-.89-.82-.29-.97-.56-.08-.65-.24-.91-.34-.51-.52-.76-.53-.34-.74-.57-.31-.54-.53-.75-.19-.73-.43-.92-1.08-.22-1.33-.4c.26-.18,1.09-.2,1.33-.4s.47-.42.7-.64-.03-.88.18-1.11.37-.45.55-.7.86-.14,1.03-.4.27-.57.42-.85.17-.61.29-.89.29-.55.39-.85.09-.62.16-.92.17-.59.22-.9.29-.59.32-.91-.33-.63-.33-.94c0-.12,0-.12,0-.25,0-.31.09-.62.07-.92s.13-.64.08-.95.08-.67,0-.97-.17-.63-.26-.92-.73-.39-.85-.67-.16-.6-.3-.87-.1-.65-.27-.92-.03-.76-.22-1.01-1.11.11-1.32-.12-.27-.56-.5-.77-.25-.64-.49-.83-.06-.38-.31-.55c.26-.18-.24-.74,0-.93s.52-.3.74-.51.74-.13.94-.36.53-.38.72-.62.32-.55.49-.81-.18-.81-.03-1.08.47-.43.59-.72.55-.45.65-.74.18-.61.25-.91.31-.59.36-.89-.28-.67-.26-.98.3-.61.3-.93c0-.12.12-.13.12-.25,0-.31-.34-.62-.36-.93s-.43-.56-.47-.86.48-.73.41-1.03-.09-.65-.19-.94-.39-.53-.52-.82-.44-.48-.58-.76.19-.85.03-1.11-1.08,0-1.27-.25.17-.94-.03-1.17-.36-.55-.59-.77-.92.1-1.16-.1-.24-.58-.5-.76c.26-.18.6-.14.84-.34s.35-.56.57-.78.2-.66.41-.89.41-.44.6-.69.18-.6.34-.86.96-.15,1.1-.43.08-.67.2-.95-.2-.72-.1-1.02.99-.36,1.06-.66-.67-.77-.62-1.08.09-.58.12-.89.61-.59.61-.9c0-.12-.55-.12-.55-.25,0-.31.15-.61.12-.92s.01-.62-.04-.92.29-.7.21-1-.47-.52-.56-.82-.61-.41-.74-.69.45-.9.31-1.17-.77-.28-.93-.54-.36-.48-.55-.73-.26-.57-.46-.81-.37-.5-.59-.72-.22-.7-.47-.9-.54-.12-.8-.29c.26-.18.09-.68.33-.87s.54-.28.77-.49.71-.17.92-.4.59-.34.78-.59.17-.66.34-.92.24-.58.39-.86.03-.66.15-.95.74-.38.84-.68-.31-.74-.23-1.04.08-.59.13-.9.51-.55.54-.87.18-.63.18-.94c0-.12-.24-.12-.24-.25,0-.31,0-.63-.03-.93s.31-.68.26-.99-.08-.66-.15-.96-.71-.46-.81-.75-.11-.62-.23-.9-.17-.61-.32-.88-.76-.26-.92-.52.39-1.03.2-1.27-.69-.27-.89-.5-.42-.46-.65-.68-.75-.06-1-.26-.28-.68-.53-.86c.26-.18.66-.21.9-.4s.27-.63.5-.85.64-.25.84-.48.65-.3.84-.55.27-.61.44-.87.16-.64.31-.92.2-.6.32-.89-.22-.73-.12-1.02.17-.56.24-.86.44-.52.49-.82-.13-.62-.1-.93.71-.59.71-.9c0-.12.14-.13.14-.25,0-.31-.37-.63-.39-.94s-.23-.6-.27-.91-.41-.54-.48-.83.66-.84.56-1.14-.86-.35-.98-.63-.41-.46-.56-.74.43-.97.26-1.23-.95-.1-1.14-.35-.52-.34-.72-.57-.08-.76-.31-.97-.45-.42-.7-.62-.16-.39-.42-.57c.26-.18-.12-.74.12-.94s.86.06,1.09-.15.3-.57.51-.8.33-.52.52-.77.5-.4.67-.66.75-.3.89-.58-.41-.89-.28-1.18.95-.31,1.05-.6-.64-.84-.57-1.14.37-.54.42-.84.43-.58.45-.89-.3-.63-.3-.95c0-.12-.06-.12-.06-.25,0-.31-.15-.6-.18-.91s.61-.7.56-1.01-.51-.54-.58-.84-.25-.57-.35-.86.31-.8.19-1.08-1.08-.17-1.23-.44.13-.77-.04-1.03-.5-.4-.69-.65-.45-.41-.65-.64-.1-.76-.32-.97-.4-.51-.64-.71-1.08-.18-1.34-.36c.26-.18,1-.29,1.24-.48s.54-.35.76-.56.3-.58.51-.81.15-.66.34-.91.29-.52.46-.78.58-.36.73-.63.01-.66.14-.95.39-.49.49-.78.28-.55.35-.85.04-.61.09-.92.05-.6.07-.91-.05-.6-.05-.91c0-.12.41-.13.41-.25,0-.31,0-.63-.01-.94s-.35-.58-.4-.89-.33-.54-.41-.84.47-.78.37-1.07-.03-.68-.15-.97-.91-.26-1.05-.54-.34-.49-.51-.75.14-.85-.04-1.1-.29-.6-.5-.83-.76-.14-.99-.36-.6-.24-.84-.43-.72-.6-.98-.78c.26-.18,1.15-.07,1.39-.26s.17-.76.4-.97.83-.08,1.04-.31.18-.69.36-.94-.15-.84.02-1.1.82-.22.96-.5.03-.67.15-.96.34-.52.44-.82.38-.54.45-.84.13-.62.18-.92-.41-.66-.38-.98.47-.59.47-.9c0-.12.41-.13.41-.25,0-.31-.62-.61-.65-.92s-.08-.61-.13-.91.21-.68.13-.98-.33-.56-.43-.85-.27-.56-.39-.84-.37-.5-.51-.77-.03-.7-.19-.96-.21-.63-.4-.88-.8-.15-1.01-.38-.29-.57-.51-.78-.19-.74-.44-.93-.94-.11-1.2-.29c.26-.18,1.01-.03,1.25-.23s.22-.71.45-.93.55-.34.76-.57.24-.61.43-.86.8-.22.97-.48-.4-.96-.26-1.23.4-.47.52-.76.44-.48.54-.78.19-.59.26-.89-.08-.64-.03-.95.34-.58.37-.89-.19-.62-.19-.94c0-.12.26-.13.26-.25,0-.31-.58-.59-.6-.89s.48-.67.43-.97-.55-.51-.62-.81.16-.68.07-.97.12-.72,0-1.01-.2-.63-.34-.9-.35-.55-.51-.81-.66-.31-.85-.56-.26-.6-.47-.83-.59-.3-.81-.51-.57-.27-.81-.46-.47-.59-.73-.76c.26-.18.75-.24,1-.44s.03-.88.26-1.1,1,.11,1.2-.12.09-.74.27-.99.85-.18,1.01-.44-.07-.78.07-1.05.41-.49.53-.78.12-.62.21-.92.51-.51.59-.81-.16-.68-.11-.99.18-.61.2-.92.4-.63.4-.94c0-.12-.06-.12-.06-.25,0-.31-.09-.65-.11-.96s-.58-.56-.63-.87-.36-.54-.44-.84-.03-.61-.13-.9.55-.88.42-1.17-.7-.38-.84-.65-.1-.68-.26-.94-.37-.52-.56-.77-.48-.43-.68-.66-.36-.54-.59-.75-.81-.01-1.05-.21-.61-.61-.87-.79c.26-.18.68-.53.92-.73s.66-.18.89-.39.31-.56.51-.8.33-.52.52-.76.41-.45.58-.72.09-.64.24-.91.18-.56.3-.85.32-.5.42-.8.91-.38.99-.68-.31-.71-.26-1.02-.17-.63-.15-.94.85-.59.85-.91c0-.12-.83-.12-.83-.25,0-.31.16-.61.13-.92s.03-.62-.01-.93.08-.65,0-.95-.63-.46-.73-.75-.04-.63-.16-.91-.23-.56-.37-.84.22-.86.05-1.12-.44-.49-.62-.74-.98,0-1.19-.23.09-.95-.13-1.16-.62-.25-.87-.45-.8-.34-1.05-.52c.26-.18.69-.47.94-.66s.31-.56.54-.77.81-.07,1.02-.3-.08-.85.11-1.1.73-.23.89-.49.42-.48.57-.75.05-.66.18-.95.06-.62.16-.92.48-.49.56-.79.6-.53.65-.84-.87-.73-.84-1.04.97-.58.97-.89c0-.12-.86-.12-.86-.25,0-.31.82-.66.8-.97s-.28-.62-.33-.92-.18-.61-.26-.91-.35-.55-.45-.84-.45-.48-.57-.76.06-.71-.08-.98-.65-.32-.82-.59-.4-.43-.59-.68.12-.89-.08-1.12-.53-.36-.76-.57-.45-.44-.69-.63-.7-.35-.96-.52c.26-.18.95-.05,1.19-.24s0-.94.23-1.15.34-.49.55-.72,1.02.03,1.2-.21.4-.52.57-.78-.09-.78.06-1.06.54-.43.66-.72.02-.66.12-.96.39-.54.47-.84-.03-.65.02-.96.43-.59.45-.9-.13-.65-.13-.96c0-.12.17-.13.17-.25,0-.31-.39-.62-.42-.93s-.31-.58-.36-.88.45-.73.38-1.03-.89-.38-.99-.68-.22-.54-.35-.82,0-.65-.15-.93-.2-.59-.36-.85.12-.86-.07-1.1-.8-.17-1-.4-.16-.73-.38-.94-.79-.05-1.03-.25-.06-.5-.31-.68c.26-.18-.08-.67.16-.86s.59-.23.81-.45.72-.17.93-.4.39-.5.58-.75.03-.73.2-.99.1-.62.25-.9.49-.42.61-.71.47-.48.57-.77-.07-.66,0-.96-.06-.61,0-.92.2-.57.23-.88-.08-.59-.08-.91c0-.12.84-.13.84-.25,0-.3-.79-.56-.81-.86s.14-.59.1-.88-.05-.58-.12-.87.14-.65.05-.93.03-.66-.08-.93-.17-.61-.3-.87-.6-.37-.75-.62-.15-.63-.32-.87-.77-.16-.96-.38-.18-.62-.39-.83-.5-.34-.72-.53-.58-.2-.82-.38-.44-.36-.69-.52-.46-.47-.72-.61Z"/>
  </g>
</svg>