<?xml version="1.0" encoding="UTF-8"?>
<svg id="Layer_2" data-name="Layer 2" xmlns="http://www.w3.org/2000/svg" viewBox="0 0 159.9 159.9">
  <defs>
    <style>
      .cls-1 {
        fill: #b55434;
      }
    </style>
  </defs>
  <g id="Layer_1-2" data-name="Layer 1">
    <g>
      <g>
        <path class="cls-1" d="M104.76,155.37c-.26.14-.92-.1-1.2.03s-.36.64-.64.76-.6.14-.88.25-.68-.11-.97,0-.37.76-.66.86-.71-.24-1-.15-.58.14-.88.22-.51.43-.8.5-.7-.32-.99-.25-.52.39-.82.46-.62-.06-.92,0-.6.04-.89.1-.54.38-.84.43-.57.25-.87.29-.63-.14-.93-.1-.6.04-.9.07-.55.46-.85.49-.62-.13-.92-.1-.62-.12-.92-.1-.61-.14-.92-.12-.6.05-.9.07-.59.13-.9.15-.59.24-.9.25-.61-.01-.91,0-.6.26-.9.26-.61.14-.91.14-.61-.21-.91-.21-.61.12-.91.12-.61-.2-.91-.21-.61.02-.91.01-.61.13-.91.12-.6-.2-.9-.21-.59-.3-.89-.32-.64.5-.94.48-.61-.03-.91-.05-.61.02-.91,0-.57-.52-.86-.54-.59-.18-.89-.21-.63.22-.93.18-.57-.32-.87-.36-.59-.17-.88-.21-.68.46-.97.42-.58-.21-.88-.26-.5-.54-.8-.59c-.3-.08-.66.12-.96.04s-.59-.22-.89-.29-.61-.13-.91-.2-.56-.35-.86-.42-.73.36-1.03.29-.64-.03-.94-.11-.5-.52-.79-.61-.69.11-.98,0-.42-.62-.71-.74-.6-.14-.88-.28-.46-.29-.73-.44c.01-.27-.03-.48.07-.8.08-.26.07-.59.2-.89.11-.26.11-.6.26-.88.14-.25.49-.39.66-.66.15-.24.15-.6.33-.86.16-.24.32-.5.5-.75s.72-.2.9-.44.27-.53.46-.77.24-.56.44-.8.2-.61.4-.84.63-.24.82-.47.5-.35.7-.57.31-.51.52-.73.24-.59.44-.81.73-.13.94-.35.11-.72.31-.94.68-.17.89-.39.19-.65.4-.86.31-.54.52-.76.83-.02,1.04-.23.06-.8.27-1.01.59-.26.8-.47.22-.64.43-.85.73-.11.94-.32.53-.32.75-.52.09-.78.31-.98.62-.22.83-.42.59-.25.81-.44.15-.73.36-.92c.23-.21.74-.08.96-.28.23-.21.4-.46.61-.65.23-.21.1-.81.31-1,.24-.21.66-.18.87-.36.25-.22.3-.61.49-.78.23-.21.7-.13.94-.3.25-.18.35-.62.61-.77s.73.09,1.01-.02.49-.46.78-.53.62-.1.92-.12.63-.06.93-.04.56.32.86.39.67-.11.96,0,.57.25.84.4.4.5.65.68.29.57.52.77c.2.17.74,0,.99.22.21.18.16.68.39.89.21.19.82-.05,1.05.16.21.19.28.56.51.77.21.19.29.56.51.76.21.2.63.18.86.39s.3.54.53.75.59.24.81.44.14.71.35.92.6.22.82.42.44.39.66.6.43.41.65.62.3.55.51.75.67.16.89.37.16.69.37.9.46.38.67.59.54.31.75.52.32.52.53.74.28.56.49.77.38.46.59.68.81.06,1.01.28-.04.85.16,1.07.67.2.87.42.4.45.59.67.44.42.63.64.3.54.49.76.21.6.39.83.81.15.98.38c.18.25-.03.77.14,1.01.18.25.21.58.37.83.17.26.64.31.79.56.16.27.49.44.62.7.14.29.16.63.25.89.11.31.33.81.36,1.07Z"/>
        <path class="cls-1" d="M27.15,84.36c-.16.19-.43.36-.65.61-.18.2-.24.54-.45.78-.19.21-.51.31-.72.55-.19.21-.57.27-.78.5-.19.21-.18.63-.39.85-.2.21-.31.52-.51.74s-.62.23-.82.45-.13.68-.34.9-.52.32-.73.54-.34.49-.55.7-.61.24-.81.45-.38.46-.59.67-.43.41-.64.62-.08.75-.29.97-.84,0-1.05.22-.07.78-.28.99-.35.5-.57.71-.85-.01-1.06.19-.11.74-.33.95-.41.44-.63.64-.74.08-.96.29-.43.41-.65.61-.4.45-.62.65-.44.4-.67.6-.27.61-.49.8-.44.42-.66.61-.33.56-.56.74-.79-.02-1.02.16c-.24.19-.5.34-.73.51-.25.18-.45.41-.69.57-.26.17-.58.21-.83.36-.27.16-.32.71-.56.83-.29.14-.7-.04-.95.05-.33.1-.43-.02-.69-.03-.15-.25-.64-.15-.79-.42-.14-.26-.38-.49-.51-.76s.24-.75.12-1.04-.34-.49-.45-.78-.02-.62-.11-.9-.4-.49-.49-.78-.55-.46-.63-.75-.16-.58-.24-.87-.02-.61-.09-.9,0-.61-.07-.9-.25-.56-.3-.85-.25-.56-.31-.86.33-.66.28-.96-.51-.52-.56-.82.09-.62.04-.92.12-.62.08-.92-.04-.59-.08-.89-.48-.55-.51-.85.5-.65.47-.95-.53-.55-.55-.85.39-.63.37-.92-.36-.57-.38-.87.36-.62.34-.92-.14-.59-.15-.89-.11-.59-.12-.89.03-.6.03-.9.14-.6.13-.9.09-.6.09-.9S0,79.36,0,79.06s.36-.6.37-.9-.3-.61-.29-.91-.04-.6-.03-.9.61-.57.63-.87-.54-.63-.52-.93.48-.57.5-.87-.52-.64-.5-.94.36-.58.39-.87.25-.58.28-.88-.07-.61-.04-.91-.21-.63-.17-.93.35-.56.39-.86.35-.55.4-.85-.45-.68-.4-.97.68-.49.74-.78-.5-.71-.44-1,.51-.52.57-.81.28-.55.35-.84.09-.59.17-.88-.12-.66-.04-.94.41-.51.5-.79-.02-.64.08-.92.42-.49.52-.76.32-.51.43-.78.06-.62.19-.89.24-.54.38-.8c.14-.27.32-.35.47-.6.25-.02.46-.45.79-.34.25.08.58.18.87.33.25.12.56.22.83.39.24.15.42.44.68.62.24.16.38.48.63.67.23.17.45.38.69.57.23.18.53.28.77.47s.44.39.68.59.58.24.81.44.44.4.67.6.14.73.37.93.38.46.6.66.65.17.87.38.62.21.84.41.49.36.7.56.03.83.24,1.04.64.2.86.41.42.43.63.64.2.65.41.86.63.22.84.44.31.54.52.76.7.16.91.38.07.78.27.99.69.18.89.4.3.55.51.76.38.48.58.69.21.63.41.85.79.09.98.31.22.62.42.83c.21.23.53.34.73.55.21.23.34.51.54.72.21.23.22.62.41.83.22.24.71.2.89.4.22.25.08.78.24.97.2.23.43.37.6.61s.51.37.64.63.35.5.44.78.39.54.45.82-.45.66-.43.95.29.58.27.87-.3.54-.36.82.25.69.15.96-.36.5-.49.76-.41.44-.58.68-.34.47-.53.69Z"/>
        <path class="cls-1" d="M155.61,104.49c-.32.04-.81-.26-1.1-.29s-.59-.13-.87-.23-.52-.29-.79-.44-.44-.41-.69-.58-.58-.22-.82-.4-.48-.37-.73-.54-.55-.27-.81-.42c-.22-.2-.39-.46-.61-.66s-.35-.5-.57-.71-.79-.03-1.01-.24-.28-.58-.5-.79-.25-.61-.47-.81-.78-.04-1-.25-.19-.68-.41-.88-.68-.16-.89-.36,0-.87-.21-1.08-.51-.33-.73-.54-.39-.46-.6-.67-.45-.39-.67-.6-.71-.13-.92-.34-.36-.48-.58-.69-.47-.38-.68-.59-.5-.35-.71-.56-.25-.59-.46-.8-.47-.37-.68-.59-.6-.26-.8-.47-.28-.56-.49-.78-.45-.4-.65-.62-.33-.5-.54-.73-.55-.3-.76-.53-.34-.5-.54-.73-.46-.39-.66-.62-.31-.52-.51-.75-.22-.61-.41-.83-.69-.24-.85-.48-.04-.68-.17-.94-.22-.55-.32-.82-.06-.58-.12-.87-.31-.55-.33-.84.3-.58.32-.87-.15-.59-.09-.88-.15-.67-.06-.95.43-.48.56-.74.26-.53.42-.78.6-.26.8-.48c.16-.19.15-.59.38-.85.18-.2.33-.46.54-.7.19-.21.23-.57.44-.8.19-.21.6-.24.81-.47.19-.21.23-.59.43-.81.2-.21.4-.43.61-.65s.65-.2.86-.42.2-.62.41-.84.66-.2.86-.41.01-.8.22-1.01.55-.29.76-.51.71-.13.92-.35.25-.58.46-.79.29-.54.51-.76.51-.34.72-.55.63-.21.84-.42.1-.75.31-.96.51-.34.72-.54.38-.47.59-.68.74-.1.95-.3.46-.38.68-.58.35-.5.57-.7.55-.28.77-.48,0-.9.23-1.1.48-.37.71-.56.59-.24.82-.42.31-.59.54-.77.78.02,1.01-.16c.25-.19.36-.54.59-.7.25-.18.48-.39.72-.55.26-.17.5-.39.74-.53.28-.16.67-.05.92-.16.3-.14.52-.38.78-.45.33-.09.56.04.81.08.16.25.13.53.28.8.14.26.75.28.89.56s-.16.72-.04,1.01.61.4.72.69-.04.65.05.94.02.61.11.91.11.58.19.88.19.56.26.86.18.57.25.86.16.57.22.87.19.57.25.87.32.55.37.85.3.56.34.86-.46.68-.42.98.05.59.09.9.59.53.63.83-.11.62-.08.92.14.59.17.89-.24.62-.21.92-.11.61-.09.91.1.59.11.89-.01.6,0,.9.6.57.62.88-.29.61-.28.92.32.6.33.9-.44.61-.44.91.21.6.21.9-.03.6-.03.91.14.61.13.91-.2.6-.21.9.05.61.03.91.27.62.26.92-.67.57-.69.87.32.62.3.93.08.61.06.91.06.61.03.91.04.61,0,.91-.19.59-.22.89-.11.6-.15.9-.3.57-.34.87.26.65.22.95-.55.53-.6.83-.21.58-.26.88.27.67.22.96-.47.53-.53.82.25.67.19.97-.47.51-.54.8-.26.55-.34.84,0,.62-.08.91-.28.54-.37.83.41.77.32,1.05-.78.37-.89.65.06.67-.05.95-.43.47-.55.74.13.93,0,1.19Z"/>
        <path class="cls-1" d="M85.19,26.11c-.23.21-.22.66-.46.84s-.59.2-.84.36-.45.42-.72.55-.59.13-.88.23-.46.63-.75.7-.65,0-.94.03-.63.12-.93.11-.64,0-.94-.05-.53-.47-.82-.55-.68.09-.96-.03-.29-.77-.55-.91-.79.15-1.04-.03-.51-.36-.73-.56c-.19-.17-.49-.29-.74-.51-.2-.18-.13-.71-.37-.92-.21-.19-.42-.4-.65-.61-.21-.19-.28-.56-.51-.77-.21-.2-.43-.4-.65-.61-.21-.2-.58-.24-.81-.45s-.7-.12-.92-.33-.29-.56-.51-.77-.26-.58-.48-.78-.78-.05-.99-.26-.26-.59-.47-.8-.26-.58-.47-.8-.68-.16-.9-.37-.42-.43-.63-.64-.35-.49-.56-.71-.13-.71-.34-.93-.45-.4-.66-.62-.38-.47-.58-.69-.74-.13-.94-.35-.06-.76-.26-.98-.78-.11-.98-.33-.32-.52-.52-.74-.21-.61-.41-.84-.56-.32-.75-.55-.25-.58-.43-.81-.35-.49-.53-.73-.62-.3-.79-.53c-.18-.25-.31-.53-.47-.77-.18-.26,0-.73-.16-.97-.17-.26-.3-.52-.44-.77-.16-.27-.47-.43-.59-.68-.14-.29-.55-.45-.64-.71-.11-.31-.2-.77-.23-1.04.26-.13.77-.03,1.05-.16s.58-.14.86-.25.46-.45.74-.55.65.07.94-.02.39-.68.68-.78.54-.28.83-.37.69.26.98.19.63.09.92.02.57-.13.86-.19.55-.22.85-.28.53-.38.82-.43.55-.27.85-.32.57-.21.87-.26.59-.12.88-.17.62.1.91.06.62.16.92.13.56-.31.86-.34.6,0,.9-.04.59-.03.89-.06.57-.31.87-.34.6.06.9.04.61.23.91.21.58-.3.88-.32.59-.16.89-.17.6.1.9.09.6.17.9.16S78.68,0,78.98,0s.6.42.9.42.6-.26.9-.26.6.18.89.19.6-.11.9-.1.61-.23.91-.22.57.61.87.63.63-.64.93-.62.57.43.87.45.59.12.89.14.59.12.89.15.6.02.89.05.62-.19.92-.15.59.18.88.22.6.02.9.06.59.15.88.2.58.15.88.2.56.3.85.35.71-.5,1-.45.46.77.75.83.59.07.88.14.58.12.87.19.62-.03.91.04.65-.08.93,0,.47.51.75.6.57.18.85.27.7-.18.98-.08.6.13.87.24.5.38.76.5.23.55.49.68c-.03.27.04.39-.08.71-.09.26.03.65-.11.94-.13.26-.12.62-.28.9-.15.25-.69.28-.86.54-.16.25-.51.37-.69.62-.17.24-.22.57-.41.82s-.43.42-.62.67-.02.75-.21,1-.75.17-.94.4-.05.74-.25.97-.54.33-.75.56-.5.36-.71.59-.32.53-.52.76-.49.37-.7.59-.44.42-.65.64-.3.55-.51.77-.23.63-.44.85-.67.2-.88.42-.31.55-.52.77-.54.32-.76.54-.24.63-.46.84-.31.57-.52.78-.67.19-.89.4-.2.68-.42.89-.65.21-.87.42-.71.15-.92.35-.38.49-.6.69c-.23.21-.32.56-.54.76-.23.21-.36.52-.58.72-.23.22-.48.4-.69.6-.24.22-.27.64-.48.83-.24.22-.92-.08-1.13.1Z"/>
        <path class="cls-1" d="M40.52,124.82c.02.21.07.52.09.91.01.27.18.57.19.91,0,.28.06.59.07.91,0,.29-.36.6-.35.92,0,.29.28.59.29.91,0,.3.06.6.06.91s-.32.6-.32.91.28.61.28.92-.17.6-.18.91.2.61.19.92-.15.61-.16.91-.11.61-.13.91.04.62.02.92-.1.61-.12.91.02.62,0,.92-.23.6-.25.9.11.63.08.93.03.63,0,.93-.06.62-.1.92c-.05.31-.09.62-.14.91-.06.31-.13.62-.2.9-.07.31-.25.59-.33.87-.09.31-.08.65-.19.91-.13.31-.39.54-.53.77-.19.3-.44.47-.66.61-.27.16-.51.18-.83.08-.28-.08-.65.05-.94-.06s-.56-.23-.84-.35-.47-.42-.75-.55-.65-.03-.93-.17-.4-.53-.67-.68-.53-.27-.8-.43-.57-.22-.83-.38-.61-.18-.86-.35-.46-.4-.71-.57-.33-.58-.57-.76-.54-.28-.79-.46-.4-.46-.64-.65-.6-.22-.83-.41-.48-.37-.71-.57-.39-.47-.61-.67-.37-.49-.59-.69-.47-.38-.69-.58-.49-.36-.71-.57-.43-.42-.64-.64-.32-.53-.53-.75-.53-.33-.74-.55-.29-.56-.49-.78-.59-.29-.79-.51-.49-.38-.69-.61-.33-.51-.53-.75-.33-.52-.52-.75-.51-.38-.69-.61-.35-.5-.53-.74-.24-.58-.41-.83-.36-.49-.53-.74-.34-.51-.51-.76-.19-.6-.35-.86-.32-.51-.48-.77-.44-.44-.59-.7-.37-.49-.51-.76-.09-.64-.22-.9-.6-.39-.72-.66.04-.68-.08-.96-.48-.46-.59-.74.06-.67-.03-.95-.17-.44-.25-.73c.29-.07.39-.37.68-.43s.62.05.91,0,.61.01.9-.05.58-.12.87-.17.53-.4.82-.45.63.17.92.12.58-.12.87-.17.57-.22.86-.26.62.14.91.1.55-.37.85-.41.61.08.9.04.57-.29.86-.32.61.13.91.1.6.12.9.1.58-.25.87-.27.59-.09.89-.11.61.24.9.22.58-.35.88-.36.6.31.9.3.59-.34.88-.34.6.19.89.19.59-.11.89-.11.59.02.89.03.59.09.89.1.6-.12.89-.11.59.18.89.19c.33.02.66-.11.97-.05.32.06.62.2.91.32s.63.19.9.36.54.38.77.59.39.52.58.77.35.53.49.81.39.53.49.83.21.61.27.93-.1.65-.08.98Z"/>
        <path class="cls-1" d="M147.57,122.94c-.13.26-.46.42-.6.69s-.26.52-.41.79-.06.64-.21.91-.32.5-.48.76-.38.46-.54.71-.32.5-.48.75-.34.49-.51.73-.39.45-.56.7-.24.56-.42.8-.36.47-.54.72-.33.5-.51.74-.51.35-.7.59-.13.66-.31.89-.36.47-.55.7-.43.42-.62.64-.48.38-.67.6-.44.4-.64.63-.32.51-.52.73-.37.47-.57.69-.42.42-.63.64-.58.26-.79.48-.12.72-.33.93-.64.2-.85.41-.38.46-.6.66-.4.45-.62.64-.49.34-.72.54-.52.3-.75.49-.29.59-.52.78-.62.18-.85.36-.31.58-.55.76-.57.23-.81.4-.43.44-.68.6-.63.13-.88.29-.48.36-.74.5-.56.22-.82.36-.5.33-.77.45-.44.5-.71.61-.64.01-.92.11-.51.38-.79.46-.58.18-.87.25-.62,0-.91.04c-.24.04-.46-.18-.66-.54-.12-.21-.09-.53-.19-.86-.08-.25-.2-.52-.28-.83-.06-.27-.36-.51-.42-.81-.05-.28.13-.61.08-.91-.04-.28-.02-.58-.06-.88-.04-.28-.15-.57-.18-.87s-.15-.57-.18-.87-.1-.58-.12-.88-.19-.57-.21-.87,0-.59-.02-.89-.06-.59-.08-.88.05-.59.04-.89.08-.6.07-.89-.19-.59-.2-.88-.11-.59-.12-.89,0-.6-.02-.89.25-.61.24-.9-.23-.59-.23-.88-.07-.6-.07-.89.21-.6.21-.89c0-.31-.06-.6-.06-.89,0-.31-.07-.61-.07-.89,0-.31.19-.61.19-.88,0-.32.12-.61.13-.88.01-.35.01-.64.03-.87.02-.3-.04-.6.01-.89s.19-.56.28-.84.19-.55.32-.82.21-.56.38-.8.31-.52.51-.74.37-.5.6-.69.54-.29.8-.43.54-.26.83-.36.59-.07.89-.12.57-.21.88-.22c.2,0,.5-.08.89-.09.26,0,.56.14.89.14.27,0,.57.07.88.07.28,0,.58-.04.89-.04.29,0,.58-.19.89-.19.29,0,.58.17.89.18s.58.23.88.24.59-.07.89-.06.59-.14.89-.13.59.04.89.05.59.07.89.08.6-.08.9-.07.59.1.89.12.59.18.88.2.59.12.88.14.6.02.89.05.59.14.88.18.62-.16.91-.12.6.05.89.09.6.09.89.13c.3.05.59.15.87.21.3.06.55.3.83.37.3.07.66-.1.93-.01.31.09.56.29.81.4.31.13.49.39.71.53.29.2.42.36.53.59.12.26.3.48.14.79Z"/>
        <path class="cls-1" d="M146.33,39.04c-.3.05-.62-.03-.92.02s-.6.09-.9.13-.57.34-.86.38-.61.06-.91.1-.58.25-.88.29-.63-.1-.93-.06-.58.27-.88.31-.61,0-.92.04-.61.05-.91.08-.61-.02-.92.01-.6.06-.91.09-.61.04-.91.07-.6.09-.9.11-.61-.07-.92-.05-.61,0-.91,0-.59.28-.9.29-.62-.35-.92-.34-.6.16-.9.16-.61-.05-.91-.05-.6-.08-.91-.08-.6-.02-.91-.02-.6.02-.91.02-.61.08-.91.07-.58-.17-.86-.22c-.31-.04-.63.11-.91.04-.3-.08-.57-.22-.83-.34-.28-.12-.63-.13-.87-.29s-.46-.42-.67-.62-.45-.42-.63-.65-.31-.52-.46-.78-.15-.58-.27-.86-.25-.53-.34-.82-.14-.57-.21-.86,0-.59-.05-.89-.43-.53-.47-.83-.09-.59-.11-.89.09-.6.07-.9.03-.59.03-.89.2-.59.2-.89-.28-.6-.27-.9.23-.58.25-.88-.27-.61-.24-.91.13-.59.16-.88.23-.58.26-.87.15-.58.18-.88-.01-.6.02-.9-.14-.62-.1-.91.2-.58.24-.87.19-.58.22-.87-.24-.63-.2-.92.21-.58.24-.87.11-.59.14-.88.13-.59.15-.88c.03-.3.16-.59.18-.88.02-.31-.09-.6-.09-.89.1-.31-.03-.67.05-.96.08-.32.51-.52.6-.81.1-.31.04-.65.19-.92s.34-.43.58-.66c.28.08.55,0,.84.09s.6.07.89.18.45.46.73.58.58.15.85.28.53.27.79.4.45.4.72.55.54.24.8.38.67.03.93.18.37.53.62.69.62.14.86.31.3.6.55.77.66.1.9.28.31.57.55.75.44.39.68.57.48.34.71.53.65.15.88.34.44.4.66.6.2.66.42.86.69.13.91.33.37.48.58.68.35.49.56.7.37.47.58.68.47.37.67.59.31.52.51.74.34.49.54.71.47.38.66.6.56.3.75.53.32.51.51.74.28.54.46.78.38.46.56.69.4.45.57.68.36.48.53.72.36.48.53.72.43.43.59.67.08.66.24.91.61.32.76.57.24.55.39.81.32.51.46.76.37.49.5.75-.01.68.11.94.32.51.44.77c.13.35.42.67.42.97,0,.33-.29.62-.59.87-.21.17-.51.25-.92.36Z"/>
        <path class="cls-1" d="M39.69,17.21c0,.28.27.55.28.86,0,.28.08.58.1.88.02.29-.04.59-.01.89.02.29-.09.6-.06.9s-.02.59,0,.89.09.58.12.88.17.57.2.87-.03.6,0,.89.38.56.41.85-.31.63-.29.92.1.59.12.88.08.59.1.89.12.59.13.89.08.59.09.89-.21.6-.2.9.07.59.07.89.24.6.23.9-.08.6-.1.89-.13.59-.17.88.09.62.04.91-.11.6-.18.88c-.07.3-.18.59-.27.86-.09.29-.21.58-.33.84-.13.28-.31.53-.46.77s-.42.43-.62.65-.37.47-.61.65-.52.26-.8.38c-.26.11-.5.38-.8.44-.28.06-.61-.12-.92-.1s-.61-.07-.92-.06-.59.44-.89.45-.61-.01-.92,0-.62-.31-.92-.3-.61.04-.91.05-.61.26-.91.26-.61.08-.92.08-.61-.4-.91-.41-.61.32-.92.32-.61.01-.91,0-.61-.09-.91-.11-.59-.28-.9-.3-.62.15-.92.13-.6-.18-.9-.21-.6-.07-.9-.1-.62.1-.92.07-.6-.11-.9-.14-.58-.22-.88-.26-.6-.1-.9-.14-.66.3-.96.26-.56-.37-.86-.42-.58-.19-.88-.24-.66.25-.96.19-.56-.31-.86-.37-.55-.31-.85-.37-.75.12-1.05.05c.06-.28.32-.63.4-.93s.3-.51.41-.8-.09-.66.02-.94.39-.48.51-.75.24-.54.37-.81.18-.57.32-.84.19-.57.34-.83.3-.51.46-.77.42-.44.58-.69.44-.42.61-.67.1-.65.27-.89.6-.3.78-.54.29-.52.47-.76.36-.47.54-.71.21-.59.4-.82.41-.43.6-.65.45-.39.64-.62.38-.46.58-.68.41-.43.61-.65.22-.61.42-.83.5-.34.71-.56.34-.51.55-.72.63-.21.84-.41.24-.61.46-.81.67-.16.89-.36.21-.66.43-.85.55-.28.77-.47.59-.22.82-.41.36-.5.59-.69.55-.27.78-.45.39-.48.62-.65.38-.5.62-.67.54-.27.79-.44.49-.34.74-.5.61-.15.86-.31.48-.35.74-.5.45-.42.71-.56.5-.34.76-.47.52-.31.79-.44.69.08.96-.03.45-.49.72-.59.64.03.92-.06.54-.35.83-.42c.18.23.46.44.6.7s.15.58.25.85.2.55.27.83.22.54.28.83.06.57.12.86-.2.6-.13.89Z"/>
      </g>
      <g>
        <g>
          <path class="cls-1" d="M83.64,85.95c.13-.1.34-.13.47-.23.13-.11.24-.24.37-.35.12-.11.26-.22.38-.34.12-.12.2-.27.32-.39.12-.12.15-.31.27-.43.11-.12.36-.14.47-.27.11-.12.09-.34.19-.47.1-.13.36-.15.46-.28.1-.13.11-.32.2-.45.09-.13.26-.23.35-.36.09-.14.07-.33.14-.47.08-.14.21-.26.28-.4.07-.14.19-.27.25-.42.07-.15.05-.33.11-.48.06-.15.15-.29.2-.44.05-.15.09-.31.13-.46.04-.15.05-.32.08-.47.04-.15.09-.31.12-.47.03-.15.14-.3.17-.45.02-.16-.02-.32,0-.47.02-.16-.09-.32-.08-.47.01-.16.23-.3.24-.46,0-.16-.22-.31-.23-.47,0-.16.07-.31.06-.47-.01-.16.01-.31,0-.47-.02-.16.02-.32,0-.47-.03-.15-.18-.28-.22-.43-.04-.15.04-.33-.01-.48-.05-.15-.05-.33-.11-.47-.07-.15-.26-.24-.34-.37-.09-.13-.23-.22-.33-.34-.1-.12-.24-.2-.36-.31-.12-.11-.12-.33-.25-.43-.12-.1-.38-.04-.52-.14-.13-.09-.18-.28-.32-.37-.13-.09-.3-.12-.44-.22-.12-.09-.26-.18-.39-.28-.13-.1-.17-.33-.31-.43-.14-.09-.27-.23-.42-.31-.15-.08-.34-.1-.5-.17-.15-.07-.36-.04-.52-.11-.16-.07-.34-.08-.5-.14-.16-.06-.32-.11-.49-.17-.16-.06-.27-.24-.44-.3-.16-.05-.3-.19-.46-.25-.16-.05-.38.04-.55-.02-.16-.05-.31-.17-.47-.22-.16-.05-.35-.05-.52-.1-.36-.11-.34-.17-.7-.28-.14-.05-.34.05-.5,0-.15-.05-.29-.12-.44-.16-.15-.04-.29-.12-.44-.17-.15-.04-.26-.2-.41-.25-.15-.04-.35.04-.5,0-.15-.04-.26-.23-.41-.27-.17-.05-.39.07-.56.02-.17-.05-.35-.07-.52-.12-.17-.05-.26-.34-.43-.39-.17-.05-.35-.08-.52-.13-.17-.05-.41.08-.57.03-.17-.05-.28-.29-.45-.34-.18-.06-.38-.02-.54-.08-.18-.06-.36-.09-.52-.14-.18-.07-.34-.15-.49-.22-.19-.08-.41-.08-.53-.15-.14-.08-.17-.31-.29-.39-.14-.09-.35-.06-.47-.15-.13-.1-.2-.25-.31-.34-.12-.11-.33-.13-.43-.23-.11-.12,0-.38-.08-.5-.09-.13-.31-.18-.36-.31-.07-.17.05-.38,0-.55-.04-.17-.16-.33-.17-.51,0-.17-.03-.35-.01-.54.01-.17.1-.34.14-.52.03-.17,0-.34.06-.5.05-.16.08-.33.15-.48.07-.15.16-.3.25-.44.09-.14.25-.24.36-.37.11-.13.1-.36.23-.48.12-.12.39-.09.53-.2.13-.1.2-.29.35-.39.15-.09.26-.25.42-.33.16-.08.32-.16.49-.23.16-.07.36-.07.53-.12.17-.06.35-.06.53-.11.17-.04.32-.2.5-.23.17-.03.37.06.55.04.18-.02.35-.14.53-.15.18,0,.36-.01.54-.01s.36,0,.53,0c.18,0,.34.19.51.2.18.01.34.07.51.09.18.02.37-.1.54-.07.17.03.35.06.52.09.17.04.33.12.49.17.17.05.36.03.52.09.16.06.33.13.48.2.16.07.25.25.4.33.15.08.29.18.43.27.14.1.3.17.43.27.13.11.3.18.42.3.12.12.27.22.38.34.11.12.24.25.34.38.1.13.15.3.25.44.09.14,0,.38.08.52.08.14.16.28.23.44.07.15.18.28.25.43.06.15.1.31.16.47.06.15.3.25.35.41.06.15.16.25.23.37.08.14.11.27.2.39.1.13.03.38.13.48.12.11.35.08.48.14.13.07.25.16.4.2.14.03.3-.07.46-.07.14,0,.28-.02.43-.03.14-.02.29,0,.44-.04.16-.03.38.14.53.09.15-.05.27-.2.41-.27.14-.07.27-.17.39-.27.12-.1.13-.29.23-.4.12-.15.28-.25.36-.41.08-.16.12-.34.16-.52.03-.17.09-.35.08-.54-.01-.23-.03-.23-.05-.46-.01-.23-.12-.23-.13-.46-.01-.23-.02-.23-.03-.46-.01-.23.15-.24.14-.47-.01-.23.09-.24.08-.47s-.26-.22-.27-.45c-.01-.23.18-.24.16-.47-.01-.23.05-.24.04-.47-.01-.23-.1-.23-.11-.46-.01-.23,0-.23-.02-.46-.01-.23-.18-.23-.19-.46-.01-.23.03-.23.02-.47-.01-.23.06-.24.04-.47-.01-.23-.14-.23-.15-.46,0-.15.19-.31.17-.45-.02-.15-.08-.3-.12-.43-.04-.15-.05-.31-.11-.44-.07-.13-.31-.17-.4-.27-.08-.09-.1-.3-.24-.39-.11-.07-.31-.04-.47-.09-.13-.05-.27-.1-.43-.13-.14-.02-.29-.09-.45-.09-.22,0-.45.03-.64.09-.21.06-.41.15-.59.27-.13.09-.23.22-.35.32-.12.1-.16.27-.26.38-.15.17-.4.25-.58.38-.1.07-.21.06-.37.06-.11,0-.31.08-.59,0-.15-.05-.36-.08-.57-.18-.14-.06-.21-.3-.37-.37-.15-.06-.32-.09-.48-.15-.15-.05-.3-.12-.47-.17-.15-.05-.31-.1-.48-.15-.15-.05-.35.01-.51-.03-.17-.05-.36,0-.54-.03-.17-.04-.3-.3-.48-.33-.17-.03-.39.2-.57.17-.17-.02-.35-.05-.53-.06-.18-.01-.34-.17-.53-.18-.18,0-.36-.06-.54-.06-.18,0-.36,0-.55,0-.17,0-.35.02-.52.03-.17,0-.35-.02-.52,0-.17,0-.34.11-.52.12-.17.01-.34.07-.51.09-.17.02-.36-.12-.54-.1-.17.02-.34.09-.51.11-.17.02-.34.09-.51.12-.17.03-.33.11-.5.14-.17.03-.35.02-.52.06-.17.04-.32.15-.48.19-.17.04-.4-.11-.56-.06-.17.05-.26.32-.42.37-.16.05-.4-.09-.56-.03-.16.06-.29.21-.45.27-.15.06-.3.13-.45.19-.15.06-.28.16-.43.23-.15.07-.28.16-.43.23-.15.07-.31.11-.45.19-.14.08-.35.05-.49.13-.14.08-.19.3-.32.38-.14.09-.38.03-.51.12-.13.09-.14.34-.27.44-.13.1-.26.19-.38.29-.13.1-.23.22-.35.32-.12.1-.28.16-.4.27-.12.11-.23.21-.35.33-.11.11-.19.25-.3.37-.11.12-.3.17-.4.29-.1.12-.23.23-.33.35-.1.13-.25.22-.34.35-.09.13-.16.28-.24.41-.09.13,0,.36-.09.49-.08.14-.25.22-.33.36-.07.14-.2.26-.27.4-.07.14.05.35,0,.5s-.19.26-.24.41c-.05.15.02.33-.03.47-.04.15-.09.29-.12.44-.04.15-.19.28-.22.43-.03.14,0,.31-.01.47-.02.15,0,.3,0,.46,0,.15-.2.31-.2.47,0,.15.05.31.07.47.02.15.1.3.13.46.03.15-.05.33,0,.49.04.15.17.28.22.44.05.15.05.32.11.47.06.14.13.29.21.44.07.14.18.27.27.41.08.13.31.19.4.33.09.13.06.34.16.47.09.13.13.3.23.43.1.12.31.17.42.29.11.12.28.18.4.3.11.11.22.23.34.35.12.11.1.36.23.47.12.1.4.05.53.15.13.1.2.27.33.37.13.1.31.13.45.23.13.09.14.36.28.45.14.09.29.17.43.26.14.09.36.06.5.14.14.08.33.09.48.17.14.08.22.28.37.35.15.08.3.14.45.22.15.07.25.24.4.31.15.07.34.06.5.13.15.07.29.16.45.23.15.07.3.15.45.22.15.06.29.18.44.24.15.06.39-.05.55,0,.16.06.27.23.43.29.15.05.36-.03.51.02.16.05.28.19.44.24.16.04.33.05.49.09.16.04.33.02.49.06.16.03.29.2.45.23.16.03.35-.05.51-.02.16.03.3.19.46.22.16.03.37-.16.53-.13.16.03.28.28.44.31.17.03.32.08.48.11.17.03.37-.12.53-.09.17.04.3.2.45.24.17.04.39-.08.53-.03.18.06.31.2.43.27.14.09.18.3.31.39.14.09.35.08.47.17.13.1.27.18.39.28.12.11.27.2.37.31.11.12.22.25.3.37.09.14,0,.35.05.49.06.13.17.25.2.39.04.14.06.28.08.43.02.14-.09.28-.09.43,0,.14.16.29.15.44-.01.14.02.3,0,.44-.03.15-.07.3-.11.45-.04.15-.17.27-.22.41-.06.14-.13.28-.21.41-.07.13-.06.32-.15.45-.09.13-.16.28-.26.4-.1.12-.4.07-.51.18-.11.11-.17.26-.29.36-.12.1-.24.2-.37.29-.14.1-.2.31-.36.39-.15.09-.35.09-.51.17-.15.08-.35.07-.51.14-.16.07-.3.17-.47.23-.16.06-.36.02-.53.07-.17.05-.31.15-.48.19-.17.04-.35.03-.52.06-.17.03-.33.15-.5.17-.18.02-.35.06-.52.07-.17.01-.35-.08-.52-.08-.17,0-.34.13-.51.13-.17,0-.34,0-.51-.01-.17,0-.35.05-.51.05-.17,0-.34-.06-.51-.07-.17-.01-.35,0-.51-.01-.17-.02-.35-.02-.51-.04-.17-.02-.32-.19-.48-.21-.17-.03-.32-.14-.48-.17-.17-.03-.33-.07-.49-.1-.17-.04-.34-.03-.5-.07-.17-.04-.4.12-.55.08-.17-.05-.32-.15-.47-.2-.18-.05-.28-.25-.43-.3-.18-.06-.41.06-.54.01-.16-.06-.3-.17-.46-.25-.16-.07-.34-.11-.49-.19-.15-.08-.22-.28-.36-.38-.14-.09-.32-.14-.45-.24-.13-.1-.27-.21-.39-.32-.13-.11-.29-.19-.41-.31-.12-.12-.23-.25-.34-.38-.11-.13-.12-.34-.22-.47-.1-.13-.16-.29-.26-.43-.09-.14-.18-.28-.27-.43-.08-.14-.13-.3-.21-.46-.07-.15-.32-.23-.39-.38-.07-.15-.21-.28-.27-.44-.06-.16-.07-.33-.13-.5-.05-.16-.01-.34-.06-.51-.05-.14-.06-.3-.13-.42-.07-.13-.31-.16-.39-.27-.09-.12-.07-.32-.18-.41-.12-.09-.29-.1-.43-.17-.15-.07-.3-.07-.46-.11-.16-.03-.29-.17-.46-.18-.16,0-.34-.09-.51-.07-.16.02-.27.27-.44.31-.17.05-.32.1-.46.16-.16.07-.44-.08-.57,0-.15.09-.21.29-.33.4-.12.11-.33.18-.42.31-.08.12-.08.31-.13.45-.05.14-.1.28-.12.44-.02.14-.1.3-.1.45,0,.14.23.27.26.43.04.24.07.23.11.47.04.24-.13.26-.1.49.04.24,0,.24.04.48.04.24.18.22.21.46.04.24-.04.25,0,.48s-.04.25,0,.48c.04.24.1.23.13.47.04.24.16.22.2.46.04.24-.04.25,0,.48.04.24-.05.25-.01.48.04.24.12.23.15.46.04.24.13.23.16.46.04.24.07.24.09.49.02.24-.16.25-.12.49.03.18.03.36.07.52.04.18.13.34.17.5.05.18.08.36.14.5.07.18.3.26.39.38.08.11.15.2.29.31.11.08.18.25.33.31.13.05.28.1.45.12.14.02.3-.03.47-.03.16,0,.31.01.45,0,.16-.02.3-.05.43-.1.15-.05.23-.17.35-.25.13-.08.37-.03.47-.14.13-.14.17-.35.29-.5.13-.15.29-.26.41-.4.08-.1.17-.16.45-.16.14,0,.32-.06.52,0,.15.04.34.06.52.12.16.05.31.15.48.22.16.06.32.13.49.2.15.06.28.15.44.22.15.06.29.15.45.21.15.06.34.03.5.09.15.05.27.21.43.27.15.05.39-.1.55-.05.15.05.23.33.4.37.16.05.34.01.51.05.16.04.34,0,.5.05.16.04.34,0,.5.03.16.03.29.21.46.24.16.03.33.01.5.04.16.03.34-.03.51,0,.16.02.32.06.49.08.16.02.31.16.48.17.16.02.34-.06.51-.04.16.01.33,0,.5,0,.17,0,.33.03.5.03.17,0,.33.05.5.05.04,0,.07-.06.11-.06.17,0,.35.02.52.01.17,0,.35.04.52.03.17,0,.34-.08.51-.09.17-.01.35,0,.52-.02.17-.02.33-.09.51-.12.17-.02.37.12.54.1.17-.03.33-.13.5-.16.17-.03.37.08.54.04.17-.04.33-.1.5-.14.17-.04.33-.11.5-.16.17-.05.36-.04.52-.09.16-.05.3-.19.46-.25.16-.06.27-.25.43-.31.16-.06.34-.08.49-.15.16-.07.36-.05.51-.12.16-.07.32-.13.47-.21.15-.08.33-.13.47-.21.15-.08.27-.22.41-.3.15-.09.25-.23.39-.33.14-.09.36-.08.5-.18.14-.1.25-.23.39-.33.14-.1.2-.28.33-.39Z"/>
          <path class="cls-1" d="M139.02,55.41c-.07-.18-.21-.32-.34-.45-.12-.12-.32-.13-.5-.21-.15-.07-.29-.23-.48-.27-.17-.04-.35-.11-.55-.13-.17-.01-.36.1-.56.1-.26,0-.26.05-.52.05s-.26-.21-.52-.21-.26.03-.52.03c-.26,0-.26-.01-.52-.01-.26,0-.26,0-.52,0-.26,0-.26.12-.52.12-.26,0-.26.1-.52.1-.26,0-.26-.26-.52-.25-.26,0-.26.27-.52.28-.26,0-.26-.01-.52,0-.26,0-.26-.15-.52-.15-.26,0-.26-.05-.52-.04-.26,0-.26.01-.52.02-.26,0-.26.03-.52.03-.26,0-.26-.02-.52-.02-.26,0-.26.1-.52.1-.26,0-.26.05-.52.06-.26,0-.26-.17-.52-.16-.26,0-.26.05-.52.05-.26,0-.26.05-.52.05-.26,0-.26.06-.52.06-.2,0-.39-.05-.57-.03-.2.02-.37.13-.54.17-.19.05-.45-.11-.62-.03-.18.08-.22.4-.36.51-.13.1-.4.05-.51.17-.11.12-.12.32-.2.47-.08.14-.14.29-.19.45-.05.15-.05.31-.08.48-.03.17-.02.32-.03.46,0,.17-.04.32,0,.46.03.16-.03.37.05.5.08.14.33.17.47.3.12.11.14.37.3.47.14.09.38-.02.55.07.22.06.22.04.45.07s.23,0,.46.04c.23.04.22.1.45.14s.23.03.46.08c.16.06.32.09.43.16.15.09.19.27.27.37.1.12.11.24.11.39,0,.13-.09.22-.17.39-.06.12-.1.26-.2.4-.08.12-.03.35-.14.48-.1.11-.29.15-.4.27-.19.19-.23.14-.42.33-.19.19-.05.33-.23.52-.19.19-.25.13-.43.32-.19.19-.1.28-.28.47-.19.19-.19.19-.37.38-.19.19-.28.1-.46.29-.19.19-.14.24-.33.43-.19.19-.16.21-.35.4-.19.19-.33.05-.51.24-.19.19-.16.21-.35.4-.19.19-.14.23-.33.42-.19.19-.27.11-.45.3-.19.19-.13.25-.31.44-.19.19-.24.14-.43.33q-.19.19-.37.38c-.19.19-.16.22-.34.41-.19.19-.06.31-.25.5-.19.19-.3.08-.48.27-.19.19-.25.13-.44.32-.19.19-.1.28-.28.47-.19.19-.12.25-.31.44-.19.19-.2.18-.39.37-.19.19-.34.04-.52.23-.19.19-.02.36-.21.55-.19.19-.25.13-.44.32-.19.19-.13.25-.32.44-.19.19-.35.03-.54.22-.19.19,0,.38-.28.36-.26-.02-.18-.09-.32-.3-.14-.22-.22-.16-.36-.38-.14-.22-.02-.3-.16-.52-.14-.22-.15-.21-.29-.43-.14-.22-.05-.28-.19-.5-.14-.22-.22-.16-.36-.38-.14-.22-.12-.23-.26-.45-.14-.22-.12-.23-.26-.45-.14-.22-.09-.25-.23-.47-.14-.22-.31-.11-.45-.32-.14-.22-.03-.29-.17-.51-.14-.22-.27-.13-.41-.35-.14-.22-.04-.28-.19-.5-.14-.22-.17-.2-.31-.42s-.19-.19-.33-.4c-.14-.22-.02-.3-.16-.52-.14-.22-.24-.15-.39-.37-.14-.22-.02-.3-.16-.52-.14-.22-.34-.09-.48-.31-.14-.22.06-.35-.08-.57-.14-.22-.12-.23-.27-.45-.14-.22-.32-.11-.46-.33-.14-.22-.02-.3-.16-.52-.09-.15-.34-.21-.41-.36-.08-.16-.07-.36-.11-.51-.05-.18.08-.36.08-.51,0-.18-.13-.35-.06-.49.06-.14.15-.31.28-.43.11-.1.24-.25.4-.34.13-.08.3-.16.47-.23.15-.06.37.07.54.02.26-.06.25-.12.52-.17.27-.05.27-.05.53-.1.27-.05.3.08.56.02.19-.07.32-.32.48-.4.18-.09.31-.24.45-.35.16-.12.29-.23.41-.37.11-.13.26-.22.35-.37.08-.15.16-.3.22-.46.05-.16-.01-.34.02-.51.04-.21.01-.37,0-.55,0-.2.2-.44.13-.61-.07-.18-.26-.32-.39-.46-.12-.12-.29-.22-.47-.31-.15-.07-.37.02-.56-.03-.17-.04-.32-.15-.52-.17-.17-.01-.36-.11-.55-.11-.26,0-.26.05-.52.05s-.26-.1-.53-.1c-.26,0-.26.07-.53.07-.26,0-.26-.05-.53-.04-.26,0-.26.11-.52.11s-.26.02-.52.03-.26-.11-.53-.11c-.26,0-.26.14-.52.14-.26,0-.26,0-.53,0-.26,0-.26.07-.53.07-.26,0-.26-.04-.53-.04s-.26.04-.53.04-.26.02-.53.02c-.26,0-.26-.15-.53-.15-.26,0-.26-.09-.53-.09-.26,0-.26,0-.53,0-.26,0-.26.04-.53.05-.26,0-.26.23-.52.24-.26,0-.26-.06-.53-.06-.26,0-.26-.17-.53-.16s-.26.21-.52.21c-.26,0-.26-.05-.53-.05-.26,0-.26.06-.53.06-.26,0-.26-.14-.53-.14-.26,0-.26.07-.53.07-.26,0-.26,0-.53,0-.26,0-.26.06-.53.06-.26,0-.26-.01-.53-.01-.26,0-.27-.13-.53-.13-.26,0-.26-.04-.53-.04-.27,0-.27,0-.53,0s-.27-.03-.53-.03c-.21,0-.39.21-.58.23-.2.02-.37.14-.55.18-.2.05-.38.06-.55.13-.19.08-.39.09-.55.2-.14.1-.3.17-.41.29-.11.12-.05.36-.13.5-.08.14-.3.21-.35.37-.05.15,0,.33-.03.5-.03.16,0,.3,0,.44,0,.16-.12.31-.09.45.03.16,0,.36.08.48.07.11.35.07.5.19.11.09.23.17.38.26.12.08.14.39.29.46.13.07.34.01.5.08.16.05.26.21.4.27.15.06.32.04.45.11.14.07.26.16.39.25.13.09.19.24.32.36.11.11.38.07.5.19.1.12.24.23.34.36.02.03-.02.28.15.54.08.12.14.29.25.46.09.13.3.2.41.36.09.14.11.33.21.48.09.14.12.33.22.48.09.14.24.25.34.4.09.14.3.22.39.37.09.14.12.33.22.48.09.14.12.33.21.48.09.14.26.24.35.39.09.14.27.24.36.39.09.14.2.28.3.43.09.14-.04.44.05.59.09.14.21.28.3.43.09.15.27.24.36.39.09.15.32.21.41.36.09.15.11.34.2.49.09.14.25.25.34.4.09.15.01.4.11.55.09.15.19.29.28.44.09.15.35.19.44.34.09.15.18.3.28.45.09.15.12.34.21.49.09.15.22.27.32.42.09.15.15.32.24.47.09.15.31.22.41.36.09.15.15.32.25.46.09.15.21.28.31.43.09.15.15.32.25.47.09.15.23.27.33.41.09.15.14.32.24.47.09.15.15.32.24.47s.05.39.14.54c.1.15.4.16.49.31.1.15.02.31.11.46-.12.23-.16.16-.34.35-.18.19-.16.2-.34.39s-.1.26-.28.45c-.18.19-.16.21-.34.39-.18.19-.33.05-.51.24-.18.19-.04.32-.22.5-.18.19-.28.09-.46.28-.18.19-.18.18-.36.37-.18.19-.15.21-.33.4-.18.19-.18.19-.36.38-.18.19-.05.31-.23.5-.18.19-.36.02-.54.21-.18.19-.12.25-.3.44-.18.19-.08.28-.26.47-.18.19-.16.21-.34.39-.18.19-.2.17-.38.35s-.18.19-.36.37q-.18.19-.36.38c-.18.19-.19.18-.37.37-.18.19-.13.24-.31.43-.18.19-.28.09-.46.28-.18.19-.2.17-.37.36-.18.19-.24.12-.42.31-.18.19-.19.18-.36.37-.18.19,0,.36-.17.55-.18.19-.35.03-.52.22-.18.19-.04.32-.22.51-.18.19-.16.21-.34.4-.18.19-.37,0-.55.2-.18.19.01.37-.16.56-.18.19-.18.19-.35.38-.18.19-.25.12-.43.31-.18.19-.17.2-.35.39s-.16.21-.34.4c-.18.19-.24.13-.42.32-.18.19-.29.09-.47.28-.18.19-.03.33-.21.52-.18.19-.28.1-.46.28-.18.19-.05.32-.23.51-.18.19-.36.02-.54.21-.18.19-.05.32-.23.51-.18.19-.27.11-.45.3-.13.13-.28.24-.41.37-.13.13-.28.24-.41.36-.14.13-.1.44-.23.56-.14.12-.32.2-.46.32-.14.12-.24.29-.39.4-.13.11-.38.06-.51.16-.13.1-.22.26-.35.36-.13.1-.26.2-.4.29-.14.1-.37.05-.5.14-.14.09-.17.35-.31.43-.16.1-.32.19-.48.28-.16.09-.39.06-.55.15-.17.09-.3.24-.46.31-.17.08-.38.05-.55.12-.16.06-.22.33-.37.39-.16.07-.36,0-.5.07-.15.07-.34.09-.47.16-.15.09-.29.18-.42.27-.14.1-.29.2-.39.31-.13.13-.12.38-.21.52-.1.15-.2.28-.27.44-.07.16-.1.32-.13.5-.04.21-.03.39-.02.58,0,.21-.05.41.02.59.07.18.25.29.39.43.12.12.17.38.34.46.15.07.37.02.56.06.16.04.35-.03.54,0,.17.01.34.19.53.19.27,0,.27-.06.54-.06.27,0,.27.07.54.07.27,0,.27-.16.54-.16.27,0,.27.11.54.1.27,0,.27-.06.54-.07s.27-.06.54-.07c.27,0,.27.08.54.08.27,0,.27-.1.53-.1.27,0,.27.24.54.23.27,0,.27-.06.54-.06.27,0,.27-.12.54-.12s.27.01.54.01c.27,0,.27.04.54.03.27,0,.27.03.54.03.27,0,.27-.18.54-.18.27,0,.27.16.54.16.27,0,.27.09.54.09.27,0,.27-.13.54-.13.27,0,.27-.08.54-.09s.27,0,.54,0c.2,0,.37-.07.55-.09.2-.02.37-.05.54-.1.19-.05.45.12.62.05.18-.08.32-.24.47-.36.13-.1.2-.27.3-.39.11-.12.24-.22.32-.36.08-.14.04-.33.09-.49.05-.15.29-.25.32-.42.03-.16-.18-.34-.18-.48,0-.17.02-.3-.02-.43-.04-.16-.04-.3-.12-.42-.09-.13-.21-.22-.35-.33-.12-.1-.17-.31-.33-.4-.13-.08-.35.04-.51-.03-.31-.07-.3-.06-.61-.12-.31-.06-.27-.28-.58-.33-.21-.04-.44.08-.6.04-.22-.06-.41-.15-.55-.23-.23-.12-.41-.31-.43-.46-.02-.12.06-.3.15-.48.06-.12.13-.27.23-.42.08-.11.33-.12.44-.25.09-.11.11-.3.22-.43.18-.19.15-.22.33-.4.18-.19.13-.23.31-.42.18-.19.15-.22.33-.41.18-.19.34-.03.52-.22.18-.19.19-.18.37-.37q.18-.19.36-.38c.18-.19.1-.26.28-.45.18-.19.14-.22.33-.41.18-.19.31-.06.49-.25.18-.19.1-.26.28-.45.18-.19.07-.29.25-.48.18-.19.33-.05.51-.24.18-.19.18-.18.36-.37.18-.19.2-.17.38-.36.18-.19,0-.35.19-.54.18-.19.36-.01.54-.2.18-.19.05-.31.23-.49.18-.19.12-.24.3-.43.18-.19.24-.13.42-.32.18-.19.24-.13.42-.31.18-.19.22-.15.4-.34.18-.19.2-.17.38-.36.18-.19.05-.31.24-.5.18-.19.13-.24.31-.43.18-.19.27-.1.45-.29.18-.19.14-.22.32-.41.18-.19.3-.07.48-.26.18-.19.18-.19.36-.38.18-.19.12-.25.3-.44.18-.19.13-.24.31-.43.18-.19.29-.09.47-.28.18-.19.19-.18.37-.37.18-.19.04-.33.22-.52.18-.19.26-.11.45-.3.18-.19.21-.16.39-.35.18-.19.2-.18.38-.37.18-.19.08-.3.32-.42.1.15.13.3.22.45.1.15.33.21.42.35.1.15.18.3.28.45.1.15.09.36.19.51.1.15.19.3.28.44.1.15.25.26.34.41.1.15.17.31.26.46.1.15.19.3.28.44.1.15.26.25.35.4.1.15.01.41.11.56.1.15.29.23.38.38.1.15.14.33.24.47.1.15.16.31.26.46.1.15.27.24.37.39.1.15.23.27.32.42.1.15.16.32.25.46.1.15.18.3.28.44.1.15.15.32.25.46.1.15.15.32.25.46.1.15.27.24.36.39.1.15.09.36.18.5.1.15.39.17.48.31.1.15-.03.44.06.58.1.15.27.25.36.39.1.15.26.25.35.39.1.15.27.25.36.39.1.15.06.38.15.52.1.16.24.28.32.41.11.17.28.27.36.39.18.28.13.22.27.44.09.14.06.35.13.48.08.16.23.27.28.4.06.17.11.34.12.48,0,.18-.06.4-.15.55-.08.13-.26.25-.42.36-.11.08-.23.22-.4.29-.13.06-.29.11-.46.17-.14.05-.31.05-.47.1-.14.04-.28.15-.45.2-.16.05-.32.07-.47.12-.16.05-.29.17-.43.23-.16.06-.38-.04-.52.02-.16.08-.26.23-.39.31-.15.09-.38.06-.49.16-.15.13-.29.31-.4.47-.12.16-.2.36-.27.55-.07.18-.2.37-.24.57-.04.21.04.42.05.6,0,.2.19.35.26.52.07.18.11.34.25.48.12.12.2.31.38.39.15.07.33.15.52.2.16.04.35.11.54.12.17.01.36-.04.55-.04.26,0,.26-.08.52-.08.26,0,.26.13.53.13.26,0,.26-.05.53-.05.26,0,.26-.11.53-.12.26,0,.26.12.53.12.26,0,.26-.03.52-.03s.26,0,.52,0c.26,0,.26-.06.52-.06.26,0,.26-.11.52-.11.26,0,.26.17.53.17.26,0,.26-.17.53-.17.26,0,.26.2.53.2.26,0,.26-.1.52-.11.26,0,.26.1.53.1.26,0,.26-.12.53-.12.26,0,.26.06.53.06.26,0,.26.05.53.05.26,0,.26-.09.53-.09.26,0,.26.04.53.04.26,0,.26-.01.52-.02.26,0,.26-.05.52-.05.26,0,.26.01.53.01.26,0,.26.09.53.09.26,0,.26-.07.53-.07s.26-.13.53-.13c.26,0,.27.22.53.21.26,0,.26-.24.53-.24.26,0,.26.08.53.08.26,0,.26.04.53.04.26,0,.26.07.53.07.26,0,.26-.13.53-.13.27,0,.27.12.53.12.27,0,.27.06.53.06.21,0,.4-.14.59-.16.21-.02.39-.11.57-.16.2-.05.36-.15.53-.22.19-.08.44-.03.59-.14.13-.1.11-.36.21-.48.11-.12.3-.17.38-.31.08-.14.08-.31.13-.47.05-.15.09-.29.12-.46.03-.18.23-.34.22-.5,0-.18.02-.39-.03-.55-.05-.16-.22-.31-.33-.45-.11-.14-.33-.19-.49-.32-.14-.11-.32-.16-.49-.26-.16-.09-.31-.15-.5-.23-.21-.06-.35-.25-.53-.31-.21-.06-.36-.22-.53-.29-.21-.08-.45,0-.61-.09-.15-.07-.25-.23-.39-.33-.13-.1-.3-.16-.42-.28-.12-.11-.18-.28-.29-.42-.11-.13-.35-.18-.47-.35-.1-.14-.19-.31-.3-.48-.1-.15-.18-.33-.29-.49-.1-.15-.09-.39-.19-.55-.14-.22-.26-.14-.41-.36-.14-.22,0-.31-.15-.53-.14-.22-.3-.12-.44-.34-.14-.22-.17-.2-.31-.42-.14-.22.08-.37-.06-.59-.14-.22-.17-.21-.31-.43-.14-.22-.32-.11-.46-.33-.14-.22.03-.33-.11-.55-.14-.22-.23-.17-.37-.39-.14-.22-.18-.2-.32-.42-.14-.22-.12-.24-.26-.46-.14-.22-.23-.17-.37-.39-.14-.22.02-.32-.13-.55-.14-.22-.27-.14-.41-.36-.14-.22-.08-.26-.22-.49-.14-.22-.26-.15-.4-.37-.14-.22.08-.37-.06-.59-.14-.22-.29-.13-.43-.35-.14-.22,0-.32-.14-.54-.14-.22-.23-.17-.37-.39-.14-.22-.16-.21-.3-.43-.14-.22-.09-.26-.23-.48-.14-.22-.2-.18-.35-.4-.14-.22-.17-.2-.32-.43-.14-.22-.14-.23-.28-.45-.14-.22-.08-.26-.22-.48-.14-.22-.29-.13-.43-.35-.14-.22.03-.34-.11-.56-.14-.22-.25-.15-.39-.38-.14-.22-.21-.18-.36-.4-.14-.22-.15-.22-.29-.44-.14-.22-.08-.27-.22-.49-.14-.22-.1-.25-.24-.47-.14-.22-.25-.15-.4-.37-.14-.22-.04-.29-.18-.52-.14-.22-.24-.16-.38-.39-.14-.22-.14-.23-.29-.45-.14-.22-.34-.26-.31-.52.03-.26.35-.12.54-.3.19-.18.22-.15.4-.33.19-.18.08-.29.26-.48.19-.18.18-.19.37-.37.19-.18.22-.15.41-.33.19-.18.13-.24.31-.42.19-.18.19-.18.38-.36.19-.18.27-.09.46-.28.19-.18.19-.18.38-.36.19-.18.16-.21.35-.39.19-.18.15-.22.33-.41.19-.18.16-.21.35-.39.19-.18.17-.2.36-.38.19-.18.22-.14.41-.32.19-.18.33-.03.52-.21q.19-.18.37-.36c.19-.18.15-.21.34-.4.19-.18.21-.16.4-.34.19-.18.05-.33.23-.51.19-.18.16-.21.34-.4.19-.18.22-.15.4-.33.19-.18.35-.02.53-.2.19-.18.07-.3.26-.49.19-.18.23-.14.41-.32.19-.18.09-.28.28-.46.19-.18.18-.2.36-.38.19-.18.21-.16.4-.34.19-.18.36,0,.54-.19.19-.18.12-.25.31-.43.19-.18.18-.19.37-.38.19-.18.09-.28.28-.47.19-.18.24-.13.43-.31s.18-.19.37-.38c.13-.13.28-.23.4-.36.13-.13.24-.28.36-.4.13-.13.18-.34.3-.46.13-.13.25-.27.37-.39.13-.13.37-.14.5-.27.13-.13.33-.18.46-.3.14-.13.08-.44.21-.56.14-.13.4-.12.52-.23.15-.13.32-.2.44-.3.13-.11.2-.28.33-.38.13-.1.27-.19.41-.28.14-.09.2-.32.35-.4.15-.08.32-.11.47-.18.15-.06.34-.06.49-.1.17-.06.28-.25.43-.31.17-.07.41.06.56,0,.16-.07.31-.17.46-.24.16-.08.35-.11.49-.19.16-.09.22-.34.35-.42.16-.1.39-.09.5-.19.15-.13.19-.36.3-.5.12-.15.24-.3.32-.46.08-.17.21-.34.24-.52.04-.2.05-.39.04-.56,0-.2-.04-.4-.1-.56Z"/>
          <path class="cls-1" d="M74.08,97.98c.03-.23.04-.43.09-.6.07-.23.14-.51.02-.68-.12-.18-.26-.37-.62-.38-.35,0-.31.14-.66.14-.35,0-.35.04-.71.04s-.35-.2-.7-.2c-.35,0-.35-.09-.71-.1-.35,0-.35.03-.71.03-.35,0-.35-.13-.7-.13-.35,0-.35.1-.71.1-.24,0-.32.11-.46.19-.04.01-.09.02-.15.02-.09,0-.15.01-.2.03-.25-.04-.29-.17-.6-.18-.18,0-.27.04-.36.08-.15.01-.2.05-.41.05-.26,0-.26-.08-.52-.08-.08,0-.13.02-.18.04-.28-.03-.3-.16-.61-.07-.14.04-.22.06-.3.08-.21,0-.23.06-.48.06-.26,0-.26.06-.52.06s-.26-.08-.52-.08-.26.1-.52.1-.26-.24-.52-.24-.26.06-.52.06-.26.12-.52.12-.26-.01-.52-.01-.26-.04-.52-.04-.26-.04-.52-.04-.26.18-.52.18-.26-.17-.52-.17-.26-.1-.52-.1-.26.13-.52.13-.26.08-.52.08-.26,0-.52,0-.26.06-.52.06-.26,0-.52,0-.26-.25-.53-.25-.26.07-.52.07-.26.08-.52.08-.26-.05-.52-.05-.26.12-.53.12-.26-.2-.52-.2-.26.23-.52.23-.26-.02-.53-.02-.26-.06-.53-.06-.26.03-.53.03-.26-.15-.52-.15-.26.21-.53.21-.26,0-.53,0-.26-.23-.53-.23-.26.18-.53.18c-.2,0-.39-.02-.57-.04-.2-.02-.39-.04-.56-.09-.19-.05-.36-.16-.52-.24-.17-.09-.34-.2-.47-.33-.13-.13-.06-.38-.13-.57-.06-.16-.21-.3-.23-.51-.02-.17-.06-.36-.04-.57.01-.18-.02-.38.02-.58.05-.26,0-.26.05-.52.05-.26.27-.21.31-.47.05-.26.06-.25.11-.51q.05-.26.1-.51c.05-.26-.06-.28,0-.53.05-.26,0-.26.05-.52.05-.25.23-.22.27-.48.05-.25-.06-.27-.01-.53.05-.25-.1-.28-.05-.54.05-.25.25-.22.3-.47.05-.25.05-.25.1-.51.05-.25.08-.25.13-.5.05-.25-.19-.3-.14-.55.05-.25.3-.21.34-.46.05-.25-.12-.29-.07-.54.05-.25-.03-.27.02-.52.05-.25.13-.24.17-.49.05-.25.14-.24.18-.49.05-.26.1-.25.15-.5.05-.26.07-.25.12-.51.05-.26-.12-.29-.08-.54s-.02-.27.02-.53c.05-.26.17-.23.21-.49.05-.26,0-.26.05-.52.05-.26.21-.22.26-.48.05-.26.05-.25.1-.51.05-.26-.03-.27.01-.53.05-.26-.02-.27.02-.52.05-.26.2-.23.24-.48.05-.26.05-.25.1-.51.05-.26-.15-.29-.1-.55.05-.26.16-.24.21-.49.05-.26.09-.25.13-.5.05-.26.07-.25.12-.51.05-.26,0-.27.04-.52.05-.26.07-.25.12-.51.05-.26-.12-.29-.07-.54.05-.26.06-.25.11-.51.05-.26.16-.24.21-.49q.05-.26.1-.51c.05-.26-.02-.27.03-.52.05-.26.07-.25.12-.51.05-.26.05-.26.1-.51.05-.26-.03-.27.02-.53.05-.26.25-.22.3-.47.05-.26-.07-.28-.02-.53.05-.26.11-.25.15-.5.05-.26.08-.25.13-.51.05-.26-.05-.27,0-.53.05-.26,0-.26.05-.52.05-.26.09-.25.14-.51.05-.26.05-.26.1-.51.05-.26.09-.25.14-.5.05-.26.09-.25.14-.51.05-.26-.04-.27,0-.53.05-.26.17-.23.22-.49.05-.26-.19-.3-.14-.56.05-.26.31-.21.36-.47.05-.26-.04-.27,0-.53.05-.26-.03-.27.01-.53.05-.26-.04-.28,0-.53.04-.2.24-.37.3-.54.06-.2.09-.4.18-.57.1-.18.15-.41.27-.55.1-.11.24-.22.36-.32.11-.09.32-.07.46-.15.13-.07.22-.23.37-.3.13-.06.28-.14.43-.2.24-.07.24-.05.48-.11.24-.06.25-.01.49-.07.24-.06.22-.12.46-.18s.24-.03.48-.1c.17-.06.33-.08.48-.15.16-.08.27-.21.41-.3.15-.09.29-.17.42-.28.13-.11.2-.27.31-.39.11-.13.36-.16.44-.3.09-.15.08-.34.14-.5.06-.16.26-.29.29-.46.04-.21.03-.44.03-.63,0-.22-.08-.43-.15-.61-.07-.19-.15-.43-.29-.57-.12-.12-.34-.16-.51-.24-.15-.07-.36.01-.54-.03-.16-.04-.31-.12-.5-.14-.17-.02-.34-.13-.52-.13-.26,0-.26-.02-.52-.02s-.26-.04-.51-.04-.26.06-.51.06-.26.08-.51.08-.26-.14-.51-.14-.26.05-.51.05-.26.11-.51.11-.26-.12-.52-.12-.26.03-.51.03-.26-.01-.51-.01-.26.06-.51.06-.26.11-.52.11-.26-.18-.52-.18-.26.16-.51.16-.26-.2-.52-.2-.26.1-.52.1-.26-.1-.51-.1-.26.12-.51.12-.26-.06-.51-.06-.26-.05-.52-.05-.26.09-.52.09-.26-.04-.52-.04-.26.01-.52.01-.26.04-.52.04-.26-.02-.52-.02-.26-.09-.51-.09-.26.07-.52.07-.26.13-.52.13-.26-.22-.52-.22-.26.24-.52.24c-.2,0-.39-.07-.57-.05-.2.02-.39.01-.57.06-.19.05-.4.05-.57.12-.18.08-.28.28-.43.39-.14.1-.35.12-.46.24-.12.12-.28.23-.37.38-.09.14-.05.36-.11.52-.06.15-.04.33-.07.5-.03.18,0,.35,0,.51,0,.18-.16.37-.12.54.04.17.3.25.39.4.08.15.08.34.21.47.12.12.3.15.45.25.14.09.28.15.45.22.29.09.24.25.54.33.3.08.28.14.58.22.3.08.32,0,.61.08.17.07.38.04.52.12.16.1.35.16.47.27.13.13.27.29.35.44.08.15,0,.39.03.58.02.16-.07.34-.08.53-.01.17.13.37.09.56-.05.26-.12.24-.17.5-.05.26.01.27-.04.53-.05.26-.12.25-.16.5-.05.26.11.29.06.55-.05.26-.08.25-.12.51-.05.26-.08.25-.13.51-.05.26-.18.23-.23.49-.05.26.09.28.05.54-.05.26-.2.23-.25.48-.05.26.14.29.09.55-.05.26-.02.26-.06.52s-.31.21-.36.46-.02.26-.07.52c-.05.26.16.3.11.55-.05.26-.25.22-.3.48-.05.26.05.28,0,.53-.05.26,0,.26-.06.52-.05.26-.07.25-.12.51-.05.26.05.28,0,.53-.05.26-.24.22-.28.48-.05.26.1.29.05.54-.05.26-.13.24-.17.5-.05.26.09.28.04.54-.05.26-.31.21-.36.47-.05.26.12.29.07.55-.05.26-.22.23-.27.48-.05.26.05.28,0,.53-.05.26-.03.26-.08.52-.05.26-.11.25-.16.5-.05.26.02.27-.03.53-.05.26-.01.27-.06.52-.05.26-.06.26-.1.52-.05.26-.12.24-.17.5-.05.26.13.29.08.55-.05.26-.25.22-.3.48-.05.26.07.28.03.54-.05.26.04.27-.01.53-.05.26-.05.26-.09.52-.05.26-.13.24-.18.5-.05.26-.1.25-.15.51-.05.26.08.28.03.54-.05.26-.17.24-.22.49s.06.28.01.54c-.05.26-.05.26-.1.52-.05.26-.04.26-.09.52-.05.26-.23.22-.28.48-.05.26-.09.25-.14.51-.05.26.11.29.06.54-.05.26-.04.26-.09.52-.05.26-.09.25-.14.51-.05.26.04.27-.01.53s-.05.26-.1.52c-.05.26-.17.24-.22.5-.05.26-.05.26-.1.52-.05.26,0,.27-.06.53-.05.26,0,.27-.04.53-.05.26,0,.27-.06.53-.05.26-.03.26-.08.52-.05.26-.1.25-.15.51-.05.26-.26.22-.31.48-.04.2-.08.38-.14.56-.06.2-.09.38-.18.54-.1.18-.22.31-.35.45-.1.11-.07.36-.2.46-.11.09-.23.22-.37.3-.13.07-.29.11-.44.18-.13.06-.35-.1-.5-.04-.24.07-.2.22-.44.28-.24.06-.26,0-.5.06-.24.06-.21.19-.46.25-.24.06-.24.07-.48.14-.17.06-.32.08-.47.15-.16.08-.43-.05-.57.04-.15.09-.24.28-.37.39-.13.11-.25.25-.35.38-.11.13-.09.35-.17.49-.08.15-.22.26-.28.42-.06.16-.08.32-.11.49-.04.22-.1.41-.09.6,0,.22.07.4.14.58.08.19.26.27.41.41.12.12.24.19.4.27.15.07.24.28.42.33.16.04.32.18.51.2.16.02.35-.09.54-.09.26,0,.26-.05.52-.05s.26.01.52.01.26-.12.52-.12.26.01.52.01.26.17.52.17.26-.15.52-.15.26.14.52.14.26.04.52.04.26,0,.52,0,.26,0,.52,0,.26-.2.52-.2.26.24.52.24.26-.26.52-.26.26.21.52.21.26.05.52.05.26-.18.52-.18.26.13.52.13.26.04.52.04.26,0,.52,0,.26-.03.52-.03.26-.18.52-.18.26-.04.52-.04.26.15.52.15.26.1.52.1.26-.1.52-.1.26.07.52.07.26-.17.52-.17.26.09.52.09.26.08.52.08.26-.05.52-.05.26-.11.52-.11.26.03.52.03.26,0,.52,0,.26.03.52.03.26-.05.52-.05.26.17.52.17.26-.25.52-.25.26.09.52.09.26.16.52.16.26-.06.52-.06.26-.06.52-.06.26-.05.52-.05.26-.06.52-.06.26.14.52.14.26.06.52.06.26-.09.52-.09.26.11.52.11.26-.11.52-.11.26-.12.52-.12.26.03.52.03.26-.02.52-.02c.15,0,.21.02.29.03.08.16.21.1.39.02.12,0,.17-.01.37-.01.26,0,.26.09.52.09s.26.04.52.04.26.04.53.04.26-.24.53-.24.28.24.54.19c.07-.07.14-.16.21-.25.02,0,.04,0,.07,0,.36,0,.36.13.72.13s.36.11.73.11.36-.23.73-.23.36.08.72.08.36.08.72.08.36-.13.73-.13.36.13.72.13.36-.27.72-.27.36.27.72.27.36-.12.72-.12.36-.15.72-.15.36.1.72.1.36.1.72.1.36.08.72.08-1.07-.08-.71-.08.36.05.72.05.36-.22.72-.22.36-.05.72-.05.4.06.56-.06c.18-.12.21-.29.29-.49.07-.19.41-.4.35-.62-.07-.3-.13-.61-.13-1.02,0-.22-.14-.42-.12-.61Z"/>
        </g>
        <path class="cls-1" d="M74.7,95.87c.13-.05.18-.18.3-.24s.22-.18.34-.24.22-.16.33-.24.21-.17.32-.25.21-.17.31-.26.2-.18.3-.27.23-.15.33-.24.25-.13.35-.22.19-.19.29-.28.14-.24.25-.33.26-.11.37-.19.11-.3.22-.38c.13-.09.33-.09.47-.17s.26-.21.4-.27.61-.54.93-.2c.11.12.47.08.63.11s.27.16.4.26.37.15.42.31c.04.13-.05.3-.07.43s-.07.26-.11.39c-.05.14-.03.31-.09.44s-.25.2-.32.32-.18.22-.26.34-.18.22-.27.33-.19.22-.28.32-.12.28-.22.38-.26.15-.36.25c-.09.1-.07.3-.17.4s-.2.18-.29.27-.27.11-.37.2-.21.17-.31.26-.05.32-.15.41-.23.15-.32.25-.13.25-.22.35c-.1.1-.34.06-.43.16s-.17.22-.25.32-.17.22-.24.33-.12.24-.19.35-.12.24-.19.35-.78.18-.86.28-.2.16-.3.26-.17.19-.28.27-.12.3-.25.36c-.12.06-.28.04-.41.07-.12.03-.26.05-.4.07-.12.02-.26.07-.41.08-.13,0-.26-.16-.41-.16-.13,0-.26-.01-.41-.02-.13,0-.28.13-.42.12s-.28.04-.41.03-.27-.08-.4-.09-.27-.07-.4-.08c-.14,0-.27-.1-.41-.11-.14,0-.29.14-.41.14-.15,0-.28.07-.39.08-.13.01-.26-.05-.39-.04s-.27,0-.4-.01-.2-.17-.3-.25c-.11-.08-.15-.17-.2-.29s-.11-.22-.12-.36-.09-.26-.08-.39c0-.13-.08-.27-.08-.42,0-.14.17-.28.17-.42s0-.28,0-.42.03-.28.04-.41-.04-.29-.02-.42c.02-.14.23-.11.28-.24.04-.14.02-.29.09-.4s.1-.3.2-.39.31-.02.45-.08c.09-.03.21-.2.4-.2.13,0,.28.06.44.07.14,0,.28.05.43.06s.3-.08.45-.07.28.22.42.23c.16.01.32-.16.45-.15.18,0,.33.08.43.07.15-.02.32.09.45.07.15-.02.27-.17.4-.2s.29-.03.43-.07.28-.05.42-.1c.13-.05.24-.15.38-.21Z"/>
      </g>
    </g>
  </g>
</svg>