<?xml version="1.0" encoding="UTF-8"?>
<svg id="Layer_2" data-name="Layer 2" xmlns="http://www.w3.org/2000/svg" viewBox="0 0 578.83 80.86">
  <defs>
    <style>
      .cls-1 {
        fill: #b55434;
      }
    </style>
  </defs>
  <g id="Layer_1-2" data-name="Layer 1">
    <g>
      <g>
        <g>
          <path class="cls-1" d="M91.64,55.14c.22-.17.57-.21.78-.39.21-.18.4-.39.61-.58.21-.19.43-.37.63-.56.2-.19.34-.45.53-.65.2-.2.26-.51.45-.71.19-.2.59-.23.78-.44.18-.21.15-.57.32-.78.17-.21.6-.25.76-.46.16-.22.18-.53.33-.75.15-.22.44-.37.58-.6.14-.23.11-.55.24-.79.13-.24.35-.43.47-.67.12-.24.31-.46.42-.7.11-.24.08-.55.18-.79.1-.25.25-.48.34-.74.09-.25.15-.51.22-.77.07-.26.08-.53.14-.79.06-.26.15-.51.2-.78.05-.26.24-.49.28-.75.04-.26-.03-.53,0-.79.03-.26-.16-.53-.14-.79.02-.26.39-.5.4-.76,0-.26-.37-.52-.38-.78,0-.26.12-.52.1-.77-.02-.26.02-.52,0-.78-.03-.26.04-.53,0-.79-.05-.26-.3-.47-.37-.72-.06-.25.06-.55-.02-.8-.08-.26-.08-.55-.19-.78-.11-.24-.43-.39-.57-.61-.15-.22-.38-.37-.55-.57-.17-.2-.4-.33-.6-.52-.19-.18-.2-.55-.41-.72-.21-.16-.64-.07-.86-.23-.21-.16-.31-.46-.53-.62-.21-.15-.5-.2-.73-.37-.21-.15-.43-.3-.65-.47-.22-.17-.28-.56-.52-.71-.24-.15-.44-.38-.7-.52-.25-.14-.57-.16-.84-.29-.25-.12-.6-.07-.87-.19-.26-.11-.56-.13-.83-.24-.26-.1-.53-.19-.81-.29-.27-.1-.45-.4-.73-.49-.27-.09-.49-.32-.77-.41-.27-.09-.63.06-.91-.03-.27-.09-.51-.28-.79-.37-.27-.08-.58-.08-.86-.17-.6-.18-.56-.28-1.16-.47-.24-.08-.57.08-.83,0-.24-.08-.48-.19-.74-.27-.25-.07-.48-.2-.74-.27-.25-.07-.43-.34-.69-.42-.25-.07-.58.06-.83-.01-.25-.07-.43-.38-.69-.45-.28-.08-.66.11-.94.03-.28-.08-.58-.12-.87-.2-.29-.08-.44-.56-.72-.64-.29-.08-.58-.13-.86-.21-.29-.09-.68.13-.96.05-.29-.09-.47-.48-.74-.57-.29-.09-.63-.04-.9-.13-.3-.1-.6-.14-.86-.24-.3-.11-.56-.26-.81-.36-.32-.13-.68-.13-.88-.25-.23-.13-.28-.51-.49-.65-.23-.15-.59-.1-.78-.25-.22-.16-.34-.41-.52-.57-.2-.18-.56-.21-.72-.38-.18-.2,0-.64-.13-.83-.15-.22-.51-.31-.6-.52-.11-.28.08-.63.02-.92-.06-.29-.26-.55-.28-.85-.02-.29-.04-.59-.02-.89.02-.29.17-.57.23-.87.06-.28.01-.57.09-.83.09-.27.14-.55.26-.8.12-.26.27-.5.42-.74.15-.24.42-.4.6-.62.18-.22.17-.61.38-.81.2-.19.66-.15.89-.33.22-.17.34-.49.59-.65.25-.16.44-.42.7-.56.26-.14.54-.27.81-.39.27-.11.61-.11.89-.21.28-.09.59-.11.88-.18.28-.07.53-.33.83-.39.29-.05.62.09.92.06.29-.03.58-.23.88-.25.29-.02.6-.02.91-.02s.59,0,.88,0c.29.01.57.31.85.33.29.02.57.12.85.15.29.04.62-.16.9-.11.29.05.58.09.86.16.29.07.55.21.82.29.28.08.61.05.87.15.27.1.54.22.8.34.26.12.42.42.67.56.25.14.48.29.72.45.23.16.5.28.72.45.22.18.5.3.7.5.2.19.45.36.64.57.18.21.4.41.57.64.17.22.26.5.41.74.15.23,0,.62.13.87.13.24.26.47.39.72.12.24.3.46.41.72.11.25.16.52.26.78.1.25.5.41.59.68.1.24.27.42.38.62.13.23.19.46.33.65.16.22.05.63.22.79.2.18.58.13.8.24.22.11.42.27.67.33.23.05.5-.12.77-.11.24,0,.46-.03.72-.06.24-.03.48-.01.74-.07.27-.05.64.23.87.15.26-.09.46-.33.68-.45.23-.12.45-.29.65-.45.2-.16.21-.48.38-.67.2-.24.47-.42.6-.69.13-.27.2-.56.26-.86.06-.29.14-.58.13-.89-.02-.38-.06-.38-.08-.77-.02-.38-.2-.38-.22-.76-.02-.38-.04-.38-.06-.77-.02-.39.25-.4.23-.79-.02-.39.15-.39.13-.78s-.44-.37-.46-.75c-.02-.39.29-.4.27-.79-.02-.39.09-.39.07-.78-.02-.39-.16-.38-.18-.77-.02-.39,0-.39-.03-.77-.02-.39-.3-.37-.32-.76-.02-.39.05-.39.03-.78-.02-.39.09-.39.07-.78-.02-.39-.23-.38-.25-.77-.01-.25.32-.52.28-.74-.04-.25-.13-.49-.2-.71-.07-.24-.08-.52-.19-.73-.12-.22-.51-.28-.67-.46-.14-.16-.16-.5-.4-.65-.19-.12-.52-.06-.78-.15-.22-.08-.44-.17-.72-.21-.23-.03-.48-.16-.76-.16-.37,0-.75.05-1.07.14-.34.1-.69.25-.98.45-.22.15-.39.36-.58.52-.2.17-.26.46-.43.64-.26.28-.67.41-.96.63-.17.12-.36.1-.62.1-.19,0-.52.14-.98,0-.25-.08-.59-.14-.95-.3-.23-.11-.35-.51-.62-.61-.24-.09-.53-.15-.8-.24-.25-.09-.5-.2-.78-.28-.25-.08-.52-.17-.8-.25-.26-.08-.58.02-.86-.05-.28-.08-.6,0-.9-.06-.28-.06-.5-.5-.8-.55-.29-.04-.65.33-.96.29-.29-.03-.58-.08-.89-.1-.29-.02-.57-.28-.88-.29-.29-.01-.6-.1-.9-.11-.3,0-.6,0-.91,0-.29,0-.58.04-.87.05-.29,0-.58-.03-.87-.01-.29.01-.57.18-.86.2-.29.02-.57.12-.86.15-.29.03-.61-.2-.89-.17-.29.03-.57.15-.85.19-.29.04-.56.15-.85.2-.29.05-.55.18-.83.24-.29.06-.59.03-.87.09-.28.06-.53.25-.81.32-.28.07-.66-.19-.94-.11-.28.08-.43.54-.7.62-.27.09-.67-.14-.94-.05-.27.1-.48.34-.75.45-.25.1-.5.21-.75.32-.25.11-.47.27-.71.39-.25.11-.47.26-.71.38-.24.12-.51.19-.75.32-.24.13-.59.09-.82.22-.23.14-.31.5-.54.64-.23.14-.63.05-.86.2-.22.15-.23.57-.45.73-.22.16-.43.32-.64.48-.21.17-.38.36-.58.54-.2.17-.47.27-.67.45-.19.18-.39.36-.58.54-.19.19-.32.41-.5.61-.18.2-.49.29-.67.49-.17.2-.38.38-.55.59-.16.21-.42.37-.57.58-.15.22-.26.47-.4.69-.14.22-.01.59-.15.82-.13.23-.42.37-.55.6-.12.23-.34.43-.45.66-.11.24.08.59-.02.83s-.32.44-.4.68c-.09.24.03.54-.05.79-.07.25-.14.49-.2.74-.06.25-.32.46-.37.71-.05.24.02.51-.02.79-.03.25,0,.5-.01.77-.01.25-.34.51-.33.78,0,.25.08.52.11.79.03.25.17.5.22.77.05.25-.08.55,0,.81.07.25.28.47.37.72.09.24.08.53.18.78.1.24.22.49.34.73.12.23.31.44.45.68.13.22.52.31.67.54.15.22.1.56.26.78.16.21.21.51.39.72.17.2.51.28.7.49.18.19.47.3.67.49.19.19.36.39.57.58.2.18.17.6.38.78.2.17.67.08.89.25.21.17.33.44.55.61.22.16.52.22.75.38.22.16.23.6.46.75.23.15.48.28.71.43.23.14.6.09.84.24.24.14.56.14.8.28.24.13.36.46.61.59.24.13.5.23.75.36.25.12.41.4.67.52.25.12.57.1.83.22.25.11.49.27.74.38.25.11.49.26.75.36.25.1.47.3.74.4.26.1.65-.09.91,0,.26.1.45.38.71.48.25.09.59-.05.86.03.26.08.46.32.73.39.26.07.54.08.81.14.26.06.55.03.82.09.27.06.48.33.75.38.27.05.58-.08.85-.03.27.05.49.32.76.37.27.05.61-.26.87-.22.27.05.47.46.74.51.28.05.54.13.8.18.28.05.62-.21.88-.15.28.06.5.33.75.4.29.07.65-.13.89-.05.29.1.51.34.71.46.23.14.3.5.51.64.23.15.59.13.79.28.22.17.46.3.64.47.21.18.45.33.62.51.19.2.37.42.51.62.15.23,0,.59.08.81.09.22.28.41.34.65.06.23.1.47.13.71.03.24-.15.47-.15.72,0,.24.27.48.25.72-.02.24.03.5-.01.74-.05.25-.12.51-.19.74-.07.25-.28.45-.37.69-.1.24-.22.46-.35.68-.12.22-.11.53-.25.74-.14.21-.27.46-.43.66-.16.19-.66.12-.85.3-.18.18-.28.43-.49.6-.2.16-.39.33-.61.48-.23.16-.34.51-.59.66-.24.14-.58.16-.84.29-.25.13-.58.12-.85.23-.26.11-.5.28-.78.38-.27.1-.6.03-.88.12-.28.08-.52.25-.81.31-.28.07-.58.05-.87.1-.29.05-.55.25-.83.29-.29.04-.58.09-.87.11-.29.02-.58-.14-.86-.13-.29,0-.57.22-.85.22-.29,0-.57-.01-.85-.02-.29,0-.58.09-.86.08-.29-.01-.57-.1-.85-.12-.29-.02-.58,0-.86-.02-.29-.03-.58-.03-.85-.07-.29-.04-.53-.31-.81-.35-.29-.04-.54-.23-.81-.28-.29-.05-.56-.11-.82-.17-.29-.06-.57-.06-.84-.12-.29-.07-.66.2-.92.13-.29-.08-.53-.25-.78-.33-.29-.09-.47-.42-.72-.5-.31-.1-.69.1-.91.02-.27-.1-.5-.29-.76-.41-.26-.12-.56-.18-.81-.31-.25-.14-.37-.47-.61-.62-.24-.15-.53-.23-.76-.4-.22-.17-.44-.35-.66-.53-.21-.18-.48-.32-.68-.51-.2-.19-.37-.42-.56-.63-.19-.21-.2-.56-.37-.79-.17-.22-.27-.48-.43-.72-.15-.23-.3-.46-.45-.71-.14-.24-.22-.5-.34-.76-.12-.25-.54-.38-.65-.64-.11-.25-.35-.47-.45-.74-.1-.26-.12-.55-.21-.83-.09-.26-.02-.57-.1-.85-.08-.24-.1-.5-.21-.71-.12-.22-.51-.27-.66-.45-.16-.2-.12-.53-.31-.69-.19-.16-.49-.17-.71-.28-.24-.12-.49-.12-.77-.18-.26-.06-.49-.29-.77-.29-.26,0-.57-.15-.85-.11-.26.04-.45.45-.73.52-.28.08-.53.16-.77.26-.27.11-.73-.13-.95,0-.25.15-.35.49-.55.67-.21.19-.56.3-.7.52-.14.21-.14.51-.22.74-.08.23-.16.47-.2.72-.03.23-.17.49-.17.75,0,.24.39.46.43.71.06.39.12.39.18.78.06.39-.22.43-.16.82.06.39,0,.4.06.79.06.4.29.36.35.76.06.39-.07.41-.01.81s-.06.41,0,.8c.06.4.16.38.22.78.06.4.27.37.33.76.06.39-.06.41,0,.81.06.39-.08.41-.02.81.06.4.2.38.25.77.06.4.21.38.27.77.06.4.12.41.15.81.03.41-.26.42-.2.82.04.3.06.6.11.86.06.3.22.57.29.83.08.3.14.6.24.84.12.3.49.43.64.63.13.18.25.34.48.51.18.14.29.41.55.51.22.09.47.16.75.21.24.04.5-.04.78-.04.26,0,.51.02.75-.01.26-.04.5-.09.72-.17.24-.08.38-.29.59-.41.21-.13.62-.05.78-.23.22-.23.28-.59.49-.83.21-.24.49-.43.68-.67.14-.17.28-.26.75-.27.24,0,.54-.1.87-.01.25.07.56.09.87.2.26.09.51.25.8.36.26.1.53.21.81.33.24.1.47.26.74.36.25.1.48.25.74.35.25.09.56.06.83.15.25.09.44.36.71.45.25.09.64-.17.91-.09.26.08.39.54.66.62.26.08.57.02.84.09.26.07.56.01.84.08.26.06.56-.01.84.05.27.06.48.34.76.39.27.05.56.02.83.06.27.04.56-.05.84-.01.27.04.53.09.81.13.27.03.52.26.8.28.27.03.56-.09.84-.07.27.02.55,0,.83.01.28.01.55.04.83.05.28,0,.55.08.84.08.06,0,.12-.1.18-.1.29,0,.57.03.86.02.29,0,.58.06.87.05.29-.01.57-.13.85-.15.29-.02.58-.01.86-.04.29-.03.56-.16.84-.19.29-.04.62.21.9.16.29-.04.55-.22.83-.27.28-.05.62.13.9.07.28-.06.56-.17.84-.23.28-.07.55-.18.83-.26.28-.08.59-.06.86-.15.27-.09.5-.32.77-.41.27-.1.45-.41.71-.51.27-.1.56-.14.82-.25.26-.11.59-.09.85-.21.26-.12.53-.22.79-.35.25-.13.54-.21.79-.35.25-.14.44-.36.69-.51.24-.14.42-.39.66-.54.24-.15.6-.14.84-.3.23-.16.42-.38.65-.55.23-.17.33-.47.56-.65Z"/>
          <path class="cls-1" d="M183.87,4.28c-.11-.29-.35-.53-.57-.75-.21-.2-.53-.22-.83-.36-.26-.12-.48-.38-.8-.46-.28-.06-.58-.19-.91-.22-.29-.02-.61.17-.93.17-.43,0-.43.08-.86.08s-.43-.35-.87-.35-.43.05-.87.06c-.43,0-.43-.02-.87-.02-.43,0-.43,0-.86,0-.43,0-.43.2-.86.2-.43,0-.43.17-.87.17-.43,0-.43-.43-.87-.42-.43,0-.43.46-.86.46-.43,0-.43-.02-.86-.01-.43,0-.44-.25-.87-.25-.43,0-.43-.08-.87-.07-.43,0-.43.02-.87.03-.43,0-.43.04-.87.05-.43,0-.43-.04-.87-.04-.43,0-.43.17-.86.17-.43,0-.43.09-.86.09-.44,0-.44-.28-.87-.27-.44,0-.43.09-.87.09-.44,0-.44.08-.87.08-.44,0-.44.09-.87.1-.33,0-.65-.08-.95-.05-.33.04-.61.22-.9.29-.32.08-.75-.18-1.03-.05-.3.13-.36.66-.6.85-.22.17-.67.08-.85.28-.18.2-.21.54-.34.78-.13.23-.23.48-.32.75-.08.25-.09.52-.13.8-.05.28-.04.53-.05.77,0,.28-.06.54-.01.77.06.27-.05.62.08.83.13.23.55.28.78.5.19.18.24.61.5.79.23.15.64-.03.91.11.37.09.37.06.75.12s.39.01.77.07c.38.06.36.17.75.23s.39.05.77.13c.26.1.53.15.72.27.24.14.32.45.45.62.16.21.18.4.18.65,0,.22-.15.37-.28.64-.1.21-.16.42-.33.66-.14.19-.05.59-.23.81-.16.18-.48.25-.67.45-.31.32-.39.24-.7.55-.31.31-.08.54-.39.86-.31.31-.41.22-.72.53-.31.31-.16.46-.47.78-.31.32-.31.31-.62.63-.31.32-.46.17-.77.48-.31.32-.23.4-.54.71-.31.31-.27.35-.58.67-.31.31-.54.08-.85.39-.31.31-.27.35-.58.66-.31.31-.24.38-.55.7-.31.31-.45.18-.76.49-.31.32-.21.42-.52.73-.31.32-.4.23-.71.55q-.31.32-.62.63c-.31.31-.26.36-.57.68-.31.32-.11.52-.42.83-.31.32-.49.14-.8.46-.31.32-.42.21-.73.53-.31.32-.16.47-.47.78-.31.32-.21.42-.52.74-.31.32-.33.3-.64.62-.31.32-.56.07-.87.39-.31.32-.03.59-.34.91-.31.32-.42.21-.73.53-.31.32-.22.41-.53.73-.31.32-.59.05-.9.37-.31.32-.01.64-.46.6-.43-.04-.3-.14-.54-.51-.23-.36-.37-.27-.61-.64-.23-.36-.03-.5-.26-.86-.23-.36-.26-.35-.49-.71-.24-.36-.08-.47-.31-.83-.23-.36-.37-.27-.6-.63-.23-.36-.19-.39-.43-.75-.23-.36-.2-.39-.43-.75-.24-.36-.15-.42-.38-.79-.23-.36-.52-.18-.76-.54-.23-.36-.05-.48-.28-.84-.23-.36-.45-.22-.68-.59-.24-.36-.07-.47-.31-.83-.24-.36-.29-.33-.52-.69s-.32-.31-.55-.67c-.24-.37-.03-.5-.27-.86-.24-.36-.41-.25-.64-.62-.24-.36-.03-.5-.26-.86-.24-.36-.57-.15-.8-.51-.24-.37.11-.59-.13-.95-.24-.37-.21-.39-.44-.75-.24-.37-.53-.18-.77-.55-.24-.37-.04-.49-.27-.86-.15-.26-.57-.36-.68-.59-.13-.27-.11-.6-.19-.85-.09-.29.14-.6.13-.85-.01-.3-.21-.58-.11-.82.1-.24.25-.51.47-.72.19-.17.39-.41.66-.56.22-.13.49-.27.78-.38.24-.1.61.12.9.04.44-.1.42-.21.86-.29.44-.09.45-.08.89-.16.44-.09.5.13.94.03.32-.12.53-.53.8-.67.3-.16.51-.4.75-.58.27-.2.49-.39.69-.62.18-.21.44-.36.58-.61.13-.24.27-.49.36-.77.09-.26-.02-.57.03-.86.06-.34.02-.62,0-.92-.02-.34.34-.74.22-1.02-.12-.3-.43-.54-.66-.77-.2-.21-.48-.37-.78-.52-.26-.12-.61.03-.94-.04-.28-.06-.54-.26-.87-.28-.29-.02-.59-.18-.92-.18-.44,0-.44.08-.87.08s-.44-.17-.88-.17c-.44,0-.44.11-.88.11-.44,0-.44-.08-.88-.07-.44,0-.44.18-.87.18s-.44.04-.87.04-.44-.18-.88-.18c-.44,0-.44.23-.87.23-.44,0-.44,0-.88,0-.44,0-.44.12-.88.12-.44,0-.44-.07-.88-.06s-.44.06-.87.06-.44.03-.88.04c-.44,0-.44-.26-.88-.25-.44,0-.44-.15-.88-.15-.44,0-.44,0-.88,0-.44,0-.44.07-.88.08-.44,0-.44.39-.87.39-.44,0-.44-.11-.87-.1-.44,0-.44-.28-.88-.27s-.43.35-.87.35c-.44,0-.44-.09-.88-.08-.44,0-.44.1-.88.1-.44,0-.44-.24-.88-.24-.44,0-.44.11-.88.11-.44,0-.44,0-.88,0-.44,0-.44.09-.88.1-.44,0-.44-.02-.88-.02-.44,0-.44-.22-.88-.22-.44,0-.44-.07-.88-.07-.44,0-.44,0-.88.01s-.44-.06-.88-.05c-.34,0-.66.35-.97.38-.34.04-.62.23-.92.3-.33.08-.63.09-.92.22-.31.13-.66.15-.91.33-.23.17-.49.29-.68.49-.18.2-.08.6-.22.84-.14.23-.5.35-.59.61-.09.25,0,.55-.05.83-.05.27.02.5.01.74,0,.27-.21.52-.16.75.06.26,0,.59.13.8.12.19.59.12.83.32.18.15.38.28.63.43.21.13.23.64.48.77.22.11.57.02.83.13.26.08.43.35.66.45.25.1.53.07.75.19.24.12.44.27.65.41.21.15.32.4.53.59.19.18.64.11.83.32.17.2.4.38.56.61.03.05-.04.47.24.9.13.2.24.48.42.76.14.22.5.33.68.6.15.23.19.55.36.81.15.23.2.54.37.8.15.23.4.42.56.67.15.24.49.36.66.61.15.24.21.55.37.8.15.24.19.56.35.81.15.24.43.41.59.65.15.24.44.4.6.65.15.24.33.47.49.72.16.24-.07.73.09.98.16.24.35.46.51.71.16.24.44.4.6.65.16.24.53.35.68.6.16.24.18.57.34.82.15.24.41.42.57.66.16.24.02.67.18.92.16.24.31.49.47.73.16.24.58.31.74.56.16.24.3.5.46.74.16.24.2.57.35.81.16.24.37.45.53.7.16.24.24.53.4.78.16.24.52.36.67.6.16.24.26.53.42.77.16.24.36.46.51.71.16.24.25.53.41.78.16.25.39.44.55.69.16.25.24.54.4.79.16.25.25.54.4.78s.08.64.24.89c.16.25.66.27.82.52.16.25.03.52.19.76-.19.39-.27.27-.57.58-.3.31-.27.34-.57.65s-.17.44-.47.75c-.3.31-.27.34-.57.65-.3.31-.54.08-.84.39-.3.31-.07.53-.37.84-.3.31-.46.16-.76.47-.3.31-.31.3-.61.62-.3.31-.25.35-.55.67-.3.31-.3.32-.59.63-.3.31-.09.52-.38.83-.3.31-.6.03-.9.34-.3.31-.2.41-.5.73-.3.31-.14.47-.44.78-.3.31-.27.34-.57.66-.3.31-.34.28-.64.59s-.3.31-.6.62q-.3.31-.6.63c-.3.31-.31.3-.61.61-.3.31-.21.4-.51.71-.3.31-.47.15-.77.46-.3.31-.33.29-.62.6-.3.31-.41.21-.7.52-.3.31-.31.3-.61.61-.3.31,0,.6-.29.92-.3.31-.58.05-.87.36-.3.31-.07.54-.37.85-.3.31-.26.36-.56.67-.3.31-.61.01-.91.33-.3.31.02.62-.27.94-.3.31-.29.32-.59.64-.3.32-.42.2-.72.52-.3.31-.28.34-.58.65s-.26.35-.56.67c-.3.32-.41.22-.71.53-.3.32-.48.14-.78.46-.3.31-.05.55-.35.87-.3.31-.46.16-.76.47-.3.32-.08.53-.38.85-.3.32-.59.04-.9.35-.3.32-.08.53-.38.85-.3.32-.45.17-.76.49-.22.22-.46.41-.68.62-.22.22-.47.4-.69.61-.22.21-.17.73-.39.93-.23.21-.53.33-.76.53-.23.2-.41.48-.64.67-.22.18-.63.11-.84.27-.22.17-.36.44-.58.6-.22.17-.44.34-.66.49-.23.16-.61.08-.84.23-.23.15-.28.58-.51.72-.27.16-.53.32-.8.47-.27.15-.65.1-.92.24-.28.14-.49.39-.77.52-.28.13-.63.08-.91.2-.26.1-.37.55-.61.65-.26.11-.6,0-.83.12-.26.12-.56.14-.78.27-.25.14-.49.3-.7.44-.24.17-.48.34-.66.51-.22.21-.19.63-.36.86-.17.24-.33.47-.45.73-.11.27-.17.54-.22.83-.06.35-.04.65-.03.96.02.35-.09.69.03.98.12.31.41.49.65.72.2.2.28.63.57.76.25.12.62.03.94.1.27.06.58-.04.9-.02.28.02.57.32.89.32.45,0,.45-.1.89-.1.45,0,.45.12.89.12.45,0,.44-.26.89-.27.45,0,.45.18.89.17.45,0,.45-.11.89-.11s.45-.11.89-.11c.45,0,.45.14.89.13.44,0,.44-.16.89-.17.45,0,.45.39.89.39.45,0,.45-.1.89-.11.45,0,.45-.2.89-.2s.45.02.89.02c.45,0,.45.06.9.06.45,0,.45.06.9.05.45,0,.44-.3.89-.3.45,0,.45.27.89.27.45,0,.45.16.9.15.45,0,.45-.22.9-.22.45,0,.45-.14.9-.14s.45,0,.9,0c.33,0,.62-.12.92-.15.33-.04.61-.09.9-.16.32-.08.75.21,1.03.08.29-.14.53-.41.78-.59.22-.17.33-.46.5-.65.18-.2.4-.37.54-.61.13-.23.06-.55.15-.81.09-.25.48-.42.53-.7.05-.27-.3-.56-.3-.8,0-.28.03-.49-.03-.72-.06-.27-.06-.49-.2-.7-.14-.21-.35-.36-.58-.55-.2-.16-.29-.52-.55-.67-.22-.13-.59.07-.86-.05-.51-.12-.5-.1-1.02-.19-.52-.09-.45-.46-.97-.56-.35-.07-.73.14-1.01.06-.36-.11-.68-.25-.91-.38-.39-.2-.68-.51-.71-.76-.03-.2.1-.5.25-.8.1-.2.21-.45.39-.69.14-.19.54-.2.73-.41.16-.19.18-.5.37-.71.3-.31.25-.36.55-.67.3-.31.22-.38.52-.7.3-.31.25-.36.54-.68.3-.31.57-.06.87-.37.3-.31.31-.3.61-.61q.3-.31.6-.63c.3-.31.17-.44.47-.75.3-.31.24-.37.54-.69.3-.31.52-.11.82-.42.3-.31.17-.44.47-.75.3-.31.12-.48.42-.8.3-.31.55-.08.85-.39.3-.31.31-.31.61-.62.3-.31.34-.28.64-.59.3-.31.02-.59.32-.9.3-.31.61-.02.91-.34.3-.31.09-.51.39-.82.3-.31.2-.4.5-.71.3-.31.39-.22.69-.53.3-.31.41-.21.71-.52.3-.31.36-.25.66-.57.3-.31.33-.29.63-.6.3-.32.09-.52.39-.83.3-.31.21-.4.51-.71.3-.31.45-.17.75-.49.3-.31.24-.37.54-.69.3-.32.5-.12.81-.44.3-.32.3-.31.61-.63.3-.32.2-.41.5-.73.3-.32.22-.4.52-.72.3-.32.48-.14.78-.46.3-.32.31-.31.61-.62.3-.31.06-.54.36-.86.3-.32.44-.18.74-.5.3-.32.35-.27.65-.59.3-.32.33-.29.63-.61.3-.32.13-.49.53-.69.16.25.22.5.37.74.16.25.55.34.71.59.16.25.3.5.46.75.16.25.16.6.31.84.16.25.32.49.47.74.16.25.41.43.57.68.16.25.28.51.44.76.16.25.31.49.47.74.16.25.43.42.59.66.16.25.02.68.18.93.16.25.48.39.64.63.16.25.24.55.39.79.16.25.27.52.43.77.16.25.45.41.61.65.16.25.38.45.53.7.16.25.26.53.41.77.16.25.31.5.46.74.16.25.26.53.41.77.16.25.26.53.41.77.16.25.45.41.6.65.16.25.14.6.3.84.16.25.65.28.8.51.16.25-.05.73.1.97.16.25.44.41.59.65.16.25.44.42.59.65.16.25.45.42.59.65.17.26.11.64.25.87.17.26.4.46.54.68.18.28.46.45.6.65.3.47.21.37.44.73.15.24.1.58.21.8.13.26.38.45.46.67.1.28.19.57.2.8.01.3-.1.66-.26.92-.14.22-.43.41-.7.59-.19.13-.38.36-.66.49-.22.1-.49.18-.77.28-.23.08-.52.09-.79.17-.24.07-.47.25-.74.33-.27.08-.53.12-.78.21-.27.09-.48.28-.72.38-.27.11-.63-.07-.86.04-.26.13-.43.38-.65.51-.25.15-.63.1-.82.26-.26.22-.48.52-.67.78-.19.26-.33.6-.46.91-.12.3-.33.61-.39.95-.06.34.07.71.09,1,.02.34.32.58.44.86.12.3.19.57.42.8.2.2.34.51.63.65.25.12.54.26.86.33.27.06.58.18.9.2.28.02.6-.07.92-.07.44,0,.44-.13.87-.13.44,0,.44.22.88.22.44,0,.44-.08.87-.08.44,0,.44-.19.88-.19.44,0,.44.2.88.2.44,0,.44-.05.87-.05s.44.02.87.01c.44,0,.44-.1.87-.1.44,0,.44-.18.87-.19.44,0,.44.29.88.29.44,0,.44-.28.88-.28.44,0,.44.33.88.33.44,0,.44-.17.87-.18.44,0,.44.16.88.16.44,0,.44-.2.88-.21.44,0,.44.1.88.1.44,0,.44.08.88.08.44,0,.44-.15.88-.16.44,0,.44.06.88.06.44,0,.44-.02.87-.03.44,0,.44-.08.87-.08.44,0,.44.02.87.02.44,0,.44.15.88.14.44,0,.44-.12.88-.12s.44-.22.87-.22c.44,0,.44.36.88.36.44,0,.44-.4.88-.4.44,0,.44.13.88.13.44,0,.44.06.88.06.44,0,.44.11.88.11.44,0,.44-.21.88-.22.44,0,.44.2.89.2.44,0,.44.11.88.1.34,0,.67-.23.98-.26.34-.04.64-.19.94-.26.33-.08.6-.25.88-.37.31-.14.74-.04.99-.23.22-.17.18-.61.36-.8.18-.2.5-.28.64-.51.14-.23.13-.52.22-.78.09-.25.15-.49.2-.76.05-.3.38-.56.37-.83,0-.3.03-.65-.06-.91-.09-.27-.37-.51-.54-.74-.18-.24-.55-.32-.81-.53-.23-.19-.53-.26-.82-.43-.26-.15-.52-.25-.83-.38-.34-.09-.59-.42-.89-.51-.34-.11-.6-.37-.89-.48-.34-.13-.75-.01-1.02-.15-.24-.12-.42-.38-.65-.55-.22-.16-.5-.26-.7-.46-.19-.19-.3-.47-.48-.69-.18-.22-.59-.31-.79-.58-.17-.23-.32-.52-.5-.8-.17-.25-.3-.54-.48-.82-.16-.25-.15-.64-.32-.92-.24-.37-.44-.24-.68-.61-.24-.37-.02-.51-.25-.88-.24-.37-.5-.2-.74-.57-.24-.37-.28-.34-.52-.71-.24-.37.14-.61-.1-.98-.24-.37-.28-.34-.51-.71-.24-.37-.53-.18-.77-.55-.24-.37.05-.56-.19-.92-.24-.37-.38-.28-.62-.64-.24-.37-.29-.33-.53-.7-.24-.37-.2-.39-.44-.76-.24-.37-.38-.28-.62-.64-.24-.37.03-.54-.21-.91-.24-.37-.45-.23-.69-.6-.24-.37-.13-.44-.37-.81-.24-.37-.43-.24-.67-.61-.24-.37.14-.61-.1-.98-.24-.37-.48-.21-.72-.58-.24-.37,0-.53-.23-.9-.24-.37-.38-.28-.62-.65-.24-.37-.26-.35-.5-.72-.24-.37-.15-.43-.38-.79-.24-.37-.34-.3-.58-.67-.24-.37-.29-.34-.53-.71-.24-.37-.23-.38-.46-.74-.24-.37-.13-.44-.37-.8-.24-.37-.48-.21-.72-.58-.24-.37.05-.56-.18-.93-.24-.37-.41-.26-.65-.63-.24-.37-.36-.29-.6-.66-.24-.37-.24-.37-.48-.74-.24-.37-.13-.44-.37-.81-.24-.37-.17-.41-.41-.78-.24-.37-.42-.25-.66-.62-.24-.37-.06-.49-.3-.86-.24-.37-.4-.27-.64-.64-.24-.37-.23-.38-.48-.75-.24-.37-.56-.43-.52-.87.04-.43.59-.2.9-.5.31-.3.36-.25.67-.55.31-.3.13-.49.44-.79.31-.3.3-.32.61-.62.31-.3.36-.25.67-.55.31-.3.21-.41.52-.71.31-.3.31-.3.63-.6.31-.3.45-.16.76-.46.31-.3.32-.3.63-.6.31-.3.26-.35.57-.66.31-.3.25-.37.56-.67.31-.3.27-.35.58-.65.31-.3.28-.33.59-.63.31-.3.37-.24.68-.54.31-.3.56-.05.86-.35q.31-.3.62-.6c.31-.3.26-.36.57-.66.31-.3.35-.27.66-.57.31-.3.08-.55.39-.85.31-.3.26-.36.57-.66.31-.3.36-.25.67-.56.31-.3.58-.03.89-.33.31-.3.12-.51.43-.81.31-.3.38-.24.69-.54.31-.3.15-.47.47-.77.31-.3.29-.33.61-.63.31-.3.35-.26.67-.57.31-.3.59-.02.91-.32.31-.3.21-.41.52-.72.31-.3.3-.32.61-.63.31-.31.15-.47.47-.78.32-.31.41-.21.72-.52s.3-.32.61-.63c.21-.22.47-.39.67-.6.21-.22.39-.46.6-.67.21-.22.29-.56.49-.77.22-.22.41-.44.61-.65.22-.22.62-.24.83-.44.22-.22.56-.3.76-.5.23-.22.14-.73.34-.93.23-.22.67-.19.87-.38.24-.22.53-.33.73-.5.21-.18.33-.46.54-.63.22-.17.45-.31.68-.46.24-.15.34-.54.58-.66.25-.13.54-.19.79-.29.26-.11.56-.09.82-.17.28-.11.46-.41.71-.52.28-.12.68.1.93-.01.27-.12.52-.28.76-.41.27-.13.58-.18.81-.31.27-.15.36-.56.58-.71.26-.17.65-.14.84-.31.25-.22.31-.6.5-.84.21-.26.4-.49.53-.76.14-.29.35-.56.4-.86.06-.33.08-.65.07-.94-.01-.33-.07-.66-.17-.93Z"/>
          <path class="cls-1" d="M75.7,75.17c.05-.38.06-.72.15-1,.12-.39.23-.84.04-1.14-.2-.3-.44-.61-1.03-.63-.59-.01-.52.24-1.11.23-.59-.01-.59.07-1.18.06s-.58-.33-1.17-.34c-.59-.01-.59-.15-1.18-.16-.59-.01-.59.05-1.18.04-.59-.01-.58-.21-1.17-.22-.59-.01-.59.17-1.18.16-.4,0-.54.19-.77.31-.07.02-.15.03-.25.03-.15,0-.25.02-.33.04-.41-.06-.49-.28-1.01-.29-.3,0-.44.06-.59.13-.25.02-.33.08-.68.08-.44,0-.44-.13-.87-.13-.14,0-.22.03-.3.06-.46-.04-.5-.27-1.02-.11-.23.07-.37.1-.5.14-.35.01-.39.1-.79.1-.44,0-.44.1-.87.1s-.44-.14-.87-.14-.44.16-.87.16-.44-.4-.87-.4-.44.1-.87.1-.44.19-.87.19-.44-.02-.87-.02-.44-.06-.87-.06-.44-.06-.87-.06-.44.3-.87.3-.44-.28-.87-.28-.44-.16-.87-.16-.44.21-.87.21-.44.14-.87.14-.44,0-.87,0-.44.1-.87.1-.44,0-.87,0-.44-.42-.87-.42-.44.11-.87.11-.44.14-.87.14-.44-.08-.87-.08-.44.2-.88.2-.44-.34-.87-.34-.44.38-.87.38-.44-.04-.88-.04-.44-.09-.88-.09-.44.05-.87.05-.44-.24-.87-.24-.44.35-.88.35-.44-.01-.88-.01-.44-.38-.88-.38-.44.3-.88.3c-.33,0-.65-.04-.95-.07-.33-.04-.66-.07-.94-.15-.32-.09-.61-.26-.86-.4-.29-.15-.57-.33-.78-.55-.21-.22-.1-.64-.21-.95-.1-.27-.35-.51-.38-.85-.03-.29-.09-.61-.07-.95.02-.29-.04-.63.03-.96.08-.43,0-.44.09-.86.08-.43.44-.36.52-.78.08-.43.1-.42.18-.85q.08-.43.16-.85c.08-.43-.09-.46-.02-.88.08-.43,0-.44.08-.87.08-.42.38-.37.46-.79.08-.42-.1-.46-.02-.88.08-.42-.16-.47-.08-.89.08-.42.41-.36.49-.78.08-.42.09-.42.17-.85.08-.42.13-.41.21-.84.08-.42-.31-.5-.23-.92.08-.42.5-.35.57-.77.08-.42-.2-.48-.12-.9.08-.42-.05-.45.03-.87.08-.42.21-.4.29-.82.08-.42.23-.4.31-.82.08-.42.16-.41.24-.83.08-.43.11-.42.19-.84.08-.43-.21-.48-.13-.91s-.04-.45.04-.88c.08-.43.28-.39.36-.81.08-.43,0-.44.08-.87.08-.43.36-.37.44-.8.08-.42.08-.42.16-.85.08-.42-.06-.45.02-.88.08-.42-.04-.45.04-.87.08-.43.33-.38.4-.8.08-.43.09-.42.17-.85.08-.43-.25-.49-.17-.91.08-.43.27-.39.35-.82.08-.43.14-.41.22-.84.08-.43.12-.42.2-.84.08-.43-.01-.44.07-.87.08-.43.12-.42.2-.84.08-.43-.19-.48-.11-.9.08-.43.1-.42.18-.85.08-.43.27-.39.35-.82q.08-.43.16-.85c.08-.43-.03-.45.05-.87.08-.43.12-.42.2-.85.08-.43.08-.43.16-.85.08-.43-.05-.45.03-.88.08-.43.42-.36.5-.79.08-.43-.12-.46-.04-.89.08-.43.18-.41.26-.84.08-.43.13-.42.21-.84.08-.43-.08-.45,0-.88.08-.43,0-.44.09-.87.08-.43.15-.42.23-.84.08-.43.09-.43.17-.85.08-.43.15-.41.23-.84.08-.43.15-.42.23-.84.08-.43-.07-.46,0-.88.08-.43.28-.39.36-.82.08-.43-.31-.5-.23-.93.08-.43.51-.35.59-.78.08-.43-.07-.46.01-.89.08-.43-.06-.46.02-.89.08-.43-.07-.46.01-.89.06-.34.4-.61.49-.91.11-.33.15-.67.3-.95.16-.3.25-.68.46-.92.16-.18.39-.36.6-.53.19-.15.53-.12.76-.25.21-.12.37-.38.62-.49.22-.1.47-.24.72-.33.39-.11.41-.08.8-.18.4-.1.42-.02.81-.12.4-.1.37-.2.77-.3s.41-.06.8-.17c.28-.1.55-.13.8-.24.27-.13.45-.36.69-.5.25-.16.49-.28.7-.46.22-.19.33-.44.51-.65.19-.22.6-.26.74-.5.14-.25.14-.56.24-.83.1-.26.43-.48.48-.77.07-.36.06-.73.05-1.04-.01-.36-.13-.72-.24-1.01-.12-.31-.25-.71-.49-.95-.2-.2-.57-.27-.84-.4-.24-.12-.6.02-.9-.06-.27-.07-.52-.2-.83-.23-.28-.03-.56-.21-.87-.21-.43,0-.43-.04-.86-.04s-.43-.07-.86-.07-.43.11-.86.11-.43.12-.86.12-.43-.23-.86-.23-.43.08-.86.08-.43.19-.86.19-.43-.2-.86-.2-.43.04-.86.04-.43-.02-.86-.02-.43.09-.86.09-.43.18-.86.18-.43-.29-.86-.29-.43.27-.86.27-.43-.33-.86-.33-.43.17-.86.17-.43-.17-.86-.17-.43.2-.85.2-.43-.11-.86-.11-.43-.09-.86-.09-.43.15-.86.15-.43-.07-.86-.07-.43.02-.86.02-.43.07-.86.07-.43-.03-.86-.03-.43-.15-.86-.15-.43.12-.86.12-.43.22-.86.22-.43-.36-.87-.36-.43.39-.87.39c-.33,0-.64-.12-.95-.09-.33.04-.65.02-.95.1-.32.08-.67.08-.95.2-.3.13-.47.47-.72.65-.24.17-.58.2-.77.4-.19.21-.47.39-.62.63-.14.24-.09.6-.19.87-.09.26-.07.55-.12.84-.06.3-.01.58-.02.85,0,.31-.27.62-.2.89.07.29.5.41.64.66.14.25.14.57.35.78.2.19.49.25.75.41.23.14.46.25.74.37.49.15.41.42.9.55.49.13.47.23.96.36.49.13.53-.01,1.02.13.29.12.63.06.86.2.27.16.59.27.78.46.22.21.45.49.58.73.13.25,0,.64.05.97.04.27-.11.56-.13.89-.02.28.22.61.16.93-.08.43-.21.41-.29.83-.08.43.02.45-.06.88-.08.43-.19.41-.27.84-.08.43.18.48.1.91-.08.43-.13.42-.21.85-.08.43-.14.42-.22.85-.08.43-.3.39-.38.82-.08.43.16.47.08.9-.08.43-.34.38-.42.81-.08.43.23.48.15.91-.08.43-.03.44-.11.86s-.52.34-.6.77-.03.44-.11.86c-.08.43.27.49.19.92-.08.43-.42.36-.5.79-.08.43.09.46.01.89-.08.43-.02.44-.1.87-.08.43-.12.42-.2.85-.08.43.09.46,0,.89-.08.43-.39.37-.47.8-.08.43.17.48.09.91-.08.43-.21.41-.29.83-.08.43.15.47.07.9-.08.43-.52.35-.6.78-.08.43.2.48.12.91-.08.43-.37.37-.45.8-.08.43.09.46,0,.89-.08.43-.05.43-.13.86-.08.43-.19.41-.27.84-.08.43.04.45-.04.88-.08.43-.02.44-.1.87-.08.43-.09.43-.17.86-.08.43-.2.41-.28.84-.08.43.21.48.13.91-.08.43-.42.37-.5.79-.08.43.12.47.04.9-.08.43.06.46-.02.89-.08.43-.08.43-.16.86-.08.43-.21.41-.29.84-.08.43-.16.41-.24.84-.08.43.13.47.05.9-.08.43-.29.39-.37.82s.1.47.02.9c-.08.43-.09.43-.17.86-.08.43-.07.43-.15.86-.08.43-.39.37-.47.8-.08.43-.15.42-.23.85-.08.43.18.48.1.91-.08.43-.06.43-.14.86-.08.43-.15.42-.23.85-.08.43.06.46-.02.89s-.08.43-.17.86c-.08.43-.28.4-.36.83-.08.43-.09.43-.17.86-.08.43-.01.44-.09.88-.08.43.01.45-.07.88-.08.43-.02.44-.1.88-.08.43-.05.44-.13.87-.08.43-.17.42-.25.85-.08.43-.43.37-.51.8-.06.34-.14.63-.23.93-.11.33-.15.63-.3.91-.16.3-.37.51-.58.74-.16.18-.12.6-.33.77-.19.15-.38.37-.61.5-.21.12-.49.19-.73.3-.22.1-.59-.16-.84-.07-.4.11-.33.37-.74.47-.41.1-.43,0-.83.11-.41.1-.35.32-.76.42-.41.1-.4.12-.8.23-.28.1-.53.14-.78.26-.27.13-.71-.09-.95.06-.25.16-.41.46-.62.64-.22.19-.41.42-.59.63-.18.22-.15.58-.29.82-.14.24-.37.43-.46.7-.09.26-.14.54-.19.82-.07.36-.16.68-.15.99.01.36.12.67.24.97.13.31.43.45.68.68.2.2.39.31.66.45.24.12.4.47.7.55.26.07.54.3.84.33.27.03.59-.14.89-.14.43,0,.43-.08.87-.08s.43.02.87.02.43-.2.87-.2.43.02.87.02.43.29.86.29.43-.24.86-.24.43.23.86.23.43.06.86.06.43.01.86.01.43,0,.86,0,.43-.33.86-.33.43.4.86.4.43-.43.86-.43.43.35.86.35.43.09.86.09.43-.29.87-.29.43.21.87.21.43.06.87.06.43,0,.87,0,.43-.04.87-.04.43-.3.87-.3.43-.07.87-.07.43.25.87.25.43.17.87.17.43-.17.87-.17.43.12.87.12.43-.28.87-.28.43.15.87.15.44.14.87.14.43-.08.87-.08.43-.18.87-.18.43.04.87.04.43-.02.87-.02.43.05.87.05.43-.09.87-.09.43.28.87.28.43-.42.87-.42.43.15.87.15.43.26.87.26.44-.1.87-.1.44-.1.87-.1.43-.08.87-.08.44-.1.87-.1.44.23.87.23.43.1.87.1.43-.15.87-.15.43.18.87.18.44-.19.87-.19.44-.2.87-.2.44.05.87.05.44-.04.87-.04c.25,0,.36.03.48.05.13.26.35.16.64.03.21,0,.29-.02.62-.02.43,0,.43.15.87.15s.44.06.87.06.44.07.87.07.44-.39.88-.39.46.39.89.31c.12-.12.23-.27.35-.42.04,0,.06,0,.11,0,.6,0,.6.21,1.21.21s.6.18,1.21.18.61-.39,1.21-.39.6.13,1.21.13.6.13,1.21.13.6-.21,1.21-.21.6.21,1.2.21.6-.45,1.2-.45.6.45,1.2.45.6-.2,1.21-.2.6-.25,1.2-.25.6.16,1.2.16.6.16,1.2.16.6.13,1.19.13-1.79-.13-1.19-.13.6.09,1.2.09.6-.36,1.2-.36.6-.08,1.2-.08.66.1.94-.1c.29-.21.36-.48.48-.82.12-.32.68-.67.59-1.04-.11-.5-.21-1.02-.21-1.7,0-.37-.23-.71-.19-1.01Z"/>
        </g>
        <path class="cls-1" d="M76.74,71.65c.21-.09.3-.3.5-.4s.37-.29.56-.41.37-.27.56-.39.35-.29.53-.42.35-.29.52-.43.34-.3.51-.44.38-.24.55-.39.41-.21.58-.36.32-.32.49-.47.24-.4.41-.55.43-.18.61-.32.18-.5.37-.64c.22-.15.55-.15.78-.29s.43-.34.67-.45,1.02-.9,1.55-.33c.18.2.79.13,1.05.19s.45.27.66.43.61.25.69.51c.07.21-.09.5-.12.72s-.11.43-.19.64c-.08.23-.04.51-.15.73s-.41.33-.54.53-.3.37-.44.57-.3.36-.46.55-.31.36-.47.54-.21.46-.37.64-.43.25-.6.42c-.15.16-.12.5-.28.66s-.33.3-.49.46-.46.18-.61.34-.35.28-.51.44-.09.53-.25.69-.38.25-.54.41-.21.42-.37.57c-.16.16-.57.09-.71.26s-.29.36-.42.53-.28.36-.4.54-.2.41-.32.59-.2.41-.32.58-1.29.3-1.43.47-.34.27-.49.43-.28.31-.46.44-.21.5-.41.6c-.19.09-.46.06-.69.12-.2.06-.43.08-.66.12-.2.03-.43.12-.68.13-.21,0-.44-.26-.68-.27-.22,0-.44-.02-.68-.03-.22-.01-.46.21-.69.2s-.46.06-.69.04-.45-.14-.67-.15-.45-.12-.67-.13c-.23-.01-.46-.17-.68-.18-.24-.01-.48.24-.69.24-.25,0-.46.12-.66.14-.21.02-.44-.08-.66-.07s-.46.01-.66-.02-.33-.28-.5-.41c-.18-.14-.25-.28-.33-.49s-.18-.37-.2-.6-.14-.44-.14-.65c0-.22-.13-.45-.13-.69,0-.23.28-.46.27-.7s0-.46,0-.69.04-.46.06-.69-.07-.48-.03-.7c.04-.24.39-.19.46-.4.07-.23.04-.48.16-.67s.16-.5.34-.65.51-.04.74-.13c.14-.06.35-.33.67-.33.22,0,.47.1.73.12.23.01.47.08.72.1s.5-.13.74-.11.47.36.7.38c.26.02.53-.26.75-.25.31.02.55.14.72.12.26-.03.52.15.75.12.25-.04.45-.29.67-.34s.48-.04.71-.11.47-.08.71-.17c.21-.08.4-.26.64-.36Z"/>
      </g>
      <path class="cls-1" d="M265.53,34.6c.21-.22.62-.24.81-.46s.44-.42.62-.65.18-.62.36-.85.46-.4.63-.64.44-.43.6-.68.22-.57.37-.82.09-.62.23-.89.38-.47.5-.74.37-.49.48-.76.09-.6.19-.88.05-.61.14-.89.15-.57.22-.85.59-.46.66-.76.09-.6.14-.89c.06-.3-.05-.62,0-.91s-.17-.62-.14-.91.21-.58.23-.87-.1-.59-.09-.89.34-.6.32-.9-.03-.6-.06-.9-.38-.55-.43-.84-.08-.58-.14-.87,0-.61-.07-.89-.23-.55-.33-.83-.12-.59-.23-.86-.45-.44-.57-.71-.19-.55-.34-.82-.33-.48-.48-.74c-.15-.25-.24-.52-.4-.76s-.4-.41-.58-.64-.28-.5-.47-.73-.31-.49-.51-.7-.2-.62-.41-.82-.7-.1-.92-.29-.22-.63-.45-.82-.45-.37-.69-.54-.49-.31-.73-.48-.58-.17-.83-.33-.51-.27-.76-.42-.33-.58-.59-.72-.66,0-.92-.13-.42-.46-.68-.59-.52-.26-.79-.38-.56-.18-.83-.29c-.26-.11-.54-.21-.83-.32-.27-.1-.64.09-.93,0-.27-.09-.44-.57-.73-.65s-.6-.02-.9-.09-.62.08-.91.01-.58-.09-.87-.15-.56-.17-.86-.23-.57-.11-.87-.17-.58-.1-.87-.15-.58-.11-.87-.16-.59.03-.89,0-.55-.32-.84-.35-.58-.11-.87-.14-.57-.22-.87-.25-.59-.08-.88-.11-.63.37-.92.34-.56-.43-.85-.46-.62.28-.91.26-.59.02-.89,0-.57-.47-.86-.48-.62.42-.91.4-.59-.01-.89-.03-.59-.18-.89-.19-.59.02-.89.01-.59.05-.88.04-.59-.15-.88-.15c-.44,0-.44-.25-.87-.25s-.44.34-.87.34-.44-.23-.87-.23-.44.31-.87.31-.44-.41-.87-.41-.44.31-.87.31-.44-.21-.87-.21-.44-.04-.87-.04-.44-.04-.87-.04-.44.42-.87.42-.44-.11-.87-.11-.44-.09-.87-.09-.44.02-.87.02-.44-.18-.87-.18-.44.17-.87.17-.44-.2-.87-.2-.44.13-.87.13-.44.02-.87.02-.44-.03-.88-.03-.44-.05-.87-.05-.44.2-.87.2-.44-.11-.88-.11-.44.09-.88.09-.44-.18-.87-.18-.44.3-.87.3-.44-.43-.88-.43-.44.16-.88.16-.44.11-.88.11-.44-.16-.88-.16c-.3,0-.61-.07-.88-.04-.3.03-.57.23-.84.29-.29.07-.55.2-.81.3-.28.11-.61.11-.85.26-.28.18-.43.52-.63.74s-.54.42-.67.71-.06.65-.12.97c-.06.32-.28.62-.26.9.02.31.2.61.32.88s.5.33.72.55c.2.2.24.61.52.77.24.14.5.4.8.51.45.12.55-.28,1.01-.17s.42.24.88.35.48.03.93.15c.26.1.53.2.74.31.25.13.55.21.73.36.21.18.38.46.5.67.12.2.09.52.14.78.04.23.06.48.04.75,0,.23-.24.45-.29.71-.08.43.31.5.23.93s-.16.42-.24.85-.04.44-.12.87-.15.42-.23.85.04.45-.04.88-.37.38-.45.81.22.49.14.92-.13.42-.21.85-.35.38-.43.81-.03.44-.11.87-.17.41-.25.84-.06.43-.14.86.17.48.09.91-.38.37-.46.8-.04.44-.12.87.13.47.05.9-.25.4-.33.83.11.46.03.89-.41.37-.49.8.06.45-.02.88.02.45-.06.88.04.45-.04.88-.04.44-.12.87-.25.4-.33.83-.18.41-.26.84-.21.41-.29.84.17.48.08.91-.1.43-.18.86-.04.44-.12.87-.06.43-.15.86-.08.43-.16.86-.19.41-.27.84-.12.42-.2.85-.05.44-.13.87.03.45-.05.88-.06.44-.14.87-.4.37-.48.81,0,.45-.08.88-.17.41-.25.85.08.46,0,.89.13.47.05.9-.44.36-.52.8.36.51.28.95-.39.38-.47.81-.09.43-.17.86,0,.45-.09.88.14.47.06.9-.5.35-.58.79.17.48.09.91.02.45-.06.88-.18.41-.26.85.05.46-.03.89-.07.43-.15.86-.24.4-.32.83-.15.42-.23.85-.24.4-.33.84.33.51.25.94-.07.43-.15.87-.29.39-.37.83-.1.43-.18.86-.13.42-.21.86,0,.45-.08.88.05.46-.03.89-.46.36-.54.8.36.52.28.96-.52.35-.6.79c-.05.28.12.59.04.84-.09.27-.15.55-.28.78-.14.24-.44.35-.63.54-.2.2-.41.37-.69.55-.24.15-.44.39-.74.52-.26.11-.52.33-.82.43-.49.12-.51.05-1,.15s-.49.13-.98.24-.47.21-.96.33c-.28.09-.66-.14-.91-.03-.27.12-.48.37-.71.51-.25.16-.48.33-.69.52-.22.2-.43.4-.59.62s-.13.56-.24.83-.33.47-.38.76c-.06.3.04.57.06.83.02.3.02.55.14.79s.4.31.62.5c.19.16.35.28.61.39.23.1.4.33.68.4.24.05.51-.05.79-.02.25.02.5-.01.78-.01.44,0,.44.42.88.42s.44-.21.88-.21.44.21.87.21.44-.07.87-.07.44-.31.87-.31.44.2.87.2.44-.07.88-.07.44-.15.88-.15.44.03.88.03.44.39.88.39.44-.44.88-.44.44.1.88.1.44.09.88.09.44.07.88.07.44-.16.88-.16.44-.11.88-.11.44.17.87.17.44.07.87.07.44-.19.87-.19.44.39.88.39.44-.16.88-.16.44-.17.88-.17.44-.05.88-.05.44-.07.88-.07.44.05.88.05.44.12.88.12.44.15.88.15.44.14.88.14.44-.18.88-.18.44-.03.88-.03c.3,0,.6-.02.87-.04.3-.03.59-.09.86-.15.3-.06.53-.26.79-.36.28-.11.47-.29.71-.45.27-.18.71-.14.91-.37s.24-.6.38-.89.26-.56.33-.88c.05-.26.24-.51.25-.74,0-.27-.17-.52-.22-.74-.06-.25-.32-.37-.47-.56-.15-.19-.13-.57-.36-.72-.2-.13-.56.01-.82-.09-.22-.09-.42-.24-.69-.32-.43-.09-.39-.29-.82-.37s-.42-.15-.86-.23-.48.17-.92.09-.43-.12-.86-.2-.42-.14-.86-.23c-.26-.06-.5-.1-.71-.19-.25-.11-.39-.3-.57-.45-.2-.16-.47-.24-.59-.45-.12-.22-.39-.45-.43-.73-.04-.24.16-.54.17-.83.01-.25-.17-.55-.11-.83.08-.43.17-.41.25-.84s.02-.44.1-.87.41-.37.49-.8.14-.42.22-.84-.34-.51-.26-.94.43-.36.51-.79.13-.42.21-.85-.24-.49-.16-.92.08-.43.16-.86.34-.38.42-.81,0-.44.08-.87-.08-.46,0-.89.06-.43.14-.86.42-.37.5-.79-.29-.5-.21-.93.28-.39.36-.82.14-.42.22-.84-.23-.49-.15-.91.49-.35.57-.78-.13-.47-.05-.9.07-.43.15-.86.15-.42.23-.85.01-.44.09-.87.21-.41.29-.84,0-.44.09-.87-.17-.48-.09-.9.15-.42.23-.85.1-.43.18-.86.36-.38.44-.82-.05-.42.17-.8c.27.1.41-.02.69.07s.47.42.75.51.6,0,.89.09.55.19.83.26.61-.06.9,0,.53.3.82.36c.28.06.59-.06.87-.01s.54.16.82.21.53.26.81.31.57.03.85.07.54.25.82.28.57-.03.86,0,.58-.08.86-.06.56.06.85.08.57-.06.85-.05.56.26.84.27.57-.29.86-.28.57.26.85.26.57-.14.85-.14.57-.07.85-.08.58.29.86.28.56-.33.84-.34.58.15.87.13.57-.03.86-.06.55-.27.83-.3.56-.07.85-.11.59.11.87.07.6.15.88.11.57-.09.85-.14.54-.23.82-.29.52-.3.8-.36.56-.1.84-.16.58-.01.86-.08.49-.37.76-.45.64.14.91.05.53-.2.8-.29.51-.26.78-.36c.27-.1.54-.17.81-.27s.44-.42.7-.53.66.08.91-.03.52-.25.77-.37.54-.2.79-.33.36-.55.61-.68.5-.26.75-.4.66,0,.9-.16.24-.67.48-.83.53-.22.76-.38.61-.13.83-.3.37-.45.59-.63.34-.47.55-.66.62-.16.83-.35.15-.66.36-.86.38-.41.58-.61ZM244.52,36.56c-.26.11-.63-.06-.89.03s-.54.13-.81.21-.47.4-.74.47-.58.01-.85.08-.57,0-.85.05-.53.21-.81.25-.52.3-.8.34-.57-.06-.85-.03-.57-.09-.85-.08-.55.17-.84.18-.56.17-.85.17-.6.02-.9.01-.57-.48-.87-.5-.59,0-.88-.02-.6.1-.9.06-.62.18-.92.13c-.31-.04-.6-.25-.9-.31s-.64,0-.95-.07-.52-.48-.83-.56-.59-.17-.89-.26-.69.11-.99.01c-.24-.08-.47-.19-.71-.28s-.42-.32-.65-.42-.53-.19-.76-.3c-.03-.43.16-.43.24-.86s-.16-.47-.08-.9.15-.42.23-.85.03-.44.11-.87.15-.42.24-.85,0-.45.07-.88.17-.41.25-.84.16-.41.24-.84.36-.38.44-.81-.32-.5-.24-.93.41-.37.49-.8.08-.43.16-.86.04-.44.12-.87-.1-.46-.02-.89.04-.44.12-.87.41-.37.49-.8-.23-.49-.15-.92.3-.39.38-.82.09-.43.17-.86.02-.44.1-.87.08-.43.16-.86-.21-.48-.13-.91.49-.35.57-.78-.06-.46.02-.89-.14-.47-.06-.9.04-.44.12-.87.13-.42.21-.85.09-.43.17-.86.08-.43.16-.86.1-.43.18-.86-.04-.45.05-.89.32-.39.4-.82.12-.43.2-.86-.09-.44.25-.73c.32-.27.29.06.71.06s.42-.42.84-.42.42.38.84.38.42-.32.84-.32.42-.06.84-.06c.29,0,.58.44.89.44.29,0,.6-.43.91-.42s.6.01.9.03.58.2.89.22.59,0,.89.04.6,0,.9.02.58.2.88.24.56.32.86.36.64-.26.94-.22.56.31.85.36.65-.2.94-.15.51.51.8.58c.3.07.66-.17.94-.09.3.08.53.36.81.44.3.09.56.23.83.33.3.11.54.27.78.39.26.13.71-.1.96.05s.45.39.69.55.43.4.66.57.47.34.69.52.31.51.51.71.53.29.72.5.22.56.4.78.45.38.61.61.33.47.47.72.25.52.37.78c.13.27.2.55.31.82s.39.49.48.77.06.6.12.88.21.56.25.85-.1.6-.07.9.34.57.35.87-.42.58-.43.88.13.59.11.88.05.59,0,.89-.24.55-.3.85c-.06.3-.2.57-.26.86s0,.62-.07.91-.12.6-.21.88-.34.52-.44.8-.07.62-.19.9-.4.48-.54.74-.12.62-.27.88-.48.41-.64.66-.26.55-.44.79-.15.65-.35.88c-.19.22-.61.23-.8.44s-.48.32-.69.52-.14.69-.35.88-.52.28-.75.46-.41.41-.64.58-.47.34-.71.5-.44.4-.68.54-.54.23-.79.36-.58.13-.84.25-.45.41-.72.52Z"/>
      <path class="cls-1" d="M352.17,40.31c.05-.29.26-.54.3-.81s.22-.55.25-.83c.03-.29-.03-.58-.02-.86.01-.29.19-.58.18-.86,0-.29-.13-.58-.16-.86-.03-.29.01-.59-.04-.87-.05-.29-.29-.53-.37-.79-.08-.28-.21-.53-.32-.79s-.08-.61-.22-.85-.49-.35-.67-.57c-.19-.23-.37-.45-.59-.65s-.5-.29-.75-.46-.44-.37-.7-.51-.53-.2-.82-.31-.54-.17-.84-.25c-.28-.08-.5-.4-.8-.45-.28-.05-.56-.25-.87-.29s-.6-.07-.9-.08-.6.05-.91.05-.59.4-.89.41-.6-.07-.9-.03-.64-.2-.93-.15-.52.45-.82.52-.6.05-.89.14-.54.26-.82.36-.65-.02-.93.09-.51.33-.78.46-.54.26-.81.4-.48.36-.74.52c-.25.15-.5.27-.74.43s-.61.14-.84.31-.51.29-.74.47-.45.38-.66.57-.47.35-.68.55-.18.64-.38.85-.28.51-.48.73-.43.38-.62.6-.49.35-.66.58-.42.41-.59.65-.07.65-.23.9-.55.33-.71.58c-.18.28-.41.61-.58.91-.05-.46-.04-.49.01-.96s.27-.44.32-.9.23-.44.28-.9-.35-.5-.3-.97.04-.46.09-.93.49-.42.54-.88-.18-.49-.13-.95c.02-.28.24-.54.24-.79,0-.28-.14-.55-.16-.79-.02-.29-.05-.57-.11-.79-.07-.29-.09-.63-.23-.82-.21-.29-.72-.24-1.07-.37-.3-.12-.6-.11-1-.11-.22,0-.48-.28-.75-.25-.23.02-.49,0-.75.04-.23.04-.44.32-.69.37-.27.05-.6-.01-.92.07-.28.07-.6.03-.92.12-.28.08-.55.27-.85.37-.28.09-.51.39-.81.49-.41.13-.45.01-.86.14s-.46,0-.87.13-.37.26-.78.39-.37.28-.78.41-.41.15-.82.28-.55-.3-.96-.18-.4.17-.82.3-.37.28-.78.41-.34.37-.76.5-.46-.02-.88.11-.38.25-.8.38-.52-.2-.94-.07c-.29.09-.57.18-.83.28-.29.11-.43.51-.68.62-.28.13-.53.24-.76.38-.27.16-.57.21-.77.38-.2.18-.33.41-.48.6-.16.21-.36.38-.47.61s.05.53,0,.78c-.06.31-.14.53-.1.79.04.3.15.47.3.7.16.24.3.49.61.71.24.17.5.23.84.39.4.08.37.12.78.16s.4.12.81.16.37.29.77.35c.32.1.73-.15.96.01.26.19.22.62.35.89.1.21.14.43.16.77.01.25.04.51,0,.83-.03.26.11.57.06.88-.08.43-.04.44-.12.87s-.41.37-.49.8.23.49.15.92-.3.39-.38.82-.09.43-.17.86-.02.44-.1.87-.08.43-.16.86.21.48.13.92-.49.36-.57.79.06.46-.02.89.14.47.06.9-.04.44-.12.87-.13.42-.21.85-.09.43-.17.86-.08.43-.16.86-.1.43-.18.86.04.45-.05.89-.32.39-.4.82-.12.42-.2.86-.23.4-.31.84-.1.43-.18.86.33.51.25.94-.46.36-.54.79.24.49.16.93-.02.44-.1.88-.51.35-.59.79.36.52.28.95c-.05.27-.1.54-.15.78-.06.27-.29.49-.36.72-.08.27-.15.54-.24.75-.12.27-.21.55-.34.73-.15.2-.45.31-.65.48-.19.16-.53.08-.76.21-.22.11-.31.53-.57.62-.44.13-.5-.09-.95.03s-.36.4-.79.54c-.25.12-.65-.12-.87.01-.24.14-.29.55-.49.7-.22.17-.56.18-.73.36-.25.25-.51.55-.67.88-.15.31-.31.67-.38,1.04-.05.29.34.59.35.84.01.29-.05.52.05.75.11.25.17.5.37.69.22.2.48.35.79.47.27.11.53.37.87.41.29.04.62-.1.96-.1.43,0,.43.2.86.2s.43-.13.86-.13.43-.02.86-.02.43.03.86.03.43.05.86.05.43-.2.86-.2.43.11.86.11.43-.09.86-.09.43.18.86.18.43-.3.86-.3.43.43.86.43.43-.16.86-.16.43-.11.86-.11.43.16.86.16.43.08.86.08.43-.15.86-.15.43-.05.86-.05.43.15.86.15.43-.16.86-.16.43.17.86.17.43-.18.86-.18.43.2.86.2.43-.1.86-.1.43-.28.86-.28.43.31.87.31.43.13.87.13.43-.4.87-.4.43.13.87.13c.28,0,.54-.08.79-.11.28-.03.52-.08.77-.15.27-.07.46-.24.69-.35.25-.11.48-.17.68-.33.25-.19.54-.27.72-.5s.35-.47.47-.75.41-.5.47-.8c.05-.26-.33-.53-.33-.77,0-.26.05-.47-.02-.7s-.19-.4-.33-.61c-.15-.23-.27-.42-.52-.59-.22-.14-.49-.12-.78-.21-.25-.08-.45-.41-.76-.45-.48-.06-.52.24-1.01.18s-.48-.11-.96-.17-.45-.33-.94-.39-.49-.01-.98-.07c-.32-.04-.57-.19-.82-.28-.31-.1-.54-.19-.76-.36-.24-.18-.63-.26-.75-.53-.13-.27.08-.68.04-1.05-.03-.3-.08-.61-.05-.97.02-.31-.14-.67-.07-1.02.08-.43.25-.4.33-.82s-.11-.46-.03-.89.41-.37.49-.79-.06-.45.02-.88-.02-.44.06-.87-.04-.45.04-.87.04-.43.12-.86.25-.39.33-.82.18-.41.26-.84.21-.4.29-.83-.17-.47-.09-.9.1-.42.18-.85.04-.43.12-.86.06-.43.14-.86.08-.43.16-.85.19-.41.27-.84.12-.42.2-.85.05-.44.13-.87-.03-.45.05-.88h-.02c.06-.31.44-.55.5-.84s.05-.62.13-.91.24-.57.32-.86.02-.64.11-.92,0-.66.1-.94.56-.44.68-.72-.16-.75-.03-1.02.55-.41.7-.67c.15-.27.31-.53.47-.78s.27-.56.44-.81.19-.64.38-.87c.2-.24.72-.19.92-.41s.25-.61.48-.81.41-.48.66-.66c.24-.17.54-.25.79-.39.26-.15.46-.4.72-.51s.56-.23.83-.31.61.01.89-.03.57,0,.86,0,.5.18.74.22c.28.05.64-.27.86-.17.25.12.52.31.69.5.17.19.12.57.2.85.06.24.06.5.05.8,0,.25-.08.5-.14.79-.08.45,0,.47-.09.92s.05.48-.04.93c-.06.31-.48.56-.5.84-.02.31.43.61.45.89.03.31-.36.68-.28.96.08.29.44.49.58.75s.37.45.58.67c.19.2.3.52.54.69.23.15.5.29.77.41.25.11.56.09.85.17.26.07.56.01.85.06.27.04.54.13.84.15.28.02.56,0,.86,0s.57-.13.85-.16.63.27.92.21.54-.26.82-.35.55-.2.81-.33.53-.24.78-.39.37-.47.61-.65.54-.24.76-.44c.21-.19.31-.47.5-.69s.41-.38.57-.62.16-.55.3-.8.28-.46.4-.72.39-.43.5-.7.07-.57.16-.84.13-.53.2-.81.55-.44.62-.72-.26-.63-.21-.91Z"/>
      <path class="cls-1" d="M435.28,72.43c-.39-.15-.38-.12-.78-.24s-.34-.31-.73-.45c-.32-.13-.66-.22-.86-.41-.23-.22-.47-.54-.53-.85-.05-.24.24-.61.22-1.01-.01-.29-.08-.6-.07-.97,0-.3-.09-.63-.08-.99.06-.43.27-.39.34-.81s-.07-.45.01-.87.19-.4.27-.82.08-.42.15-.84.01-.43.09-.85-.21-.47-.13-.9.32-.38.4-.8.23-.4.3-.82-.13-.46-.06-.88-.07-.45,0-.87.1-.42.18-.84.42-.36.5-.78-.31-.49-.23-.92.23-.39.3-.82-.06-.45.02-.87.46-.35.53-.78.05-.43.13-.85-.17-.47-.09-.89-.09-.45,0-.87.32-.38.4-.8.05-.43.13-.85.26-.39.34-.81-.08-.45,0-.88.13-.41.2-.84.12-.41.2-.84.18-.4.26-.83-.26-.49-.18-.91.29-.39.37-.81-.17-.47-.1-.9.28-.39.35-.82c.02-.3-.04-.6-.04-.9s-.1-.6-.11-.89.22-.61.2-.9-.25-.58-.29-.87.16-.63.11-.92-.5-.5-.57-.79.24-.69.15-.96-.16-.59-.27-.86-.55-.41-.68-.67-.07-.64-.22-.89-.59-.31-.76-.55c-.18-.24-.26-.55-.47-.76s-.25-.64-.49-.83-.63-.16-.89-.33-.53-.25-.81-.39-.56-.17-.85-.28-.55-.18-.85-.26-.5-.47-.81-.53-.61.01-.92-.03-.59-.08-.9-.11-.59-.25-.9-.26-.61.27-.92.27-.59.11-.88.12-.59.03-.88.05-.6-.07-.9-.03-.59.06-.88.11-.54.28-.84.35-.56.19-.85.26-.68-.27-.97-.18-.53.3-.82.39-.56.21-.84.31-.46.44-.74.55-.61.07-.88.19-.6.1-.88.23c-.27.12-.51.32-.78.46s-.62.11-.89.25-.48.37-.75.52-.57.22-.84.37-.44.45-.7.61-.5.34-.76.5-.61.16-.87.32-.39.51-.65.68-.51.32-.77.49-.43.43-.69.6-.54.28-.79.46-.73.28-.98.46c-.06-.43.05-.48.13-.91s.33-.38.41-.8.23-.4.31-.82.09-.43.17-.85,0-.44.09-.87c.06-.31-.3-.63-.3-.91,0-.31.07-.57,0-.84-.08-.29.03-.68-.15-.91-.18-.24-.63-.17-.9-.32-.25-.13-.46-.3-.78-.36-.28-.05-.56.02-.89.02-.28,0-.57-.23-.86-.21-.28.02-.55.16-.84.2-.28.04-.56.08-.85.14-.24.05-.48.19-.78.26-.25.06-.51.1-.8.18-.25.07-.57-.08-.85,0-.25.07-.54.08-.81.16-.25.08-.52.17-.79.25-.43.14-.45.08-.89.22s-.33.45-.77.59-.39.27-.82.41-.46.06-.89.2-.48-.02-.92.12-.46.05-.89.19-.34.44-.77.58-.52-.13-.95,0-.39.29-.82.43-.41.22-.85.36-.5-.08-.94.06c-.29.1-.63.03-.88.13-.29.11-.39.59-.64.7-.28.13-.52.26-.74.4-.27.16-.77-.03-.96.14-.2.17-.23.53-.38.72-.16.2-.48.33-.59.56s-.06.55-.11.8c-.06.31-.09.61-.06.87.04.3.04.67.2.9.16.24.67.23.98.45.24.17.49.26.82.42.4.08.36.32.76.36s.4.1.81.13.44-.23.84-.17c.32.1.56.36.79.52.26.19.34.46.47.72.1.21.25.42.27.76.01.25.22.55.19.87-.03.26-.19.54-.25.85-.08.43-.22.4-.3.83s.06.46-.02.89.07.46,0,.89-.06.44-.14.87-.53.35-.61.78-.04.44-.12.87.07.46,0,.89.17.48.09.91-.24.4-.32.83.04.45-.04.88-.42.37-.5.8-.08.43-.16.86.23.49.15.92-.1.43-.18.86-.22.4-.3.83-.01.44-.09.87-.16.42-.24.85.16.48.08.91-.15.42-.23.85-.03.44-.11.87-.15.42-.24.85,0,.45-.07.88-.17.41-.25.84-.16.42-.24.85-.36.38-.44.82.32.51.24.94-.41.37-.49.81c-.05.27-.11.52-.16.77-.06.27-.09.53-.17.76-.09.27,0,.58-.1.8-.12.27-.22.53-.35.72-.15.21-.56.15-.76.32s-.22.55-.46.67c-.22.11-.53,0-.79.07-.44.13-.44.11-.89.23s-.44.16-.87.31c-.25.12-.5.26-.72.39-.24.14-.29.53-.49.68-.22.17-.69.03-.87.21-.25.25-.37.66-.53.99-.15.31-.04.71-.11,1.08-.05.29-.03.53-.02.78.01.29,0,.51.11.75.11.25.22.43.43.62.22.2.44.34.75.47.27.11.54.2.87.25.29.04.59-.06.92-.06.43,0,.43.24.87.24s.43.04.87.04.43.15.87.15.43.02.87.02.43-.42.87-.42.43.38.87.38.43-.32.87-.32.43-.06.87-.06.43.43.87.43.43-.45.87-.45.43-.01.86-.01.43.16.87.16.43-.03.87-.03.43-.06.87-.06.43.14.87.14.44.25.87.25.43-.34.87-.34.43.23.87.23.43-.31.87-.31.44.41.87.41.44-.31.87-.31.44.21.88.21.44.04.88.04c.33,0,.67.02.96-.02.33-.05.52-.53.8-.62.31-.11.59-.13.83-.31s.52-.31.71-.56.31-.51.43-.81c.11-.27.37-.53.43-.85.06-.3-.1-.6-.13-.87-.03-.29.07-.64-.06-.89s-.42-.41-.63-.62c-.19-.18-.44-.34-.7-.5-.4-.16-.4-.17-.81-.3s-.39-.18-.8-.32c-.35-.14-.74-.15-.96-.37-.24-.24-.34-.61-.43-.94-.06-.21-.18-.47-.18-.78,0-.24.18-.5.21-.79.02-.24-.25-.54-.21-.82.04-.25.5-.44.55-.71.08-.43-.08-.45,0-.88s-.02-.44.06-.87.24-.4.32-.82.16-.41.24-.84-.07-.45,0-.88.03-.44.11-.86.23-.4.31-.82-.08-.46,0-.88.24-.39.32-.82-.1-.46-.02-.89.28-.39.36-.82-.01-.44.06-.87-.19-.48-.11-.9.38-.37.46-.8.21-.4.29-.83-.32-.5-.24-.92.21-.4.29-.83,0-.44.09-.87.07-.43.15-.85-.02-.44.06-.87.14-.42.22-.84.22-.4.3-.83.08-.43.16-.85.28-.39.36-.81-.31-.5-.23-.93.16-.41.24-.84.04-.44.12-.87.07-.46.23-.87c.24-.17.45-.5.68-.66s.65-.09.89-.25.34-.58.58-.73.54-.27.79-.41c.26-.15.65-.05.9-.19s.5-.31.76-.43c.27-.13.57-.15.84-.26.26-.11.51-.22.77-.31s.46-.42.72-.5.62.15.89.09.54-.15.81-.19.53-.28.8-.31.57.14.84.14c.31,0,.61-.18.89-.15.31.03.55.39.83.45.3.06.6,0,.87.09.29.1.59.14.84.28.26.15.58.24.79.43s.46.42.63.66c.16.23.16.58.29.85.12.25.13.55.22.83.08.26.02.56.08.85.06.27.35.51.38.8.03.27.04.56.06.86.02.28.06.57.06.87,0,.28,0,.58,0,.88-.07.43-.08.43-.17.86s-.19.41-.28.83-.12.42-.21.85-.05.43-.14.86.03.45-.06.88-.06.43-.15.86-.41.36-.49.79,0,.44-.09.87-.18.41-.26.84.07.46-.01.89.12.47.04.9-.45.35-.53.78.35.51.27.94-.39.37-.48.8-.1.43-.18.85-.01.44-.1.87.13.47.05.9-.5.34-.59.77.16.48.08.91.02.45-.07.88-.18.41-.27.84.04.46-.04.89-.08.43-.16.86-.26.4-.33.83c-.02.27-.11.52-.14.76-.04.27-.25.48-.3.71-.07.27.24.64.15.86-.11.25-.26.53-.41.71-.17.2-.52.25-.74.42s-.44.29-.68.42c-.23.12-.48.18-.75.27-.47.14-.45.22-.93.35s-.44.24-.91.4c-.31.15-.78-.03-1.03.15-.28.19-.24.75-.45.98-.23.25-.78.26-.92.55s-.03.7-.09,1.03c-.06.3-.02.58-.02.84,0,.31-.12.62-.03.87.1.27.28.55.49.74.19.18.51.24.79.35.24.09.53.05.83.09.26.04.52.12.83.12.44,0,.44-.03.87-.03s.44-.12.87-.12.44.35.87.35.44-.12.87-.12.44,0,.87,0,.44.02.87.02.44-.2.87-.2.44.15.87.15.44-.12.87-.12.44.07.87.07.43-.18.87-.18.44.01.87.01.44.17.87.17.44-.14.87-.14.44-.04.87-.04.44.42.88.42.44-.21.87-.21.44.21.87.21.44-.07.87-.07.44-.31.88-.31.44.2.88.2.44-.07.88-.07.44-.15.88-.15c.27,0,.51.02.75,0,.27-.03.59.31.83.25.26-.06.36-.56.59-.66.24-.1.49-.12.69-.27.26-.18.53-.3.72-.53s.41-.46.54-.74c.12-.27.05-.6.11-.91.07-.35-.03-.63-.06-.93-.04-.34.03-.65-.14-.91-.17-.26-.34-.56-.61-.8-.24-.21-.61-.17-.92-.36Z"/>
      <path class="cls-1" d="M485.46,62.19c-.15-.22-.4-.37-.63-.48-.21-.09-.48-.19-.76-.19-.23,0-.46.19-.71.26-.22.06-.41.22-.65.33-.2.09-.56-.03-.8.12-.2.12-.36.34-.58.5-.19.14-.35.35-.56.52-.19.21-.33.49-.54.7s-.48.34-.7.53-.35.49-.57.67-.68.07-.92.24-.21.69-.46.86-.69.01-.94.17-.4.45-.65.6-.5.3-.76.44-.48.33-.75.46c-.26.13-.51.28-.78.4s-.57.16-.84.26-.62-.01-.89.08-.47.44-.75.52-.64-.17-.92-.11-.5.47-.78.52-.58.09-.87.13-.58.11-.87.14-.59-.07-.88-.06-.58.01-.88.01-.6.06-.89.05-.58-.21-.87-.24-.58-.11-.87-.15-.56-.2-.84-.25-.58-.06-.86-.13-.66.16-.93.07-.5-.37-.77-.47-.49-.32-.76-.45-.68.03-.93-.12-.44-.42-.68-.59-.61-.18-.84-.36-.46-.39-.68-.59-.28-.56-.48-.78-.48-.37-.66-.6c-.19-.24-.41-.46-.58-.72s-.03-.68-.18-.95-.32-.51-.44-.79-.32-.52-.42-.81,0-.62-.08-.92-.28-.54-.34-.84,0-.6-.03-.91-.07-.59-.1-.89-.11-.59-.12-.9-.3-.6-.3-.91.23-.55.24-.86c.42-.14.43.15.87.15s.44-.21.89-.21.44-.15.88-.15.44.03.88.03.44.35.88.35.44-.39.89-.39.44.15.89.15.44-.14.89-.14.44.39.89.39.44-.03.89-.03.44-.25.89-.25.44-.17.89-.17.44.25.89.25.44-.03.89-.03.44.19.89.19.44-.16.89-.16.44.05.88.05.44.05.88.05.44.11.89.11.44-.34.89-.34.44.22.89.22.44-.26.89-.26.45.19.89.19.44-.06.89-.06.44-.1.89-.1.44.24.89.24.45-.2.89-.2.45.25.89.25.45-.4.89-.4.45.41.89.41c.32,0,.64.03.95,0s.6-.4.9-.44.66.13.96.07.52-.46.81-.56.63-.08.91-.2.7-.02.97-.18.39-.54.64-.73c.24-.19.43-.41.64-.62s.35-.47.53-.71.34-.47.5-.73.59-.36.72-.63.13-.6.24-.89.2-.56.28-.86.34-.54.4-.85c.05-.28-.19-.61-.15-.89s-.03-.57,0-.85.05-.56.07-.84.14-.56.14-.84,0-.57-.01-.85-.23-.54-.26-.82-.14-.54-.19-.82.31-.65.24-.92-.28-.52-.37-.79-.21-.53-.31-.79-.45-.41-.57-.67c-.12-.25-.11-.57-.24-.81s-.16-.56-.31-.8-.38-.42-.54-.65-.21-.56-.39-.77-.45-.35-.65-.56-.34-.46-.55-.65-.53-.24-.75-.42-.46-.32-.68-.48-.35-.48-.58-.63-.59-.11-.83-.25-.47-.29-.72-.42c-.26-.14-.56-.16-.83-.28s-.5-.3-.77-.41-.56-.16-.83-.25-.55-.16-.84-.24-.49-.41-.77-.48-.54-.29-.83-.35-.58-.13-.87-.18-.59-.03-.88-.07-.62.31-.92.28-.56-.17-.86-.19-.56-.32-.86-.34-.6.32-.9.32-.58-.1-.88-.1-.57.1-.85.1-.58-.23-.86-.22-.57.13-.85.15-.57.04-.85.06-.56.14-.84.17-.57.04-.85.07-.6-.15-.88-.1-.58.02-.86.07-.57.11-.84.17-.58.06-.85.13-.48.46-.75.53-.51.29-.78.37-.57.09-.84.18-.59.03-.86.12-.57.12-.83.22-.41.51-.67.62-.63-.03-.89.09-.44.39-.7.51c-.26.13-.48.34-.74.48s-.62.08-.87.23-.6.14-.85.29-.29.64-.53.8-.48.32-.72.49-.74-.03-.97.15-.33.54-.56.72-.59.21-.81.39-.36.49-.58.68-.45.38-.66.58-.51.32-.72.52-.14.68-.34.89-.35.46-.54.68-.6.25-.79.48-.42.42-.6.65-.16.61-.34.84c-.17.24-.45.39-.62.63s-.44.42-.59.66-.23.55-.38.8-.11.61-.25.87-.39.45-.53.71-.4.46-.52.72-.13.59-.25.85-.1.59-.21.86-.2.54-.31.82-.64.39-.73.66-.16.57-.25.85-.03.61-.12.89.08.63,0,.91-.3.52-.37.81-.01.59-.08.88-.45.51-.51.79c-.05.28-.1.57-.15.85s.23.61.19.89-.09.56-.12.84-.2.56-.22.84.03.57.02.86-.1.57-.1.85.24.57.25.85-.05.57-.03.85.09.56.12.84,0,.57.03.85.18.54.23.82.02.57.09.85.06.57.13.84-.1.63-.01.9.57.4.68.66c.11.28-.09.68.03.94s.25.54.38.8.31.51.46.76.46.41.62.65.36.46.54.7.09.68.28.91.62.24.82.46.24.59.46.79.42.42.65.61.49.34.72.52.47.36.71.53.65.09.9.25.28.66.54.81c.24.14.57.15.82.28s.6.05.86.17.52.19.79.3.5.26.77.36.52.19.79.28.53.17.81.25.53.17.81.24.57.01.85.07.5.35.78.4.55.13.83.17.54.23.82.26.56.08.85.11.6-.37.88-.35.54.42.82.43.58-.3.86-.3.56-.05.85-.05.59.43.89.42.57-.47.87-.48.58-.04.88-.06.6.12.89.09.58-.09.87-.13.57-.13.86-.17.6.05.89,0,.63.14.91.08.51-.46.79-.53.63.08.91,0,.48-.45.76-.54.69.21.96.12.45-.48.73-.59.62-.02.89-.13c.27-.11.56-.19.83-.31s.56-.21.82-.33.34-.63.6-.77.57-.18.82-.32.56-.21.81-.35.49-.32.74-.48.6-.17.84-.33.39-.48.62-.65.59-.2.82-.38.37-.47.59-.67.42-.41.64-.61.45-.38.65-.59c.21-.21.45-.4.65-.61s.24-.58.43-.8.46-.39.64-.63.28-.53.45-.77.48-.4.63-.65.04-.66.18-.92.66-.33.78-.6.1-.61.21-.89.11-.59.2-.87.33-.53.41-.81c.07-.36.18-.72.17-1-.02-.38-.2-.74-.36-.98ZM456.04,43.95c.16-.24.28-.49.44-.72s.37-.43.54-.65.23-.55.42-.76.32-.49.52-.69.6-.2.81-.38.37-.43.59-.61.4-.4.64-.56.42-.39.67-.54c.26-.15.57-.22.83-.35s.49-.38.76-.5.68.14.97.05.45-.58.74-.65.65.24.95.2.56-.25.86-.27.59-.04.89-.04c.28,0,.56-.06.83-.03.28.02.57.02.83.07.28.05.54.18.8.26s.44.38.69.48.62-.02.86.12.27.56.48.73.65.09.85.29.37.42.54.65c.17.23.37.46.51.71s.16.56.26.83.18.53.25.81.19.54.23.83-.11.58-.09.87-.03.55-.04.84c0,.28-.13.54-.16.83s0,.55-.04.84.23.61.18.89c-.06.31-.33.56-.43.82-.12.29-.34.48-.51.71-.18.25-.16.68-.4.86s-.58.21-.88.31c-.27.1-.53.38-.84.43-.28.04-.61.06-.93.06-.43,0-.43-.21-.86-.21s-.43.11-.86.11-.43.06-.86.06-.43-.33-.86-.33-.43.05-.86.05-.43.1-.85.1-.43-.19-.85-.19-.43.15-.85.15-.43-.12-.86-.12-.43,0-.86,0-.43.07-.86.07-.43.29-.86.29-.43-.25-.86-.25-.43-.15-.86-.15-.43.21-.86.21-.43.15-.86.15-.43-.03-.86-.03-.43-.35-.86-.35-.52.53-.93.38c.07-.29.17-.76.24-1.05s.02-.62.11-.9.54-.45.64-.73.17-.57.27-.84-.01-.65.11-.91.1-.62.23-.88.49-.42.64-.67.37-.47.53-.71Z"/>
      <path class="cls-1" d="M532.99,47.3c.21-.19.21-.6.4-.81s.43-.37.6-.61.12-.58.27-.83.24-.49.37-.75.29-.47.39-.74.58-.39.67-.66.03-.59.11-.86.12-.55.19-.84-.11-.6-.05-.88c.05-.29.23-.54.27-.82s.05-.57.08-.85c.03-.29.12-.57.13-.84.01-.29-.02-.57-.03-.85,0-.29-.2-.56-.23-.83-.03-.29-.08-.55-.13-.82-.05-.29.15-.62.07-.88-.08-.28-.02-.62-.13-.88s-.62-.32-.77-.56-.04-.65-.22-.87c-.19-.23-.32-.54-.54-.75s-.55-.29-.8-.46-.49-.34-.76-.48-.64,0-.92-.11-.51-.26-.81-.34c-.28-.08-.54-.26-.84-.31-.28-.05-.6.11-.9.08s-.55-.42-.86-.43-.6.02-.9.02-.61-.09-.91-.08-.58.35-.88.38-.64-.18-.93-.13-.55.33-.84.39-.59.11-.88.19-.61.07-.9.17-.57.21-.85.32-.56.24-.83.36-.51.33-.78.47-.44.44-.7.59c-.25.15-.59.14-.83.3s-.53.26-.76.43-.34.51-.56.69-.39.42-.61.61-.67.13-.88.33-.38.45-.58.66-.42.41-.61.63-.38.44-.57.66-.21.57-.39.81-.21.56-.38.8-.69.23-.85.47.06.73-.09.98c-.18.28-.74.48-.91.77-.05-.46.3-.48.35-.94s.13-.45.18-.91.03-.46.08-.92,0-.47.06-.93.09-.46.14-.92-.11-.48-.06-.95-.03-.47.01-.94c.02-.28.31-.53.32-.77,0-.28-.09-.55-.11-.79-.02-.29-.14-.54-.19-.77-.07-.29-.25-.47-.38-.65-.21-.29-.41-.56-.76-.7-.3-.12-.65-.04-1.05-.04-.22,0-.5-.36-.77-.34-.23.02-.42.48-.69.52-.23.04-.55-.29-.8-.24-.27.05-.54.29-.86.37-.28.07-.57.16-.88.25-.28.08-.55.23-.86.33-.28.09-.56.21-.87.31-.41.13-.43.06-.85.19s-.48-.08-.89.05-.33.4-.74.53-.51-.18-.92-.05-.31.47-.72.6-.42.13-.83.26-.4.17-.81.3-.45.02-.86.15-.42.12-.83.25-.4.19-.81.32-.47-.05-.89.09-.43.08-.85.21c-.29.09-.61.08-.87.17-.29.11-.54.27-.79.39-.28.13-.39.54-.62.68-.27.16-.61.17-.8.34-.2.18-.48.3-.63.49-.16.21-.02.6-.13.82s-.31.41-.36.67c-.06.31.14.56.17.82.04.3.1.46.25.7.16.24.22.59.53.81.24.17.55.23.88.39.4.08.4-.02.8.02s.38.37.78.4.41-.04.81.02c.32.1.62.13.84.29.26.19.29.5.42.77.1.21.29.41.31.75.01.25-.11.52-.15.84-.03.26-.07.53-.12.84-.08.43-.01.44-.1.87s.2.48.12.91-.33.38-.41.81-.23.4-.31.83.13.47.05.9.07.46-.01.89-.11.43-.19.86-.42.37-.5.8.31.5.23.93-.23.4-.31.83.05.46-.03.89-.46.36-.54.79-.05.44-.13.87.16.48.08.91.08.46,0,.89-.33.38-.41.81-.06.44-.14.87-.27.4-.35.83.08.46,0,.89-.13.42-.21.86-.13.42-.21.85-.19.41-.27.84.26.49.18.92-.3.39-.38.83.17.48.09.91-.27.4-.35.83-.02.45-.1.88c-.05.27,0,.55-.06.79-.06.27-.36.46-.44.69-.08.27.02.59-.08.8-.12.27-.45.36-.59.54-.15.2-.05.67-.25.83-.19.16-.64-.04-.87.09-.22.11-.43.17-.69.26-.44.13-.35.46-.79.58s-.52-.12-.95.02c-.25.12-.34.54-.55.67-.24.14-.52.16-.72.32-.22.17-.61.13-.79.31-.25.25-.27.7-.43,1.03-.15.31-.21.64-.28,1.01-.05.29,0,.54.01.79.01.29.07.49.17.73.11.25,0,.65.2.84.22.2.57.29.89.41.27.11.57.2.91.24.29.04.61.27.95.27.43,0,.43-.29.86-.29s.43-.1.86-.1.43,0,.86,0,.43.13.86.13.43.02.86.02.43-.18.86-.18.43-.06.86-.06.43.43.86.43.43-.13.86-.13.43-.02.86-.02.43-.25.86-.25.43.16.86.16.43.15.86.15.43-.08.86-.08.43.17.86.17.43-.11.86-.11.43.08.86.08.43-.17.86-.17.43-.04.86-.04.43.19.86.19.43-.22.86-.22.43.01.86.01.43-.11.86-.11.43.07.86.07.43-.06.87-.06.43-.03.87-.03.43.26.87.26.43.15.87.15c.28,0,.57,0,.83-.03.28-.03.56-.15.8-.21.27-.07.39-.52.62-.62.25-.11.5-.13.71-.29.25-.19.65-.19.84-.41s.05-.66.17-.93.28-.48.34-.79c.05-.26-.02-.48-.03-.71,0-.26.2-.51.14-.74s-.27-.41-.4-.62c-.15-.23-.33-.4-.59-.56-.22-.14-.49-.16-.78-.25-.25-.08-.5-.16-.8-.2-.48-.06-.45-.29-.94-.35s-.47-.14-.96-.2-.49-.06-.97-.12-.48-.12-.96-.18c-.32-.04-.66.22-.92.14-.31-.1-.68-.13-.89-.3-.24-.18-.42-.53-.55-.8-.13-.27-.07-.66-.11-1.03-.03-.3.05-.63.08-.99.02-.31-.25-.69-.18-1.04.08-.43.36-.38.44-.8s-.08-.46,0-.88,0-.44.07-.87.3-.39.38-.81.26-.39.34-.82-.31-.5-.23-.92.07-.43.15-.85.52-.34.6-.77-.15-.47-.07-.9.28-.39.36-.82-.06-.45.02-.88.1-.42.18-.85.2-.4.28-.83-.29-.5-.21-.92.02-.44.1-.86.36-.38.44-.8.14-.42.22-.85-.16-.47-.08-.91.22-.41.3-.84c.06-.31.24-.58.31-.87s.03-.62.1-.92-.06-.66.02-.95.29-.56.39-.85.33-.54.43-.82.09-.63.21-.91.11-.63.24-.91.26-.57.4-.84c.15-.27.7-.31.86-.56s.29-.54.47-.78.24-.59.43-.82c.2-.24.22-.65.42-.86s.55-.33.78-.53.41-.5.65-.67c.24-.17.67-.04.91-.18.26-.15.5-.27.76-.38s.43-.51.7-.59.58-.13.87-.17.59.08.88.08.55-.05.78,0c.28.05.51.2.72.3.25.12.63.11.79.29.17.19.27.54.34.82.06.24.14.55.13.84,0,.25-.12.53-.17.82-.08.45,0,.47-.08.92s-.17.43-.26.89c-.06.31-.18.58-.2.86-.02.31-.3.63-.27.91.03.31.48.53.56.81.08.29-.11.69.04.95s.34.53.55.75c.19.2.46.38.71.54.23.15.57.13.85.24.25.11.52.15.81.23.26.07.48.46.78.5.27.04.6-.24.89-.22.28.02.56.25.86.25s.6,0,.89-.03.59-.14.87-.2.58-.14.85-.23.43-.47.7-.59.71.1.96-.05.42-.44.66-.62.56-.25.78-.45Z"/>
      <path class="cls-1" d="M578.25,32.53c0-.31-.27-.56-.31-.82-.04-.31.15-.65.07-.89-.1-.3-.5-.38-.67-.57-.22-.25-.43-.33-.74-.45-.28-.11-.52-.59-.88-.59s-.76.11-1.07.22c-.32.12-.43.59-.68.83-.24.23-.71.22-.94.44s-.34.59-.55.83c-.21.22-.41.45-.64.56-.25.12-.56.14-.85.14-.27,0-.66.08-.99-.07-.26-.11-.39-.55-.68-.74-.21-.14-.59-.06-.87-.21-.24-.12-.44-.36-.72-.48-.25-.11-.59,0-.88-.1-.26-.1-.38-.61-.66-.71-.26-.09-.62.11-.92.04-.27-.06-.5-.41-.8-.46-.27-.05-.59.08-.89.04-.28-.03-.57-.03-.87-.05-.28-.02-.56-.15-.86-.16-.28-.01-.58.1-.88.09-.28,0-.58.05-.88.05-.28,0-.56-.01-.84,0s-.57-.11-.85-.1-.55.32-.82.34-.59-.3-.87-.28-.54.27-.82.3-.53.21-.81.26-.55.09-.82.14-.58-.03-.85.03-.57.04-.84.11-.48.35-.75.43-.6-.05-.86.04-.47.35-.73.44-.52.18-.78.29c-.27.11-.53.22-.79.34s-.66-.05-.92.07-.56.19-.81.32-.39.5-.63.65-.49.31-.73.46-.53.25-.76.41-.39.45-.62.62-.46.34-.68.52-.57.22-.79.41-.43.39-.64.59-.36.46-.55.67c-.2.22-.32.5-.51.72s-.31.49-.49.73-.31.49-.47.73-.39.44-.54.69-.6.35-.73.61-.26.54-.38.81-.16.58-.26.86-.25.55-.33.83.17.65.1.94-.06.58-.11.87c-.05.28-.16.54-.2.81s-.45.52-.47.79.24.58.24.86-.1.56-.09.84.26.54.29.81.1.54.15.81.05.55.13.81-.22.66-.12.92.36.47.48.72c.12.25.28.49.42.73s.49.34.65.56.22.52.4.73.38.39.58.59.34.43.55.62.44.33.66.51.54.18.77.35.46.29.7.44.33.52.57.66c.25.14.43.44.7.58s.71-.12.99,0,.4.54.67.66c.26.12.49.35.77.49.27.12.6.12.88.25s.54.26.82.39.67,0,.94.12.52.32.8.44.51.36.78.49.64.06.92.19.41.58.68.71c.29.13.58.22.85.34.29.13.53.35.79.47.3.14.71-.01.95.1.33.15.51.52.72.61.27.12.63.05.87.18.27.14.5.32.73.46.26.16.43.41.64.58.24.19.45.37.63.56.21.22.37.43.51.66.14.23.32.43.41.67s.34.47.39.73-.12.55-.12.81-.11.5-.16.77c-.05.28.06.61-.04.88s-.16.58-.31.83-.59.28-.78.51c-.17.22-.32.45-.53.65-.2.19-.42.35-.66.54-.22.17-.45.33-.7.49-.23.15-.38.46-.64.59-.25.12-.45.4-.73.5-.26.1-.67-.22-.95-.13-.27.08-.43.59-.72.65-.27.06-.57.1-.86.14s-.6-.17-.89-.14-.57-.02-.86,0-.56.06-.86.06-.57.05-.86.05-.56-.05-.84-.06-.57.14-.85.12-.58.04-.85,0-.52-.35-.8-.39-.57-.01-.84-.07-.56-.05-.83-.12-.57-.06-.84-.14c-.3-.09-.56-.28-.85-.39s-.63-.11-.91-.24-.39-.61-.66-.75-.75.07-1.02-.1-.31-.65-.56-.83-.59-.23-.84-.43c-.23-.19-.47-.38-.69-.59s-.48-.37-.69-.6-.43-.42-.63-.66-.33-.51-.51-.76-.18-.61-.35-.86-.57-.34-.74-.61-.04-.68-.19-.95c-.18-.28-.67-.33-.87-.56-.22-.25-.43-.46-.67-.65s-.52-.33-.8-.48-.51-.37-.82-.48c-.25-.08-.5-.15-.75-.2s-.51-.01-.78-.03-.52-.2-.78-.18-.53,0-.8.05-.55,0-.81.08c-.3.09-.6.27-.85.41-.28.14-.35.58-.58.77s-.57.28-.74.53-.43.47-.54.76c-.11.26.12.63.05.92-.06.27-.24.52-.26.82-.02.28.18.55.19.85,0,.28.03.55.06.85.03.28-.13.59-.07.88.09.41.2.39.3.8s.15.4.24.81-.23.48-.14.9.15.4.24.81.19.39.28.8-.1.46,0,.87.23.38.33.8-.02.44.07.85c.05.27.11.54.17.78.07.27.22.51.31.74.11.26.48.35.61.55.16.24.13.58.32.73.22.17.4.45.66.56s.59-.02.87.03c.26.05.53-.08.82-.08s.53,0,.78-.03c.28-.04.63.23.86.15.26-.09.32-.56.53-.71.28-.19.64-.26.89-.45.27-.21.44-.52.69-.73.24-.2.68-.02.97-.12s.5-.16.83-.16.65-.22,1-.17c.31.05.69-.04,1.03.06.31.08.56.42.89.54.26.09.54.16.84.26.27.09.49.35.78.44.27.08.59,0,.89.08.27.07.54.19.84.27.28.07.55.18.84.25.26.06.51.22.79.27.26.05.59-.25.87-.21.26.04.51.29.79.32.27.03.57-.2.85-.18s.53.23.81.25.55-.04.83-.03.55-.08.83-.08.55.25.83.25.59-.2.88-.21.59.24.88.23.57-.42.86-.43.6.38.89.36.59,0,.88-.02.55-.39.84-.42.61.18.89.15.54-.39.82-.43.59.06.88.02.62.19.91.14.53-.35.82-.4.56-.16.84-.23.55-.2.83-.28.56-.16.83-.24.65.15.93.06.52-.3.79-.39.55-.19.82-.29.62-.03.89-.14.42-.5.67-.62.48-.34.73-.47.51-.27.76-.41.56-.19.8-.34c.24-.16.49-.3.73-.46s.36-.48.59-.64.42-.39.64-.57.72-.03.93-.22.34-.49.55-.68.4-.42.59-.63.2-.59.38-.8.49-.34.66-.56.46-.37.62-.61.25-.52.4-.77.44-.42.57-.67.16-.56.28-.82.3-.5.4-.77.03-.6.12-.87.13-.56.19-.83.31-.52.36-.8c.05-.28-.12-.59-.09-.86s.08-.55.1-.83-.08-.56-.07-.83.07-.55.06-.83-.09-.55-.12-.82-.1-.54-.16-.81.13-.6.05-.87-.03-.59-.13-.85-.22-.53-.34-.78c-.13-.27-.35-.52-.51-.8-.15-.26-.64-.3-.83-.57-.17-.24-.27-.54-.49-.78-.2-.22-.21-.64-.45-.87-.22-.2-.68-.14-.93-.35-.23-.19-.42-.44-.69-.63,0,0-.05.06-.04.06-.2-.15-.25-.49-.46-.63s-.47-.19-.69-.33-.42-.26-.65-.39c-.25-.14-.55-.21-.82-.35-.26-.14-.5-.29-.78-.43s-.43-.46-.71-.59-.51-.31-.79-.43-.55-.23-.83-.34-.53-.28-.81-.38-.67.1-.95,0-.6-.06-.89-.16-.53-.27-.82-.36-.51-.34-.8-.43-.54-.26-.83-.35-.66.14-.95.05-.49-.44-.79-.52-.62,0-.91-.09c-.28-.07-.58-.06-.82-.13-.28-.08-.48-.38-.72-.47-.28-.1-.46-.36-.7-.46-.27-.11-.68.13-.92.02-.25-.13-.5-.26-.74-.39s-.25-.66-.49-.8c-.24-.14-.59-.09-.8-.24-.23-.17-.3-.48-.49-.65-.21-.19-.48-.27-.63-.47-.17-.22-.28-.44-.38-.68-.12-.28-.08-.57-.13-.88-.05-.29-.44-.56-.43-.88,0-.29-.01-.63.05-.95.05-.28.42-.48.55-.74s.31-.44.49-.68.17-.6.38-.81.5-.3.72-.49.52-.27.74-.44.4-.43.63-.59c.23-.16.36-.5.62-.64s.57-.14.84-.24.57-.05.85-.13.51-.27.8-.33c.27-.05.54-.25.83-.29s.57-.09.86-.11.59.42.88.4c.26-.01.52-.05.81-.03.27.02.55-.11.84-.07.27.04.59-.16.87-.1s.51.28.78.35.58.04.84.13.41.51.66.62.5.23.74.36c.25.14.66.01.88.17.22.16.44.35.65.54s.31.48.51.68.42.36.6.58.28.48.44.71.51.32.67.56.23.51.37.76.31.47.44.72.18.53.3.79.31.46.42.73c.15.29.22.58.38.83.18.27.29.57.48.79.21.25.24.68.46.87.25.21.73.05,1,.18.23.12.34.53.59.6s.53.13.79.16.54-.01.8-.03.48-.24.74-.3c.28-.07.51-.18.75-.28.26-.11.68.04.89-.12.22-.17.21-.59.37-.81s.49-.36.58-.62c.09-.26.19-.56.26-.87.06-.27.05-.58.09-.9.03-.28.06-.58.08-.89.02-.28-.27-.59-.26-.9,0-.29.41-.59.41-.9-.02-.41-.17-.4-.2-.82s-.25-.4-.28-.81-.07-.41-.1-.82.03-.42,0-.83-.02-.41-.05-.82-.03-.41-.05-.83,0-.42-.03-.83-.18-.43-.17-.84.31-.42.29-.83Z"/>
      <path class="cls-1" d="M299.79,36.88c-.21-.19-.37-.46-.61-.64s-.42-.42-.67-.58-.57-.19-.83-.34-.48-.34-.74-.48-.53-.24-.81-.35-.56-.16-.84-.26-.54-.22-.82-.31-.52-.31-.81-.39-.59-.03-.89-.09-.61.1-.9.05-.52-.45-.81-.49-.62.32-.92.29-.56-.19-.86-.21-.58-.1-.88-.11-.58-.13-.88-.13-.59.21-.88.22-.6-.19-.89-.18-.6-.09-.89-.08-.58.24-.87.26-.58.14-.87.17-.58.12-.87.15-.62-.23-.91-.2-.53.43-.82.48-.61-.12-.9-.07-.55.23-.84.29-.57.12-.85.19-.65-.16-.93-.09-.6.06-.87.14-.53.3-.8.39c-.3.09-.52.39-.81.49s-.54.3-.82.41-.56.24-.84.35-.66.02-.93.14-.63.12-.9.26-.42.53-.68.67-.6.2-.85.35-.46.42-.71.59-.57.27-.8.45-.3.59-.52.79c-.23.2-.47.36-.68.56-.22.21-.47.37-.66.57-.21.22-.58.29-.76.51-.19.23-.17.61-.33.85s-.54.37-.67.63.06.64-.04.93-.1.54-.15.84c-.05.27-.53.48-.54.73-.02.28.03.57.05.82.02.27.42.46.49.71s-.14.63-.01.86.43.35.61.55c.18.19.41.31.65.46.21.14.42.3.69.4.24.1.53.01.8.08.25.06.45.42.73.46.26.04.55-.19.83-.18.26.02.52.15.8.15s.55-.24.81-.26c.28-.02.6.4.87.37.28-.04.51-.37.78-.42s.62.16.88.08.49-.34.74-.44.5-.25.73-.39.54-.19.76-.35c.24-.17.39-.45.6-.65s.36-.45.54-.68.35-.45.5-.7.39-.45.5-.72-.07-.63.01-.91.49-.47.54-.76c.09-.46-.12-.5-.03-.95.05-.29.02-.65.14-.91s.29-.56.47-.79c.17-.22.49-.36.72-.56.21-.18.5-.29.76-.45.25-.16.44-.5.72-.62s.64-.02.94-.1c.28-.08.55-.33.86-.38.29-.05.61-.08.92-.1.29-.02.61-.04.93-.04.28,0,.55.32.81.34.28.02.53.13.78.18.28.05.6-.14.85-.06.27.09.54.18.77.3.25.13.44.34.65.5s.52.27.7.47c.19.22.37.53.49.83.11.27.02.63.08.95.06.29.1.59.12.9.02.3.1.6.1.91s.07.62.04.93-.01.63-.07.93c-.09.46-.05.46-.14.92s-.18.44-.26.9-.43.39-.52.85-.08.46-.17.92,0,.47-.09.93-.14.45-.22.91.35.6.15,1.02c-.24-.06-.67.03-.93-.03s-.48-.17-.74-.22-.44-.47-.7-.51-.55.2-.81.16c-.28-.04-.55-.17-.83-.2s-.59.16-.87.14-.56-.02-.85-.04-.56-.1-.84-.12-.55-.43-.83-.44-.57.13-.86.13-.57.01-.85.01-.57.23-.86.24-.58-.12-.86-.11-.57.05-.86.06-.58-.04-.86-.02-.57.07-.85.09-.55.23-.84.25-.56.07-.85.1-.6-.21-.88-.17-.59-.1-.87-.06-.5.51-.78.56-.62-.22-.9-.17-.59,0-.87.06-.53.26-.81.33-.56.12-.83.19-.48.42-.75.5-.56.09-.83.18-.58.06-.84.16-.47.39-.73.49-.66-.13-.92-.03-.51.26-.77.37-.57.14-.82.26-.38.52-.63.65-.63.04-.87.17c-.26.14-.4.48-.65.63s-.52.28-.76.44-.55.24-.79.41-.48.35-.7.53-.46.37-.68.56-.4.44-.61.64-.3.53-.5.74-.53.31-.72.53-.44.4-.62.64-.19.59-.35.83-.25.52-.4.78-.6.34-.73.6-.22.56-.33.82-.26.54-.36.81-.2.56-.29.84.03.62-.04.9.04.6-.02.89c-.05.28-.52.5-.56.77s.39.61.37.89-.04.55-.04.83-.24.58-.21.85-.01.58.03.86.14.56.21.83.21.54.31.8.18.55.31.8.41.42.56.66.38.41.55.63.14.62.33.83.45.35.66.54c.22.2.49.34.73.52s.53.28.78.44.45.39.72.54.58.15.86.28.4.59.68.7.7-.2.99-.11.46.53.76.61.62-.02.91.04.58.1.88.15.59.02.89.06.59.03.89.06.58.12.89.14.59.25.89.26.6-.27.9-.27.6.32.89.31.58-.38.87-.39.59-.03.88-.05.58-.09.87-.12.6.05.89,0,.58-.07.87-.12.57-.16.86-.21.61.07.9,0,.59-.08.88-.15.61-.03.89-.11.56-.21.84-.3.47-.48.75-.57.62,0,.9-.11.6-.1.87-.21c.27-.11.42-.52.68-.64s.59-.11.85-.23.43-.43.69-.56.51-.26.77-.4.61-.1.86-.24.44-.4.68-.55.45-.36.69-.52.67-.06.9-.24.44-.4.66-.58.39-.45.61-.64c.08,0-.19.06-.21.14-.05.27.08.61.09.94.01.29-.07.61-.02.92.05.29.11.6.18.9s.21.58.29.87c.07.27.44.4.57.64s.07.59.25.8.29.52.51.68.57.14.82.26.53.08.8.16.49.16.77.19.51.4.79.4c.48,0,.48-.39.96-.39.28,0,.56.13.83.1s.51-.22.78-.3.66.2.92.1.52-.26.77-.4.35-.5.58-.66.32-.46.53-.65.57-.22.74-.43.32-.46.46-.7.44-.43.54-.68.03-.59.08-.87c.07-.4.12-.39.2-.79s.12-.39.19-.79.18-.38.25-.78-.26-.46-.19-.86.29-.36.37-.76-.18-.45-.1-.85c.08-.43.27-.39.35-.82s.02-.44.1-.86-.02-.44.06-.87.32-.38.4-.81-.12-.46-.04-.89.32-.38.4-.81-.31-.5-.23-.93.48-.35.56-.78.12-.42.2-.85-.26-.49-.18-.92.31-.38.39-.81-.24-.49-.16-.91.22-.4.3-.83.36-.37.44-.8-.16-.47-.08-.9.03-.44.11-.86,0-.44.09-.87.07-.43.15-.86.4-.37.48-.79-.04-.45.04-.88.09-.43.17-.85.28-.39.36-.82-.21-.48-.13-.91-.02-.45.06-.88.09-.43.17-.86.21-.41.29-.84.1-.43.18-.86c.05-.29-.08-.6-.04-.89s0-.58.03-.87.47-.57.47-.86-.14-.59-.15-.88-.07-.59-.1-.87-.34-.53-.4-.81.02-.6-.07-.88-.05-.61-.16-.88-.31-.51-.45-.76-.15-.61-.32-.84-.44-.41-.64-.63-.49-.34-.7-.53ZM275.03,70.79c-.3,0-.59-.12-.87-.13-.3-.02-.57-.13-.85-.17-.3-.04-.6.05-.88-.01-.29-.07-.55-.21-.81-.3-.28-.1-.55-.19-.81-.31s-.55-.21-.79-.37-.45-.36-.67-.56c-.21-.19-.27-.48-.44-.7s-.4-.38-.52-.63-.43-.43-.5-.7.23-.6.19-.88c-.03-.26-.44-.51-.44-.8,0-.27.15-.55.18-.83.03-.27.13-.53.19-.81.05-.29.23-.55.31-.82s-.03-.63.08-.9.41-.46.54-.72.37-.44.53-.69.16-.59.34-.82.31-.51.52-.72.38-.46.61-.65.64-.12.88-.28c.24-.16.31-.63.57-.77s.62-.1.89-.22.49-.36.77-.46.56-.2.85-.29.64.14.93.07.58-.02.88-.07.55-.21.85-.24.57-.25.87-.27.59-.12.89-.12.58-.01.86,0,.56.27.84.28.55.2.82.23.6-.2.87-.16.54.22.81.27c.29.06.59.02.87.09s.53.26.81.35.64-.07.91.03.63.39.9.51c.05.42-.14.46-.21.87s-.3.38-.38.8.16.46.08.88-.34.37-.42.79.23.48.15.9-.02.43-.1.85-.52.34-.6.76-.03.43-.11.84.27.48.19.91-.42.36-.5.78.09.45.01.88.05.47-.1.87c-.22.17-.51.34-.74.5s-.38.46-.62.61-.65.02-.89.16-.38.5-.63.62-.57.13-.83.24c-.28.12-.49.46-.78.56s-.73-.22-1.02-.13-.51.45-.81.52-.66-.15-.96-.1-.58.26-.88.3-.61.09-.92.11-.61.07-.92.07Z"/>
      <path class="cls-1" d="M372.6,72.55c-.39-.15-.4-.15-.8-.27s-.48.14-.88,0c-.32-.13-.47-.49-.67-.68-.23-.22-.68-.37-.75-.67-.05-.24.15-.62.13-1.02-.01-.29-.09-.61-.09-.98,0-.3.24-.6.25-.96.06-.43,0-.44.09-.87s.03-.44.11-.87.03-.44.11-.87.06-.43.14-.87.06-.43.14-.87.2-.41.28-.84-.19-.48-.11-.91.22-.41.3-.84.18-.41.26-.84.12-.42.2-.85-.14-.47-.06-.9.42-.37.49-.8.1-.43.18-.86-.22-.49-.14-.92.06-.44.14-.87.33-.39.41-.82-.07-.46.01-.89.03-.44.11-.87.08-.43.16-.86.15-.42.23-.85.03-.44.11-.88-.02-.45.06-.89.12-.43.21-.86c.02,0,0,0,.02,0,.09-.42.29-.38.37-.81s-.09-.46-.01-.88.03-.44.11-.86.13-.42.21-.84-.04-.45.04-.87.21-.4.29-.83.23-.4.31-.82.09-.43.16-.85-.09-.46-.01-.88.08-.42.16-.85.34-.38.42-.8-.27-.49-.19-.92.16-.41.24-.84.12-.42.2-.84.05-.43.13-.86-.01-.44.07-.87.15-.41.23-.84,0-.44.08-.87.24-.4.32-.83.1-.42.18-.85,0-.44.08-.87-.14-.58.19-.87.43-.2.85-.2.42.02.84.02.42.29.84.29c.31,0,.61-.25.9-.26.31-.01.63.2.92.18.31-.03.63,0,.92-.04.31-.04.62-.09.91-.15.31-.06.62-.13.9-.22.3-.09.47-.51.74-.62.29-.12.75.09.99-.06.25-.15.23-.66.44-.83.22-.18.66-.11.84-.3.19-.21.45-.4.6-.62s.03-.63.13-.88.39-.47.44-.74c.05-.26.13-.55.11-.78-.02-.26-.11-.58-.22-.79s-.35-.44-.54-.6c-.22-.18-.65-.08-.98-.19-.27-.09-.56-.09-.9-.13-.29-.04-.58-.3-.92-.3-.46,0-.46-.17-.92-.17s-.46.17-.92.17-.46-.12-.91-.12-.46.28-.92.28-.46-.15-.92-.15-.46-.14-.92-.14-.53.46-.84.12c-.29-.32-.07-.36.01-.79s.12-.42.2-.84.07-.43.15-.86.13-.42.21-.84,0-.44.07-.87.36-.37.44-.8-.33-.5-.25-.93.23-.4.31-.83.34-.38.42-.81-.02-.45.06-.88c.06-.34,0-.67,0-.96,0-.35-.11-.64-.19-.92-.09-.32-.3-.5-.5-.73-.19-.21-.27-.55-.52-.69-.24-.12-.51-.32-.8-.38-.26-.05-.58.07-.89.07-.26,0-.55-.16-.81-.12s-.48.28-.74.36-.42.34-.66.45-.48.16-.71.29c-.22.12-.42.28-.64.43s-.47.22-.68.38c-.2.16-.38.34-.59.51s-.49.24-.68.42-.42.33-.61.53c-.28.36-.33.33-.61.69s.04.6-.23.97-.53.18-.8.55-.17.44-.44.81-.27.37-.54.74-.5.2-.77.57,0,.57-.28.94-.27.38-.55.74c-.18.22-.53.28-.7.47-.19.21-.28.5-.46.67-.21.21-.53.26-.71.42-.23.2-.22.66-.41.79-.29.19-.71.12-1.01.22s-.63.02-.96.02c-.43,0-.43,0-.86,0s-.43-.02-.87-.02-.43.29-.87.29c-.28,0-.55-.01-.81.02-.28.04-.53.11-.79.19s-.49.21-.73.32-.56.1-.79.26c-.28.2-.42.51-.63.75-.22.25-.67.36-.81.65s-.06.69-.12,1.02c-.07.36.05.69.06,1,0,.36-.22.73-.13,1.03.07.23.3.42.5.61.16.16.32.42.57.55.21.11.53-.04.8.05.38.09.35.26.73.34s.41-.02.79.06.41-.03.8.06c.26.09.45.32.65.42.25.13.56.15.72.31.19.19-.02.57.03.79.06.23.18.44.18.76,0,.25.18.53.14.83-.03.25-.1.53-.15.82-.08.42-.14.41-.22.83s-.14.41-.22.83.21.48.13.9-.35.37-.43.79-.23.39-.31.82.13.46.05.88.06.45-.02.87-.09.42-.17.84.02.44-.06.86-.08.42-.16.84-.49.35-.57.77.03.44-.05.87.06.45-.02.87-.16.41-.24.83.12.46.04.88-.41.36-.49.79.3.49.22.92-.12.42-.2.84-.18.41-.25.83c.01,0,.07,0,.09,0-.08.42-.32.37-.41.79s.26.49.18.91-.09.42-.18.83-.45.35-.53.76.21.48.13.9-.1.42-.19.83-.06.42-.15.84-.14.41-.23.82-.05.43-.13.85-.39.36-.48.77.11.45.02.87-.02.43-.1.85.02.44-.06.86-.01.43-.09.85-.45.35-.53.77-.1.42-.18.84-.08.42-.16.84.09.45,0,.87,0,.43-.08.85-.38.36-.46.78.09.46.01.88.16.47.08.89-.43.36-.5.78c-.02.27-.05.53-.08.77-.04.27-.13.5-.19.73-.07.27.22.64.13.86-.11.25-.6.25-.75.43-.17.2-.15.59-.37.76s-.38.43-.63.56c-.23.12-.55.11-.82.21-.48.14-.52,0-1,.13s-.51.04-.99.19c-.31.15-.66.3-.92.47-.28.19-.35.63-.56.86-.23.25-.29.55-.43.83s-.43.5-.49.83c-.06.31,0,.58,0,.84,0,.31-.22.65-.13.9.1.27.3.58.51.77.19.18.54.23.83.34.24.09.54.04.85.08.26.04.53.3.84.3.44,0,.44.01.88.01s.44-.33.88-.33.44.19.88.19.44.06.88.06.44.04.88.04.44-.1.88-.1.44.04.88.04.44-.28.88-.28.44.02.88.02.44.19.88.19.44,0,.87,0,.44-.12.88-.12.44.04.88.04.44,0,.88,0,.44-.14.88-.14.44.35.88.35.44-.2.88-.2.44.1.88.1.44.05.88.05.44-.16.88-.16.44-.07.88-.07.44.07.89.07.44,0,.89,0c.27,0,.53.06.78.03.27-.03.54,0,.79-.07.26-.06.46-.29.69-.39.24-.11.58-.06.79-.2.26-.18.21-.67.4-.9s.72-.26.85-.54c.12-.27.07-.63.13-.95.07-.35-.06-.68-.09-.97-.04-.34-.26-.53-.43-.79-.17-.26-.19-.66-.46-.9-.24-.21-.48-.49-.79-.68Z"/>
    </g>
  </g>
</svg>