<?xml version="1.0" encoding="UTF-8"?>
<svg id="Layer_2" data-name="Layer 2" xmlns="http://www.w3.org/2000/svg" viewBox="0 0 187.52 80.48">
  <defs>
    <style>
      .cls-1 {
        fill: #b55434;
      }
    </style>
  </defs>
  <g id="Layer_1-2" data-name="Layer 1">
    <g>
      <g>
        <path class="cls-1" d="M93.37,54.27c.22-.18.58-.21.8-.4.22-.18.41-.4.62-.59.21-.19.44-.37.64-.57.21-.2.34-.46.54-.66.2-.2.26-.52.46-.73.19-.21.6-.24.79-.45.18-.21.15-.58.33-.79.18-.22.61-.25.78-.47.17-.22.19-.54.34-.77.16-.23.45-.38.59-.62.14-.23.11-.56.24-.8.13-.24.36-.44.48-.68.12-.24.32-.46.43-.71.11-.25.08-.56.18-.81.1-.25.26-.49.34-.75.09-.26.15-.52.23-.79.08-.26.08-.54.14-.8.06-.26.15-.52.2-.79.05-.26.25-.5.29-.76.04-.26-.04-.54,0-.8.03-.27-.16-.54-.14-.8.02-.27.39-.51.4-.77,0-.27-.38-.53-.39-.79,0-.27.12-.53.1-.79-.02-.27.02-.53-.01-.79-.03-.26.04-.54,0-.8-.05-.26-.31-.48-.37-.73-.06-.26.06-.56-.02-.81-.08-.26-.08-.56-.19-.79-.12-.25-.44-.4-.58-.62-.15-.23-.39-.38-.56-.58-.18-.2-.41-.34-.61-.53-.2-.18-.2-.56-.42-.73-.21-.17-.65-.07-.88-.23-.22-.16-.31-.47-.54-.63-.21-.15-.51-.21-.74-.37-.21-.15-.44-.31-.66-.48-.23-.17-.29-.57-.53-.72-.24-.16-.45-.39-.71-.53-.25-.14-.58-.17-.85-.3-.26-.13-.61-.07-.89-.19-.26-.11-.57-.14-.85-.24-.27-.1-.54-.19-.83-.29-.27-.1-.46-.41-.75-.5-.27-.09-.5-.33-.79-.42-.28-.09-.64.06-.93-.03-.28-.09-.52-.29-.81-.38-.28-.09-.59-.08-.88-.17-.61-.19-.57-.29-1.18-.47-.25-.08-.59.08-.85,0-.25-.08-.49-.2-.75-.28-.25-.08-.49-.2-.76-.28-.25-.07-.44-.35-.7-.42-.26-.07-.59.07-.85-.01-.26-.07-.44-.39-.7-.46-.29-.08-.67.11-.96.03-.29-.08-.6-.12-.89-.21-.29-.09-.45-.57-.74-.65-.29-.09-.6-.13-.88-.22-.29-.09-.69.14-.97.05-.3-.09-.48-.49-.76-.58-.3-.1-.64-.04-.92-.13-.3-.1-.61-.14-.87-.24-.31-.11-.57-.26-.82-.36-.33-.14-.69-.13-.9-.25-.23-.14-.29-.52-.5-.66-.23-.15-.6-.11-.8-.25-.22-.16-.34-.42-.53-.58-.21-.18-.57-.21-.73-.39-.19-.2,0-.65-.13-.85-.15-.22-.52-.31-.61-.53-.11-.28.08-.64.02-.94-.06-.29-.27-.56-.28-.87-.02-.3-.04-.6-.02-.91.02-.3.17-.58.23-.88.06-.28.01-.58.1-.85.09-.27.14-.56.26-.82.12-.26.28-.51.43-.75.15-.24.43-.41.61-.63.18-.22.17-.62.38-.82.21-.2.67-.15.91-.33.23-.17.35-.5.6-.66.25-.16.45-.43.71-.57.26-.14.55-.28.83-.4.28-.12.62-.11.91-.21.28-.1.6-.11.9-.18.29-.07.54-.34.85-.39.29-.05.64.1.94.06.3-.03.59-.24.9-.25.3-.02.62-.02.92-.02s.6,0,.89,0c.3.01.58.32.87.34.3.02.58.12.87.15.3.04.63-.16.91-.11.3.05.59.09.87.16.29.07.56.21.83.29.29.09.62.05.89.15.28.1.55.22.82.35.27.12.43.42.68.57.25.14.49.3.73.46.24.16.51.28.73.46.22.18.51.31.71.51.2.2.46.37.65.58.19.21.4.42.58.65.17.22.26.51.42.75.15.23,0,.64.14.89.14.24.27.48.39.74.12.25.31.47.42.73.11.25.16.53.27.79.1.26.51.42.6.69.11.25.27.43.39.64.13.24.19.46.34.66.16.22.05.64.23.81.2.18.6.13.82.24.22.11.42.28.68.34.24.05.51-.13.78-.12.24,0,.47-.03.74-.06.24-.03.49-.01.75-.07.27-.05.65.23.89.15.26-.09.47-.33.69-.45.24-.13.46-.3.66-.46.2-.16.22-.49.38-.69.21-.25.48-.43.61-.7.14-.28.2-.57.26-.88.06-.29.15-.59.13-.91-.02-.39-.06-.39-.08-.78-.02-.39-.2-.38-.22-.77-.02-.39-.04-.39-.06-.78-.02-.39.25-.41.23-.8-.02-.39.16-.4.14-.79s-.45-.37-.47-.77c-.02-.39.3-.41.28-.8-.02-.39.09-.4.07-.79-.02-.39-.17-.39-.19-.78-.02-.39,0-.39-.03-.79-.02-.39-.3-.38-.32-.78-.02-.4.05-.4.03-.79-.02-.4.09-.4.07-.8-.02-.4-.23-.39-.25-.78-.01-.26.32-.53.29-.76-.04-.26-.13-.5-.2-.72-.07-.25-.08-.53-.19-.74-.12-.23-.52-.28-.68-.46-.14-.16-.16-.51-.4-.67-.19-.12-.53-.06-.8-.16-.22-.08-.45-.17-.73-.21-.24-.03-.49-.16-.77-.16-.38,0-.76.05-1.09.15-.35.1-.7.26-.99.46-.22.15-.39.37-.59.53-.21.17-.27.46-.44.65-.26.28-.68.42-.98.64-.17.13-.36.1-.63.1-.19,0-.53.14-1,0-.26-.08-.6-.14-.96-.3-.24-.11-.35-.52-.63-.62-.25-.1-.53-.15-.81-.25-.25-.09-.51-.2-.79-.29-.26-.08-.53-.17-.81-.25-.26-.08-.59.02-.87-.05-.28-.08-.61,0-.92-.06-.29-.06-.51-.51-.82-.56-.29-.05-.66.33-.97.3-.3-.03-.59-.08-.91-.11-.3-.02-.58-.28-.9-.3-.3-.01-.61-.1-.92-.11-.3,0-.61,0-.93,0-.3,0-.59.04-.89.05-.3,0-.6-.03-.89-.01-.3.01-.58.18-.88.2-.3.02-.58.12-.87.15-.3.03-.62-.2-.91-.17-.29.03-.58.15-.87.19-.29.04-.57.15-.86.2-.29.05-.56.19-.85.24-.29.06-.6.03-.88.09-.29.06-.54.25-.82.33-.29.07-.67-.19-.95-.11-.28.08-.43.55-.71.63-.28.09-.68-.15-.96-.05-.28.1-.49.35-.76.46-.26.1-.51.22-.77.33-.26.11-.48.28-.73.39-.25.12-.48.26-.73.39-.25.12-.52.19-.77.32-.24.13-.6.09-.83.23-.24.14-.32.5-.55.65-.23.15-.65.05-.87.2-.23.15-.24.58-.46.74-.22.16-.44.32-.65.49-.21.17-.39.37-.59.55-.21.18-.48.28-.68.46-.2.18-.4.36-.59.55-.19.19-.33.42-.51.62-.18.2-.5.29-.68.5-.18.21-.39.39-.56.6-.17.21-.43.37-.58.59-.16.22-.27.48-.41.7-.15.23-.01.6-.15.83-.14.23-.43.38-.56.62-.12.24-.35.44-.46.68-.11.24.08.6-.02.85s-.32.45-.41.7c-.09.25.03.55-.05.81-.08.25-.14.5-.21.75-.06.26-.32.47-.38.73-.05.24.02.52-.02.8-.03.25,0,.51-.01.79-.01.26-.34.52-.33.8,0,.26.08.53.11.8.03.26.17.51.22.78.05.26-.08.56,0,.83.07.25.29.48.38.74.09.25.08.54.19.8.1.24.22.49.35.74.12.24.31.45.45.69.14.23.53.32.68.55.15.22.1.57.27.8.16.21.21.52.39.73.17.21.52.29.71.5.18.2.48.3.68.5.19.19.37.4.58.59.2.18.17.61.38.79.21.18.68.08.9.26.21.17.34.45.56.62.22.16.53.23.76.39.23.16.23.61.47.77.23.15.49.29.73.43.24.15.61.1.86.24.24.14.57.15.82.28.24.14.37.47.62.6.25.13.51.24.77.36.25.12.42.41.68.53.25.12.58.1.84.22.26.12.49.27.76.38.26.11.5.26.77.37.26.11.48.3.75.41.26.1.66-.09.93,0,.26.1.45.39.72.49.26.09.61-.05.87.03.26.08.47.33.74.4.27.07.55.08.82.15.27.06.56.03.83.09.27.06.49.33.76.39.28.05.59-.08.86-.03.28.05.5.33.77.37.28.05.62-.27.89-.22.28.05.48.47.75.52.28.05.55.13.82.18.28.05.63-.21.9-.15.29.06.5.34.76.41.29.07.67-.13.91-.05.3.1.52.34.72.47.24.15.3.51.52.65.23.16.6.13.8.29.22.17.47.31.66.48.21.19.46.33.63.52.19.21.38.43.52.63.16.23,0,.6.08.82.09.23.28.42.35.66.06.24.1.48.13.72.03.24-.16.48-.15.73,0,.24.28.49.25.74-.02.24.04.5-.01.75-.05.26-.12.52-.2.76-.07.25-.28.46-.38.7-.1.24-.23.47-.35.69-.12.23-.11.54-.26.76-.15.21-.27.47-.44.67-.17.2-.67.12-.86.31-.19.18-.29.44-.5.61-.2.16-.4.34-.62.49-.23.16-.35.52-.6.67-.25.14-.59.16-.86.29-.26.13-.59.12-.86.24-.27.11-.51.28-.79.38-.28.1-.61.03-.89.12-.28.08-.53.25-.82.32-.29.07-.59.05-.88.1-.29.05-.56.26-.85.29-.3.04-.59.1-.89.11-.29.02-.59-.14-.88-.13-.29,0-.58.22-.86.23-.29,0-.58-.01-.87-.02-.29,0-.59.09-.87.08-.29-.01-.58-.1-.86-.12-.29-.02-.59,0-.87-.02-.29-.03-.59-.03-.87-.07-.29-.04-.54-.32-.82-.36-.29-.04-.55-.23-.82-.28-.29-.05-.57-.11-.84-.17-.29-.06-.59-.06-.86-.12-.29-.07-.67.21-.94.14-.29-.08-.54-.26-.8-.33-.3-.09-.48-.43-.73-.51-.31-.11-.7.1-.92.02-.27-.1-.51-.3-.78-.42-.26-.12-.57-.18-.83-.32-.25-.14-.38-.48-.62-.64-.24-.15-.54-.24-.77-.41-.23-.17-.45-.35-.67-.54-.21-.18-.49-.32-.7-.52-.2-.2-.38-.43-.57-.64-.19-.21-.2-.57-.38-.8-.17-.23-.27-.49-.44-.74-.16-.24-.31-.47-.45-.72-.14-.25-.22-.51-.35-.78-.13-.25-.55-.39-.66-.65-.11-.26-.36-.48-.46-.75-.1-.26-.12-.56-.21-.84-.09-.27-.02-.59-.1-.86-.08-.24-.1-.51-.22-.72-.12-.23-.52-.27-.67-.46-.16-.2-.12-.54-.31-.7-.2-.16-.5-.17-.73-.29-.25-.12-.5-.12-.78-.19-.26-.06-.5-.29-.79-.3-.27,0-.58-.15-.87-.11-.27.04-.46.45-.74.53-.29.08-.54.17-.79.27-.28.11-.74-.13-.97,0-.25.15-.36.5-.56.68-.21.19-.57.3-.71.53-.14.21-.14.52-.23.76-.08.23-.17.48-.21.74-.04.24-.17.5-.17.76,0,.24.4.46.44.72.06.4.12.39.18.79.06.4-.22.44-.16.84.06.4,0,.41.06.81.06.4.3.37.36.77.06.4-.08.42-.02.82s-.06.42,0,.82c.06.4.17.39.23.79.06.4.28.37.34.78.06.4-.06.42,0,.82.06.4-.08.42-.02.82.06.4.2.39.26.79.06.4.21.38.27.79.06.41.12.42.15.82.03.41-.27.43-.21.84.05.31.06.61.11.88.06.31.22.58.29.84.09.31.14.61.24.85.13.31.5.43.66.65.13.18.26.35.49.52.19.14.3.42.57.52.22.09.48.16.76.21.24.04.51-.04.8-.04.27,0,.52.02.76-.01.27-.04.51-.09.74-.17.25-.08.39-.29.6-.42.21-.13.63-.05.8-.23.22-.24.29-.6.5-.84.21-.25.5-.44.69-.69.14-.18.29-.26.77-.27.24,0,.55-.1.89-.01.26.07.57.09.88.2.26.09.52.26.82.37.27.1.54.22.83.33.25.1.48.26.75.37.25.1.49.26.76.36.25.1.57.06.84.15.26.09.45.36.72.46.26.09.65-.18.93-.09.26.08.4.55.67.63.26.08.58.02.86.09.27.07.57.01.85.08.27.06.57-.01.86.05.27.06.49.35.77.4.27.05.57.02.85.07.27.04.57-.05.86-.01.27.04.54.1.83.13.28.03.53.26.82.29.28.03.57-.09.86-.07.28.02.56,0,.84.02.28.01.56.04.85.05.28,0,.56.08.85.09.06,0,.12-.1.19-.1.3,0,.59.03.88.02.3,0,.59.06.88.05.3-.01.58-.14.87-.16.29-.02.59-.01.88-.04.29-.03.57-.16.86-.2.29-.04.63.21.92.16.29-.05.56-.22.84-.28.29-.05.63.13.92.07.29-.06.57-.17.85-.24.29-.07.56-.19.84-.27.28-.08.6-.06.88-.15.28-.09.51-.32.78-.42.28-.1.45-.42.73-.52.27-.11.57-.14.84-.25.27-.11.61-.09.87-.21.26-.12.54-.22.8-.35.26-.13.55-.21.81-.35.25-.14.45-.37.7-.52.25-.15.43-.4.67-.55.24-.16.61-.14.85-.3.24-.16.43-.39.66-.56.23-.17.34-.48.57-.66Z"/>
        <path class="cls-1" d="M187.35,2.44c-.11-.3-.35-.54-.58-.76-.21-.21-.55-.22-.85-.36-.26-.12-.49-.39-.82-.47-.28-.06-.59-.19-.93-.22-.29-.02-.62.17-.95.17-.44,0-.44.08-.88.08s-.44-.36-.88-.35-.44.06-.88.06c-.44,0-.44-.02-.88-.02-.44,0-.44,0-.88,0-.44,0-.44.2-.88.21-.44,0-.44.17-.88.18-.44,0-.44-.44-.88-.43-.44,0-.44.46-.88.47-.44,0-.44-.02-.88-.01-.44,0-.44-.26-.89-.25-.44,0-.44-.08-.88-.08-.44,0-.44.03-.88.03-.44,0-.44.04-.88.05-.44,0-.44-.04-.88-.04-.44,0-.44.17-.88.17-.44,0-.44.09-.88.1-.44,0-.44-.28-.89-.28-.44,0-.44.09-.89.09-.44,0-.44.08-.89.08-.44,0-.44.1-.89.1-.34,0-.66-.08-.97-.05-.34.04-.62.22-.92.29-.33.08-.77-.18-1.05-.05-.3.14-.37.67-.61.86-.22.17-.68.08-.86.29-.18.21-.21.55-.35.79-.13.23-.23.49-.33.76-.09.25-.09.53-.14.81-.05.28-.04.54-.05.79,0,.29-.06.55-.01.79.06.28-.05.63.08.85.14.23.56.29.8.51.2.18.24.63.51.8.23.15.65-.03.93.11.38.1.38.06.76.12s.4.01.78.07c.39.06.37.17.76.23s.39.05.78.13c.26.1.54.15.74.27.25.15.32.45.46.63.16.21.18.4.18.66,0,.22-.15.37-.29.66-.1.21-.16.43-.34.68-.14.2-.05.6-.23.82-.16.19-.49.25-.68.46-.32.32-.4.24-.71.56-.32.32-.08.56-.4.88-.32.32-.42.22-.73.54-.32.32-.17.47-.48.79-.32.32-.32.32-.64.64-.32.32-.47.17-.79.49-.32.32-.23.4-.55.72-.32.32-.28.36-.59.68-.32.32-.55.08-.87.4-.31.32-.27.36-.59.68-.32.32-.24.39-.56.71-.32.32-.46.18-.77.5-.32.32-.21.43-.53.75-.32.32-.4.24-.72.56q-.32.32-.63.64c-.32.32-.27.37-.59.69-.32.32-.11.53-.43.85-.32.32-.5.14-.82.47-.32.32-.43.21-.74.54-.32.32-.16.47-.48.8-.32.32-.21.43-.53.75-.32.32-.34.3-.66.63-.32.32-.57.07-.89.39-.32.32-.03.6-.35.93-.32.32-.43.22-.75.54-.32.32-.22.42-.54.75-.32.32-.6.05-.92.37-.32.32-.01.65-.47.61-.44-.04-.31-.15-.55-.52-.24-.37-.38-.28-.62-.65-.24-.37-.03-.51-.26-.88-.24-.37-.26-.36-.5-.73-.24-.37-.08-.48-.32-.85-.24-.37-.38-.28-.61-.65-.24-.37-.2-.4-.43-.76-.24-.37-.2-.4-.44-.77-.24-.37-.15-.43-.39-.8-.24-.37-.53-.18-.77-.55-.24-.37-.05-.49-.29-.86-.24-.37-.46-.23-.7-.6-.24-.37-.07-.48-.31-.85-.24-.37-.29-.34-.53-.71s-.33-.32-.56-.69c-.24-.37-.03-.51-.27-.88-.24-.37-.41-.26-.65-.63-.24-.37-.03-.51-.27-.88-.24-.37-.58-.15-.82-.52-.24-.37.11-.6-.13-.97-.24-.37-.21-.39-.45-.77-.24-.37-.54-.18-.78-.56-.24-.37-.04-.5-.28-.88-.16-.26-.58-.36-.7-.6-.13-.28-.11-.61-.19-.86-.09-.3.14-.61.13-.87-.01-.31-.21-.59-.11-.84.11-.24.25-.52.48-.73.19-.18.4-.42.68-.57.23-.13.5-.27.79-.38.25-.1.62.13.91.04.45-.1.42-.21.87-.3.45-.09.45-.08.91-.17.45-.09.51.14.96.03.32-.12.54-.54.81-.68.31-.16.52-.41.77-.59.28-.2.5-.39.7-.63.19-.22.45-.37.59-.62.14-.25.27-.5.37-.78.09-.26-.02-.58.03-.87.06-.35.02-.63,0-.94-.02-.35.34-.75.23-1.04-.12-.3-.44-.55-.67-.79-.2-.21-.49-.38-.79-.53-.26-.12-.62.03-.96-.04-.28-.06-.55-.26-.89-.29-.29-.02-.6-.18-.94-.18-.45,0-.44.08-.89.09s-.45-.17-.89-.17c-.45,0-.45.11-.89.12-.45,0-.45-.08-.89-.08-.44,0-.44.18-.89.18s-.44.04-.89.04-.45-.19-.89-.18c-.45,0-.44.23-.89.23-.45,0-.45,0-.89,0-.45,0-.45.12-.89.12-.45,0-.45-.07-.89-.07s-.45.06-.89.06-.45.03-.89.04c-.45,0-.45-.26-.9-.26-.45,0-.45-.15-.89-.15-.45,0-.45,0-.89,0-.45,0-.45.08-.89.08-.45,0-.44.4-.89.4-.45,0-.45-.11-.89-.11-.44,0-.45-.28-.89-.28s-.44.36-.89.36c-.45,0-.45-.09-.9-.08-.45,0-.45.1-.89.1-.45,0-.45-.25-.89-.24-.45,0-.45.11-.89.12-.45,0-.45,0-.89,0-.45,0-.45.09-.89.1-.45,0-.45-.03-.89-.02-.45,0-.45-.23-.9-.23-.45,0-.45-.07-.9-.07-.45,0-.45,0-.9.01s-.45-.06-.9-.05c-.35,0-.67.36-.99.39-.35.04-.63.23-.94.3-.34.08-.65.09-.94.22-.32.14-.67.15-.93.34-.23.17-.5.29-.69.5-.19.21-.08.61-.23.85-.14.24-.51.35-.6.62-.09.25,0,.56-.05.85-.05.27.02.51.01.75,0,.28-.21.53-.16.77.06.26,0,.6.13.82.12.19.6.12.85.32.19.15.39.28.64.44.21.13.23.65.49.79.23.11.58.02.84.13.26.08.44.36.68.46.25.1.54.07.77.19.24.13.45.27.66.42.21.15.33.41.54.6.19.18.65.11.84.33.17.2.4.39.57.62.04.05-.04.47.25.91.13.21.25.49.43.77.15.23.51.34.69.61.15.23.19.56.36.82.15.24.2.55.37.81.15.24.41.43.57.69.15.24.5.37.67.62.16.24.21.56.37.82.16.24.2.57.36.82.16.24.44.41.6.67.16.24.45.41.61.66.16.24.34.48.5.73.16.25-.07.75.09,1,.16.25.35.47.52.72.16.25.45.41.61.66.16.25.54.36.7.61.16.25.18.59.35.84.16.25.42.43.58.68.16.25.03.68.19.93.16.25.32.5.48.75.16.25.59.32.75.57.16.25.31.51.47.76.16.25.2.58.36.83.16.25.38.46.54.71.16.25.25.54.41.79.16.25.53.36.69.62.16.25.26.54.42.79.16.25.36.47.52.72.16.25.26.54.42.79.16.25.4.45.56.7.16.25.25.55.41.8.16.25.25.55.41.8s.08.66.25.91c.16.25.67.28.84.53.16.25.03.53.19.78-.2.39-.28.28-.58.59-.3.32-.28.35-.58.67s-.17.45-.47.77c-.31.32-.27.35-.58.67-.3.32-.55.08-.86.4-.3.32-.07.54-.38.86-.3.32-.47.16-.78.48-.3.32-.31.31-.62.63-.3.32-.26.36-.56.68-.3.32-.3.32-.61.64-.3.32-.09.53-.39.85-.31.32-.61.03-.91.35-.31.32-.2.42-.51.74-.31.32-.14.48-.44.8-.3.32-.27.35-.58.67-.3.32-.34.28-.65.6s-.31.32-.61.63q-.3.32-.61.64c-.31.32-.32.31-.62.63-.31.32-.22.4-.52.72-.31.32-.48.15-.79.47-.3.32-.33.29-.64.61-.3.32-.41.21-.72.53-.3.32-.31.31-.62.62-.3.32,0,.61-.3.93-.3.32-.59.05-.89.37-.31.32-.07.55-.37.87-.31.32-.26.36-.57.68-.31.32-.62.01-.93.33-.31.32.03.63-.28.95-.31.32-.3.33-.6.65-.31.32-.43.21-.73.53-.31.32-.28.34-.59.66s-.26.36-.57.68c-.31.32-.41.22-.72.54-.31.32-.49.15-.8.47-.31.32-.05.56-.36.88-.31.32-.47.16-.78.48-.31.32-.08.54-.39.86-.31.32-.61.04-.91.36-.31.32-.08.54-.39.86-.31.32-.46.18-.77.5-.22.23-.47.41-.69.63-.22.22-.48.41-.7.62-.23.22-.17.74-.4.95-.23.21-.54.34-.78.54-.24.21-.42.49-.65.68-.22.18-.64.11-.86.28-.22.17-.37.45-.59.61-.23.17-.45.34-.68.5-.23.16-.62.08-.85.23-.24.16-.29.59-.52.74-.27.16-.54.33-.81.48-.28.16-.66.11-.93.25-.28.14-.5.4-.78.53-.29.13-.64.08-.93.2-.27.1-.38.56-.62.66-.27.11-.61,0-.85.12-.26.13-.57.15-.79.28-.26.15-.5.3-.71.45-.24.17-.49.34-.67.52-.22.22-.2.64-.36.88-.18.25-.34.48-.45.75-.12.27-.17.55-.22.84-.06.36-.04.67-.03.98.02.36-.09.7.03,1,.13.31.42.49.66.74.2.2.28.64.58.78.25.12.63.03.95.11.28.06.59-.04.92-.02.29.03.58.32.9.32.45,0,.45-.1.91-.1.45,0,.46.12.91.12.46,0,.45-.27.91-.27.45,0,.46.18.91.18.46,0,.45-.11.91-.11s.45-.11.91-.11c.45,0,.45.14.91.13.45,0,.45-.16.9-.17.45,0,.46.4.91.4.46,0,.46-.11.91-.11.45,0,.45-.2.91-.2s.45.02.91.02c.46,0,.46.06.91.06.46,0,.46.06.91.05.46,0,.45-.31.91-.31.45,0,.46.28.91.28.46,0,.46.16.92.15.46,0,.46-.22.91-.22.46,0,.46-.14.92-.15s.46,0,.92,0c.34,0,.63-.12.94-.15.33-.04.62-.09.92-.17.32-.08.77.21,1.05.08.3-.14.54-.42.79-.61.22-.17.33-.46.51-.67.18-.21.41-.38.55-.62.14-.23.06-.56.15-.82.09-.25.49-.43.54-.71.05-.28-.31-.57-.3-.82,0-.28.03-.5-.03-.74-.06-.27-.06-.5-.2-.71-.15-.21-.35-.36-.59-.56-.2-.16-.29-.53-.56-.68-.23-.13-.6.07-.87-.05-.52-.12-.51-.1-1.04-.2-.53-.09-.46-.47-.98-.57-.36-.07-.74.14-1.03.06-.37-.11-.69-.26-.93-.38-.39-.21-.69-.52-.73-.77-.03-.2.1-.51.25-.81.1-.2.22-.46.39-.71.14-.19.56-.2.74-.42.16-.19.19-.51.38-.72.3-.32.26-.37.56-.68.3-.32.23-.39.53-.71.3-.32.25-.37.56-.69.3-.32.58-.06.88-.38.3-.32.32-.31.62-.63q.31-.32.61-.64c.31-.32.18-.44.48-.76.31-.32.25-.38.55-.7.31-.32.53-.11.83-.43.31-.32.17-.45.48-.77.31-.32.12-.49.43-.81.31-.32.56-.08.86-.4.31-.32.31-.31.62-.63.31-.32.34-.28.65-.6.31-.32.02-.6.32-.92.31-.32.62-.02.92-.34.3-.32.09-.52.4-.84.3-.32.21-.41.51-.73.3-.32.4-.23.7-.54.3-.32.42-.21.72-.53.3-.32.37-.26.67-.58.31-.32.33-.3.64-.62.31-.32.09-.53.4-.85.31-.32.22-.41.52-.73.31-.32.45-.18.76-.5.31-.32.24-.38.55-.7.31-.32.51-.12.82-.45.31-.32.31-.32.62-.64.31-.32.2-.42.51-.74.31-.32.22-.41.53-.73.31-.32.49-.15.8-.47.31-.32.32-.31.62-.64.31-.32.06-.55.37-.88.31-.32.45-.19.76-.51.31-.32.36-.28.66-.6.31-.32.34-.3.65-.62.31-.32.14-.5.54-.71.16.25.22.51.38.76.16.25.56.35.72.6.16.25.31.51.47.76.16.25.16.61.32.86.16.25.32.5.48.75.16.25.42.44.58.69.16.25.29.52.45.77.16.25.32.5.48.75.16.25.44.43.6.68.16.25.02.69.18.94.16.25.49.39.65.64.16.25.24.56.4.8.16.25.28.53.44.78.16.25.46.41.62.66.16.25.39.46.54.71.16.25.26.54.42.79.16.25.31.51.47.75.16.25.26.54.42.79.16.25.26.54.42.78.16.25.45.42.61.66.16.25.15.61.3.86.16.25.66.28.82.52.16.25-.05.74.1.99.16.26.45.42.61.66.17.26.44.43.6.67.17.26.45.42.61.66.17.26.11.65.26.88.17.27.41.47.55.69.18.29.47.45.61.66.31.48.22.38.45.75.15.24.1.59.21.82.13.26.39.46.47.69.1.29.2.58.21.82.01.31-.1.68-.26.93-.14.23-.44.42-.71.61-.19.13-.39.37-.67.5-.22.1-.5.18-.78.28-.24.09-.53.09-.81.17-.25.08-.48.26-.76.33-.28.08-.55.13-.8.21-.27.09-.49.29-.73.38-.27.11-.65-.07-.88.04-.26.13-.44.38-.66.52-.25.16-.64.1-.84.27-.26.22-.49.53-.68.79-.2.27-.34.61-.46.92-.12.3-.34.62-.4.97-.06.35.07.72.09,1.02.02.35.33.59.44.88.12.3.19.58.43.82.2.21.34.52.64.66.26.12.55.26.88.33.28.06.59.18.92.21.29.02.61-.07.94-.07.44,0,.44-.13.89-.13.45,0,.45.23.89.23.45,0,.45-.08.89-.09.45,0,.45-.19.89-.2.45,0,.45.21.89.2.45,0,.44-.05.89-.05s.45.02.89.01c.44,0,.44-.1.89-.1.45,0,.44-.19.89-.19.45,0,.45.3.89.29.45,0,.44-.28.89-.28.45,0,.45.34.89.33.45,0,.44-.18.89-.18.45,0,.45.17.89.16.45,0,.45-.21.89-.21.45,0,.45.11.89.1.45,0,.45.09.89.08.45,0,.45-.16.89-.16.45,0,.45.07.89.06.45,0,.44-.02.89-.03.44,0,.44-.08.89-.08.45,0,.45.02.89.02.45,0,.45.15.9.14.45,0,.45-.12.89-.12s.44-.23.89-.23c.45,0,.45.37.9.36.45,0,.44-.4.89-.41.45,0,.45.14.89.13.45,0,.45.07.89.06.45,0,.45.11.9.11.45,0,.45-.22.9-.22.45,0,.45.2.9.2.45,0,.45.11.9.11.35,0,.68-.23,1-.27.35-.04.65-.19.96-.27.34-.08.61-.25.9-.38.32-.14.75-.04,1.01-.24.23-.17.18-.62.36-.82.19-.21.51-.28.65-.52.14-.23.13-.53.23-.79.09-.25.15-.5.2-.78.05-.31.38-.57.38-.85,0-.31.03-.67-.06-.93-.09-.28-.38-.52-.55-.76-.19-.24-.56-.33-.83-.54-.24-.19-.54-.27-.84-.44-.27-.15-.53-.26-.85-.39-.35-.09-.6-.42-.9-.52-.35-.11-.61-.37-.91-.48-.35-.13-.77-.01-1.04-.15-.25-.12-.43-.38-.66-.56-.22-.16-.5-.27-.71-.47-.2-.19-.3-.48-.49-.71-.18-.22-.6-.31-.8-.6-.17-.24-.32-.53-.51-.81-.17-.25-.3-.55-.49-.84-.17-.26-.15-.65-.33-.94-.24-.38-.45-.24-.69-.62-.24-.37-.02-.52-.26-.89-.24-.37-.51-.2-.75-.58-.24-.37-.29-.34-.53-.72-.24-.37.14-.62-.1-1-.24-.37-.28-.35-.52-.72-.24-.38-.54-.18-.79-.56-.24-.38.05-.57-.19-.94-.24-.38-.39-.28-.63-.66-.24-.38-.3-.34-.54-.72-.24-.38-.2-.4-.45-.78-.24-.38-.39-.28-.63-.66-.24-.38.03-.55-.21-.93-.24-.38-.46-.23-.7-.61-.24-.38-.13-.45-.37-.82-.24-.38-.44-.25-.68-.62-.24-.38.14-.62-.1-1-.24-.38-.49-.22-.73-.59-.24-.38,0-.54-.24-.91-.24-.38-.39-.28-.63-.66-.24-.37-.27-.36-.51-.73-.24-.37-.15-.43-.39-.81-.24-.38-.34-.31-.59-.69-.24-.38-.29-.34-.54-.72-.24-.38-.23-.38-.47-.76-.24-.38-.13-.44-.38-.82-.24-.38-.49-.21-.74-.59-.24-.38.06-.57-.19-.95-.24-.38-.42-.26-.66-.64-.24-.38-.36-.3-.61-.67-.24-.38-.25-.38-.49-.75-.24-.38-.13-.45-.37-.83-.24-.38-.17-.42-.42-.8-.24-.38-.43-.26-.67-.63-.24-.38-.06-.5-.31-.87-.24-.38-.41-.28-.65-.65-.25-.38-.24-.38-.48-.76-.24-.38-.57-.44-.53-.89.05-.44.6-.21.91-.51.32-.31.37-.25.69-.56.32-.31.13-.5.45-.81.32-.31.31-.32.62-.63.32-.31.37-.25.69-.56.32-.31.22-.41.53-.72.32-.31.32-.3.64-.61.32-.31.46-.16.78-.47.32-.31.32-.3.64-.61.32-.31.27-.36.59-.67.32-.31.25-.38.57-.69.32-.31.27-.36.59-.67.32-.31.29-.33.61-.64.32-.31.38-.24.7-.55.32-.31.57-.05.88-.35q.32-.31.63-.61c.32-.31.26-.36.58-.67.32-.31.35-.27.67-.58.32-.31.08-.56.4-.87.32-.31.26-.36.58-.67.32-.31.37-.26.68-.57.32-.31.59-.03.91-.34.32-.31.12-.52.44-.83.32-.31.39-.24.7-.55.32-.31.16-.48.47-.79.32-.31.3-.33.62-.64.32-.31.36-.27.68-.58.32-.31.6-.02.92-.33.32-.31.21-.42.53-.73.32-.31.3-.33.62-.64.32-.31.16-.48.48-.79.32-.31.42-.22.74-.53s.3-.33.62-.64c.22-.22.47-.4.68-.61.22-.22.4-.47.61-.68.22-.22.3-.57.5-.78.22-.22.42-.45.63-.66.22-.23.64-.24.84-.45.23-.22.57-.31.77-.51.23-.22.14-.75.35-.95.24-.23.68-.2.89-.39.25-.23.54-.34.74-.51.22-.19.33-.47.56-.64.23-.17.46-.32.69-.47.24-.15.34-.55.59-.68.25-.13.55-.19.8-.3.26-.11.57-.1.84-.18.28-.11.47-.42.73-.53.28-.12.69.1.95-.01.28-.13.53-.29.78-.41.28-.14.59-.18.83-.32.27-.15.37-.57.59-.72.27-.18.66-.15.85-.32.25-.22.32-.62.51-.85.21-.26.41-.5.54-.78.14-.29.35-.57.41-.88.06-.34.08-.67.07-.96-.01-.34-.07-.67-.18-.95Z"/>
        <path class="cls-1" d="M77.13,74.67c.05-.38.06-.73.15-1.02.12-.39.24-.86.04-1.16-.2-.31-.44-.63-1.05-.64-.6-.01-.53.24-1.13.23-.6-.01-.6.07-1.2.06s-.59-.33-1.19-.34c-.6-.01-.6-.16-1.2-.17-.6-.01-.6.06-1.2.04-.6-.01-.59-.22-1.19-.23-.6-.01-.6.18-1.2.17-.41,0-.55.19-.78.32-.07.02-.15.03-.25.03-.16,0-.25.02-.34.05-.42-.06-.5-.29-1.02-.3-.3,0-.45.06-.6.13-.26.02-.33.08-.7.08-.44,0-.44-.13-.89-.13-.14,0-.23.03-.31.06-.47-.05-.51-.27-1.04-.12-.24.07-.38.1-.5.14-.35.01-.4.1-.81.1-.44,0-.44.11-.89.11s-.44-.14-.89-.14-.45.16-.89.16-.44-.41-.89-.41-.44.1-.89.1-.44.2-.89.2-.44-.02-.89-.02-.44-.06-.89-.06-.44-.06-.89-.06-.45.3-.89.3-.44-.28-.89-.28-.44-.16-.89-.16-.44.22-.89.22-.45.14-.89.14-.44,0-.89,0-.44.1-.89.1-.45,0-.89,0-.45-.43-.89-.43-.44.11-.89.11-.44.14-.89.14-.44-.08-.89-.08-.45.21-.89.21-.44-.34-.89-.34-.45.39-.89.39-.45-.04-.89-.04-.45-.1-.89-.1-.45.05-.89.05-.44-.25-.89-.25-.45.36-.89.36-.45-.01-.9-.01-.45-.38-.9-.38-.45.3-.9.3c-.34,0-.67-.04-.96-.07-.34-.04-.67-.08-.96-.15-.33-.09-.62-.27-.88-.41-.29-.16-.58-.34-.79-.56-.21-.23-.1-.65-.22-.96-.11-.28-.36-.52-.39-.86-.03-.3-.09-.62-.07-.96.02-.3-.04-.64.03-.98.08-.43,0-.45.09-.88.08-.43.45-.36.53-.8.08-.43.1-.43.18-.86q.08-.43.16-.87c.08-.43-.1-.47-.02-.9.08-.43,0-.45.08-.88.08-.43.38-.38.46-.81.08-.43-.1-.47-.02-.9.08-.43-.17-.48-.09-.91.08-.43.42-.37.5-.8.08-.43.09-.43.17-.86.08-.43.13-.42.21-.85.08-.43-.32-.51-.23-.94.08-.43.5-.35.59-.78.08-.43-.21-.49-.13-.92.08-.43-.05-.46.03-.89.08-.43.21-.41.29-.84.08-.43.23-.4.31-.84.08-.43.17-.42.25-.85.08-.43.12-.43.2-.86.08-.43-.21-.49-.13-.92s-.04-.46.04-.89c.08-.43.28-.4.36-.83.08-.43,0-.45.08-.88.08-.43.36-.38.44-.81.08-.43.09-.43.17-.86.08-.43-.06-.46.02-.89.08-.43-.04-.46.04-.89.08-.43.33-.39.41-.82.08-.43.09-.43.17-.87.08-.43-.25-.5-.17-.93.08-.44.27-.4.35-.83.08-.43.15-.42.23-.86.08-.43.12-.43.2-.86.08-.43-.01-.45.07-.89.08-.43.13-.43.21-.86.08-.43-.2-.49-.11-.92.08-.43.1-.43.18-.87.08-.44.27-.4.35-.83q.08-.43.16-.87c.08-.43-.03-.46.05-.89.08-.43.12-.43.2-.86.08-.44.08-.43.17-.87.08-.44-.05-.46.03-.9.08-.43.43-.37.51-.8.08-.44-.12-.47-.04-.91.08-.44.18-.42.26-.85.08-.43.14-.42.22-.86.08-.43-.08-.46,0-.9.08-.43,0-.45.09-.88.08-.44.15-.42.23-.86.08-.44.09-.43.17-.87.08-.44.15-.42.23-.86.08-.44.15-.42.23-.86.08-.44-.07-.46,0-.9.08-.44.29-.4.37-.83.08-.43-.32-.51-.23-.94.08-.44.52-.35.6-.79.08-.44-.07-.47.01-.9.08-.44-.06-.47.02-.9.08-.44-.07-.47.01-.91.07-.35.4-.62.5-.92.11-.34.16-.68.31-.96.17-.31.25-.7.47-.94.17-.19.4-.37.62-.54.19-.15.54-.12.78-.26.22-.13.38-.39.63-.5.23-.1.48-.25.74-.34.4-.11.41-.08.82-.18.41-.1.42-.02.83-.13.41-.1.38-.21.79-.31s.41-.06.82-.17c.28-.1.57-.13.82-.25.27-.13.46-.36.7-.51.26-.16.5-.29.71-.47.23-.19.34-.45.52-.67.19-.22.61-.26.76-.51.15-.25.14-.57.24-.85.1-.27.44-.49.49-.78.07-.36.06-.75.05-1.06-.01-.36-.13-.73-.25-1.03-.13-.32-.25-.72-.5-.97-.2-.2-.58-.27-.86-.41-.25-.13-.61.02-.92-.06-.27-.07-.53-.2-.85-.23-.28-.03-.57-.22-.89-.22-.44,0-.44-.04-.87-.04s-.44-.07-.87-.07-.44.11-.87.11-.44.13-.87.13-.44-.23-.87-.23-.44.08-.87.08-.44.19-.87.19-.44-.21-.88-.21-.44.04-.87.04-.44-.02-.87-.02-.44.1-.87.1-.44.18-.87.18-.44-.3-.87-.3-.44.28-.87.28-.44-.34-.87-.34-.44.17-.87.17-.44-.17-.87-.17-.44.2-.87.2-.44-.11-.87-.11-.44-.09-.88-.09-.44.15-.87.15-.44-.07-.87-.07-.44.02-.88.02-.44.07-.88.07-.44-.03-.88-.03-.44-.15-.87-.15-.44.12-.88.12-.44.22-.88.22-.44-.37-.88-.37-.44.4-.88.4c-.34,0-.65-.12-.96-.09-.34.04-.66.02-.96.1-.33.08-.68.08-.96.21-.3.13-.48.48-.74.66-.24.17-.59.2-.79.41-.2.21-.48.4-.63.65-.15.24-.09.61-.19.89-.1.26-.07.56-.13.85-.06.31-.01.59-.02.87,0,.31-.27.63-.21.91.07.29.51.42.65.68.14.25.14.58.36.8.2.2.5.26.77.42.24.15.47.26.76.38.5.15.42.43.91.57.5.14.48.23.98.37.5.14.54-.01,1.03.14.29.12.64.06.88.21.27.16.6.28.8.47.23.22.46.49.59.74.13.26,0,.65.05.98.04.28-.11.57-.13.91-.02.29.22.62.16.95-.08.44-.21.41-.29.85-.08.44.02.46-.06.89-.08.44-.2.42-.28.85-.08.44.19.49.11.93-.08.44-.13.43-.21.87-.08.44-.14.43-.22.86-.08.44-.3.39-.39.83-.08.44.16.48.08.92-.08.44-.35.39-.43.82-.08.44.23.49.15.93-.08.44-.03.45-.11.88s-.53.35-.61.79-.03.44-.12.88c-.08.44.27.5.19.94-.08.44-.43.37-.51.81-.08.44.09.47.01.9-.08.44-.02.45-.1.88-.08.44-.13.43-.21.86-.08.44.09.47,0,.91-.08.44-.4.38-.48.82-.08.44.17.49.09.92-.08.44-.21.41-.3.85-.08.44.15.48.07.92-.08.44-.53.35-.61.79-.08.44.21.49.13.93-.08.44-.37.38-.45.82-.08.44.09.47,0,.91-.08.44-.05.44-.13.88-.08.44-.19.42-.27.86-.08.44.04.46-.04.9-.08.44-.02.45-.11.89-.08.44-.1.44-.18.87-.08.44-.21.41-.29.85-.08.44.21.49.13.93-.08.44-.43.37-.51.81-.08.44.13.48.04.92-.08.44.06.47-.02.9-.08.44-.08.44-.16.88-.08.44-.22.41-.3.85-.08.44-.17.42-.25.86-.08.44.14.48.06.92-.08.44-.3.4-.38.84s.11.47.02.91c-.08.44-.09.44-.17.88-.08.44-.08.44-.16.88-.08.44-.39.38-.48.82-.08.44-.15.42-.24.86-.08.44.18.49.1.92-.08.44-.06.44-.15.88-.08.44-.16.43-.24.87-.08.44.06.47-.02.9s-.09.44-.17.88c-.08.44-.28.4-.37.84-.08.44-.09.44-.17.88-.08.44-.01.45-.09.89-.08.44.01.46-.07.9-.08.44-.02.45-.1.89-.08.44-.05.45-.13.89-.08.44-.17.43-.26.87-.08.44-.44.38-.52.82-.07.35-.14.64-.24.95-.11.34-.15.64-.3.92-.16.31-.37.52-.59.76-.17.19-.12.61-.33.78-.2.15-.39.37-.62.51-.22.13-.5.19-.75.31-.23.1-.6-.16-.85-.07-.41.11-.34.38-.75.48-.41.1-.44,0-.85.11-.41.1-.36.33-.77.43-.41.1-.4.12-.81.23-.28.1-.54.14-.79.26-.27.13-.73-.09-.96.06-.25.16-.41.47-.63.65-.22.19-.42.42-.6.64-.19.22-.15.59-.29.84-.14.25-.38.44-.47.72-.09.27-.14.55-.19.84-.07.37-.16.7-.15,1.01.01.37.12.69.24.99.13.32.44.45.69.7.2.2.4.31.68.45.25.13.41.48.71.56.27.07.55.3.86.33.28.03.6-.15.91-.15.44,0,.44-.08.88-.08s.44.02.88.02.44-.2.88-.2.44.02.88.02.44.3.88.3.44-.25.88-.25.44.24.88.24.44.07.88.07.44.01.88.01.44,0,.88,0,.44-.34.88-.34.44.41.88.41.44-.44.88-.44.44.35.88.35.44.09.88.09.44-.3.88-.3.44.22.88.22.44.07.88.07.44,0,.88,0,.44-.05.88-.05.44-.31.88-.31.44-.07.88-.07.44.26.88.26.44.17.88.17.44-.17.88-.17.44.12.88.12.44-.28.88-.28.44.15.88.15.44.14.89.14.44-.08.89-.08.44-.18.88-.18.44.04.88.04.44-.02.88-.02.44.05.88.05.44-.09.89-.09.44.29.89.29.44-.43.89-.43.44.16.88.16.44.27.89.27.44-.1.89-.1.44-.1.89-.1.44-.08.89-.08.44-.1.89-.1.44.24.89.24.44.11.88.11.44-.15.88-.15.44.18.88.18.44-.19.89-.19.44-.2.89-.2.44.05.89.05.44-.04.89-.04c.25,0,.36.03.49.05.13.27.36.16.66.03.21,0,.29-.02.63-.02.44,0,.44.15.89.15s.45.06.89.06.45.08.89.08.45-.4.89-.4.47.4.91.32c.12-.12.23-.27.35-.42.04,0,.07,0,.11,0,.61,0,.61.22,1.23.22s.62.18,1.23.18.62-.39,1.23-.39.61.13,1.23.13.61.13,1.23.13.62-.22,1.23-.22.61.22,1.23.22.61-.45,1.22-.45.61.46,1.23.46.62-.21,1.23-.21.61-.25,1.23-.25.61.16,1.22.16.61.16,1.22.16.61.14,1.22.14-1.82-.14-1.21-.14.61.09,1.23.09.61-.37,1.23-.37.61-.09,1.22-.09.67.1.96-.11c.3-.21.36-.49.49-.84.12-.33.69-.68.6-1.06-.12-.51-.22-1.04-.22-1.74,0-.38-.24-.72-.2-1.03Z"/>
      </g>
      <path class="cls-1" d="M78.19,71.09c.22-.09.3-.31.51-.41s.37-.3.57-.41.38-.27.57-.4.36-.29.54-.43.35-.3.53-.44.34-.3.52-.45.39-.25.56-.4.42-.22.59-.37.32-.32.5-.47.24-.41.42-.56.44-.18.62-.33.18-.51.37-.65c.22-.16.56-.15.79-.3s.43-.35.68-.46,1.04-.92,1.58-.34c.19.2.8.13,1.07.19s.46.28.67.44.62.26.71.52c.07.22-.09.51-.12.74s-.12.44-.19.66c-.08.23-.04.52-.15.74s-.42.33-.55.54-.3.38-.45.58-.31.37-.47.56-.32.37-.48.55-.21.47-.38.65-.44.26-.61.43c-.16.16-.12.51-.28.67s-.34.3-.5.47-.47.18-.62.34-.36.28-.52.44-.09.54-.25.7-.39.26-.55.42-.21.42-.37.59c-.16.17-.58.1-.72.27s-.29.37-.43.54-.28.37-.41.55-.21.41-.33.6-.2.41-.33.6-1.32.31-1.46.48-.35.28-.5.44-.29.32-.47.45-.21.51-.42.61c-.2.09-.47.06-.7.13-.21.06-.44.09-.68.12-.2.03-.43.12-.69.13-.22,0-.45-.27-.69-.27-.22,0-.45-.02-.69-.03-.23-.01-.47.22-.71.2s-.47.06-.7.04-.46-.14-.69-.16-.46-.12-.69-.14c-.24-.02-.47-.18-.69-.19-.24-.01-.48.24-.7.24-.26,0-.47.12-.67.14-.21.02-.45-.08-.67-.07s-.46.01-.67-.02-.33-.28-.51-.42c-.19-.14-.25-.29-.34-.5s-.18-.38-.21-.61-.15-.45-.14-.67c0-.23-.13-.46-.13-.71,0-.23.28-.47.28-.71s0-.47,0-.71.04-.47.06-.7-.07-.49-.03-.71c.04-.24.4-.19.47-.41.07-.23.04-.49.16-.69s.16-.51.34-.66.52-.04.76-.13c.15-.06.35-.33.68-.33.22,0,.47.1.74.12.24.01.48.08.74.1s.51-.13.76-.11.48.37.71.39c.27.02.54-.27.76-.26.31.02.56.14.73.12.26-.03.53.15.76.12.25-.04.46-.3.69-.34s.49-.05.73-.11.48-.08.72-.17c.22-.08.41-.26.65-.36Z"/>
    </g>
  </g>
</svg>