<?xml version="1.0" encoding="UTF-8"?>
<svg id="Layer_2" data-name="Layer 2" xmlns="http://www.w3.org/2000/svg" viewBox="0 0 517.93 185.56">
  <defs>
    <style>
      .cls-1 {
        fill: #b55434;
      }
    </style>
  </defs>
  <g id="Layer_1-2" data-name="Layer 1">
    <g>
      <path class="cls-1" d="M98.33,124.82c.28-.29.83-.32,1.09-.62s.59-.56.84-.87.24-.82.48-1.14.62-.54.84-.86.59-.57.8-.91.3-.76.49-1.1.12-.83.31-1.19.5-.63.67-1,.5-.65.65-1.02.12-.81.25-1.18.06-.81.18-1.19.2-.76.3-1.14.79-.62.88-1.01.12-.8.19-1.19c.07-.4-.06-.83,0-1.22s-.23-.83-.19-1.22.28-.77.3-1.17-.13-.8-.13-1.19.45-.81.43-1.2-.04-.81-.08-1.2-.51-.74-.58-1.13-.11-.78-.19-1.17,0-.82-.1-1.2-.31-.73-.44-1.11-.16-.78-.31-1.15-.6-.6-.77-.96-.26-.74-.45-1.09-.44-.65-.64-.99c-.2-.33-.32-.7-.54-1.02s-.54-.55-.77-.86-.38-.67-.63-.97-.42-.65-.69-.94-.27-.82-.55-1.1-.93-.13-1.23-.39-.29-.85-.6-1.09-.61-.49-.92-.72-.66-.42-.98-.64-.78-.23-1.11-.44-.68-.36-1.02-.56-.45-.78-.79-.97-.88,0-1.23-.18-.56-.62-.91-.79-.7-.34-1.06-.5-.75-.24-1.11-.39c-.35-.15-.73-.29-1.11-.42-.36-.13-.86.12-1.25,0-.37-.12-.59-.76-.98-.87s-.81-.02-1.2-.12-.83.11-1.22.01-.77-.12-1.17-.2-.75-.23-1.15-.3-.77-.15-1.16-.22-.77-.13-1.17-.2-.77-.15-1.17-.21-.8.04-1.19-.01-.74-.42-1.13-.47-.78-.15-1.17-.19-.76-.29-1.16-.33-.79-.1-1.18-.14-.84.49-1.24.45-.75-.58-1.14-.61-.82.37-1.22.34-.8.02-1.19,0-.76-.63-1.16-.65-.82.56-1.22.54-.79-.02-1.19-.03-.79-.24-1.19-.26-.8.02-1.19.02-.79.06-1.18.06-.79-.2-1.18-.2c-.58,0-.58-.33-1.17-.33s-.58.46-1.17.46-.58-.3-1.17-.3-.58.41-1.17.41-.58-.54-1.17-.54-.58.41-1.17.41-.59-.28-1.17-.28-.58-.06-1.17-.06-.58-.06-1.17-.06-.58.56-1.17.56-.59-.14-1.17-.14-.59-.13-1.17-.13-.58.02-1.17.02-.59-.25-1.17-.25-.59.23-1.17.23-.58-.27-1.17-.27-.58.17-1.17.17-.58.03-1.17.03-.59-.04-1.17-.04-.58-.07-1.17-.07-.58.27-1.17.27-.59-.14-1.17-.14-.59.12-1.17.12-.59-.24-1.17-.24-.58.4-1.17.4-.59-.57-1.18-.57-.59.22-1.18.22-.59.14-1.18.14-.59-.21-1.18-.21c-.4,0-.81-.09-1.18-.05-.4.04-.77.3-1.13.39-.39.09-.74.26-1.09.4-.37.15-.82.15-1.13.35-.37.24-.57.69-.85,1s-.72.56-.9.95-.08.87-.16,1.3c-.08.42-.37.83-.34,1.2.03.42.26.82.43,1.18s.67.44.97.73c.27.26.32.81.69,1.03.32.19.67.54,1.08.68.6.16.74-.38,1.35-.23s.57.32,1.18.46.64.04,1.24.2c.35.13.7.27.99.42.33.17.74.28.98.48.29.24.51.62.67.89.16.27.12.69.19,1.05.06.3.07.64.06,1-.01.31-.33.6-.39.95-.11.58.42.67.31,1.25s-.22.56-.32,1.13-.05.59-.16,1.16-.2.56-.3,1.14.06.61-.05,1.18-.49.51-.6,1.08.29.65.18,1.23-.18.56-.28,1.14-.46.51-.57,1.09-.04.59-.15,1.17-.23.55-.34,1.13-.08.58-.18,1.16.23.64.12,1.21-.51.5-.62,1.07-.05.58-.16,1.16.17.63.06,1.2-.33.53-.44,1.11.15.62.04,1.2-.54.49-.65,1.07.08.61-.03,1.18.02.6-.09,1.17.05.6-.06,1.18-.05.59-.16,1.16-.34.53-.44,1.11-.24.55-.34,1.13-.29.55-.39,1.12.22.64.11,1.22-.13.57-.24,1.15-.06.59-.16,1.16-.09.58-.19,1.16-.1.58-.21,1.15-.25.55-.36,1.13-.16.57-.27,1.14-.06.59-.17,1.16.04.61-.07,1.18-.08.58-.18,1.16-.54.5-.65,1.08,0,.6-.11,1.18-.23.55-.34,1.13.11.62,0,1.2.17.63.07,1.21-.59.49-.7,1.07.48.69.37,1.27-.52.5-.63,1.08-.12.58-.23,1.16,0,.6-.12,1.18.18.63.07,1.21-.67.47-.78,1.05.23.64.12,1.22.03.61-.08,1.18-.24.56-.34,1.14.06.61-.04,1.19-.1.58-.2,1.16-.32.54-.43,1.11-.2.56-.31,1.14-.33.54-.44,1.12.44.68.33,1.26-.09.58-.2,1.16-.39.53-.5,1.11-.14.58-.24,1.16-.17.57-.28,1.15,0,.6-.11,1.18.07.61-.04,1.2-.62.49-.73,1.07.48.7.38,1.28-.7.47-.81,1.06c-.07.38.16.8.05,1.12-.12.36-.2.74-.38,1.04-.19.33-.6.47-.84.72-.26.27-.55.5-.92.73-.32.2-.59.52-.99.69-.35.15-.69.44-1.1.57-.66.16-.68.06-1.34.21s-.66.18-1.32.33-.63.29-1.29.45c-.38.12-.88-.19-1.22-.04-.37.16-.64.49-.95.69-.34.21-.65.44-.92.69-.29.26-.58.53-.8.83s-.18.75-.32,1.11-.44.63-.51,1.01c-.08.4.06.77.09,1.11.03.4.03.74.19,1.06s.54.41.84.67c.26.22.47.37.81.52.3.13.53.45.91.53.32.07.68-.06,1.06-.03.33.03.67-.01,1.04-.01.59,0,.59.57,1.17.57s.59-.28,1.17-.28.59.28,1.17.28.59-.09,1.17-.09.59-.41,1.17-.41.59.26,1.17.26.59-.09,1.17-.09.59-.2,1.17-.2.59.04,1.17.04.59.53,1.17.53.59-.59,1.17-.59.59.14,1.17.14.59.13,1.17.13.59.1,1.17.1.59-.21,1.17-.21.59-.14,1.17-.14.59.23,1.17.23.58.1,1.17.1.59-.25,1.17-.25.59.53,1.18.53.59-.22,1.17-.22.59-.22,1.17-.22.59-.07,1.18-.07.59-.1,1.18-.1.59.06,1.18.06.59.16,1.17.16.59.19,1.18.19.59.19,1.18.19.59-.24,1.18-.24.59-.04,1.18-.04c.41,0,.8-.02,1.17-.06.41-.04.79-.12,1.15-.19.4-.09.71-.34,1.06-.48.38-.15.63-.39.95-.6.37-.24.95-.19,1.22-.5s.33-.8.51-1.19.35-.74.44-1.18c.07-.35.32-.68.33-.99,0-.36-.22-.7-.3-1-.09-.34-.43-.49-.63-.74-.2-.26-.18-.76-.48-.97-.26-.18-.75.02-1.09-.12-.3-.12-.56-.33-.92-.42-.58-.12-.52-.39-1.1-.5s-.56-.2-1.15-.31-.64.23-1.23.12-.57-.17-1.16-.27-.57-.19-1.15-.31c-.35-.08-.67-.13-.95-.25-.33-.14-.53-.41-.77-.6-.27-.22-.63-.32-.79-.6-.16-.29-.52-.6-.58-.98-.05-.32.21-.72.23-1.11.02-.33-.22-.74-.15-1.11.11-.58.23-.55.34-1.13s.03-.59.14-1.16.55-.49.66-1.07.19-.56.3-1.13-.46-.68-.35-1.25.58-.49.69-1.06.17-.56.28-1.14-.33-.66-.22-1.23.11-.57.22-1.15.46-.51.57-1.08,0-.6.11-1.17-.11-.62,0-1.19.08-.58.19-1.16.57-.49.67-1.06-.38-.67-.27-1.24.37-.53.48-1.1.19-.56.3-1.13-.3-.65-.19-1.22.66-.47.77-1.04-.17-.63-.07-1.21.1-.58.2-1.15.2-.56.31-1.13.02-.59.12-1.17.28-.54.39-1.12.01-.59.12-1.17-.22-.64-.12-1.21.21-.56.31-1.14.13-.57.24-1.15.48-.51.59-1.09-.07-.56.22-1.07c.36.13.55-.03.93.09s.63.57,1.01.68.81,0,1.19.12.73.25,1.11.35.82-.08,1.21,0,.71.4,1.09.49c.37.08.79-.09,1.16-.01s.73.21,1.1.28.71.35,1.09.41.76.04,1.14.09.72.34,1.1.38.77-.04,1.15,0,.77-.11,1.15-.08.76.08,1.14.1.76-.09,1.14-.07.75.35,1.13.36.77-.39,1.15-.38.76.35,1.14.35.76-.19,1.14-.19.76-.09,1.14-.1.78.39,1.16.37.75-.44,1.13-.46.78.2,1.16.17.77-.04,1.15-.08.73-.36,1.11-.4.75-.1,1.13-.15.79.15,1.17.1.81.21,1.18.15.76-.12,1.13-.19.72-.31,1.09-.38.7-.4,1.07-.48.75-.13,1.12-.22.78-.01,1.15-.11.65-.49,1.02-.6.85.18,1.21.07.71-.27,1.07-.39.69-.35,1.04-.48c.36-.13.73-.23,1.08-.37s.59-.57.94-.71.88.11,1.22-.04.69-.33,1.04-.5.73-.27,1.06-.44.48-.73.81-.91.67-.35,1-.54.89,0,1.21-.21.33-.9.64-1.11.72-.29,1.02-.51.81-.18,1.12-.41.5-.6.79-.84.46-.63.74-.88.83-.21,1.11-.47.21-.88.48-1.15.51-.55.77-.82ZM70.21,127.44c-.35.14-.84-.08-1.19.05s-.73.17-1.09.29-.62.53-.99.63-.77.02-1.14.1-.76,0-1.13.07-.71.28-1.08.34-.7.41-1.08.45-.77-.08-1.14-.04-.76-.12-1.13-.1-.74.23-1.12.24-.75.22-1.13.22-.8.03-1.2.01-.76-.64-1.16-.66-.78,0-1.18-.03-.81.13-1.2.08-.83.24-1.23.18c-.41-.06-.8-.34-1.21-.42s-.86,0-1.27-.1-.7-.64-1.11-.75-.8-.22-1.2-.35-.93.15-1.33.01c-.32-.11-.63-.25-.95-.37s-.56-.43-.87-.56-.71-.25-1.02-.4c-.04-.58.22-.58.32-1.15s-.21-.63-.1-1.21.2-.56.3-1.13.04-.59.15-1.16.21-.56.31-1.13-.01-.6.1-1.17.23-.55.33-1.13.22-.55.33-1.13.48-.51.58-1.08-.43-.68-.32-1.25.55-.49.66-1.07.11-.58.22-1.15.06-.59.16-1.16-.14-.62-.03-1.2.05-.59.16-1.16.55-.49.66-1.07-.3-.65-.2-1.23.41-.52.51-1.1.12-.57.23-1.15.03-.59.14-1.17.1-.58.21-1.15-.28-.65-.17-1.22.65-.47.76-1.05-.08-.61.03-1.19-.19-.63-.08-1.21.05-.59.16-1.16.18-.57.29-1.14.11-.58.22-1.15.11-.58.22-1.15.13-.57.24-1.15-.05-.61.06-1.19.42-.52.53-1.1.16-.57.27-1.15-.12-.59.33-.98c.42-.37.39.08.95.08s.56-.57,1.13-.57.56.51,1.13.51.57-.43,1.13-.43.57-.08,1.13-.08c.38,0,.78.59,1.19.59.39,0,.81-.58,1.22-.56s.8.02,1.2.04.78.26,1.19.29.8.01,1.2.05.8,0,1.2.03.78.27,1.18.32.76.42,1.15.48.86-.35,1.25-.29.75.42,1.14.48.87-.27,1.26-.19.69.69,1.07.77c.4.09.89-.22,1.26-.13.4.1.71.48,1.08.59.4.12.75.3,1.11.44.4.15.72.36,1.05.52.35.18.96-.13,1.29.06s.6.53.92.74.57.54.88.77.63.45.92.7.41.69.69.95.71.38.96.67.3.75.54,1.05.6.5.81.82.44.63.63.96.33.69.5,1.04c.17.36.27.74.41,1.1s.53.65.64,1.03.08.8.17,1.19.28.75.34,1.14-.13.81-.1,1.2.46.76.47,1.16-.57.78-.58,1.18.18.79.14,1.18.06.8,0,1.19-.33.74-.4,1.13c-.08.4-.26.77-.35,1.16s.01.84-.1,1.22-.16.8-.29,1.18-.45.7-.6,1.07-.1.83-.26,1.2-.54.64-.72.99-.16.83-.36,1.18-.64.55-.86.89-.34.73-.58,1.06-.2.88-.46,1.18c-.25.29-.81.31-1.07.59s-.65.43-.92.69-.19.92-.47,1.18-.7.37-1,.61-.55.55-.86.77-.62.46-.95.67-.59.53-.92.72-.72.3-1.06.48-.77.18-1.12.34-.6.55-.96.69Z"/>
      <path class="cls-1" d="M214.38,132.47c.07-.38.34-.72.4-1.09s.3-.74.34-1.11c.04-.39-.04-.78-.02-1.15.02-.39.25-.78.24-1.15,0-.39-.17-.78-.21-1.15-.04-.39.02-.8-.05-1.16-.07-.38-.39-.71-.49-1.06-.11-.37-.28-.71-.43-1.05s-.11-.81-.3-1.13-.66-.47-.89-.77c-.25-.31-.5-.6-.79-.88s-.67-.39-1-.62-.59-.5-.94-.69-.72-.27-1.09-.42-.73-.22-1.12-.33c-.37-.1-.67-.53-1.07-.61-.38-.07-.75-.34-1.16-.38s-.8-.09-1.21-.11-.8.06-1.21.06-.79.53-1.19.55-.8-.09-1.2-.05-.85-.27-1.25-.2-.7.6-1.09.69-.8.07-1.19.18-.72.35-1.1.48-.87-.03-1.24.12-.68.45-1.05.62-.72.34-1.08.53-.64.49-.99.69c-.33.2-.67.37-1,.58s-.81.18-1.13.41-.69.39-.99.63-.6.5-.89.76-.64.47-.92.74-.24.86-.51,1.14-.38.69-.64.98-.58.51-.83.81-.65.46-.89.78-.56.55-.78.87-.09.87-.31,1.2-.74.44-.95.77c-.24.38-.55.82-.78,1.22-.07-.62-.05-.66.01-1.28s.36-.59.43-1.21.3-.59.37-1.21-.46-.68-.4-1.29.06-.62.12-1.24.66-.56.73-1.18-.24-.65-.18-1.28c.03-.38.32-.73.32-1.06,0-.38-.19-.74-.22-1.06-.03-.39-.06-.76-.14-1.06-.1-.39-.12-.85-.3-1.09-.28-.39-.97-.32-1.44-.5-.4-.16-.8-.14-1.34-.14-.3,0-.64-.37-1.01-.33-.31.03-.66,0-1.01.05-.31.05-.58.43-.93.5-.36.07-.8-.02-1.23.09-.37.09-.81.04-1.23.15-.37.11-.73.36-1.14.49-.38.12-.68.52-1.09.66-.55.17-.6.01-1.16.19s-.61,0-1.17.17-.5.35-1.05.53-.49.37-1.05.55-.55.21-1.1.38-.74-.41-1.29-.23-.54.23-1.09.4-.49.37-1.04.54-.46.5-1.01.67-.62-.03-1.18.14-.51.33-1.07.5-.7-.26-1.25-.09c-.39.12-.76.24-1.11.37-.38.14-.58.68-.9.83-.38.17-.71.32-1.01.5-.36.21-.77.28-1.03.51-.27.24-.44.54-.64.8-.22.28-.49.51-.63.81s.07.7,0,1.04c-.08.41-.18.71-.14,1.05.05.4.2.63.41.94.22.33.41.65.82.95.33.23.67.31,1.12.53.53.11.5.16,1.04.21s.54.16,1.08.21.5.39,1.04.47c.43.13.98-.2,1.28.02.35.25.29.84.46,1.19.14.28.19.57.21,1.03.02.34.06.69.01,1.12-.04.35.15.76.07,1.18-.11.58-.05.59-.16,1.16s-.55.49-.66,1.07.3.65.2,1.23-.41.52-.51,1.1-.12.57-.23,1.15-.03.59-.14,1.17-.1.58-.21,1.15.28.65.17,1.23-.65.48-.76,1.05.08.61-.03,1.19.19.63.08,1.21-.05.59-.16,1.17-.18.56-.29,1.14-.11.57-.22,1.15-.11.57-.22,1.15-.13.57-.24,1.15.05.61-.06,1.19-.42.52-.53,1.1-.16.57-.27,1.15-.31.54-.41,1.12-.13.57-.24,1.15.45.68.34,1.26-.61.48-.72,1.06.32.66.21,1.24-.03.6-.14,1.18-.68.48-.79,1.06.48.69.37,1.28c-.07.36-.13.72-.2,1.05-.09.36-.39.66-.49.96-.11.36-.2.72-.32,1.01-.16.36-.28.73-.46.97-.2.27-.6.41-.87.64-.26.21-.7.11-1.02.28-.29.15-.42.71-.76.83-.59.17-.67-.13-1.27.04s-.48.53-1.06.72c-.33.16-.87-.16-1.16.01-.32.19-.39.73-.66.94-.3.22-.75.25-.98.49-.34.34-.69.74-.9,1.17-.2.41-.42.9-.51,1.4-.07.39.46.78.47,1.12.02.39-.06.69.07,1.01.14.34.22.66.49.92.29.27.64.46,1.06.63.36.14.71.49,1.16.56.39.06.83-.14,1.29-.14.58,0,.58.27,1.15.27s.58-.17,1.15-.17.58-.03,1.15-.03.58.04,1.15.04.58.07,1.15.07.58-.27,1.15-.27.58.14,1.15.14.58-.12,1.15-.12.58.24,1.15.24.58-.4,1.15-.4.58.57,1.15.57.58-.22,1.15-.22.58-.14,1.15-.14.58.21,1.15.21.58.11,1.15.11.57-.21,1.15-.21.58-.07,1.15-.07.58.2,1.16.2.58-.22,1.15-.22.58.22,1.15.22.58-.24,1.16-.24.58.27,1.16.27.58-.13,1.15-.13.58-.37,1.15-.37.58.41,1.16.41.58.18,1.16.18.58-.54,1.16-.54.58.18,1.16.18c.38,0,.72-.11,1.06-.15.37-.04.7-.11,1.03-.19.36-.09.61-.32.93-.46.34-.15.64-.23.92-.44.33-.25.72-.36.97-.66s.46-.64.63-1,.55-.67.62-1.08c.06-.34-.44-.72-.44-1.03,0-.34.07-.63-.02-.93s-.25-.54-.44-.82c-.2-.3-.36-.57-.7-.78-.29-.18-.65-.16-1.05-.28-.33-.1-.61-.55-1.02-.61-.65-.08-.7.32-1.35.24s-.64-.15-1.29-.23-.61-.44-1.26-.52-.66-.01-1.31-.1c-.43-.05-.76-.26-1.1-.37-.41-.14-.73-.26-1.01-.48-.32-.25-.84-.35-1.01-.71-.17-.37.1-.91.05-1.4-.04-.4-.1-.82-.07-1.3.03-.41-.19-.89-.1-1.37.11-.57.33-.53.44-1.1s-.15-.62-.04-1.19.54-.49.65-1.06-.08-.61.03-1.18-.02-.6.09-1.17-.05-.6.06-1.17.05-.58.16-1.15.33-.53.44-1.1.24-.55.34-1.12.28-.54.39-1.11-.22-.63-.12-1.2.13-.57.24-1.14.06-.58.16-1.15.09-.58.19-1.15.1-.57.21-1.14.25-.55.36-1.12.16-.57.27-1.14.06-.58.17-1.16-.04-.6.07-1.18h-.03c.08-.42.59-.73.67-1.13s.07-.82.17-1.22.33-.76.43-1.15.02-.85.14-1.24,0-.88.13-1.26.75-.59.91-.96-.22-1-.04-1.36.74-.55.93-.9c.2-.37.42-.71.63-1.05s.36-.75.59-1.08.26-.85.51-1.16c.27-.33.96-.26,1.24-.55s.34-.82.64-1.09.55-.65.88-.88c.32-.23.73-.34,1.05-.52.34-.2.62-.53.97-.68s.75-.31,1.11-.41.81.01,1.19-.04.77,0,1.15,0,.67.24.99.3c.37.06.86-.37,1.15-.23.33.16.7.41.92.67.22.26.17.76.26,1.14.08.32.09.67.07,1.07,0,.33-.11.68-.18,1.06-.11.6,0,.62-.12,1.23s.06.64-.05,1.24c-.08.41-.64.75-.67,1.13-.03.42.58.81.61,1.19.04.41-.48.92-.37,1.28.11.39.58.66.78,1s.49.6.77.89c.26.27.4.7.73.92.31.2.67.39,1.04.55.34.14.75.12,1.14.22.35.09.75.02,1.14.08.36.05.73.18,1.13.21.37.02.75,0,1.15,0s.76-.18,1.14-.22.85.36,1.23.28.73-.35,1.1-.47.73-.27,1.09-.44.71-.32,1.05-.53.5-.63.81-.87.73-.32,1.02-.59c.28-.25.42-.63.68-.92s.54-.51.77-.83.21-.74.4-1.07.37-.62.54-.97.52-.58.66-.94.09-.76.21-1.12.17-.72.27-1.09.74-.59.83-.97-.35-.84-.28-1.22Z"/>
      <path class="cls-1" d="M325.69,175.48c-.52-.2-.51-.16-1.04-.32s-.45-.42-.98-.6c-.43-.18-.89-.3-1.15-.55-.31-.3-.63-.73-.71-1.14-.07-.33.32-.82.29-1.36-.02-.38-.1-.81-.1-1.3,0-.4-.12-.84-.1-1.32.08-.57.36-.52.46-1.09s-.09-.6.02-1.17.26-.54.36-1.1.1-.56.21-1.13.02-.58.12-1.14-.28-.63-.17-1.2.43-.5.54-1.07.3-.53.41-1.1-.18-.62-.07-1.18-.1-.6,0-1.17.14-.56.24-1.12.56-.48.67-1.05-.42-.66-.31-1.23.3-.53.41-1.09-.08-.6.03-1.16.61-.47.72-1.04.07-.57.17-1.14-.23-.62-.12-1.19-.11-.6-.01-1.17.43-.51.54-1.07.07-.57.17-1.14.35-.52.46-1.09-.11-.61,0-1.17.17-.56.27-1.12.16-.56.27-1.12.24-.54.35-1.11-.35-.65-.24-1.22.39-.52.5-1.09-.23-.63-.13-1.2.38-.52.46-1.1c.02-.4-.05-.81-.05-1.2s-.13-.8-.14-1.19.29-.82.26-1.21-.34-.77-.39-1.16.22-.85.15-1.23-.67-.67-.77-1.05.32-.92.2-1.29-.22-.79-.36-1.15-.74-.55-.92-.9-.09-.86-.3-1.19-.79-.42-1.02-.73c-.24-.33-.35-.73-.63-1.02s-.33-.85-.65-1.11-.84-.22-1.19-.44-.71-.34-1.09-.52-.75-.23-1.14-.37-.74-.24-1.14-.35-.67-.63-1.08-.71-.82.01-1.23-.04-.8-.11-1.21-.15-.79-.33-1.21-.35-.82.36-1.23.36-.78.14-1.18.16-.78.03-1.18.07-.8-.09-1.2-.04-.79.09-1.18.15-.73.38-1.12.47-.75.25-1.13.35-.92-.36-1.3-.25-.71.4-1.09.52-.75.28-1.12.41-.62.59-1,.74-.81.1-1.18.26-.81.14-1.18.3c-.36.16-.68.43-1.05.61s-.82.15-1.19.34-.65.5-1.01.7-.76.29-1.12.5-.58.6-.94.81-.67.45-1.02.67-.82.21-1.16.43-.52.68-.87.91-.69.43-1.03.65-.58.57-.92.8-.72.38-1.06.61-.98.37-1.32.61c-.08-.57.07-.65.18-1.21s.45-.51.55-1.08.31-.53.42-1.1.12-.57.22-1.14.01-.59.12-1.16c.08-.42-.4-.85-.4-1.22,0-.42.1-.76,0-1.12-.11-.39.04-.91-.2-1.22-.24-.32-.84-.23-1.21-.43-.33-.18-.62-.4-1.05-.48-.37-.07-.75.02-1.19.02-.37,0-.76-.31-1.15-.28-.37.03-.74.21-1.13.27-.37.05-.75.11-1.14.19-.32.06-.65.26-1.04.35-.33.08-.69.14-1.07.24-.33.09-.77-.1-1.14,0-.34.1-.72.11-1.09.22-.34.1-.69.22-1.06.34-.58.18-.61.11-1.19.29s-.45.61-1.03.79-.52.37-1.1.55-.61.08-1.2.26-.65-.02-1.23.16-.62.07-1.2.25-.45.59-1.03.77-.7-.18-1.28,0-.52.39-1.1.57-.55.3-1.13.48-.68-.1-1.26.08c-.39.13-.84.04-1.18.17-.38.15-.53.79-.86.94-.38.18-.69.35-1,.53-.36.22-1.03-.04-1.29.18-.27.23-.31.71-.51.97-.22.27-.65.45-.79.75s-.08.73-.15,1.07c-.08.41-.12.82-.08,1.17.05.4.06.89.27,1.21.22.33.9.31,1.31.61.33.23.65.35,1.1.56.53.11.48.43,1.02.48s.54.13,1.08.18.59-.31,1.13-.22c.43.13.75.48,1.05.69.35.25.45.61.63.97.14.28.34.56.36,1.02.02.34.3.74.25,1.17-.04.35-.26.72-.34,1.13-.11.58-.29.54-.4,1.12s.08.61-.03,1.19.1.61-.01,1.19-.08.58-.18,1.16-.71.47-.82,1.04-.05.59-.16,1.16.09.61-.01,1.19.22.64.12,1.22-.32.54-.43,1.12.05.61-.06,1.18-.56.49-.67,1.07-.11.58-.22,1.15.31.66.2,1.23-.13.57-.24,1.15-.29.54-.4,1.11-.02.59-.13,1.17-.22.56-.32,1.14.21.64.1,1.21-.2.56-.31,1.14-.05.59-.15,1.17-.21.56-.32,1.14.01.6-.1,1.18-.23.55-.33,1.13-.22.56-.33,1.14-.48.51-.59,1.09.43.68.32,1.27-.55.5-.66,1.08c-.07.37-.14.7-.22,1.02-.09.37-.12.7-.22,1.02-.11.37,0,.78-.13,1.07-.16.36-.29.71-.47.96-.2.28-.74.2-1.01.42s-.29.73-.61.89c-.29.15-.71-.01-1.06.09-.59.17-.59.15-1.19.31s-.58.22-1.17.41c-.33.16-.67.35-.96.52-.32.19-.39.71-.66.92-.3.22-.93.04-1.16.28-.34.34-.49.89-.7,1.33-.2.41-.06.94-.15,1.44-.07.39-.04.7-.03,1.04.02.39,0,.68.14,1,.14.34.3.57.57.83.29.27.59.46,1.01.63.36.14.72.26,1.17.33.39.06.78-.08,1.24-.08.58,0,.58.32,1.16.32s.58.05,1.16.05.58.2,1.16.2.58.02,1.16.02.58-.57,1.16-.57.58.51,1.16.51.58-.43,1.16-.43.58-.08,1.16-.08.58.58,1.16.58.58-.6,1.16-.6.58-.02,1.16-.02.58.22,1.16.22.58-.04,1.16-.04.58-.08,1.16-.08.58.19,1.16.19.58.33,1.17.33.58-.46,1.16-.46.58.3,1.16.3.58-.41,1.16-.41.58.54,1.17.54.58-.41,1.17-.41.59.28,1.17.28.59.06,1.17.06c.44,0,.89.03,1.28-.03.44-.06.7-.7,1.07-.84.41-.15.79-.18,1.12-.41s.7-.42.96-.75.42-.68.58-1.08c.15-.37.5-.71.58-1.14.07-.4-.13-.8-.17-1.16-.04-.39.09-.85-.08-1.19s-.56-.56-.85-.83c-.26-.25-.58-.45-.93-.67-.54-.21-.53-.22-1.08-.41s-.53-.24-1.07-.43c-.46-.19-.99-.2-1.29-.49-.33-.32-.45-.81-.57-1.26-.08-.29-.24-.63-.25-1.04,0-.32.24-.66.28-1.05.03-.33-.33-.73-.28-1.1.05-.33.67-.59.74-.96.11-.57-.11-.61,0-1.18s-.03-.59.07-1.16.32-.53.42-1.1.21-.55.32-1.12-.1-.61,0-1.18.04-.58.15-1.15.31-.53.41-1.1-.11-.61,0-1.18.33-.53.43-1.1-.13-.62-.03-1.19.37-.52.48-1.09-.02-.59.09-1.16-.26-.64-.15-1.21.51-.5.62-1.07.28-.54.39-1.11-.42-.67-.32-1.24.28-.54.39-1.11.01-.59.12-1.16.09-.57.2-1.14-.03-.6.08-1.17.19-.56.3-1.13.29-.54.4-1.11.11-.57.22-1.14.38-.52.49-1.09-.42-.67-.31-1.24.22-.55.32-1.13.05-.59.16-1.16.1-.61.31-1.16c.32-.23.6-.66.92-.88s.87-.12,1.2-.33.45-.77.78-.97.72-.35,1.06-.54c.35-.2.87-.07,1.21-.25s.67-.42,1.02-.58c.36-.17.77-.21,1.12-.35.35-.14.69-.3,1.03-.42s.61-.57.97-.67.83.2,1.19.12.72-.2,1.08-.26.71-.38,1.08-.41.76.19,1.13.19c.41,0,.82-.24,1.2-.21.41.04.73.53,1.1.6.4.08.81,0,1.16.12.38.14.79.18,1.12.37.35.2.78.32,1.06.58s.62.56.85.89c.21.31.21.78.38,1.14.16.33.17.73.29,1.11.11.35.03.75.11,1.14.08.36.47.68.51,1.08.04.37.06.76.08,1.15.02.37.08.76.08,1.16,0,.38.01.78,0,1.18-.09.58-.11.58-.23,1.15s-.26.54-.38,1.12-.17.56-.28,1.13-.07.58-.18,1.15.04.6-.08,1.17-.08.58-.2,1.15-.54.49-.66,1.06,0,.59-.12,1.17-.24.55-.35,1.12.1.62-.02,1.19.17.63.05,1.2-.6.47-.71,1.04.47.69.36,1.26-.52.49-.64,1.07-.13.57-.24,1.14-.02.59-.13,1.17.18.63.06,1.21-.67.46-.79,1.04.22.64.1,1.21.03.6-.09,1.17-.24.55-.36,1.13.06.61-.06,1.19-.1.58-.22,1.16-.34.53-.44,1.11c-.02.36-.15.69-.19,1.01-.05.36-.33.64-.41.95-.09.36.33.86.2,1.15-.15.34-.35.7-.55.94-.23.27-.7.34-.99.57s-.59.39-.91.56c-.31.16-.65.24-1,.36-.63.19-.6.29-1.24.47s-.59.33-1.22.54c-.42.2-1.04-.04-1.39.19-.38.26-.32,1-.6,1.31-.3.33-1.04.35-1.23.74s-.03.94-.12,1.38c-.08.41-.03.78-.02,1.13,0,.41-.16.83-.04,1.16.13.37.38.73.65.99.26.24.68.32,1.06.47.32.12.7.06,1.11.12.35.05.7.16,1.11.16.58,0,.58-.04,1.17-.04s.58-.16,1.17-.16.58.47,1.17.47.58-.17,1.17-.17.58,0,1.17,0,.58.03,1.17.03.58-.26,1.17-.26.58.2,1.17.2.58-.16,1.17-.16.58.09,1.17.09.58-.24,1.16-.24.58.02,1.17.02.59.23,1.17.23.58-.19,1.17-.19.58-.06,1.17-.06.59.57,1.17.57.59-.28,1.17-.28.59.28,1.17.28.58-.09,1.17-.09.59-.41,1.17-.41.59.26,1.18.26.59-.09,1.18-.09.59-.2,1.18-.2c.36,0,.68.03,1.01-.01.36-.04.79.42,1.11.34.35-.09.48-.75.79-.89.32-.14.65-.16.93-.36.35-.24.71-.4.97-.71s.56-.61.72-.99c.16-.36.07-.8.15-1.22.09-.47-.03-.85-.08-1.24-.05-.46.05-.86-.18-1.22-.23-.35-.45-.75-.82-1.07-.32-.28-.81-.23-1.23-.48Z"/>
      <path class="cls-1" d="M392.89,161.77c-.2-.29-.53-.5-.84-.64-.28-.12-.64-.25-1.02-.25-.31,0-.62.26-.96.35-.3.08-.55.29-.87.44-.27.12-.74-.04-1.06.16-.26.16-.49.45-.78.67-.26.19-.46.47-.74.7-.26.29-.44.66-.72.93s-.65.45-.94.72-.47.65-.77.9-.92.09-1.23.32-.29.92-.61,1.15-.92.01-1.25.23-.54.6-.88.8-.67.4-1.01.58-.65.44-1,.62c-.35.17-.69.38-1.04.54s-.76.21-1.12.35-.82-.01-1.2.11-.63.59-1.01.7-.85-.23-1.23-.14-.66.63-1.05.7-.78.12-1.16.17-.77.15-1.16.18-.79-.09-1.18-.08-.78.01-1.17.01-.8.08-1.19.06-.78-.29-1.17-.32-.78-.15-1.16-.2-.75-.27-1.13-.34-.78-.08-1.16-.17-.88.21-1.25.09-.67-.49-1.03-.64-.66-.43-1.01-.6-.91.04-1.25-.16-.59-.57-.91-.79-.82-.24-1.12-.49-.62-.52-.91-.79-.37-.76-.64-1.05-.64-.5-.88-.81c-.25-.32-.56-.62-.78-.96s-.04-.91-.24-1.27-.43-.68-.59-1.05-.43-.69-.56-1.08,0-.83-.1-1.23-.38-.73-.46-1.13.01-.81-.04-1.22-.1-.79-.13-1.2-.15-.79-.16-1.2-.41-.8-.4-1.22.31-.74.33-1.16c.56-.19.57.2,1.17.2s.59-.29,1.19-.29.59-.2,1.19-.2.59.03,1.18.03.59.47,1.18.47.59-.53,1.19-.53.59.2,1.19.2.59-.18,1.19-.18.59.52,1.19.52.59-.04,1.19-.04.59-.33,1.19-.33.59-.22,1.19-.22.59.33,1.19.33.59-.03,1.19-.03.59.25,1.19.25.59-.22,1.19-.22.59.07,1.18.07.59.06,1.18.06.59.14,1.19.14.6-.46,1.19-.46.59.29,1.19.29.59-.34,1.19-.34.6.26,1.19.26.6-.09,1.19-.09.59-.13,1.19-.13.59.32,1.19.32.6-.27,1.19-.27.6.33,1.2.33.6-.53,1.2-.53.6.55,1.2.55c.43,0,.86.04,1.27,0s.8-.53,1.2-.59.89.18,1.29.09.69-.62,1.08-.75.84-.1,1.21-.27.94-.03,1.29-.24.53-.73.86-.98c.32-.25.57-.55.86-.84s.47-.63.72-.95.45-.63.66-.97.79-.48.96-.85.18-.8.32-1.19.27-.76.37-1.16.46-.73.54-1.13c.07-.38-.25-.82-.2-1.19s-.03-.77,0-1.14.07-.75.09-1.13.19-.75.19-1.13,0-.76-.02-1.14-.3-.73-.35-1.1-.18-.72-.26-1.09.41-.87.32-1.24-.38-.69-.5-1.05-.28-.71-.42-1.06-.6-.55-.77-.9c-.16-.34-.14-.76-.33-1.08s-.21-.75-.41-1.07-.51-.57-.73-.87-.28-.74-.52-1.03-.61-.48-.87-.75-.46-.62-.73-.87-.71-.33-1-.57-.61-.43-.92-.65-.47-.64-.78-.85-.79-.15-1.11-.34-.63-.38-.97-.56c-.34-.18-.76-.21-1.11-.38s-.67-.4-1.03-.55-.74-.21-1.12-.34-.74-.21-1.12-.32-.65-.55-1.04-.65-.72-.39-1.11-.47-.77-.17-1.16-.24-.79-.04-1.18-.09-.84.41-1.23.37-.76-.23-1.15-.26-.75-.43-1.15-.45-.8.43-1.2.42-.78-.13-1.18-.13-.76.13-1.14.14-.77-.31-1.15-.29-.76.18-1.14.2-.76.05-1.14.08-.75.19-1.13.23-.76.05-1.14.1-.8-.2-1.18-.14-.78.02-1.15.09-.76.15-1.13.23-.77.09-1.14.17-.64.61-1,.71-.68.39-1.04.49-.76.12-1.12.24-.79.04-1.15.17-.76.15-1.11.29-.54.68-.89.83-.85-.04-1.19.12-.6.52-.94.69c-.35.18-.64.46-.98.64s-.83.11-1.17.3-.8.19-1.14.39-.39.86-.71,1.08-.65.43-.97.65-.99-.04-1.3.19-.44.72-.75.96-.79.27-1.09.52-.48.65-.77.91-.6.51-.89.77-.69.43-.96.7-.19.91-.46,1.19-.47.62-.73.92-.8.34-1.05.64-.56.56-.8.87-.22.82-.45,1.13c-.23.32-.61.53-.83.85s-.58.56-.8.89-.3.74-.51,1.07-.15.82-.34,1.16-.53.6-.71.95-.53.61-.7.96-.17.79-.34,1.14-.13.79-.28,1.15-.27.73-.41,1.09-.85.52-.98.89-.21.76-.33,1.14-.04.81-.15,1.19.11.84,0,1.22-.4.7-.5,1.08-.02.79-.1,1.18-.61.68-.68,1.06c-.07.38-.14.76-.2,1.13s.31.82.26,1.19-.12.75-.16,1.13-.26.74-.29,1.12.04.77.03,1.15-.13.76-.14,1.14.32.76.33,1.14-.06.76-.04,1.14.12.75.16,1.12-.01.76.04,1.14.24.73.31,1.1.03.76.12,1.13.07.76.18,1.13-.14.85-.02,1.21.77.53.91.89c.14.37-.12.91.04,1.26s.33.73.51,1.08.42.68.62,1.02.62.55.83.88.48.62.72.93.12.91.37,1.21.83.33,1.1.62.33.78.61,1.06.57.56.87.82.66.45.97.7.63.48.96.7.86.11,1.2.33.38.89.73,1.08c.33.19.76.21,1.1.38s.81.07,1.15.23.7.25,1.06.4.67.34,1.02.48.7.26,1.06.37.71.22,1.08.33.72.22,1.09.31.76.02,1.14.1.67.46,1.05.53.74.18,1.12.23.72.31,1.1.35.75.11,1.14.14.8-.5,1.18-.47.72.56,1.1.58.77-.4,1.16-.4.75-.07,1.14-.07.8.58,1.19.57.77-.62,1.16-.64.78-.05,1.17-.08.8.16,1.19.12.78-.12,1.17-.17.77-.17,1.16-.23.81.07,1.19,0,.84.19,1.22.11.68-.61,1.06-.7.84.11,1.22,0,.64-.61,1.02-.72.92.28,1.29.16.61-.65.97-.78.83-.02,1.2-.17c.37-.15.76-.25,1.11-.41s.75-.28,1.1-.45.46-.85.81-1.03.76-.23,1.1-.42.75-.28,1.08-.47.66-.43.99-.64.8-.22,1.12-.45.52-.64.83-.87.79-.27,1.1-.51.5-.64.8-.89.57-.54.85-.81.6-.51.87-.79c.28-.29.6-.53.87-.82s.33-.77.58-1.07.62-.53.85-.84.38-.71.6-1.03.64-.53.85-.87.06-.88.24-1.23.88-.45,1.05-.8.13-.82.28-1.19.15-.79.27-1.16.44-.7.54-1.09c.09-.49.24-.96.23-1.34-.02-.51-.27-1-.48-1.31ZM353.49,137.34c.21-.32.37-.66.59-.97s.49-.58.73-.87.31-.73.56-1.01.43-.65.69-.92.8-.26,1.08-.52.49-.58.79-.81.54-.54.85-.75.57-.53.89-.72c.35-.21.76-.29,1.11-.47s.65-.51,1.02-.66.91.19,1.29.07.61-.78.99-.87.87.33,1.27.27.75-.33,1.15-.36.79-.06,1.19-.06c.38,0,.76-.08,1.12-.05.38.03.76.03,1.12.1.37.07.72.25,1.07.35s.6.5.93.65.84-.03,1.15.16.36.75.65.98.88.12,1.13.39.5.56.72.87c.22.3.49.61.68.95s.21.75.35,1.11.24.72.34,1.09.25.72.31,1.11-.15.77-.13,1.16-.04.74-.05,1.13c0,.37-.18.72-.21,1.11s0,.74-.05,1.13.31.81.24,1.19c-.08.42-.44.75-.57,1.1-.15.39-.46.64-.69.95-.24.33-.21.92-.54,1.15s-.78.28-1.18.42c-.36.13-.71.51-1.13.57-.38.06-.82.08-1.25.08-.57,0-.57-.28-1.15-.28s-.57.15-1.15.15-.57.07-1.15.07-.57-.44-1.15-.44-.57.07-1.15.07-.57.13-1.14.13-.57-.26-1.14-.26-.57.19-1.14.19-.57-.16-1.15-.16-.57,0-1.15,0-.57.09-1.15.09-.58.39-1.15.39-.57-.34-1.15-.34-.57-.2-1.15-.2-.57.29-1.15.29-.58.2-1.15.2-.58-.03-1.15-.03-.58-.47-1.16-.47-.7.71-1.24.51c.09-.39.22-1.02.32-1.4s.03-.82.14-1.2.73-.61.85-.98.23-.76.37-1.12-.02-.86.14-1.22.13-.83.31-1.18.66-.56.85-.9.5-.62.71-.95Z"/>
      <path class="cls-1" d="M456.55,141.83c.28-.25.28-.8.53-1.09s.58-.5.8-.81.16-.78.36-1.11.32-.65.49-1,.38-.63.53-.99.78-.52.9-.88.04-.78.14-1.16.16-.74.25-1.12-.14-.8-.07-1.18c.07-.38.31-.73.36-1.09s.07-.77.1-1.14c.04-.39.15-.76.17-1.13.02-.39-.03-.77-.04-1.14,0-.39-.27-.75-.31-1.11-.04-.39-.11-.74-.18-1.1-.07-.38.2-.83.1-1.18-.11-.37-.02-.83-.17-1.17s-.83-.43-1.03-.75-.05-.88-.29-1.17c-.25-.31-.43-.73-.72-1s-.74-.39-1.07-.62-.66-.45-1.02-.64-.86,0-1.23-.15-.69-.35-1.08-.46c-.37-.1-.72-.34-1.12-.42-.38-.07-.8.15-1.21.1s-.74-.56-1.15-.58-.8.03-1.21.03-.82-.13-1.22-.1-.77.46-1.17.51-.85-.24-1.25-.17-.74.44-1.13.53-.79.14-1.18.25-.82.09-1.2.22-.76.28-1.13.44-.74.32-1.11.49-.68.44-1.04.63-.59.59-.94.79c-.33.2-.79.19-1.11.4s-.7.35-1.02.58-.45.68-.76.92-.52.56-.82.82-.89.17-1.17.44-.51.6-.78.88-.56.54-.82.84-.51.58-.76.89-.28.77-.52,1.08-.28.75-.51,1.07-.92.31-1.14.63.09.98-.12,1.31c-.24.38-.99.64-1.22,1.03-.07-.62.41-.64.47-1.26s.17-.61.24-1.23.04-.62.1-1.23.01-.62.08-1.24.13-.61.19-1.23-.15-.64-.09-1.27-.05-.63.02-1.25c.03-.38.42-.71.42-1.04,0-.38-.12-.74-.14-1.06-.03-.39-.18-.72-.26-1.03-.1-.39-.34-.63-.51-.87-.28-.39-.55-.75-1.01-.93-.4-.16-.87-.06-1.41-.06-.3,0-.66-.49-1.03-.45-.31.03-.57.64-.92.7-.31.05-.73-.39-1.08-.32-.36.07-.72.39-1.15.5-.37.09-.76.21-1.18.33-.37.11-.74.31-1.16.44-.38.12-.75.28-1.16.42-.55.17-.58.08-1.13.25s-.64-.11-1.2.07-.44.54-.99.71-.68-.24-1.24-.07-.41.64-.97.81-.56.17-1.11.34-.54.23-1.09.41-.6.03-1.15.2-.56.17-1.11.34-.53.26-1.09.43-.63-.06-1.19.11-.58.11-1.14.28c-.39.12-.81.1-1.16.23-.38.14-.73.37-1.06.52-.38.17-.52.73-.83.91-.36.21-.81.23-1.07.46-.27.24-.64.4-.84.66-.22.28-.03.8-.17,1.1s-.41.55-.48.89c-.08.41.18.75.23,1.09.05.4.13.62.34.93.22.33.29.79.71,1.09.33.23.73.3,1.18.52.53.11.53-.03,1.07.02s.51.49,1.05.54.55-.06,1.09.02c.43.13.83.18,1.13.39.35.25.39.67.56,1.03.14.28.39.55.41,1.01.02.34-.15.69-.2,1.12-.04.35-.09.72-.17,1.13-.11.58-.02.59-.13,1.17s.27.65.17,1.22-.44.51-.55,1.09-.31.54-.41,1.12.17.63.06,1.21.09.61-.02,1.19-.14.57-.25,1.15-.57.49-.68,1.07.41.67.3,1.25-.31.54-.42,1.12.07.61-.04,1.19-.62.48-.72,1.06-.07.58-.18,1.16.22.64.11,1.21.11.62,0,1.19-.44.51-.54,1.09-.08.58-.18,1.16-.36.53-.47,1.11.11.62,0,1.19-.17.57-.28,1.15-.17.57-.28,1.14-.25.55-.36,1.13.34.66.24,1.24-.4.53-.51,1.11.23.64.12,1.22-.36.53-.47,1.12-.02.6-.13,1.18c-.07.36-.01.74-.09,1.06-.09.36-.49.61-.58.92-.11.36.02.78-.11,1.07-.16.36-.61.48-.79.73-.2.27-.06.89-.34,1.12-.26.21-.85-.05-1.17.12-.29.15-.58.22-.92.34-.59.17-.46.61-1.05.78s-.69-.17-1.27.02c-.33.16-.45.72-.74.89-.32.19-.7.22-.97.42-.3.22-.82.18-1.06.42-.34.34-.36.94-.58,1.38-.2.41-.28.86-.37,1.36-.07.39,0,.72.01,1.06.02.39.09.66.22.98.14.34,0,.87.26,1.13.29.27.77.38,1.19.55.36.14.77.26,1.22.33.39.06.81.36,1.27.36.58,0,.58-.39,1.15-.39s.58-.13,1.15-.13.58.01,1.15.01.58.17,1.15.17.58.03,1.15.03.58-.24,1.15-.24.58-.08,1.15-.08.58.58,1.15.58.58-.18,1.15-.18.58-.03,1.15-.03.58-.34,1.15-.34.58.21,1.15.21.58.2,1.15.2.58-.1,1.15-.1.58.23,1.15.23.57-.14,1.15-.14.58.11,1.15.11.58-.23,1.16-.23.58-.05,1.15-.05.58.25,1.15.25.58-.3,1.16-.3.58.02,1.16.02.58-.15,1.15-.15.58.1,1.15.1.58-.07,1.16-.07.58-.04,1.16-.04.58.35,1.16.35.58.2,1.16.2c.38,0,.77-.01,1.11-.05.37-.04.74-.2,1.08-.28.36-.09.52-.69.83-.83.34-.15.67-.18.95-.39.33-.25.88-.26,1.12-.55s.07-.88.23-1.25.38-.65.45-1.05c.06-.34-.03-.64-.04-.96,0-.34.27-.69.19-1s-.36-.55-.54-.83c-.2-.3-.44-.54-.79-.75-.29-.18-.65-.21-1.05-.33-.33-.1-.67-.21-1.08-.26-.65-.08-.61-.38-1.26-.47s-.64-.18-1.28-.27-.65-.08-1.3-.16-.64-.16-1.29-.24c-.43-.05-.89.3-1.23.18-.41-.14-.91-.18-1.2-.4-.32-.25-.56-.71-.73-1.07-.17-.37-.09-.89-.15-1.38-.04-.4.07-.84.1-1.33.03-.41-.33-.92-.25-1.4.11-.57.48-.5.58-1.07s-.11-.61,0-1.18,0-.59.1-1.16.4-.52.51-1.09.34-.53.45-1.1-.42-.67-.31-1.24.1-.57.2-1.14.69-.46.8-1.03-.2-.63-.09-1.2.38-.52.48-1.09-.08-.61.03-1.18.13-.57.24-1.14.27-.54.38-1.11-.38-.66-.28-1.24.03-.59.13-1.16.49-.5.6-1.08.19-.56.29-1.13-.21-.64-.1-1.21.29-.54.4-1.12c.08-.41.32-.78.41-1.17s.04-.84.14-1.23-.08-.88.03-1.27.39-.75.52-1.14.44-.72.58-1.1.12-.84.28-1.21.14-.85.32-1.21.35-.77.54-1.12c.2-.37.94-.41,1.15-.75s.39-.72.62-1.04.32-.79.57-1.1c.27-.33.29-.86.57-1.15s.74-.44,1.04-.71.55-.66.87-.9c.32-.23.9-.05,1.22-.24.34-.2.67-.36,1.01-.51s.58-.69.94-.79.78-.17,1.16-.23.79.11,1.18.11.73-.06,1.05-.01c.37.06.68.27.97.4.33.16.84.14,1.06.39.22.26.36.72.45,1.1.08.32.18.73.17,1.13,0,.33-.15.71-.23,1.1-.11.6,0,.63-.11,1.23s-.23.58-.34,1.19c-.08.41-.24.78-.26,1.16-.03.42-.4.84-.37,1.22.04.41.64.71.75,1.08.11.39-.14.93.05,1.27s.46.71.74,1c.26.27.62.51.95.72.31.2.77.17,1.14.32.34.14.7.2,1.09.31.35.09.64.61,1.04.67.36.05.8-.32,1.2-.29.37.02.75.34,1.15.34s.81,0,1.19-.04.79-.18,1.16-.26.77-.19,1.14-.31.58-.63.94-.8.95.14,1.29-.06.56-.59.88-.83.75-.33,1.05-.6Z"/>
      <path class="cls-1" d="M517.16,122.05c-.01-.41-.36-.76-.41-1.1-.06-.41.2-.87.09-1.19-.14-.4-.67-.51-.89-.77-.29-.33-.58-.45-1-.6-.38-.14-.7-.79-1.18-.79s-1.02.15-1.43.3c-.43.16-.57.79-.91,1.12-.32.31-.96.29-1.26.59s-.45.8-.74,1.11c-.28.3-.54.6-.86.76-.34.16-.75.19-1.14.19-.36,0-.88.11-1.33-.09-.34-.15-.52-.73-.91-1-.28-.19-.78-.09-1.16-.28-.32-.16-.58-.48-.97-.64-.33-.14-.8,0-1.18-.13-.34-.13-.51-.82-.89-.95-.34-.12-.83.15-1.23.06-.36-.09-.67-.55-1.07-.61-.37-.06-.79.11-1.2.06-.37-.04-.76-.04-1.17-.07-.37-.03-.76-.2-1.16-.22-.38-.02-.78.13-1.18.12-.38,0-.77.06-1.17.06-.38,0-.75-.01-1.13,0s-.76-.15-1.14-.13-.73.43-1.1.46-.79-.41-1.16-.37-.72.36-1.09.4-.72.29-1.08.34-.73.12-1.1.19-.77-.03-1.14.04-.76.06-1.12.15-.65.47-1.01.57-.8-.06-1.16.05-.63.47-.98.6-.7.25-1.05.38c-.36.14-.71.3-1.06.45s-.88-.06-1.23.1-.75.26-1.09.43-.52.67-.85.86-.65.41-.98.61-.7.33-1.02.55-.52.6-.83.83-.61.46-.91.7-.77.29-1.05.55-.58.52-.85.79-.48.61-.74.9c-.27.29-.43.67-.68.97s-.42.66-.65.97-.41.65-.63.98-.52.59-.72.93-.8.46-.98.81-.35.72-.51,1.08-.21.78-.35,1.15-.33.73-.44,1.11.22.88.13,1.26-.07.77-.15,1.16c-.07.38-.22.72-.27,1.08s-.6.7-.64,1.06.33.78.32,1.15-.14.76-.12,1.12.35.72.39,1.09.13.72.2,1.08.07.73.17,1.09-.29.89-.16,1.24.48.63.64.97c.16.33.37.65.57.97s.65.45.87.76.3.69.54.98.51.53.78.79.46.58.74.83.59.44.89.68.72.25,1.03.46.61.39.93.59.44.7.77.89c.34.19.58.59.94.78s.96-.16,1.32,0,.53.72.9.88c.35.17.65.47,1.03.65.36.17.81.16,1.18.34s.72.35,1.1.53.89,0,1.26.17.7.43,1.07.6.68.48,1.05.65.86.08,1.23.25.55.78.91.95c.38.18.78.29,1.14.46.39.18.71.47,1.05.63.4.18.95-.02,1.28.13.45.2.68.69.96.82.37.17.84.07,1.17.24.36.19.67.42.98.62.34.21.57.55.86.78.32.25.6.49.85.75.28.29.5.58.69.88.19.31.43.57.55.89s.46.63.52.97-.15.73-.16,1.09-.15.67-.21,1.03c-.07.38.09.82-.05,1.18s-.22.77-.41,1.11-.79.38-1.04.69c-.23.29-.42.6-.71.88-.27.26-.57.47-.88.72-.29.23-.6.44-.93.65-.31.2-.51.62-.86.79-.33.17-.61.53-.98.67-.35.13-.89-.29-1.27-.18-.36.11-.58.79-.96.87-.37.08-.76.13-1.15.19s-.8-.23-1.2-.18-.76-.03-1.15,0-.75.07-1.15.09-.76.07-1.15.07-.75-.07-1.12-.08-.77.18-1.14.16-.77.05-1.14,0-.7-.47-1.07-.52-.76-.02-1.12-.09-.76-.07-1.12-.16-.76-.08-1.12-.19c-.4-.12-.75-.38-1.14-.53s-.85-.15-1.22-.32-.52-.81-.88-1.01-1.01.09-1.36-.13-.41-.87-.75-1.11-.8-.31-1.12-.57c-.31-.25-.62-.51-.92-.79s-.64-.5-.93-.8-.58-.57-.85-.88-.44-.69-.69-1.02-.24-.82-.47-1.16-.77-.46-.99-.81-.05-.92-.26-1.28c-.24-.37-.9-.44-1.17-.75-.29-.33-.57-.61-.9-.88s-.7-.44-1.07-.65-.68-.5-1.09-.64c-.33-.11-.66-.21-1.01-.27s-.69-.02-1.04-.04-.69-.26-1.05-.24-.72,0-1.07.07-.74,0-1.09.1c-.4.13-.8.37-1.14.55-.37.19-.47.77-.77,1.03s-.76.38-.99.71-.57.63-.73,1.01c-.14.35.16.85.07,1.24-.08.36-.32.7-.35,1.1-.03.37.24.74.25,1.14.01.37.04.73.08,1.13.04.37-.18.79-.1,1.18.12.55.27.52.4,1.07s.2.54.32,1.09-.31.65-.19,1.2.2.53.32,1.09.26.52.38,1.08-.13.61,0,1.17.31.51.44,1.07-.02.59.1,1.14c.07.37.15.72.23,1.04.1.36.3.69.42.99.14.35.64.47.81.74.21.32.17.77.43.97.29.22.54.6.88.75s.78-.02,1.16.04c.34.06.71-.11,1.09-.11s.7.01,1.04-.04c.37-.05.84.31,1.16.2.35-.12.43-.75.71-.95.38-.26.85-.35,1.2-.61.37-.28.59-.69.92-.97.32-.27.91-.03,1.3-.16s.68-.22,1.11-.22.88-.3,1.35-.22c.42.07.92-.05,1.37.07.41.11.74.57,1.19.73.35.13.73.22,1.12.34.36.11.66.47,1.05.59.36.11.8,0,1.19.11.37.1.73.26,1.12.36.37.09.74.25,1.13.34.34.08.69.3,1.06.37.35.06.79-.33,1.17-.28.35.05.68.39,1.06.43.36.04.76-.27,1.14-.24s.71.31,1.09.33.73-.05,1.11-.04.74-.11,1.12-.11.73.33,1.11.33.78-.27,1.17-.28.79.32,1.18.31.76-.56,1.15-.57.81.51,1.2.49.79,0,1.17-.03.74-.53,1.13-.56.81.24,1.19.2.72-.52,1.1-.57.8.08,1.18.02.84.26,1.22.19.71-.47,1.09-.54.75-.22,1.13-.31.73-.27,1.11-.37.75-.21,1.12-.32.87.2,1.24.09.69-.4,1.06-.52.74-.25,1.1-.39.84-.04,1.19-.19.56-.67.9-.84.64-.46.98-.64.68-.36,1.02-.55.75-.25,1.08-.45c.33-.21.66-.4.97-.61s.49-.64.79-.86.56-.52.85-.76.97-.05,1.25-.3.46-.65.73-.91.53-.56.79-.84.27-.79.51-1.08.65-.45.88-.75.62-.5.83-.82.34-.7.53-1.03.59-.56.77-.9.22-.76.38-1.1.41-.67.54-1.03.04-.8.16-1.17.17-.74.26-1.12.42-.69.49-1.07c.07-.37-.16-.79-.11-1.16s.11-.74.14-1.11-.1-.75-.1-1.12.1-.74.08-1.11-.12-.73-.17-1.1-.14-.72-.21-1.08.17-.81.07-1.16-.04-.79-.17-1.14-.29-.72-.46-1.05c-.18-.36-.47-.69-.69-1.07-.2-.34-.86-.4-1.12-.76-.23-.32-.36-.72-.65-1.05-.26-.3-.28-.86-.61-1.16-.29-.27-.91-.19-1.25-.47-.31-.25-.56-.59-.92-.84,0,0-.07.08-.06.08-.26-.2-.34-.65-.62-.85s-.64-.25-.93-.44-.57-.35-.86-.53c-.33-.19-.74-.28-1.1-.47-.34-.18-.68-.39-1.04-.57s-.58-.62-.95-.79-.68-.42-1.06-.58-.74-.3-1.11-.45-.71-.37-1.09-.51-.9.14-1.28,0-.81-.08-1.19-.22-.71-.36-1.1-.48-.68-.45-1.07-.57-.72-.35-1.11-.47-.88.18-1.27.07-.66-.58-1.05-.69-.82,0-1.22-.11c-.38-.1-.77-.08-1.1-.18-.38-.11-.64-.51-.97-.63-.37-.13-.62-.48-.94-.62-.36-.15-.91.18-1.23.02-.34-.17-.68-.34-.99-.52s-.33-.88-.65-1.07c-.33-.19-.79-.12-1.07-.32-.31-.22-.4-.65-.65-.88-.28-.26-.64-.37-.85-.63-.23-.3-.38-.6-.51-.91-.16-.37-.1-.76-.17-1.18-.07-.39-.59-.76-.58-1.18.01-.39-.02-.85.06-1.27.07-.37.57-.64.74-.99s.42-.6.66-.91.23-.8.5-1.08.67-.4.97-.65.69-.36.99-.59.53-.58.84-.79c.31-.22.49-.67.83-.85s.76-.19,1.12-.33.77-.07,1.14-.18.68-.37,1.07-.44c.36-.07.72-.34,1.11-.39s.76-.12,1.15-.15.79.56,1.18.54c.35-.01.69-.06,1.09-.04.36.02.74-.14,1.12-.09.36.05.79-.22,1.17-.14s.69.37,1.05.47.78.05,1.13.17.55.68.89.83.67.3.99.48c.34.18.88.02,1.17.22.3.21.59.47.87.72s.41.64.68.91.57.48.81.78.37.64.59.95.69.43.89.75.31.68.5,1.02.41.62.59.96.24.71.4,1.06.41.62.56.97c.2.39.29.78.51,1.11.24.37.38.76.64,1.06.28.33.32.91.62,1.16.33.28.98.06,1.34.25.31.16.46.7.79.8s.71.18,1.05.21.72-.01,1.07-.04.64-.32.99-.41c.38-.09.69-.25,1.01-.38.35-.15.91.05,1.19-.16.3-.22.28-.79.5-1.08s.65-.48.78-.83c.13-.34.26-.75.35-1.17.08-.36.06-.78.12-1.2.05-.37.08-.77.1-1.19.02-.38-.36-.79-.35-1.21,0-.38.56-.79.55-1.21-.03-.55-.23-.54-.26-1.09s-.34-.53-.37-1.09-.09-.55-.13-1.1.04-.56,0-1.11-.03-.55-.06-1.1-.03-.55-.07-1.11-.01-.56-.05-1.11-.24-.57-.23-1.13.42-.56.39-1.11Z"/>
      <path class="cls-1" d="M144.23,127.87c-.29-.25-.5-.62-.82-.86s-.56-.56-.9-.78-.76-.25-1.11-.45-.64-.46-1-.64-.72-.32-1.08-.47-.76-.21-1.13-.35-.72-.29-1.1-.41-.69-.42-1.08-.52-.8-.04-1.19-.13-.82.13-1.21.06-.69-.61-1.09-.66-.84.43-1.23.39-.76-.25-1.16-.28-.78-.13-1.18-.15-.78-.17-1.18-.17-.79.28-1.18.29-.8-.26-1.19-.25-.8-.12-1.19-.1-.78.32-1.17.35-.78.19-1.17.22-.77.17-1.16.21-.83-.31-1.21-.26-.72.58-1.1.64-.82-.16-1.21-.09-.74.31-1.12.39-.76.16-1.14.25-.86-.22-1.24-.12-.8.08-1.17.18-.71.4-1.07.52c-.4.13-.7.52-1.08.65s-.73.41-1.1.55-.75.32-1.12.47-.88.03-1.25.19-.85.16-1.2.34-.56.7-.91.9-.8.26-1.14.47-.62.56-.95.79-.76.36-1.07.6-.4.79-.7,1.06c-.31.27-.63.49-.91.74-.3.28-.63.5-.89.77-.29.3-.77.39-1.01.68-.26.31-.23.81-.44,1.13s-.72.49-.89.84.07.86-.05,1.24-.13.72-.21,1.12c-.07.37-.71.64-.73.98-.02.37.04.76.07,1.1.03.36.56.62.66.95s-.19.84-.01,1.15.58.47.82.74c.24.26.55.41.87.62.29.19.57.4.92.54.32.13.71.01,1.08.11.33.08.6.56.97.62.34.05.73-.26,1.11-.23.35.02.7.21,1.08.21s.73-.32,1.09-.34c.38-.02.8.54,1.16.5.38-.05.69-.49,1.04-.56s.83.21,1.18.11.65-.45.99-.59.66-.34.98-.52.72-.26,1.02-.47c.32-.23.53-.61.81-.87s.48-.6.72-.91.47-.6.67-.94.52-.6.67-.97-.1-.84.02-1.22.65-.63.72-1.02c.11-.61-.16-.66-.04-1.28.07-.39.02-.86.18-1.22s.39-.75.64-1.06c.23-.3.66-.49.97-.75.28-.24.67-.39,1.02-.6.34-.21.59-.66.97-.83s.86-.03,1.26-.14c.38-.11.73-.44,1.15-.51.39-.06.82-.11,1.24-.14.39-.03.82-.05,1.24-.05.38,0,.73.43,1.08.46.38.03.71.17,1.05.24.37.07.8-.18,1.13-.08.36.12.72.24,1.03.4.33.17.59.46.87.67s.7.36.93.63c.25.3.49.71.66,1.11.15.36.02.85.11,1.27.08.39.13.79.17,1.21.03.4.14.81.13,1.22s.09.83.05,1.25-.02.85-.09,1.25c-.11.61-.07.62-.18,1.23s-.24.59-.35,1.2-.58.52-.69,1.13-.11.61-.23,1.23-.01.63-.13,1.25-.18.6-.3,1.22.47.8.2,1.37c-.33-.08-.9.04-1.25-.04s-.64-.23-.99-.3-.58-.63-.93-.69-.74.27-1.09.22c-.38-.05-.74-.23-1.11-.27s-.79.22-1.16.18-.75-.03-1.13-.06-.75-.13-1.13-.16-.73-.58-1.11-.59-.77.18-1.15.17-.76.02-1.14.02-.77.31-1.15.32-.77-.16-1.15-.15-.77.06-1.15.08-.77-.05-1.15-.03-.76.1-1.14.13-.74.3-1.12.34-.76.1-1.13.14-.8-.28-1.18-.23-.79-.13-1.17-.08-.67.68-1.05.75-.83-.29-1.21-.22-.79,0-1.16.08-.71.35-1.08.44-.75.16-1.12.26-.64.56-1,.67-.75.12-1.12.24-.77.09-1.13.21-.62.52-.98.65-.89-.18-1.24-.04-.69.35-1.03.5-.76.19-1.1.35-.5.7-.84.87-.84.05-1.17.23c-.35.19-.54.65-.87.85s-.7.37-1.02.59-.74.32-1.06.54-.64.47-.94.71-.62.5-.92.75-.53.59-.81.86-.4.71-.66.99-.72.41-.97.71-.59.54-.83.85-.25.79-.47,1.11-.34.7-.54,1.04-.8.45-.98.8-.29.74-.45,1.1-.34.72-.48,1.09-.27.75-.39,1.12.04.83-.06,1.21.05.8-.03,1.19c-.07.38-.7.66-.75,1.03s.52.82.5,1.19-.06.74-.06,1.11-.32.77-.29,1.14-.02.78.05,1.15.18.75.28,1.11.28.72.41,1.07.24.73.41,1.07.55.56.75.88.51.55.74.85.19.82.45,1.11.61.47.89.73c.29.27.66.45.98.7s.7.37,1.04.59.6.53.96.72.78.2,1.15.37.53.79.91.93.93-.27,1.32-.14.62.71,1.01.81.83-.03,1.22.05.78.14,1.18.2.79.03,1.2.08.79.04,1.2.08.78.16,1.19.18.79.33,1.19.34.8-.37,1.21-.37.8.43,1.19.42.77-.51,1.17-.53.79-.04,1.18-.07.78-.13,1.17-.17.8.06,1.19.01.78-.1,1.17-.16.76-.21,1.15-.28.82.09,1.21.01.79-.1,1.17-.19.81-.04,1.19-.15.75-.29,1.12-.4.63-.64,1-.76.83-.01,1.2-.15.8-.14,1.16-.28c.37-.14.56-.7.92-.85s.79-.14,1.14-.31.58-.58.93-.76.69-.35,1.03-.53.82-.13,1.15-.33.59-.53.92-.74.61-.48.93-.7.9-.08,1.21-.31.58-.53.89-.77.53-.6.82-.85c.11-.01-.26.08-.28.19-.07.36.1.81.12,1.25.02.38-.09.82-.03,1.23.06.39.14.81.23,1.21s.28.78.39,1.17c.1.36.59.53.76.85s.09.79.33,1.07.39.69.68.92.76.18,1.1.35.71.1,1.07.21.66.21,1.03.26.69.54,1.06.54c.64,0,.64-.53,1.28-.53.38,0,.74.18,1.11.13s.69-.3,1.05-.4.88.27,1.23.13.7-.35,1.03-.53.48-.67.78-.89.43-.62.7-.87.76-.29.99-.58.42-.62.61-.94.59-.57.72-.92.04-.79.1-1.16c.1-.53.16-.52.26-1.05s.16-.52.26-1.05.24-.51.34-1.04-.35-.62-.25-1.16.39-.48.49-1.02-.24-.6-.14-1.14c.11-.57.36-.52.47-1.09s.02-.59.13-1.16-.02-.6.08-1.17.42-.51.53-1.09-.16-.62-.05-1.2.43-.51.54-1.08-.42-.67-.31-1.24.64-.47.75-1.04.16-.56.26-1.14-.35-.66-.24-1.23.42-.51.53-1.09-.32-.65-.21-1.23.29-.54.4-1.11.48-.5.59-1.07-.22-.63-.11-1.2.04-.58.15-1.15,0-.59.12-1.17.09-.58.2-1.15.54-.49.65-1.06-.05-.6.05-1.18.12-.57.23-1.14.38-.52.48-1.1-.28-.64-.17-1.22-.02-.6.08-1.17.12-.57.23-1.15.28-.55.38-1.12.13-.57.24-1.15c.07-.39-.11-.81-.06-1.19s.01-.77.04-1.16.62-.76.63-1.15-.18-.79-.21-1.18-.09-.79-.14-1.17-.45-.71-.53-1.09.03-.8-.09-1.17-.07-.81-.21-1.17-.42-.68-.6-1.02-.21-.81-.43-1.13-.59-.55-.85-.85-.65-.46-.94-.72ZM111.06,173.28c-.4,0-.78-.16-1.16-.18-.4-.03-.77-.18-1.14-.23-.4-.06-.81.07-1.18-.01-.39-.09-.73-.28-1.09-.41-.38-.13-.74-.25-1.08-.42s-.74-.28-1.05-.5-.61-.49-.89-.75c-.28-.25-.37-.64-.59-.94s-.54-.51-.7-.84-.57-.58-.67-.94.3-.8.26-1.18c-.04-.35-.59-.69-.59-1.07,0-.36.2-.74.24-1.12.04-.36.18-.71.25-1.09.07-.39.31-.73.41-1.1s-.04-.84.1-1.2.55-.61.73-.96.49-.59.71-.92.21-.8.46-1.1.41-.68.69-.96.51-.62.82-.87.85-.16,1.18-.38c.33-.22.42-.84.76-1.04s.83-.13,1.2-.3.66-.48,1.04-.62.75-.27,1.14-.38.86.19,1.25.1.78-.03,1.18-.09.74-.29,1.14-.33.76-.34,1.17-.36.79-.16,1.2-.16.77-.02,1.15,0,.75.36,1.12.38.74.27,1.1.31.8-.27,1.16-.22.72.29,1.08.36c.38.08.79.03,1.17.13s.71.35,1.08.47.86-.1,1.22.04.85.53,1.2.68c.07.56-.18.61-.29,1.17s-.4.51-.5,1.07.21.62.11,1.18-.45.5-.56,1.06.31.64.2,1.2-.03.57-.14,1.14-.69.45-.8,1.01-.04.57-.15,1.13.36.65.25,1.21-.56.48-.66,1.04.12.61.02,1.17.07.63-.13,1.16c-.3.23-.68.46-.99.68s-.51.62-.83.82-.87.03-1.2.22-.51.66-.85.83-.76.17-1.11.32c-.38.17-.66.61-1.04.75s-.97-.29-1.37-.17-.69.6-1.09.7-.88-.2-1.29-.13-.77.35-1.18.4-.81.12-1.23.15-.82.09-1.24.09Z"/>
      <path class="cls-1" d="M211.46,78.02c.06.44.08.87.15,1.26.08.44.3.83.39,1.21.11.44.19.87.32,1.22.17.44.68.62.89.93.18.26.35.5.66.75.25.2.4.6.76.75.3.13.65.24,1.03.3.32.06.69-.06,1.08-.06.36,0,.7.03,1.02-.02.36-.05.68-.13.99-.24.33-.12.53-.42.81-.61s.85-.07,1.08-.33c.3-.34.39-.86.67-1.21s.67-.63.93-.99c.19-.25.38-.38,1.04-.39.33,0,.74-.14,1.2-.02.35.1.77.14,1.19.29.35.13.7.37,1.1.53.36.15.73.31,1.12.48.34.14.65.38,1.01.53.34.14.66.37,1.02.52.34.14.77.08,1.14.22.35.13.61.52.98.65s.88-.25,1.25-.13.54.8.91.91.78.03,1.16.13.77.02,1.15.11.78-.02,1.15.07.66.5,1.04.58.76.03,1.15.09.77-.07,1.16-.02.73.14,1.12.19.72.38,1.1.42.77-.14,1.16-.11.75,0,1.14.02.76.06,1.15.07.76.12,1.15.12c.08,0,.17-.14.25-.14.4,0,.79.04,1.18.03s.8.09,1.19.07.78-.19,1.17-.23.79-.02,1.18-.06.77-.23,1.16-.28.85.3,1.24.24.75-.32,1.14-.4.86.19,1.24.1.77-.24,1.15-.34.76-.27,1.13-.38.81-.09,1.19-.21.68-.46,1.05-.6.61-.6.98-.75.77-.2,1.13-.36.82-.13,1.17-.3.73-.32,1.08-.5.74-.31,1.09-.51.61-.53.95-.74.57-.57.9-.79.83-.2,1.15-.44.58-.56.89-.81.46-.69.76-.94.78-.31,1.08-.57.55-.58.84-.85.59-.53.87-.82.46-.65.73-.95.35-.74.62-1.04.82-.34,1.07-.65c.25-.3.2-.83.44-1.14s.83-.36,1.05-.68.25-.77.46-1.1.6-.55.8-.88.15-.81.33-1.15.48-.63.65-.98.43-.67.58-1.02.11-.8.24-1.16.35-.7.47-1.08.2-.75.31-1.13.1-.78.19-1.16.2-.75.27-1.13c.07-.38.33-.72.39-1.09s-.05-.78,0-1.15-.21-.78-.19-1.15.53-.74.54-1.11-.51-.76-.52-1.14.16-.76.14-1.13.03-.76-.01-1.14.05-.78-.01-1.15-.42-.69-.5-1.05.08-.81-.03-1.17c-.11-.38-.11-.81-.26-1.14-.16-.36-.59-.58-.78-.89s-.53-.55-.76-.83-.55-.49-.82-.75-.27-.81-.57-1.05-.88-.1-1.18-.33-.42-.67-.73-.9c-.29-.22-.69-.3-1-.53-.29-.22-.59-.44-.89-.69-.31-.25-.39-.81-.72-1.04s-.61-.56-.96-.76-.79-.24-1.15-.43-.83-.11-1.2-.28-.77-.19-1.14-.35-.73-.27-1.11-.42-.62-.58-1.01-.72-.68-.47-1.06-.6-.87.09-1.25-.04-.7-.41-1.09-.54-.8-.12-1.19-.24c-.82-.27-.77-.41-1.59-.68-.33-.11-.79.12-1.15,0-.34-.11-.66-.28-1.02-.4s-.66-.29-1.02-.4-.6-.5-.95-.61-.79.09-1.14-.02-.59-.55-.94-.66c-.39-.12-.9.16-1.29.04s-.8-.17-1.19-.29-.6-.82-.99-.94-.8-.19-1.19-.31-.93.19-1.31.07-.64-.7-1.02-.83c-.4-.14-.87-.05-1.24-.19-.41-.15-.82-.21-1.18-.35-.42-.16-.77-.37-1.11-.52-.44-.2-.94-.19-1.21-.36-.32-.2-.39-.75-.67-.95-.31-.21-.8-.15-1.08-.36-.3-.23-.46-.6-.72-.84-.28-.26-.77-.31-.99-.56-.25-.29,0-.93-.18-1.22-.2-.32-.7-.45-.82-.77-.15-.41.11-.92.02-1.35s-.36-.8-.38-1.24-.06-.86-.03-1.3.23-.83.31-1.27c.08-.41.01-.83.13-1.21s.19-.81.35-1.18.37-.73.58-1.08.58-.58.83-.91.23-.89.52-1.18.9-.21,1.22-.48.47-.71.81-.95c.34-.23.6-.61.96-.81s.74-.4,1.12-.57.83-.16,1.22-.3.81-.16,1.21-.26.74-.49,1.14-.57.86.14,1.27.09.8-.34,1.21-.36.83-.03,1.25-.03.81,0,1.2.01.78.46,1.17.49.78.17,1.17.22.85-.23,1.23-.16.8.14,1.18.23.75.3,1.12.42.83.08,1.19.22c.37.15.75.32,1.1.5s.58.61.92.81.66.43.98.66.69.4.99.66.68.44.96.73.62.53.87.84c.25.3.55.61.78.94s.35.73.57,1.08,0,.91.18,1.27.36.69.53,1.06.42.67.57,1.05.22.76.36,1.14.69.6.81.99c.14.35.37.61.53.91.17.34.26.67.45.94.22.31.06.93.31,1.16.27.26.8.19,1.11.35.3.16.57.4.92.49.32.08.69-.18,1.05-.17.33.01.63-.04,1-.08.33-.04.66-.02,1.01-.1.37-.08.87.34,1.2.22.35-.13.63-.48.94-.65s.62-.42.89-.66.3-.7.52-.98c.28-.36.64-.61.82-1.01s.28-.82.36-1.26.2-.85.18-1.3c-.03-.56-.08-.56-.11-1.12s-.27-.55-.3-1.11-.05-.56-.08-1.12.34-.58.31-1.15.21-.58.18-1.14-.6-.54-.63-1.1.4-.59.37-1.15.12-.57.1-1.14-.22-.56-.25-1.12-.01-.56-.04-1.13-.41-.55-.43-1.11.07-.57.04-1.14.13-.58.1-1.15-.31-.56-.34-1.13c-.02-.37.43-.76.39-1.09-.05-.37-.18-.72-.27-1.04-.1-.36-.11-.77-.26-1.06-.16-.32-.7-.41-.92-.67-.19-.23-.22-.73-.55-.96-.26-.18-.71-.09-1.07-.22-.3-.11-.61-.25-.98-.3-.32-.05-.66-.23-1.04-.23-.51,0-1.03.08-1.47.21-.47.14-.94.37-1.34.65-.3.22-.53.53-.8.77s-.36.67-.59.94c-.35.4-.92.6-1.32.92-.23.18-.49.15-.86.15-.26,0-.72.21-1.35-.01-.35-.12-.81-.2-1.3-.43-.32-.15-.48-.74-.85-.89-.33-.14-.72-.22-1.1-.35-.34-.13-.69-.29-1.07-.41-.35-.12-.72-.24-1.09-.36-.35-.11-.8.03-1.18-.08-.38-.11-.83,0-1.24-.08-.39-.09-.69-.73-1.11-.8-.4-.07-.89.48-1.31.43-.4-.05-.8-.12-1.22-.15s-.79-.4-1.21-.43-.82-.15-1.24-.16-.83.01-1.25.01c-.4,0-.8.06-1.19.07s-.8-.04-1.2-.02-.79.26-1.18.29-.78.18-1.18.22-.83-.29-1.23-.24-.78.21-1.17.27-.77.22-1.16.29-.76.27-1.14.35-.81.04-1.19.13-.73.36-1.11.47-.91-.27-1.29-.16-.58.78-.96.91-.92-.21-1.29-.07-.66.5-1.02.65c-.35.15-.69.31-1.03.47s-.65.4-.98.57-.65.38-.98.56-.71.27-1.03.46-.81.13-1.12.33-.43.72-.74.93-.87.07-1.18.29-.32.84-.61,1.07-.59.46-.87.7-.52.53-.8.78-.65.4-.92.66-.53.52-.79.8-.44.61-.69.89c-.25.29-.68.42-.91.71s-.53.56-.75.86-.58.53-.78.85-.36.68-.55,1.01-.02.86-.2,1.19-.58.55-.75.88-.47.62-.62.97.11.86-.02,1.22-.43.64-.55,1,.04.79-.06,1.16-.2.71-.28,1.08-.44.67-.51,1.04c-.07.35.02.75-.03,1.15-.04.36,0,.73-.02,1.13-.02.37-.46.75-.45,1.14.01.37.11.76.15,1.15.04.37.23.73.3,1.12.07.37-.1.8,0,1.19.09.36.39.69.51,1.06s.1.78.25,1.14.3.71.47,1.07.42.65.61.99.71.46.92.79.13.82.36,1.14.29.74.53,1.05.7.42.96.71.65.43.92.72.5.57.78.84.23.87.52,1.14.92.11,1.22.37.45.65.76.89.71.33,1.03.56c.3.23.31.87.63,1.1s.65.41.98.62.82.14,1.15.34.76.21,1.1.41.49.67.84.86.69.34,1.03.52.57.58.91.76.78.15,1.13.32.67.39,1.02.55.68.37,1.04.53.65.44,1.01.59.89-.13,1.25.01.61.56.98.7c.35.13.82-.07,1.18.05s.64.47,1,.57.75.12,1.11.21.76.05,1.12.13.66.48,1.03.56.8-.11,1.16-.04.68.47,1.04.54.84-.38,1.2-.32c.38.07.65.68,1.02.74s.74.19,1.11.26c.38.08.85-.3,1.21-.22.39.09.68.49,1.03.58.39.11.9-.19,1.22-.07.4.15.7.49.97.67.32.21.41.73.7.94.31.23.81.18,1.08.41.3.24.63.44.88.69.28.27.62.48.85.74.26.3.51.61.7.9.21.33-.01.86.11,1.18.13.33.38.6.47.95s.14.68.18,1.04-.21.69-.21,1.05.38.7.34,1.06.05.72-.02,1.08c-.07.37-.17.74-.26,1.09s-.38.66-.51,1-.31.67-.48,1-.15.78-.35,1.09-.37.67-.6.96-.91.18-1.16.44-.39.63-.67.88-.54.48-.84.71c-.31.23-.47.74-.81.96s-.8.23-1.16.42-.8.18-1.17.34-.69.41-1.07.55-.82.05-1.2.17-.72.36-1.11.46-.8.08-1.19.15-.75.37-1.14.42-.8.14-1.19.16c-.39.03-.8-.2-1.18-.19s-.78.32-1.16.32-.79-.02-1.17-.02-.79.13-1.18.11-.78-.14-1.16-.17-.8,0-1.18-.03-.79-.05-1.17-.1-.73-.45-1.11-.51c-.39-.06-.74-.33-1.11-.4-.39-.08-.76-.16-1.13-.24-.4-.09-.79-.08-1.15-.17-.4-.1-.91.3-1.26.2-.4-.11-.73-.37-1.08-.48-.4-.13-.65-.61-.98-.73-.42-.15-.95.15-1.25.03-.37-.15-.69-.43-1.05-.6s-.78-.26-1.12-.46-.51-.69-.83-.91-.73-.34-1.04-.59-.61-.51-.9-.77-.66-.46-.94-.75-.52-.61-.77-.92c-.26-.31-.27-.82-.51-1.15s-.37-.71-.59-1.06-.42-.67-.61-1.04-.3-.74-.47-1.11-.74-.55-.9-.94-.48-.69-.62-1.08-.16-.81-.29-1.21-.03-.84-.13-1.24c-.11-.35-.14-.73-.29-1.03-.16-.33-.7-.39-.9-.66-.22-.29-.16-.78-.42-1.01s-.67-.25-.98-.41c-.33-.18-.68-.18-1.05-.27s-.67-.42-1.06-.43c-.36,0-.78-.22-1.17-.16-.36.05-.62.65-1,.76-.39.11-.72.24-1.06.38-.37.16-1-.19-1.31,0-.34.21-.48.72-.75.98-.28.27-.76.43-.96.76-.19.3-.19.74-.3,1.09s-.23.69-.28,1.06c-.05.34-.23.72-.23,1.1,0,.34.53.67.59,1.04.08.57.16.56.24,1.14s-.3.63-.22,1.2,0,.59.08,1.16.4.53.48,1.11-.1.6-.02,1.18-.09.6,0,1.18.22.56.3,1.14.37.54.46,1.11-.08.6,0,1.18-.1.6-.02,1.18.27.55.35,1.13.29.55.37,1.13.16.6.2,1.18-.36.62-.28,1.2Z"/>
      <path class="cls-1" d="M281.36,89.4c-.29.24-.84.14-1.13.37s-.48.59-.77.8-.59.45-.89.66-.82.11-1.12.31-.38.78-.69.97c-.36.22-.71.43-1.07.63s-.87.14-1.23.33-.66.53-1.03.7-.85.11-1.22.27c-.35.14-.5.73-.82.87-.35.15-.81,0-1.12.16-.34.17-.75.19-1.05.36-.34.19-.66.4-.93.59-.32.23-.65.45-.88.68-.29.29-.26.84-.48,1.15-.23.33-.45.63-.6.98s-.22.72-.29,1.11c-.08.47-.06.88-.04,1.29.02.47-.12.92.03,1.31.17.41.55.65.87.97.27.27.37.84.76,1.03.34.16.83.04,1.26.14.36.08.78-.06,1.21-.02.38.03.76.43,1.19.42.6,0,.6-.13,1.2-.13s.6.16,1.2.16.6-.35,1.2-.36.6.24,1.2.23.6-.14,1.2-.15.6-.14,1.2-.15.6.18,1.2.18.59-.22,1.19-.22.6.53,1.2.52.6-.14,1.2-.14.6-.26,1.2-.27.6.03,1.2.02.6.08,1.2.08.6.07,1.2.07.6-.4,1.2-.41.6.37,1.2.36.6.21,1.2.2.6-.29,1.2-.3.6-.19,1.21-.19.6,0,1.21,0c.44,0,.83-.16,1.24-.2.44-.05.82-.12,1.21-.22.43-.11,1.01.28,1.38.11.39-.18.72-.55,1.04-.8.29-.23.44-.61.68-.88s.54-.5.72-.81.08-.74.2-1.08.64-.57.71-.94c.07-.37-.41-.76-.4-1.08,0-.37.03-.66-.04-.97-.08-.36-.08-.66-.27-.93-.19-.28-.47-.48-.78-.74-.26-.22-.38-.69-.73-.9-.3-.17-.79.09-1.15-.07-.68-.16-.67-.14-1.37-.26s-.6-.62-1.29-.74c-.47-.1-.98.19-1.35.08-.49-.14-.91-.34-1.22-.5-.52-.27-.91-.68-.96-1.02-.04-.26.13-.66.33-1.07.13-.27.28-.6.52-.93.18-.26.73-.26.98-.56.21-.25.25-.68.5-.95.4-.42.34-.48.74-.9s.3-.51.7-.93.33-.49.73-.91.76-.08,1.16-.5.42-.4.82-.82.4-.42.8-.84.23-.59.63-1.01.32-.5.73-.92.69-.14,1.1-.56.23-.59.63-1.01.16-.65.56-1.07.73-.1,1.13-.53.41-.41.81-.83.45-.37.85-.8.02-.79.42-1.21.81-.03,1.22-.45.12-.68.52-1.1.27-.54.67-.96.53-.3.93-.71.55-.28.95-.7.48-.34.89-.76.44-.39.84-.81.12-.69.53-1.12.28-.54.69-.96.6-.23,1-.66.32-.5.72-.92.68-.16,1.08-.59.41-.42.81-.84.27-.55.67-.97.29-.54.69-.96.65-.19,1.05-.62.41-.41.82-.84.08-.73.48-1.15.59-.25,1-.67.47-.37.88-.79.44-.39.85-.82.18-.66.7-.93c.21.33.29.67.5,1s.74.46.95.79.4.67.61,1,.21.8.42,1.13.42.66.63.99.55.58.77.91.38.69.59,1.02.42.66.63.99.58.56.79.89.03.91.24,1.24.65.52.86.84.32.73.53,1.06.36.7.57,1.03.61.54.82.87.51.61.72.93.35.71.56,1.04.41.67.62.99.34.71.55,1.03.35.71.55,1.03.6.55.8.87.19.81.4,1.13.87.37,1.07.69c.21.33-.07.98.13,1.3.22.34.59.56.8.87.22.34.59.56.79.88.22.34.6.56.8.87.22.35.14.86.34,1.16.23.35.54.61.72.91.24.38.62.6.8.87.4.63.28.5.59.98.2.32.13.78.28,1.07.18.35.51.6.62.9.13.38.26.77.27,1.07.02.4-.14.89-.34,1.23-.18.3-.57.55-.93.8-.25.17-.52.48-.89.65-.29.13-.66.24-1.03.37-.31.11-.69.12-1.06.23-.32.1-.63.34-.99.44-.36.11-.72.17-1.05.28-.36.12-.64.38-.96.51-.36.14-.85-.1-1.16.05-.35.17-.58.5-.87.68-.33.2-.84.14-1.1.35-.34.29-.64.69-.9,1.04s-.44.8-.61,1.22-.45.82-.53,1.27c-.08.46.1.95.12,1.35.02.46.43.78.59,1.16.16.4.26.76.56,1.08.26.27.45.68.85.87.34.16.73.34,1.16.44.37.08.78.24,1.21.27.38.03.81-.09,1.24-.1.59,0,.58-.17,1.17-.18s.59.3,1.17.3.59-.11,1.17-.11.59-.26,1.17-.26.59.27,1.18.27.59-.06,1.17-.07.59.02,1.17.02.59-.13,1.17-.13.58-.25,1.17-.25.59.39,1.18.38.59-.37,1.17-.37.59.45,1.18.44.59-.23,1.17-.24.59.22,1.18.22.59-.27,1.17-.28.59.14,1.18.14.59.11,1.18.11.59-.2,1.17-.21.59.09,1.18.08.59-.03,1.17-.04.58-.1,1.17-.11.59.03,1.17.03.59.19,1.18.19.59-.16,1.17-.16.59-.3,1.17-.3.59.48,1.18.48.58-.53,1.17-.54.59.18,1.18.17.59.09,1.18.08.59.15,1.18.15.59-.29,1.18-.29.59.27,1.19.27.59.14,1.19.14c.46,0,.9-.31,1.32-.35.46-.05.86-.25,1.27-.35.45-.11.8-.33,1.18-.5.42-.18.99-.06,1.33-.31.3-.22.24-.82.48-1.08s.67-.37.85-.68.17-.69.3-1.04.2-.65.26-1.02c.07-.4.5-.76.49-1.12-.01-.4.04-.88-.08-1.23-.12-.37-.49-.69-.73-1-.25-.32-.74-.43-1.09-.71-.31-.25-.71-.35-1.11-.57-.35-.2-.7-.34-1.11-.51-.46-.12-.79-.56-1.19-.68-.46-.14-.81-.49-1.2-.64-.46-.17-1.01-.02-1.37-.19-.33-.16-.56-.51-.87-.73-.29-.21-.66-.35-.94-.62-.26-.25-.4-.63-.64-.93-.24-.29-.79-.41-1.06-.78-.23-.31-.42-.7-.68-1.07-.22-.33-.4-.73-.64-1.11-.22-.34-.2-.86-.43-1.24-.32-.49-.59-.32-.91-.81s-.02-.69-.34-1.18-.67-.27-.99-.76-.38-.45-.7-.95.19-.82-.13-1.31-.37-.46-.69-.95-.71-.24-1.03-.73.07-.74-.25-1.24-.52-.37-.84-.86-.39-.45-.71-.94-.27-.53-.59-1.02-.51-.37-.83-.86.04-.72-.28-1.22-.61-.31-.93-.8-.17-.59-.49-1.09-.58-.33-.9-.82.18-.82-.14-1.31-.65-.28-.96-.78,0-.71-.31-1.2-.51-.37-.83-.87-.35-.47-.67-.96-.2-.57-.52-1.06-.45-.41-.77-.9-.39-.45-.71-.95-.3-.5-.62-1-.18-.59-.5-1.08-.65-.28-.97-.78.07-.75-.25-1.25-.55-.34-.87-.84-.48-.39-.8-.89-.33-.49-.65-.99-.17-.59-.49-1.09-.23-.56-.55-1.05-.57-.34-.89-.83-.08-.65-.4-1.15-.53-.36-.86-.86-.31-.51-.64-1.01-.76-.58-.69-1.17.79-.27,1.2-.68.48-.34.9-.74.17-.66.59-1.06.4-.42.82-.83.49-.34.9-.74.28-.54.7-.95.42-.4.84-.81.61-.21,1.02-.62.42-.4.84-.8.35-.47.77-.88.33-.5.75-.91.36-.47.77-.88.38-.44.8-.84.5-.32.92-.72.74-.06,1.16-.47.41-.41.83-.81.34-.48.76-.88.47-.36.89-.76.1-.73.52-1.14.35-.48.77-.88.48-.34.9-.74.78-.04,1.19-.44.15-.68.58-1.09.51-.32.93-.72.21-.63.62-1.03.39-.44.81-.85.48-.35.9-.76.79-.02,1.21-.43.28-.55.7-.96.4-.43.82-.84.21-.63.63-1.04.55-.28.97-.69.4-.43.82-.85c.28-.3.62-.52.9-.8.29-.3.53-.62.8-.9.29-.3.39-.75.66-1.03.29-.29.55-.6.82-.87.29-.3.84-.32,1.11-.59.3-.3.75-.41,1.02-.67.3-.3.19-.99.46-1.24.31-.3.9-.26,1.17-.51.32-.3.71-.45.98-.67.29-.25.44-.62.73-.84s.61-.42.91-.62.45-.72.77-.89.72-.26,1.06-.4.75-.13,1.1-.23c.37-.14.62-.55.96-.69.37-.15.91.14,1.25-.01.37-.17.7-.38,1.02-.54.36-.18.78-.24,1.09-.42.36-.2.48-.75.77-.95.35-.23.87-.19,1.12-.42.33-.3.42-.81.67-1.12.28-.34.54-.66.72-1.02.19-.39.47-.75.54-1.16.08-.44.11-.88.1-1.26-.01-.45-.1-.89-.23-1.25-.15-.39-.47-.71-.76-1-.28-.27-.72-.29-1.12-.48-.34-.16-.64-.52-1.08-.61-.37-.08-.78-.25-1.22-.29-.39-.03-.81.22-1.25.23-.58,0-.58.1-1.16.11s-.58-.47-1.16-.46-.58.07-1.16.08-.58-.03-1.16-.03-.58,0-1.16,0-.58.27-1.16.27-.58.23-1.16.23-.58-.57-1.16-.57-.57.61-1.15.62-.58-.02-1.16-.02-.58-.34-1.17-.34-.58-.1-1.16-.1-.58.03-1.16.04-.58.06-1.16.06-.58-.06-1.16-.05-.58.22-1.16.23-.58.12-1.16.13-.59-.37-1.17-.37-.58.12-1.17.12-.58.1-1.17.11-.58.13-1.17.13c-.45,0-.87-.1-1.27-.06-.44.05-.82.29-1.21.39-.43.11-1.01-.23-1.38-.07-.4.18-.48.88-.81,1.13-.29.22-.9.11-1.14.38s-.28.72-.46,1.04-.31.65-.43,1c-.11.33-.11.7-.18,1.07-.07.37-.06.71-.07,1.04-.01.38-.08.72-.02,1.04.07.36-.06.83.11,1.12.18.3.73.38,1.05.67.26.24.32.82.67,1.05.3.2.85-.04,1.23.15.5.13.49.08,1,.16s.52.02,1.03.1.49.23,1,.31.52.06,1.03.17c.35.13.71.2.97.36.33.19.43.6.61.83.21.28.24.53.24.87,0,.29-.2.49-.38.86-.13.28-.22.57-.44.89-.18.26-.06.79-.31,1.08-.21.25-.64.34-.9.6-.42.42-.52.32-.94.74s-.1.73-.52,1.15-.55.29-.96.71-.22.62-.64,1.04-.42.42-.84.84-.62.23-1.04.65-.31.53-.73.95-.36.47-.78.89-.73.11-1.14.53-.36.47-.78.89-.32.51-.73.94-.6.24-1.02.66-.28.56-.7.98-.53.31-.95.74-.42.42-.83.85-.35.49-.77.91-.14.69-.56,1.12-.66.19-1.08.61-.56.28-.98.71-.22.62-.63,1.05-.28.57-.7.99-.44.4-.86.83-.75.1-1.17.52-.04.79-.46,1.22-.57.28-.99.71-.29.56-.71.98-.79.06-1.21.49-.02.86-.62.81-.4-.19-.72-.68-.5-.37-.82-.85-.03-.67-.35-1.16-.34-.47-.66-.96-.1-.63-.42-1.11-.49-.37-.81-.85-.26-.52-.57-1.01-.26-.52-.58-1.01-.2-.57-.51-1.05-.7-.24-1.02-.72-.07-.65-.38-1.13-.6-.3-.92-.79-.1-.63-.41-1.12-.39-.44-.7-.93-.43-.42-.74-.9-.05-.66-.36-1.15-.54-.34-.86-.83-.04-.67-.35-1.16-.76-.2-1.08-.69.14-.79-.17-1.28-.28-.52-.59-1.01-.71-.24-1.03-.73-.05-.66-.37-1.16c-.2-.35-.77-.48-.92-.79-.17-.37-.15-.81-.25-1.14-.12-.39.19-.81.17-1.14-.02-.41-.28-.78-.14-1.1.14-.32.33-.69.63-.96.25-.23.53-.55.89-.76.3-.17.66-.36,1.04-.51.33-.13.82.16,1.2.05.59-.13.56-.28,1.15-.39s.6-.11,1.19-.22.67.18,1.26.03c.43-.16.71-.71,1.07-.9.41-.21.69-.54,1.01-.77.37-.27.66-.52.92-.83.25-.29.59-.48.78-.82s.36-.66.48-1.03c.12-.35-.03-.76.04-1.15.08-.46.03-.83.01-1.23-.02-.46.45-.99.3-1.37-.16-.4-.58-.72-.88-1.04-.27-.28-.64-.5-1.04-.69-.34-.16-.82.04-1.26-.06-.37-.08-.73-.35-1.17-.38-.39-.03-.8-.24-1.24-.24-.59,0-.59.11-1.17.11s-.59-.23-1.18-.22-.59.15-1.17.15-.59-.1-1.17-.1-.58.24-1.17.24-.59.05-1.17.06-.59-.24-1.17-.24-.58.3-1.17.31-.59-.01-1.17,0-.59.16-1.17.16-.59-.09-1.17-.09-.59.08-1.17.08-.59.04-1.17.05-.59-.34-1.18-.34-.59-.2-1.18-.2-.59,0-1.17,0-.59.1-1.17.1-.58.52-1.17.53-.59-.14-1.17-.14-.59-.37-1.17-.37-.58.47-1.17.48-.59-.12-1.18-.11-.59.13-1.17.13-.59-.32-1.18-.32-.59.15-1.18.15-.59,0-1.18,0-.59.12-1.18.13-.59-.03-1.17-.03-.59-.3-1.18-.3-.59-.1-1.18-.09-.59.01-1.19.02-.59-.08-1.19-.07c-.46,0-.88.47-1.3.51-.46.05-.83.3-1.23.4-.45.11-.85.12-1.23.29-.42.18-.88.2-1.22.44-.3.22-.66.39-.91.65s-.11.8-.3,1.12-.67.46-.79.82c-.12.34,0,.74-.07,1.11-.06.36.02.68.01.99,0,.36-.28.7-.21,1.01.08.35,0,.8.17,1.07.16.25.79.16,1.11.43.24.2.51.37.85.58.28.17.3.86.65,1.03.3.15.76.02,1.11.18.35.11.58.48.89.6.34.13.71.1,1.01.25.32.17.59.36.87.55.28.2.44.54.72.8.25.24.86.15,1.11.43.23.26.53.51.76.81.05.06-.05.62.33,1.2.18.27.32.64.57,1.02.19.3.68.45.91.81.2.31.25.73.48,1.08.2.31.27.73.49,1.07.2.31.53.56.75.9.2.32.66.48.88.82.21.32.28.74.49,1.07.21.32.26.75.47,1.08s.57.54.79.88.59.54.81.87.45.63.66.96-.09.98.12,1.31.47.62.68.95.59.54.81.87.7.47.92.8.24.77.45,1.1.55.56.77.89.03.9.25,1.23.42.65.63.98.78.42.99.75.4.67.61,1,.26.76.47,1.09.5.61.71.94.33.71.54,1.04.69.48.9.81.35.71.56,1.04.48.62.69.95.34.71.55,1.04.52.59.74.92.32.73.54,1.06.33.72.54,1.05.11.86.32,1.2.89.37,1.1.7.04.69.25,1.03c-.26.52-.37.36-.77.78s-.36.46-.77.88-.22.59-.62,1.01-.36.46-.76.88-.73.11-1.13.53-.1.71-.5,1.13-.62.21-1.02.63-.41.41-.81.83-.34.47-.74.89-.4.42-.8.84-.11.69-.52,1.11-.8.04-1.2.46-.26.55-.67.97-.18.63-.59,1.05-.36.46-.76.88-.45.37-.85.79-.41.42-.81.83-.4.42-.8.84-.42.4-.82.82-.29.53-.69.95-.63.2-1.04.62-.44.38-.84.8-.54.28-.94.7-.41.4-.81.82,0,.81-.39,1.23-.77.06-1.17.48-.09.72-.49,1.14-.35.48-.75.9-.82.02-1.22.44.03.84-.37,1.26-.39.43-.79.85-.56.27-.96.7-.37.45-.77.87-.35.47-.75.9-.54.29-.95.71-.64.19-1.05.61-.07.74-.47,1.16-.62.21-1.02.63-.11.71-.51,1.13-.8.05-1.2.47-.11.71-.51,1.14-.61.23-1.01.66c-.29.3-.62.55-.91.83s-.63.53-.92.81-.22.98-.52,1.25-.71.45-1.02.71-.55.64-.86.9Z"/>
      <path class="cls-1" d="M146.5,104.98c.58,0,.58-.1,1.16-.1s.58.03,1.16.03.58-.26,1.16-.26.58.02,1.16.02.58.39,1.16.39.58-.33,1.16-.33.58.31,1.16.31.58.09,1.16.09.58.01,1.16.01.58.01,1.16.01.58-.45,1.16-.45.58.54,1.16.54.58-.57,1.16-.57.58.46,1.16.46.58.12,1.16.12.58-.39,1.16-.39.58.29,1.16.29.58.09,1.16.09.58,0,1.16,0,.58-.06,1.16-.06.58-.41,1.16-.41.58-.09,1.16-.09.58.34,1.16.34.58.22,1.16.22.58-.22,1.16-.22.58.16,1.16.16.58-.37,1.16-.37.58.2,1.16.2.58.19,1.17.19.58-.11,1.16-.11.58-.24,1.16-.24.58.06,1.16.06.58-.02,1.16-.02.58.07,1.16.07.58-.12,1.17-.12.58.38,1.17.38.58-.56,1.17-.56.58.21,1.16.21.58.35,1.17.35.58-.14,1.17-.14.58-.13,1.17-.13.58-.11,1.17-.11.58-.13,1.17-.13.58.31,1.17.31.58.14,1.16.14.58-.2,1.16-.2.58.24,1.16.24.58-.26,1.17-.26.58-.26,1.17-.26.58.07,1.17.07.59-.05,1.17-.05.58.12,1.17.12.58-.03,1.17-.03.58.2,1.17.2.59.08,1.17.08.59.1,1.17.1.59-.53,1.18-.53.62.52,1.2.42c.27-.26.49-.67.78-.91s.58-.48.89-.7c.32-.23.85-.12,1.19-.31s.47-.78.83-.95.72-.33,1.09-.48.83.01,1.21-.1.71-.37,1.1-.46.81.09,1.2.04.73-.59,1.12-.62.8.28,1.2.28c.5,0,.5.16,1,.16s.55.08,1.04,0c.2-.21.61-.55.91-.9.36-.46.04-.7.38-1.17s.38-.44.72-.91.32-.49.67-.96.3-.5.65-.97.54-.33.89-.8.79-.37.53-.89-.45-.33-1.03-.33-.59.28-1.17.28-.58.2-1.17.2-.58-.38-1.17-.38-.58.13-1.17.13-.58-.17-1.17-.17-.58.35-1.17.35-.58-.24-1.17-.24-.58.14-1.17.14-.58.14-1.17.14-.59-.19-1.17-.19-.59.21-1.17.21-.59-.53-1.17-.53-.58.14-1.17.14-.58.26-1.17.26-.58-.03-1.17-.03-.58-.08-1.17-.08-.59-.08-1.17-.08-.59.4-1.17.4-.59-.37-1.17-.37-.59-.21-1.17-.21-.59.29-1.17.29-.59.18-1.17.18-.59-.01-1.17-.01-.59.13-1.17.13-.59,0-1.17,0-.59-.56-1.17-.56-.58.15-1.17.15-.58.19-1.17.19-.58-.11-1.17-.11-.59.27-1.17.27-.59-.45-1.17-.45-.59.51-1.17.51-.59-.05-1.18-.05-.59-.13-1.17-.13-.59.06-1.17.06-.59-.33-1.17-.33-.59.47-1.18.47-.59-.02-1.18-.02-.59-.5-1.18-.5-.59.4-1.18.4c-.44,0-.88-.05-1.27-.09-.44-.05-.88-.1-1.26-.2-.43-.12-.81-.36-1.16-.54-.38-.21-.77-.44-1.04-.74-.28-.3-.13-.85-.29-1.27-.14-.37-.47-.68-.51-1.14-.04-.39-.12-.81-.09-1.27.03-.4-.05-.85.04-1.29.11-.57.01-.59.12-1.16s.59-.48.7-1.05.13-.57.24-1.14.11-.57.21-1.14-.13-.61-.02-1.19,0-.59.11-1.16.5-.49.61-1.06-.13-.61-.02-1.18-.22-.63-.11-1.2.56-.48.66-1.05.12-.57.22-1.13.17-.56.28-1.12-.41-.67-.31-1.23.66-.46.77-1.03-.27-.64-.17-1.21-.07-.6.04-1.17.28-.54.39-1.1.3-.53.41-1.1.22-.55.33-1.12.15-.56.26-1.13-.28-.64-.17-1.22-.06-.6.05-1.17.37-.52.48-1.09,0-.59.1-1.16.48-.5.58-1.07.11-.57.22-1.14-.08-.6.03-1.17-.05-.6.06-1.17.44-.51.54-1.08.12-.57.23-1.14-.33-.65-.22-1.23.36-.53.47-1.1.19-.56.3-1.13.16-.56.26-1.13-.02-.59.09-1.17.17-.56.27-1.13-.26-.64-.15-1.21.13-.57.24-1.14.36-.53.47-1.1.11-.57.22-1.14-.04-.6.06-1.17.16-.56.27-1.13.11-.57.22-1.15-.07-.61.04-1.18.57-.49.67-1.06-.15-.62-.05-1.19.24-.55.34-1.12.18-.56.29-1.13-.11-.61,0-1.18,0-.59.12-1.16.2-.56.31-1.13.12-.57.23-1.14.2-.56.31-1.13.2-.56.31-1.13-.1-.61.01-1.19.38-.52.48-1.1-.41-.67-.31-1.24.69-.47.8-1.04-.09-.61.02-1.19-.08-.61.03-1.19-.09-.61.02-1.19c.09-.46.53-.82.66-1.22.14-.44.21-.9.41-1.27.22-.4.33-.92.61-1.23.22-.25.53-.49.81-.71.26-.2.72-.16,1.02-.34.28-.17.5-.51.83-.66.3-.14.63-.32.97-.45.53-.15.54-.11,1.08-.24s.56-.03,1.09-.17.5-.27,1.03-.41.54-.08,1.07-.22c.37-.14.74-.17,1.08-.33.36-.17.61-.48.92-.67.34-.21.65-.38.94-.62.3-.25.44-.59.69-.88s.8-.35.99-.68.19-.75.32-1.12.58-.64.65-1.03c.09-.48.07-.98.06-1.4-.02-.48-.17-.96-.33-1.36-.16-.42-.33-.95-.65-1.28-.27-.27-.76-.36-1.13-.54-.33-.17-.8.03-1.21-.08-.36-.09-.69-.26-1.11-.31-.37-.04-.75-.28-1.17-.28-.58,0-.58-.05-1.15-.05s-.57-.09-1.15-.09-.57.14-1.15.14-.57.17-1.15.17-.57-.31-1.15-.31-.57.11-1.15.11-.58.25-1.15.25-.58-.27-1.15-.27-.57.06-1.15.06-.57-.03-1.15-.03-.57.13-1.15.13-.58.24-1.15.24-.58-.39-1.15-.39-.58.37-1.15.37-.58-.45-1.15-.45-.58.23-1.15.23-.57-.22-1.15-.22-.57.27-1.15.27-.57-.14-1.15-.14-.58-.12-1.15-.12-.58.2-1.15.2-.58-.09-1.15-.09-.58.03-1.15.03-.58.1-1.15.1-.58-.03-1.15-.03-.57-.2-1.15-.2-.58.16-1.16.16-.58.29-1.16.29-.58-.49-1.16-.49-.58.53-1.16.53c-.45,0-.86-.16-1.27-.12-.44.05-.87.03-1.27.13-.43.11-.89.1-1.27.27-.4.18-.63.63-.97.87-.32.22-.78.27-1.03.54s-.63.52-.83.85-.12.81-.25,1.17c-.13.34-.09.74-.17,1.12-.08.41-.02.77-.02,1.14,0,.41-.36.83-.27,1.2.09.39.67.56.86.89s.18.77.47,1.05c.27.26.66.34,1.01.56.31.19.62.34,1,.5.65.2.55.57,1.2.74s.63.3,1.29.48.71-.02,1.36.18c.38.16.84.09,1.15.27.36.21.79.36,1.05.61.3.28.61.65.78.98.17.34,0,.86.06,1.3.05.37-.15.75-.17,1.19-.02.38.29.82.21,1.25-.11.58-.28.54-.38,1.12s.03.6-.08,1.18-.26.55-.37,1.12.25.64.14,1.22-.17.56-.28,1.14-.18.56-.29,1.14-.4.52-.51,1.09.21.63.1,1.21-.46.51-.56,1.08.3.65.2,1.22-.04.59-.14,1.16-.7.46-.8,1.03-.05.58-.15,1.16.36.66.25,1.23-.56.49-.67,1.06.12.62.01,1.19-.02.59-.13,1.16-.17.56-.28,1.14.11.62,0,1.19-.53.5-.63,1.08.23.64.12,1.22-.28.54-.39,1.12.2.63.09,1.21-.7.46-.8,1.04.27.65.17,1.22-.49.5-.6,1.08.12.62,0,1.19-.07.58-.17,1.16-.25.55-.36,1.13.05.61-.06,1.18-.03.59-.14,1.17-.13.57-.23,1.15-.27.55-.38,1.12.28.65.17,1.22-.57.49-.68,1.07.17.63.06,1.2.08.61-.03,1.19-.1.58-.21,1.16-.28.54-.39,1.12-.22.56-.33,1.13.18.63.07,1.21-.39.53-.5,1.1.14.62.03,1.2-.12.58-.23,1.15-.1.58-.21,1.16-.52.5-.63,1.08-.2.56-.31,1.13.24.64.13,1.22-.08.58-.19,1.16-.21.56-.31,1.14.08.61-.03,1.19-.11.58-.22,1.15-.37.53-.48,1.11-.12.58-.23,1.16-.02.6-.12,1.17.02.6-.09,1.18-.02.6-.13,1.18-.06.59-.17,1.17-.23.56-.34,1.14-.57.5-.68,1.08c-.09.46-.18.85-.31,1.25-.14.44-.2.85-.4,1.22-.22.4-.49.68-.78,1-.22.25-.15.81-.44,1.03-.26.2-.51.49-.82.67-.28.17-.65.25-.98.4-.3.14-.79-.22-1.12-.09-.54.15-.44.5-.99.63s-.57.01-1.12.14-.47.43-1.02.57-.53.16-1.07.31c-.37.13-.71.19-1.04.35-.36.17-.96-.11-1.27.08-.33.21-.54.62-.83.86s-.55.56-.79.85-.2.77-.39,1.1-.49.58-.62.94-.18.72-.26,1.1c-.09.48-.22.92-.2,1.33.02.48.16.9.32,1.3.17.42.58.6.91.92.27.26.53.41.89.6.33.17.54.63.94.74.35.09.72.4,1.13.44.37.04.79-.19,1.2-.19Z"/>
      <path class="cls-1" d="M241.74,175.64c-.52-.2-.53-.2-1.07-.37s-.65.18-1.17,0c-.43-.18-.63-.65-.9-.91-.31-.3-.91-.49-1-.9-.07-.33.2-.83.18-1.36-.02-.38-.12-.82-.12-1.31,0-.4.32-.81.34-1.28.08-.58.01-.59.12-1.16s.04-.59.14-1.17.04-.59.14-1.17.08-.58.19-1.16.09-.58.19-1.16.27-.55.38-1.13-.26-.64-.15-1.22.3-.54.4-1.12.25-.55.35-1.13.16-.57.26-1.14-.19-.63-.08-1.21.56-.49.66-1.07.14-.57.24-1.15-.29-.65-.18-1.23.08-.58.19-1.16.45-.52.56-1.1-.09-.62.02-1.19.04-.59.14-1.17.11-.58.22-1.15.2-.56.31-1.14.04-.59.15-1.18-.03-.61.08-1.19.16-.58.28-1.16c.02,0,0-.01.02-.01.12-.57.39-.52.49-1.09s-.12-.61-.02-1.18.04-.58.14-1.15.18-.56.29-1.13-.05-.6.06-1.17.28-.54.39-1.11.31-.53.42-1.1.11-.57.22-1.14-.13-.61-.02-1.18.11-.57.22-1.14.45-.5.56-1.07-.36-.66-.25-1.23.22-.55.32-1.12.17-.56.27-1.13.06-.58.17-1.15-.02-.59.09-1.17.2-.55.3-1.13,0-.59.11-1.16.33-.53.43-1.11.14-.57.24-1.14,0-.59.11-1.17-.19-.78.25-1.17.58-.27,1.14-.27.56.02,1.12.02.56.39,1.12.39c.42,0,.82-.33,1.21-.35.42-.02.84.27,1.23.24.42-.03.84,0,1.23-.05.42-.06.83-.11,1.22-.19.41-.09.83-.18,1.2-.29.41-.12.63-.68.99-.83.39-.17,1,.12,1.33-.08.33-.2.3-.89.58-1.11.3-.24.88-.15,1.13-.41.26-.28.61-.53.81-.83s.04-.84.17-1.18.52-.63.59-1c.07-.35.18-.74.15-1.04-.03-.35-.15-.77-.29-1.05s-.46-.58-.73-.8c-.3-.25-.87-.1-1.31-.25-.36-.12-.75-.12-1.21-.18-.39-.05-.78-.41-1.24-.41-.61,0-.61-.22-1.23-.22s-.61.22-1.23.22-.61-.16-1.22-.16-.62.37-1.23.37-.62-.2-1.23-.2-.62-.19-1.24-.19-.71.62-1.12.16c-.39-.43-.09-.48.02-1.06s.16-.56.27-1.13.09-.58.19-1.15.17-.56.28-1.13,0-.59.1-1.16.48-.5.59-1.07-.44-.68-.34-1.25.31-.54.42-1.11.45-.51.56-1.09-.03-.6.08-1.18c.09-.45,0-.9.01-1.29,0-.47-.15-.86-.25-1.23-.12-.43-.4-.67-.67-.97-.26-.28-.36-.74-.7-.92-.32-.17-.68-.43-1.08-.51-.35-.07-.78.09-1.19.09-.35,0-.74-.21-1.09-.16s-.65.38-.99.48-.56.46-.89.6-.64.22-.96.39c-.3.17-.56.38-.86.58s-.63.29-.91.51c-.27.21-.51.45-.79.69s-.65.32-.91.57-.56.44-.81.71c-.38.48-.45.44-.81.93s.06.81-.31,1.3-.7.24-1.07.73-.23.59-.59,1.08-.36.5-.72,1-.67.27-1.04.76,0,.76-.37,1.26-.36.51-.73,1c-.25.29-.71.37-.94.63-.26.29-.38.66-.61.9-.28.28-.7.34-.95.56-.31.27-.29.89-.55,1.05-.39.25-.95.16-1.36.29s-.84.03-1.29.03c-.58,0-.58,0-1.16,0s-.58-.03-1.16-.03-.58.39-1.16.39c-.38,0-.73-.02-1.09.03-.37.05-.71.15-1.05.25s-.65.28-.98.43-.75.13-1.06.34c-.38.26-.57.69-.85,1-.3.33-.89.48-1.08.86s-.08.92-.16,1.36c-.09.48.07.92.08,1.34,0,.48-.3.97-.17,1.38.1.31.4.57.67.82.22.21.42.56.76.73.27.14.72-.05,1.07.07.51.12.46.34.98.45s.55-.03,1.06.08.56-.04,1.07.08c.34.12.61.42.87.56.33.17.75.21.96.41.26.25-.03.76.05,1.06.08.31.24.59.24,1.02,0,.33.24.71.19,1.11-.04.34-.13.71-.2,1.1-.11.57-.19.55-.29,1.12s-.18.55-.29,1.12.28.64.18,1.2-.47.5-.58,1.06-.31.53-.42,1.09.18.62.07,1.18.08.6-.03,1.16-.12.56-.22,1.13.02.59-.08,1.16-.1.57-.21,1.13-.66.46-.76,1.03.04.59-.07,1.16.08.6-.03,1.17-.21.55-.32,1.11.16.61.06,1.18-.55.48-.66,1.05.4.66.29,1.23-.16.56-.26,1.13-.24.54-.34,1.12c.02,0,.1,0,.12,0-.1.56-.43.5-.54,1.06s.35.65.24,1.21-.13.56-.24,1.12-.6.46-.72,1.02.28.64.17,1.2-.14.56-.25,1.12-.08.57-.19,1.13-.19.54-.3,1.1-.06.57-.17,1.13-.53.48-.64,1.04.14.61.03,1.17-.02.58-.13,1.14.02.59-.09,1.15-.01.58-.13,1.14-.6.47-.71,1.03-.13.56-.24,1.12-.11.56-.22,1.13.12.61.01,1.17,0,.58-.11,1.14-.51.49-.62,1.05.12.61.01,1.18.21.63.1,1.2-.58.48-.67,1.05c-.02.36-.07.71-.11,1.03-.05.36-.18.66-.25.97-.09.36.3.86.17,1.15-.15.34-.8.34-1,.58-.23.27-.2.79-.49,1.01s-.51.58-.84.75c-.31.16-.74.15-1.09.27-.64.19-.7-.01-1.34.17s-.69.05-1.32.26c-.42.2-.88.4-1.23.63-.38.26-.47.85-.75,1.15-.3.33-.39.73-.58,1.12s-.57.67-.65,1.11c-.08.41,0,.78,0,1.13,0,.42-.29.87-.17,1.2.14.37.4.77.68,1.03.26.24.73.31,1.11.45.32.12.72.05,1.13.11.35.05.71.41,1.12.41.59,0,.59.01,1.18.01s.59-.45,1.18-.45.59.26,1.17.26.59.09,1.18.09.59.05,1.18.05.59-.13,1.18-.13.59.06,1.18.06.59-.37,1.18-.37.59.02,1.18.02.59.26,1.17.26.59,0,1.17,0,.59-.15,1.17-.15.59.05,1.18.05.59,0,1.18,0,.59-.18,1.18-.18.59.47,1.18.47.59-.27,1.18-.27.59.13,1.18.13.59.07,1.18.07.59-.22,1.18-.22.59-.1,1.18-.1.59.09,1.19.09.59.01,1.19.01c.36,0,.71.08,1.05.04.36-.04.73,0,1.05-.09.35-.09.62-.39.92-.53.32-.14.77-.08,1.05-.27.35-.24.28-.89.54-1.2s.97-.34,1.14-.73c.16-.36.1-.85.18-1.27.09-.47-.08-.91-.12-1.3-.05-.46-.34-.7-.58-1.06-.23-.35-.25-.88-.62-1.2-.32-.28-.64-.66-1.06-.91Z"/>
    </g>
  </g>
</svg>