<?xml version="1.0" encoding="UTF-8"?>
<svg id="Layer_2" data-name="Layer 2" xmlns="http://www.w3.org/2000/svg" viewBox="0 0 159.72 159.78">
  <defs>
    <style>
      .cls-1 {
        fill: #fcf5e5;
      }

      .cls-2 {
        fill: #a3bbc3;
      }
    </style>
  </defs>
  <g id="Layer_1-2" data-name="Layer 1">
    <g>
      <polygon class="cls-1" points="159.72 79.6 159.61 80.53 159.59 81.45 159.25 82.36 158.99 83.27 159.02 84.19 159.43 85.13 159.02 86.03 159.33 86.98 159.2 87.89 158.79 88.77 158.77 89.7 158.8 90.63 158.13 91.46 158.1 92.38 158.55 93.39 157.86 94.2 158.12 95.18 157.88 96.08 157.84 97.01 157.32 97.84 157.09 98.73 156.83 99.61 156.77 100.54 156.12 101.32 156.28 102.32 156.18 103.25 155.84 104.11 155.37 104.92 155.15 105.82 154.99 106.74 154.46 107.53 154.04 108.35 153.46 109.11 153.77 110.22 153.14 110.96 152.48 111.67 152.21 112.56 152.19 113.56 151.84 114.41 151 115.02 151.01 116.06 150.21 116.68 150.1 117.66 149.63 118.46 149.11 119.22 148.41 119.87 148.24 120.84 147.9 121.71 147.12 122.31 146.59 123.06 146.3 123.97 145.75 124.71 145.12 125.39 144.34 125.96 143.85 126.74 143.29 127.47 143.06 128.45 142.36 129.06 141.99 129.95 141.2 130.49 140.58 131.17 140.23 132.08 139.33 132.52 138.94 133.4 138.08 133.86 137.61 134.68 136.9 135.27 135.99 135.65 135.42 136.39 134.84 137.1 134.35 137.91 133.69 138.56 132.68 138.81 132.27 139.73 131.58 140.33 130.91 140.97 130.25 141.61 129.38 141.99 128.83 142.78 128.18 143.45 127.2 143.68 126.36 144.08 125.86 144.96 125.22 145.64 124.26 145.88 123.47 146.35 122.88 147.13 121.96 147.4 121.01 147.6 120.41 148.38 119.38 148.44 118.67 149.03 117.99 149.7 117.34 150.43 116.39 150.59 115.41 150.7 114.62 151.17 113.95 151.9 113.05 152.12 112.08 152.21 111.38 152.9 110.68 153.6 109.83 153.96 108.71 153.62 107.92 154.12 107.12 154.6 106.36 155.2 105.34 155.07 104.53 155.52 103.62 155.7 102.71 155.87 101.88 156.29 100.93 156.3 100.04 156.52 99.29 157.3 98.26 156.92 97.45 157.48 96.57 157.78 95.57 157.46 94.8 158.28 93.84 158.19 92.92 158.23 92.04 158.57 91.13 158.67 90.16 158.37 89.26 158.51 88.42 159.3 87.44 158.65 86.56 159.16 85.65 159.36 84.72 159.15 83.81 159.42 82.9 159.64 81.98 159.59 81.05 159.37 80.13 159.78 79.21 159.75 78.29 159.22 77.37 159.32 76.44 159.56 75.55 159.04 74.62 159.15 73.69 159.29 72.79 158.97 71.84 159.24 70.97 158.7 70.01 159.06 69.08 158.99 68.21 158.59 67.33 158.26 66.44 158.01 65.52 157.96 64.55 158.17 63.64 158 62.77 157.65 61.89 157.4 61.09 156.79 60.12 156.88 59.24 156.62 58.37 156.32 57.46 156.19 56.47 156.28 55.66 155.77 54.94 155.03 53.92 155.18 53 155.02 52.2 154.54 51.42 154 50.48 153.88 49.6 153.61 48.84 153.04 47.84 153.03 47.08 152.47 46.24 152.09 45.52 151.47 44.59 151.28 43.79 150.83 43.17 150.03 42.06 150.16 41.54 149.2 40.68 148.87 39.98 148.25 38.85 148.35 38.2 147.66 37.55 146.96 36.66 146.64 35.94 146.08 34.95 145.9 34.48 144.97 33.68 144.5 32.73 144.25 32.2 143.43 31.44 142.9 30.79 142.24 30.1 141.64 29.32 141.15 28.37 140.85 27.93 139.95 26.95 139.68 26.56 138.73 26.02 137.97 25.33 137.37 24.49 136.91 23.89 136.22 23.16 135.65 22.49 135.02 21.79 134.42 21.07 133.83 20.91 132.73 19.91 132.4 19.4 131.62 18.99 130.77 18.46 130.02 17.59 129.54 17.04 128.81 16.55 128.02 16.14 127.18 15.36 126.62 14.63 126.01 14.49 124.98 13.98 124.22 13.48 123.46 13.09 122.61 12.1 122.16 12.17 121.04 11.61 120.3 10.89 119.66 10.35 118.91 10.08 118.01 9.43 117.31 8.87 116.57 8.57 115.69 8.3 114.8 7.83 114 7.34 113.22 6.93 112.39 6.97 111.37 6.33 110.64 6.35 109.64 5.48 109 5.76 107.91 5.38 107.08 5 106.24 4.19 105.55 4.17 104.58 4.19 103.61 4.02 102.71 3.32 101.96 2.97 101.1 3.15 100.1 2.49 99.33 2.49 98.38 2.2 97.5 2.46 96.51 1.97 95.67 2.06 94.72 1.58 93.88 1.79 92.92 1.04 92.11 1.49 91.11 1.29 90.22 .78 89.36 .87 88.42 .48 87.54 .58 86.6 .85 85.66 .61 84.76 .83 83.83 .58 82.93 .12 82.02 .45 81.09 .57 80.17 .09 79.25 0 78.33 .18 77.41 .36 76.49 .4 75.57 .29 74.64 .31 73.72 .43 72.81 .51 71.89 .61 70.97 .58 70.04 .74 69.13 1.41 68.29 1.54 67.39 1.41 66.43 1.72 65.56 1.54 64.58 1.98 63.74 2.32 62.87 2.6 61.99 2.72 61.08 2.66 60.12 2.78 59.2 3.06 58.32 3.43 57.47 3.57 56.55 4.27 55.8 4.58 54.94 4.71 54.01 4.76 53.06 5.12 52.21 5.62 51.42 5.83 50.51 6.5 49.79 6.79 48.92 7.05 48.03 7.03 47.02 7.61 46.27 8.1 45.48 8.83 44.82 8.85 43.8 9.35 43.03 9.46 42.04 9.93 41.25 11 40.8 10.9 39.68 11.51 38.97 11.9 38.13 12.44 37.38 13.3 36.85 13.76 36.05 13.77 34.95 14.77 34.52 14.96 33.53 15.4 32.71 16.07 32.06 16.56 31.27 17.19 30.6 18.01 30.07 18.28 29.11 19.05 28.56 19.64 27.85 20.14 27.07 20.73 26.36 21.7 26 22.01 25.03 22.68 24.4 23.29 23.71 24.15 23.27 24.8 22.63 25.18 21.69 26.22 21.46 26.5 20.4 27.53 20.18 28.4 19.79 28.59 18.59 29.38 18.09 30.46 17.97 30.85 16.99 31.64 16.51 32.24 15.77 33.33 15.7 34.08 15.17 34.87 14.7 35.23 13.61 36.01 13.12 37 12.96 37.95 12.74 38.53 11.93 39.22 11.3 40.27 11.28 40.99 10.7 41.79 10.24 42.52 9.67 43.47 9.5 44.04 8.61 44.96 8.39 45.92 8.27 46.67 7.7 47.4 7.1 48.38 7.04 49.15 6.52 49.95 6.06 50.93 6.02 51.64 5.31 52.5 4.98 53.41 4.79 54.36 4.75 55.28 4.62 56.12 4.22 56.81 3.36 57.76 3.31 58.67 3.14 59.59 3.05 60.51 2.92 61.43 2.85 62.29 2.51 63.17 2.23 64.12 2.31 64.97 1.91 65.9 1.91 66.81 1.76 67.68 1.45 68.55 1.06 69.43 .66 70.36 .67 71.31 .89 72.22 .81 73.11 .38 74.05 .58 74.98 .71 75.89 .62 76.79 .19 77.71 .19 78.64 .39 79.56 .33 80.48 .69 81.41 0 82.33 .04 83.25 .12 84.18 .13 85.08 .47 85.99 .65 86.89 .96 87.8 1.05 88.72 1.03 89.62 1.2 90.56 1.09 91.5 1.05 92.37 1.43 93.29 1.5 94.24 1.44 95.1 1.81 96.06 1.75 96.89 2.25 97.71 2.77 98.75 2.39 99.5 3.15 100.42 3.25 101.25 3.69 102.28 3.42 103.15 3.73 104.05 3.94 104.88 4.36 105.86 4.35 106.51 5.27 107.4 5.5 108.19 6 109.2 5.93 110.15 6.04 110.98 6.45 111.57 7.39 112.6 7.34 113.52 7.53 114.17 8.3 115.08 8.54 115.77 9.2 116.88 9.07 117.38 10.08 118.39 10.14 119.18 10.61 119.93 11.16 120.76 11.55 121.68 11.82 122.42 12.38 123.1 13.02 123.78 13.66 124.56 14.15 125.39 14.56 126.29 14.89 126.76 15.8 127.5 16.34 128.47 16.58 128.77 17.69 129.86 17.8 130.31 18.7 131.12 19.16 131.92 19.64 132.63 20.23 133.4 20.75 134.07 21.38 134.77 21.98 135.11 22.96 135.86 23.5 136.68 23.97 137.3 24.66 137.97 25.29 138.65 25.92 139.18 26.68 139.52 27.61 140.46 28 140.56 29.13 141.32 29.69 141.97 30.34 142.45 31.13 143.34 31.6 143.71 32.48 144.47 33.06 144.96 33.84 145.54 34.56 145.66 35.59 146.16 36.36 146.79 37.04 147.45 37.71 147.8 38.57 148.45 39.25 148.98 40.01 148.97 41.08 149.9 41.61 150.11 42.54 150.62 43.31 151.08 44.11 151.66 44.85 151.51 45.94 151.89 46.77 152.26 47.61 152.58 48.47 152.93 49.32 153.26 50.17 153.91 50.89 154.58 51.62 154.64 52.58 154.9 53.46 155.3 54.3 155.48 55.21 156.05 55.99 155.84 57.02 156.42 57.8 156.27 58.8 156.71 59.63 157 60.5 156.85 61.48 157.12 62.36 157.93 63.12 157.57 64.13 158 64.98 158.47 65.83 158.4 66.78 158.07 67.76 158.18 68.67 158.7 69.52 158.62 70.46 158.57 71.38 159.19 72.24 158.93 73.19 159.27 74.08 159.46 74.99 159.6 75.91 158.92 76.86 158.97 77.77 159.31 78.68 159.72 79.6"/>
      <g>
        <g>
          <path class="cls-2" d="M101.98,146.52c-.26.14-.64.28-.91.42s-.48.4-.76.52-.54.3-.82.41-.59.16-.88.26-.63.03-.92.13-.55.28-.84.36-.69-.23-.98-.15-.6.05-.9.12-.56.23-.86.3-.53.36-.83.42-.63-.13-.93-.07-.53.44-.83.49-.65-.29-.95-.25-.58.16-.88.2-.55.47-.85.5-.6.12-.9.15-.62-.14-.92-.11-.62-.2-.92-.18-.6-.03-.91-.01-.59.18-.89.2-.59.33-.89.34-.61-.07-.91-.06-.6.15-.91.15-.61-.29-.91-.29-.61-.16-.91-.17-.61.1-.91.09-.62.43-.92.42-.6-.39-.9-.4-.6-.21-.9-.22-.62.3-.92.29-.6-.15-.9-.17-.6-.13-.9-.15-.61.01-.91-.01-.63.19-.93.16-.61,0-.91-.04-.57-.38-.86-.42-.63.16-.93.11-.62,0-.91-.04-.6-.15-.89-.2c-.3-.08-.5-.54-.79-.61s-.69.27-.98.2-.54-.35-.84-.42-.64.04-.93-.03-.53-.38-.82-.46-.63,0-.92-.08-.43-.62-.72-.71-.62-.01-.9-.12-.7.09-.97-.04-.32-.54-.58-.69c.01-.27-.34-.57-.24-.89.08-.26.2-.57.34-.86.12-.25.47-.42.62-.7.14-.25.5-.38.67-.64.16-.24.35-.46.53-.71.17-.24.21-.57.39-.82s.53-.33.72-.57.4-.43.6-.66.29-.52.49-.76.25-.56.45-.79.36-.47.56-.7.24-.59.44-.81.81-.07,1.01-.29.33-.51.54-.72.14-.7.35-.91.31-.54.52-.75.77-.09.98-.3.49-.36.71-.57.43-.42.65-.63.19-.67.4-.88.4-.46.61-.67.6-.25.82-.45.24-.63.46-.83.67-.16.89-.36.33-.53.55-.73c.23-.21.42-.44.63-.64.23-.21.48-.38.69-.58.23-.21.44-.43.65-.61.24-.22.67-.18.87-.37.25-.22.45-.45.64-.62.23-.2.38-.44.62-.61.25-.17.56-.18.81-.31.27-.14.3-.8.57-.9s.71.35.99.3.54-.04.83-.04.63-.55.92-.5.6.18.88.28.5.36.77.5.61.15.86.32c.24.16.36.51.58.71.2.17.56.21.81.43.21.18.08.77.32.98.21.19.54.26.77.47.21.19.33.51.56.71.21.19.43.39.66.6s.7.11.93.31.21.64.44.85.6.22.82.43.46.37.68.58.15.71.37.91.63.2.85.41.23.62.45.83.76.08.97.29.46.39.67.6.21.64.42.85.36.49.57.7.49.36.7.57.35.5.55.71.52.34.72.56.28.56.48.78.36.48.56.7.36.48.55.71.67.23.86.46.48.4.66.63-.04.79.14,1.02c.18.25.49.39.65.63.18.26.59.35.74.59.17.27.3.55.43.8.15.29.43.51.53.77.12.31.08.78.12,1.04Z"/>
          <path class="cls-2" d="M33.2,84c-.16.19-.33.44-.56.7-.18.2-.39.41-.61.65-.19.21-.63.21-.84.44-.19.21-.19.61-.39.84-.19.21-.2.61-.4.84-.2.21-.41.42-.62.65s-.64.21-.85.44-.27.55-.48.77-.67.17-.88.39.03.85-.17,1.07-.59.26-.8.48-.45.39-.66.61-.34.5-.56.71-.43.42-.64.63-.36.49-.57.7-.5.35-.72.55-.46.39-.67.6-.39.46-.61.67-.45.4-.67.61-.72.11-.94.31-.17.71-.39.91-.37.5-.59.69-.73.08-.95.27-.55.28-.78.46c-.24.19-.3.59-.53.77-.25.19-.32.6-.56.77-.26.18-.76-.02-1,.13-.27.17-.51.32-.76.45-.29.15-.51.37-.76.46-.33.12-.64.28-.89.27-.16-.25-.2-.6-.35-.88-.14-.26-.46-.44-.59-.72-.12-.27-.3-.53-.42-.82s-.18-.58-.29-.87.22-.7.13-1-.64-.43-.73-.72.02-.63-.05-.93-.02-.61-.09-.91-.32-.54-.39-.84-.19-.58-.25-.88-.04-.61-.09-.91.16-.64.11-.94-.27-.57-.31-.87-.26-.57-.3-.88-.02-.61-.05-.91-.17-.59-.2-.89.16-.62.14-.92-.17-.59-.19-.89.37-.63.35-.93-.18-.59-.2-.89-.26-.59-.27-.9.26-.61.25-.92-.54-.59-.55-.9.6-.61.6-.92-.26-.6-.26-.91-.14-.61-.13-.91-.02-.61-.01-.91.3-.6.31-.9-.19-.62-.17-.92.09-.6.11-.91.11-.6.13-.9.13-.6.16-.9-.14-.62-.12-.92-.14-.63-.11-.93.54-.55.58-.85.09-.6.13-.9-.4-.67-.36-.97.4-.55.45-.85.32-.56.38-.86-.48-.72-.42-1.01.48-.52.54-.82-.04-.64.03-.93.44-.51.52-.8-.19-.7-.11-.98.29-.55.39-.83.49-.47.6-.74c.11-.29.32-.52.44-.79.13-.28-.09-.72.04-.98.14-.28.45-.38.6-.63.25-.02.51-.23.85-.11.25.09.36.56.66.72.24.13.48.28.75.45.24.15.66.05.92.23.23.16.31.57.55.76.23.17.44.39.68.58.23.18.67.11.9.31s.21.67.44.87.45.38.68.58.8,0,1.03.19.17.7.39.9.54.29.76.5.32.53.54.74.57.27.78.48.25.6.47.81.68.17.89.38.29.57.5.78.43.42.64.64.57.29.78.51.11.74.32.95.57.29.78.51.34.52.54.73.66.21.87.42.4.46.6.67.51.36.71.57c.21.23.31.55.51.76.21.23.28.57.48.78.21.23.67.23.85.43.22.24.24.63.42.83.23.26.42.49.58.67.21.24.68.32.85.57s-.07.77.06,1.06.17.58.25.89.4.57.43.88-.12.63-.15.95.13.67.04.98-.4.53-.53.82,0,.73-.18,1-.57.38-.78.63Z"/>
          <path class="cls-2" d="M146.72,101.1c-.33.05-.64.23-.94.18s-.65-.13-.94-.26-.49-.42-.77-.59-.34-.59-.6-.77-.84.11-1.1-.07-.52-.36-.79-.52c-.22-.2-.12-.8-.34-1s-.76-.05-.98-.25-.29-.57-.51-.77-.27-.59-.49-.79-.53-.31-.75-.51-.69-.13-.91-.34-.41-.44-.62-.64-.06-.81-.27-1.01-.57-.27-.78-.48-.64-.2-.85-.4-.37-.48-.58-.68-.26-.58-.48-.79-.61-.23-.82-.44-.49-.36-.7-.57-.26-.58-.47-.79-.57-.28-.78-.49-.33-.51-.53-.73-.23-.61-.43-.82-.75-.11-.95-.33-.22-.61-.42-.83-.26-.57-.46-.79-.54-.32-.73-.54-.11-.69-.31-.92-.59-.28-.79-.5-.63-.27-.78-.5.05-.69-.07-.95-.44-.44-.53-.71-.09-.58-.13-.86-.35-.57-.35-.86.6-.53.64-.82.05-.53.14-.81-.02-.6.1-.86.43-.39.59-.63.38-.38.57-.6c.16-.18-.11-.81.13-1.07.18-.2.38-.42.6-.66.18-.21.63-.21.85-.44.19-.21.29-.52.5-.75.19-.21.23-.59.44-.81.2-.21.85-.02,1.06-.24s.14-.68.34-.9.27-.56.47-.78.5-.34.7-.56.31-.52.52-.74.73-.12.94-.34.43-.41.64-.63.47-.37.68-.58.4-.45.61-.66.41-.43.63-.64.4-.44.62-.65.36-.49.58-.69.45-.4.67-.6.19-.67.41-.88.42-.44.64-.64.67-.16.89-.36.3-.58.52-.77.5-.35.72-.54.52-.33.75-.51c.24-.19.4-.48.63-.66.25-.19.69-.09.93-.25.26-.18.51-.34.75-.49.27-.17.36-.63.61-.76.3-.15.75.2,1,.12.34-.1.39-.18.63-.14.16.24.72.14.87.41.14.26.2.58.33.85.12.26.21.56.32.85s.25.54.36.83.31.53.4.82-.06.64.03.93,0,.61.08.91.11.58.17.88.52.5.58.79-.07.62-.01.92.2.57.25.87-.07.62-.02.91.35.55.39.85-.26.64-.22.94.19.58.23.88-.18.61-.15.91.48.55.51.85-.21.61-.19.91.16.59.18.89-.21.61-.2.91.22.59.23.89.1.6.11.9-.2.6-.19.9-.03.6-.03.9-.16.6-.16.9.41.6.41.9.1.6.09.9-.32.59-.34.89-.09.6-.11.9.27.62.25.92.07.61.05.91-.21.59-.23.89-.33.57-.36.87.36.64.33.94-.35.57-.39.87.11.62.07.92-.02.61-.07.91-.21.58-.26.88-.12.59-.18.89-.25.57-.31.86-.09.59-.16.88.19.66.12.95-.52.49-.6.78.11.66.03.94-.3.54-.38.82-.13.59-.23.87-.49.46-.6.73-.11.6-.23.87-.19.55-.32.81Z"/>
          <path class="cls-2" d="M84.61,32.53c-.22.2-.58.22-.8.39s-.53.22-.77.37-.43.39-.69.51-.46.44-.73.52-.63-.17-.91-.12-.53.53-.81.54-.59-.16-.88-.19-.59-.02-.88-.09-.43-.53-.7-.63-.55-.11-.81-.25-.62-.07-.86-.23-.52-.29-.74-.49c-.19-.17-.15-.67-.41-.89-.21-.18-.41-.4-.65-.62-.21-.19-.6-.2-.84-.41-.21-.19-.56-.26-.79-.47-.21-.2-.53-.31-.75-.52-.21-.2-.42-.42-.64-.63s-.27-.59-.49-.8-.29-.55-.51-.76-.36-.49-.58-.7-.74-.09-.96-.3-.46-.39-.67-.61-.09-.76-.31-.97-.69-.17-.9-.38-.52-.33-.74-.55-.12-.72-.33-.94-.73-.14-.94-.36-.41-.45-.62-.67-.17-.67-.37-.89-.55-.32-.75-.54-.17-.66-.37-.88-.53-.34-.73-.57-.25-.58-.44-.82-.32-.52-.5-.76-.77-.19-.94-.43c-.18-.25.05-.78-.12-1.03-.18-.26-.38-.47-.53-.72-.17-.27-.39-.48-.52-.73-.15-.29-.27-.55-.37-.81-.12-.31-.33-.6-.36-.86.26-.13.53-.36.81-.48s.69.1.97-.01.37-.71.66-.81.61-.07.9-.17.54-.3.83-.39.59-.15.88-.23.62-.01.91-.09.63.05.93-.01.52-.41.82-.47.61,0,.91-.06.58-.2.87-.25.64.16.94.11.53-.51.83-.55.62.06.92.02.58-.17.88-.21.6-.01.9-.04.59-.15.89-.18.63.28.93.26.58-.38.88-.4.61.06.91.04.62.35.92.33.6-.12.9-.13.6-.3.9-.31.61.3.91.3.6-.44.91-.44.6.52.9.52.61-.34.91-.33.61.02.91.03.6.21.9.22.62-.32.93-.3.57.66.87.68.61-.05.91-.02.63-.27.93-.25.62-.02.92,0,.58.32.88.35.62-.03.92,0,.59.16.89.2.62-.02.92.03.62-.03.92.03.56.32.85.38.55.33.84.39.65-.11.94-.04.64-.06.93.02.45.65.73.74.72-.26,1-.16.45.55.73.65.59.15.86.26.57.21.84.32.45.25.71.38c-.03.26.03.46-.09.77-.09.25,0,.64-.14.92-.13.25-.75.24-.91.51-.15.24-.23.52-.4.78-.16.24-.03.68-.21.93-.17.23-.58.3-.77.54s-.17.61-.36.84-.4.44-.59.67-.55.31-.74.54-.37.46-.57.68-.29.53-.49.75-.57.28-.77.5-.28.54-.49.76-.31.52-.51.74-.52.32-.73.54-.44.4-.65.61-.22.62-.43.83-.44.41-.65.62-.34.5-.55.71-.43.42-.64.63-.73.11-.94.32-.34.51-.55.71-.18.68-.39.88-.59.25-.8.45c-.22.21-.53.32-.74.51-.22.21-.53.31-.74.51-.23.21-.19.69-.4.88-.23.21-.63.22-.83.41-.24.22-.27.62-.47.8Z"/>
          <path class="cls-2" d="M45,119.75c.02.21.27.5.29.9.01.27.09.57.1.91,0,.28-.17.59-.16.92,0,.29.2.59.21.91,0,.29.06.6.06.91,0,.3-.05.6-.05.92s-.01.6-.02.91-.17.6-.17.91.22.61.21.92-.17.6-.18.91.04.62.02.92-.03.62-.04.92-.04.61-.06.92-.24.6-.27.9.01.62-.02.92,0,.62-.04.92.02.63-.02.93c-.05.31-.19.6-.25.89-.06.31-.24.59-.31.87-.08.32-.1.63-.19.89-.11.32-.31.56-.44.8-.17.31-.3.57-.5.73-.26.19-.47.15-.79.05-.28-.08-.58-.09-.87-.19s-.53-.25-.8-.37-.66.04-.94-.09-.5-.34-.76-.47-.51-.3-.77-.45-.48-.34-.74-.5-.56-.23-.81-.39-.32-.58-.57-.75-.62-.14-.87-.31-.5-.32-.74-.5-.45-.39-.68-.57-.32-.54-.55-.73-.57-.23-.8-.43-.41-.43-.63-.62-.4-.44-.62-.64-.48-.35-.7-.56-.49-.35-.7-.55-.47-.38-.67-.59-.23-.61-.43-.82-.59-.27-.79-.49-.28-.55-.47-.77-.47-.38-.66-.61-.44-.41-.62-.64-.32-.51-.5-.74-.31-.51-.49-.75-.31-.51-.48-.75-.55-.35-.72-.59-.28-.53-.44-.78-.37-.48-.53-.72-.13-.62-.28-.88-.27-.53-.41-.79-.44-.44-.57-.7-.13-.6-.26-.86-.39-.48-.5-.75-.12-.6-.23-.87-.23-.55-.32-.82-.39-.64-.47-.92c.29-.07.69-.22.98-.29s.62.03.91-.03.56-.25.85-.31.64.19.93.13.53-.41.82-.46.6-.05.89-.09.61.04.9,0,.6,0,.89-.04.57-.22.87-.25.59-.04.89-.07.57-.24.87-.27.62.26.92.23.57-.31.87-.33.59-.05.89-.07.6.14.9.13.6.08.89.07.58-.26.88-.27.6.25.9.25.59-.32.89-.32.59.02.89.02.59.22.89.23.59.07.89.08.6-.22.9-.21c.33.01.64.15.93.21.32.07.64.11.92.24s.55.33.8.51.38.5.59.73.49.39.66.67.33.53.45.83.07.62.14.94.04.6.06.93Z"/>
          <path class="cls-2" d="M139.97,117.8c-.13.26-.51.41-.65.68s-.22.56-.37.82-.22.56-.38.82-.33.5-.49.75-.21.57-.38.83-.46.41-.63.67-.38.46-.55.71-.24.56-.41.81-.39.46-.57.7-.34.49-.52.73-.24.57-.43.8-.42.43-.61.66-.38.46-.57.7-.42.43-.61.66-.5.36-.7.59-.44.41-.64.63-.33.51-.53.73-.42.43-.63.64-.5.35-.71.56-.4.45-.61.66-.39.46-.61.67-.28.58-.5.78-.6.23-.82.43-.42.44-.65.63-.43.43-.66.62-.44.41-.68.59-.64.14-.88.32-.31.61-.56.77-.63.14-.88.3-.53.29-.78.44-.52.3-.78.43-.45.46-.72.58-.57.22-.84.33-.55.27-.83.36-.64-.06-.93.01-.57.22-.86.27c-.23.04-.44-.14-.63-.51-.11-.22-.11-.52-.2-.85-.08-.26-.25-.51-.32-.83-.06-.27-.1-.56-.16-.87-.05-.28-.17-.56-.21-.86-.04-.28.1-.6.07-.9-.03-.29-.23-.56-.26-.86s.04-.59.01-.89-.26-.57-.29-.86.01-.59-.01-.89.24-.61.23-.9-.35-.57-.37-.87-.02-.59-.03-.89.07-.6.05-.89-.17-.59-.18-.88.25-.61.25-.9-.13-.59-.14-.88-.09-.6-.09-.88c0-.31.11-.6.11-.89,0-.31-.09-.61-.09-.89,0-.31,0-.61,0-.88,0-.32-.02-.62-.02-.89,0-.36.1-.65.12-.88.02-.3-.11-.63-.05-.91s.22-.57.32-.85.28-.53.42-.79.48-.38.66-.6.21-.6.43-.79.45-.4.7-.56.6-.1.87-.21.54-.13.83-.19.55-.09.85-.1c.19,0,.49-.23.88-.24.26,0,.56-.02.89-.02.27,0,.57.02.88.02.28,0,.58-.05.88-.05.28,0,.58.26.88.26.29,0,.58-.09.89-.08s.58.04.89.04.59-.23.89-.22.58.21.88.23.6-.15.89-.14.58.17.88.19.6-.09.9-.07.58.25.87.28.6-.05.89-.03.61-.05.9-.02.58.18.87.21.62-.07.91-.03c.3.04.55.37.84.42.3.05.61,0,.89.06.3.07.62.03.89.1.31.08.61.14.87.23.31.11.5.43.72.57.31.18.71.23.84.45.15.25.13.69-.02,1Z"/>
          <path class="cls-2" d="M138.52,43.58c-.29.05-.59.06-.88.1s-.59.07-.88.11-.6.01-.89.05-.56.25-.86.29-.58.13-.87.17-.59.07-.88.11-.59.04-.88.07-.59.06-.88.09-.59,0-.88.03-.59-.02-.88,0-.57.22-.86.24-.58.18-.87.2-.59.03-.88.04-.59-.07-.89-.05-.59-.13-.89-.12-.59-.04-.88-.03-.58.26-.87.26-.59,0-.88,0-.59-.09-.88-.1-.59.12-.88.11-.58-.16-.88-.17c-.31-.01-.6-.12-.88-.17-.31-.05-.65.09-.92,0-.3-.1-.61-.17-.87-.31-.27-.14-.4-.5-.63-.69s-.53-.31-.72-.54-.42-.44-.58-.7-.08-.62-.21-.9-.21-.54-.3-.83-.15-.56-.21-.86-.21-.56-.26-.86-.18-.58-.2-.88.15-.61.13-.91-.05-.59-.05-.89,0-.59,0-.9-.19-.6-.17-.91.17-.59.19-.89.13-.59.15-.89-.13-.61-.11-.91.1-.6.13-.89.18-.59.21-.89,0-.61.03-.9.17-.59.2-.88-.03-.61,0-.91.11-.6.14-.9-.08-.62-.05-.91c.03-.31-.02-.61,0-.9.03-.31.22-.59.24-.88.02-.31-.07-.62-.06-.91.08-.28.04-.58.11-.84.07-.28.31-.51.39-.77.09-.27.15-.55.28-.79s.37-.27.58-.48c.29.07.52.01.81.1s.59.12.87.23.49.38.76.5.54.25.81.38.52.28.79.42.63.08.89.23.53.28.79.44.55.25.8.42.46.4.7.57.42.44.66.62.59.21.83.39.5.33.74.51.34.53.57.72.36.49.59.69.45.39.67.59.45.39.67.6.6.23.82.44.41.44.62.65.47.38.68.59.32.53.52.75.53.33.73.55.46.4.66.62.21.61.41.84.3.53.49.76.42.43.61.66.43.43.61.66.43.42.61.66.37.48.54.72.47.4.64.65.11.65.28.9.46.42.61.67.17.61.32.86.42.45.57.7.29.53.43.79.27.54.39.8.12.6.24.86c.12.31.33.54.33.81,0,.3.03.7-.23.92-.18.15-.56.14-.92.25Z"/>
          <path class="cls-2" d="M44.4,24.49c0,.29-.11.6-.1.92.01.29-.12.6-.1.92.02.29.28.58.3.89.03.3.11.59.14.9s-.02.61.01.92.03.6.07.91-.15.63-.12.93.23.59.26.89.17.6.2.9-.02.62,0,.92-.12.62-.1.93-.02.61,0,.92.02.61.03.91.24.61.24.91-.1.61-.11.92.17.63.14.93-.31.59-.35.89-.16.59-.22.88c-.07.31.14.68.04.96-.1.3-.23.6-.36.86-.14.28-.3.57-.48.81s-.51.38-.74.58-.48.35-.76.49c-.26.14-.53.27-.84.34-.28.07-.58.04-.9.06-.3.02-.6.12-.91.14s-.6.24-.9.25-.62-.16-.92-.15-.61.08-.91.09-.61-.19-.92-.18-.61.27-.91.27-.61-.26-.91-.26-.61.3-.92.29-.61-.13-.91-.14-.6-.16-.91-.17-.62.16-.92.14-.59-.3-.89-.32-.63.3-.94.28-.59-.25-.89-.28-.59-.16-.9-.2-.6-.07-.9-.11-.61,0-.91-.05-.59-.13-.89-.18-.65.18-.95.13-.57-.29-.86-.35-.62-.01-.92-.07-.59-.15-.89-.21-.48-.26-.78-.33c.06-.28.14-.47.22-.77s.07-.59.18-.88.21-.55.32-.83.22-.55.34-.82.43-.44.57-.71.03-.65.17-.92.51-.39.67-.65.11-.63.27-.88.41-.44.57-.69.32-.5.49-.74.26-.54.44-.78.3-.52.48-.76.5-.36.69-.59.34-.49.53-.72.36-.47.55-.7.3-.53.5-.75.51-.34.72-.56.28-.55.49-.77.6-.25.81-.46.43-.41.64-.62.24-.61.45-.82.47-.37.69-.57.63-.19.85-.39.37-.48.6-.67.45-.39.68-.58.36-.5.6-.69.52-.3.76-.48.42-.45.66-.62.51-.32.75-.49.52-.3.77-.47.5-.33.75-.48.48-.36.74-.51.54-.27.8-.4.51-.32.78-.45.67.02.94-.09.52-.31.79-.41.55-.22.83-.31.59-.41.87-.48c.19.25.14.73.27,1s.38.49.48.78.05.61.11.91.1.6.16.9.44.55.51.85Z"/>
        </g>
        <g>
          <path class="cls-2" d="M51.23,62.18c-.16.24-.35.42-.6.53-.24.11-.5.17-.76.17-.35,0-.64-.1-.9-.31-.25-.21-.38-.52-.38-.94,0-.23.05-.41.15-.54.1-.14.2-.25.3-.35s.15-.2.15-.31c0-.16-.05-.29-.16-.39-.11-.1-.3-.15-.57-.15-.38,0-.77.12-1.16.36s-.75.56-1.08.98c-.33.42-.59.9-.79,1.46-.2.55-.3,1.15-.3,1.8,0,.4.05.73.13,1.01.09.27.22.48.4.62.18.14.41.21.7.21.31,0,.62-.07.93-.2.31-.13.6-.31.87-.54.27-.22.5-.47.7-.75.06-.08.12-.14.17-.18.05-.04.15-.06.3-.06h.76c.16,0,.27.02.33.06s.05.12-.02.24c-.28.46-.63.9-1.05,1.32-.42.42-.92.76-1.49,1.03-.57.27-1.23.4-1.97.4-.65,0-1.23-.1-1.74-.31-.51-.21-.92-.54-1.22-1.01-.3-.46-.45-1.07-.45-1.83,0-.81.15-1.56.45-2.26.31-.7.72-1.31,1.26-1.83.53-.52,1.13-.93,1.8-1.23.67-.29,1.37-.44,2.11-.44.68,0,1.28.1,1.78.31s.89.5,1.16.88.41.81.41,1.31c0,.39-.08.71-.23.96Z"/>
          <path class="cls-2" d="M52.75,62.25c.31-.69.74-1.31,1.29-1.84.55-.54,1.17-.96,1.87-1.26s1.44-.46,2.21-.46c1.03,0,1.81.17,2.34.53.53.35.79.86.79,1.53,0,.49-.13.91-.38,1.27-.26.35-.6.65-1.04.89-.43.24-.91.44-1.44.59-.53.15-1.06.27-1.6.36s-1.04.15-1.51.18c-.15.01-.24.05-.29.12-.05.07-.07.19-.07.35,0,.6.11,1.04.34,1.34.22.29.55.44.98.44.32,0,.63-.07.93-.21.3-.14.58-.32.84-.55.26-.23.48-.48.68-.76.06-.08.12-.14.17-.17.05-.03.16-.05.31-.05h.74c.2,0,.32.02.36.07.04.05.01.15-.08.29-.28.45-.62.88-1.04,1.29s-.89.75-1.45,1.01c-.55.26-1.19.39-1.92.39-.65,0-1.23-.1-1.76-.31-.52-.21-.94-.54-1.26-1.01-.31-.46-.47-1.07-.48-1.83s.15-1.5.47-2.19ZM56.64,62.72c.4-.1.77-.24,1.1-.41.33-.17.6-.38.8-.64.2-.26.3-.57.3-.94,0-.31-.07-.53-.2-.67-.13-.14-.35-.21-.64-.21-.36,0-.72.11-1.08.32-.37.21-.7.52-1,.92-.3.4-.54.88-.71,1.45-.05.17-.07.28-.05.34.02.06.11.08.28.06.4-.05.81-.13,1.21-.23Z"/>
          <path class="cls-2" d="M65.45,58.9c.2,0,.34.02.42.06.08.04.1.15.06.33l-.19.83c-.05.21-.06.33-.04.37.02.04.11-.05.27-.29.33-.47.71-.85,1.14-1.14.43-.29.93-.44,1.5-.44.6,0,1.1.16,1.48.48.38.33.58.76.58,1.31s-.15.98-.46,1.32-.7.5-1.17.51c-.26,0-.5-.05-.72-.16s-.38-.26-.51-.44c-.13-.19-.19-.39-.19-.61,0-.24.03-.42.09-.54.06-.12.12-.21.18-.27.06-.06.09-.11.09-.17,0-.09-.07-.14-.22-.14-.22,0-.46.12-.73.36-.27.24-.53.56-.8.96s-.51.85-.72,1.34c-.22.49-.38.99-.49,1.48l-.65,2.83c-.04.17-.08.28-.12.34s-.17.09-.39.09h-1.56c-.21,0-.33-.02-.36-.07s-.04-.15,0-.3l1.45-6.34c.04-.18.05-.3.02-.34-.03-.05-.16-.07-.38-.07h-.6c-.15,0-.24-.02-.27-.07-.03-.05-.05-.15-.05-.31v-.61c0-.12.02-.21.05-.24.04-.04.11-.06.23-.06h3.07Z"/>
          <path class="cls-2" d="M72.68,58.87c.13,0,.2-.02.22-.05s.03-.1.06-.2l.23-1c.03-.1.06-.16.09-.19.03-.03.11-.05.22-.06.34-.02.63-.08.86-.18.23-.09.41-.18.53-.26.08-.05.14-.09.18-.11.04-.02.09-.03.14-.04.05,0,.13,0,.24,0,.13,0,.22.01.27.04.04.02.05.09.02.19l-.37,1.59c-.03.11-.03.18-.02.21.01.03.09.05.23.05h1.31c.12,0,.2,0,.24.03s.06.1.06.23v.69c0,.15-.01.24-.04.28-.03.04-.12.05-.27.05h-1.67c-.11,0-.18.02-.21.06-.03.03-.05.09-.07.19l-1.12,4.71c-.03.12-.05.24-.08.37-.02.13-.02.23.02.32.04.09.13.13.28.13.2,0,.4-.09.61-.27.21-.18.42-.43.63-.75.06-.09.12-.16.17-.22.05-.05.13-.06.23-.01l.53.26c.11.05.18.1.19.14.01.04,0,.13-.07.27-.28.66-.71,1.19-1.27,1.59s-1.23.6-1.99.61c-.72,0-1.22-.17-1.51-.52s-.37-.83-.24-1.44l1.2-5.12c.03-.1.03-.18.02-.22-.01-.05-.09-.07-.22-.07h-.9c-.11,0-.19-.01-.24-.05-.05-.03-.07-.11-.07-.24v-.7c0-.14.02-.23.07-.26s.14-.05.26-.05h1.22Z"/>
          <path class="cls-2" d="M80.84,65.31s-.02.09-.03.15c0,.06-.01.11-.01.15,0,.18.09.27.26.27.21,0,.43-.13.67-.4.24-.26.47-.61.66-1.04.06-.13.12-.22.16-.26.04-.04.14-.02.29.04l.52.23c.13.06.19.12.17.19-.02.07-.06.17-.12.31-.37.77-.85,1.39-1.43,1.86s-1.24.7-1.95.71c-.52,0-.92-.12-1.21-.37-.29-.25-.44-.6-.44-1.04,0-.1.01-.22.03-.36.02-.13.04-.25.06-.33l1.1-4.93c.04-.16.04-.26.01-.3-.03-.05-.14-.07-.34-.07h-.76c-.15,0-.25-.02-.29-.06s-.06-.14-.06-.29v-.64c0-.14.02-.22.07-.25s.13-.05.26-.05h3.42c.24-.01.37,0,.41.06.04.05.03.17-.02.38l-1.44,6.03ZM80.57,55.04c.28-.24.63-.36,1.03-.36s.75.12,1.03.36c.28.24.43.56.43.97s-.14.74-.42.98c-.28.24-.63.36-1.03.36s-.74-.12-1.03-.36c-.29-.24-.43-.56-.43-.97s.14-.74.43-.98Z"/>
          <path class="cls-2" d="M85.98,60.68c.03-.13.05-.24.08-.32.03-.08.02-.15-.03-.19s-.16-.06-.35-.06h-.49c-.2,0-.32-.02-.38-.05-.05-.04-.08-.14-.08-.32v-.63c.01-.18.04-.27.11-.28s.17-.01.33-.01h.63c.19,0,.33-.02.41-.05.08-.03.14-.09.17-.17.03-.09.06-.21.09-.37.13-.66.35-1.23.65-1.72.3-.49.67-.89,1.11-1.21s.93-.56,1.46-.71c.54-.16,1.1-.23,1.69-.24.63,0,1.2.07,1.71.22.52.15.93.37,1.24.66.31.3.46.66.47,1.11,0,.31-.07.57-.21.78-.14.21-.32.36-.55.47s-.48.16-.75.16c-.25,0-.48-.04-.69-.11-.21-.07-.38-.19-.52-.35-.13-.16-.2-.36-.2-.6,0-.21.03-.36.1-.46.07-.1.13-.19.2-.26s.1-.14.1-.23c0-.07-.07-.14-.22-.2-.14-.06-.34-.1-.6-.09-.32,0-.65.1-.99.3-.33.2-.64.5-.92.93s-.5.98-.66,1.66c-.04.23-.05.36-.02.41s.19.07.47.07l4.95-.02c.22,0,.35.02.4.06.04.04.04.15,0,.32l-1.47,6.24s-.01.07-.02.11c0,.04-.01.08-.01.11,0,.17.09.25.28.25.13,0,.28-.08.46-.23s.35-.4.52-.73c.07-.15.13-.25.16-.32.03-.07.11-.07.25-.01l.46.18c.18.07.27.13.28.19,0,.05-.03.16-.12.33-.34.73-.76,1.28-1.26,1.64-.51.37-1.08.55-1.72.55-.52,0-.94-.12-1.26-.37-.32-.25-.48-.6-.48-1.04,0-.1.01-.22.04-.36.02-.13.04-.25.06-.33l1.04-4.65c.04-.17.07-.31.09-.4.02-.09,0-.16-.08-.2-.07-.04-.23-.06-.47-.06h-2.41c-.18,0-.31.03-.38.06-.07.03-.11.09-.13.17-.02.08-.04.19-.08.34l-1.72,8.55c-.03.15-.06.25-.09.32s-.09.1-.17.12c-.08.01-.21.02-.38.02h-1.32c-.23,0-.38-.03-.44-.1s-.08-.18-.05-.31c.03-.13.06-.28.1-.46l1.6-8.11Z"/>
          <path class="cls-2" d="M97.18,62.09c.31-.69.74-1.31,1.29-1.84.55-.54,1.17-.96,1.87-1.26s1.44-.46,2.21-.46c1.03,0,1.81.17,2.34.53.53.35.79.86.79,1.53,0,.49-.13.91-.38,1.27-.26.35-.6.65-1.04.89-.43.24-.91.44-1.44.59-.53.15-1.06.27-1.6.36s-1.04.15-1.51.18c-.15.01-.24.05-.29.12-.05.07-.07.19-.07.35,0,.6.11,1.04.34,1.34.22.29.55.44.98.44.32,0,.63-.07.93-.21s.58-.32.84-.55.48-.48.68-.76c.06-.08.12-.14.17-.17.05-.03.16-.05.31-.05h.74c.2,0,.32.02.36.07.04.05.01.15-.08.29-.28.45-.62.88-1.03,1.29-.41.41-.89.75-1.45,1.01-.55.26-1.19.39-1.92.39-.65,0-1.23-.1-1.76-.31-.52-.21-.94-.54-1.26-1.01-.31-.46-.47-1.07-.48-1.83s.15-1.5.47-2.19ZM101.07,62.56c.4-.1.77-.24,1.1-.41.33-.17.6-.38.8-.64.2-.26.3-.57.3-.94,0-.31-.07-.53-.2-.67-.13-.14-.35-.21-.64-.21-.36,0-.72.11-1.08.32-.37.21-.7.52-1,.92-.3.4-.54.88-.71,1.45-.05.17-.07.28-.05.34s.11.08.28.06c.4-.05.81-.13,1.21-.23Z"/>
          <path class="cls-2" d="M115.54,66.68c-.59.49-1.26.74-2,.74-.43,0-.78-.09-1.03-.28-.26-.19-.43-.44-.53-.75-.02-.09-.03-.16-.03-.22,0-.06,0-.11-.02-.14,0-.1-.03-.14-.08-.13-.05.01-.12.07-.22.17-.35.39-.75.71-1.19.95-.44.24-.93.37-1.46.37s-.97-.09-1.39-.27c-.42-.18-.76-.5-1.01-.95-.26-.45-.38-1.06-.39-1.84,0-.68.09-1.32.28-1.91.19-.59.45-1.13.78-1.61.33-.48.69-.89,1.1-1.23.4-.34.82-.61,1.25-.79.43-.18.83-.28,1.22-.28.55,0,.99.1,1.32.29.33.2.59.48.76.84.09.18.17.27.22.28.05.01.1-.07.14-.24l.8-3.55c.03-.11.03-.2,0-.25-.02-.05-.11-.08-.27-.08h-.96c-.13,0-.22-.01-.26-.05-.04-.04-.07-.12-.07-.26v-.66c0-.12.01-.21.04-.26.03-.05.1-.07.22-.07h3.62c.24-.01.38,0,.44.05.05.04.06.16.02.35l-2.5,10.27s-.02.09-.03.15c0,.06-.01.11-.01.15,0,.18.09.27.26.27.22,0,.46-.15.72-.44.26-.29.49-.67.69-1.15.04-.09.07-.14.11-.15s.1,0,.18.04l.58.26c.11.05.17.09.19.14.02.04,0,.12-.05.24-.37.81-.85,1.46-1.45,1.95ZM112.57,60.92c-.05-.32-.16-.58-.31-.78s-.4-.3-.72-.3c-.3,0-.6.13-.91.38-.31.25-.6.59-.86,1.01-.27.42-.48.89-.64,1.42s-.24,1.06-.24,1.59c0,.6.09,1.05.26,1.35.17.3.45.46.83.45.27,0,.56-.12.87-.35.31-.23.6-.55.87-.94.27-.4.5-.83.67-1.32s.26-.98.26-1.48c0-.37-.03-.72-.08-1.04Z"/>
          <path class="cls-2" d="M46.91,78.52c.28-.68.66-1.27,1.17-1.78.5-.51,1.09-.92,1.77-1.21.68-.29,1.41-.44,2.2-.44.73,0,1.37.12,1.92.38.55.26.97.63,1.27,1.13.3.5.45,1.09.45,1.79,0,.77-.13,1.49-.41,2.17-.28.68-.66,1.27-1.17,1.79-.5.51-1.09.92-1.77,1.21s-1.41.44-2.2.44c-.73,0-1.37-.12-1.91-.38-.54-.26-.96-.63-1.27-1.13s-.45-1.09-.46-1.79c0-.77.13-1.49.41-2.17ZM49.29,81.89c.08.27.2.48.36.63s.38.22.64.22c.36,0,.71-.13,1.03-.38.33-.25.62-.6.87-1.03.25-.43.45-.93.6-1.47.14-.55.21-1.11.21-1.69,0-.37-.04-.69-.12-.97-.08-.27-.2-.48-.36-.63-.17-.15-.38-.22-.64-.22-.36,0-.7.13-1.03.38s-.62.6-.87,1.03c-.25.44-.46.93-.6,1.47-.15.55-.22,1.11-.22,1.69,0,.37.04.69.12.97Z"/>
          <path class="cls-2" d="M60.2,75.3c.2,0,.34.02.42.06.08.04.1.15.06.33l-.19.83c-.05.21-.06.33-.04.37.02.04.11-.05.27-.29.33-.47.71-.85,1.14-1.14.43-.29.93-.44,1.5-.44.6,0,1.1.16,1.48.48.38.33.58.76.58,1.31s-.15.98-.46,1.32-.7.5-1.17.51c-.26,0-.5-.05-.72-.16s-.38-.26-.51-.44c-.13-.19-.19-.39-.19-.61,0-.24.03-.42.09-.54.06-.12.12-.21.18-.27.06-.06.09-.11.09-.17,0-.09-.07-.14-.22-.14-.22,0-.46.12-.73.36-.27.24-.53.56-.8.96s-.51.85-.72,1.34c-.22.49-.38.99-.49,1.48l-.65,2.83c-.04.17-.08.28-.12.34s-.17.09-.39.09h-1.56c-.21,0-.33-.02-.36-.07s-.04-.15,0-.3l1.45-6.34c.04-.18.05-.3.02-.34-.03-.05-.16-.07-.38-.07h-.6c-.15,0-.24-.02-.27-.07-.03-.05-.05-.15-.05-.31v-.61c0-.12.02-.21.05-.24.04-.04.11-.06.23-.06h3.07Z"/>
          <path class="cls-2" d="M64.65,85.3c.16-.28.38-.52.65-.74s.56-.4.87-.55c.17-.09.27-.14.3-.17.03-.02.02-.05-.04-.09-.06-.03-.14-.11-.24-.22-.21-.24-.31-.52-.31-.85,0-.44.14-.82.43-1.15.29-.33.64-.59,1.07-.8.22-.11.33-.17.33-.18s-.09-.09-.26-.24c-.22-.19-.4-.41-.52-.67s-.19-.56-.19-.9c0-.54.13-1.04.38-1.5s.6-.85,1.03-1.18c.43-.33.9-.59,1.43-.77.53-.18,1.06-.27,1.6-.28.2,0,.37.01.53.05.08.01.13,0,.15-.01.03-.02.05-.07.08-.15.12-.36.27-.69.46-1.01s.42-.57.7-.77.62-.29,1.02-.29c.36,0,.66.07.92.2.26.14.46.32.6.54.14.22.21.46.21.72,0,.31-.1.59-.32.83-.21.24-.5.36-.86.36-.31,0-.58-.09-.81-.27-.24-.18-.35-.42-.35-.72,0-.15.02-.27.07-.36s.08-.16.1-.19,0-.06-.06-.06c-.14,0-.29.11-.44.34s-.29.52-.39.89c-.03.08-.03.13-.02.15s.06.04.13.08c.39.17.7.42.92.74.22.33.33.72.33,1.19,0,.55-.12,1.05-.35,1.5-.24.46-.56.85-.97,1.19-.41.34-.87.6-1.38.78-.51.18-1.04.27-1.58.28-.12,0-.25,0-.36,0-.12,0-.23-.02-.35-.03-.17-.02-.3-.03-.4-.02-.09,0-.19.05-.3.15-.13.09-.25.19-.34.31-.09.12-.14.24-.14.37,0,.15.1.25.29.31.19.05.46.08.79.08.1,0,.25,0,.44,0,.19,0,.39,0,.61,0s.42,0,.61,0c.19,0,.35,0,.46,0,.52,0,.96.07,1.34.21.37.14.66.36.86.67.2.31.3.72.3,1.23,0,.6-.15,1.13-.45,1.59-.3.46-.72.85-1.24,1.16s-1.12.55-1.79.71-1.37.24-2.11.24-1.37-.05-1.92-.16c-.55-.11-.98-.29-1.28-.55-.31-.25-.46-.59-.46-1.01,0-.33.08-.63.24-.91ZM66.88,85.1c-.1.25-.15.48-.15.67,0,.22.08.4.24.53.16.13.38.23.64.28.26.06.55.08.86.08.41,0,.8-.04,1.17-.11.37-.07.7-.18.99-.33.29-.15.52-.33.69-.54.17-.21.25-.46.25-.75,0-.27-.1-.45-.31-.55-.21-.1-.55-.15-1.04-.15h-.48c-.21,0-.42,0-.63,0h-.49c-.11,0-.23,0-.34,0-.11,0-.22,0-.33-.01-.17-.02-.29-.02-.36,0-.07.01-.15.07-.25.17-.21.22-.36.46-.46.71ZM69.21,79.44c.05.16.13.28.26.38.12.09.31.14.55.14.36,0,.67-.15.94-.44s.48-.65.63-1.09.22-.88.22-1.33c0-.16-.02-.31-.05-.47-.03-.16-.1-.29-.22-.4-.12-.1-.3-.16-.54-.16-.36,0-.68.15-.96.44s-.5.65-.67,1.09-.24.88-.24,1.33c0,.18.02.35.07.51Z"/>
          <path class="cls-2" d="M84.63,83.19c-.59.48-1.25.72-1.98.73-.39,0-.72-.08-.97-.26-.25-.17-.43-.39-.54-.64-.02-.09-.04-.16-.06-.21-.02-.05-.03-.09-.04-.13-.04-.06-.08-.09-.13-.08s-.12.06-.22.15c-.33.34-.7.61-1.11.82-.41.21-.86.32-1.35.32s-.98-.09-1.43-.27c-.45-.18-.81-.5-1.1-.95-.28-.45-.42-1.06-.43-1.84,0-.85.14-1.63.42-2.34.29-.71.66-1.33,1.13-1.85.46-.52.97-.92,1.51-1.21.54-.28,1.06-.43,1.56-.43.56,0,1.01.1,1.35.31s.6.52.78.92c.08.17.13.26.17.25.04,0,.08-.11.13-.31l.16-.73c.02-.09.05-.15.09-.18s.13-.05.26-.05h1.81c.19,0,.3.01.33.06.03.04.03.13-.01.28l-1.53,6.14s-.02.09-.03.15c0,.06-.01.11-.01.15,0,.18.09.27.26.27.14,0,.29-.06.45-.19.16-.12.32-.3.48-.52.16-.22.3-.48.43-.77.06-.13.11-.2.15-.22.04-.02.12,0,.24.05l.49.21c.13.06.21.11.22.16.01.05-.01.15-.08.3-.37.79-.85,1.43-1.44,1.91ZM81.67,77.42c-.06-.32-.17-.58-.33-.78s-.39-.3-.68-.3-.6.13-.9.38c-.3.25-.58.59-.83,1.01-.25.42-.46.89-.61,1.42s-.23,1.06-.22,1.59c0,.6.1,1.05.3,1.35s.49.46.87.45c.27,0,.55-.12.84-.35.29-.23.57-.55.82-.94.25-.39.46-.83.61-1.32s.24-.98.23-1.48c0-.37-.03-.72-.1-1.04Z"/>
          <path class="cls-2" d="M90.27,75.19c.18,0,.29.02.33.06s.04.13.01.26l-.31,1.34c-.05.24-.06.37-.03.38s.14-.1.32-.35c.44-.62.92-1.1,1.43-1.43.51-.33,1.06-.5,1.63-.5.34,0,.66.05.97.14.31.09.57.26.78.49s.34.55.38.95c.04.4-.02.92-.2,1.54l-1.01,3.49c-.04.15-.06.27-.06.36,0,.18.09.27.26.27.21,0,.43-.13.68-.39.25-.26.48-.62.69-1.07.05-.11.1-.19.15-.23.05-.04.13-.04.25,0l.5.24c.13.06.21.11.22.16.01.05-.02.15-.09.3-.35.78-.83,1.41-1.42,1.9-.59.49-1.25.73-1.98.74-.55,0-.97-.12-1.26-.36-.29-.24-.43-.57-.43-.97,0-.1,0-.21.03-.34.02-.12.04-.23.07-.32l.93-3.43c.11-.4.19-.75.24-1.05.04-.3.02-.54-.06-.71-.09-.17-.27-.25-.53-.25-.3,0-.61.13-.93.4-.33.26-.64.61-.95,1.05-.31.44-.58.92-.82,1.44s-.42,1.05-.54,1.59l-.53,2.35c-.03.14-.07.24-.13.3s-.17.09-.36.09h-1.52c-.25,0-.4-.02-.43-.07-.03-.05-.03-.18,0-.37l1.44-6.3c.04-.17.04-.27,0-.31-.04-.04-.16-.06-.37-.06h-.62c-.15,0-.24-.02-.28-.07-.03-.05-.05-.15-.05-.29v-.59c0-.15.01-.24.05-.28.03-.04.12-.06.26-.06h3.28Z"/>
          <path class="cls-2" d="M100.34,81.63s-.02.09-.03.15c0,.06-.01.11-.01.15,0,.18.09.27.26.27.21,0,.43-.13.67-.4.24-.26.47-.61.66-1.04.06-.13.12-.22.16-.26.04-.04.14-.02.29.04l.52.23c.13.06.19.12.17.19-.02.07-.06.17-.12.31-.37.77-.85,1.39-1.43,1.86s-1.24.7-1.95.71c-.52,0-.92-.12-1.21-.37-.29-.25-.44-.6-.44-1.04,0-.1.01-.22.03-.36.02-.13.04-.25.06-.33l1.1-4.93c.04-.16.04-.26.01-.3-.03-.05-.14-.07-.34-.07h-.76c-.15,0-.25-.02-.29-.06s-.06-.14-.06-.29v-.64c0-.14.02-.22.07-.25s.13-.05.26-.05h3.42c.24-.01.37,0,.41.06.04.05.03.17-.02.38l-1.44,6.03ZM100.07,71.35c.28-.24.63-.36,1.03-.36s.75.12,1.03.36c.28.24.43.56.43.97s-.14.74-.42.98c-.28.24-.63.36-1.03.36s-.74-.12-1.03-.36c-.29-.24-.43-.56-.43-.97s.14-.74.43-.98Z"/>
          <path class="cls-2" d="M112.65,78.34c-.16.24-.35.42-.6.53-.24.11-.5.17-.76.17-.35,0-.64-.1-.9-.31-.25-.21-.38-.52-.38-.94,0-.23.05-.41.15-.54.1-.14.2-.25.3-.35s.15-.2.15-.31c0-.16-.05-.29-.16-.39-.11-.1-.3-.15-.57-.15-.38,0-.77.12-1.16.36s-.75.56-1.08.98c-.33.42-.59.9-.79,1.46-.2.55-.3,1.15-.3,1.8,0,.4.05.73.13,1.01.09.27.22.48.4.62.18.14.41.21.7.21.31,0,.62-.07.93-.2.31-.13.6-.31.87-.54.27-.22.5-.47.7-.75.06-.08.12-.14.17-.18.05-.04.15-.06.3-.06h.76c.16,0,.27.02.33.06s.05.12-.02.24c-.28.46-.63.9-1.05,1.32-.42.42-.92.76-1.49,1.03-.57.27-1.23.4-1.97.4-.65,0-1.23-.1-1.74-.31-.51-.21-.92-.54-1.22-1.01-.3-.46-.45-1.07-.45-1.83,0-.81.15-1.56.45-2.26.31-.7.72-1.31,1.26-1.83.53-.52,1.13-.93,1.8-1.23.67-.29,1.37-.44,2.11-.44.68,0,1.28.1,1.78.31s.89.5,1.16.88.41.81.41,1.31c0,.39-.08.71-.23.96Z"/>
          <path class="cls-2" d="M52.87,91.71c.2,0,.34.02.42.06.08.04.1.15.06.33l-.19.83c-.05.21-.06.33-.04.37.02.04.11-.05.27-.29.33-.47.71-.85,1.14-1.14.43-.29.93-.44,1.5-.44.6,0,1.1.16,1.48.48.38.33.58.76.58,1.31s-.15.98-.46,1.32-.7.5-1.17.51c-.26,0-.5-.05-.72-.16s-.38-.26-.51-.44c-.13-.19-.19-.39-.19-.61,0-.24.03-.42.09-.54.06-.12.12-.21.18-.27.06-.06.09-.11.09-.17,0-.09-.07-.14-.22-.14-.22,0-.46.12-.73.36-.27.24-.53.56-.8.96s-.51.85-.72,1.34c-.22.49-.38.99-.49,1.48l-.65,2.83c-.04.17-.08.28-.12.34s-.17.09-.39.09h-1.56c-.21,0-.33-.02-.36-.07s-.04-.15,0-.3l1.45-6.34c.04-.18.05-.3.02-.34-.03-.05-.16-.07-.38-.07h-.6c-.15,0-.24-.02-.27-.07-.03-.05-.05-.15-.05-.31v-.61c0-.12.02-.21.05-.24.04-.04.11-.06.23-.06h3.07Z"/>
          <path class="cls-2" d="M58.57,95c.31-.69.74-1.31,1.29-1.84.55-.54,1.17-.96,1.87-1.26s1.44-.46,2.21-.46c1.03,0,1.81.17,2.34.53.53.35.79.86.79,1.53,0,.49-.13.91-.38,1.27-.26.35-.6.65-1.04.89-.43.24-.91.44-1.44.59-.53.15-1.06.27-1.6.36s-1.04.15-1.51.18c-.15.01-.24.05-.29.12-.05.07-.07.19-.07.35,0,.6.11,1.04.34,1.34.22.29.55.44.98.44.32,0,.63-.07.93-.21.3-.14.58-.32.84-.55.26-.23.48-.48.68-.76.06-.08.12-.14.17-.17.05-.03.16-.05.31-.05h.74c.2,0,.32.02.36.07.04.05.01.15-.08.29-.28.45-.62.88-1.04,1.29s-.89.75-1.45,1.01c-.55.26-1.19.39-1.92.39-.65,0-1.23-.1-1.76-.31-.52-.21-.94-.54-1.26-1.01-.31-.46-.47-1.07-.48-1.83s.15-1.5.47-2.19ZM62.47,95.47c.4-.1.77-.24,1.1-.41.33-.17.6-.38.8-.64.2-.26.3-.57.3-.94,0-.31-.07-.53-.2-.67-.13-.14-.35-.21-.64-.21-.36,0-.72.11-1.08.32-.37.21-.7.52-1,.92-.3.4-.54.88-.71,1.45-.05.17-.07.28-.05.34.02.06.11.08.28.06.4-.05.81-.13,1.21-.23Z"/>
          <path class="cls-2" d="M72.56,97.25c-.19-.19-.44-.37-.75-.53-.3-.16-.63-.32-.97-.49-.34-.17-.67-.35-.97-.56-.31-.21-.56-.45-.75-.73-.2-.28-.29-.62-.29-1.01,0-.46.11-.86.33-1.18.22-.32.51-.58.88-.79.36-.2.76-.35,1.2-.45.44-.09.88-.14,1.31-.14.72,0,1.34.1,1.86.3.52.21.92.48,1.2.81.28.33.42.69.42,1.07,0,.4-.11.73-.33.96-.22.24-.52.36-.9.36-.32,0-.59-.09-.83-.28-.24-.19-.35-.42-.35-.7,0-.24.03-.41.1-.51.07-.1.14-.18.21-.23.07-.05.1-.12.1-.21,0-.17-.13-.29-.4-.37-.27-.08-.53-.12-.79-.12-.29,0-.55.04-.8.12-.25.08-.45.2-.61.35-.16.15-.23.34-.23.56,0,.25.1.47.3.66s.46.36.77.51c.31.16.65.32,1,.49.35.17.68.36,1,.58.31.22.57.49.77.8.2.31.3.7.3,1.15,0,.48-.12.89-.35,1.23s-.56.61-.96.82-.86.36-1.36.45c-.5.1-1.02.15-1.56.15-.72,0-1.37-.09-1.95-.29-.58-.19-1.04-.47-1.38-.83-.34-.36-.51-.78-.51-1.26s.14-.87.42-1.17c.28-.31.62-.46,1.02-.47.34,0,.63.09.86.28.23.19.35.44.35.77,0,.26-.06.44-.18.56-.12.11-.24.2-.36.26-.12.06-.18.13-.18.23,0,.15.08.28.25.4.17.11.38.2.64.26.26.06.52.09.81.09.61,0,1.09-.12,1.45-.34.36-.23.54-.52.53-.89,0-.26-.1-.49-.29-.68Z"/>
          <path class="cls-2" d="M78.25,92.11c.59-.49,1.25-.74,1.97-.74s1.2.18,1.45.56c.25.37.3.85.13,1.44l-.93,3.43c-.12.4-.2.75-.24,1.05-.04.3-.02.54.07.71.09.17.26.25.53.25s.58-.13.9-.4c.32-.27.64-.62.95-1.06.31-.44.59-.92.84-1.46.25-.53.43-1.07.55-1.61l.53-2.36c.02-.1.05-.18.09-.24s.12-.09.26-.09h1.85c.16,0,.26,0,.3.03.04.02.04.1.01.22l-1.55,6.22c-.03.13-.04.26-.03.38.01.13.1.19.25.19.21,0,.44-.13.68-.39.24-.26.46-.61.66-1.03.06-.12.11-.2.15-.25.04-.05.13-.04.27.01l.44.2c.15.06.24.12.26.18.02.06,0,.16-.06.3-.37.8-.85,1.44-1.44,1.91s-1.25.72-1.98.72c-.53,0-.94-.14-1.23-.44-.29-.29-.4-.67-.35-1.14l.11-.53c.02-.1,0-.15-.03-.15s-.08.04-.14.12c-.43.65-.92,1.16-1.48,1.53-.56.37-1.13.55-1.71.56-.34,0-.66-.05-.97-.14-.31-.09-.57-.26-.77-.49-.21-.23-.34-.55-.38-.95-.05-.4.02-.91.2-1.53l1.01-3.49c.04-.14.06-.28.06-.42,0-.14-.09-.21-.26-.21-.21,0-.43.13-.67.39-.24.26-.47.62-.69,1.07-.06.12-.11.2-.14.24s-.13.02-.27-.04l-.55-.24c-.13-.06-.2-.11-.18-.16s.05-.13.1-.26c.36-.78.84-1.42,1.43-1.91Z"/>
          <path class="cls-2" d="M92,98.05s-.02.09-.03.15c0,.06-.01.11-.01.15,0,.18.09.27.26.27.21,0,.44-.14.69-.4.25-.27.47-.62.67-1.06.06-.13.11-.21.15-.24.04-.03.13-.02.27.04l.5.22c.11.05.18.09.2.13.02.04,0,.11-.04.23-.37.83-.85,1.49-1.45,1.98-.6.5-1.27.74-2.01.75-.52,0-.92-.12-1.21-.36-.29-.24-.43-.58-.44-1.03,0-.1,0-.22.02-.36s.04-.25.06-.36l1.93-9.08c.04-.17.04-.28.02-.34s-.15-.09-.37-.09h-.76c-.13,0-.21-.01-.26-.04-.04-.03-.06-.11-.06-.24v-.7c0-.13.01-.21.05-.25.03-.04.11-.06.24-.06h3.33c.32-.01.5.03.53.11.04.08.03.24-.02.48l-2.28,10.09Z"/>
          <path class="cls-2" d="M97.23,91.56c.13,0,.2-.02.22-.05s.03-.1.06-.2l.23-1c.03-.1.06-.16.09-.19.03-.03.11-.05.22-.06.34-.02.63-.08.86-.18.23-.09.41-.18.53-.26.08-.05.14-.09.18-.11.04-.02.09-.03.14-.04.05,0,.13,0,.24,0,.13,0,.22.01.27.04.04.02.05.09.02.19l-.37,1.59c-.03.11-.03.18-.02.21.01.03.09.05.23.05h1.31c.12,0,.2,0,.24.03s.06.1.06.23v.69c0,.15-.01.24-.04.28-.03.04-.12.05-.27.05h-1.67c-.11,0-.18.02-.21.06-.03.03-.05.09-.07.19l-1.12,4.71c-.03.12-.05.24-.08.37-.02.13-.02.23.02.32.04.09.13.13.28.13.2,0,.4-.09.61-.27.21-.18.42-.43.63-.75.06-.09.12-.16.17-.22.05-.05.13-.06.23-.01l.53.26c.11.05.18.1.19.14.01.04,0,.13-.07.27-.28.66-.71,1.19-1.27,1.59s-1.23.6-1.99.61c-.72,0-1.22-.17-1.51-.52s-.37-.83-.24-1.44l1.2-5.12c.03-.1.03-.18.02-.22-.01-.05-.09-.07-.22-.07h-.9c-.11,0-.19-.01-.24-.05-.05-.03-.07-.11-.07-.24v-.7c0-.14.02-.23.07-.26s.14-.05.26-.05h1.22Z"/>
          <path class="cls-2" d="M107.35,97.12c-.19-.19-.44-.37-.75-.53-.3-.16-.63-.32-.97-.49s-.67-.35-.97-.56c-.31-.21-.56-.45-.75-.73-.2-.28-.29-.62-.29-1.01,0-.46.11-.86.33-1.18.22-.32.51-.58.87-.79.36-.2.76-.35,1.2-.45.44-.09.88-.14,1.31-.14.72,0,1.34.1,1.86.3.52.21.92.48,1.2.81.28.33.42.69.42,1.07,0,.4-.11.73-.33.96-.22.24-.52.36-.9.36-.32,0-.59-.09-.83-.28s-.35-.42-.35-.7c0-.24.03-.41.1-.51s.14-.18.21-.23c.07-.05.1-.12.1-.21,0-.17-.13-.29-.4-.37s-.53-.12-.79-.12c-.29,0-.55.04-.8.12-.25.08-.45.2-.61.35-.16.15-.23.34-.23.56,0,.25.1.47.3.66s.46.36.77.51c.31.16.65.32,1,.49.35.17.68.36,1,.58.31.22.57.49.77.8s.3.7.3,1.15c0,.48-.12.89-.35,1.23-.24.34-.56.61-.96.82s-.86.36-1.36.45-1.02.15-1.56.15c-.72,0-1.37-.09-1.95-.29-.58-.19-1.04-.47-1.38-.83-.34-.36-.51-.78-.51-1.26s.14-.87.42-1.17c.28-.31.62-.46,1.02-.47.34,0,.63.09.86.28.23.19.35.44.35.77,0,.26-.06.44-.18.56-.12.11-.24.2-.36.26-.12.06-.18.13-.18.23,0,.15.08.28.25.4.17.11.38.2.64.26.26.06.52.09.81.09.61,0,1.09-.12,1.45-.34.36-.23.54-.52.53-.89,0-.26-.1-.49-.29-.68Z"/>
        </g>
      </g>
    </g>
  </g>
</svg>