<?xml version="1.0" encoding="UTF-8"?>
<svg id="Layer_2" data-name="Layer 2" xmlns="http://www.w3.org/2000/svg" viewBox="0 0 38.27 349.26">
  <defs>
    <style>
      .cls-1 {
        fill: #a3bbc3;
      }
    </style>
  </defs>
  <g id="Layer_1-2" data-name="Layer 1">
    <g>
      <path class="cls-1" d="M37.98,37.3c-.07.05-.25.29-.43.33l-.44-.03c-.38-.11-.63.2-.92.18-.23-.02-.39-.38-.65-.43-.5-.04-.75.04-1.06-.43-.13-.14-.33-.2-.54-.28-.31-.19-.67.05-.99-.05-.78-.36-.91-.73-1.82-.94-.18-.15-.23-.43-.39-.63-.16-.21-.09-.5-.29-.7-.25-.23-.64-.12-.88-.49-.22-.32-.6-.55-.87-.8-.22-.23-.12-.49-.34-.69-.2-.21-.57-.06-.75-.28-.2-.21.05-.65-.14-.87-.13-.17-1.1-.47-1.33-.72-.15-.15-.15-.34-.23-.51-.26-.48-.94-.73-1.27-1.05-.19-.22-.03-.58-.21-.8-.67-.43-.84-.8-1.37-1.36-.22-.34-.71-.17-.95-.35-.18-.15-.07-.68-.26-.8-.18-.14-.61.14-.81.02-.25-.16-.29-.82-.63-.72-.56.04-1.14.32-1.7.23-.58-.02-1.14-.18-1.65.14-.19.13-.1.66-.29.8-.19.16-.65-.08-.86.11-.16.11-.25.38-.41.52-.21.23-.44.17-.62.39-.19.21-.04.54-.24.77-.34.39-.79.52-1.18.8-.19.21-.13.46-.29.7-.16.23-.08.53-.27.71-.23.23-.74-.17-.98.06-.2.17-.18.41-.34.64-.16.23-.05.56-.23.75-.22.24-.72-.13-.92.1-.23.21.13.68-.1.91-.17.2-.44.16-.62.37-.15.15-.13.35-.2.53-.18.31-.53.83-.96.73-.21-.04-.43-.12-.59.04-.38.52-.81,1.2-1.33,1.6-.18.12-.49.11-.64.23-.22.14-.15.63-.35.74-.4.12-.66-.1-1.18.13-.37.05-.48.42-.79.52-.25.06-.63-.08-.83.08-.16.1-.31.29-.48.29-.39-.07-.63-.4-1.14-.32-.33-.07-.74.18-.97.07-.12-.13-.27-.53-.25-.74.03-.24.52-.42.55-.66.04-.24-.37-.52-.34-.79.09-.43.36-.89.53-1.32.09-.21.14-.48.26-.64.21-.26.59-.28.79-.66.19-.35.25-.67.23-1.04.05-.33.46-.58.66-.91.44-.73,1.11-.61,1.75-.95.33-.28.71-.64,1.02-.95.2-.24.15-.46.31-.71.16-.24.07-.53.26-.74.41-.3.9-.38,1.36-.68.22-.19.49-.4.6-.66.08-.49.25-.66.73-.75.19-.08.35-.26.51-.43.36-.26.11-.74.31-1.06.45-.39.9-.89,1.43-1.24.54-.46.85-.65,1.42-.94.19-.19.11-.56.27-.75.15-.2.55-.24.69-.45.55-.64.19-1.27-.12-1.95-.24-.35.09-.68-.03-1-.19-.41-.61-.73-.98-1.04-.27-.38-.65-.7-1-.97-.22-.24-.04-.56-.25-.8-.64-.65-1.45-1.22-2.23-1.77-.64-1.03-1.74-1.65-2.38-2.64-.23-.22-.58-.03-.8-.23-.23-.19-.13-.45-.37-.66-.28-.22-.75-.4-.71-.78-.1-.57-.76-1.27-1.33-1.46-.22-.04-.53.01-.64-.13-.16-.17.04-.65-.1-.84-.12-.21-.44-.23-.59-.46-.2-.42-.59-.98-.69-1.41-.02-.18.04-.39-.05-.55-.09-.22-.53-.32-.61-.54-.09-.22.05-.48,0-.75C.37,2.02.05,1.38.12.92c.19-.88.31-.39.93-.28C1.33.63,1.51.03,1.79,0c.75-.07,1.46.36,2.18.5.22.1.33.54.54.62.25.12.7-.36.94-.23.29.26.42.74.85.97.27.31.74.14,1.01.31.28.36.5.82.9,1.18.36.44.45.88.7,1.32.2.2.48.13.71.31.18.12.33.16.5.24.34.21.64.74.91.89.17.16.56.44.8.7.2.25.06.56.23.8.12.19.17.32.26.49.2.41.88.05,1.17.47.17.17.35.32.39.56.03.22-.06.49.09.65.18.23.44.15.67.38.17.15.27.37.45.55.47.35.67.62.97,1.08.52.43,1.24.74,1.77,1.1.25.08.54-.26.77-.2.23.04.41.53.63.53.22.03.43-.31.66-.34.3-.04.6.16.96-.01.37-.12.76-.32,1.05-.54.33-.42.49-.72,1-1.06.34-.32.59-.78.86-1.14.23-.23.47-.13.7-.36.15-.15.3-.36.41-.56.18-.26-.06-.67.15-.88.14-.16.43-.07.64-.1.5-.08.26-.71.72-.84.19-.06.42-.02.56-.18.16-.15.12-.38.17-.57.23-.58.73-1.04,1.14-1.51.5-.74,1.31-1.19,1.85-1.86.24-.22.6-.02.81-.24.16-.15.18-.46.33-.62.14-.17.4-.24.54-.38.2-.16.21-.52.41-.64.19-.13.53.03.76-.09.29-.18.6-.45.97-.53.56-.23.79-.68,1.47-.64.26-.02.5.27.74.24.33-.07.62-.65,1-.22.3.39.83.03,1.1.18.1.14-.01.55-.04.77-.04.25-.33.44-.35.68-.03.23.31.53.27.76-.02.24-.32.39-.39.65-.07.27,0,.67-.21.83-.13.13-.36.22-.42.39-.1.22.12.57.02.82-.31.68-.63,1.35-1.27,1.72-.24.26-.54.6-.86.78-.3.3-.71.17-.96.36-.24.24.17.71-.08.98-.87.74-1.69,1.77-2.74,2.25-.2.2-.1.5-.3.7-.37.26-.84.46-1.16.84-.29.38-.46.85-.83,1.19-.24.21-.62,0-.84.19-.22.18-.14.47-.35.67-.41.25-.84.44-1.16.87-.42.65-1.07.97-1.35,1.7-.12.38-.22.74-.05,1.1.1.18.16.36.07.54-.08.18-.24.37-.19.54.19.38.56.42.64,1,.17.34.15.69.36.95.36.21.77.22,1.11.55.41.2.14.74.34,1.02.13.18.31.18.47.27.17.09.35.23.52.26.45.05.44.57.67.86.19.21.44.17.64.38.21.2.14.48.36.66.27.2.76.02.95.34.45.43.37.66.59,1.2.17.24.32.58.61.66.19.05.43,0,.58.16.22.19.13.48.34.68.19.22.43.19.62.4.26.5.55.97,1.03,1.35.39.44,1.15.65,1.46,1.14.15.22-.05.61.07.81.36.33.71.44.93,1.03.13.28.11.64.32.81.15.13.4.24.44.4.07.22-.19.52-.15.78.11.56.4,1.31.09,1.82l-.07.09Z"/>
      <path class="cls-1" d="M37.98,81.8c-.07.05-.25.29-.43.33l-.44-.03c-.38-.11-.63.2-.92.18-.23-.02-.39-.38-.65-.43-.5-.04-.75.04-1.06-.43-.13-.14-.33-.2-.54-.28-.31-.19-.67.05-.99-.05-.78-.36-.91-.73-1.82-.94-.18-.15-.23-.43-.39-.63-.16-.21-.09-.5-.29-.7-.25-.23-.64-.12-.88-.49-.22-.32-.6-.55-.87-.8-.22-.23-.12-.49-.34-.69-.2-.21-.57-.06-.75-.28-.2-.21.05-.65-.14-.87-.13-.17-1.1-.47-1.33-.72-.15-.15-.15-.34-.23-.51-.26-.48-.94-.73-1.27-1.05-.19-.22-.03-.58-.21-.8-.67-.43-.84-.8-1.37-1.36-.22-.34-.71-.17-.95-.35-.18-.15-.07-.68-.26-.8-.18-.14-.61.14-.81.02-.25-.16-.29-.82-.63-.72-.56.04-1.14.32-1.7.23-.58-.02-1.14-.18-1.65.14-.19.13-.1.66-.29.8-.19.16-.65-.08-.86.11-.16.11-.25.38-.41.52-.21.23-.44.17-.62.39-.19.21-.04.54-.24.77-.34.39-.79.52-1.18.8-.19.21-.13.46-.29.7-.16.23-.08.53-.27.71-.23.23-.74-.17-.98.06-.2.17-.18.41-.34.64-.16.23-.05.56-.23.75-.22.24-.72-.13-.92.1-.23.21.13.68-.1.91-.17.2-.44.16-.62.37-.15.15-.13.35-.2.53-.18.31-.53.83-.96.73-.21-.04-.43-.12-.59.04-.38.52-.81,1.2-1.33,1.6-.18.12-.49.11-.64.23-.22.14-.15.63-.35.74-.4.12-.66-.1-1.18.13-.37.05-.48.42-.79.52-.25.06-.63-.08-.83.08-.16.1-.31.29-.48.29-.39-.07-.63-.4-1.14-.32-.33-.07-.74.18-.97.07-.12-.13-.27-.53-.25-.74.03-.24.52-.42.55-.66.04-.24-.37-.52-.34-.79.09-.43.36-.89.53-1.32.09-.21.14-.48.26-.64.21-.26.59-.28.79-.66.19-.35.25-.67.23-1.04.05-.33.46-.58.66-.91.44-.73,1.11-.61,1.75-.95.33-.28.71-.64,1.02-.95.2-.24.15-.46.31-.71.16-.24.07-.53.26-.74.41-.3.9-.38,1.36-.68.22-.19.49-.4.6-.66.08-.49.25-.66.73-.75.19-.08.35-.26.51-.43.36-.26.11-.74.31-1.06.45-.39.9-.89,1.43-1.24.54-.46.85-.65,1.42-.94.19-.19.11-.56.27-.75.15-.2.55-.24.69-.45.55-.64.19-1.27-.12-1.95-.24-.35.09-.68-.03-1-.19-.41-.61-.73-.98-1.04-.27-.38-.65-.7-1-.97-.22-.24-.04-.56-.25-.8-.64-.65-1.45-1.22-2.23-1.77-.64-1.03-1.74-1.65-2.38-2.64-.23-.22-.58-.03-.8-.23-.23-.19-.13-.45-.37-.66-.28-.22-.75-.4-.71-.78-.1-.57-.76-1.27-1.33-1.46-.22-.04-.53.01-.64-.13-.16-.17.04-.65-.1-.84-.12-.21-.44-.23-.59-.46-.2-.42-.59-.98-.69-1.41-.02-.18.04-.39-.05-.55-.09-.22-.53-.32-.61-.54-.09-.22.05-.48,0-.75-.11-.46-.43-1.1-.36-1.56.19-.88.31-.39.93-.28.28-.02.47-.61.74-.64.75-.07,1.46.36,2.18.5.22.1.33.54.54.62.25.12.7-.36.94-.23.29.26.42.74.85.97.27.31.74.14,1.01.31.28.36.5.82.9,1.18.36.44.45.88.7,1.32.2.2.48.13.71.31.18.12.33.16.5.24.34.21.64.74.91.89.17.16.56.44.8.7.2.25.06.56.23.8.12.19.17.32.26.49.2.41.88.05,1.17.47.17.17.35.32.39.56.03.22-.06.49.09.65.18.23.44.15.67.38.17.15.27.37.45.55.47.35.67.62.97,1.08.52.43,1.24.74,1.77,1.1.25.08.54-.26.77-.2.23.04.41.53.63.53.22.03.43-.31.66-.34.3-.04.6.16.96-.01.37-.12.76-.32,1.05-.54.33-.42.49-.72,1-1.06.34-.32.59-.78.86-1.14.23-.23.47-.13.7-.36.15-.15.3-.36.41-.56.18-.26-.06-.67.15-.88.14-.16.43-.07.64-.1.5-.08.26-.71.72-.84.19-.06.42-.02.56-.18.16-.15.12-.38.17-.57.23-.58.73-1.04,1.14-1.51.5-.74,1.31-1.19,1.85-1.86.24-.22.6-.02.81-.24.16-.15.18-.46.33-.62.14-.17.4-.24.54-.38.2-.16.21-.52.41-.64.19-.13.53.03.76-.09.29-.18.6-.45.97-.53.56-.23.79-.68,1.47-.64.26-.02.5.27.74.24.33-.07.62-.65,1-.22.3.39.83.03,1.1.18.1.14-.01.55-.04.77-.04.25-.33.44-.35.68-.03.23.31.53.27.76-.02.24-.32.39-.39.65-.07.27,0,.67-.21.83-.13.13-.36.22-.42.39-.1.22.12.57.02.82-.31.68-.63,1.35-1.27,1.72-.24.26-.54.6-.86.78-.3.3-.71.17-.96.36-.24.24.17.71-.08.98-.87.74-1.69,1.77-2.74,2.25-.2.2-.1.5-.3.7-.37.26-.84.46-1.16.84-.29.38-.46.85-.83,1.19-.24.21-.62,0-.84.19-.22.18-.14.47-.35.67-.41.25-.84.44-1.16.87-.42.65-1.07.97-1.35,1.7-.12.38-.22.74-.05,1.1.1.18.16.36.07.54-.08.18-.24.37-.19.54.19.38.56.42.64,1,.17.34.15.69.36.95.36.21.77.22,1.11.55.41.2.14.74.34,1.02.13.18.31.18.47.27.17.09.35.23.52.26.45.05.44.57.67.86.19.21.44.17.64.38.21.2.14.48.36.66.27.2.76.02.95.34.45.43.37.66.59,1.2.17.24.32.58.61.66.19.05.43,0,.58.16.22.19.13.48.34.68.19.22.43.19.62.4.26.5.55.97,1.03,1.35.39.44,1.15.65,1.46,1.14.15.22-.05.61.07.81.36.33.71.44.93,1.03.13.28.11.64.32.81.15.13.4.24.44.4.07.22-.19.52-.15.78.11.56.4,1.31.09,1.82l-.07.09Z"/>
      <path class="cls-1" d="M37.98,126.29c-.07.05-.25.29-.43.33l-.44-.03c-.38-.11-.63.2-.92.18-.23-.02-.39-.38-.65-.43-.5-.04-.75.04-1.06-.43-.13-.14-.33-.2-.54-.28-.31-.19-.67.05-.99-.05-.78-.36-.91-.73-1.82-.94-.18-.15-.23-.43-.39-.63-.16-.21-.09-.5-.29-.7-.25-.23-.64-.12-.88-.49-.22-.32-.6-.55-.87-.8-.22-.23-.12-.49-.34-.69-.2-.21-.57-.06-.75-.28-.2-.21.05-.65-.14-.87-.13-.17-1.1-.47-1.33-.72-.15-.15-.15-.34-.23-.51-.26-.48-.94-.73-1.27-1.05-.19-.22-.03-.58-.21-.8-.67-.43-.84-.8-1.37-1.36-.22-.34-.71-.17-.95-.35-.18-.15-.07-.68-.26-.8-.18-.14-.61.14-.81.02-.25-.16-.29-.82-.63-.72-.56.04-1.14.32-1.7.23-.58-.02-1.14-.18-1.65.14-.19.13-.1.66-.29.8-.19.16-.65-.08-.86.11-.16.11-.25.38-.41.52-.21.23-.44.17-.62.39-.19.21-.04.54-.24.77-.34.39-.79.52-1.18.8-.19.21-.13.46-.29.7-.16.23-.08.53-.27.71-.23.23-.74-.17-.98.06-.2.17-.18.41-.34.64-.16.23-.05.56-.23.75-.22.24-.72-.13-.92.1-.23.21.13.68-.1.91-.17.2-.44.16-.62.37-.15.15-.13.35-.2.53-.18.31-.53.83-.96.73-.21-.04-.43-.12-.59.04-.38.52-.81,1.2-1.33,1.6-.18.12-.49.11-.64.23-.22.14-.15.63-.35.74-.4.12-.66-.1-1.18.13-.37.05-.48.42-.79.52-.25.06-.63-.08-.83.08-.16.1-.31.29-.48.29-.39-.07-.63-.4-1.14-.32-.33-.07-.74.18-.97.07-.12-.13-.27-.53-.25-.74.03-.24.52-.42.55-.66.04-.24-.37-.52-.34-.79.09-.43.36-.89.53-1.32.09-.21.14-.48.26-.64.21-.26.59-.28.79-.66.19-.35.25-.67.23-1.04.05-.33.46-.58.66-.91.44-.73,1.11-.61,1.75-.95.33-.28.71-.64,1.02-.95.2-.24.15-.46.31-.71.16-.24.07-.53.26-.74.41-.3.9-.38,1.36-.68.22-.19.49-.4.6-.66.08-.49.25-.66.73-.75.19-.08.35-.26.51-.43.36-.26.11-.74.31-1.06.45-.39.9-.89,1.43-1.24.54-.46.85-.65,1.42-.94.19-.19.11-.56.27-.75.15-.2.55-.24.69-.45.55-.64.19-1.27-.12-1.95-.24-.35.09-.68-.03-1-.19-.41-.61-.73-.98-1.04-.27-.38-.65-.7-1-.97-.22-.24-.04-.56-.25-.8-.64-.65-1.45-1.22-2.23-1.77-.64-1.03-1.74-1.65-2.38-2.64-.23-.22-.58-.03-.8-.23-.23-.19-.13-.45-.37-.66-.28-.22-.75-.4-.71-.78-.1-.57-.76-1.27-1.33-1.46-.22-.04-.53.01-.64-.13-.16-.17.04-.65-.1-.84-.12-.21-.44-.23-.59-.46-.2-.42-.59-.98-.69-1.41-.02-.18.04-.39-.05-.55-.09-.22-.53-.32-.61-.54-.09-.22.05-.48,0-.75-.11-.46-.43-1.1-.36-1.56.19-.88.31-.39.93-.28.28-.02.47-.61.74-.64.75-.07,1.46.36,2.18.5.22.1.33.54.54.62.25.12.7-.36.94-.23.29.26.42.74.85.97.27.31.74.14,1.01.31.28.36.5.82.9,1.18.36.44.45.88.7,1.32.2.2.48.13.71.31.18.12.33.16.5.24.34.21.64.74.91.89.17.16.56.44.8.7.2.25.06.56.23.8.12.19.17.32.26.49.2.41.88.05,1.17.47.17.17.35.32.39.56.03.22-.06.49.09.65.18.23.44.15.67.38.17.15.27.37.45.55.47.35.67.62.97,1.08.52.43,1.24.74,1.77,1.1.25.08.54-.26.77-.2.23.04.41.53.63.53.22.03.43-.31.66-.34.3-.04.6.16.96-.01.37-.12.76-.32,1.05-.54.33-.42.49-.72,1-1.06.34-.32.59-.78.86-1.14.23-.23.47-.13.7-.36.15-.15.3-.36.41-.56.18-.26-.06-.67.15-.88.14-.16.43-.07.64-.1.5-.08.26-.71.72-.84.19-.06.42-.02.56-.18.16-.15.12-.38.17-.57.23-.58.73-1.04,1.14-1.51.5-.74,1.31-1.19,1.85-1.86.24-.22.6-.02.81-.24.16-.15.18-.46.33-.62.14-.17.4-.24.54-.38.2-.16.21-.52.41-.64.19-.13.53.03.76-.09.29-.18.6-.45.97-.53.56-.23.79-.68,1.47-.64.26-.02.5.27.74.24.33-.07.62-.65,1-.22.3.39.83.03,1.1.18.1.14-.01.55-.04.77-.04.25-.33.44-.35.68-.03.23.31.53.27.76-.02.24-.32.39-.39.65-.07.27,0,.67-.21.83-.13.13-.36.22-.42.39-.1.22.12.57.02.82-.31.68-.63,1.35-1.27,1.72-.24.26-.54.6-.86.78-.3.3-.71.17-.96.36-.24.24.17.71-.08.98-.87.74-1.69,1.77-2.74,2.25-.2.2-.1.5-.3.7-.37.26-.84.46-1.16.84-.29.38-.46.85-.83,1.19-.24.21-.62,0-.84.19-.22.18-.14.47-.35.67-.41.25-.84.44-1.16.87-.42.65-1.07.97-1.35,1.7-.12.38-.22.74-.05,1.1.1.18.16.36.07.54-.08.18-.24.37-.19.54.19.38.56.42.64,1,.17.34.15.69.36.95.36.21.77.22,1.11.55.41.2.14.74.34,1.02.13.18.31.18.47.27.17.09.35.23.52.26.45.05.44.57.67.86.19.21.44.17.64.38.21.2.14.48.36.66.27.2.76.02.95.34.45.43.37.66.59,1.2.17.24.32.58.61.66.19.05.43,0,.58.16.22.19.13.48.34.68.19.22.43.19.62.4.26.5.55.97,1.03,1.35.39.44,1.15.65,1.46,1.14.15.22-.05.61.07.81.36.33.71.44.93,1.03.13.28.11.64.32.81.15.13.4.24.44.4.07.22-.19.52-.15.78.11.56.4,1.31.09,1.82l-.07.09Z"/>
      <path class="cls-1" d="M37.98,170.79c-.07.05-.25.29-.43.33l-.44-.03c-.38-.11-.63.2-.92.18-.23-.02-.39-.38-.65-.43-.5-.04-.75.04-1.06-.43-.13-.14-.33-.2-.54-.28-.31-.19-.67.05-.99-.05-.78-.36-.91-.73-1.82-.94-.18-.15-.23-.43-.39-.63-.16-.21-.09-.5-.29-.7-.25-.23-.64-.12-.88-.49-.22-.32-.6-.55-.87-.8-.22-.23-.12-.49-.34-.69-.2-.21-.57-.06-.75-.28-.2-.21.05-.65-.14-.87-.13-.17-1.1-.47-1.33-.72-.15-.15-.15-.34-.23-.51-.26-.48-.94-.73-1.27-1.05-.19-.22-.03-.58-.21-.8-.67-.43-.84-.8-1.37-1.36-.22-.34-.71-.17-.95-.35-.18-.15-.07-.68-.26-.8-.18-.14-.61.14-.81.02-.25-.16-.29-.82-.63-.72-.56.04-1.14.32-1.7.23-.58-.02-1.14-.18-1.65.14-.19.13-.1.66-.29.8-.19.16-.65-.08-.86.11-.16.11-.25.38-.41.52-.21.23-.44.17-.62.39-.19.21-.04.54-.24.77-.34.39-.79.52-1.18.8-.19.21-.13.46-.29.7-.16.23-.08.53-.27.71-.23.23-.74-.17-.98.06-.2.17-.18.41-.34.64-.16.23-.05.56-.23.75-.22.24-.72-.13-.92.1-.23.21.13.68-.1.91-.17.2-.44.16-.62.37-.15.15-.13.35-.2.53-.18.31-.53.83-.96.73-.21-.04-.43-.12-.59.04-.38.52-.81,1.2-1.33,1.6-.18.12-.49.11-.64.23-.22.14-.15.63-.35.74-.4.12-.66-.1-1.18.13-.37.05-.48.42-.79.52-.25.06-.63-.08-.83.08-.16.1-.31.29-.48.29-.39-.07-.63-.4-1.14-.32-.33-.07-.74.18-.97.07-.12-.13-.27-.53-.25-.74.03-.24.52-.42.55-.66.04-.24-.37-.52-.34-.79.09-.43.36-.89.53-1.32.09-.21.14-.48.26-.64.21-.26.59-.28.79-.66.19-.35.25-.67.23-1.04.05-.33.46-.58.66-.91.44-.73,1.11-.61,1.75-.95.33-.28.71-.64,1.02-.95.2-.24.15-.46.31-.71.16-.24.07-.53.26-.74.41-.3.9-.38,1.36-.68.22-.19.49-.4.6-.66.08-.49.25-.66.73-.75.19-.08.35-.26.51-.43.36-.26.11-.74.31-1.06.45-.39.9-.89,1.43-1.24.54-.46.85-.65,1.42-.94.19-.19.11-.56.27-.75.15-.2.55-.24.69-.45.55-.64.19-1.27-.12-1.95-.24-.35.09-.68-.03-1-.19-.41-.61-.73-.98-1.04-.27-.38-.65-.7-1-.97-.22-.24-.04-.56-.25-.8-.64-.65-1.45-1.22-2.23-1.77-.64-1.03-1.74-1.65-2.38-2.64-.23-.22-.58-.03-.8-.23-.23-.19-.13-.45-.37-.66-.28-.22-.75-.4-.71-.78-.1-.57-.76-1.27-1.33-1.46-.22-.04-.53.01-.64-.13-.16-.17.04-.65-.1-.84-.12-.21-.44-.23-.59-.46-.2-.42-.59-.98-.69-1.41-.02-.18.04-.39-.05-.55-.09-.22-.53-.32-.61-.54-.09-.22.05-.48,0-.75-.11-.46-.43-1.1-.36-1.56.19-.88.31-.39.93-.28.28-.02.47-.61.74-.64.75-.07,1.46.36,2.18.5.22.1.33.54.54.62.25.12.7-.36.94-.23.29.26.42.74.85.97.27.31.74.14,1.01.31.28.36.5.82.9,1.18.36.44.45.88.7,1.32.2.2.48.13.71.31.18.12.33.16.5.24.34.21.64.74.91.89.17.16.56.44.8.7.2.25.06.56.23.8.12.19.17.32.26.49.2.41.88.05,1.17.47.17.17.35.32.39.56.03.22-.06.49.09.65.18.23.44.15.67.38.17.15.27.37.45.55.47.35.67.62.97,1.08.52.43,1.24.74,1.77,1.1.25.08.54-.26.77-.2.23.04.41.53.63.53.22.03.43-.31.66-.34.3-.04.6.16.96-.01.37-.12.76-.32,1.05-.54.33-.42.49-.72,1-1.06.34-.32.59-.78.86-1.14.23-.23.47-.13.7-.36.15-.15.3-.36.41-.56.18-.26-.06-.67.15-.88.14-.16.43-.07.64-.1.5-.08.26-.71.72-.84.19-.06.42-.02.56-.18.16-.15.12-.38.17-.57.23-.58.73-1.04,1.14-1.51.5-.74,1.31-1.19,1.85-1.86.24-.22.6-.02.81-.24.16-.15.18-.46.33-.62.14-.17.4-.24.54-.38.2-.16.21-.52.41-.64.19-.13.53.03.76-.09.29-.18.6-.45.97-.53.56-.23.79-.68,1.47-.64.26-.02.5.27.74.24.33-.07.62-.65,1-.22.3.39.83.03,1.1.18.1.14-.01.55-.04.77-.04.25-.33.44-.35.68-.03.23.31.53.27.76-.02.24-.32.39-.39.65-.07.27,0,.67-.21.83-.13.13-.36.22-.42.39-.1.22.12.57.02.82-.31.68-.63,1.35-1.27,1.72-.24.26-.54.6-.86.78-.3.3-.71.17-.96.36-.24.24.17.71-.08.98-.87.74-1.69,1.77-2.74,2.25-.2.2-.1.5-.3.7-.37.26-.84.46-1.16.84-.29.38-.46.85-.83,1.19-.24.21-.62,0-.84.19-.22.18-.14.47-.35.67-.41.25-.84.44-1.16.87-.42.65-1.07.97-1.35,1.7-.12.38-.22.74-.05,1.1.1.18.16.36.07.54-.08.18-.24.37-.19.54.19.38.56.42.64,1,.17.34.15.69.36.95.36.21.77.22,1.11.55.41.2.14.74.34,1.02.13.18.31.18.47.27.17.09.35.23.52.26.45.05.44.57.67.86.19.21.44.17.64.38.21.2.14.48.36.66.27.2.76.02.95.34.45.43.37.66.59,1.2.17.24.32.58.61.66.19.05.43,0,.58.16.22.19.13.48.34.68.19.22.43.19.62.4.26.5.55.97,1.03,1.35.39.44,1.15.65,1.46,1.14.15.22-.05.61.07.81.36.33.71.44.93,1.03.13.28.11.64.32.81.15.13.4.24.44.4.07.22-.19.52-.15.78.11.56.4,1.31.09,1.82l-.07.09Z"/>
      <path class="cls-1" d="M37.98,215.29c-.07.05-.25.29-.43.33l-.44-.03c-.38-.11-.63.2-.92.18-.23-.02-.39-.38-.65-.43-.5-.04-.75.04-1.06-.43-.13-.14-.33-.2-.54-.28-.31-.19-.67.05-.99-.05-.78-.36-.91-.73-1.82-.94-.18-.15-.23-.43-.39-.63-.16-.21-.09-.5-.29-.7-.25-.23-.64-.12-.88-.49-.22-.32-.6-.55-.87-.8-.22-.23-.12-.49-.34-.69-.2-.21-.57-.06-.75-.28-.2-.21.05-.65-.14-.87-.13-.17-1.1-.47-1.33-.72-.15-.15-.15-.34-.23-.51-.26-.48-.94-.73-1.27-1.05-.19-.22-.03-.58-.21-.8-.67-.43-.84-.8-1.37-1.36-.22-.34-.71-.17-.95-.35-.18-.15-.07-.68-.26-.8-.18-.14-.61.14-.81.02-.25-.16-.29-.82-.63-.72-.56.04-1.14.32-1.7.23-.58-.02-1.14-.18-1.65.14-.19.13-.1.66-.29.8-.19.16-.65-.08-.86.11-.16.11-.25.38-.41.52-.21.23-.44.17-.62.39-.19.21-.04.54-.24.77-.34.39-.79.52-1.18.8-.19.21-.13.46-.29.7-.16.23-.08.53-.27.71-.23.23-.74-.17-.98.06-.2.17-.18.41-.34.64-.16.23-.05.56-.23.75-.22.24-.72-.13-.92.1-.23.21.13.68-.1.91-.17.2-.44.16-.62.37-.15.15-.13.35-.2.53-.18.31-.53.83-.96.73-.21-.04-.43-.12-.59.04-.38.52-.81,1.2-1.33,1.6-.18.12-.49.11-.64.23-.22.14-.15.63-.35.74-.4.12-.66-.1-1.18.13-.37.05-.48.42-.79.52-.25.06-.63-.08-.83.08-.16.1-.31.29-.48.29-.39-.07-.63-.4-1.14-.32-.33-.07-.74.18-.97.07-.12-.13-.27-.53-.25-.74.03-.24.52-.42.55-.66.04-.24-.37-.52-.34-.79.09-.43.36-.89.53-1.32.09-.21.14-.48.26-.64.21-.26.59-.28.79-.66.19-.35.25-.67.23-1.04.05-.33.46-.58.66-.91.44-.73,1.11-.61,1.75-.95.33-.28.71-.64,1.02-.95.2-.24.15-.46.31-.71.16-.24.07-.53.26-.74.41-.3.9-.38,1.36-.68.22-.19.49-.4.6-.66.08-.49.25-.66.73-.75.19-.08.35-.26.51-.43.36-.26.11-.74.31-1.06.45-.39.9-.89,1.43-1.24.54-.46.85-.65,1.42-.94.19-.19.11-.56.27-.75.15-.2.55-.24.69-.45.55-.64.19-1.27-.12-1.95-.24-.35.09-.68-.03-1-.19-.41-.61-.73-.98-1.04-.27-.38-.65-.7-1-.97-.22-.24-.04-.56-.25-.8-.64-.65-1.45-1.22-2.23-1.77-.64-1.03-1.74-1.65-2.38-2.64-.23-.22-.58-.03-.8-.23-.23-.19-.13-.45-.37-.66-.28-.22-.75-.4-.71-.78-.1-.57-.76-1.27-1.33-1.46-.22-.04-.53.01-.64-.13-.16-.17.04-.65-.1-.84-.12-.21-.44-.23-.59-.46-.2-.42-.59-.98-.69-1.41-.02-.18.04-.39-.05-.55-.09-.22-.53-.32-.61-.54-.09-.22.05-.48,0-.75-.11-.46-.43-1.1-.36-1.56.19-.88.31-.39.93-.28.28-.02.47-.61.74-.64.75-.07,1.46.36,2.18.5.22.1.33.54.54.62.25.12.7-.36.94-.23.29.26.42.74.85.97.27.31.74.14,1.01.31.28.36.5.82.9,1.18.36.44.45.88.7,1.32.2.2.48.13.71.31.18.12.33.16.5.24.34.21.64.74.91.89.17.16.56.44.8.7.2.25.06.56.23.8.12.19.17.32.26.49.2.41.88.05,1.17.47.17.17.35.32.39.56.03.22-.06.49.09.65.18.23.44.15.67.38.17.15.27.37.45.55.47.35.67.62.97,1.08.52.43,1.24.74,1.77,1.1.25.08.54-.26.77-.2.23.04.41.53.63.53.22.03.43-.31.66-.34.3-.04.6.16.96-.01.37-.12.76-.32,1.05-.54.33-.42.49-.72,1-1.06.34-.32.59-.78.86-1.14.23-.23.47-.13.7-.36.15-.15.3-.36.41-.56.18-.26-.06-.67.15-.88.14-.16.43-.07.64-.1.5-.08.26-.71.72-.84.19-.06.42-.02.56-.18.16-.15.12-.38.17-.57.23-.58.73-1.04,1.14-1.51.5-.74,1.31-1.19,1.85-1.86.24-.22.6-.02.81-.24.16-.15.18-.46.33-.62.14-.17.4-.24.54-.38.2-.16.21-.52.41-.64.19-.13.53.03.76-.09.29-.18.6-.45.97-.53.56-.23.79-.68,1.47-.64.26-.02.5.27.74.24.33-.07.62-.65,1-.22.3.39.83.03,1.1.18.1.14-.01.55-.04.77-.04.25-.33.44-.35.68-.03.23.31.53.27.76-.02.24-.32.39-.39.65-.07.27,0,.67-.21.83-.13.13-.36.22-.42.39-.1.22.12.57.02.82-.31.68-.63,1.35-1.27,1.72-.24.26-.54.6-.86.78-.3.3-.71.17-.96.36-.24.24.17.71-.08.98-.87.74-1.69,1.77-2.74,2.25-.2.2-.1.5-.3.7-.37.26-.84.46-1.16.84-.29.38-.46.85-.83,1.19-.24.21-.62,0-.84.19-.22.18-.14.47-.35.67-.41.25-.84.44-1.16.87-.42.65-1.07.97-1.35,1.7-.12.38-.22.74-.05,1.1.1.18.16.36.07.54-.08.18-.24.37-.19.54.19.38.56.42.64,1,.17.34.15.69.36.95.36.21.77.22,1.11.55.41.2.14.74.34,1.02.13.18.31.18.47.27.17.09.35.23.52.26.45.05.44.57.67.86.19.21.44.17.64.38.21.2.14.48.36.66.27.2.76.02.95.34.45.43.37.66.59,1.2.17.24.32.58.61.66.19.05.43,0,.58.16.22.19.13.48.34.68.19.22.43.19.62.4.26.5.55.97,1.03,1.35.39.44,1.15.65,1.46,1.14.15.22-.05.61.07.81.36.33.71.44.93,1.03.13.28.11.64.32.81.15.13.4.24.44.4.07.22-.19.52-.15.78.11.56.4,1.31.09,1.82l-.07.09Z"/>
      <path class="cls-1" d="M37.98,259.79c-.07.05-.25.29-.43.33l-.44-.03c-.38-.11-.63.2-.92.18-.23-.02-.39-.38-.65-.43-.5-.04-.75.04-1.06-.43-.13-.14-.33-.2-.54-.28-.31-.19-.67.05-.99-.05-.78-.36-.91-.73-1.82-.94-.18-.15-.23-.43-.39-.63-.16-.21-.09-.5-.29-.7-.25-.23-.64-.12-.88-.49-.22-.32-.6-.55-.87-.8-.22-.23-.12-.49-.34-.69-.2-.21-.57-.06-.75-.28-.2-.21.05-.65-.14-.87-.13-.17-1.1-.47-1.33-.72-.15-.15-.15-.34-.23-.51-.26-.48-.94-.73-1.27-1.05-.19-.22-.03-.58-.21-.8-.67-.43-.84-.8-1.37-1.36-.22-.34-.71-.17-.95-.35-.18-.15-.07-.68-.26-.8-.18-.14-.61.14-.81.02-.25-.16-.29-.82-.63-.72-.56.04-1.14.32-1.7.23-.58-.02-1.14-.18-1.65.14-.19.13-.1.66-.29.8-.19.16-.65-.08-.86.11-.16.11-.25.38-.41.52-.21.23-.44.17-.62.39-.19.21-.04.54-.24.77-.34.39-.79.52-1.18.8-.19.21-.13.46-.29.7-.16.23-.08.53-.27.71-.23.23-.74-.17-.98.06-.2.17-.18.41-.34.64-.16.23-.05.56-.23.75-.22.24-.72-.13-.92.1-.23.21.13.68-.1.91-.17.2-.44.16-.62.37-.15.15-.13.35-.2.53-.18.31-.53.83-.96.73-.21-.04-.43-.12-.59.04-.38.52-.81,1.2-1.33,1.6-.18.12-.49.11-.64.23-.22.14-.15.63-.35.74-.4.12-.66-.1-1.18.13-.37.05-.48.42-.79.52-.25.06-.63-.08-.83.08-.16.1-.31.29-.48.29-.39-.07-.63-.4-1.14-.32-.33-.07-.74.18-.97.07-.12-.13-.27-.53-.25-.74.03-.24.52-.42.55-.66.04-.24-.37-.52-.34-.79.09-.43.36-.89.53-1.32.09-.21.14-.48.26-.64.21-.26.59-.28.79-.66.19-.35.25-.67.23-1.04.05-.33.46-.58.66-.91.44-.73,1.11-.61,1.75-.95.33-.28.71-.64,1.02-.95.2-.24.15-.46.31-.71.16-.24.07-.53.26-.74.41-.3.9-.38,1.36-.68.22-.19.49-.4.6-.66.08-.49.25-.66.73-.75.19-.08.35-.26.51-.43.36-.26.11-.74.31-1.06.45-.39.9-.89,1.43-1.24.54-.46.85-.65,1.42-.94.19-.19.11-.56.27-.75.15-.2.55-.24.69-.45.55-.64.19-1.27-.12-1.95-.24-.35.09-.68-.03-1-.19-.41-.61-.73-.98-1.04-.27-.38-.65-.7-1-.97-.22-.24-.04-.56-.25-.8-.64-.65-1.45-1.22-2.23-1.77-.64-1.03-1.74-1.65-2.38-2.64-.23-.22-.58-.03-.8-.23-.23-.19-.13-.45-.37-.66-.28-.22-.75-.4-.71-.78-.1-.57-.76-1.27-1.33-1.46-.22-.04-.53.01-.64-.13-.16-.17.04-.65-.1-.84-.12-.21-.44-.23-.59-.46-.2-.42-.59-.98-.69-1.41-.02-.18.04-.39-.05-.55-.09-.22-.53-.32-.61-.54-.09-.22.05-.48,0-.75-.11-.46-.43-1.1-.36-1.56.19-.88.31-.39.93-.28.28-.02.47-.61.74-.64.75-.07,1.46.36,2.18.5.22.1.33.54.54.62.25.12.7-.36.94-.23.29.26.42.74.85.97.27.31.74.14,1.01.31.28.36.5.82.9,1.18.36.44.45.88.7,1.32.2.2.48.13.71.31.18.12.33.16.5.24.34.21.64.74.91.89.17.16.56.44.8.7.2.25.06.56.23.8.12.19.17.32.26.49.2.41.88.05,1.17.47.17.17.35.32.39.56.03.22-.06.49.09.65.18.23.44.15.67.38.17.15.27.37.45.55.47.35.67.62.97,1.08.52.43,1.24.74,1.77,1.1.25.08.54-.26.77-.2.23.04.41.53.63.53.22.03.43-.31.66-.34.3-.04.6.16.96-.01.37-.12.76-.32,1.05-.54.33-.42.49-.72,1-1.06.34-.32.59-.78.86-1.14.23-.23.47-.13.7-.36.15-.15.3-.36.41-.56.18-.26-.06-.67.15-.88.14-.16.43-.07.64-.1.5-.08.26-.71.72-.84.19-.06.42-.02.56-.18.16-.15.12-.38.17-.57.23-.58.73-1.04,1.14-1.51.5-.74,1.31-1.19,1.85-1.86.24-.22.6-.02.81-.24.16-.15.18-.46.33-.62.14-.17.4-.24.54-.38.2-.16.21-.52.41-.64.19-.13.53.03.76-.09.29-.18.6-.45.97-.53.56-.23.79-.68,1.47-.64.26-.02.5.27.74.24.33-.07.62-.65,1-.22.3.39.83.03,1.1.18.1.14-.01.55-.04.77-.04.25-.33.44-.35.68-.03.23.31.53.27.76-.02.24-.32.39-.39.65-.07.27,0,.67-.21.83-.13.13-.36.22-.42.39-.1.22.12.57.02.82-.31.68-.63,1.35-1.27,1.72-.24.26-.54.6-.86.78-.3.3-.71.17-.96.36-.24.24.17.71-.08.98-.87.74-1.69,1.77-2.74,2.25-.2.2-.1.5-.3.7-.37.26-.84.46-1.16.84-.29.38-.46.85-.83,1.19-.24.21-.62,0-.84.19-.22.18-.14.47-.35.67-.41.25-.84.44-1.16.87-.42.65-1.07.97-1.35,1.7-.12.38-.22.74-.05,1.1.1.18.16.36.07.54-.08.18-.24.37-.19.54.19.38.56.42.64,1,.17.34.15.69.36.95.36.21.77.22,1.11.55.41.2.14.74.34,1.02.13.18.31.18.47.27.17.09.35.23.52.26.45.05.44.57.67.86.19.21.44.17.64.38.21.2.14.48.36.66.27.2.76.02.95.34.45.43.37.66.59,1.2.17.24.32.58.61.66.19.05.43,0,.58.16.22.19.13.48.34.68.19.22.43.19.62.4.26.5.55.97,1.03,1.35.39.44,1.15.65,1.46,1.14.15.22-.05.61.07.81.36.33.71.44.93,1.03.13.28.11.64.32.81.15.13.4.24.44.4.07.22-.19.52-.15.78.11.56.4,1.31.09,1.82l-.07.09Z"/>
      <path class="cls-1" d="M37.98,304.28c-.07.05-.25.29-.43.33l-.44-.03c-.38-.11-.63.2-.92.18-.23-.02-.39-.38-.65-.43-.5-.04-.75.04-1.06-.43-.13-.14-.33-.2-.54-.28-.31-.19-.67.05-.99-.05-.78-.36-.91-.73-1.82-.94-.18-.15-.23-.43-.39-.63-.16-.21-.09-.5-.29-.7-.25-.23-.64-.12-.88-.49-.22-.32-.6-.55-.87-.8-.22-.23-.12-.49-.34-.69-.2-.21-.57-.06-.75-.28-.2-.21.05-.65-.14-.87-.13-.17-1.1-.47-1.33-.72-.15-.15-.15-.34-.23-.51-.26-.48-.94-.73-1.27-1.05-.19-.22-.03-.58-.21-.8-.67-.43-.84-.8-1.37-1.36-.22-.34-.71-.17-.95-.35-.18-.15-.07-.68-.26-.8-.18-.14-.61.14-.81.02-.25-.16-.29-.82-.63-.72-.56.04-1.14.32-1.7.23-.58-.02-1.14-.18-1.65.14-.19.13-.1.66-.29.8-.19.16-.65-.08-.86.11-.16.11-.25.38-.41.52-.21.23-.44.17-.62.39-.19.21-.04.54-.24.77-.34.39-.79.52-1.18.8-.19.21-.13.46-.29.7-.16.23-.08.53-.27.71-.23.23-.74-.17-.98.06-.2.17-.18.41-.34.64-.16.23-.05.56-.23.75-.22.24-.72-.13-.92.1-.23.21.13.68-.1.91-.17.2-.44.16-.62.37-.15.15-.13.35-.2.53-.18.31-.53.83-.96.73-.21-.04-.43-.12-.59.04-.38.52-.81,1.2-1.33,1.6-.18.12-.49.11-.64.23-.22.14-.15.63-.35.74-.4.12-.66-.1-1.18.13-.37.05-.48.42-.79.52-.25.06-.63-.08-.83.08-.16.1-.31.29-.48.29-.39-.07-.63-.4-1.14-.32-.33-.07-.74.18-.97.07-.12-.13-.27-.53-.25-.74.03-.24.52-.42.55-.66.04-.24-.37-.52-.34-.79.09-.43.36-.89.53-1.32.09-.21.14-.48.26-.64.21-.26.59-.28.79-.66.19-.35.25-.67.23-1.04.05-.33.46-.58.66-.91.44-.73,1.11-.61,1.75-.95.33-.28.71-.64,1.02-.95.2-.24.15-.46.31-.71.16-.24.07-.53.26-.74.41-.3.9-.38,1.36-.68.22-.19.49-.4.6-.66.08-.49.25-.66.73-.75.19-.08.35-.26.51-.43.36-.26.11-.74.31-1.06.45-.39.9-.89,1.43-1.24.54-.46.85-.65,1.42-.94.19-.19.11-.56.27-.75.15-.2.55-.24.69-.45.55-.64.19-1.27-.12-1.95-.24-.35.09-.68-.03-1-.19-.41-.61-.73-.98-1.04-.27-.38-.65-.7-1-.97-.22-.24-.04-.56-.25-.8-.64-.65-1.45-1.22-2.23-1.77-.64-1.03-1.74-1.65-2.38-2.64-.23-.22-.58-.03-.8-.23-.23-.19-.13-.45-.37-.66-.28-.22-.75-.4-.71-.78-.1-.57-.76-1.27-1.33-1.46-.22-.04-.53.01-.64-.13-.16-.17.04-.65-.1-.84-.12-.21-.44-.23-.59-.46-.2-.42-.59-.98-.69-1.41-.02-.18.04-.39-.05-.55-.09-.22-.53-.32-.61-.54-.09-.22.05-.48,0-.75-.11-.46-.43-1.1-.36-1.56.19-.88.31-.39.93-.28.28-.02.47-.61.74-.64.75-.07,1.46.36,2.18.5.22.1.33.54.54.62.25.12.7-.36.94-.23.29.26.42.74.85.97.27.31.74.14,1.01.31.28.36.5.82.9,1.18.36.44.45.88.7,1.32.2.2.48.13.71.31.18.12.33.16.5.24.34.21.64.74.91.89.17.16.56.44.8.7.2.25.06.56.23.8.12.19.17.32.26.49.2.41.88.05,1.17.47.17.17.35.32.39.56.03.22-.06.49.09.65.18.23.44.15.67.38.17.15.27.37.45.55.47.35.67.62.97,1.08.52.43,1.24.74,1.77,1.1.25.08.54-.26.77-.2.23.04.41.53.63.53.22.03.43-.31.66-.34.3-.04.6.16.96-.01.37-.12.76-.32,1.05-.54.33-.42.49-.72,1-1.06.34-.32.59-.78.86-1.14.23-.23.47-.13.7-.36.15-.15.3-.36.41-.56.18-.26-.06-.67.15-.88.14-.16.43-.07.64-.1.5-.08.26-.71.72-.84.19-.06.42-.02.56-.18.16-.15.12-.38.17-.57.23-.58.73-1.04,1.14-1.51.5-.74,1.31-1.19,1.85-1.86.24-.22.6-.02.81-.24.16-.15.18-.46.33-.62.14-.17.4-.24.54-.38.2-.16.21-.52.41-.64.19-.13.53.03.76-.09.29-.18.6-.45.97-.53.56-.23.79-.68,1.47-.64.26-.02.5.27.74.24.33-.07.62-.65,1-.22.3.39.83.03,1.1.18.1.14-.01.55-.04.77-.04.25-.33.44-.35.68-.03.23.31.53.27.76-.02.24-.32.39-.39.65-.07.27,0,.67-.21.83-.13.13-.36.22-.42.39-.1.22.12.57.02.82-.31.68-.63,1.35-1.27,1.72-.24.26-.54.6-.86.78-.3.3-.71.17-.96.36-.24.24.17.71-.08.98-.87.74-1.69,1.77-2.74,2.25-.2.2-.1.5-.3.7-.37.26-.84.46-1.16.84-.29.38-.46.85-.83,1.19-.24.21-.62,0-.84.19-.22.18-.14.47-.35.67-.41.25-.84.44-1.16.87-.42.65-1.07.97-1.35,1.7-.12.38-.22.74-.05,1.1.1.18.16.36.07.54-.08.18-.24.37-.19.54.19.38.56.42.64,1,.17.34.15.69.36.95.36.21.77.22,1.11.55.41.2.14.74.34,1.02.13.18.31.18.47.27.17.09.35.23.52.26.45.05.44.57.67.86.19.21.44.17.64.38.21.2.14.48.36.66.27.2.76.02.95.34.45.43.37.66.59,1.2.17.24.32.58.61.66.19.05.43,0,.58.16.22.19.13.48.34.68.19.22.43.19.62.4.26.5.55.97,1.03,1.35.39.44,1.15.65,1.46,1.14.15.22-.05.61.07.81.36.33.71.44.93,1.03.13.28.11.64.32.81.15.13.4.24.44.4.07.22-.19.52-.15.78.11.56.4,1.31.09,1.82l-.07.09Z"/>
      <path class="cls-1" d="M37.98,348.78c-.07.05-.25.29-.43.33l-.44-.03c-.38-.11-.63.2-.92.18-.23-.02-.39-.38-.65-.43-.5-.04-.75.04-1.06-.43-.13-.14-.33-.2-.54-.28-.31-.19-.67.05-.99-.05-.78-.36-.91-.73-1.82-.94-.18-.15-.23-.43-.39-.63-.16-.21-.09-.5-.29-.7-.25-.23-.64-.12-.88-.49-.22-.32-.6-.55-.87-.8-.22-.23-.12-.49-.34-.69-.2-.21-.57-.06-.75-.28-.2-.21.05-.65-.14-.87-.13-.17-1.1-.47-1.33-.72-.15-.15-.15-.34-.23-.51-.26-.48-.94-.73-1.27-1.05-.19-.22-.03-.58-.21-.8-.67-.43-.84-.8-1.37-1.36-.22-.34-.71-.17-.95-.35-.18-.15-.07-.68-.26-.8-.18-.14-.61.14-.81.02-.25-.16-.29-.82-.63-.72-.56.04-1.14.32-1.7.23-.58-.02-1.14-.18-1.65.14-.19.13-.1.66-.29.8-.19.16-.65-.08-.86.11-.16.11-.25.38-.41.52-.21.23-.44.17-.62.39-.19.21-.04.54-.24.77-.34.39-.79.52-1.18.8-.19.21-.13.46-.29.7-.16.23-.08.53-.27.71-.23.23-.74-.17-.98.06-.2.17-.18.41-.34.64-.16.23-.05.56-.23.75-.22.24-.72-.13-.92.1-.23.21.13.68-.1.91-.17.2-.44.16-.62.37-.15.15-.13.35-.2.53-.18.31-.53.83-.96.73-.21-.04-.43-.12-.59.04-.38.52-.81,1.2-1.33,1.6-.18.12-.49.11-.64.23-.22.14-.15.63-.35.74-.4.12-.66-.1-1.18.13-.37.05-.48.42-.79.52-.25.06-.63-.08-.83.08-.16.1-.31.29-.48.29-.39-.07-.63-.4-1.14-.32-.33-.07-.74.18-.97.07-.12-.13-.27-.53-.25-.74.03-.24.52-.42.55-.66.04-.24-.37-.52-.34-.79.09-.43.36-.89.53-1.32.09-.21.14-.48.26-.64.21-.26.59-.28.79-.66.19-.35.25-.67.23-1.04.05-.33.46-.58.66-.91.44-.73,1.11-.61,1.75-.95.33-.28.71-.64,1.02-.95.2-.24.15-.46.31-.71.16-.24.07-.53.26-.74.41-.3.9-.38,1.36-.68.22-.19.49-.4.6-.66.08-.49.25-.66.73-.75.19-.08.35-.26.51-.43.36-.26.11-.74.31-1.06.45-.39.9-.89,1.43-1.24.54-.46.85-.65,1.42-.94.19-.19.11-.56.27-.75.15-.2.55-.24.69-.45.55-.64.19-1.27-.12-1.95-.24-.35.09-.68-.03-1-.19-.41-.61-.73-.98-1.04-.27-.38-.65-.7-1-.97-.22-.24-.04-.56-.25-.8-.64-.65-1.45-1.22-2.23-1.77-.64-1.03-1.74-1.65-2.38-2.64-.23-.22-.58-.03-.8-.23-.23-.19-.13-.45-.37-.66-.28-.22-.75-.4-.71-.78-.1-.57-.76-1.27-1.33-1.46-.22-.04-.53.01-.64-.13-.16-.17.04-.65-.1-.84-.12-.21-.44-.23-.59-.46-.2-.42-.59-.98-.69-1.41-.02-.18.04-.39-.05-.55-.09-.22-.53-.32-.61-.54-.09-.22.05-.48,0-.75-.11-.46-.43-1.1-.36-1.56.19-.88.31-.39.93-.28.28-.02.47-.61.74-.64.75-.07,1.46.36,2.18.5.22.1.33.54.54.62.25.12.7-.36.94-.23.29.26.42.74.85.97.27.31.74.14,1.01.31.28.36.5.82.9,1.18.36.44.45.88.7,1.32.2.2.48.13.71.31.18.12.33.16.5.24.34.21.64.74.91.89.17.16.56.44.8.7.2.25.06.56.23.8.12.19.17.32.26.49.2.41.88.05,1.17.47.17.17.35.32.39.56.03.22-.06.49.09.65.18.23.44.15.67.38.17.15.27.37.45.55.47.35.67.62.97,1.08.52.43,1.24.74,1.77,1.1.25.08.54-.26.77-.2.23.04.41.53.63.53.22.03.43-.31.66-.34.3-.04.6.16.96-.01.37-.12.76-.32,1.05-.54.33-.42.49-.72,1-1.06.34-.32.59-.78.86-1.14.23-.23.47-.13.7-.36.15-.15.3-.36.41-.56.18-.26-.06-.67.15-.88.14-.16.43-.07.64-.1.5-.08.26-.71.72-.84.19-.06.42-.02.56-.18.16-.15.12-.38.17-.57.23-.58.73-1.04,1.14-1.51.5-.74,1.31-1.19,1.85-1.86.24-.22.6-.02.81-.24.16-.15.18-.46.33-.62.14-.17.4-.24.54-.38.2-.16.21-.52.41-.64.19-.13.53.03.76-.09.29-.18.6-.45.97-.53.56-.23.79-.68,1.47-.64.26-.02.5.27.74.24.33-.07.62-.65,1-.22.3.39.83.03,1.1.18.1.14-.01.55-.04.77-.04.25-.33.44-.35.68-.03.23.31.53.27.76-.02.24-.32.39-.39.65-.07.27,0,.67-.21.83-.13.13-.36.22-.42.39-.1.22.12.57.02.82-.31.68-.63,1.35-1.27,1.72-.24.26-.54.6-.86.78-.3.3-.71.17-.96.36-.24.24.17.71-.08.98-.87.74-1.69,1.77-2.74,2.25-.2.2-.1.5-.3.7-.37.26-.84.46-1.16.84-.29.38-.46.85-.83,1.19-.24.21-.62,0-.84.19-.22.18-.14.47-.35.67-.41.25-.84.44-1.16.87-.42.65-1.07.97-1.35,1.7-.12.38-.22.74-.05,1.1.1.18.16.36.07.54-.08.18-.24.37-.19.54.19.38.56.42.64,1,.17.34.15.69.36.95.36.21.77.22,1.11.55.41.2.14.74.34,1.02.13.18.31.18.47.27.17.09.35.23.52.26.45.05.44.57.67.86.19.21.44.17.64.38.21.2.14.48.36.66.27.2.76.02.95.34.45.43.37.66.59,1.2.17.24.32.58.61.66.19.05.43,0,.58.16.22.19.13.48.34.68.19.22.43.19.62.4.26.5.55.97,1.03,1.35.39.44,1.15.65,1.46,1.14.15.22-.05.61.07.81.36.33.71.44.93,1.03.13.28.11.64.32.81.15.13.4.24.44.4.07.22-.19.52-.15.78.11.56.4,1.31.09,1.82l-.07.09Z"/>
    </g>
  </g>
</svg>